<?xml version="1.0" encoding="UTF-8" standalone="no"?>
<!-- Created with Inkscape (http://www.inkscape.org/) -->

<svg
   xmlns:dc="http://purl.org/dc/elements/1.1/"
   xmlns:cc="http://creativecommons.org/ns#"
   xmlns:rdf="http://www.w3.org/1999/02/22-rdf-syntax-ns#"
   xmlns:svg="http://www.w3.org/2000/svg"
   xmlns="http://www.w3.org/2000/svg"
   xmlns:sodipodi="http://sodipodi.sourceforge.net/DTD/sodipodi-0.dtd"
   xmlns:inkscape="http://www.inkscape.org/namespaces/inkscape"
   width="32"
   height="32"
   viewBox="0 0 8.4666667 8.4666667"
   version="1.1"
   id="svg8"
   inkscape:export-filename="C:\Unity\Gods Fate\Assets\Graphics\Human.png"
   inkscape:export-xdpi="96"
   inkscape:export-ydpi="96"
   inkscape:version="0.92.1 r15371"
   sodipodi:docname="Human.svg">
  <defs
     id="defs2" />
  <sodipodi:namedview
     id="base"
     pagecolor="#ffffff"
     bordercolor="#666666"
     borderopacity="1.0"
     inkscape:pageopacity="0.0"
     inkscape:pageshadow="2"
     inkscape:zoom="14.62069"
     inkscape:cx="12.419811"
     inkscape:cy="14.617924"
     inkscape:document-units="px"
     inkscape:current-layer="layer1"
     showgrid="false"
     units="px"
     inkscape:window-width="1920"
     inkscape:window-height="1017"
     inkscape:window-x="-8"
     inkscape:window-y="-8"
     inkscape:window-maximized="1" />
  <metadata
     id="metadata5">
    <rdf:RDF>
      <cc:Work
         rdf:about="">
        <dc:format>image/svg+xml</dc:format>
        <dc:type
           rdf:resource="http://purl.org/dc/dcmitype/StillImage" />
        <dc:title></dc:title>
      </cc:Work>
    </rdf:RDF>
  </metadata>
  <g
     inkscape:label="Calque 1"
     inkscape:groupmode="layer"
     id="layer1"
     transform="translate(0,-288.53333)">
    <path
       style="fill:none;stroke:#000000;stroke-width:0.26458332px;stroke-linecap:butt;stroke-linejoin:miter;stroke-opacity:1"
       d="m 4.0898082,294.82818 c 0,-0.006 0.00603,-0.0181 0,-0.0181 -0.00603,0 0,0.0121 0,0.0181 0,0.006 -0.00427,0.0141 0,0.0181 0.00427,0.004 0.013827,-0.004 0.018097,0 0.00853,0.009 -0.00853,0.0272 0,0.0362 0.00427,0.004 0.012066,0 0.018096,0 0,0.006 -0.00427,0.0141 0,0.0181 0.00427,0.004 0.013827,-0.004 0.018097,0 0.00495,0.005 -0.00491,0.0624 0,0.0724 0.00381,0.008 0.014276,0.0101 0.018096,0.0181 0.0027,0.005 0,0.0121 0,0.0181 0,0.006 0,0.0121 0,0.0181 0,0.0302 0,0.0603 0,0.0905 0,0.007 -7.282e-4,0.0717 0,0.0724 0.00427,0.004 0.013827,-0.004 0.018097,0 5.82e-4,6e-4 0,0.0503 0,0.0543 0,0.006 0,0.0121 0,0.0181 0,0.006 -0.00427,0.0141 0,0.0181 0.00427,0.004 0.013827,-0.004 0.018097,0 0.00427,0.004 -0.00427,0.0141 0,0.0181 0.00427,0.004 0.013826,-0.004 0.018096,0 0.00905,0.009 -0.00905,0.0453 0,0.0543 0.00427,0.004 0.013827,-0.004 0.018097,0 0.00427,0.004 -0.00427,0.0141 0,0.0181 0.00427,0.004 0.013826,-0.004 0.018096,0 0.00905,0.009 -0.00905,0.0453 0,0.0543 0.00853,0.009 0.027663,-0.009 0.036193,0 0.00427,0.004 -0.0027,0.0131 0,0.0181 0.00382,0.008 0.014277,0.0101 0.018097,0.0181 0.0027,0.005 -0.00427,0.0141 0,0.0181 0.00427,0.004 0.013826,-0.004 0.018096,0 0.024127,0.0241 -0.03016,0.0181 0.018097,0.0181 0.040012,0.02 0.00562,0.0112 0.018096,0.0362 0.037653,0.0753 -0.00125,-0.0193 0.036193,0.0181 0.00427,0.004 -0.0027,0.0131 0,0.0181 0.00382,0.008 0.014276,0.0101 0.018096,0.0181 0.0027,0.005 -0.00427,0.0141 0,0.0181 0.00427,0.004 0.013827,-0.004 0.018097,0 0.00427,0.004 -0.0027,0.0131 0,0.0181 0.00381,0.008 0.014276,0.0101 0.018096,0.0181 0.0054,0.0108 -0.00853,0.0272 0,0.0362 0.00427,0.004 0.013827,-0.004 0.018097,0 0.00427,0.004 -0.0027,0.0131 0,0.0181 0.041413,0.0828 -0.0075,-0.0768 0.036193,0.0543 0.00191,0.006 -0.00427,0.0141 0,0.0181 0.00426,0.004 0.013826,-0.004 0.018096,0 0.00853,0.008 -0.00853,0.0272 0,0.0362 0.00427,0.004 0.013827,-0.004 0.018097,0 0.00635,0.006 -0.00625,0.078 0,0.0905 0.00381,0.008 0.014276,0.0101 0.018096,0.0181 0.0054,0.0108 -0.00853,0.0272 0,0.0362 0.00427,0.004 0.013827,-0.004 0.018097,0 0.0037,0.004 -0.00359,0.0473 0,0.0543 0.00382,0.008 0.014277,0.0101 0.018097,0.0181 0.0027,0.005 0,0.0121 0,0.0181 0,0.0567 -0.00377,0.0134 0.072426,0.10865 0.08445,0 0.168901,0 0.253351,0 0.00603,0 0.012067,0 0.018097,0 0.00603,0 0.013828,-0.004 0.018098,0 0.00853,0.008 -0.00853,0.0272 0,0.0362 0.00427,0.004 0.013827,-0.004 0.018097,0 5.821e-4,6e-4 0,0.0503 0,0.0543 0,0.0965 0,0.19304 0,0.28954 0,0.007 7.409e-4,0.0717 0,0.0724 -0.00427,0.004 -0.012067,0 -0.018097,0 -0.012066,0 -0.024128,0 -0.036193,0 -0.1447721,0 -0.2895439,0 -0.4343159,0 -0.08445,0 -0.168901,0 -0.253351,0 -0.00603,0 -0.012067,0 -0.018097,0 -0.00603,0 -0.013828,-0.004 -0.018098,0 -0.00427,0.004 0.00427,0.0141 0,0.0181 -0.00555,0.006 -0.084892,-0.006 -0.090482,0 -0.00427,0.004 0.00427,0.0141 0,0.0181 -0.0056,0.006 -0.084883,-0.006 -0.090483,0 -0.00427,0.004 0.00427,0.0141 0,0.0181 -0.00427,0.004 -0.012068,0 -0.018098,0 -0.00603,0 -0.012708,0.003 -0.018098,0 -0.027598,-0.0138 -0.018098,-0.0476 -0.018098,-0.0724 0,-0.006 0.00427,-0.0141 0,-0.0181 -0.00427,-0.004 -0.013827,0.004 -0.018097,0 -5.82e-4,-6e-4 0,-0.0503 0,-0.0543 0,-0.0362 0,-0.0724 0,-0.10858 0,-0.0121 0,-0.0241 0,-0.0362 0,-0.006 0.0027,-0.0131 0,-0.0181 -0.00382,-0.008 -0.014278,-0.0101 -0.018098,-0.0181 -0.00491,-0.01 0.00495,-0.0674 0,-0.0724 -0.00427,-0.004 -0.013828,0.004 -0.018098,0 -0.0037,-0.004 0.00359,-0.0473 0,-0.0543 -0.00382,-0.008 -0.014278,-0.0101 -0.018098,-0.0181 -0.00539,-0.0108 0.00853,-0.0272 0,-0.0362 -0.00427,-0.004 -0.013828,0.004 -0.018098,0 -0.00495,-0.005 0.00491,-0.0624 0,-0.0724 -0.00381,-0.008 -0.014277,-0.0101 -0.018097,-0.0181 -0.00724,-0.0145 0.00724,-0.0398 0,-0.0543 -0.00382,-0.008 -0.014278,-0.0101 -0.018098,-0.0181 -0.00625,-0.0125 0.00635,-0.0845 0,-0.0905 -0.00427,-0.004 -0.013828,0.004 -0.018098,0 -0.00853,-0.009 0.00853,-0.0272 0,-0.0362 -0.00426,-0.004 -0.013828,0.004 -0.018098,0 -0.00853,-0.009 0.00539,-0.0254 0,-0.0362 -0.00382,-0.008 -0.014277,-0.0101 -0.018097,-0.0181 -0.00539,-0.0108 0.00539,-0.0254 0,-0.0362 -0.00382,-0.008 -0.014278,-0.0101 -0.018098,-0.0181 -0.0027,-0.005 0,-0.0121 0,-0.0181 0,-0.0128 0.00233,-0.10358 0,-0.10858 -0.00382,-0.008 -0.014278,-0.0101 -0.018098,-0.0181 -0.00491,-0.01 0.00495,-0.0674 0,-0.0724 -0.00427,-0.004 -0.013828,0.004 -0.018098,0 -0.00435,-0.004 0.00436,-0.0684 0,-0.0724 -0.024127,-0.0241 -0.018097,0.0301 -0.018097,-0.0181 0,-0.0422 0.00426,0.009 -0.018098,-0.0362 -0.0027,-0.005 0.00603,-0.0181 0,-0.0181 -0.012065,0 0.00853,0.0272 0,0.0362 -0.00427,0.004 -0.013828,-0.004 -0.018098,0 -0.00905,0.009 0.00905,0.0453 0,0.0543 -0.00427,0.004 -0.013828,-0.004 -0.018098,0 -0.00426,0.004 0,0.0121 0,0.0181 0,0.006 0,0.0121 0,0.0181 0,0.01 0.00238,0.0674 0,0.0724 -0.022358,0.0452 -0.018098,-0.006 -0.018098,0.0362 0,0.0664 0,0.13276 0,0.19906 0,0.01 0.00238,0.0674 0,0.0724 -0.00381,0.008 -0.014277,0.0101 -0.018097,0.0181 -0.00275,0.005 0,0.0463 0,0.0543 0,0.0422 0,0.0845 0,0.12667 0,0.006 0,0.0121 0,0.0181 0,0.006 0.0027,0.0131 0,0.0181 -0.00382,0.008 -0.014278,0.0101 -0.018098,0.0181 -0.0027,0.005 0.0027,0.0131 0,0.0181 -0.00382,0.008 -0.014278,0.0101 -0.018098,0.0181 -0.00233,0.005 0,0.0958 0,0.10858 0,0.006 0.00427,0.0141 0,0.0181 -0.00427,0.004 -0.013828,-0.004 -0.018098,0 -0.00853,0.009 0.00853,0.0272 0,0.0362 -0.00427,0.004 -0.013827,-0.004 -0.018097,0 -7.408e-4,7e-4 0,0.0654 0,0.0724 0,0.01 0.00238,0.0674 0,0.0724 -0.00382,0.008 -0.014278,0.0101 -0.018098,0.0181 -0.0027,0.005 0,0.0121 0,0.0181 0,0.006 0,0.0121 0,0.0181 0,0.0302 0,0.0603 0,0.0905 0,0.006 0.0027,0.0131 0,0.0181 -0.00382,0.008 -0.010468,0.0141 -0.018098,0.0181 -0.00468,0.002 -0.095752,0 -0.1085791,0 -0.00603,0 -0.013828,0.004 -0.018098,0 -0.00427,-0.004 0.00427,-0.0141 0,-0.0181 -0.00427,-0.004 -0.012067,0 -0.018097,0 -0.012063,0 -0.024128,0 -0.036193,0 -0.00603,0 0.018097,0.006 0.018097,0 0,-0.006 -0.012067,0 -0.018097,0 -0.012063,0 -0.024128,0 -0.036193,0 -0.012586,0 -0.083942,-0.003 -0.090482,0 -0.00763,0.004 -0.010468,0.0141 -0.018098,0.0181 -0.00982,0.005 -0.067436,-0.005 -0.072386,0 -0.00426,0.004 0.00427,0.0141 0,0.0181 -0.00427,0.004 -0.012068,0 -0.018098,0 -0.00779,0 -0.1036789,-0.002 -0.1085789,0 -0.00763,0.004 -0.010468,0.0141 -0.018098,0.0181 -0.00551,0.003 -0.04614,0 -0.05429,0 -0.042225,0 -0.08445,0 -0.1266753,0 -0.00439,0 -0.053708,-5.9e-4 -0.05429,0 -0.00427,0.004 0.00539,0.0151 0,0.0181 -0.016186,0.008 -0.036193,0 -0.05429,0 -0.036193,0 -0.072386,0 -0.1085789,0 -0.03016,0 -0.060321,0 -0.090482,0 -0.00603,0 -0.013826,0.004 -0.018096,0 -0.00427,-0.004 0,-0.0121 0,-0.0181 0,-0.006 0,-0.0121 0,-0.0181 0,-0.0483 0,-0.0966 0,-0.14477 0,-0.006 0.00427,-0.0141 0,-0.0181 -0.00426,-0.004 -0.013826,0.004 -0.018096,0 -8.202e-4,-8e-4 0,-0.0815 0,-0.0905 0,-0.007 7.276e-4,-0.0717 0,-0.0724 -0.00427,-0.004 -0.013826,0.004 -0.018096,0 -0.00387,-0.004 0.00333,-0.0624 0,-0.0724 -0.00427,-0.0128 -0.013826,-0.0234 -0.018096,-0.0362 -0.00191,-0.006 0,-0.0121 0,-0.0181 0,-0.006 -0.00427,-0.0141 0,-0.0181 5.82e-4,-5.9e-4 0.0499,0 0.05429,0 0.096515,0 0.193029,0 0.289544,0 0.00603,-0.0302 0.01304,-0.0601 0.018097,-0.0905 0.00198,-0.0119 -0.00382,-0.0247 0,-0.0362 0.00427,-0.0128 0.013831,-0.0234 0.018096,-0.0362 0.0034,-0.0102 0,-0.0424 0,-0.0543 0,-0.0302 0,-0.0603 0,-0.0905 0,-0.006 0,-0.0121 0,-0.0181 0,-0.006 -0.00427,-0.0138 0,-0.0181 0.00427,-0.004 0.013831,0.004 0.018096,0 0.00427,-0.004 -0.00191,-0.0124 0,-0.0181 0.00427,-0.0128 0.014825,-0.0231 0.018096,-0.0362 0.00293,-0.0117 -0.00382,-0.0247 0,-0.0362 0.0054,-0.0162 0.030798,-0.02 0.036193,-0.0362 0.00824,-0.0247 -0.00824,-0.0839 0,-0.10858 0.0027,-0.008 0.014281,-0.0105 0.018096,-0.0181 0.0054,-0.0108 -0.0054,-0.0254 0,-0.0362 0.00382,-0.008 0.014281,-0.0105 0.018096,-0.0181 0.0054,-0.0108 -0.00853,-0.0277 0,-0.0362 0.00427,-0.004 0.015399,0.005 0.018096,0 0.0054,-0.0108 -0.0054,-0.0254 0,-0.0362 0.0027,-0.005 0.013831,0.004 0.018096,0 0.00905,-0.009 -0.00905,-0.0452 0,-0.0543 0.037442,-0.0374 -0.00146,0.0572 0.036193,-0.0181 0.0054,-0.0108 -0.0054,-0.0254 0,-0.0362 0.00382,-0.008 0.014281,-0.0105 0.018096,-0.0181 0.0027,-0.005 -0.0027,-0.0127 0,-0.0181 0.00382,-0.008 0.014281,-0.0105 0.018096,-0.0181 0.00724,-0.0145 -0.00724,-0.0398 0,-0.0543 0.00382,-0.008 0.014281,-0.0105 0.018096,-0.0181 0.00491,-0.01 -0.00495,-0.0674 0,-0.0724 0.00427,-0.004 0.013831,0.004 0.018096,0 0.0056,-0.006 -0.0056,-0.0849 0,-0.0905 0.00427,-0.004 0.013831,0.004 0.018096,0 0.00853,-0.009 -0.00853,-0.0277 0,-0.0362 0.00427,-0.004 0.013831,0.004 0.018096,0 0.00427,-0.004 -0.00427,-0.0138 0,-0.0181 0.00427,-0.004 0.013831,0.004 0.018096,0 0.00435,-0.004 -0.00435,-0.068 0,-0.0724 0.00427,-0.004 0.013831,0.004 0.018096,0 0.00853,-0.009 -0.0054,-0.0254 0,-0.0362 0.00382,-0.008 0.014281,-0.0105 0.018096,-0.0181 0.0027,-0.005 -0.00427,-0.0138 0,-0.0181 0.00427,-0.004 0.012701,0.003 0.018096,0 0.075313,-0.0376 -0.019346,10e-4 0.018097,-0.0362 0.00427,-0.004 0.013831,0.004 0.018096,0 0.00427,-0.004 0,-0.0121 0,-0.0181 0,-0.006 0,-0.0121 0,-0.0181 0.030164,-0.024 0.056969,-0.053 0.090491,-0.0721 0.010484,-0.006 0.024129,0 0.036193,0 0.00603,0 0.012064,0 0.018096,0 0.048257,0 0.096515,0 0.144772,0 0.1689007,0 0.3378014,0 0.5067021,0"
       id="path5331"
       inkscape:connector-curvature="0" />
    <path
       style="fill:none;stroke:#000000;stroke-width:0.26458332px;stroke-linecap:butt;stroke-linejoin:miter;stroke-opacity:1"
       d="m 3.1849761,294.82817 c 0.00604,-0.018 0.014367,-0.0354 0.018105,-0.054 0.00397,-0.0198 0,-0.0836 0,-0.10858 0,-0.0784 0,-0.15684 0,-0.23526 0,-0.0241 0,-0.0482 0,-0.0724 0,-0.006 0,-0.0121 0,-0.0181 0,-0.006 -0.00603,-0.0181 0,-0.0181 0.00603,0 0.00603,0.0181 0,0.0181 -0.00853,0 -0.014282,-0.0105 -0.018098,-0.0181 -0.00327,-0.007 0,-0.0779 0,-0.0905 0.2171584,0 0.4343168,0 0.6514752,0 0.036193,0 0.072386,0 0.108579,0 0.00603,0 0.012064,0 0.018096,0 0.00603,0 0.013831,-0.004 0.018096,0 0.00427,0.004 -0.00427,0.0138 0,0.0181 0.00853,0.009 0.027662,-0.009 0.036193,0 0.00427,0.004 -0.00427,0.0138 0,0.0181 0.00427,0.004 0.012064,0 0.018097,0 0.00603,0 0.012064,0 0.018096,0 0.00603,0.0362 0.012908,0.0722 0.018098,0.10857 0.00394,0.0276 0,0.0622 0,0.0905 0,0.0603 0,0.12064 0,0.18096 0,0.0188 0.00255,0.0709 0,0.0724 -0.027854,0.0167 -0.060322,0.0242 -0.090483,0.0362"
       id="path5333"
       inkscape:connector-curvature="0" />
    <path
       style="fill:none;stroke:#000000;stroke-width:0.26458332px;stroke-linecap:butt;stroke-linejoin:miter;stroke-opacity:1"
       d="m 4.0536153,294.26743 c 0.049108,-0.12528 0.05429,-0.16031 0.05429,-0.25336 0,-0.006 -0.0027,-0.0127 0,-0.0181 0.00382,-0.008 0.014282,-0.0105 0.018098,-0.0181 0.00238,-0.005 0,-0.0629 0,-0.0724 0,-0.0663 0,-0.1327 0,-0.19906 0,-0.0362 0,-0.0724 0,-0.10858 0,-0.008 -0.00275,-0.0488 0,-0.0543 0.00382,-0.008 0.014282,-0.0105 0.018097,-0.0181 0.00327,-0.007 0,-0.0779 0,-0.0905 0,-0.0663 0,-0.1327 0,-0.19906 0,-0.0603 0,-0.12064 0,-0.18096 0,-0.0121 0,-0.0241 0,-0.0362 0,-0.006 -0.00603,-0.0181 0,-0.0181 0.00603,0 0,0.0241 0,0.0181 0,-0.0121 0.00539,-0.0254 0,-0.0362 -0.0027,-0.005 -0.01383,0.004 -0.018097,0 -5.821e-4,-5.8e-4 0,-0.0499 0,-0.0543"
       id="path5335"
       inkscape:connector-curvature="0" />
    <path
       style="fill:none;stroke:#000000;stroke-width:0.26458332px;stroke-linecap:butt;stroke-linejoin:miter;stroke-opacity:1"
       d="m 3.184983,294.23123 c -0.018095,-0.0302 -0.038559,-0.059 -0.054288,-0.0905 -0.00275,-0.006 0,-0.0461 0,-0.0543 0,-0.0362 0,-0.0724 0,-0.10858 0,-0.0965 0,-0.19303 0,-0.28954 0,-0.0191 0.00311,-0.11736 0,-0.12668 -0.0027,-0.008 -0.014282,-0.0105 -0.018097,-0.0181 -0.00275,-0.006 0,-0.0461 0,-0.0543 0,-0.0362 0,-0.0724 0,-0.10857 0,-0.0845 0,-0.16891 0,-0.25336 0,-0.006 0,-0.0121 0,-0.0181 0,-0.006 0.00427,-0.0138 0,-0.0181 -0.00427,-0.004 -0.01383,0.004 -0.018098,0 -5.821e-4,-5.8e-4 0,-0.0499 0,-0.0543 0,-0.006 0,-0.0241 0,-0.0181 0,0.0121 0,0.0241 0,0.0362"
       id="path5337"
       inkscape:connector-curvature="0" />
    <path
       style="fill:none;stroke:#000000;stroke-width:0.26458332px;stroke-linecap:butt;stroke-linejoin:miter;stroke-opacity:1"
       d="m 4.1260032,292.92821 c -0.00444,0.23234 0.098666,0.0313 0.144771,0.0544 0.035524,0.0178 0.00815,0.0344 0.018097,0.0543 0.00382,0.008 0.014282,0.0105 0.018098,0.0181 0.0027,0.005 -0.00427,0.0138 0,0.0181 0.00427,0.004 0.013832,-0.004 0.018097,0 0.037442,0.0374 -0.057217,-10e-4 0.018098,0.0362 0.00539,0.003 0.013832,-0.004 0.018097,0 0.00853,0.009 -0.00853,0.0277 0,0.0362 0.00427,0.004 0.013832,-0.004 0.018097,0 0.00427,0.004 -0.00427,0.0138 0,0.0181 0.00427,0.004 0.013832,-0.004 0.018098,0 0.00853,0.009 -0.00853,0.0277 0,0.0362 0.00427,0.004 0.01383,-0.004 0.018097,0 0.00427,0.004 -0.0027,0.0127 0,0.0181 0.00382,0.008 0.014282,0.0105 0.018098,0.0181 0.00238,0.005 0,0.0629 0,0.0724 0,0.0543 0,0.10857 0,0.16286 0,0.006 0,0.0121 0,0.0181 0,0.006 -0.0027,0.0127 0,0.0181 0.00382,0.008 0.014282,0.0105 0.018097,0.0181 0.00569,0.0114 -0.00569,0.061 0,0.0724 0.00382,0.008 0.014282,0.0105 0.018097,0.0181 0.00359,0.007 -0.0037,0.0506 0,0.0543 0.00427,0.004 0.01383,-0.004 0.018098,0 5.821e-4,5.8e-4 0,0.0499 0,0.0543 0,0.006 0,0.0121 0,0.0181 0,0.006 0.00603,0.0181 0,0.0181 -0.00603,0 0,-0.0121 0,-0.0181"
       id="path5339"
       inkscape:connector-curvature="0" />
    <path
       style="fill:none;stroke:#000000;stroke-width:0.26458332px;stroke-linecap:butt;stroke-linejoin:miter;stroke-opacity:1"
       d="m 3.0945,293.0549 c -0.036192,-0.0301 -0.067675,-0.0671 -0.1085774,-0.0904 -0.00741,-0.004 -0.010467,0.0143 -0.018097,0.0181 -0.048257,0 0.00603,-0.006 -0.018098,0.0181 -0.00427,0.004 -0.01383,-0.004 -0.018098,0 -0.00427,0.004 0.0027,0.0127 0,0.0181 -0.00382,0.008 -0.014282,0.0105 -0.018098,0.0181 -0.0027,0.005 0.00427,0.0138 0,0.0181 -0.00427,0.004 -0.01383,-0.004 -0.018098,0 -0.00427,0.004 0.00427,0.0138 0,0.0181 -0.037442,0.0374 0.00146,-0.0572 -0.036193,0.0181 -0.00539,0.0108 0.00539,0.0254 0,0.0362 -0.00382,0.008 -0.014282,0.0105 -0.018098,0.0181 -0.00539,0.0108 0.00539,0.0254 0,0.0362 -0.00382,0.008 -0.014282,0.0105 -0.018098,0.0181 -0.0027,0.005 0.00427,0.0138 0,0.0181 -0.00427,0.004 -0.01383,-0.004 -0.018098,0 -0.00426,0.004 0,0.0121 0,0.0181 0,0.0362 0,0.0724 0,0.10857 0,0.0362 0,0.0724 0,0.10858 0,0.008 0.00275,0.0488 0,0.0543 -0.00382,0.008 -0.014282,0.0105 -0.018098,0.0181 -0.0027,0.005 0.0027,0.0127 0,0.0181 -0.00382,0.008 -0.014282,0.0105 -0.018097,0.0181 -0.00238,0.005 0,0.0629 0,0.0724 0,0.0483 0,0.0965 0,0.14477 0,0.004 5.821e-4,0.0537 0,0.0543 -0.02413,0.0241 -0.018098,-0.0302 -0.018098,0.0181"
       id="path5341"
       inkscape:connector-curvature="0" />
    <path
       style="fill:none;stroke:#000000;stroke-width:0.26458332px;stroke-linecap:butt;stroke-linejoin:miter;stroke-opacity:1"
       d="m 4.4879431,293.74277 c -1.37e-5,0.0723 -1.08e-5,0.14468 -1.08e-5,0.21701 0,0.008 -0.00275,0.0488 0,0.0543 0.00382,0.008 0.014282,0.0105 0.018098,0.0181 0.00539,0.0108 -0.00539,0.0254 0,0.0362 0.00382,0.008 0.014282,0.0105 0.018097,0.0181 0.0027,0.005 -0.0027,0.0127 0,0.0181 0.00382,0.008 0.012065,0.0121 0.018097,0.0181 0.00603,0.006 0.010467,0.0143 0.018098,0.0181 0.00539,0.003 0.01383,-0.004 0.018097,0 0.00427,0.004 -0.00427,0.0138 0,0.0181 0.00427,0.004 0.01383,-0.004 0.018098,0 0.00427,0.004 -0.00427,0.0138 0,0.0181 0.00427,0.004 0.0127,-0.003 0.018097,0 0.00763,0.004 0.010467,0.0143 0.018097,0.0181 0.00406,0.002 0.068086,0 0.072386,0 0.036193,0 0.072386,0 0.1085791,0 0.030161,0 0.060322,0 0.090483,0 0.00603,0 0.012065,0 0.018097,0 0.00603,0 0.0127,0.003 0.018098,0 0.00763,-0.004 0.010467,-0.0143 0.018097,-0.0181 0.00539,-0.003 0.0127,0.003 0.018097,0 0.075313,-0.0377 -0.019346,10e-4 0.018098,-0.0362 0.00427,-0.004 0.01383,0.004 0.018097,0 0.00853,-0.009 -0.00539,-0.0254 0,-0.0362 0.00763,-0.0153 0.028563,-0.0209 0.036193,-0.0362 0.00233,-0.005 0,-0.0958 0,-0.10858 0,-0.0128 0.00233,-0.1039 0,-0.10858 -0.00382,-0.008 -0.014282,-0.0105 -0.018098,-0.0181 -0.00724,-0.0145 0.00724,-0.0398 0,-0.0543 -0.00382,-0.008 -0.014282,-0.0105 -0.018097,-0.0181 -0.0027,-0.005 0.00427,-0.0138 0,-0.0181 -0.00427,-0.004 -0.013833,0.004 -0.018098,0 -0.00427,-0.004 0.00427,-0.0138 0,-0.0181 -0.00905,-0.009 -0.045241,0.009 -0.05429,0 -0.00427,-0.004 0.00427,-0.0138 0,-0.0181 -0.00853,-0.009 -0.027662,0.009 -0.036193,0 -0.024127,-0.0241 0.030161,-0.0181 -0.018098,-0.0181 -0.00603,-0.0362 -0.012913,-0.0722 -0.018104,-0.10856 -0.00329,-0.023 0,-0.0491 0,-0.0724 0,-0.0543 0,-0.10858 0,-0.16287 0,-0.007 7.283e-4,-0.0716 0,-0.0724 -0.00427,-0.004 -0.013831,0.004 -0.018097,0 -0.00905,-0.009 0.00905,-0.0452 0,-0.0543 -0.00427,-0.004 -0.013831,0.004 -0.018096,0 -0.00427,-0.004 0.00427,-0.0138 0,-0.0181 -0.00427,-0.004 -0.013831,0.004 -0.018097,0 -0.00905,-0.009 0.00905,-0.0452 0,-0.0543 -0.00427,-0.004 -0.013831,0.004 -0.018096,0 -0.00427,-0.004 0.0027,-0.0127 0,-0.0181 -0.00382,-0.008 -0.014281,-0.0105 -0.018097,-0.0181 -0.0054,-0.0108 0.00853,-0.0277 0,-0.0362 -0.00427,-0.004 -0.013831,0.004 -0.018097,0 -0.00427,-0.004 0.00427,-0.0138 0,-0.0181 -0.00427,-0.004 -0.013831,0.004 -0.018096,0 -0.00427,-0.004 0.00427,-0.0138 0,-0.0181 -0.00427,-0.004 -0.013831,0.004 -0.018097,0 -0.00427,-0.004 0.00427,-0.0138 0,-0.0181 -0.00427,-0.004 -0.013831,0.004 -0.018096,0 -0.00853,-0.009 0.00853,-0.0277 0,-0.0362 -0.00427,-0.004 -0.013831,0.004 -0.018097,0 -0.00427,-0.004 0.00427,-0.0138 0,-0.0181 -0.00427,-0.004 -0.013831,0.004 -0.018096,0 -0.00427,-0.004 0.0027,-0.0127 0,-0.0181 -0.00382,-0.008 -0.014281,-0.0105 -0.018097,-0.0181 -0.00569,-0.0114 0.00569,-0.061 0,-0.0724 -0.00382,-0.008 -0.014281,-0.0105 -0.018096,-0.0181 -0.0027,-0.005 0.00427,-0.0138 0,-0.0181 -0.00427,-0.004 -0.013831,0.004 -0.018097,0 -0.00853,-0.009 0.00853,-0.0277 0,-0.0362 -0.00427,-0.004 -0.013831,0.004 -0.018096,0 -0.00427,-0.004 0,-0.0121 0,-0.0181 -0.00603,0 -0.013831,0.004 -0.018097,0 -0.00853,-0.009 0.00853,-0.0277 0,-0.0362 -0.00427,-0.004 -0.013831,0.004 -0.018097,0 -0.00853,-0.009 0.00853,-0.0277 0,-0.0362 -0.00427,-0.004 -0.012701,0.003 -0.018096,0 -0.00763,-0.004 -0.010466,-0.0143 -0.018097,-0.0181 -0.0054,-0.003 -0.013831,0.004 -0.018096,0 -0.00853,-0.009 0.00853,-0.0277 0,-0.0362 -0.00853,-0.009 -0.027662,0.009 -0.036193,0 -0.037442,-0.0374 0.057217,0.001 -0.018097,-0.0362 -0.010791,-0.005 -0.027662,0.009 -0.036193,0 -0.00427,-0.004 0.00427,-0.0138 0,-0.0181 -0.00853,-0.009 -0.027662,0.009 -0.036193,0 -0.00427,-0.004 0.00427,-0.0138 0,-0.0181 -0.00427,-0.004 -0.012064,0 -0.018097,0 -0.00603,0 -0.012064,0 -0.018096,0 -0.078418,0 -0.1568364,0 -0.2352545,0"
       id="path5343"
       inkscape:connector-curvature="0" />
    <path
       style="fill:none;stroke:#000000;stroke-width:0.26458332px;stroke-linecap:butt;stroke-linejoin:miter;stroke-opacity:1"
       d="m 2.7506535,293.85132 c -0.018584,0.0635 -0.018082,0.1188 -0.018082,0.18085 0,0.006 -0.00427,0.0138 0,0.0181 0.00427,0.004 0.01383,-0.004 0.018098,0 0.00427,0.004 0,0.0121 0,0.0181 0,0.0302 0,0.0603 0,0.0905 0,0.004 5.821e-4,0.0537 0,0.0543 -0.02413,0.0241 -0.018098,-0.0302 -0.018098,0.0181 0,0.0447 0.00853,0.0277 -0.018098,0.0543 -0.00603,0.006 -0.010467,0.0143 -0.018097,0.0181 -0.00539,0.003 -0.01383,-0.004 -0.018098,0 -0.00427,0.004 0.00427,0.0138 0,0.0181 -0.00853,0.009 -0.027662,-0.009 -0.036193,0 -0.00427,0.004 0.00427,0.0138 0,0.0181 -0.00427,0.004 -0.012064,0 -0.018096,0 -0.036193,0 -0.072386,0 -0.108579,0 -0.048257,0 -0.096515,0 -0.144772,0 -0.00946,0 -0.067628,0.002 -0.072386,0 -0.075313,-0.0377 0.019346,10e-4 -0.018096,-0.0362 -0.00427,-0.004 -0.012701,0.003 -0.018097,0 -0.0048,-0.002 -0.051887,-0.0495 -0.054289,-0.0543 -0.0027,-0.005 0.0027,-0.0127 0,-0.0181 -0.037657,-0.0753 0.00125,0.0193 -0.036193,-0.0181 -0.00905,-0.009 0.00905,-0.0452 0,-0.0543 -0.00427,-0.004 -0.013831,0.004 -0.018096,0 -0.00435,-0.004 0.00435,-0.068 0,-0.0724 -0.00427,-0.004 -0.013831,0.004 -0.018096,0 -0.00427,-0.004 0,-0.0121 0,-0.0181 0,-0.0362 0,-0.0724 0,-0.10858 0,-0.006 -0.0027,-0.0127 0,-0.0181 0.00382,-0.008 0.014282,-0.0105 0.018096,-0.0181 0.00359,-0.007 -0.0037,-0.0506 0,-0.0543 0.00853,-0.009 0.027662,0.009 0.036193,0 0.00427,-0.004 -0.00427,-0.0138 0,-0.0181 0.00427,-0.004 0.013831,0.004 0.018096,0 0.00427,-0.004 -0.00427,-0.0138 0,-0.0181 0.00427,-0.004 0.013831,0.004 0.018096,0 0.00853,-0.009 -0.00853,-0.0277 0,-0.0362 5.82e-4,-5.8e-4 0.049901,0 0.054289,0 0.00603,-0.0362 0.01291,-0.0722 0.0181,-0.10855 0.00329,-0.023 0,-0.0491 0,-0.0724 0,-0.0603 0,-0.12064 0,-0.18096 0,-0.007 -7.283e-4,-0.0717 0,-0.0724 0.00427,-0.004 0.013831,0.004 0.018096,0 0.00853,-0.009 -0.00853,-0.0277 0,-0.0362 0.00427,-0.004 0.013831,0.004 0.018096,0 0.00427,-0.004 0,-0.0121 0,-0.0181 0,-0.0362 0,-0.0724 0,-0.10858 0,-0.006 -0.00427,-0.0138 0,-0.0181 0.00427,-0.004 0.013831,0.004 0.018096,0 0.0037,-0.004 -0.00359,-0.0471 0,-0.0543 0.00382,-0.008 0.014281,-0.0105 0.018097,-0.0181 0.00359,-0.007 -0.0037,-0.0506 0,-0.0543 0.00427,-0.004 0.013831,0.004 0.018096,0 0.00905,-0.009 -0.00905,-0.0452 0,-0.0543 0.00427,-0.004 0.012064,0 0.018096,0 0,-0.006 -0.00427,-0.0138 0,-0.0181 0.00427,-0.004 0.013831,0.004 0.018096,0 0.00905,-0.009 -0.00905,-0.0452 0,-0.0543 0.00427,-0.004 0.013831,0.004 0.018096,0 0.00427,-0.004 -0.0027,-0.0127 0,-0.0181 0.00381,-0.008 0.014281,-0.0105 0.018096,-0.0181 0.0027,-0.005 -0.00427,-0.0138 0,-0.0181 0.00954,-0.01 0.026655,-0.009 0.036193,-0.0181 0.00435,-0.004 -0.00435,-0.068 0,-0.0724 0.00427,-0.004 0.012701,0.003 0.018096,0 0.00763,-0.004 0.010466,-0.0143 0.018096,-0.0181 0.0054,-0.003 0.013831,0.004 0.018096,0 0.00905,-0.009 -0.00905,-0.0453 0,-0.0543 0.00427,-0.004 0.013831,0.004 0.018097,0 0.037442,-0.0375 -0.057217,0.001 0.018096,-0.0362 0.0054,-0.003 0.013831,0.004 0.018096,0 0.00853,-0.009 -0.00853,-0.0277 0,-0.0362 0.00427,-0.004 0.013831,0.004 0.018096,0 0.00853,-0.009 -0.0054,-0.0254 0,-0.0362 0.00382,-0.008 0.014281,-0.0105 0.018096,-0.0181 0.0027,-0.005 -0.00427,-0.0138 0,-0.0181 0.00427,-0.004 0.013831,0.004 0.018096,0 0.00427,-0.004 -0.00427,-0.0138 0,-0.0181 0.00427,-0.004 0.013831,0.004 0.018096,0 0.00427,-0.004 -0.00427,-0.0138 0,-0.0181 0.00427,-0.004 0.013831,0.004 0.018096,0 0.00427,-0.004 0,-0.0121 0,-0.0181 0.00603,0 0.012701,0.003 0.018096,0 0.00763,-0.004 0.010466,-0.0143 0.018096,-0.0181 0.00654,-0.003 0.077896,0 0.090483,0 0.060322,0 0.1206433,0 0.180965,0 0.00946,0 0.067628,0.002 0.072386,0 0.00763,-0.004 0.010466,-0.0143 0.018096,-0.0181 0.00982,-0.005 0.067434,0.005 0.072386,0 0.00427,-0.004 0,-0.0121 0,-0.0181"
       id="path5345"
       inkscape:connector-curvature="0" />
    <path
       style="fill:none;stroke:#000000;stroke-width:0.26458332px;stroke-linecap:butt;stroke-linejoin:miter;stroke-opacity:1"
       d="m 4.1079038,292.56619 c -0.018095,-0.006 -0.060265,1.6e-4 -0.054288,-0.0179 0.00598,-0.0181 0.070144,0.0285 0.054288,0.0179 -0.033648,-0.0224 -0.07139,-0.0382 -0.108577,-0.0541 -0.00555,-0.002 -0.01383,0.004 -0.018098,0 -0.00427,-0.004 0.00427,-0.0138 0,-0.0181 -0.037442,-0.0374 0.00146,0.0572 -0.036193,-0.0181 -0.0027,-0.005 0.00427,-0.0138 0,-0.0181 -0.0037,-0.004 -0.047114,0.004 -0.05429,0 -0.00763,-0.004 -0.025728,-0.0219 -0.018098,-0.0181 0.079662,0.0398 0.1568352,0.0844 0.2352527,0.12652"
       id="path5347"
       inkscape:connector-curvature="0" />
    <path
       style="fill:none;stroke:#000000;stroke-width:0.26458332px;stroke-linecap:butt;stroke-linejoin:miter;stroke-opacity:1"
       d="m 3.5288177,291.35389 c -0.090482,0 -0.1809649,0 -0.2714477,0 -0.00439,0 -0.053707,-5.8e-4 -0.054289,0 -0.00427,0.004 0.00427,0.0138 0,0.0181 -0.00436,0.004 -0.068032,-0.004 -0.072386,0 -0.00427,0.004 0.00427,0.0138 0,0.0181 -0.01221,0.0122 -0.023982,-0.0122 -0.036193,0 -0.00426,0.004 0.00427,0.0138 0,0.0181 -0.00426,0.004 -0.0127,-0.003 -0.018097,0 -0.00763,0.004 -0.012065,0.0121 -0.018098,0.0181 -0.00603,0.006 -0.012065,0.0121 -0.018098,0.0181 -0.00603,0.006 -0.012065,0.0121 -0.018098,0.0181 -0.00603,0.006 -0.014282,0.0105 -0.018097,0.0181 -0.0027,0.005 0.00427,0.0138 0,0.0181 -0.00427,0.004 -0.01383,-0.004 -0.018098,0 -0.00853,0.009 0.00539,0.0254 0,0.0362 -0.00382,0.008 -0.014282,0.0105 -0.018098,0.0181 -0.0027,0.005 0.00427,0.0138 0,0.0181 -0.00853,0.009 -0.027662,-0.009 -0.036193,0 -0.0037,0.004 0.00359,0.0471 0,0.0543 -0.00382,0.008 -0.014282,0.0105 -0.018097,0.0181 -0.0027,0.005 0.0027,0.0127 0,0.0181 -0.00382,0.008 -0.014282,0.0105 -0.018098,0.0181 -0.00569,0.0114 0.00569,0.061 0,0.0724 -0.00382,0.008 -0.014282,0.0105 -0.018098,0.0181 -0.0027,0.005 0,0.0121 0,0.0181 0,0.006 0,0.0121 0,0.0181 0,0.0362 0,0.0724 0,0.10858 0,0.009 -0.00238,0.0676 0,0.0724 0.00382,0.008 0.014282,0.0105 0.018098,0.0181 0.0027,0.005 -0.00427,0.0138 0,0.0181 0.00427,0.004 0.01383,-0.004 0.018098,0 0.00905,0.009 -0.00905,0.0452 0,0.0543 0.00427,0.004 0.01383,-0.004 0.018097,0 0.00427,0.004 -0.00427,0.0138 0,0.0181 0.00427,0.004 0.01383,-0.004 0.018098,0 0.00427,0.004 -0.0027,0.0127 0,0.0181 0.00382,0.008 0.014282,0.0105 0.018098,0.0181 0.0027,0.005 -0.00427,0.0138 0,0.0181 0.00427,0.004 0.01383,-0.004 0.018098,0 0,0.0482 -0.00603,-0.006 0.018098,0.0181 0.00427,0.004 -0.00427,0.0138 0,0.0181 0.00427,0.004 0.01383,-0.004 0.018097,0 0.00853,0.009 -0.00853,0.0277 0,0.0362 0.00427,0.004 0.01383,-0.004 0.018098,0 0.00427,0.004 -0.00427,0.0138 0,0.0181 0.00853,0.009 0.027662,-0.009 0.036193,0 0.00427,0.004 -0.00427,0.0138 0,0.0181 0.00427,0.004 0.013832,-0.004 0.018098,0 0.00427,0.004 -0.00427,0.0138 0,0.0181 0.00427,0.004 0.013832,-0.004 0.018098,0 0.00427,0.004 -0.00427,0.0138 0,0.0181 0.011848,0.0118 0.042169,-0.0183 0.054289,0.0181 0.00382,0.0114 -0.00539,0.0254 0,0.0362 0.00539,0.0108 0.027662,-0.009 0.036193,0 0.00427,0.004 -0.00427,0.0138 0,0.0181 0.00427,0.004 0.012065,0 0.018097,0 0.012586,0 0.083938,-0.003 0.090483,0 0.00763,0.004 0.010467,0.0143 0.018098,0.0181 0.00476,0.002 0.062923,0 0.072386,0 0.00946,0 0.067628,-0.002 0.072386,0 0.00763,0.004 0.010467,0.0143 0.018097,0.0181 0.00476,0.002 0.062923,0 0.072386,0 0.066354,0 0.1327079,0 0.1990617,0 0.00439,0 0.053707,5.8e-4 0.054289,0 0.00427,-0.004 -0.00427,-0.0138 0,-0.0181 0.048257,0 -0.00603,0.006 0.018098,-0.0181 0.00427,-0.004 0.01383,0.004 0.018098,0 0.00954,-0.01 0.00856,-0.0267 0.018097,-0.0362 0.00427,-0.004 0.01383,0.004 0.018098,0 1.74e-5,-2e-5 -2.73e-5,-0.0542 0,-0.0543 0.0027,-0.008 0.014282,-0.0105 0.018098,-0.0181 0.00539,-0.0108 -0.00539,-0.0254 0,-0.0362 0.00382,-0.008 0.014282,-0.0105 0.018098,-0.0181 0.00569,-0.0114 -0.00569,-0.061 0,-0.0724 0.0027,-0.005 0.01383,0.004 0.018098,0 0.00427,-0.004 -0.0027,-0.0127 0,-0.0181 0.00382,-0.008 0.014282,-0.0105 0.018097,-0.0181 0.0027,-0.005 0,-0.0121 0,-0.0181 0,-0.006 0,-0.0121 0,-0.0181 0,-0.0362 0,-0.0724 0,-0.10858 0,-0.006 0,-0.0121 0,-0.0181 0,-0.006 -0.00427,-0.0138 0,-0.0181 0.00427,-0.004 0.01383,0.004 0.018098,0 0.00427,-0.004 0,-0.0121 0,-0.0181 0,-0.0482 0,-0.0965 0,-0.14477 0,-0.0422 0,-0.0845 0,-0.12667 0,-0.006 0.00427,-0.0138 0,-0.0181 -0.00427,-0.004 -0.01383,0.004 -0.018098,0 -0.00853,-0.009 0.00853,-0.0277 0,-0.0362 -0.00853,-0.009 -0.027662,0.009 -0.036193,0 -0.00427,-0.004 0.00427,-0.0138 0,-0.0181 -0.00427,-0.004 -0.01383,0.004 -0.018097,0 -0.00853,-0.009 0.00853,-0.0277 0,-0.0362 -0.00427,-0.004 -0.013832,0.004 -0.018098,0 -0.012293,-0.0123 0.018502,-0.036 -0.018098,-0.0543 -0.01079,-0.005 -0.027662,0.009 -0.036193,0 0,-0.0483 0.00603,0.006 -0.018097,-0.0181 -0.00427,-0.004 0.00427,-0.0138 0,-0.0181 -0.00853,-0.009 -0.025403,0.005 -0.036193,0 -0.00763,-0.004 -0.010467,-0.0143 -0.018098,-0.0181 -0.00539,-0.003 -0.01383,0.004 -0.018098,0 -0.00426,-0.004 0.00427,-0.0138 0,-0.0181 -0.00905,-0.009 -0.045241,0.009 -0.05429,0 -0.00427,-0.004 0.00427,-0.0138 0,-0.0181 -0.00436,-0.004 -0.068032,0.004 -0.072386,0 -0.00427,-0.004 0.00427,-0.0138 0,-0.0181 -0.00427,-0.004 -0.012065,0 -0.018098,0 -0.02413,0 -0.048257,0 -0.072386,0 z"
       id="path5349"
       inkscape:connector-curvature="0" />
    <path
       style="fill:none;stroke:#000000;stroke-width:0.26458332px;stroke-linecap:butt;stroke-linejoin:miter;stroke-opacity:1"
       d="m 3.5650106,291.75201 -0.054289,-0.0181"
       id="path5353"
       inkscape:connector-curvature="0" />
    <path
       style="fill:none;stroke:#000000;stroke-width:0.26458332px;stroke-linecap:butt;stroke-linejoin:miter;stroke-opacity:1"
       d="m 3.1397427,291.74296 -0.054289,-0.0181"
       id="path5353-9"
       inkscape:connector-curvature="0" />
    <path
       style="fill:none;stroke:#000000;stroke-width:0.26458332px;stroke-linecap:butt;stroke-linejoin:miter;stroke-opacity:1"
       d="m 2.985919,292.15027 c 0.1206434,0 0.2412867,0 0.3619301,0 0.060322,0 0.1206433,0 0.180965,0"
       id="path5376"
       inkscape:connector-curvature="0" />
    <path
       style="fill:none;stroke:#000000;stroke-width:0.26458332px;stroke-linecap:butt;stroke-linejoin:miter;stroke-opacity:1"
       d="m 3.5288177,291.35389 c -0.042225,-0.0362 -0.087351,-0.0693 -0.1266756,-0.10858 -0.00427,-0.004 0.012065,0 0.018098,0 0.012065,0 0.02413,0 0.036193,0 0.036193,0 0.072386,0 0.1085789,0 0.1085791,0 0.2171581,0 0.325737,0 0.00603,0 0.012065,0 0.018098,0 0.00603,0 0.01383,-0.004 0.018097,0 0.00427,0.004 -0.00539,0.0154 0,0.0181 0.036193,0.0181 0.027145,-0.009 0.054289,0 0.025593,0.009 0.046794,0.0277 0.072386,0.0362 0.011446,0.004 0.027662,-0.009 0.036193,0 0.00427,0.004 -0.00427,0.0138 0,0.0181 0.037442,0.0374 -0.00146,-0.0572 0.036193,0.0181 0.0027,0.005 -0.0027,0.0127 0,0.0181 0.00382,0.008 0.014282,0.0105 0.018097,0.0181 0.0027,0.005 -0.00427,0.0138 0,0.0181 0.00427,0.004 0.0127,-0.003 0.018097,0 0.00763,0.004 0.012065,0.0121 0.018098,0.0181 0.00603,0.006 0.014282,0.0105 0.018097,0.0181 0.0027,0.005 -0.00427,0.0138 0,0.0181 0.00427,0.004 0.01383,-0.004 0.018097,0 0.00853,0.009 -0.00539,0.0254 0,0.0362 0.060019,0.06 -0.00853,-0.0171 0.018098,0.0362 0.00382,0.008 0.014282,0.0105 0.018097,0.0181 0.00539,0.0108 -0.00853,0.0277 0,0.0362 0.00427,0.004 0.013832,-0.004 0.018098,0 0.00435,0.004 -0.00436,0.068 0,0.0724 0.00426,0.004 0.013832,-0.004 0.018097,0 0.00427,0.004 0,0.0121 0,0.0181 0,0.0483 0,0.0965 0,0.14477"
       id="path5378"
       inkscape:connector-curvature="0" />
    <path
       style="fill:none;stroke:#000000;stroke-width:0.26458332px;stroke-linecap:butt;stroke-linejoin:miter;stroke-opacity:1"
       d="m 3.5288177,291.35389 c -0.072386,-0.0724 -0.1510334,-0.13901 -0.2171581,-0.21716 -0.00551,-0.007 0.010467,-0.0143 0.018098,-0.0181 0.059163,-0.0296 -0.049245,0.0518 0.05429,0 0.015261,-0.008 0.020352,-0.0299 0.036193,-0.0362 0.011851,-0.005 0.1052909,0.003 0.1085792,0 0.00427,-0.004 -0.00427,-0.0138 0,-0.0181 0.00387,-0.004 0.062409,0.003 0.072386,0 0.012795,-0.004 0.022966,-0.0155 0.036193,-0.0181 0.017746,-0.004 0.036544,0.004 0.05429,0 0.013227,-0.003 0.023106,-0.0148 0.036193,-0.0181 0.011705,-0.003 0.024127,0 0.036193,0 0.018097,0 0.036193,0 0.054289,0 0.021376,0 0.097818,0.004 0.1085792,0 0.016185,-0.005 0.020931,-0.0286 0.036193,-0.0362 0.00376,-0.002 0.1235374,0 0.1266756,0 0.036193,0 0.072386,0 0.1085789,0 0.012065,0 0.024127,0 0.036193,0 0.00603,0 0.0127,-0.003 0.018098,0 0.00763,0.004 0.010467,0.0143 0.018097,0.0181 0.01148,0.006 0.078727,-0.006 0.090482,0 0.00763,0.004 0.010467,0.0143 0.018097,0.0181 0.00718,0.004 0.05059,-0.004 0.05429,0 0.00427,0.004 -0.0027,0.0127 0,0.0181 0.00763,0.0153 0.028563,0.0209 0.036193,0.0362 0.0027,0.005 -0.0027,0.0127 0,0.0181 0.037656,0.0753 -0.00124,-0.0194 0.036193,0.0181 0.0037,0.004 -0.00359,0.0471 0,0.0543 0.00382,0.008 0.014282,0.0105 0.018097,0.0181 0.0027,0.005 -0.0027,0.0127 0,0.0181 0.00382,0.008 0.014282,0.0105 0.018097,0.0181 0.00233,0.005 0,0.0958 0,0.10858 0,0.006 -0.00427,0.0138 0,0.0181 0.00427,0.004 0.013832,-0.004 0.018098,0 0.0056,0.006 -0.0056,0.0849 0,0.0905 0.00427,0.004 0.01383,-0.004 0.018097,0 0.00427,0.004 0,0.0121 0,0.0181 0,0.0422 0,0.0845 0,0.12668"
       id="path5380"
       inkscape:connector-curvature="0" />
    <path
       style="fill:none;stroke:#000000;stroke-width:0.26458332px;stroke-linecap:butt;stroke-linejoin:miter;stroke-opacity:1"
       d="m 3.1668876,291.2815 c 0,-0.0478 -0.01706,-0.067 0.018098,-0.0905 0.011224,-0.007 0.026655,-0.009 0.036193,-0.0181 0.00426,-0.004 -0.00427,-0.0138 0,-0.0181 0.00426,-0.004 0.012065,0 0.018098,0 0.00603,-0.006 0.013364,-0.011 0.018097,-0.0181 0.00603,-0.0121 0.012065,-0.0241 0.018098,-0.0362 0.00603,0 0.01383,0.004 0.018098,0 0.00426,-0.004 -0.00427,-0.0138 0,-0.0181 0.00426,-0.004 0.01383,0.004 0.018098,0 0.035913,-0.0359 -0.0857,-0.006 0.036193,-0.0362 0.011705,-0.003 0.024993,0.004 0.036193,0 0.020193,-0.008 0.03564,-0.025 0.05429,-0.0362 0.011565,-0.007 0.024969,-0.0106 0.036193,-0.0181 0.0071,-0.005 0.00982,-0.016 0.018098,-0.0181 0.04138,-0.0103 0.085295,-0.008 0.1266756,-0.0181 0.00828,-0.002 0.010999,-0.0134 0.018098,-0.0181 0.011224,-0.007 0.02413,-0.0121 0.036193,-0.0181 0.012065,-0.006 0.023397,-0.0138 0.036193,-0.0181 0.00572,-0.002 0.01383,0.004 0.018098,0 0.022042,-0.022 0.00848,-0.0404 0.036193,-0.0543 0.01079,-0.005 0.025403,0.005 0.036193,0 0.00763,-0.004 0.012065,-0.0121 0.018097,-0.0181 0.012065,0 0.024747,0.004 0.036193,0 0.00809,-0.003 0.00982,-0.016 0.018098,-0.0181 0.017555,-0.004 0.036733,0.004 0.05429,0 0.00828,-0.002 0.010004,-0.0154 0.018097,-0.0181 0.011446,-0.004 0.024294,0.002 0.036193,0 0.024532,-0.004 0.047998,-0.0132 0.072386,-0.0181 0.020209,-0.004 0.097974,0.005 0.1085792,0 0.00763,-0.004 0.010467,-0.0143 0.018097,-0.0181 0.00539,-0.003 0.012065,0 0.018098,0 0.012065,0 0.024127,0 0.036193,0 0.042225,0 0.08445,0 0.1266754,0 0.016311,0 0.079093,-0.004 0.090482,0 0.1310807,0.0437 -0.028531,-0.005 0.05429,0.0362 0.00539,0.003 0.0127,-0.003 0.018097,0 0.015261,0.008 0.020934,0.0286 0.036193,0.0362 0.01079,0.005 0.030798,-0.0108 0.036193,0 0.00539,0.0108 -0.00539,0.0254 0,0.0362 0.00539,0.0108 0.027662,-0.009 0.036193,0 0.00427,0.004 0.00467,0.0143 0,0.0181 -0.063499,0.052 -0.1327047,0.0965 -0.1990569,0.14475"
       id="path5382"
       inkscape:connector-curvature="0" />
    <path
       style="fill:#ffffff;fill-opacity:1;stroke:none;stroke-width:0.03419811;stroke-miterlimit:4;stroke-dasharray:none"
       d="m 8.7667113,21.218811 c -0.187228,-0.285746 -0.2092128,-0.552857 -0.061011,-0.741266 0.095825,-0.121822 0.1612205,-0.150951 0.23996,-0.106887 0.1506297,0.0843 0.1960734,-0.123137 0.2636451,-1.203441 0.067065,-1.072196 0.1626334,-1.615238 0.3022259,-1.71731 0.057219,-0.04184 0.1040345,-0.175548 0.1040345,-0.29713 0,-0.121583 0.061557,-0.299316 0.1367924,-0.394962 0.075236,-0.09565 0.1367925,-0.213356 0.1367925,-0.261575 0,-0.04822 0.025606,-0.09793 0.056902,-0.110469 0.031296,-0.01254 0.1639823,-0.207469 0.2948573,-0.433176 l 0.237954,-0.410378 0.679789,-0.03886 c 0.764232,-0.04369 1.168118,-0.151924 1.224006,-0.328013 0.03264,-0.102835 0.09127,-0.112355 0.430745,-0.06994 0.21613,0.027 0.626029,0.05169 0.910888,0.05487 0.536251,0.006 0.508123,-0.0044 1.45413,0.534834 0.08198,0.04672 0.39279,0.0859 0.695398,0.08766 0.465158,0.0027 0.572945,0.02591 0.719143,0.1549 0.21747,0.191871 0.477791,0.609593 0.477791,0.766684 0,0.06602 0.133926,0.308612 0.297614,0.539096 0.458053,0.644971 0.508013,0.802811 0.543984,1.718592 0.01773,0.451415 0.05369,0.872862 0.07991,0.936548 0.02717,0.06598 0.139873,0.124828 0.261986,0.136793 0.174766,0.01712 0.225754,0.06116 0.276335,0.238675 0.03411,0.119723 0.04219,0.296698 0.01795,0.393279 -0.04095,0.163152 -0.07186,0.175526 -0.436049,0.174553 -0.215586,-5.74e-4 -0.43581,-0.02879 -0.489385,-0.0627 -0.06858,-0.0434 -0.11277,-0.280931 -0.149314,-0.802608 -0.02855,-0.407527 -0.08474,-0.906746 -0.124879,-1.109374 -0.04013,-0.202629 -0.07297,-0.562625 -0.07297,-0.799991 0,-0.378221 -0.03171,-0.483656 -0.256485,-0.852838 -0.141068,-0.231695 -0.29652,-0.494712 -0.34545,-0.584483 -0.04893,-0.08977 -0.156654,-0.199528 -0.239387,-0.243904 -0.176761,-0.09481 -0.868621,-0.119147 -0.868598,-0.03055 2.1e-5,0.08534 -0.218944,0.242123 -0.341966,0.244855 -0.08815,0.002 -0.104998,0.259932 -0.119663,1.831774 -0.0094,1.006223 -0.04052,1.983387 -0.06919,2.171477 l -0.05212,0.341981 -1.315833,0.01858 -1.315832,0.01858 -0.002,-0.873529 c -0.0031,-1.321421 -0.115248,-3.274113 -0.196863,-3.426613 -0.112554,-0.210308 -0.609762,-0.413627 -0.955495,-0.390723 -0.577082,0.03823 -1.009063,0.743599 -1.111706,1.81527 -0.03062,0.319752 -0.091266,0.873762 -0.1347577,1.231132 -0.043492,0.35737 -0.086952,0.91138 -0.09658,1.231132 -0.00963,0.319752 -0.021043,0.63523 -0.025369,0.701061 -0.00668,0.101642 -0.078883,0.119694 -0.4787725,0.119694 -0.4270415,0 -0.4813616,-0.01596 -0.5831363,-0.171284 z"
       id="path5386"
       inkscape:connector-curvature="0"
       transform="matrix(0.26458333,0,0,0.26458333,0,288.53333)" />
    <path
       style="fill:#ffffff;fill-opacity:1;stroke:none;stroke-width:0.03419811;stroke-miterlimit:4;stroke-dasharray:none"
       d="m 12.625,22.518632 v -0.444575 h 1.128538 1.128538 v 0.444575 0.444576 H 13.753538 12.625 Z"
       id="path5388"
       inkscape:connector-curvature="0"
       transform="matrix(0.26458333,0,0,0.26458333,0,288.53333)" />
    <path
       style="fill:#ffffff;fill-opacity:1;stroke:none;stroke-width:0.03419811;stroke-miterlimit:4;stroke-dasharray:none"
       d="m 9.7831226,30.202989 c -0.028338,-0.126042 -0.054547,-0.313811 -0.058243,-0.417263 l -0.00672,-0.188095 0.5549094,6e-6 0.554909,5e-6 0.112007,-0.564269 c 0.0616,-0.310348 0.111983,-0.680914 0.111954,-0.82348 -2.9e-5,-0.142566 0.0615,-0.379871 0.136739,-0.527346 0.07524,-0.147474 0.136793,-0.349936 0.136793,-0.449916 0,-0.09998 0.120736,-0.449919 0.268302,-0.777643 0.147566,-0.327724 0.288204,-0.716518 0.312528,-0.863986 0.06103,-0.370013 0.31119,-1.074299 0.411152,-1.157538 0.04535,-0.03776 0.104394,-0.137792 0.131212,-0.222288 0.04822,-0.151931 0.06271,-0.153629 1.311174,-0.153629 h 1.262414 l 0.0699,0.183842 c 0.03844,0.101113 0.102224,0.431979 0.141735,0.735259 0.07191,0.552005 0.332385,1.275916 0.533116,1.481661 0.488118,0.500314 0.893376,1.159467 0.893376,1.453078 0,0.0954 0.02674,0.189988 0.05941,0.210183 0.03268,0.0202 0.07845,0.155786 0.101722,0.301312 0.02526,0.157974 0.146013,0.392743 0.299668,0.58262 l 0.257358,0.318028 0.461674,2.66e-4 0.461675,2.61e-4 v 0.301489 0.301489 l -1.316628,0.02763 c -0.724145,0.0152 -1.370489,0.0521 -1.43632,0.08201 -0.103325,0.04694 -0.119694,0.0162 -0.119694,-0.224781 0,-0.278349 -0.384357,-1.912938 -0.580586,-2.46911 -0.05686,-0.16115 -0.103611,-0.373771 -0.103898,-0.472491 -2.88e-4,-0.09872 -0.06119,-0.379001 -0.135331,-0.622847 -0.103483,-0.340335 -0.194338,-0.493335 -0.390998,-0.658441 -0.251026,-0.210749 -0.260731,-0.212918 -0.481531,-0.107626 -0.179734,0.08571 -0.245843,0.176495 -0.32664,0.448567 -0.133138,0.448324 -0.128746,0.589518 0.01839,0.591387 0.103904,0.0013 0.100355,0.01711 -0.0269,0.119694 -0.130466,0.10517 -0.151661,0.212243 -0.192635,0.973125 -0.02532,0.470224 -0.07269,0.947288 -0.105273,1.060141 -0.03258,0.112854 -0.10953,0.498858 -0.171001,0.857786 l -0.111767,0.652598 -0.223835,-0.02613 c -0.12311,-0.01437 -0.482705,0.02064 -0.7991,0.07781 -0.316395,0.05717 -0.887616,0.124609 -1.26938,0.149873 l -0.6941157,0.04594 z"
       id="path5390"
       inkscape:connector-curvature="0"
       transform="matrix(0.26458333,0,0,0.26458333,0,288.53333)" />
    <path
       style="fill:#ffffff;fill-opacity:1;stroke:none;stroke-width:0.03419811;stroke-miterlimit:4;stroke-dasharray:none"
       d="m 13.377359,13.592925 v -0.478774 h -0.920943 c -0.87329,0 -0.925028,-0.0076 -0.9999,-0.147533 -0.09848,-0.184018 -0.03294,-0.810396 0.114676,-1.095846 0.165255,-0.319568 0.179399,-0.188809 0.02737,0.253061 -0.107871,0.313532 -0.119003,0.411881 -0.05147,0.454751 0.150769,0.09571 0.173019,0.06684 0.346783,-0.449975 0.168045,-0.499804 0.168501,-0.507262 0.03317,-0.542651 -0.171414,-0.04483 -0.130043,-0.188107 0.08779,-0.30404 0.116719,-0.06212 0.407819,-0.08116 0.986344,-0.06451 0.925055,0.02662 1.115023,0.0977 1.393148,0.521239 0.15188,0.231289 0.159071,0.286848 0.11494,0.88805 -0.02589,0.352729 -0.07283,0.691345 -0.104316,0.752479 -0.03148,0.06113 -0.09214,0.241961 -0.134784,0.401838 l -0.07755,0.290683 H 13.78499 13.377359 Z m 0.120178,-1.412971 c 0.08144,-0.250484 0.132065,-0.481321 0.112504,-0.512972 -0.0968,-0.156623 -0.233047,-0.01928 -0.363196,0.36611 -0.174763,0.517502 -0.17761,0.602286 -0.02022,0.602286 0.09107,0 0.161143,-0.11779 0.270916,-0.455424 z"
       id="path5392"
       inkscape:connector-curvature="0"
       transform="matrix(0.26458333,0,0,0.26458333,0,288.53333)" />
    <path
       style="fill:#ffffff;fill-opacity:1;stroke:none;stroke-width:0.03419811;stroke-miterlimit:4;stroke-dasharray:none"
       d="m 13.377359,13.596189 v -0.482038 h -0.920943 c -0.87329,0 -0.925028,-0.0076 -0.9999,-0.147533 -0.09848,-0.184018 -0.03294,-0.810396 0.114676,-1.095846 0.160185,-0.309763 0.173876,-0.202077 0.03234,0.254375 -0.0921,0.297017 -0.105216,0.421273 -0.04834,0.457886 0.143336,0.09227 0.171904,0.05502 0.326892,-0.426198 0.152207,-0.472589 0.152469,-0.47977 0.02104,-0.577188 -0.127792,-0.09472 -0.128227,-0.103569 -0.01095,-0.222518 0.10525,-0.106747 0.243108,-0.123874 0.997093,-0.123874 0.99813,0 1.231989,0.07731 1.508134,0.498575 0.149561,0.228157 0.156633,0.284884 0.11175,0.896332 -0.02635,0.359017 -0.06865,0.684487 -0.09399,0.723266 -0.02534,0.03878 -0.07695,0.209009 -0.114698,0.378289 l -0.06863,0.307783 -0.427245,0.02036 -0.427244,0.02036 z m 0.119662,-1.42963 c 0.08485,-0.238055 0.136989,-0.460794 0.115863,-0.494976 -0.09937,-0.160792 -0.228898,-0.02371 -0.362695,0.383863 -0.177346,0.540232 -0.180015,0.596433 -0.02693,0.566951 0.07679,-0.01479 0.174615,-0.177677 0.27376,-0.455838 z"
       id="path5394"
       inkscape:connector-curvature="0"
       transform="matrix(0.26458333,0,0,0.26458333,0,288.53333)" />
  </g>
</svg>
