<?xml version="1.0" encoding="UTF-8" standalone="no"?>
<!-- Created with Inkscape (http://www.inkscape.org/) -->

<svg
   xmlns:dc="http://purl.org/dc/elements/1.1/"
   xmlns:cc="http://creativecommons.org/ns#"
   xmlns:rdf="http://www.w3.org/1999/02/22-rdf-syntax-ns#"
   xmlns:svg="http://www.w3.org/2000/svg"
   xmlns="http://www.w3.org/2000/svg"
   xmlns:sodipodi="http://sodipodi.sourceforge.net/DTD/sodipodi-0.dtd"
   xmlns:inkscape="http://www.inkscape.org/namespaces/inkscape"
   width="640"
   height="160"
   viewBox="0 0 169.33333 42.333335"
   version="1.1"
   id="svg5198"
   inkscape:version="0.92.1 r15371"
   sodipodi:docname="Wind.svg"
   inkscape:export-filename="C:\Unity\Gods Fate\Assets\Graphics\Powers\Wind.png"
   inkscape:export-xdpi="96"
   inkscape:export-ydpi="96">
  <defs
     id="defs5192" />
  <sodipodi:namedview
     id="base"
     pagecolor="#ffffff"
     bordercolor="#666666"
     borderopacity="1.0"
     inkscape:pageopacity="0.0"
     inkscape:pageshadow="2"
     inkscape:zoom="2.1484375"
     inkscape:cx="320"
     inkscape:cy="98.618182"
     inkscape:document-units="px"
     inkscape:current-layer="layer1"
     showgrid="true"
     units="px"
     inkscape:snap-global="false"
     inkscape:window-width="1920"
     inkscape:window-height="1017"
     inkscape:window-x="-8"
     inkscape:window-y="-8"
     inkscape:window-maximized="1">
    <inkscape:grid
       type="xygrid"
       id="grid5743" />
  </sodipodi:namedview>
  <metadata
     id="metadata5195">
    <rdf:RDF>
      <cc:Work
         rdf:about="">
        <dc:format>image/svg+xml</dc:format>
        <dc:type
           rdf:resource="http://purl.org/dc/dcmitype/StillImage" />
        <dc:title></dc:title>
      </cc:Work>
    </rdf:RDF>
  </metadata>
  <g
     inkscape:label="Calque 1"
     inkscape:groupmode="layer"
     id="layer1"
     transform="translate(0,-254.66665)">
    <path
       style="fill:none;stroke:#000000;stroke-width:0.26458335px;stroke-linecap:butt;stroke-linejoin:miter;stroke-opacity:1"
       d="m 3.6945455,274.95586 c 4.6387073,0 9.2774145,0 13.9161215,0 1.231515,0 2.46303,0 3.694546,0 0.328404,0 0.656808,0 0.985212,0 0.123151,0 0.246303,0 0.369454,0 0.04105,0 0.08644,0.0184 0.123152,0 0.05192,-0.026 0.07123,-0.0972 0.123151,-0.12315 0.07343,-0.0367 0.168416,0.026 0.246304,0 0.08708,-0.029 0.156293,-0.10515 0.246303,-0.12315 0.177612,-0.0355 0.653284,0 0.86206,0 0.123152,0 0.24998,0.0299 0.369455,0 0.125937,-0.0315 0.243517,-0.0917 0.369454,-0.12315 0.07965,-0.0199 0.164202,0 0.246303,0 0.246303,0 0.492606,0 0.738909,0 0.0821,0 0.165797,0.0161 0.246303,0 0.127293,-0.0255 0.243518,-0.0917 0.369454,-0.12315 0.119476,-0.0299 0.248696,0.0242 0.369457,0 0.127291,-0.0255 0.24216,-0.0977 0.369453,-0.12315 0.161012,-0.0322 0.328404,0 0.492607,0 0.246303,0 0.492606,0 0.738907,0 0.451556,0 0.903113,0 1.354667,0 0.135607,0 0.681998,0.0285 0.73891,0 0.03672,-0.0184 -0.02903,-0.0941 0,-0.12316 0.02903,-0.029 0.08643,0.0184 0.123153,0 0.05192,-0.026 0.07123,-0.0972 0.12315,-0.12315 0.03672,-0.0184 0.09412,0.029 0.123153,0 0.02903,-0.029 -0.02903,-0.0941 0,-0.12315 0.02903,-0.029 0.08643,0.0184 0.12315,0 0.05193,-0.026 0.07123,-0.0972 0.12315,-0.12315 0.03672,-0.0184 0.09413,0.029 0.123153,0 0.06491,-0.0649 0.04678,-0.19539 0.123151,-0.2463 0.123153,-0.0821 0.246303,0.041 0.369456,0 0.08708,-0.029 0.159221,-0.0941 0.246303,-0.12316 0.03894,-0.013 0.08643,0.0184 0.123151,0 0.05192,-0.026 0.07122,-0.0972 0.123153,-0.12315 0.03672,-0.0184 0.08643,0.0184 0.12315,0 0.05192,-0.026 0.07123,-0.0972 0.12315,-0.12315 0.07343,-0.0367 0.188251,0.0581 0.246303,0 0.02903,-0.029 -0.01836,-0.0864 0,-0.12315 0.05193,-0.10385 0.194379,-0.14245 0.246304,-0.2463 0.01836,-0.0367 -0.02903,-0.0941 0,-0.12315 0.02903,-0.029 0.104793,0.0367 0.123153,0 0.03672,-0.0734 -0.03672,-0.17287 0,-0.24631 0.01836,-0.0367 0.08643,0.0184 0.12315,0 0.05192,-0.026 0.09719,-0.0712 0.123153,-0.12315 0.03672,-0.0734 -0.03672,-0.17287 0,-0.2463 0.02596,-0.0519 0.09719,-0.0712 0.12315,-0.12315 0.01836,-0.0367 -0.01836,-0.0864 0,-0.12316 0.02596,-0.0519 0.09719,-0.0712 0.123153,-0.12315 0.05032,-0.10063 -0.05032,-0.39197 0,-0.4926 0.02596,-0.0519 0.09719,-0.0712 0.123151,-0.12315 0.03672,-0.0734 0,-0.16421 0,-0.24631 0,-0.0821 0,-0.1642 0,-0.2463 0,-0.0821 0.02596,-0.16842 0,-0.2463 -0.01836,-0.0551 -0.09719,-0.0712 -0.123151,-0.12315 -0.03672,-0.0734 0.03672,-0.17287 0,-0.24631 -0.02595,-0.0519 -0.09719,-0.0712 -0.123153,-0.12315 -0.03672,-0.0734 0.03672,-0.17287 0,-0.2463 -0.09431,-0.18862 -0.219458,-0.0963 -0.369453,-0.24631 -0.02903,-0.029 0.01836,-0.0864 0,-0.12315 -0.02596,-0.0519 -0.09719,-0.0712 -0.123153,-0.12315 -0.01836,-0.0367 0.02903,-0.0941 0,-0.12315 -0.254805,-0.25481 0.0099,0.38938 -0.246304,-0.12315 -0.01836,-0.0367 0.02278,-0.089 0,-0.12315 -0.0021,-0.003 -0.439721,-0.46617 -0.492603,-0.49261 -0.03672,-0.0184 -0.09413,0.029 -0.123153,0 -0.02903,-0.029 0.02903,-0.0941 0,-0.12315 -0.02903,-0.029 -0.08644,0.0184 -0.123151,0 -0.05193,-0.026 -0.07123,-0.0972 -0.123153,-0.12315 -0.03672,-0.0184 -0.08242,0.005 -0.12315,0 -0.288031,-0.036 -0.573566,-0.0911 -0.86206,-0.12315 -0.122399,-0.0136 -0.246303,0 -0.369456,0 -0.246304,0 -0.492607,0 -0.73891,0"
       id="path13508"
       inkscape:connector-curvature="0" />
    <path
       style="fill:none;stroke:#000000;stroke-width:0.26458335px;stroke-linecap:butt;stroke-linejoin:miter;stroke-opacity:1"
       d="m 3.6945455,278.03465 c 0.164202,-0.041 0.3250517,-0.0992 0.4926062,-0.12315 0.1219137,-0.0174 0.2463031,0 0.3694544,0 0.164202,0 0.328404,0 0.4926061,0 0.4515556,0 0.9031113,0 1.3546667,0 1.2315153,0 2.4630303,0 3.6945461,0 4.146101,0 8.292202,0 12.438303,0 1.190465,0 2.380929,0 3.571394,0 0.410505,0 0.821009,0 1.231515,0 0.1269,0 0.390142,-0.0342 0.492607,0 0.08708,0.029 0.157252,0.10089 0.246303,0.12315 0.07965,0.0199 0.165796,-0.0161 0.246303,0 0.127291,0.0255 0.243518,0.0917 0.369454,0.12315 0.07965,0.0199 0.168415,-0.026 0.246303,0 0.08708,0.029 0.157253,0.10089 0.246304,0.12315 0.07965,0.0199 0.172868,-0.0367 0.246303,0 0.03672,0.0184 -0.02903,0.0941 0,0.12316 0.02903,0.029 0.0821,0 0.12315,0 0.123153,0 0.249981,-0.0299 0.369454,0 0.05632,0.0141 0.06808,0.10479 0.123153,0.12315 0.07789,0.026 0.166653,-0.0199 0.246303,0 0.178102,0.0445 0.318442,0.18825 0.492607,0.2463 0.03894,0.013 0.08643,-0.0184 0.12315,0 0.05192,0.026 0.07123,0.0972 0.123153,0.12315 0.09171,0.0459 0.855766,-0.0431 0.98521,0 0.03894,0.013 -0.02903,0.0941 0,0.12315 0.05806,0.0581 0.172871,-0.0367 0.246304,0 0.103851,0.0519 0.142451,0.19438 0.246303,0.24631 0.03672,0.0184 0.08643,-0.0184 0.12315,0 0.188616,0.0943 0.09631,0.21945 0.246303,0.36945 0.02903,0.029 0.08644,-0.0184 0.123153,0 0.0327,0.0163 0.353105,0.33676 0.369454,0.36945 0.01836,0.0367 -0.02903,0.0941 0,0.12316 0.02903,0.029 0.09413,-0.029 0.123153,0 0.02903,0.029 0,0.0821 0,0.12315 0,0.0411 -0.02903,0.0941 0,0.12315 0.02903,0.029 0.104793,-0.0367 0.12315,0 0.03672,0.0734 -0.02596,0.16841 0,0.2463 0.01836,0.0551 0.09719,0.0712 0.123153,0.12315 0.02146,0.0429 0,0.64851 0,0.73891 0,0.12495 0.02588,1.03076 0,1.10837 -0.01836,0.0551 -0.09719,0.0712 -0.123153,0.12315 -0.01836,0.0367 0,0.0821 0,0.12315 -0.04105,0.0821 -0.07223,0.16993 -0.12315,0.2463 -0.0322,0.0483 -0.09719,0.0712 -0.123153,0.12315 -0.01836,0.0367 0.01836,0.0864 0,0.12316 -0.02596,0.0519 -0.09719,0.0712 -0.12315,0.12315 -0.03672,0.0734 0.03672,0.17287 0,0.2463 -0.256265,0.51253 0.0085,-0.13165 -0.246304,0.12315 -0.05806,0.0581 0.05806,0.18825 0,0.2463 -0.02903,0.029 -0.09412,-0.029 -0.123153,0 -0.02903,0.029 0.02903,0.0941 0,0.12316 -0.02903,0.029 -0.09412,-0.029 -0.12315,0 -0.254804,0.2548 0.389374,-0.01 -0.123153,0.2463 -0.03672,0.0184 -0.08643,-0.0184 -0.12315,0 -0.05192,0.026 -0.07123,0.0972 -0.12315,0.12315 -0.03672,0.0184 -0.08644,-0.0184 -0.123153,0 -0.512527,0.25627 0.131654,-0.008 -0.123151,0.2463 -0.02903,0.029 -0.09412,-0.029 -0.123153,0 -0.1642,0.16421 0.205253,0.12315 -0.12315,0.12315"
       id="path13510"
       inkscape:connector-curvature="0" />
    <path
       style="fill:none;stroke:#000000;stroke-width:0.26458335px;stroke-linecap:butt;stroke-linejoin:miter;stroke-opacity:1"
       d="m 47.043881,274.70956 c 6.116524,0 12.23305,0 18.349574,0 1.026263,0 2.052527,0 3.07879,0 0.328403,0 0.656807,0 0.98521,0 0.246304,0 0.492607,0 0.73891,0 0.0821,0 0.165029,0.0116 0.246303,0 0.207214,-0.0296 0.40929,-0.0887 0.615757,-0.12315 0.211768,-0.0353 0.649507,0 0.86206,0 0.05546,0 0.331976,0.0187 0.369457,0 0.05192,-0.026 0.07123,-0.0972 0.12315,-0.12315 0.03672,-0.0184 0.08644,0.0184 0.123153,0 0.05192,-0.026 0.07123,-0.0972 0.12315,-0.12315 0.100632,-0.0503 0.391975,0.0503 0.492607,0 0.563615,-0.28181 -0.522584,0.051 0.369453,-0.24631 0.141203,-0.0471 0.758955,0.0516 0.862063,0 0.03672,-0.0184 -0.03672,-0.10479 0,-0.12315 0.122516,-0.0613 0.345091,0.0487 0.369454,0 0.03672,-0.0734 -0.05805,-0.18825 0,-0.2463 0.05805,-0.0581 0.166653,0.0199 0.246303,0 0.178102,-0.0445 0.322151,-0.17812 0.492607,-0.24631 0.120528,-0.0482 0.242162,-0.0977 0.369453,-0.12315 0.08051,-0.0161 0.177991,0.0455 0.246304,0 0.07637,-0.0509 0.04105,-0.20525 0.12315,-0.2463 0.110151,-0.0551 0.249981,0.0299 0.369456,0 0.05632,-0.0141 0.07123,-0.0972 0.12315,-0.12315 0.07344,-0.0367 0.188249,0.0581 0.246304,0 0.02903,-0.029 -0.02903,-0.0941 0,-0.12315 0.05805,-0.0581 0.17287,0.0367 0.246303,0 0.226724,-0.11336 0.01958,-0.2561 0.246303,-0.36946 0.03672,-0.0183 0.08643,0.0184 0.123151,0 0.05193,-0.026 0.0821,-0.0821 0.123152,-0.12315 0.04105,-0.0411 0.09719,-0.0712 0.123151,-0.12315 0.01836,-0.0367 -0.02903,-0.0941 0,-0.12315 0.02903,-0.029 0.09412,0.029 0.123153,0 0.02903,-0.029 -0.02903,-0.0941 0,-0.12315 0.02903,-0.029 0.09412,0.029 0.12315,0 0.0326,-0.0326 0,-0.31875 0,-0.36946 0,-0.53365 0,-1.06731 0,-1.60097 0,-0.28735 0,-0.57471 0,-0.86206 0,-0.041 0.02903,-0.0941 0,-0.12315 -0.02903,-0.029 -0.09412,0.029 -0.12315,0 -0.02903,-0.029 0.01836,-0.0864 0,-0.12315 -0.02596,-0.0519 -0.09719,-0.0712 -0.123153,-0.12315 -0.01836,-0.0367 0.02903,-0.0941 0,-0.12315 -0.06491,-0.0649 -0.169926,-0.0722 -0.246303,-0.12316 -0.0483,-0.0322 -0.0821,-0.0821 -0.123151,-0.12315 -0.04105,-0.041 -0.09095,-0.0749 -0.123153,-0.12315 -0.05092,-0.0764 -0.05824,-0.1814 -0.12315,-0.2463 -0.06491,-0.0649 -0.169929,-0.0722 -0.246303,-0.12315 -0.144913,-0.0966 -0.233455,-0.26066 -0.369454,-0.36946 -0.123153,-0.0821 -0.246303,-0.1642 -0.369456,-0.2463 -0.04105,0 -0.08643,0.0184 -0.12315,0 -0.05193,-0.026 -0.07123,-0.0972 -0.123153,-0.12315 -0.03672,-0.0184 -0.09412,0.029 -0.123151,0 -0.02903,-0.029 0.02903,-0.0941 0,-0.12315 -0.06158,-0.0616 -0.30788,0.0616 -0.369453,0 -0.02903,-0.029 0.02903,-0.0941 0,-0.12316 -0.05806,-0.058 -0.172871,0.0367 -0.246304,0 -0.05193,-0.026 -0.07122,-0.0972 -0.123153,-0.12315 -0.09852,-0.0493 -0.270933,0.0493 -0.369453,0 -0.304358,-0.15218 0.04251,-0.12315 -0.246303,-0.12315"
       id="path13512"
       inkscape:connector-curvature="0" />
    <path
       style="fill:none;stroke:#000000;stroke-width:0.26458335px;stroke-linecap:butt;stroke-linejoin:miter;stroke-opacity:1"
       d="m 47.413335,277.9115 c 2.586183,0 5.172363,0 7.758546,0 0.615757,0 1.231514,0 1.847271,0 0.369456,0 0.741762,0.0458 1.108366,0 0.12881,-0.0161 0.240945,-0.10479 0.369453,-0.12315 0.162552,-0.0232 0.328404,0 0.492607,0 0.451554,0 0.90311,0 1.354667,0 0.20525,0 0.412088,0.0255 0.615757,0 0.2077,-0.026 0.408056,-0.0972 0.615756,-0.12315 0.266857,-0.0334 1.003345,0 1.231517,0 0.98521,0 1.970423,0 2.955636,0 1.026264,0 2.052524,0 3.078787,0 0.246304,0 0.492607,0 0.73891,0 0.09991,0 0.275347,-0.0314 0.369454,0 0.08708,0.029 0.157252,0.10088 0.246303,0.12315 0.07965,0.0199 0.168415,-0.026 0.246303,0 0.05508,0.0184 0.0821,0.0821 0.123151,0.12315 0.123153,0.041 0.242162,0.0977 0.369456,0.12315 0.08051,0.0161 0.1642,0 0.246303,0 0.287354,0 0.574707,0 0.86206,0 0.164203,0 0.330055,-0.0232 0.492607,0 0.207214,0.0296 0.409287,0.0887 0.615757,0.12315 0.160126,0.0267 0.905759,-0.0397 0.985213,0 0.05192,0.026 0.07123,0.0972 0.12315,0.12315 0.09725,0.0486 0.265594,-0.0346 0.369454,0 0.89204,0.29735 -0.194159,-0.0355 0.369456,0.24631 0.03672,0.0184 0.08643,-0.0184 0.12315,0 0.05193,0.026 0.07123,0.0972 0.123153,0.12315 0.07343,0.0367 0.172869,-0.0367 0.246304,0 0.103849,0.0519 0.136152,0.20958 0.246303,0.2463 0.116829,0.0389 0.259302,-0.0551 0.369454,0 0.103848,0.0519 0.142451,0.19438 0.246303,0.2463 0.07343,0.0367 0.188248,-0.058 0.246303,0 0.02903,0.029 -0.01836,0.0864 0,0.12316 0.119515,0.23903 0.214487,0.0138 0.369454,0.2463 0.05092,0.0764 0.07223,0.16993 0.123153,0.2463 0.0322,0.0483 0.09719,0.0712 0.12315,0.12315 0.01836,0.0367 -0.01836,0.0864 0,0.12315 0.02596,0.0519 0.09719,0.0712 0.12315,0.12316 0.01836,0.0367 -0.01836,0.0864 0,0.12315 0.02596,0.0519 0.104794,0.0681 0.123153,0.12315 0.03894,0.11683 -0.05508,0.2593 0,0.36945 0.05192,0.10385 0.209587,0.13616 0.246303,0.24631 0.02596,0.0779 -0.03672,0.17287 0,0.2463 0.01836,0.0367 0.09412,-0.029 0.123151,0 0.02903,0.029 -0.01299,0.0842 0,0.12315 0.02903,0.0871 0.09412,0.15922 0.123153,0.2463 0.02596,0.0779 -0.03672,0.17287 0,0.24631 0.02596,0.0519 0.09719,0.0712 0.12315,0.12315 0.01836,0.0367 -0.02903,0.0941 0,0.12315 0.02903,0.029 0.09413,-0.029 0.123153,0 0.0063,0.006 0,0.66865 0,0.73891 0,0.0852 0.02967,0.43326 0,0.49261 -0.05193,0.10385 -0.194379,0.14245 -0.246303,0.2463 -0.03672,0.0734 0.05805,0.18825 0,0.2463 -0.02903,0.029 -0.09413,-0.029 -0.123153,0 -0.06491,0.0649 -0.05825,0.1814 -0.123151,0.2463 -0.02903,0.029 -0.09412,-0.029 -0.123152,0 -0.02903,0.029 0.02903,0.0941 0,0.12316 -0.0649,0.0649 -0.181396,0.0582 -0.246304,0.12315 -0.02903,0.029 0.02903,0.0941 0,0.12315 -0.02903,0.029 -0.0821,0 -0.12315,0 0,0.041 0.02903,0.0941 0,0.12315 -0.04946,0.0495 -0.299802,-0.0232 -0.369454,0 -0.08708,0.029 -0.157252,0.10089 -0.246303,0.12315 -0.06,0.015 -0.427487,-0.0326 -0.492606,0 -0.05193,0.026 -0.07123,0.0972 -0.123153,0.12315 -0.100632,0.0503 -0.391973,-0.0503 -0.492604,0 -0.03672,0.0184 0.02903,0.0941 0,0.12315 -0.06158,0.0616 -0.30788,-0.0616 -0.369457,0 -0.02903,0.029 0.02903,0.0941 0,0.12316 -0.02903,0.029 -0.0821,0 -0.12315,0 0,0.0411 0.02903,0.0941 0,0.12315 -0.05176,0.0518 -0.515207,-0.0503 -0.615757,0 -0.05193,0.026 -0.07123,0.0972 -0.123153,0.12315 -0.07343,0.0367 -0.188248,-0.058 -0.246303,0 -0.1642,0.1642 0.205253,0.12315 -0.12315,0.12315"
       id="path13516"
       inkscape:connector-curvature="0" />
    <path
       style="fill:none;stroke:#000000;stroke-width:0.26458335px;stroke-linecap:butt;stroke-linejoin:miter;stroke-opacity:1"
       d="m 47.782788,271.13817 c 0.287354,0 0.575554,-0.022 0.862063,0 0.248965,0.0192 0.490069,0.10241 0.738907,0.12315 0.245454,0.0204 0.492607,0 0.73891,0 0.0821,0 0.165796,-0.0161 0.246303,0 0.127291,0.0255 0.241409,0.10181 0.369454,0.12315 0.121475,0.0202 0.246303,0 0.369456,0 0.1642,0 0.328404,0 0.492604,0 0.615759,0 1.231516,0 1.847273,0 0.492607,0 0.985213,0 1.47782,0 0.10482,0 0.508934,0.0356 0.615757,0 0.08708,-0.029 0.157252,-0.10089 0.246303,-0.12315 0.07965,-0.0199 0.164203,0 0.246303,0 0.123151,0 0.246304,0 0.369454,0 0.369456,0 0.73891,0 1.108363,0 0.123153,0 0.249981,0.0299 0.369457,0 0.125936,-0.0315 0.243517,-0.0917 0.369453,-0.12315 0.03983,-0.01 0.08643,0.0183 0.12315,0 0.05193,-0.026 0.07123,-0.0972 0.123153,-0.12316 0.09852,-0.0493 0.270934,0.0493 0.369454,0 0.05193,-0.026 0.06808,-0.10479 0.123153,-0.12315 0.07789,-0.026 0.1642,0 0.246303,0 0.161595,0 0.854411,0.0327 0.985211,0 0.08905,-0.0223 0.159223,-0.0941 0.246303,-0.12315 0.137972,-0.046 0.46205,0.0384 0.615757,0 0.125939,-0.0315 0.24352,-0.0917 0.369456,-0.12315 0.193178,-0.0483 0.422579,0.0483 0.615757,0 0.08905,-0.0223 0.159221,-0.0941 0.246303,-0.12315 0.07789,-0.026 0.164203,0 0.246304,0 0.246303,0 0.492606,0 0.738909,0 0.77996,0 1.559918,0 2.339878,0 0.170383,0 0.954412,0.0308 1.108363,0 0.09001,-0.018 0.159224,-0.0941 0.246303,-0.12315 0.10386,-0.0346 0.272204,0.0486 0.369456,0 0.05192,-0.026 0.07123,-0.0972 0.123151,-0.12315 0.03672,-0.0184 0.08643,0.0183 0.123153,0 0.05192,-0.026 0.07123,-0.0972 0.12315,-0.12316 0.09852,-0.0493 0.270933,0.0493 0.369454,0 0.103851,-0.0519 0.142454,-0.19437 0.246303,-0.2463 0.07344,-0.0367 0.188248,0.058 0.246303,0 0.02903,-0.029 -0.02903,-0.0941 0,-0.12315 0.02903,-0.029 0.08643,0.0184 0.123153,0 0.05192,-0.026 0.07123,-0.0972 0.12315,-0.12315 0.09852,-0.0493 0.270934,0.0493 0.369454,0 0.03672,-0.0184 -0.02903,-0.0941 0,-0.12315 5.29e-4,-6.7e-4 0.365339,0.001 0.369456,0 0.08905,-0.0223 0.159221,-0.0941 0.246304,-0.12316 0.07789,-0.026 0.172868,0.0367 0.246303,0 0.05192,-0.026 0.0821,-0.0821 0.12315,-0.12315 0.140904,-0.1409 0.145783,-0.17174 0.369454,-0.2463 0.03894,-0.013 0.0821,0 0.123153,0 0.04105,-0.0411 0.07123,-0.0972 0.12315,-0.12315 0.03672,-0.0184 0.09413,0.029 0.123153,0 0.02903,-0.029 -0.02903,-0.0941 0,-0.12315 0.02903,-0.029 0.08421,0.013 0.12315,0 0.09,-0.03 0.313095,-0.13358 0.369457,-0.24631 0.03672,-0.0734 -0.03672,-0.17287 0,-0.2463 0.02595,-0.0519 0.09719,-0.0712 0.12315,-0.12315 0.03672,-0.0734 -0.05806,-0.18825 0,-0.2463 0.254804,-0.25481 -0.0099,0.38937 0.246303,-0.12316 0.02233,-0.0447 0,-0.86584 0,-0.98521 0,-0.11936 0.02233,-0.94053 0,-0.98521 -0.02596,-0.0519 -0.09719,-0.0712 -0.12315,-0.12315 -0.01836,-0.0367 0.01836,-0.0864 0,-0.12315 -0.02596,-0.0519 -0.0821,-0.0821 -0.123153,-0.12315 -0.0821,-0.0821 -0.181899,-0.1497 -0.246303,-0.24631 -0.02278,-0.0342 0.01836,-0.0864 0,-0.12315 -0.05192,-0.10385 -0.176639,-0.15342 -0.246304,-0.2463 -0.0821,-0.12315 -0.1642,-0.2463 -0.246303,-0.36946 0,-0.041 0.01836,-0.0864 0,-0.12315 -0.256262,-0.51253 0.0085,0.13166 -0.246303,-0.12315 -0.02903,-0.029 0.01836,-0.0864 0,-0.12315 -0.02596,-0.0519 -0.09719,-0.0712 -0.123151,-0.12315 -0.01836,-0.0367 0.03672,-0.1048 0,-0.12315 -0.656807,0 0.0821,0.0821 -0.246303,-0.24631 -0.05805,-0.058 -0.168415,0.026 -0.246303,0 -0.05508,-0.0184 -0.0821,-0.0821 -0.12315,-0.12315 -0.04105,-0.041 -0.09719,-0.0712 -0.123153,-0.12315 -0.01836,-0.0367 0.01836,-0.0864 0,-0.12315 -0.09431,-0.18862 -0.219459,-0.0963 -0.369454,-0.2463 -0.05805,-0.0581 0.03672,-0.17287 0,-0.24631 -0.02596,-0.0519 -0.0821,-0.0821 -0.123153,-0.12315 -0.04105,-0.0411 -0.07123,-0.0972 -0.12315,-0.12315 -0.03672,-0.0184 -0.08421,0.013 -0.123151,0 -0.08708,-0.029 -0.159223,-0.0941 -0.246303,-0.12315 -0.06665,-0.0222 -0.450651,0 -0.492606,0 -0.410507,0 -0.82101,0 -1.231517,0 -0.492606,0 -0.98521,0 -1.477817,0 -0.133231,0 -0.548145,-0.0338 -0.615757,0 -0.05193,0.026 -0.07123,0.0972 -0.123153,0.12315 -0.07343,0.0367 -0.188248,-0.058 -0.246303,0 -0.02903,0.029 0.02903,0.0941 0,0.12315 -0.04424,0.0442 -0.412932,-0.0398 -0.492606,0 -0.07343,0.0367 0.05805,0.18825 0,0.2463 -0.02903,0.029 -0.09412,-0.029 -0.123151,0 -0.02903,0.029 0.02903,0.0941 0,0.12316 -0.254804,0.2548 0.01,-0.38938 -0.246303,0.12315 -0.04983,0.0997 0.04983,0.51609 0,0.61575 -0.152178,0.30436 -0.12315,-0.0425 -0.12315,0.24631"
       id="path13518"
       inkscape:connector-curvature="0" />
    <path
       style="fill:none;stroke:#000000;stroke-width:0.26458335px;stroke-linecap:butt;stroke-linejoin:miter;stroke-opacity:1"
       d="m 47.905941,280.25138 c 0.77996,0 1.55992,0 2.339877,0 0.23426,0 0.651283,0.0351 0.862063,0 0.128045,-0.0213 0.240644,-0.10705 0.369454,-0.12315 0.203668,-0.0255 0.410506,0 0.615757,0 0.369456,0 0.738909,0 1.108363,0 0.178001,0 0.704569,0.0315 0.862063,0 0.127291,-0.0255 0.243517,-0.0917 0.369453,-0.12316 0.147704,-0.0369 0.714537,0 0.86206,0 0.492607,0 0.985214,0 1.47782,0 1.559917,0 3.119837,0 4.679757,0 0.86206,0 1.72412,0 2.586181,0 0.328406,0 0.656809,0 0.985213,0 0.0821,0 0.164203,0 0.246303,0 0.04105,0 0.08643,-0.0183 0.12315,0 0.05193,0.026 0.07123,0.0972 0.123153,0.12316 0.07343,0.0367 0.168415,-0.026 0.246303,0 0.08708,0.029 0.159221,0.0941 0.246304,0.12315 0.07789,0.026 0.188248,-0.0581 0.246303,0 0.02903,0.029 -0.02903,0.0941 0,0.12315 0.05805,0.058 0.188248,-0.058 0.246301,0 0.02903,0.029 -0.02903,0.0941 0,0.12315 0.02903,0.029 0.08644,-0.0184 0.123153,0 0.05192,0.026 0.07122,0.0972 0.12315,0.12315 0.07344,0.0367 0.188251,-0.0581 0.246303,0 0.06491,0.0649 0.05825,0.1814 0.123153,0.24631 0.02903,0.029 0.09412,-0.029 0.12315,0 0.02903,0.029 -0.02903,0.0941 0,0.12315 0.02903,0.029 0.08643,-0.0184 0.123153,0 0.103849,0.0519 0.142452,0.19438 0.246304,0.2463 0.03672,0.0184 0.09412,-0.029 0.12315,0 0.06491,0.0649 0.05824,0.1814 0.12315,0.2463 0.05805,0.0581 0.172871,-0.0367 0.246304,0 0.05193,0.026 0.07123,0.0972 0.123153,0.12315 0.03672,0.0184 0.08643,-0.0184 0.12315,0 0.05193,0.026 0.06808,0.1048 0.123153,0.12316 0.07789,0.026 0.172868,-0.0367 0.246303,0 0.03672,0.0184 -0.02903,0.0941 0,0.12315 0.311068,0.31107 0.141968,0.0473 0.369454,0.12315 0.223671,0.0746 0.228549,0.1054 0.369453,0.2463 0.04105,0.0411 0.07123,0.0972 0.123153,0.12315 0.03672,0.0184 0.08643,-0.0184 0.123151,0 0.103851,0.0519 0.142454,0.19438 0.246303,0.24631 0.03672,0.0184 0.09412,-0.029 0.123153,0 0.05339,0.0534 -0.05188,0.63514 0,0.73891 0.02595,0.0519 0.09719,0.0712 0.12315,0.12315 0.01836,0.0367 -0.01299,0.0842 0,0.12315 0.02903,0.0871 0.100888,0.15725 0.123153,0.2463 0.01992,0.0797 0,0.1642 0,0.2463 0,0.24631 0,0.49261 0,0.73891 0,0.10551 0.02782,0.68326 0,0.73891 -0.01868,0.0374 -0.227629,0.20895 -0.246303,0.24631 -0.01836,0.0367 0,0.0821 0,0.12315 -0.04105,0.041 -0.09719,0.0712 -0.123153,0.12315 -0.03672,0.0734 0.05805,0.18825 0,0.2463 -0.02903,0.029 -0.08643,-0.0184 -0.12315,0 -0.05193,0.026 -0.0821,0.0821 -0.123153,0.12315 -0.04105,0.041 -0.09719,0.0712 -0.123151,0.12315 -0.01836,0.0367 0.02903,0.0941 0,0.12316 -0.02903,0.029 -0.09412,-0.029 -0.123153,0 -0.02903,0.029 0.02903,0.0941 0,0.12315 -0.02903,0.029 -0.08643,-0.0184 -0.12315,0 -0.05192,0.0259 -0.07485,0.0909 -0.123153,0.12315 -0.07637,0.0509 -0.169926,0.0722 -0.246301,0.12315 -0.0483,0.0322 -0.07123,0.0972 -0.123153,0.12315 -0.03672,0.0184 -0.08643,-0.0184 -0.12315,0 -0.05193,0.026 -0.07123,0.0972 -0.123153,0.12315 -0.03672,0.0184 -0.08643,-0.0184 -0.12315,0 -0.147783,0.0739 -0.221673,0.29557 -0.369456,0.36946 -0.03672,0.0184 -0.08421,-0.013 -0.123151,0 -0.08708,0.029 -0.159221,0.0941 -0.246303,0.12315 -0.03894,0.013 -0.08643,-0.0184 -0.12315,0 -0.05193,0.026 -0.07123,0.0972 -0.123153,0.12315 -0.03748,0.0187 -0.313992,0 -0.369454,0 -0.246303,0 -0.492606,0 -0.73891,0 -0.105508,0 -0.68326,0.0278 -0.738909,0 -0.05192,-0.026 -0.07123,-0.0972 -0.123151,-0.12315 -0.07344,-0.0367 -0.188248,0.0581 -0.246303,0 -0.02903,-0.029 0.02903,-0.0941 0,-0.12315 -0.02903,-0.029 -0.09413,0.029 -0.123153,0 -0.0326,-0.0326 0,-0.31875 0,-0.36946"
       id="path13520"
       inkscape:connector-curvature="0" />
    <path
       style="fill:none;stroke:#000000;stroke-width:0.26458335px;stroke-linecap:butt;stroke-linejoin:miter;stroke-opacity:1"
       d="m 86.452366,274.21695 c 0.410506,0.041 0.820388,0.0889 1.231516,0.12316 0.327268,0.0273 0.656807,0 0.98521,0 0.328404,0 0.65681,0 0.985214,0 1.272566,0 2.54513,0 3.817696,0 4.269254,0 8.538508,0 12.807758,0 0.98521,0 1.97043,0 2.95564,0 0.0821,0 0.1642,0 0.2463,0 0.041,0 0.0941,0.029 0.12315,0 0.029,-0.029 -0.0407,-0.11806 0,-0.12316 0.36424,-0.0455 1.38459,0 1.84727,0 0.24631,0 0.49451,0.0306 0.73891,0 0.0911,-0.0114 0.15726,-0.10089 0.24631,-0.12315 0.06,-0.015 0.42748,0.0326 0.4926,0 0.0519,-0.026 0.0712,-0.0972 0.12315,-0.12315 0.0367,-0.0184 0.0821,0 0.12316,0 0.0821,0 0.1642,0 0.2463,0 0.3284,0 0.65681,0 0.98521,0 0.12315,0 0.2463,0 0.36946,0 0.041,0 0.0864,0.0184 0.12315,0 0.0519,-0.026 0.0712,-0.0972 0.12315,-0.12315 0.0367,-0.0184 0.0864,0.0184 0.12315,0 0.0519,-0.026 0.0712,-0.0972 0.12315,-0.12315 0.10377,-0.0519 0.68552,0.0534 0.73891,0 0.029,-0.029 -0.029,-0.0941 0,-0.12315 0.0495,-0.0495 0.2998,0.0232 0.36946,0 0.0871,-0.029 0.15922,-0.0941 0.2463,-0.12316 0.0697,-0.0232 0.31999,0.0495 0.36945,0 0.029,-0.029 -0.029,-0.0941 0,-0.12315 0.0569,-0.0569 0.2951,0.0372 0.36946,0 0.0519,-0.026 0.0712,-0.0972 0.12315,-0.12315 0.0734,-0.0367 0.18825,0.0581 0.2463,0 0.029,-0.029 -0.029,-0.0941 0,-0.12315 0.058,-0.058 0.17287,0.0367 0.2463,0 0.0519,-0.026 0.0821,-0.0821 0.12316,-0.12315 0.041,-0.041 0.0972,-0.0712 0.12315,-0.12315 0.0184,-0.0367 -0.029,-0.0941 0,-0.12315 0.029,-0.029 0.0941,0.029 0.12315,0 0.0581,-0.0581 -0.0367,-0.17287 0,-0.24631 0.026,-0.0519 0.0972,-0.0712 0.12315,-0.12315 0.0184,-0.0367 -0.029,-0.0941 0,-0.12315 0.029,-0.029 0.0941,0.029 0.12315,0 0.029,-0.029 -0.0184,-0.0864 0,-0.12315 0.026,-0.0519 0.0972,-0.0712 0.12315,-0.12315 0.0184,-0.0367 -0.029,-0.0941 0,-0.12316 0.029,-0.029 0.0941,0.029 0.12316,0 0.029,-0.029 -0.0184,-0.0864 0,-0.12315 0.0519,-0.10385 0.19437,-0.14245 0.2463,-0.2463 0.0184,-0.0367 -0.0184,-0.0864 0,-0.12315 0.25626,-0.51253 -0.008,0.13165 0.2463,-0.12315 0.029,-0.029 -0.0184,-0.0864 0,-0.12315 0.026,-0.0519 0.0972,-0.0712 0.12315,-0.12316 0.0334,-0.0668 -0.0337,-0.45891 0,-0.4926 0.029,-0.029 0.0941,0.029 0.12315,0 0.029,-0.029 0,-0.0821 0,-0.12315 0,-0.0555 0.0187,-0.33198 0,-0.36946 -0.0519,-0.10385 -0.19437,-0.14245 -0.2463,-0.2463 -0.0184,-0.0367 0.029,-0.0941 0,-0.12315 -0.0649,-0.0649 -0.1814,-0.0582 -0.2463,-0.12315 -0.029,-0.029 0.029,-0.0941 0,-0.12316 -0.029,-0.029 -0.0864,0.0184 -0.12315,0 -0.0519,-0.026 -0.0821,-0.0821 -0.12315,-0.12315 -0.0411,-0.041 -0.0972,-0.0712 -0.12316,-0.12315 -0.0184,-0.0367 0.029,-0.0941 0,-0.12315 -0.0649,-0.0649 -0.16992,-0.0722 -0.2463,-0.12315 -0.0483,-0.0322 -0.0821,-0.0821 -0.12315,-0.12315 -0.041,-0.041 -0.0972,-0.0712 -0.12315,-0.12315 -0.0184,-0.0367 0.029,-0.0941 0,-0.12316 -0.029,-0.029 -0.0864,0.0184 -0.12315,0 -0.51253,-0.25626 0.13165,0.008 -0.12316,-0.2463 -0.029,-0.029 -0.0941,0.029 -0.12315,0 -0.058,-0.058 0.0581,-0.18825 0,-0.2463 -0.058,-0.0581 -0.17287,0.0367 -0.2463,0 -0.10385,-0.0519 -0.1497,-0.1819 -0.2463,-0.24631 -0.0764,-0.0509 -0.15922,-0.0941 -0.24631,-0.12315 -0.0389,-0.013 -0.0941,0.029 -0.12315,0 -0.029,-0.029 0.029,-0.0941 0,-0.12315 -0.0616,-0.0616 -0.30788,0.0616 -0.36945,0 -0.029,-0.029 0.029,-0.0941 0,-0.12315 -0.006,-0.006 -0.66865,0 -0.73891,0"
       id="path13522"
       inkscape:connector-curvature="0" />
    <path
       style="fill:none;stroke:#000000;stroke-width:0.26458335px;stroke-linecap:butt;stroke-linejoin:miter;stroke-opacity:1"
       d="m 88.176486,277.29574 c 0.574709,0 1.149416,0 1.724123,0 0.205253,0 0.411213,0.017 0.615757,0 0.289269,-0.0241 0.572981,-0.0969 0.86206,-0.12315 0.163528,-0.0149 0.328403,0 0.492606,0 0.246304,0 0.492607,0 0.73891,0 0.615757,0 1.231514,0 1.847273,0 0.451554,0 0.903111,0 1.354667,0 0.205251,0 0.412089,0.0255 0.615757,0 0.12881,-0.0161 0.240176,-0.1114 0.369454,-0.12315 0.327056,-0.0297 0.656809,0 0.985213,0 0.246303,0 0.492606,0 0.73891,0 0.246303,0 0.493617,0.0223 0.738907,0 0.20846,-0.019 0.408546,-0.0935 0.615759,-0.12315 0.203188,-0.029 0.410508,0 0.615758,0 0.45156,0 0.90311,0 1.35467,0 1.27256,0 2.54513,0 3.81769,0 0.53366,0 1.06798,0.0267 1.60097,0 0.28991,-0.0145 0.57243,-0.10385 0.86206,-0.12315 0.4096,-0.0273 0.82101,0 1.23152,0 0.77996,0 1.55992,0 2.33988,0 0.45155,0 0.90311,0 1.35466,0 0.12316,0 0.24631,0 0.36946,0 0.0821,0 0.1658,-0.0161 0.2463,0 0.12729,0.0255 0.24352,0.0917 0.36946,0.12315 0.2463,0.0616 0,-0.12315 0.36945,0 0.0551,0.0184 0.0821,0.0821 0.12315,0.12315 0.12315,0.041 0.24141,0.10181 0.36946,0.12315 0.30633,0.0511 1.10282,-0.12869 1.35466,0.12315 0.0581,0.0581 -0.0581,0.18825 0,0.2463 0.029,0.029 0.0941,-0.029 0.12316,0 0.058,0.0581 -0.0367,0.17287 0,0.24631 0.0259,0.0519 0.0972,0.0712 0.12315,0.12315 0.0862,0.17237 -0.14297,0.10333 0.12315,0.36945 0.041,0.041 0.0821,0.0821 0.12315,0.12316 0,0.041 -0.0228,0.089 0,0.12315 0.0752,0.11287 0.43013,0.36766 0.49261,0.4926 0.0184,0.0367 -0.029,0.0941 0,0.12315 0.0649,0.0649 0.19538,0.0468 0.2463,0.12316 0.0455,0.0683 -0.0581,0.18824 0,0.2463 0.0581,0.058 0.17287,-0.0367 0.2463,0 0.0367,0.0184 -0.0184,0.0864 0,0.12315 0.026,0.0519 0.0972,0.0712 0.12315,0.12315 0.0367,0.0734 -0.0367,0.17287 0,0.2463 0.25627,0.51253 -0.008,-0.13165 0.24631,0.12316 0.029,0.029 -0.0184,0.0864 0,0.12315 0.0259,0.0519 0.0972,0.0712 0.12315,0.12315 0.0184,0.0367 -0.0184,0.0864 0,0.12315 0.026,0.0519 0.0972,0.0712 0.12315,0.12315 0.0184,0.0367 -0.0184,0.0864 0,0.12315 0.026,0.0519 0.10479,0.0681 0.12315,0.12316 0,0.56062 -0.0581,0.007 0.12315,0.36945 0.0493,0.0986 -0.0444,0.60568 0,0.73891 0.029,0.0871 0.0941,0.15922 0.12315,0.2463 0.0326,0.0977 0,0.4706 0,0.61576 0,0.4105 0,0.82101 0,1.23151 0,0.20526 0,0.41051 0,0.61576 0,0.0411 0.029,0.0941 0,0.12315 -0.058,0.0581 -0.18825,-0.058 -0.2463,0 -0.029,0.029 0.0184,0.0864 0,0.12315 -0.026,0.0519 -0.0821,0.0821 -0.12315,0.12316 -0.041,0.0411 -0.0712,0.0972 -0.12315,0.12315 -0.0367,0.0184 -0.0864,-0.0184 -0.12315,0 -0.0519,0.026 -0.0712,0.0972 -0.12316,0.12315 -0.0367,0.0184 -0.0864,-0.0184 -0.12315,0 -0.0519,0.026 -0.0712,0.0972 -0.12315,0.12315 -0.0375,0.0187 -0.31399,0 -0.36945,0"
       id="path13524"
       inkscape:connector-curvature="0" />
    <path
       style="fill:none;stroke:#000000;stroke-width:0.26458335px;stroke-linecap:butt;stroke-linejoin:miter;stroke-opacity:1"
       d="m 88.792245,280.99029 c 1.436767,0 2.873534,0 4.310304,0 0.287353,0 0.574707,0 0.86206,0 0.12315,0 0.248695,0.0241 0.369454,0 0.09001,-0.018 0.156294,-0.10515 0.246303,-0.12315 0.17902,-0.0358 0.774152,0 0.985213,0 0.656807,0 1.313616,0 1.970423,0 0.533657,0 1.067314,0 1.60097,0 0.191326,0 0.708719,-0.0383 0.862061,0 0.05632,0.0141 0.07123,0.0972 0.123157,0.12315 0.0367,0.0184 0.0821,0 0.12315,0 0.20525,0 0.4105,0 0.61575,0 0.61576,0 1.23152,0 1.84728,0 0.2463,0 0.4926,0 0.73891,0 0.0821,0 0.17286,-0.0367 0.2463,0 0.0519,0.026 0.0712,0.0972 0.12315,0.12315 0.0972,0.0486 0.2656,-0.0346 0.36946,0 0.17416,0.058 0.31258,0.2103 0.4926,0.2463 0.12076,0.0242 0.2463,0 0.36946,0 0.37369,0 0.37467,-0.0161 0.86206,0.12315 0.0883,0.0252 0.15922,0.0941 0.2463,0.12315 0.0389,0.013 0.0941,-0.029 0.12315,0 0.0649,0.0649 0.0582,0.1814 0.12315,0.24631 0.029,0.029 0.089,-0.0228 0.12315,0 0.0966,0.0644 0.1497,0.1819 0.24631,0.2463 0.0854,0.057 0.27683,-0.0463 0.36945,0 0.56362,0.28181 -0.52258,-0.051 0.36946,0.2463 0.3666,0.1222 -0.25269,-0.2916 0.36945,0.12315 0.0483,0.0322 0.0712,0.0972 0.12315,0.12316 0.0734,0.0367 0.17287,-0.0367 0.24631,0 0.0519,0.026 0.0712,0.0972 0.12315,0.12315 0.0734,0.0367 0.18824,-0.058 0.2463,0 0.0649,0.0649 0.0582,0.1814 0.12315,0.2463 0.029,0.029 0.0842,-0.013 0.12315,0 0.0871,0.029 0.16108,0.0891 0.24631,0.12315 0.12052,0.0482 0.25334,0.0651 0.36945,0.12315 0.0519,0.026 0.0712,0.0972 0.12315,0.12316 0.0367,0.0184 0.0833,-0.01 0.12315,0 0.12594,0.0315 0.24352,0.0917 0.36946,0.12315 0.0398,0.01 0.0864,-0.0184 0.12315,0 0.0519,0.0259 0.0712,0.0972 0.12315,0.12315 0.0367,0.0184 0.0941,-0.029 0.12315,0 0.029,0.029 -0.029,0.0941 0,0.12315 0.029,0.029 0.0941,-0.029 0.12315,0 0.23373,0.23372 0.0552,0.2888 0.12316,0.49261 0.041,0.0821 0.0821,0.1642 0.12315,0.2463 0.041,0 0.0941,-0.029 0.12315,0 0.0569,0.0569 -0.0372,0.2951 0,0.36945 0.026,0.0519 0.0972,0.0712 0.12315,0.12315 0.0184,0.0367 -0.0184,0.0864 0,0.12316 0.026,0.0519 0.0972,0.0712 0.12315,0.12315 0.0184,0.0367 0,0.0821 0,0.12315 0.041,0.041 0.0972,0.0712 0.12315,0.12315 0.0187,0.0375 0,0.314 0,0.36946 0,0.0487 0.0263,0.56316 0,0.61575 -0.0259,0.0519 -0.0972,0.0712 -0.12315,0.12315 -0.0184,0.0367 0.029,0.0941 0,0.12316 -0.029,0.029 -0.0941,-0.029 -0.12315,0 -0.0581,0.058 0.0367,0.17287 0,0.2463 -0.0943,0.18862 -0.21946,0.0963 -0.36945,0.2463 -0.0649,0.0649 -0.0583,0.1814 -0.12316,0.24631 -0.3284,0 0.0411,-0.0411 -0.12315,0.12315 -0.029,0.029 -0.0941,-0.029 -0.12315,0 -0.0616,0.0616 0.0616,0.30788 0,0.36945 -0.029,0.029 -0.0864,-0.0184 -0.12315,0 -0.0519,0.026 -0.0821,0.0821 -0.12315,0.12315 -0.041,0.041 -0.0972,0.0712 -0.12315,0.12315 -0.0184,0.0367 0,0.0821 0,0.12316 -0.041,0.041 -0.0972,0.0712 -0.12316,0.12315 -0.0184,0.0367 0.029,0.0941 0,0.12315 -0.029,0.029 -0.0941,-0.029 -0.12315,0 -0.029,0.029 0.029,0.0941 0,0.12315 -0.0616,0.0616 -0.30788,-0.0616 -0.36945,0 -0.25481,0.25481 0.38937,-0.01 -0.12315,0.2463 -0.0734,0.0367 -0.18825,-0.058 -0.24631,0 -0.029,0.029 0.029,0.0941 0,0.12315 -0.0581,0.0581 -0.18825,-0.0581 -0.2463,0 -0.2548,0.25481 0.38938,-0.01 -0.12315,0.24631 -0.0367,0.0184 -0.0941,-0.029 -0.12315,0 -0.0581,0.058 0.0581,0.18825 0,0.2463 -0.1642,0.1642 -0.12315,-0.20525 -0.12315,0.12315"
       id="path13526"
       inkscape:connector-curvature="0" />
    <path
       style="fill:none;stroke:#000000;stroke-width:0.26458335px;stroke-linecap:butt;stroke-linejoin:miter;stroke-opacity:1"
       d="m 88.422789,271.13817 c 0.73891,0 1.47782,0 2.21673,0 2.093574,0 4.18715,0 6.280727,0 0.77996,0 1.559917,0 2.339877,0 0.246303,0 0.494509,0.0306 0.73891,0 0.247767,-0.031 0.490447,-0.0983 0.738907,-0.12316 0.52838,-0.0528 1.0726,0.0528 1.60097,0 2.78974,-0.27897 -0.86987,0.0282 1.60097,-0.2463 0.1224,-0.0136 0.24869,0.0242 0.36946,0 0.22289,0.0742 0.22904,-0.1995 0.36945,-0.2463 0.56062,0 0.007,0.0581 0.36946,-0.12315 0.0997,-0.0498 0.51609,0.0498 0.61575,0 0.10385,-0.0519 0.13615,-0.20959 0.24631,-0.24631 0.0779,-0.026 0.16665,0.0199 0.2463,0 0.0891,-0.0223 0.15725,-0.10089 0.2463,-0.12315 0.0797,-0.0199 0.16842,0.026 0.24631,0 0.0551,-0.0184 0.0681,-0.10479 0.12315,-0.12315 0.0779,-0.026 0.16841,0.026 0.2463,0 0.0551,-0.0184 0.0681,-0.10479 0.12315,-0.12315 0.0779,-0.026 0.17799,0.0455 0.2463,0 0.0764,-0.0509 0.0583,-0.1814 0.12316,-0.2463 0.029,-0.029 0.0864,0.0184 0.12315,0 0.0519,-0.026 0.0693,-0.1016 0.12315,-0.12316 0.14555,-0.40602 0.41718,-0.057 0.61576,-0.12315 0.40539,-0.13513 0.22934,-0.26754 0.73891,-0.36945 0.0805,-0.0161 0.17007,0.0305 0.2463,0 1.34035,-0.53614 -0.94336,0.0584 0.98521,-0.49261 0.0789,-0.0226 0.1642,0 0.2463,0 0.0411,0 0.0864,0.0184 0.12316,0 0.0519,-0.026 0.0681,-0.10479 0.12315,-0.12315 0.0779,-0.026 0.17287,0.0367 0.2463,0 0.0367,-0.0184 -0.029,-0.0941 0,-0.12315 0.029,-0.029 0.0864,0.0184 0.12315,0 0.0519,-0.026 0.0712,-0.0972 0.12315,-0.12315 0.0367,-0.0184 0.0864,0.0184 0.12315,0 0.51253,-0.25627 -0.13165,0.009 0.12316,-0.24631 0.029,-0.029 0.0941,0.029 0.12315,0 0.029,-0.029 -0.029,-0.0941 0,-0.12315 0.2548,-0.2548 -0.01,0.38938 0.2463,-0.12315 0.0184,-0.0367 -0.0184,-0.0864 0,-0.12315 0.026,-0.0519 0.0972,-0.0712 0.12315,-0.12315 0.0223,-0.0447 0,-0.86585 0,-0.98521 0,-0.0487 0.0263,-0.56317 0,-0.61576 -0.026,-0.0519 -0.10479,-0.0681 -0.12315,-0.12315 -0.026,-0.0779 0.0367,-0.17287 0,-0.24631 -0.0184,-0.0367 -0.0941,0.029 -0.12315,0 -0.0581,-0.058 0.0367,-0.17287 0,-0.2463 -0.026,-0.0519 -0.0972,-0.0712 -0.12315,-0.12315 -0.0184,-0.0367 0.029,-0.0941 0,-0.12315 -0.029,-0.029 -0.0941,0.029 -0.12315,0 -0.0649,-0.0649 -0.0722,-0.16993 -0.12316,-0.2463 -0.0322,-0.0483 -0.0909,-0.0748 -0.12315,-0.12316 -0.0509,-0.0764 -0.0722,-0.16992 -0.12315,-0.2463 -0.0322,-0.0483 -0.0972,-0.0712 -0.12315,-0.12315 -0.0184,-0.0367 0.0184,-0.0864 0,-0.12315 -0.25627,-0.51253 0.008,0.13165 -0.2463,-0.12315 -0.041,-0.0821 -0.0821,-0.16421 -0.12315,-0.24631 -0.0411,0 -0.0941,0.029 -0.12316,0 -0.0649,-0.0649 -0.0582,-0.18139 -0.12315,-0.2463 -0.029,-0.029 -0.0842,0.013 -0.12315,0 -0.0871,-0.029 -0.1814,-0.0582 -0.2463,-0.12315 -0.029,-0.029 0.0184,-0.0864 0,-0.12315 -0.026,-0.0519 -0.0972,-0.0712 -0.12315,-0.12315 -0.0849,-0.16987 0.14914,-0.11016 -0.12316,-0.24631 -0.0367,-0.0184 -0.0941,0.029 -0.12315,0 -0.029,-0.029 0.029,-0.0941 0,-0.12315 -0.029,-0.029 -0.0864,0.0184 -0.12315,0 -0.0519,-0.026 -0.0712,-0.0972 -0.12315,-0.12315 -0.0367,-0.0184 -0.0941,0.029 -0.12315,0 -0.029,-0.029 0.0184,-0.0864 0,-0.12315 -0.0761,-0.15218 -0.1189,-0.12315 -0.2463,-0.12315"
       id="path13528"
       inkscape:connector-curvature="0" />
    <path
       style="fill:none;stroke:#000000;stroke-width:0.26458335px;stroke-linecap:butt;stroke-linejoin:miter;stroke-opacity:1"
       d="m 88.176486,267.44362 c 0.77996,0 1.55992,0 2.33988,0 0.104822,0 0.508934,0.0356 0.615757,0 0.479604,-0.15987 0.01153,-0.12315 0.492606,-0.12315 0.07037,0 1.068874,0.0197 1.108364,0 0.05193,-0.026 0.07122,-0.0972 0.123152,-0.12315 0.07343,-0.0367 0.172869,0.0367 0.246304,0 0.05192,-0.026 0.07123,-0.0972 0.12315,-0.12315 0.03672,-0.0184 0.08421,0.013 0.123153,0 0.08708,-0.029 0.159221,-0.0941 0.246301,-0.12316 0.07789,-0.026 0.166655,0.0199 0.246303,0 0.3473,-0.0868 0.634082,-0.29922 0.985213,-0.36945 0.08051,-0.0161 0.164203,0 0.246303,0 0.205254,0 0.410504,0 0.615757,0 0.0821,0 0.168415,0.026 0.246303,0 0.05508,-0.0184 0.07123,-0.0972 0.123153,-0.12315 0.03672,-0.0184 0.08421,0.013 0.123151,0 0.08708,-0.029 0.159221,-0.0941 0.246303,-0.12315 0.03894,-0.013 0.09412,0.029 0.12315,0 0.02903,-0.029 -0.02903,-0.0941 0,-0.12316 0.02903,-0.029 0.08644,0.0184 0.123153,0 0.05192,-0.026 0.0821,-0.0821 0.123151,-0.12315 0.04105,-0.041 0.09719,-0.0712 0.123153,-0.12315 0.01836,-0.0367 -0.02903,-0.0941 0,-0.12315 0.02903,-0.029 0.104793,0.0367 0.12315,0 0.03672,-0.0734 -0.03672,-0.17287 0,-0.2463 0.01836,-0.0367 0.08643,0.0184 0.123153,0 0.05192,-0.026 0.0821,-0.0821 0.12315,-0.12315 0.04105,-0.0411 0.09719,-0.0712 0.123153,-0.12316 0.08493,-0.16987 -0.149145,-0.11015 0.12315,-0.2463 0.03672,-0.0184 0.09413,0.029 0.123151,0 0.02903,-0.029 -0.01836,-0.0864 0,-0.12315 0.02595,-0.0519 0.09719,-0.0712 0.123153,-0.12315 0.109003,-0.21801 -0.183182,-0.0421 0.12315,-0.2463 -0.01402,-0.23331 0.287353,-0.0821 0.369456,-0.12316 0.103849,-0.0519 0.142452,-0.19437 0.246304,-0.2463 0.03672,-0.0184 0.08643,0.0184 0.12315,0 0.103851,-0.0519 0.142452,-0.19438 0.246303,-0.2463 0.169871,-0.0849 0.110157,0.14914 0.246303,-0.12315 0.01873,-0.0375 0,-0.314 0,-0.36946 0,-0.041 0,-0.0821 0,-0.12315 0,-0.041 0.02903,-0.0941 0,-0.12315 -0.02903,-0.029 -0.09413,0.029 -0.123153,0 -0.02902,-0.029 0.01836,-0.0864 0,-0.12315 -0.02595,-0.0519 -0.0821,-0.0821 -0.12315,-0.12315 -0.04105,-0.0411 -0.07123,-0.0972 -0.12315,-0.12316 -0.03672,-0.0184 -0.089,0.0228 -0.123153,0 -0.09661,-0.0644 -0.149696,-0.18189 -0.246303,-0.2463 -0.03415,-0.0228 -0.08421,0.013 -0.123151,0 -0.08708,-0.029 -0.164203,-0.0821 -0.246303,-0.12315 -0.210201,0.0436 -0.237072,-0.18011 -0.369456,-0.2463 -0.100632,-0.0503 -0.391973,0.0503 -0.492604,0 -0.05193,-0.026 -0.07123,-0.0972 -0.123153,-0.12316 -0.09852,-0.0493 -0.270933,0.0493 -0.369454,0 -0.05192,-0.026 -0.07123,-0.0972 -0.123153,-0.12315 -0.03672,-0.0184 -0.0821,0 -0.12315,0 -0.119364,0 -0.940536,0.0223 -0.985213,0 -0.05192,-0.026 -0.07123,-0.0972 -0.12315,-0.12315 -0.03748,-0.0187 -0.313992,0 -0.369457,0 -0.194707,0 -0.564245,-0.0349 -0.738907,0 -0.16597,0.0332 -0.325654,0.0953 -0.492606,0.12315 -0.170961,0.0285 -0.451631,-0.0547 -0.615757,0 -0.05508,0.0184 -0.07485,0.091 -0.123153,0.12315 -0.212265,0.14151 -0.186153,0.12316 -0.369454,0.12316"
       id="path13530"
       inkscape:connector-curvature="0" />
    <path
       style="fill:none;stroke:#000000;stroke-width:0.26458335px;stroke-linecap:butt;stroke-linejoin:miter;stroke-opacity:1"
       d="m 90.023759,283.33017 c 1.354667,0 2.709334,0 4.064,0 0.287354,0 0.574707,0 0.86206,0 0.02927,0 0.465006,-0.0138 0.492607,0 0.05193,0.0259 0.06808,0.10479 0.123153,0.12315 0.07789,0.0259 0.1642,0 0.246303,0 0.287354,0 0.574707,0 0.86206,0 0.123151,0 0.252622,-0.0389 0.369454,0 0.384395,0.12813 -0.04105,0.0821 0.123153,0.2463 0.02903,0.029 0.08421,-0.013 0.12315,0 0.222898,-0.0742 0.229039,0.1995 0.369454,0.2463 5.29e-4,1.9e-4 0.369337,-1.2e-4 0.369456,0 0.0649,0.0649 0.05824,0.1814 0.12315,0.24631 0.05805,0.058 0.172871,-0.0367 0.246304,0 0.103851,0.0519 0.142454,0.19437 0.246303,0.2463 0.03672,0.0184 0.09412,-0.029 0.123153,0 0.02903,0.029 -0.02903,0.0941 0,0.12315 0.02903,0.029 0.08643,-0.0184 0.12315,0 0.103852,0.0519 0.142452,0.19438 0.246303,0.2463 0.03672,0.0184 0.09412,-0.029 0.123151,0 0.02903,0.029 -0.01836,0.0864 0,0.12315 0.02596,0.0519 0.0821,0.0821 0.123153,0.12316 0.04105,0.20525 0.04541,0.42141 0.12315,0.61575 0.01524,0.0381 0.104794,-0.0367 0.123153,0 0.02617,0.0524 0,0.51256 0,0.61576 0,0.041 0,0.0821 0,0.12315 0,0.041 -0.02903,0.0941 0,0.12315 0.02903,0.029 0.09412,-0.029 0.12315,0 0.02903,0.029 0,0.0821 0,0.12316 0,0.12937 0.03624,0.38389 0,0.4926 -0.128132,0.3844 -0.0821,-0.041 -0.246303,0.12315 -0.02903,0.029 0.02903,0.0941 0,0.12316 -0.02903,0.029 -0.09412,-0.029 -0.12315,0 -0.02903,0.029 0.01836,0.0864 0,0.12315 -0.02596,0.0519 -0.0821,0.0821 -0.123153,0.12315 -0.04105,0.041 -0.07123,0.0972 -0.123151,0.12315 -0.07343,0.0367 -0.188248,-0.058 -0.246303,0 -0.164203,0.1642 0.261244,0.11817 -0.12315,0.2463 -0.07789,0.026 -0.168415,-0.026 -0.246303,0 -0.05508,0.0184 -0.06808,0.1048 -0.123153,0.12315 -0.116832,0.0389 -0.259305,-0.0551 -0.369454,0 -0.05192,0.026 -0.07123,0.0972 -0.123153,0.12316 -0.07343,0.0367 -0.1642,0 -0.246303,0 -0.246301,0 -0.492604,0 -0.738907,0 -0.172501,0 -1.014048,-0.0314 -1.108364,0 -0.05508,0.0184 -0.06808,0.10479 -0.123153,0.12315 -0.103783,0.0346 -0.477874,0 -0.615757,0"
       id="path13532"
       inkscape:connector-curvature="0" />
    <path
       style="fill:none;stroke:#000000;stroke-width:0.26458335px;stroke-linecap:butt;stroke-linejoin:miter;stroke-opacity:1"
       d="m 130.29431,273.47804 c 0.16407,0.34243 0.41269,0.0724 0.61575,0.12316 0.12594,0.0315 0.24352,0.0917 0.36946,0.12315 0.15371,0.0384 0.47778,-0.046 0.61576,0 0.0871,0.029 0.15922,0.0941 0.2463,0.12315 0.0389,0.013 0.0821,0 0.12315,0 0.12315,0 0.2463,0 0.36946,0 0.3284,0 0.6568,0 0.98521,0 1.10836,0 2.21672,0 3.32509,0 3.44824,0 6.89648,0 10.34473,0 1.31361,0 2.62723,0 3.94084,0 0.24631,0 0.49261,0 0.73891,0 0.28736,0 0.57647,0.0317 0.86206,0 0.0912,-0.0101 0.15805,-0.0979 0.24631,-0.12315 0.20126,-0.0575 0.40805,-0.0972 0.61575,-0.12315 0.1222,-0.0153 0.2487,0.0242 0.36946,0 0.09,-0.018 0.15922,-0.0941 0.2463,-0.12316 0.0389,-0.013 0.0833,0.01 0.12315,0 0.12594,-0.0315 0.24352,-0.0917 0.36946,-0.12315 0.0398,-0.01 0.0864,0.0184 0.12315,0 0.10385,-0.0519 0.14245,-0.19437 0.2463,-0.2463 0.10064,-0.0503 0.39198,0.0503 0.49261,0 0.10385,-0.0519 0.13615,-0.20959 0.2463,-0.2463 0.0779,-0.026 0.16842,0.026 0.2463,0 0.0551,-0.0184 0.0749,-0.0909 0.12316,-0.12315 0.0764,-0.0509 0.15922,-0.0941 0.2463,-0.12316 0.0389,-0.013 0.0941,0.029 0.12315,0 0.029,-0.029 -0.029,-0.0941 0,-0.12315 0.25481,-0.2548 -0.01,0.38938 0.2463,-0.12315 0.0184,-0.0367 -0.0184,-0.0864 0,-0.12315 0.026,-0.0519 0.091,-0.0749 0.12316,-0.12315 0.0509,-0.0764 0.0722,-0.16993 0.12315,-0.24631 0.0322,-0.0483 0.0972,-0.0712 0.12315,-0.12315 0.0742,-0.14831 -0.11245,-0.257 0.12315,-0.4926 0.029,-0.029 0.0941,0.029 0.12315,0 0.029,-0.029 -0.0184,-0.0864 0,-0.12315 0.026,-0.0519 0.0972,-0.0712 0.12315,-0.12316 0.0184,-0.0367 -0.0184,-0.0864 0,-0.12315 0.026,-0.0519 0.0972,-0.0712 0.12315,-0.12315 0.0367,-0.0734 -0.0581,-0.18825 0,-0.2463 0.0649,-0.0649 0.17287,-0.0681 0.24631,-0.12315 0.0929,-0.0697 0.15341,-0.17664 0.2463,-0.24631 0.0734,-0.0551 0.1814,-0.0582 0.2463,-0.12315 0.029,-0.029 -0.029,-0.0941 0,-0.12315 0.29912,-0.29911 0.18084,0.0366 0.36946,-0.2463 0.0509,-0.0764 0.0582,-0.1814 0.12315,-0.24631 0.0649,-0.0649 0.19539,-0.0468 0.2463,-0.12315 0.0455,-0.0683 -0.0367,-0.17287 0,-0.2463 0.0184,-0.0367 0.0864,0.0184 0.12315,0 0.0519,-0.026 0.0821,-0.0821 0.12316,-0.12315 0.041,-0.0411 0.0972,-0.0712 0.12315,-0.12315 0.0184,-0.0367 -0.029,-0.0941 0,-0.12315 0.029,-0.029 0.0941,0.029 0.12315,0 0.029,-0.029 -0.0184,-0.0864 0,-0.12316 0.026,-0.0519 0.0972,-0.0712 0.12315,-0.12315 0.0367,-0.0734 -0.0581,-0.18825 0,-0.2463 0.029,-0.029 0.10479,0.0367 0.12315,0 0.0367,-0.0734 0,-0.1642 0,-0.2463 0,-0.0411 -0.029,-0.0941 0,-0.12316 0.029,-0.029 0.0941,0.029 0.12315,0 0.16922,-0.16921 0.12315,-0.40683 0.12315,-0.61575 0,-0.0821 -0.0367,-0.17287 0,-0.24631 0.0184,-0.0367 0.0941,0.029 0.12316,0 0.029,-0.029 0,-0.0821 0,-0.12315 0,-0.041 0,-0.0821 0,-0.12315 0,-0.4105 0,-0.82101 0,-1.23151 0,-0.0411 0,-0.0821 0,-0.12316 0,-0.041 0.029,-0.0941 0,-0.12315 -0.029,-0.029 -0.0941,0.029 -0.12316,0 -0.029,-0.029 0.0184,-0.0864 0,-0.12315 -0.0259,-0.0519 -0.0972,-0.0712 -0.12315,-0.12315 -0.0184,-0.0367 0.029,-0.0941 0,-0.12315 -0.029,-0.029 -0.0941,0.029 -0.12315,0 -0.029,-0.029 0.0184,-0.0864 0,-0.12315 -0.0259,-0.0519 -0.0972,-0.0712 -0.12315,-0.12315 -0.0184,-0.0367 0.029,-0.0941 0,-0.12316 -0.0581,-0.058 -0.17287,0.0367 -0.2463,0 -0.0519,-0.026 -0.0712,-0.0972 -0.12315,-0.12315 -0.0367,-0.0183 -0.0864,0.0184 -0.12316,0 -0.0519,-0.026 -0.0712,-0.0972 -0.12315,-0.12315 -0.0367,-0.0184 -0.0864,0.0184 -0.12315,0 -0.0519,-0.026 -0.0712,-0.0972 -0.12315,-0.12315 -0.0567,-0.0283 -0.6618,0 -0.73891,0"
       id="path13534"
       inkscape:connector-curvature="0" />
    <path
       style="fill:none;stroke:#000000;stroke-width:0.26458335px;stroke-linecap:butt;stroke-linejoin:miter;stroke-opacity:1"
       d="m 130.29431,277.29574 c 4.4745,0 8.94901,0 13.42351,0 0.98521,0 1.97043,0 2.95564,0 0.45155,0 0.90311,0 1.35466,0 0.15872,0 0.62087,-0.0295 0.73891,0 0.089,0.0223 0.15922,0.0941 0.24631,0.12315 0.0389,0.013 0.0842,-0.013 0.12315,0 0.0871,0.029 0.15725,0.10089 0.2463,0.12315 0.0796,0.0199 0.16665,-0.0199 0.2463,0 0.0891,0.0223 0.15923,0.0941 0.24631,0.12316 0.0389,0.013 0.0821,0 0.12315,0 0.15852,0 0.70286,-0.0318 0.86206,0 0.12729,0.0254 0.24064,0.10705 0.36945,0.12315 0.52577,0.0657 1.07351,-0.0528 1.60097,0 0.28883,0.0289 0.57357,0.0911 0.86206,0.12315 0.0431,0.005 0.48234,-0.005 0.49261,0 0.0367,0.0184 -0.0367,0.10479 0,0.12315 0.0734,0.0367 0.16842,-0.026 0.2463,0 0.11016,0.0367 0.1497,0.1819 0.24631,0.2463 0.36473,0.24316 0.83613,0.34434 1.23151,0.49261 0.0859,0.0322 0.15725,0.10089 0.2463,0.12315 0.27368,0.0684 0.30788,-0.10263 0.61576,0 0.0389,0.013 -0.029,0.0941 0,0.12315 0.029,0.029 0.0941,-0.029 0.12315,0 0.029,0.029 -0.029,0.0941 0,0.12315 0.029,0.029 0.0941,-0.029 0.12316,0 0.029,0.029 -0.0184,0.0864 0,0.12316 0.0309,0.0619 0.54511,0.56866 0.61575,0.61575 0.0764,0.0509 0.19539,0.0468 0.24631,0.12315 0.0455,0.0683 -0.0581,0.18825 0,0.24631 0.0581,0.0581 0.18825,-0.0581 0.2463,0 0.058,0.0581 -0.0367,0.17287 0,0.2463 0.0184,0.0367 0.0941,-0.029 0.12315,0 0.029,0.029 -0.0184,0.0864 0,0.12315 0.0519,0.10385 0.19438,0.14246 0.2463,0.24631 0.0184,0.0367 -0.0184,0.0864 0,0.12315 0.026,0.0519 0.0909,0.0748 0.12315,0.12315 0.0509,0.0764 0.0583,0.1814 0.12316,0.2463 0.0649,0.0649 0.19122,0.0497 0.2463,0.12315 0.33984,0.45312 -0.0573,0.26488 0.2463,0.49261 0.11841,0.0888 0.2648,0.14164 0.36946,0.2463 0.029,0.029 -0.0184,0.0864 0,0.12315 0.026,0.0519 0.0972,0.0712 0.12315,0.12315 0.0367,0.0734 -0.0581,0.18826 0,0.24631 0.029,0.029 0.0941,-0.029 0.12315,0 0.029,0.029 -0.0184,0.0864 0,0.12315 0.026,0.0519 0.0972,0.0712 0.12315,0.12315 0.0184,0.0367 -0.0184,0.0864 0,0.12315 0.026,0.0519 0.10479,0.0681 0.12315,0.12315 0.026,0.0779 -0.0259,0.16842 0,0.24631 0.0184,0.0551 0.0972,0.0712 0.12315,0.12315 0.025,0.0501 0,0.62225 0,0.73891 0,0.53365 0,1.06731 0,1.60097 0,0.3284 0,0.65681 0,0.98521 0,0.0555 0.0187,0.33198 0,0.36945 -0.0259,0.0519 -0.0972,0.0712 -0.12315,0.12316 -0.0297,0.0593 0,0.40743 0,0.4926"
       id="path13536"
       inkscape:connector-curvature="0" />
    <path
       style="fill:none;stroke:#000000;stroke-width:0.26458335px;stroke-linecap:butt;stroke-linejoin:miter;stroke-opacity:1"
       d="m 130.29431,280.00507 c 2.05252,0 4.10505,0 6.15757,0 0.49261,0 0.98521,0 1.47782,0 0.11322,0 0.63755,-0.0338 0.73891,0 0.3567,0.11891 0.1673,0.18224 0.61576,0.24631 0.16255,0.0232 0.33005,-0.0232 0.4926,0 1.65935,0.23705 0.79201,0.2935 2.46303,0.36945 0.4921,0.0224 0.98522,0 1.47782,0 0.65681,0 1.31362,0 1.97043,0 0.2463,0 0.4926,0 0.7389,0 0.0411,0 0.0821,0 0.12316,0 0.0411,0 0.10479,-0.0367 0.12315,0 0.0367,0.0734 -0.0581,0.18825 0,0.24631 0.058,0.058 0.16841,-0.026 0.2463,0 0.0551,0.0184 0.0748,0.0909 0.12315,0.12315 0.0764,0.0509 0.15922,0.0941 0.24631,0.12315 0.0389,0.013 0.0833,-0.01 0.12315,0 0.25187,0.063 0.48546,0.18998 0.73891,0.2463 0.61492,0.13665 0.5566,0.12315 0.98521,0.12315 0.0772,0 0.47739,-0.0152 0.4926,0 0.0616,0.0616 -0.0616,0.30788 0,0.36946 0.029,0.029 0.0941,-0.029 0.12316,0 0.0296,0.0296 -0.0296,0.46297 0,0.4926 0.029,0.029 0.0941,-0.029 0.12315,0 0.058,0.0581 -0.0367,0.17287 0,0.24631 0.0259,0.0519 0.0972,0.0712 0.12315,0.12315 0.0411,0.0822 -0.0435,0.69539 0,0.73891 0.029,0.029 0.0941,-0.029 0.12315,0 0.0432,0.0432 -0.0425,0.53069 0,0.61575 0.026,0.0519 0.0972,0.0712 0.12315,0.12316 0.0334,0.0668 -0.0337,0.45891 0,0.4926 0.029,0.029 0.0941,-0.029 0.12315,0 0.0326,0.0326 0,0.31875 0,0.36946 0,0.82101 0,1.64202 0,2.46303 0,0.41274 0.0102,0.10275 -0.12315,0.36945 -0.0367,0.0734 0.0581,0.18825 0,0.2463 -0.029,0.029 -0.0941,-0.029 -0.12315,0 -0.12149,0.12149 0.25235,0.24631 -0.12315,0.24631"
       id="path13538"
       inkscape:connector-curvature="0" />
    <path
       style="fill:none;stroke:#000000;stroke-width:0.26458335px;stroke-linecap:butt;stroke-linejoin:miter;stroke-opacity:1"
       d="m 131.03322,270.39926 c 0.2659,-0.17424 0.58328,0.0697 0.86206,0 0.089,-0.0223 0.15629,-0.10515 0.2463,-0.12315 0.12076,-0.0242 0.24998,0.0299 0.36945,0 0.0563,-0.0141 0.0712,-0.0972 0.12316,-0.12316 0.0367,-0.0184 0.0821,0 0.12315,0 0.12315,0 0.2463,0 0.36945,0 0.32041,0 0.66746,0.0353 0.98521,0 0.2885,-0.032 0.57243,-0.10384 0.86206,-0.12315 0.32768,-0.0218 0.65681,0 0.98522,0 0.5747,0 1.14941,0 1.72412,0 0.3284,0 0.65681,0 0.98521,0 0.28735,0 0.57471,0 0.86206,0 0.0821,0 0.16503,0.0116 0.2463,0 0.20722,-0.0296 0.40717,-0.10577 0.61576,-0.12315 0.28636,-0.0239 0.57471,0 0.86206,0 0.12315,0 0.24998,0.0299 0.36946,0 0.63947,-0.15987 -0.13147,-0.12315 0.4926,-0.12315 0.73891,0 1.47782,0 2.21673,0 0.3284,0 0.65681,0 0.98521,0 0.041,0 0.0941,0.029 0.12315,0 0.029,-0.029 -0.029,-0.0941 0,-0.12315 0.029,-0.029 0.0821,0 0.12315,0 0.16421,0 0.32841,0 0.49261,0 0.65681,0 1.31362,0 1.97042,0 0.28736,0 0.57471,0 0.86207,0 0.1642,0 0.33159,0.0322 0.4926,0 0.0569,-0.0114 0.0668,-0.10907 0.12315,-0.12315 0.1282,-0.032 0.47235,0.0478 0.61576,0 0.27649,-0.0922 0.33471,-0.22894 0.61576,-0.36946 0.0367,-0.0184 0.0833,0.01 0.12315,0 0.12594,-0.0315 0.24141,-0.10181 0.36945,-0.12315 0.12148,-0.0203 0.24998,0.0299 0.36946,0 0.0563,-0.0141 0.0748,-0.091 0.12315,-0.12315 0.0764,-0.0509 0.16993,-0.0722 0.2463,-0.12315 0.0483,-0.0322 0.0712,-0.0972 0.12315,-0.12315 0.0367,-0.0184 0.0941,0.029 0.12316,0 0.058,-0.0581 -0.0581,-0.18825 0,-0.24631 0.029,-0.029 0.0864,0.0184 0.12315,0 0.14118,-0.0706 0.1713,-0.25695 0.2463,-0.36945 0.0322,-0.0483 0.0972,-0.0712 0.12315,-0.12315 0.0372,-0.0744 -0.0569,-0.31253 0,-0.36946 0.029,-0.029 0.1048,0.0367 0.12315,0 0.0382,-0.0764 0,-0.38349 0,-0.4926 0,-0.28736 0,-0.57471 0,-0.86207 0,-0.0999 0.0314,-0.27534 0,-0.36945 -0.029,-0.0871 -0.0941,-0.15922 -0.12315,-0.2463 -0.013,-0.0389 0,-0.0821 0,-0.12315 0,-0.12568 0.0354,-0.63264 0,-0.73891 -0.0184,-0.0551 -0.0972,-0.0712 -0.12315,-0.12315 -0.0367,-0.0734 0.026,-0.16842 0,-0.24631 -0.029,-0.0871 -0.0941,-0.15922 -0.12315,-0.2463 -0.0346,-0.10386 0.0486,-0.2722 0,-0.36946 -0.25626,-0.51252 0.008,0.13166 -0.2463,-0.12315 -0.0581,-0.058 0.0367,-0.17287 0,-0.2463 -0.026,-0.0519 -0.0972,-0.0712 -0.12316,-0.12315 -0.0367,-0.0734 0.0581,-0.18825 0,-0.2463 -0.029,-0.029 -0.10479,0.0367 -0.12315,0 -0.0551,-0.11015 0.0551,-0.25931 0,-0.36946 -0.25626,-0.51253 0.008,0.13165 -0.2463,-0.12315 -0.029,-0.029 0.0184,-0.0864 0,-0.12315 -0.026,-0.0519 -0.0821,-0.0821 -0.12315,-0.12315 -0.0411,-0.041 -0.0712,-0.0972 -0.12315,-0.12316 -0.0367,-0.0183 -0.0941,0.029 -0.12315,0 -0.16421,-0.1642 0.20525,-0.12315 -0.12316,-0.12315"
       id="path13540"
       inkscape:connector-curvature="0" />
  </g>
</svg>
