<?xml version="1.0" encoding="UTF-8" standalone="no"?>
<!-- Created with Inkscape (http://www.inkscape.org/) -->

<svg
   xmlns:dc="http://purl.org/dc/elements/1.1/"
   xmlns:cc="http://creativecommons.org/ns#"
   xmlns:rdf="http://www.w3.org/1999/02/22-rdf-syntax-ns#"
   xmlns:svg="http://www.w3.org/2000/svg"
   xmlns="http://www.w3.org/2000/svg"
   xmlns:sodipodi="http://sodipodi.sourceforge.net/DTD/sodipodi-0.dtd"
   xmlns:inkscape="http://www.inkscape.org/namespaces/inkscape"
   width="16"
   height="16"
   viewBox="0 0 4.2333333 4.2333333"
   version="1.1"
   id="svg7979"
   inkscape:version="0.92.1 r15371"
   sodipodi:docname="Air.svg">
  <defs
     id="defs7973" />
  <sodipodi:namedview
     id="base"
     pagecolor="#ffffff"
     bordercolor="#666666"
     borderopacity="1.0"
     inkscape:pageopacity="0.0"
     inkscape:pageshadow="2"
     inkscape:zoom="53"
     inkscape:cx="7.9056604"
     inkscape:cy="8.2082162"
     inkscape:document-units="mm"
     inkscape:current-layer="layer1"
     showgrid="false"
     units="px"
     inkscape:window-width="1920"
     inkscape:window-height="1017"
     inkscape:window-x="-8"
     inkscape:window-y="-8"
     inkscape:window-maximized="1" />
  <metadata
     id="metadata7976">
    <rdf:RDF>
      <cc:Work
         rdf:about="">
        <dc:format>image/svg+xml</dc:format>
        <dc:type
           rdf:resource="http://purl.org/dc/dcmitype/StillImage" />
        <dc:title></dc:title>
      </cc:Work>
    </rdf:RDF>
  </metadata>
  <g
     inkscape:label="Calque 1"
     inkscape:groupmode="layer"
     id="layer1"
     transform="translate(0,-292.76667)">
    <ellipse
       style="fill:#000000;fill-opacity:1;stroke:none;stroke-width:0.12975544;stroke-miterlimit:4;stroke-dasharray:none"
       id="path8532"
       cx="2.1241548"
       cy="294.87585"
       rx="2.1091783"
       ry="2.1041863" />
    <path
       style="fill:none;fill-opacity:1;stroke:#ffffff;stroke-width:0.13229166;stroke-miterlimit:4;stroke-dasharray:none"
       d="m 0.39437892,294.81844 c 0.0599057,0 0.11981132,0 0.17971698,0 0.0532495,0 0.10649894,0 0.15974843,0 0.0166404,0 0.0332809,0 0.0499214,0 0.006656,0 0.0133792,-9.4e-4 0.0199686,0 0.0084,10e-4 0.0165412,0.004 0.0249608,0.005 0.004954,6.2e-4 0.009984,0 0.0149765,0 0.0166404,0 0.0333017,-8.3e-4 0.0499214,0 0.0167026,8.4e-4 0.0332188,0.004 0.0499214,0.005 0.0166198,8.3e-4 0.0332981,-7.5e-4 0.0499214,0 0.020017,9.1e-4 0.0398885,0.004 0.0599057,0.005 0.016623,7.5e-4 0.033302,-8.4e-4 0.049921,0 0.016703,8.3e-4 0.033221,0.004 0.049921,0.005 0.041486,0.002 0.083317,-0.002 0.1248035,0 0.013397,7e-4 0.026561,0.004 0.039937,0.005 0.0083,6.4e-4 0.01664,0 0.024961,0 0.021633,0 0.043265,0 0.064898,0 0.06989,0 0.1397798,0 0.2096698,0 0.028289,0 0.056578,0 0.084866,0 0.018304,0 0.036609,0 0.054914,0 0.00666,0 0.013345,-6.6e-4 0.019969,0 0.010072,0.001 0.019893,0.004 0.029953,0.005 0.00496,5.5e-4 0.00998,0 0.014976,0 0.00666,0 0.013312,0 0.019969,0 0.026625,0 0.053249,0 0.079874,0 0.1015068,0 0.2030136,0 0.3045205,0 0.024961,0 0.049921,0 0.074882,0 0.014977,0 0.029953,0 0.044929,0 0.00499,0 0.010005,-4.5e-4 0.014976,0 0.013361,0.001 0.026561,0.004 0.039937,0.005 0.0083,6.4e-4 0.01664,0 0.024961,0 0.033281,0 0.066562,0 0.099843,0 0.018304,0 0.036609,0 0.054914,0 0.00666,0 0.013345,-6.6e-4 0.019969,0 0.010072,0.001 0.019866,0.004 0.029953,0.005 0.00995,8.2e-4 0.019969,0 0.029953,0 0.00832,0 0.01664,0 0.024961,0 0.029953,0 0.059906,0 0.089859,0 0.01664,0 0.033281,0 0.049921,0 0.00881,0 0.026157,0.001 0.034945,0 0.010044,-10e-4 0.01991,-0.004 0.029953,-0.005 0.0066,-8.2e-4 0.013311,0 0.019968,0 0.00999,0 0.019968,0 0.029953,0 0.00499,0 0.010081,9.8e-4 0.014975,0 0.00365,-7.3e-4 0.0063,-0.004 0.00999,-0.005 0.00824,-10e-4 0.01664,0 0.024961,0 0.024961,0 0.049921,0 0.074882,0 0.00499,0 0.010015,5.5e-4 0.014975,0 0.010059,-10e-4 0.019968,-0.003 0.029953,-0.005 0.013311,0 0.026664,0.001 0.039937,0 0.094595,-0.007 -0.063439,-0.005 0.059906,-0.005 0.00832,0 0.01664,0 0.024961,0 0.00333,0 0.00672,6.5e-4 0.00999,0 0.00516,-10e-4 0.010091,-0.003 0.014975,-0.005 0.00346,-10e-4 0.00689,-0.003 0.00999,-0.005 0.00196,-10e-4 0.00276,-0.004 0.00499,-0.005 0.00316,-0.001 0.00666,0 0.00999,0 0.00167,0 0.0035,7.4e-4 0.00499,0 0.00599,-0.003 0.00899,-0.012 0.014975,-0.015 0.00148,-7.4e-4 0.0035,7.5e-4 0.00499,0 0.00421,-0.002 0.00607,-0.007 0.00999,-0.01 0.0031,-0.002 0.00735,-0.002 0.00999,-0.005 0.00116,-10e-4 -7.409e-4,-0.004 0,-0.005 0.00106,-0.002 0.00333,-0.003 0.00499,-0.005 0.0039,-0.004 0.012105,-0.0107 0.014975,-0.015 0.00206,-0.003 0.00235,-0.007 0.00499,-0.01 0.00116,-0.001 0.0035,7.5e-4 0.00499,0 0.020775,-0.0104 -0.00534,3.5e-4 0.00499,-0.01 0.00262,-0.003 0.00735,-0.002 0.00999,-0.005 0.00116,-0.001 -7.408e-4,-0.004 0,-0.005 0.00106,-0.002 0.00333,-0.003 0.00499,-0.005 0.00571,-0.006 0.00696,-0.006 0.00999,-0.015 0.00249,-0.007 -0.00499,-0.005 0,-0.015 7.408e-4,-10e-4 0.00382,10e-4 0.00499,0 0.00116,-10e-4 0,-0.003 0,-0.005 0,-0.003 -0.00148,-0.007 0,-0.01 7.408e-4,-0.001 0.00425,10e-4 0.00499,0 7.409e-4,-0.001 0,-0.0259 0,-0.03 0,-0.002 -5.291e-4,-0.003 0,-0.005 0.00116,-0.004 0.00382,-0.006 0.00499,-0.01 5.292e-4,-0.002 0,-0.003 0,-0.005 0,-0.003 0,-0.007 0,-0.01 0,-0.0133 0,-0.0266 0,-0.0399 0,-0.006 9.525e-4,-0.0281 0,-0.0299 -0.00106,-0.002 -0.00394,-0.003 -0.00499,-0.005 -7.408e-4,-10e-4 0,-0.003 0,-0.005 0,-0.004 8.467e-4,-0.0324 0,-0.0349 -7.408e-4,-0.002 -0.00394,-0.003 -0.00499,-0.005 -7.409e-4,-10e-4 7.408e-4,-0.004 0,-0.005 -0.011364,-0.0114 -0.00132,0.001 -0.00499,-0.01 -0.012054,-0.0362 0.00143,0.008 -0.00999,-0.015 -7.408e-4,-0.001 9.26e-4,-0.004 0,-0.005 -0.00262,-0.004 -0.00666,-0.007 -0.00999,-0.01 -0.00167,-0.002 -0.00394,-0.003 -0.00499,-0.005 -7.408e-4,-10e-4 7.409e-4,-0.004 0,-0.005 -4.762e-4,-9.5e-4 -0.019013,-0.0195 -0.019968,-0.02 -0.00148,-7.4e-4 -0.00382,10e-4 -0.00499,0 -0.00116,-10e-4 0.00116,-0.004 0,-0.005 -0.00116,-0.001 -0.00382,10e-4 -0.00499,0 -0.00116,-0.001 0.00116,-0.004 0,-0.005 -0.00116,-0.001 -0.00382,10e-4 -0.00499,0 -0.00116,-0.001 7.408e-4,-0.003 0,-0.005 -0.00212,-0.004 -0.00737,-0.006 -0.00999,-0.01 -0.00206,-0.003 -0.00235,-0.007 -0.00499,-0.01 -0.00262,-0.003 -0.00689,-0.003 -0.00999,-0.005 -0.00196,-10e-4 -0.00276,-0.004 -0.00499,-0.005 -0.00316,-10e-4 -0.00722,0.002 -0.00999,0 -0.0031,-0.002 -0.00235,-0.007 -0.00499,-0.01 -0.00116,-10e-4 -0.0035,7.4e-4 -0.00499,0 -0.00212,-10e-4 -0.00303,-0.004 -0.00499,-0.005 -0.0031,-0.002 -0.00735,-0.002 -0.00998,-0.005 -0.00116,-10e-4 0.00116,-0.004 0,-0.005 -0.00116,-0.001 -0.00333,0 -0.00499,0 -0.00167,-0.003 -0.00235,-0.007 -0.00499,-0.01 -0.013936,-0.0139 -0.00695,0.004 -0.024961,-0.005 -0.00333,-0.002 -0.0019,-0.008 -0.00499,-0.01 -0.00499,-0.003 -0.00999,0.002 -0.014975,0 -0.00353,-10e-4 -0.00645,-0.004 -0.00998,-0.005 -0.00159,-5.3e-4 -0.0035,7.4e-4 -0.00499,0 -0.00212,-10e-4 -0.00289,-0.004 -0.00499,-0.005 -0.00148,-7.5e-4 -0.0035,7.4e-4 -0.00499,0 -0.00212,-10e-4 -0.00289,-0.004 -0.00499,-0.005 -0.00148,-7.5e-4 -0.00333,0 -0.00499,0 -0.00333,0 -0.00666,0 -0.00999,0 -0.00999,0 -0.019968,0 -0.029953,0"
       id="path8536"
       inkscape:connector-curvature="0" />
    <path
       style="fill:none;fill-opacity:1;stroke:#ffffff;stroke-width:0.13229166;stroke-miterlimit:4;stroke-dasharray:none"
       d="m 0.40935534,295.06305 c 0.0166404,0 0.0332809,0 0.0499214,0 0.006656,0 0.013353,-7.3e-4 0.0199686,0 0.0116946,0.001 0.0232267,0.004 0.0349449,0.005 0.006629,6e-4 0.0133125,0 0.0199686,0 0.00832,0 0.0166404,0 0.0249608,0 0.0249608,0 0.0499214,0 0.0748821,0 0.0815383,0 0.16307652,0 0.24461478,0 0.0316169,0 0.0632337,0 0.0948506,0 0.0216326,0 0.0432652,0 0.0648978,0 0.00998,0 0.019991,-6.7e-4 0.029953,0 0.015035,10e-4 0.029884,0.004 0.044929,0.005 0.014954,8.3e-4 0.029953,0 0.044929,0 0.018304,0 0.036609,0 0.054913,0 0.068226,0 0.1364517,0 0.2046777,0 0.071554,0 0.1431079,0 0.2146619,0 0.021633,0 0.043265,0 0.064898,0 0.018304,0 0.036634,-9.7e-4 0.054914,0 0.013397,7e-4 0.026588,0.004 0.039937,0.005 0.00331,3.3e-4 0.00666,0 0.00998,0 0.016641,0 0.033298,-7.6e-4 0.049921,0 0.020017,9.1e-4 0.039891,0.004 0.059906,0.005 0.026595,10e-4 0.053249,0 0.079874,0 0.074882,0 0.1497641,0 0.2246462,0 0.05325,0 0.1064989,0 0.1597484,0 0.018304,0 0.036609,0 0.054914,0 0.00666,0 0.013403,-0.001 0.019969,0 0.00367,6.1e-4 0.00628,0.005 0.00998,0.005 0.010992,10e-4 0.1111289,0 0.1148192,0 0.01664,0 0.033281,0 0.049921,0 0.014976,0 0.029968,-6.8e-4 0.044929,0 0.021675,9.9e-4 0.043222,0.004 0.064898,0.005 0.016624,7.2e-4 0.033281,0 0.049922,0 0.053249,0 0.1064991,0 0.1597483,0 0.01664,0 0.033281,0 0.049922,0 0.00499,0 0.010081,-9.8e-4 0.014975,0 0.00365,7.3e-4 0.0063,0.004 0.00999,0.005 0.00824,10e-4 0.01664,0 0.024961,0 0.011647,0 0.023297,0 0.034945,0 0.019968,0 0.039937,0 0.059906,0 0.011647,0 0.023368,-10e-4 0.034945,0 0.00682,7.6e-4 0.0132,0.004 0.019968,0.005 0.00328,5.5e-4 0.00666,0 0.00999,0 0.00832,0 0.01664,0 0.024961,0 0.00499,0 0.010134,-10e-4 0.014975,0 0.00228,5.7e-4 0.00289,0.004 0.00499,0.005 0.00298,0.001 0.00763,-0.002 0.00999,0 0.00116,0.001 -0.00148,0.004 0,0.005 0.028289,0 0.00167,-0.003 0.00999,0.005 0.00116,0.001 0.00382,-10e-4 0.00499,0 0.00116,0.001 0,0.003 0,0.005 0.00167,0 0.00382,-10e-4 0.00499,0 0.00116,0.001 -0.00116,0.004 0,0.005 0.00333,0.002 0.00666,0.003 0.00999,0.005 0,0.002 -0.00116,0.004 0,0.005 0.00608,0.006 0.011155,0.002 0.014975,0.01 7.409e-4,10e-4 -0.00116,0.004 0,0.005 0.00262,0.003 0.00735,0.002 0.00999,0.005 0.00235,0.002 -0.00148,0.007 0,0.01 0.00212,0.004 0.00788,0.006 0.00999,0.01 7.408e-4,0.001 -5.292e-4,0.003 0,0.005 0.00116,0.004 0.00382,0.006 0.00499,0.01 5.291e-4,0.002 -0.00116,0.004 0,0.005 0.00116,10e-4 0.00382,-0.001 0.00499,0 0.00235,0.002 -0.00148,0.007 0,0.01 0.00106,0.002 0.00394,0.003 0.00499,0.005 0.00198,0.004 -0.00198,0.011 0,0.015 0.00106,0.002 0.00394,0.003 0.00499,0.005 7.409e-4,0.001 0,0.003 0,0.005 0,0.005 0,0.01 0,0.015 0,0.0116 0,0.0233 0,0.0349 0,0.015 0,0.03 0,0.0449 0,0.003 -6.614e-4,0.0187 0,0.02 0.00106,0.002 0.00425,0.003 0.00499,0.005 4.234e-4,0.001 7.938e-4,0.0275 0,0.0299 -0.00116,0.004 -0.00382,0.006 -0.00499,0.01 -0.00177,0.005 0.00212,0.0207 0,0.025 -7.408e-4,10e-4 -0.00382,-0.001 -0.00499,0 -0.00116,10e-4 5.291e-4,0.003 0,0.005 -0.00116,0.004 -0.00382,0.006 -0.00499,0.01 -5.292e-4,0.002 7.408e-4,0.003 0,0.005 -0.00887,0.0177 -0.00111,-0.008 -0.00999,0.01 -0.00148,0.003 0.00235,0.008 0,0.01 -0.00116,10e-4 -0.00382,-0.001 -0.00499,0 -0.00116,10e-4 7.408e-4,0.004 0,0.005 -0.00106,0.002 -0.00394,0.003 -0.00499,0.005 -7.408e-4,10e-4 0.00116,0.004 0,0.005 -0.00116,10e-4 -0.00382,-0.001 -0.00499,0 -0.00116,10e-4 0.00116,0.004 0,0.005 -0.00116,10e-4 -0.00382,-0.001 -0.00499,0 -0.010329,0.0103 0.015785,-4e-4 -0.00499,0.01 -0.00298,10e-4 -0.00701,-10e-4 -0.00999,0 -0.00212,10e-4 -0.00276,0.004 -0.00499,0.005 -0.00316,10e-4 -0.00666,0 -0.00999,0 -0.00167,0 -0.0035,-7.4e-4 -0.00499,0 -0.022847,0.0114 0.021183,-0.002 -0.014975,0.01 -0.0033,0.001 -0.029589,0 -0.034945,0 -0.00167,0 -0.00341,-5.3e-4 -0.00499,0 -0.00353,0.001 -0.00645,0.004 -0.00998,0.005 -0.00316,0.001 -0.00666,0 -0.00999,0 -0.00832,0 -0.01664,0 -0.024961,0 -0.00333,0 -0.00701,-10e-4 -0.00999,0 -0.00148,7.5e-4 0.00116,0.004 0,0.005 -2.008e-4,2e-4 -0.018134,0 -0.019968,0"
       id="path8538"
       inkscape:connector-curvature="0" />
    <path
       style="fill:none;fill-opacity:1;stroke:#ffffff;stroke-width:0.13229166;stroke-miterlimit:4;stroke-dasharray:none"
       d="m 0.42433176,294.59878 c 0.0239572,0.006 0.0455261,0.005 0.0698899,0.005 0.003328,0 0.006668,-2.8e-4 0.009984,0 0.0166656,0.001 0.0332557,0.004 0.0499214,0.005 0.0132665,10e-4 0.0266248,0 0.0399371,0 0.0282888,0 0.0565776,0 0.0848663,0 0.0116483,0 0.0233225,-7.8e-4 0.034945,0 0.0133863,8.9e-4 0.0265877,0.004 0.0399371,0.005 0.003312,3.3e-4 0.006656,0 0.009984,0 0.009984,0 0.0199686,0 0.0299528,0 0.0133122,0 0.0266247,0 0.0399371,0 0.0482573,0 0.0965147,0 0.14477201,0 0.24295073,0 0.48590143,0 0.72885223,0 0.074882,0 0.1497641,0 0.2246462,0 0.031617,0 0.063234,0 0.094851,0 0.00426,0 0.03309,9.3e-4 0.034945,0 0.00211,-0.001 0.00276,-0.004 0.00499,-0.005 0.00474,-0.002 0.00998,0 0.014976,0 0.00333,0 0.00666,0 0.00998,0 0.00998,0 0.019969,0 0.029953,0 0.00499,0 0.010176,10e-4 0.014976,0 0.00716,-0.002 0.012704,-0.008 0.019969,-0.01 0.00812,-0.002 0.016705,0.001 0.024961,0 0.050204,-0.006 -0.012144,-0.003 0.024961,-0.01 0.0049,-9.8e-4 0.00998,0 0.014976,0 0.011648,0 0.023297,0 0.034945,0 0.00333,0 0.00676,8.1e-4 0.00998,0 0.01021,-0.003 0.019743,-0.007 0.029953,-0.01 0.00323,-8.1e-4 0.00676,8e-4 0.00998,0 0.00361,-9.1e-4 0.00666,-0.003 0.00998,-0.005 0.00666,-0.002 0.013201,-0.004 0.019969,-0.005 0.00657,-10e-4 0.013442,10e-4 0.019969,0 0.00516,-10e-4 0.00987,-0.004 0.014976,-0.005 0.00484,-0.001 0.010081,9.8e-4 0.014977,0 0.02597,-0.005 0.00499,-0.003 0.024961,-0.01 0.00316,-0.001 0.00722,0.002 0.00998,0 0.00392,-0.003 0.00577,-0.008 0.00998,-0.01 0.00998,-0.005 0.00749,0.002 0.014976,0 0.00353,-0.001 0.00689,-0.003 0.00998,-0.005 0.00145,-9.7e-4 0.00928,-0.01 0.00998,-0.01 0.00484,-10e-4 0.01024,0.002 0.014976,0 0.00569,-0.002 0.00941,-0.008 0.014976,-0.01 0.024961,-0.01 0,0.005 0.014976,0 0.00706,-0.002 0.012909,-0.008 0.019969,-0.01 0.00158,-5.3e-4 0.00341,5.2e-4 0.00499,0 0.00353,-10e-4 0.00637,-0.004 0.00998,-0.005 0.00323,-8e-4 0.00683,10e-4 0.00998,0 0.00223,-7.4e-4 0.00271,-0.004 0.00499,-0.005 0.00484,-0.001 0.00998,0 0.014977,0 0.00832,0 0.016754,10e-4 0.024961,0 0.00519,-8.6e-4 0.010091,-0.003 0.014976,-0.005 0.00691,-0.003 0.012908,-0.008 0.019969,-0.01 0.00158,-5.3e-4 0.00341,5.2e-4 0.00499,0 0.00285,-9.5e-4 0.028368,-0.0134 0.029953,-0.015 0.010329,-0.0103 -0.015785,4e-4 0.00499,-0.01 0.00689,-0.003 0.00447,0.006 0.00998,-0.005 7.409e-4,-10e-4 -0.00148,-0.004 0,-0.005 0.00298,-10e-4 0.00683,10e-4 0.00999,0 0.00222,-7.4e-4 0.00289,-0.004 0.00499,-0.005 0.00471,-0.002 0.00987,-0.004 0.014975,-0.005 0.00161,-4.1e-4 0.00382,10e-4 0.00499,0 0.00116,-0.001 -7.408e-4,-0.004 0,-0.005 0.00222,-0.004 0.011946,-0.0104 0.014975,-0.015 0.00206,-0.003 0.00235,-0.007 0.00499,-0.01 0.00116,-10e-4 0.00382,0.001 0.00499,0 0.00262,-0.003 0.00293,-0.007 0.00499,-0.01 0.0013,-0.002 0.00358,-0.003 0.00499,-0.005 0.0036,-0.005 0.00574,-0.0107 0.00999,-0.015 0.00116,-0.001 0.00382,10e-4 0.00499,0 0.00262,-0.003 0.00235,-0.007 0.00499,-0.01 0.00262,-0.003 0.00735,-0.002 0.00999,-0.005 0.019484,-0.0195 -0.00116,-0.003 0.00499,-0.015 0.00106,-0.002 0.00394,-0.003 0.00499,-0.005 7.408e-4,-10e-4 -7.409e-4,-0.003 0,-0.005 0.00106,-0.002 0.00425,-0.003 0.00499,-0.005 0.00106,-0.003 0,-0.007 0,-0.01 0,-0.002 -7.408e-4,-0.004 0,-0.005 0.00106,-0.002 0.00394,-0.003 0.00499,-0.005 7.409e-4,-0.001 -5.291e-4,-0.003 0,-0.005 0.00116,-0.004 0.00409,-0.006 0.00499,-0.01 0.00122,-0.005 0,-0.01 0,-0.015 0,-0.01 0,-0.02 0,-0.03 0,-0.015 0,-0.03 0,-0.0449 0,-0.003 6.615e-4,-0.0187 0,-0.02 -0.00106,-0.002 -0.00394,-0.003 -0.00499,-0.005 -0.00148,-0.003 0.00148,-0.007 0,-0.01 -0.00106,-0.002 -0.00394,-0.003 -0.00499,-0.005 -7.408e-4,-10e-4 7.409e-4,-0.004 0,-0.005 -0.00106,-0.002 -0.00394,-0.003 -0.00499,-0.005 -7.409e-4,-0.001 7.408e-4,-0.004 0,-0.005 -0.00212,-0.004 -0.00737,-0.006 -0.00999,-0.01 -0.00206,-0.003 -0.00235,-0.007 -0.00499,-0.01 -0.00116,-10e-4 -0.00382,0.001 -0.00499,0 -0.00262,-0.003 -0.00293,-0.007 -0.00499,-0.01 -0.0013,-0.002 -0.00333,-0.003 -0.00499,-0.005 -0.00499,-0.005 -0.00999,-0.01 -0.014975,-0.015 -0.00167,-0.002 -0.00369,-0.003 -0.00499,-0.005 -0.00206,-0.003 -0.00235,-0.007 -0.00499,-0.01 -0.00262,-0.003 -0.00689,-0.003 -0.00999,-0.005 -0.00587,-0.004 -0.00933,-0.0107 -0.014976,-0.015 -0.00298,-0.002 -0.00689,-0.003 -0.00999,-0.005 -0.00196,-10e-4 -0.00289,-0.004 -0.00499,-0.005 -0.00148,-7.4e-4 -0.00382,0.001 -0.00499,0 -0.00262,-0.003 -0.0019,-0.008 -0.00499,-0.01 -0.00277,-0.002 -0.00683,10e-4 -0.00999,0 -0.00447,-10e-4 -0.00577,-0.008 -0.00998,-0.01 -0.00148,-7.4e-4 -0.00333,0 -0.00499,0 -0.00333,0 -0.00683,10e-4 -0.00999,0 -0.00398,-0.001 -0.006,-0.009 -0.00999,-0.01 -0.00316,-0.001 -0.00676,8.1e-4 -0.00998,0 -0.00904,0.003 -0.00928,-0.008 -0.014976,-0.01 -0.00316,-0.001 -0.00676,8.1e-4 -0.00998,0 -0.00333,-0.002 -0.00666,-0.003 -0.00998,-0.005 0,-0.002 0.00149,-0.004 0,-0.005 -0.00998,-0.005 -0.00749,0.002 -0.014976,0 -0.019969,-0.007 0.00101,-0.005 -0.024961,-0.01 -0.00326,-6.6e-4 -0.00666,0 -0.00998,0 -0.018304,0 -0.036609,0 -0.054914,0 -0.018304,0 -0.036609,0 -0.054914,0 -0.00587,0 -0.02544,-10e-4 -0.029953,0 -0.00511,0.001 -0.00982,0.004 -0.014976,0.005 -0.00326,6.5e-4 -0.00666,0 -0.00998,0 -0.00832,0 -0.01664,0 -0.024961,0 -0.019969,0 -0.039937,0 -0.059906,0 -0.00418,0 -0.022839,-10e-4 -0.024961,0 -0.00149,7.4e-4 0.00118,0.004 0,0.005 -0.00118,0.001 -0.00338,-4e-4 -0.00499,0 -0.00511,0.001 -0.00987,0.004 -0.014976,0.005 -0.0046,0.001 -0.010491,-10e-4 -0.014976,0 -0.03616,0.0121 0.00787,-10e-4 -0.014976,0.01 -0.00399,0.002 -0.010983,-0.002 -0.014976,0 -0.00149,7.4e-4 0,0.003 0,0.005 -0.00333,0 -0.00683,-0.001 -0.00998,0 -0.00447,10e-4 -0.00577,0.008 -0.00998,0.01 -0.01394,0.007 0.00818,-0.0209 -0.014976,0.01 -0.00223,0.003 -0.00236,0.007 -0.00499,0.01 -0.00118,0.001 -0.00382,-10e-4 -0.00499,0 -0.00155,0.002 0.00155,0.0234 0,0.025 -0.00118,10e-4 -0.00382,-0.001 -0.00499,0 -0.00118,10e-4 0,0.003 0,0.005 0,0.008 0,0.0166 0,0.025 0,0.008 0,0.0166 0,0.025 0,0.002 -0.00118,0.004 0,0.005 0.00118,10e-4 0.00333,0 0.00499,0"
       id="path8540"
       inkscape:connector-curvature="0" />
    <path
       style="fill:none;fill-opacity:1;stroke:#ffffff;stroke-width:0.13229166;stroke-miterlimit:4;stroke-dasharray:none"
       d="m 0.41434747,295.33762 c 0.009984,0.002 0.0198927,0.004 0.0299528,0.005 0.004961,5.5e-4 0.009984,0 0.0149765,0 0.00832,0 0.0166404,0 0.0249608,0 0.0166404,0 0.0332809,0 0.0499214,0 0.0399371,0 0.0798742,0 0.11981132,0 0.0299529,0 0.0599057,0 0.0898585,0 0.00832,0 0.0166404,0 0.0249608,0 0.009984,0 0.0200096,-9e-4 0.0299528,0 0.00845,7.7e-4 0.0165611,0.004 0.0249608,0.005 0.003295,4.7e-4 0.006656,0 0.009984,0 0.008268,0 0.0416532,0 0.0499214,0 0.0432652,0 0.0865304,0 0.12979561,0 0.038273,0 0.076546,0 0.1148191,0 0.013312,0 0.026625,0 0.039937,0 0.00666,0 0.013442,-0.001 0.019969,0 0.028377,0.006 0.00266,0.006 0.024961,0.01 0.0049,9.8e-4 0.00998,0 0.014976,0 0.016641,0 0.033281,0 0.049921,0 0.068226,0 0.1364518,0 0.2046777,0 0.023297,0 0.046593,0 0.06989,0 0.00832,0 0.016641,0 0.024961,0 0.00333,0 0.00669,-4.7e-4 0.00998,0 0.0084,10e-4 0.016561,0.004 0.024961,0.005 0.00329,4.7e-4 0.00666,0 0.00998,0 0.011648,0.002 0.023315,0.003 0.034945,0.005 0.010004,0.002 0.019866,0.004 0.029953,0.005 0.023216,0.002 0.046617,-10e-4 0.06989,0 0.023332,0.001 0.046563,0.004 0.06989,0.005 0.019414,9.7e-4 0.05177,-10e-4 0.06989,0 0.010096,7.2e-4 0.019861,0.004 0.029953,0.005 0.011614,8.9e-4 0.023344,-10e-4 0.034945,0 0.00683,6.2e-4 0.013201,0.004 0.019969,0.005 0.00328,5.5e-4 0.00668,-4.1e-4 0.00998,0 0.082077,0.0103 -0.016651,-2.4e-4 0.054913,0.01 0.00329,4.7e-4 0.00668,-4.2e-4 0.00998,0 0.017558,-0.001 0.033122,0.008 0.049921,0.01 0.00494,7.1e-4 0.010015,-5.5e-4 0.014976,0 0.01006,10e-4 0.019909,0.004 0.029953,0.005 0.0033,4.3e-4 0.00701,-10e-4 0.00998,0 0.00421,0.002 0.00561,0.008 0.00998,0.01 0.00463,0.002 0.010081,-9.8e-4 0.014976,0 0.0073,0.001 0.012749,0.008 0.019969,0.01 0.00982,0.002 0.020133,0.003 0.029953,0.005 0.00361,9e-4 0.00632,0.004 0.00998,0.005 0.014825,0.003 0.030153,0.002 0.044929,0.005 0.00231,4.5e-4 0.00303,0.004 0.00499,0.005 0.0031,0.002 0.00666,0.003 0.00998,0.005 0.00333,0.002 0.00653,0.004 0.00998,0.005 0.010148,0.004 0.01618,0.004 0.024961,0.01 0.00196,10e-4 0.00289,0.004 0.00499,0.005 0.00471,0.002 0.01027,0.003 0.014976,0.005 0.00421,0.002 0.00577,0.008 0.00998,0.01 0.00149,7.4e-4 0.00382,-10e-4 0.00499,0 0.00118,0.001 -0.00118,0.004 0,0.005 0.00263,0.003 0.00735,0.002 0.00998,0.005 0.00263,0.003 0.00333,0.007 0.00499,0.01 0.00499,0.005 0.00946,0.0106 0.014976,0.015 0.00291,0.002 0.00679,0.003 0.00998,0.005 0.055201,0.0368 -0.013416,-0.008 0.024961,0.015 0.01029,0.006 0.020353,0.0128 0.029953,0.02 0.00188,0.001 0.00303,0.004 0.00499,0.005 0.039937,0.0266 -0.018304,-0.0183 0.014976,0.015 0.00118,10e-4 0.00341,-5.2e-4 0.00499,0 0.00697,0.002 0.020404,0.0116 0.024961,0.015 0.00188,10e-4 0.00303,0.004 0.00499,0.005 0.0031,0.002 0.00689,0.003 0.00998,0.005 0.00392,0.003 0.00666,0.007 0.00998,0.01 0.00166,0.002 0.00333,0.003 0.00499,0.005 0.00166,0.002 0.00394,0.003 0.00499,0.005 7.435e-4,0.001 -7.435e-4,0.004 0,0.005 0.00211,0.004 0.00737,0.006 0.00998,0.01 0.00206,0.003 0.00293,0.007 0.00499,0.01 0.0013,0.002 0.00394,0.003 0.00499,0.005 0.00157,0.003 -0.00157,0.0168 0,0.02 7.435e-4,0.001 0.00333,0 0.00499,0 0.00166,0.002 0.00425,0.003 0.00499,0.005 0.00158,0.005 0,0.01 0,0.015 0,0.015 0,0.0299 0,0.0449 0,0.0166 0,0.0333 0,0.0499 0,0.005 0.00223,0.0105 0,0.015 -7.435e-4,0.001 -0.00382,-10e-4 -0.00499,0 -0.00235,0.002 0.00149,0.007 0,0.01 -0.00105,0.002 -0.00394,0.003 -0.00499,0.005 -0.00149,0.003 0.00149,0.007 0,0.01 -0.00105,0.002 -0.00394,0.003 -0.00499,0.005 -7.435e-4,10e-4 7.434e-4,0.004 0,0.005 -0.00105,0.002 -0.00369,0.003 -0.00499,0.005 -6.191e-4,9.3e-4 -0.00966,0.0197 -0.00998,0.02 -0.00118,0.001 -0.00382,-10e-4 -0.00499,0 -0.00118,0.001 7.435e-4,0.004 0,0.005 -0.00105,0.002 -0.00394,0.003 -0.00499,0.005 -7.435e-4,10e-4 0.00118,0.004 0,0.005 -0.00263,0.003 -0.00735,0.002 -0.00998,0.005 -0.00118,10e-4 5.266e-4,0.003 0,0.005 -0.00118,0.004 -0.00236,0.007 -0.00499,0.01 -0.00263,0.003 -0.00735,0.002 -0.00998,0.005 -0.00118,10e-4 7.434e-4,0.004 0,0.005 -0.00268,0.005 -0.00638,0.0102 -0.00998,0.015 -0.00141,0.002 -0.00333,0.003 -0.00499,0.005 -0.00499,0.005 -0.00998,0.01 -0.014976,0.015 -0.00499,0.005 -0.00998,0.01 -0.014976,0.015 -0.00166,0.002 -0.00303,0.004 -0.00499,0.005 -0.0031,0.002 -0.00735,0.002 -0.00998,0.005 -0.00118,0.001 9.234e-4,0.004 0,0.005 -6.483e-4,9.8e-4 -0.024101,0.0245 -0.024961,0.025 -0.00298,10e-4 -0.00683,-0.001 -0.00998,0 -0.00223,7.4e-4 -0.00303,0.004 -0.00499,0.005 -0.0031,0.002 -0.00666,0.003 -0.00998,0.005 -0.00333,0.002 -0.00645,0.004 -0.00998,0.005 -0.00158,5.3e-4 -0.00382,-0.001 -0.00499,0 -0.012125,0.0121 0.00148,0.007 -0.00998,0.015 -0.00333,0.002 -0.00666,0.003 -0.00998,0.005 -0.00166,0 -0.0035,-7.4e-4 -0.00499,0 -0.022847,0.0114 0.021184,-0.002 -0.014976,0.01 -0.00428,0.001 -0.015564,-10e-4 -0.019969,0 -0.00361,9e-4 -0.00645,0.004 -0.00998,0.005 -0.00158,5.3e-4 -0.00338,-4e-4 -0.00499,0 -0.00511,0.001 -0.00987,0.004 -0.014976,0.005 -0.00161,4e-4 -0.00333,0 -0.00499,0 -0.00832,0 -0.01664,0 -0.024961,0 -0.014976,0 -0.029953,0 -0.044929,0 -0.00226,0 -0.028622,6.6e-4 -0.029953,0 -0.00421,-0.002 -0.00552,-0.009 -0.00998,-0.01 -0.00316,-10e-4 -0.00722,0.002 -0.00998,0 -0.0031,-0.002 -0.00236,-0.007 -0.00499,-0.01 -0.00118,-10e-4 -0.0035,7.4e-4 -0.00499,0 -0.00421,-0.002 -0.00577,-0.008 -0.00998,-0.01 -0.00149,-7.4e-4 -0.00382,10e-4 -0.00499,0 -0.00118,-10e-4 0.00118,-0.004 0,-0.005 -0.00118,-0.001 -0.00382,10e-4 -0.00499,0 -0.00118,-0.001 7.435e-4,-0.003 0,-0.005 -0.00105,-0.002 -0.00394,-0.003 -0.00499,-0.005 -7.435e-4,-0.001 0.00118,-0.004 0,-0.005 -0.00666,-0.007 -0.00479,0.0106 -0.00998,-0.005 -0.00105,-0.003 0.00149,-0.007 0,-0.01 -7.435e-4,-10e-4 -0.00425,0.001 -0.00499,0 -0.00149,-0.003 0.00105,-0.007 0,-0.01 -7.435e-4,-0.002 -0.00394,-0.003 -0.00499,-0.005 -7.435e-4,-10e-4 7.434e-4,-0.004 0,-0.005 -0.00105,-0.002 -0.00394,-0.003 -0.00499,-0.005 -7.435e-4,-10e-4 7.435e-4,-0.004 0,-0.005 -0.00105,-0.002 -0.00425,-0.003 -0.00499,-0.005 -7.5e-6,-2e-5 4.8e-6,-0.015 0,-0.015 -0.00118,-0.001 -0.00382,10e-4 -0.00499,0 -0.00118,-0.001 0.00118,-0.004 0,-0.005 -0.00118,-0.001 -0.00382,10e-4 -0.00499,0 -0.00118,-0.001 0,-0.003 0,-0.005 0,-0.002 0,-0.003 0,-0.005 0,-0.0133 0.00166,0.002 -0.00499,-0.005 -0.00118,-10e-4 0.00118,-0.004 0,-0.005 -0.00118,-10e-4 -0.00333,0 -0.00499,0 -0.00166,0 -0.00333,0 -0.00499,0"
       id="path8542"
       inkscape:connector-curvature="0" />
  </g>
</svg>
