<?xml version="1.0" encoding="UTF-8" standalone="no"?>
<!-- Created with Inkscape (http://www.inkscape.org/) -->

<svg
   xmlns:dc="http://purl.org/dc/elements/1.1/"
   xmlns:cc="http://creativecommons.org/ns#"
   xmlns:rdf="http://www.w3.org/1999/02/22-rdf-syntax-ns#"
   xmlns:svg="http://www.w3.org/2000/svg"
   xmlns="http://www.w3.org/2000/svg"
   xmlns:sodipodi="http://sodipodi.sourceforge.net/DTD/sodipodi-0.dtd"
   xmlns:inkscape="http://www.inkscape.org/namespaces/inkscape"
   width="16"
   height="16"
   viewBox="0 0 4.2333333 4.2333333"
   version="1.1"
   id="svg7979"
   inkscape:version="0.92.1 r15371"
   sodipodi:docname="Earth.svg"
   inkscape:export-filename="C:\Unity\Gods Fate\Assets\Graphics\Icons\Earth.png"
   inkscape:export-xdpi="96"
   inkscape:export-ydpi="96">
  <defs
     id="defs7973" />
  <sodipodi:namedview
     id="base"
     pagecolor="#ffffff"
     bordercolor="#666666"
     borderopacity="1.0"
     inkscape:pageopacity="0.0"
     inkscape:pageshadow="2"
     inkscape:zoom="53"
     inkscape:cx="7.9056604"
     inkscape:cy="8.2082162"
     inkscape:document-units="mm"
     inkscape:current-layer="layer1"
     showgrid="false"
     units="px"
     inkscape:window-width="1920"
     inkscape:window-height="1017"
     inkscape:window-x="-8"
     inkscape:window-y="-8"
     inkscape:window-maximized="1" />
  <metadata
     id="metadata7976">
    <rdf:RDF>
      <cc:Work
         rdf:about="">
        <dc:format>image/svg+xml</dc:format>
        <dc:type
           rdf:resource="http://purl.org/dc/dcmitype/StillImage" />
        <dc:title></dc:title>
      </cc:Work>
    </rdf:RDF>
  </metadata>
  <g
     inkscape:label="Calque 1"
     inkscape:groupmode="layer"
     id="layer1"
     transform="translate(0,-292.76667)">
    <ellipse
       style="fill:#000000;fill-opacity:1;stroke:none;stroke-width:0.12975544;stroke-miterlimit:4;stroke-dasharray:none"
       id="path8532"
       cx="2.1241548"
       cy="294.87585"
       rx="2.1091783"
       ry="2.1041863" />
    <path
       style="fill:none;fill-opacity:1;stroke:#ffffff;stroke-width:0.13229166;stroke-miterlimit:4;stroke-dasharray:none"
       d="m 0.7288522,295.90673 c 0.001664,-0.008 0.001545,-0.0172 0.004992,-0.025 3.2279e-4,-7.1e-4 0.0292509,-0.0387 0.0299528,-0.0399 0.002611,-0.005 0.003716,-0.01 0.004992,-0.015 0.003721,-0.0149 0.004175,-0.0307 0.009984,-0.0449 0.009303,-0.0227 0.0249664,-0.0424 0.034945,-0.0649 0.0931192,-0.20951 -0.0289292,0.0474 0.0399371,-0.1248 0.00309,-0.008 0.009836,-0.0134 0.0149765,-0.02 0.0175453,-0.0223 0.0523624,-0.0612 0.0648978,-0.0899 0.0055,-0.0126 0.006215,-0.0267 0.009984,-0.0399 0.002891,-0.0101 0.006206,-0.0201 0.009984,-0.03 0.004549,-0.0118 0.0101023,-0.0232 0.0149765,-0.0349 0.003447,-0.008 0.005693,-0.0171 0.009984,-0.025 0.005746,-0.0105 0.0157551,-0.0187 0.0199686,-0.0299 0.005959,-0.0159 0.002395,-0.0348 0.009984,-0.0499 0.013673,-0.0273 0.05171,-0.0384 0.06989,-0.0599 0.018401,-0.0217 0.020161,-0.0733 0.024961,-0.0949 0.00228,-0.0103 0.00689,-0.0199 0.00998,-0.03 0.00356,-0.0116 0.00532,-0.0238 0.00998,-0.0349 0.00373,-0.009 0.010637,-0.0163 0.014976,-0.025 0.00733,-0.0147 0.013729,-0.0298 0.019969,-0.0449 0.00541,-0.0131 0.00862,-0.0272 0.014976,-0.0399 0.00211,-0.004 0.00716,-0.006 0.00998,-0.01 0.00223,-0.003 0.00333,-0.007 0.00499,-0.01 0.00499,-0.01 0.00963,-0.0202 0.014976,-0.0299 0.00465,-0.009 0.00977,-0.0168 0.014976,-0.025 0.00644,-0.0101 0.014354,-0.0193 0.019969,-0.0299 0.00941,-0.0178 0.01357,-0.0384 0.024961,-0.0549 0.056248,-0.0818 0.00696,0.051 0.054912,-0.0749 0.030923,-0.0812 -0.00105,-0.0296 0.029953,-0.11482 0.00636,-0.0175 0.020013,-0.032 0.024961,-0.0499 0.00851,-0.0309 0.00721,-0.0638 0.014976,-0.0949 0.00848,-0.0339 0.048489,-0.0889 0.059906,-0.11482 0.037879,-0.0861 -0.00879,-0.0243 0.034945,-0.0998 0.010177,-0.0176 0.024646,-0.0324 0.034945,-0.0499 0.00643,-0.0109 0.00931,-0.0236 0.014976,-0.0349 0.00434,-0.009 0.010162,-0.0165 0.014976,-0.025 0.024242,-0.0424 0.023525,-0.0453 0.049921,-0.0849 0.00462,-0.007 0.010205,-0.0132 0.014976,-0.02 0.011931,-0.017 0.035516,-0.0538 0.044929,-0.0699 0.00375,-0.006 0.00666,-0.0133 0.00998,-0.02 0.00166,-0.003 0.00267,-0.007 0.00499,-0.01 0.00441,-0.006 0.011474,-0.009 0.014976,-0.015 0.0034,-0.006 6.006e-4,-0.0147 0.00499,-0.02 0.00476,-0.006 0.014706,-0.005 0.019969,-0.01 0.00372,-0.004 0.00229,-0.0105 0.00499,-0.015 0.00242,-0.004 0.00716,-0.006 0.00998,-0.01 0.00223,-0.003 0.00236,-0.007 0.00499,-0.01 0.00263,-0.003 0.00775,-0.002 0.00998,-0.005 0.00316,-0.004 0.0017,-0.0109 0.00499,-0.015 0.00375,-0.005 0.010177,-0.006 0.014976,-0.01 0.015292,-0.0115 -0.00819,0.003 0.00998,-0.015 0.00263,-0.003 0.00735,-0.002 0.00998,-0.005 0.00263,-0.003 0.00236,-0.007 0.00499,-0.01 0.012125,-0.0121 0.00733,0.001 0.014976,-0.01 0.00206,-0.003 0.00202,-0.008 0.00499,-0.01 0.00421,-0.003 0.011819,-7.8e-4 0.014976,-0.005 0.003,-0.004 -0.00223,-0.0105 0,-0.015 0.00166,-0.003 0.00689,-0.003 0.00998,-0.005 0.00266,-0.002 0.012977,-0.0123 0.014976,-0.015 0.00234,-0.003 0.00925,-0.0161 0.014976,-0.02 0.0031,-0.002 0.00735,-0.002 0.00998,-0.005 0.00118,-0.001 -9.234e-4,-0.004 0,-0.005 0.00261,-0.004 0.00666,-0.007 0.00998,-0.01 0.00166,-0.002 0.00394,-0.003 0.00499,-0.005 7.435e-4,-10e-4 -7.435e-4,-0.004 0,-0.005 0.00105,-0.002 0.00394,-0.003 0.00499,-0.005 7.435e-4,-10e-4 -0.00118,-0.004 0,-0.005 0.00118,-10e-4 0.00382,0.001 0.00499,0 0.00263,-0.003 0.00293,-0.007 0.00499,-0.01 0.0013,-0.002 0.00369,-0.003 0.00499,-0.005 0.00206,-0.003 0.00293,-0.007 0.00499,-0.01 9.657e-4,-0.001 0.00981,-0.009 0.00998,-0.01 0.00121,-0.005 0,-0.01 0,-0.015 0,-0.002 -7.434e-4,-0.004 0,-0.005 0.00316,-0.006 0.011819,-0.009 0.014976,-0.015 0.00298,-0.006 -0.00211,-0.0136 0,-0.02 0.00149,-0.004 0.00788,-0.006 0.00998,-0.01 7.435e-4,-0.001 -7.434e-4,-0.004 0,-0.005 0.00105,-0.002 0.00412,-0.003 0.00499,-0.005 0.00255,-0.006 0.00365,-0.0132 0.00499,-0.02 3.254e-4,-0.002 -7.435e-4,-0.004 0,-0.005 0.011424,-0.0228 -0.00207,0.0212 0.00998,-0.015 0.00105,-0.003 -0.00105,-0.007 0,-0.01 0.012053,-0.0362 -0.00144,0.008 0.00998,-0.015 0.00615,-0.0123 -0.014491,0.005 0.00499,-0.015 0.00118,-10e-4 0.00425,0.001 0.00499,0 0.00161,-0.003 -0.00179,-0.0182 0,-0.02 0.00118,-0.001 0.00382,10e-4 0.00499,0 0.00235,-0.002 -0.00149,-0.007 0,-0.01 0.00105,-0.002 0.00394,-0.003 0.00499,-0.005 7.435e-4,-0.001 -0.00118,-0.004 0,-0.005 0.00118,-0.001 0.00382,10e-4 0.00499,0 0.0025,-0.002 -0.00249,-0.0125 0,-0.015 0.00118,-10e-4 0.00382,0.001 0.00499,0 0.00102,-10e-4 -9.895e-4,-0.013 0,-0.015 0.00105,-0.002 0.00333,-0.003 0.00499,-0.005 0.00166,-0.002 0.00289,-0.004 0.00499,-0.005 0.00149,-7.5e-4 0.00382,10e-4 0.00499,0 0.00118,-0.001 0,-0.003 0,-0.005 0,-0.0117 -0.00118,0.002 0.00499,-0.01 7.435e-4,-0.001 0,-0.003 0,-0.005 0,-0.002 0,-0.003 0,-0.005 0,-0.002 -0.00118,-0.004 0,-0.005 0.00118,-10e-4 0.00499,-0.002 0.00499,0 0,0.002 -0.00333,0 -0.00499,0 0.041756,0.0992 -0.00868,-0.0297 0.020095,0.0758 0.00158,0.006 0.00853,0.009 0.00998,0.015 0.00202,0.008 -0.00149,0.0168 0,0.025 0.00188,0.0104 0.00709,0.0198 0.00998,0.03 0.0071,0.0248 0.012447,0.0502 0.019969,0.0749 0.020235,0.0665 0.016157,0.0206 0.039937,0.10983 0.00501,0.0188 0.018859,0.11537 0.029953,0.13978 0.00841,0.0185 0.025861,0.0317 0.034945,0.0499 0.012717,0.0254 0.019392,0.0535 0.029953,0.0799 0.00609,0.0152 0.015582,0.0291 0.019969,0.0449 0.00403,0.0145 0.00222,0.0301 0.00499,0.0449 0.00223,0.0119 0.00705,0.0232 0.00998,0.0349 0.00206,0.008 0.00333,0.0166 0.00499,0.025 0.00166,0.008 0.0036,0.0166 0.00499,0.025 0.00193,0.0116 0.00214,0.0235 0.00499,0.0349 0.00217,0.009 0.00752,0.0163 0.00998,0.025 0.00421,0.0147 0.00558,0.0302 0.00998,0.0449 0.0056,0.0187 0.015052,0.0361 0.019969,0.0549 0.0353,0.13532 -0.02646,-0.0283 0.034945,0.14977 0.00655,0.019 0.016493,0.0367 0.024961,0.0549 0.013166,0.0284 0.025475,0.0571 0.039937,0.0849 0.00555,0.0106 0.015755,0.0187 0.019969,0.0299 0.00596,0.0159 0.00272,0.0346 0.00998,0.0499 0.00812,0.0172 0.025439,0.0285 0.034945,0.0449 0.043003,0.10751 -0.0046,-4e-5 0.044929,0.0849 0.00452,0.008 0.00415,0.0182 0.00998,0.025 0.00484,0.006 0.015204,0.004 0.019969,0.01 0.00439,0.005 0.00192,0.0138 0.00499,0.02 0.00372,0.007 0.011255,0.0125 0.014976,0.02 0.041604,0.0832 -0.027411,-0.0294 0.024961,0.0649 0.00229,0.004 0.00716,0.006 0.00998,0.01 0.0072,0.01 0.013087,0.0201 0.019969,0.03 0.00477,0.007 0.010361,0.013 0.014976,0.02 0.00206,0.003 0.00276,0.007 0.00499,0.01 0.00282,0.004 0.00807,0.006 0.00998,0.01 0.00492,0.0111 0.00615,0.0235 0.00998,0.035 0.00676,0.0203 0.00279,-3.5e-4 0.014976,0.02 0.00271,0.005 0.00372,0.01 0.00499,0.015 0.00372,0.0149 0.00264,0.0315 0.00998,0.0449 0.00356,0.007 0.015733,0.004 0.019969,0.01 0.045426,0.0218 0.012076,0.07 0.029953,0.0998 0.00856,0.0143 0.030897,0.016 0.039937,0.0299 0.010307,0.0159 0.00831,0.0372 0.014976,0.0549 0.00341,0.009 0.010637,0.0163 0.014976,0.025 0.00733,0.0147 0.013101,0.03 0.019969,0.0449 0.00312,0.007 0.00712,0.0131 0.00998,0.02 0.00547,0.0131 0.010194,0.0265 0.014976,0.0399 0.00354,0.01 0.00395,0.0213 0.00998,0.0299 0.00611,0.009 0.017426,0.0124 0.024961,0.02 0.00588,0.006 0.00998,0.0133 0.014976,0.02 0.011648,0.0116 0.022633,0.024 0.034945,0.0349 0.00278,0.002 0.00679,0.003 0.00998,0.005 0.00514,0.003 0.010367,0.006 0.014976,0.01 0.017306,0.0144 0.014928,0.0169 0.029953,0.0349 0.00716,0.009 0.017047,0.017 0.024961,0.025 0.00333,0.003 0.00666,0.007 0.00998,0.01 0.00166,0.002 0.00378,0.003 0.00499,0.005 0.00383,0.006 0.00534,0.0142 0.00998,0.02 0.00232,0.003 0.00735,0.002 0.00998,0.005 0.00263,0.003 0.00236,0.007 0.00499,0.01 0.00608,0.006 0.011153,0.002 0.014976,0.01 7.32e-4,0.001 0.00953,0.0293 0.00998,0.03 0.00223,0.003 0.00708,0.003 0.00998,0.005 0.00182,0.001 0.032262,0.0309 0.034945,0.0349 9.23e-4,0.001 -0.00118,0.004 0,0.005 0.00118,0.001 0.00382,-0.001 0.00499,0 0.00118,0.001 -7.442e-4,0.003 0,0.005 0.00105,0.002 0.00369,0.003 0.00499,0.005 0.00206,0.003 0.00293,0.007 0.00499,0.01 0.00131,0.002 0.00358,0.003 0.00499,0.005 0.0036,0.005 0.00638,0.0102 0.00998,0.015 0.00141,0.002 0.00333,0.003 0.00499,0.005 0.00333,0.003 0.00607,0.007 0.00998,0.01 0.00138,9.2e-4 0.00382,-0.001 0.00499,0 0.00118,0.001 -0.00118,0.004 0,0.005 0.00235,0.002 0.00763,-0.002 0.00998,0 0.00118,0.001 0,0.003 0,0.005 0.00166,0 0.00382,-0.001 0.00499,0 0.00235,0.002 -0.00235,0.008 0,0.01 0.00263,0.003 0.00735,0.002 0.00998,0.005 0.00118,0.001 -0.00118,0.004 0,0.005 0.00118,0.001 0.00499,-0.002 0.00499,0 0,0.002 -0.00333,0 -0.00499,0"
       id="path9097"
       inkscape:connector-curvature="0" />
    <path
       style="fill:none;fill-opacity:1;stroke:#ffffff;stroke-width:0.13229166;stroke-miterlimit:4;stroke-dasharray:none"
       d="m 1.552555,294.13951 c 0.00499,0.008 0.00998,0.0166 0.014977,0.025 0,0.002 -6.191e-4,0.003 0,0.005 0.00276,0.007 0.00722,0.0131 0.00998,0.02 6.191e-4,0.002 -5.265e-4,0.003 0,0.005 0.00118,0.004 0.00382,0.006 0.00499,0.01 5.265e-4,0.002 -5.266e-4,0.003 0,0.005 0.00118,0.004 0.00382,0.006 0.00499,0.01 0.00441,0.0132 -0.014464,-0.006 0.00499,0.02 0.00223,0.003 0.00735,0.002 0.00998,0.005 0.00118,0.001 -5.265e-4,0.003 0,0.005 0.00118,0.004 0.00382,0.006 0.00499,0.01 5.266e-4,0.002 -7.434e-4,0.003 0,0.005 0.00105,0.002 0.00394,0.003 0.00499,0.005 0.00149,0.003 -0.00105,0.007 0,0.01 0.012053,0.0362 -0.00144,-0.008 0.00998,0.015 0.00149,0.003 -0.00149,0.007 0,0.01 0.00105,0.002 0.00394,0.003 0.00499,0.005 7.593e-4,0.002 0,0.0127 0,0.015 0,0.0116 0,0.0233 0,0.0349 0,0.003 -0.00106,0.0307 0,0.035 9.022e-4,0.004 0.00382,0.006 0.00499,0.01 0.00105,0.003 0,0.007 0,0.01 0.018819,7e-4 0.018161,-0.0224 0.02998,-0.0303 0.0031,-0.002 0.00735,-0.002 0.00998,-0.005 0.00263,-0.003 0.00236,-0.007 0.00499,-0.01 0.00263,-0.003 0.00735,-0.002 0.00998,-0.005 0.00263,-0.003 0.00236,-0.007 0.00499,-0.01 0.00118,-10e-4 0.00425,0.001 0.00499,0 0.00149,-0.003 -0.00185,-0.007 0,-0.01 0.00206,-0.003 0.00735,-0.002 0.00998,-0.005 0.00118,-0.001 -5.262e-4,-0.003 0,-0.005 0.00118,-0.004 0.00236,-0.007 0.00499,-0.01 0.00118,-0.001 0.00382,10e-4 0.00499,0 0.00344,-0.003 0.00933,-0.0224 0.00998,-0.025 4.036e-4,-0.002 -0.00118,-0.004 0,-0.005 0.00263,-0.003 0.00775,-0.002 0.00998,-0.005 0.00316,-0.004 0.00264,-0.0103 0.00499,-0.015 0.011424,-0.0229 -0.00207,0.0212 0.00998,-0.015 5.262e-4,-0.002 -0.00118,-0.004 0,-0.005 0.00263,-0.003 0.00735,-0.002 0.00998,-0.005 0.00118,-10e-4 -0.00118,-0.004 0,-0.005 0.00263,-0.003 0.00689,-0.003 0.00998,-0.005 0.00196,-10e-4 0.00333,-0.003 0.00499,-0.005 0.00166,-0.002 0.00394,-0.003 0.00499,-0.005 7.442e-4,-10e-4 -7.442e-4,-0.004 0,-0.005 0.00105,-0.002 0.00394,-0.003 0.00499,-0.005 7.442e-4,-10e-4 -0.00118,-0.004 0,-0.005 0.00118,-0.001 0.0035,7.4e-4 0.00499,0 0.020776,-0.0104 -0.00534,3.4e-4 0.00499,-0.01 0.00118,-0.001 0.00382,10e-4 0.00499,0 0.00118,-0.001 -7.441e-4,-0.004 0,-0.005 0.00105,-0.002 0.00333,-0.003 0.00499,-0.005 0.01207,0.0145 0.01415,0.035 0.025023,0.0502 0.0041,0.006 0.010457,0.01 0.014976,0.015 0.00384,0.005 0.00788,0.009 0.00998,0.015 0.00298,0.008 0.00333,0.0166 0.00499,0.025 0.00421,0.021 0.00317,0.0272 0.014976,0.0449 0.00261,0.004 0.00666,0.007 0.00998,0.01 0.00401,0.004 0.022077,0.0206 0.024961,0.025 9.23e-4,10e-4 0,0.003 0,0.005 0.00166,0.005 0.00183,0.0108 0.00499,0.015 0.00223,0.003 0.00792,0.002 0.00998,0.005 0.00185,0.003 -0.00149,0.007 0,0.01 0.0021,0.004 0.00716,0.006 0.00998,0.01 0.00223,0.003 0.00293,0.007 0.00499,0.01 -4.983e-4,0.01 0.00735,0.002 0.00998,0.005 0.00263,0.003 0.00293,0.007 0.00499,0.01 0.00261,0.004 0.00788,0.006 0.00998,0.01 7.442e-4,0.001 -0.00118,0.004 0,0.005 0.00666,0.007 0.00499,-0.008 0.00499,0.005 -9.331e-4,-0.019 0.022123,-0.0184 0.029989,-0.0302 0.00206,-0.003 0.00236,-0.007 0.00499,-0.01 0.00263,-0.003 0.00735,-0.002 0.00998,-0.005 0.00118,-0.001 -7.442e-4,-0.003 0,-0.005 0.00105,-0.002 0.00333,-0.003 0.00499,-0.005 0.00166,-0.002 0.00333,-0.003 0.00499,-0.005 0.0039,-0.004 0.010669,-0.0121 0.014976,-0.015 0.0031,-0.002 0.00735,-0.002 0.00998,-0.005 0.00263,-0.003 0.00236,-0.007 0.00499,-0.01 0.00118,-0.001 0.00382,0.001 0.00499,0 0.00263,-0.003 0.00293,-0.007 0.00499,-0.01 0.00765,-0.0115 0.00285,0.002 0.014976,-0.01 0.00263,-0.003 0.00202,-0.008 0.00499,-0.01 0.0078,-0.006 0.017842,-0.003 0.024961,-0.01 0.00263,-0.003 0.00236,-0.007 0.00499,-0.01 0.00118,-0.001 0.0035,7.4e-4 0.00499,0 0.0021,-0.001 0.00333,-0.003 0.00499,-0.005 0.00333,-0.003 0.00737,-0.006 0.00998,-0.01 9.231e-4,-0.001 -5.262e-4,-0.003 0,-0.005 0.012053,-0.0362 -0.00144,0.008 0.00998,-0.015 7.442e-4,-0.001 -7.442e-4,-0.004 0,-0.005 0.00105,-0.002 0.00394,-0.003 0.00499,-0.005 7.442e-4,-0.001 -7.441e-4,-0.004 0,-0.005 0.0046,-0.009 0.010381,-8e-4 0.014976,-0.01 7.441e-4,-0.001 -9.231e-4,-0.004 0,-0.005 0.00261,-0.004 0.00716,-0.006 0.00998,-0.01 0.00223,-0.003 0.00236,-0.007 0.00499,-0.01 0.00118,-0.001 0.00382,0.001 0.00499,0 0.00118,-0.001 -7.442e-4,-0.004 0,-0.005 0.00105,-0.002 0.00394,-0.003 0.00499,-0.005 0.00149,-0.003 -0.00235,-0.008 0,-0.01 0.00118,-0.001 0.00382,0.001 0.00499,0 0.00118,-0.001 -0.00118,-0.004 0,-0.005 0.00118,-0.001 0.00382,0.001 0.00499,0 1.606e-4,-1.6e-4 0,-0.0138 0,-0.015"
       id="path9099"
       inkscape:connector-curvature="0" />
  </g>
</svg>
