<?xml version="1.0" encoding="UTF-8" standalone="no"?>
<!-- Created with Inkscape (http://www.inkscape.org/) -->

<svg
   xmlns:dc="http://purl.org/dc/elements/1.1/"
   xmlns:cc="http://creativecommons.org/ns#"
   xmlns:rdf="http://www.w3.org/1999/02/22-rdf-syntax-ns#"
   xmlns:svg="http://www.w3.org/2000/svg"
   xmlns="http://www.w3.org/2000/svg"
   xmlns:sodipodi="http://sodipodi.sourceforge.net/DTD/sodipodi-0.dtd"
   xmlns:inkscape="http://www.inkscape.org/namespaces/inkscape"
   width="16"
   height="16"
   viewBox="0 0 4.2333333 4.2333333"
   version="1.1"
   id="svg7979"
   inkscape:version="0.92.1 r15371"
   sodipodi:docname="Fire.svg"
   inkscape:export-filename="C:\Unity\Gods Fate\Assets\Graphics\Icons\Fire.png"
   inkscape:export-xdpi="96"
   inkscape:export-ydpi="96">
  <defs
     id="defs7973" />
  <sodipodi:namedview
     id="base"
     pagecolor="#ffffff"
     bordercolor="#666666"
     borderopacity="1.0"
     inkscape:pageopacity="0.0"
     inkscape:pageshadow="2"
     inkscape:zoom="53"
     inkscape:cx="7.9056604"
     inkscape:cy="8.2082162"
     inkscape:document-units="mm"
     inkscape:current-layer="layer1"
     showgrid="false"
     units="px"
     inkscape:window-width="1920"
     inkscape:window-height="1017"
     inkscape:window-x="-8"
     inkscape:window-y="-8"
     inkscape:window-maximized="1" />
  <metadata
     id="metadata7976">
    <rdf:RDF>
      <cc:Work
         rdf:about="">
        <dc:format>image/svg+xml</dc:format>
        <dc:type
           rdf:resource="http://purl.org/dc/dcmitype/StillImage" />
        <dc:title></dc:title>
      </cc:Work>
    </rdf:RDF>
  </metadata>
  <g
     inkscape:label="Calque 1"
     inkscape:groupmode="layer"
     id="layer1"
     transform="translate(0,-292.76667)">
    <ellipse
       style="fill:#000000;fill-opacity:1;stroke:none;stroke-width:0.12975544;stroke-miterlimit:4;stroke-dasharray:none"
       id="path8532"
       cx="2.1241548"
       cy="294.87585"
       rx="2.1091783"
       ry="2.1041863" />
    <path
       style="fill:none;fill-opacity:1;stroke:#ffffff;stroke-width:0.13229166;stroke-miterlimit:4;stroke-dasharray:none"
       d="m 1.9868711,296.06647 c -0.004,-0.021 -0.017371,-10e-4 -0.024961,-0.005 -0.00211,-10e-4 -0.00289,-0.004 -0.00499,-0.005 -0.00298,-10e-4 -0.00763,0.002 -0.00998,0 -0.00118,-10e-4 0.00118,-0.004 0,-0.005 -0.010329,-0.0103 4.048e-4,0.0158 -0.00998,-0.005 -7.435e-4,-10e-4 0.00118,-0.004 0,-0.005 -0.019483,-0.0195 -0.00268,10e-4 -0.014977,-0.005 -0.00211,-0.001 -0.00333,-0.003 -0.00499,-0.005 0,-0.002 0.00149,-0.004 0,-0.005 -0.00298,-0.001 -0.00701,10e-4 -0.00998,0 -0.00149,-7.4e-4 7.435e-4,-0.003 0,-0.005 -0.00105,-0.002 -0.00333,-0.003 -0.00499,-0.005 -0.00166,-0.002 -0.00289,-0.004 -0.00499,-0.005 -0.00149,-7.4e-4 -0.0035,7.4e-4 -0.00499,0 -0.00421,-0.002 -0.00577,-0.008 -0.00998,-0.01 -0.00298,-10e-4 -0.00763,0.002 -0.00998,0 -0.00118,-10e-4 0.00118,-0.004 0,-0.005 -0.00263,-0.003 -0.00666,-0.003 -0.00998,-0.005 -0.00333,-0.002 -0.00653,-0.004 -0.00998,-0.005 -0.00489,-0.002 -0.01027,-0.003 -0.014977,-0.005 -0.00211,-10e-4 -0.00303,-0.004 -0.00499,-0.005 -0.0031,-0.002 -0.00689,-0.003 -0.00998,-0.005 -0.00196,-0.001 -0.00289,-0.004 -0.00499,-0.005 -0.00531,-0.003 -0.00467,0.003 -0.00998,0 -0.00421,-0.002 -0.00577,-0.008 -0.00998,-0.01 -0.00149,-7.4e-4 -0.00382,10e-4 -0.00499,0 -0.00118,-0.001 0.00118,-0.004 0,-0.005 -0.00118,-10e-4 -0.0035,7.4e-4 -0.00499,0 -0.00211,-10e-4 -0.00303,-0.004 -0.00499,-0.005 -0.0031,-0.002 -0.00689,-0.003 -0.00998,-0.005 -0.00196,-10e-4 -0.00289,-0.004 -0.00499,-0.005 -0.00149,-7.4e-4 -0.00382,0.001 -0.00499,0 -0.00118,-10e-4 0.00118,-0.004 0,-0.005 -0.00263,-0.003 -0.00689,-0.003 -0.00998,-0.005 -0.00454,-0.003 -0.010552,-0.0128 -0.014976,-0.015 -0.00149,-7.4e-4 -0.00333,0 -0.00499,0 -0.00333,-0.003 -0.00622,-0.007 -0.00998,-0.01 -0.00298,-0.002 -0.00792,-0.002 -0.00998,-0.005 -0.00185,-0.003 0.00185,-0.007 0,-0.01 -0.00206,-0.003 -0.00735,-0.002 -0.00998,-0.005 -0.00263,-0.003 -0.00236,-0.007 -0.00499,-0.01 -0.00263,-0.003 -0.00735,-0.002 -0.00998,-0.005 -0.00118,-10e-4 0.00149,-0.004 0,-0.005 -0.00298,-10e-4 -0.00722,0.002 -0.00998,0 -0.0031,-0.002 -0.00236,-0.007 -0.00499,-0.01 -0.00263,-0.003 -0.00735,-0.002 -0.00998,-0.005 -0.00263,-0.003 -0.00236,-0.007 -0.00499,-0.01 -0.00118,-0.001 -0.00382,10e-4 -0.00499,0 -0.00263,-0.003 -0.00293,-0.007 -0.00499,-0.01 -0.0013,-0.002 -0.00333,-0.003 -0.00499,-0.005 -0.00333,-0.003 -0.00607,-0.007 -0.00998,-0.01 -0.0031,-0.002 -0.00735,-0.002 -0.00998,-0.005 -0.00118,-10e-4 0.00118,-0.004 0,-0.005 -0.00263,-0.003 -0.00735,-0.002 -0.00998,-0.005 -0.00263,-0.003 -0.00236,-0.007 -0.00499,-0.01 -0.00118,-0.001 -0.00382,10e-4 -0.00499,0 -0.00263,-0.003 -0.00236,-0.007 -0.00499,-0.01 -0.00118,-0.001 -0.00382,10e-4 -0.00499,0 -0.00263,-0.003 -0.00293,-0.007 -0.00499,-0.01 -0.0013,-0.002 -0.00369,-0.003 -0.00499,-0.005 -0.00206,-0.003 -0.00236,-0.007 -0.00499,-0.01 -0.00118,-10e-4 -0.00382,0.001 -0.00499,0 -0.00118,-10e-4 7.435e-4,-0.004 0,-0.005 -0.00105,-0.002 -0.00333,-0.003 -0.00499,-0.005 -0.00166,-0.002 -0.00303,-0.004 -0.00499,-0.005 -0.0031,-0.002 -0.00735,-0.002 -0.00998,-0.005 -0.00118,-10e-4 0.00118,-0.004 0,-0.005 -0.00118,-0.001 -0.00425,10e-4 -0.00499,0 -0.00149,-0.003 0.00149,-0.007 0,-0.01 -7.435e-4,-0.001 -0.00382,10e-4 -0.00499,0 -0.00118,-0.001 7.435e-4,-0.003 0,-0.005 -0.00211,-0.004 -0.00788,-0.006 -0.00998,-0.01 -8.917e-4,-0.002 0.00154,-0.0142 0,-0.015 -0.00298,-10e-4 -0.00763,0.002 -0.00998,0 -0.00235,-0.002 0.00149,-0.007 0,-0.01 -7.435e-4,-10e-4 -0.00425,0.001 -0.00499,0 -0.00149,-0.003 0.00149,-0.007 0,-0.01 -7.435e-4,-10e-4 -0.00382,10e-4 -0.00499,0 -0.00118,-10e-4 7.435e-4,-0.003 0,-0.005 -0.00105,-0.002 -0.00394,-0.003 -0.00499,-0.005 -0.00149,-0.003 0.00235,-0.008 0,-0.01 -0.00118,-0.001 -0.00382,10e-4 -0.00499,0 -0.00235,-0.002 0.00149,-0.007 0,-0.01 -0.011424,-0.0229 0.00207,0.0212 -0.00998,-0.015 -5.265e-4,-0.002 7.435e-4,-0.003 0,-0.005 -0.010388,-0.0208 3.44e-4,0.005 -0.00998,-0.005 -0.00249,-0.002 0.0025,-0.0125 0,-0.015 -0.00118,-0.001 -0.00382,10e-4 -0.00499,0 -0.00235,-0.002 0.00149,-0.007 0,-0.01 -0.011424,-0.0229 0.00207,0.0212 -0.00998,-0.015 -0.00115,-0.003 0.00147,-0.012 0,-0.015 -0.00105,-0.002 -0.00394,-0.003 -0.00499,-0.005 -5.583e-4,-10e-4 0,-0.0188 0,-0.02 0,-0.003 7.593e-4,-0.0185 0,-0.02 -0.00105,-0.002 -0.00394,-0.003 -0.00499,-0.005 -7.435e-4,-10e-4 5.265e-4,-0.003 0,-0.005 -0.00118,-0.004 -0.00382,-0.006 -0.00499,-0.01 -0.00155,-0.005 0.00154,-0.0204 0,-0.025 -7.434e-4,-0.002 -0.00394,-0.003 -0.00499,-0.005 -7.435e-4,-0.001 5.265e-4,-0.003 0,-0.005 -0.00118,-0.004 -0.00382,-0.006 -0.00499,-0.01 -0.0015,-0.005 0.0015,-0.0105 0,-0.015 -0.00118,-0.004 -0.00382,-0.006 -0.00499,-0.01 -5.265e-4,-0.002 0,-0.003 0,-0.005 0,-0.003 0,-0.007 0,-0.01 0,-0.003 9.816e-4,-0.022 0,-0.025 -0.00118,-0.004 -0.00382,-0.006 -0.00499,-0.01 -0.00105,-0.003 0,-0.0205 0,-0.025 0,-0.0166 0,-0.0333 0,-0.0499 0,-0.015 0,-0.0299 0,-0.0449 0,-0.003 0,-0.007 0,-0.01 0,-0.003 -8.07e-4,-0.007 0,-0.01 0.0018,-0.007 0.00763,-0.0129 0.00998,-0.02 5.266e-4,-0.002 -7.434e-4,-0.003 0,-0.005 0.00105,-0.002 0.00425,-0.003 0.00499,-0.005 0.00105,-0.003 -0.00105,-0.007 0,-0.01 7.435e-4,-0.002 0.00425,-0.003 0.00499,-0.005 0.00105,-0.003 0,-0.007 0,-0.01 0,-0.002 -7.434e-4,-0.003 0,-0.005 0.00105,-0.002 0.00425,-0.003 0.00499,-0.005 0.00113,-0.003 -0.00132,-0.0223 0,-0.025 0.00105,-0.002 0.00394,-0.003 0.00499,-0.005 0.00149,-0.003 -0.00149,-0.007 0,-0.01 0.00105,-0.002 0.00425,-0.003 0.00499,-0.005 0.00105,-0.003 -0.00149,-0.007 0,-0.01 7.435e-4,-10e-4 0.00382,10e-4 0.00499,0 0.00118,-10e-4 -7.435e-4,-0.004 0,-0.005 0.00211,-0.004 0.00788,-0.006 0.00998,-0.01 7.435e-4,-0.001 -7.435e-4,-0.003 0,-0.005 0.00382,-0.008 0.0089,-0.004 0.014976,-0.01 0.00118,-10e-4 0,-0.003 0,-0.005 0.00166,-0.003 0.00236,-0.007 0.00499,-0.01 0.00263,-0.003 0.00792,-0.002 0.00998,-0.005 0.00185,-0.003 -0.00185,-0.007 0,-0.01 0.00206,-0.003 0.00735,-0.002 0.00998,-0.005 0.00118,-0.001 -0.00118,-0.004 0,-0.005 0.00263,-0.003 0.00735,-0.002 0.00998,-0.005 0.00118,-0.001 -5.265e-4,-0.003 0,-0.005 0.00235,-0.007 0.00763,-0.0129 0.00998,-0.02 5.265e-4,-0.002 -0.00118,-0.004 0,-0.005 0.00666,-0.007 0.00479,0.0106 0.00998,-0.005 0.00105,-0.003 0,-0.007 0,-0.01 0,-0.002 -7.435e-4,-0.003 0,-0.005 0.00105,-0.002 0.00394,-0.003 0.00499,-0.005 7.435e-4,-0.001 -7.435e-4,-0.004 0,-0.005 0.00105,-0.002 0.00369,-0.003 0.00499,-0.005 0.00206,-0.003 0.00293,-0.007 0.00499,-0.01 0.0013,-0.002 0.00394,-0.003 0.00499,-0.005 7.435e-4,-10e-4 0,-0.003 0,-0.005 0.00166,-0.002 0.00394,-0.003 0.00499,-0.005 7.435e-4,-10e-4 -7.435e-4,-0.004 0,-0.005 0.00761,-0.0152 0.00396,0.009 0.00999,-0.0149 0.00124,-0.005 -0.00147,-0.0205 0,-0.025 0.00118,-0.004 0.00382,-0.006 0.00499,-0.01 0.0015,-0.004 -0.0015,-0.0105 0,-0.015 0.00118,-0.004 0.00382,-0.006 0.00499,-0.01 8.996e-4,-0.003 0,-0.0183 0,-0.02 0,-0.01 0,-0.02 0,-0.0299 0,-0.007 0,-0.0133 0,-0.02 0,-0.003 0.00105,-0.007 0,-0.01 -0.00118,-0.004 -0.00409,-0.006 -0.00499,-0.01 -0.00106,-0.004 0.00143,-0.0221 0,-0.025 -0.00105,-0.002 -0.00425,-0.003 -0.00499,-0.005 -0.00105,-0.003 6.535e-4,-0.007 0,-0.01 -0.00103,-0.005 -0.00372,-0.01 -0.00499,-0.015 -0.00117,-0.005 0.00117,-0.0103 0,-0.015 -0.00603,-0.0241 -0.00237,2.5e-4 -0.00998,-0.015 -7.435e-4,-10e-4 5.265e-4,-0.003 0,-0.005 -0.00118,-0.004 -0.00382,-0.006 -0.00499,-0.01 -0.00105,-0.003 0.00185,-0.007 0,-0.01 -0.00333,-0.003 -0.00666,-0.007 -0.00998,-0.01 0,-0.002 7.435e-4,-0.003 0,-0.005 -0.00105,-0.002 -0.00425,-0.003 -0.00499,-0.005 -0.00105,-0.003 0.00149,-0.007 0,-0.01 -0.00211,-0.004 -0.00737,-0.006 -0.00998,-0.01 -9.234e-4,-10e-4 0,-0.003 0,-0.005 0,-0.003 0.00149,-0.007 0,-0.01 -7.435e-4,-0.001 -0.00382,10e-4 -0.00499,0 -0.00118,-0.001 5.265e-4,-0.003 0,-0.005 -0.012053,-0.0362 0.00144,0.008 -0.00998,-0.015 -0.00149,-0.003 0.00235,-0.008 0,-0.01 -0.00263,-0.003 -0.00735,-0.002 -0.00998,-0.005 -0.00118,-10e-4 5.265e-4,-0.003 0,-0.005 -0.00118,-0.004 -0.00333,-0.007 -0.00499,-0.01 -0.0046,-0.009 -0.00551,-0.0137 -0.014976,-0.02 -0.00138,-9.2e-4 -0.0035,7.4e-4 -0.00499,0 -0.013472,-0.007 1.723e-4,-0.002 -0.00499,-0.01 -0.00125,-0.002 -0.021467,-0.0226 -0.024961,-0.025 -0.0031,-0.002 -0.00735,-0.002 -0.00998,-0.005 -0.00118,-10e-4 0.00149,-0.004 0,-0.005 -0.00298,-10e-4 -0.00763,0.002 -0.00998,0 -0.00235,-0.002 0.00149,-0.007 0,-0.01 -7.435e-4,-0.001 -0.0035,7.4e-4 -0.00499,0 -0.00537,-0.003 -0.010734,-0.006 -0.014976,-0.01 -0.00263,-0.003 -0.00236,-0.007 -0.00499,-0.01 -0.010329,-0.0103 4.048e-4,0.0158 -0.00998,-0.005 -7.435e-4,-10e-4 0.00118,-0.004 0,-0.005 -0.00235,-0.002 -0.00763,0.002 -0.00998,0 -0.00118,-10e-4 7.434e-4,-0.004 0,-0.005 -0.00552,-0.011 -0.0031,-0.002 -0.00998,-0.005 -0.00211,-10e-4 -0.00289,-0.004 -0.00499,-0.005 -0.00149,-7.5e-4 -0.0035,7.4e-4 -0.00499,0 -0.020776,-0.0104 0.00534,3.4e-4 -0.00499,-0.01 -0.00235,-0.002 -0.00763,0.002 -0.00998,0 -0.00118,-10e-4 0.00118,-0.004 0,-0.005 -0.00118,-0.001 -0.0035,7.4e-4 -0.00499,0 -0.00211,-0.001 -0.00289,-0.004 -0.00499,-0.005 -0.00149,-7.4e-4 -0.00382,10e-4 -0.00499,0 -0.00118,-0.001 -0.00149,-0.006 0,-0.005 0.00344,0.002 0.028423,0.0225 0.034945,0.025 0.00456,0.002 0.027917,0.003 0.034945,0.01 0.00263,0.003 0.00166,0.008 0.00499,0.01 0.00455,0.009 0.014015,-0.003 0.019969,0 0.00211,0.001 0.00289,0.004 0.00499,0.005 0.00298,0.001 0.00701,-10e-4 0.00998,0 0.00421,0.002 0.00577,0.008 0.00998,0.01 0.00298,10e-4 0.00763,-0.002 0.00998,0 0.00118,10e-4 -0.00118,0.004 0,0.005 0.00102,10e-4 0.012997,-9.9e-4 0.014976,0 0.00211,10e-4 0.00289,0.004 0.00499,0.005 0.00149,7.4e-4 0.00333,0 0.00499,0 0.00333,0.003 0.00607,0.007 0.00998,0.01 0.00277,0.002 0.00683,-10e-4 0.00998,0 0.020886,-0.009 0.00577,0.008 0.00998,0.01 0.00298,0.001 0.00683,-10e-4 0.00998,0 0.00223,7.4e-4 0.00333,0.003 0.00499,0.005 0.00166,0.002 0.00394,0.003 0.00499,0.005 0.00344,0.007 -0.00605,0.004 0.00499,0.01 0.00149,7.5e-4 0.0035,-7.4e-4 0.00499,0 0.00211,0.001 0.00333,0.003 0.00499,0.005 0.00166,0.002 0.00369,0.003 0.00499,0.005 0.00206,0.003 0.00236,0.007 0.00499,0.01 0.00118,10e-4 0.00382,-0.001 0.00499,0 0.00263,0.003 0.00236,0.007 0.00499,0.01 0.00263,0.003 0.00735,0.002 0.00998,0.005 0.00263,0.003 0.00293,0.007 0.00499,0.01 0.0013,0.002 0.00394,0.003 0.00499,0.005 0.00615,0.0123 -0.014491,-0.005 0.00499,0.015 0.00118,0.001 0.00425,-10e-4 0.00499,0 0.00149,0.003 -0.00235,0.008 0,0.01 0.00235,0.002 0.00763,-0.002 0.00998,0 0.00235,0.002 -0.00105,0.007 0,0.01 0.00121,0.004 0.018753,0.0163 0.019969,0.02 0.00105,0.003 -0.00149,0.007 0,0.01 7.435e-4,0.001 0.00382,-10e-4 0.00499,0 0.00263,0.003 0.00293,0.007 0.00499,0.01 0.00219,0.003 0.014076,0.0123 0.014976,0.015 0.00105,0.003 -0.00149,0.007 0,0.01 7.435e-4,10e-4 0.00382,-0.001 0.00499,0 0.00118,10e-4 -7.435e-4,0.004 0,0.005 0.00133,0.003 0.00865,0.007 0.00998,0.01 7.435e-4,0.001 -0.00118,0.004 0,0.005 0.00118,0.001 0.00425,-10e-4 0.00499,0 0.00161,0.003 -0.00179,0.0182 0,0.02 0.00263,0.003 0.00735,0.002 0.00998,0.005 0.00235,0.002 -0.00149,0.007 0,0.01 0.00211,0.004 0.00737,0.006 0.00998,0.01 0.00206,0.003 0.00333,0.007 0.00499,0.01 0.00166,0.003 0.00382,0.006 0.00499,0.01 5.265e-4,0.002 -7.435e-4,0.003 0,0.005 0.00105,0.002 0.00394,0.003 0.00499,0.005 0.00235,0.005 0.00264,0.0103 0.00499,0.015 0.00105,0.002 0.00394,0.003 0.00499,0.005 7.434e-4,10e-4 -5.266e-4,0.003 0,0.005 0.00118,0.004 0.00382,0.006 0.00499,0.01 5.265e-4,0.002 -7.435e-4,0.004 0,0.005 0.00105,0.002 0.00425,0.003 0.00499,0.005 0.00227,0.007 -0.00227,0.0231 0,0.0299 7.435e-4,0.002 0.00394,0.003 0.00499,0.005 7.435e-4,0.001 0,0.003 0,0.005 0,0.008 0,0.0166 0,0.025 0,0.002 0,0.003 0,0.005 0,0.002 -7.434e-4,0.004 0,0.005 0.00105,0.002 0.00394,0.003 0.00499,0.005 7.435e-4,10e-4 -7.435e-4,0.004 0,0.005 0.00105,0.002 0.00394,0.003 0.00499,0.005 7.434e-4,0.001 0,0.003 0,0.005 0,0.003 -0.00105,0.007 0,0.01 7.434e-4,0.002 0.00394,0.003 0.00499,0.005 7.435e-4,0.001 0,0.003 0,0.005 0,0.002 0,0.003 0,0.005 0,0.008 0,0.0166 0,0.025 0,0.002 0,0.003 0,0.005 0,0.002 -0.00118,0.004 0,0.005 0.00118,0.001 0.0035,-7.5e-4 0.00499,0 0.00761,0.004 0.00499,0.0131 0.00499,0.02 0,0.002 -7.434e-4,0.004 0,0.005 0.00105,0.002 0.00394,0.003 0.00499,0.005 0.00314,0.006 -0.00717,0.01 0.00499,0.01"
       id="path9652"
       inkscape:connector-curvature="0" />
    <path
       style="fill:none;fill-opacity:1;stroke:#ffffff;stroke-width:0.13229166;stroke-miterlimit:4;stroke-dasharray:none"
       d="m 1.7224231,294.76687 c 0.025676,-0.0845 0.01494,-0.0418 0.039802,-0.0832 0.00192,-0.003 0.00236,-0.007 0.00499,-0.01 0.00118,-0.001 0.00425,10e-4 0.00499,0 0.00149,-0.003 -0.00185,-0.007 0,-0.01 0.00206,-0.003 0.00735,-0.002 0.00998,-0.005 0.00118,-10e-4 -7.435e-4,-0.003 0,-0.005 0.00211,-0.004 0.0085,-0.006 0.00998,-0.01 0,-0.0283 -0.00333,-0.002 0.00499,-0.01 0.00118,-10e-4 0,-0.003 0,-0.005 0,-0.007 -0.00121,-0.0138 0.00499,-0.02 0.00118,-0.001 0.00382,10e-4 0.00499,0 0.00133,-0.001 -0.00159,-0.0218 0,-0.025 0.00105,-0.002 0.00394,-0.003 0.00499,-0.005 0.00165,-0.003 -0.00139,-0.0158 0,-0.02 0.00118,-0.004 0.00409,-0.006 0.00499,-0.01 0.00102,-0.004 0,-0.0247 0,-0.0299 0,-0.0233 0,-0.0466 0,-0.0699 0,-0.005 9.922e-4,-0.027 0,-0.03 -0.00118,-0.004 -0.00382,-0.006 -0.00499,-0.01 -9.181e-4,-0.003 0.00107,-0.0189 0,-0.02 -0.00118,-10e-4 -0.00425,10e-4 -0.00499,0 -0.00499,-0.01 0.00249,-0.007 0,-0.015 -0.012053,-0.0362 0.00144,0.008 -0.00998,-0.015 -0.00499,-0.01 0.00998,0 0,-0.015 -0.00206,-0.003 -0.00735,-0.002 -0.00998,-0.005 -0.00118,-10e-4 5.265e-4,-0.003 0,-0.005 -0.00118,-0.004 -0.00236,-0.007 -0.00499,-0.01 -0.00263,-0.003 -0.00735,-0.002 -0.00998,-0.005 -0.00118,-10e-4 7.435e-4,-0.003 0,-0.005 -0.00268,-0.005 -0.0073,-0.01 -0.00998,-0.015 -7.434e-4,-0.001 7.435e-4,-0.004 0,-0.005 -0.00105,-0.002 -0.00394,-0.003 -0.00499,-0.005 -7.435e-4,-10e-4 7.435e-4,-0.003 0,-0.005 -0.00246,-0.005 -0.017512,-0.0151 -0.019969,-0.02 -0.00149,-0.003 0.00235,-0.008 0,-0.01 -0.00118,-0.001 -0.0035,7.4e-4 -0.00499,0 -0.00211,-0.001 -0.00333,-0.003 -0.00499,-0.005 -0.00166,-0.002 -0.00394,-0.003 -0.00499,-0.005 -7.435e-4,-0.001 0.00118,-0.004 0,-0.005 -0.00263,-0.003 -0.00735,-0.002 -0.00998,-0.005 -0.00118,-0.001 7.435e-4,-0.004 0,-0.005 -0.00133,-0.003 -0.012348,-0.0124 -0.014976,-0.015 -0.00166,-0.002 -0.00333,-0.003 -0.00499,-0.005 -0.00166,-0.002 -0.00394,-0.003 -0.00499,-0.005 -7.435e-4,-10e-4 0.00118,-0.004 0,-0.005 -0.00263,-0.003 -0.00689,-0.003 -0.00998,-0.005 -0.00196,-10e-4 -0.00333,-0.003 -0.00499,-0.005 -0.00166,-0.002 -0.00394,-0.003 -0.00499,-0.005 -7.435e-4,-0.001 0.00118,-0.004 0,-0.005 -0.00118,-0.001 -0.00425,10e-4 -0.00499,0 -0.00149,-0.003 0.00105,-0.007 0,-0.01 -0.00149,-0.004 -0.00788,-0.006 -0.00998,-0.01 -0.00149,-0.003 0.00149,-0.007 0,-0.01 -0.00105,-0.002 -0.00394,-0.003 -0.00499,-0.005 -0.00149,-0.003 0.00149,-0.007 0,-0.01 -0.00105,-0.002 -0.00394,-0.003 -0.00499,-0.005 -9.895e-4,-0.002 0.00102,-0.014 0,-0.015 -0.010329,-0.0103 4.048e-4,0.0158 -0.00998,-0.005 -0.00149,-0.003 0.00149,-0.007 0,-0.01 -0.00105,-0.002 -0.00394,-0.003 -0.00499,-0.005 -0.00149,-0.003 0.00235,-0.008 0,-0.01 -0.00118,-10e-4 -0.00382,0.001 -0.00499,0 -0.00235,-0.002 0.00235,-0.008 0,-0.01 -0.00118,-10e-4 -0.00382,10e-4 -0.00499,0 -0.00118,-10e-4 0,-0.003 0,-0.005 0,-0.003 0.00149,-0.007 0,-0.01 -7.434e-4,-0.001 -0.00382,10e-4 -0.00499,0 -0.00118,-0.001 0,-0.003 0,-0.005 0,-0.008 0,-0.0166 0,-0.025 0,-0.002 0.00118,-0.004 0,-0.005 -0.00118,-10e-4 -0.00382,0.001 -0.00499,0 -0.0025,-0.002 0.00249,-0.0125 0,-0.015 -0.00118,-10e-4 -0.00382,10e-4 -0.00499,0 -0.00118,-10e-4 -0.00166,-0.005 0,-0.005 0.00235,0 0.00289,0.004 0.00499,0.005 0.00149,7.4e-4 0.0035,-7.4e-4 0.00499,0 0.00133,6.6e-4 0.014314,0.0137 0.014976,0.015 7.434e-4,0.001 -0.00118,0.004 0,0.005 0.00118,0.001 0.0035,-7.4e-4 0.00499,0 0.016557,0.0166 -0.00471,-0.002 0.00998,0.005 0.00211,0.001 0.00289,0.004 0.00499,0.005 0.00149,7.5e-4 0.0035,-7.4e-4 0.00499,0 0.00599,0.003 0.00899,0.012 0.014976,0.015 0.00271,10e-4 0.018603,-0.001 0.019969,0 0.00235,0.002 -0.00235,0.008 0,0.01 0.0025,0.002 0.01248,-0.002 0.014976,0 0.00118,10e-4 -0.00118,0.004 0,0.005 0.00118,10e-4 0.00341,-5.3e-4 0.00499,0 0.03616,0.012 -0.00787,-10e-4 0.014976,0.01 0.00149,7.4e-4 0.0035,-7.4e-4 0.00499,0 0.00211,0.001 0.00333,0.003 0.00499,0.005 0.00166,0.002 0.00333,0.003 0.00499,0.005 0.00166,0.002 0.00289,0.004 0.00499,0.005 0.00149,7.4e-4 0.00382,-10e-4 0.00499,0 0.00263,0.003 0.00293,0.007 0.00499,0.01 0.00228,0.003 0.018508,0.019 0.019969,0.02 0.00138,9.2e-4 0.0035,-7.4e-4 0.00499,0 0.00211,10e-4 0.00289,0.004 0.00499,0.005 0.00471,0.002 0.010464,0.002 0.014976,0.005 0.024961,0.015 0,0.005 0.014976,0.015 0.0031,0.002 0.00689,0.003 0.00998,0.005 0.00392,0.003 0.00577,0.008 0.00998,0.01 0.00149,7.4e-4 0.0035,-7.5e-4 0.00499,0 0.00211,0.001 0.00289,0.004 0.00499,0.005 0.00149,7.4e-4 0.00361,-9.2e-4 0.00499,0 0.00392,0.003 0.00607,0.007 0.00998,0.01 0.00138,9.3e-4 0.00382,-0.001 0.00499,0 0.00263,0.003 0.00236,0.007 0.00499,0.01 0.00235,0.002 0.00763,-0.002 0.00998,0 0.00263,0.003 0.00293,0.007 0.00499,0.01 0.0013,0.002 0.00333,0.003 0.00499,0.005 0.00166,0.002 0.00289,0.004 0.00499,0.005 0.00149,7.4e-4 0.00382,-10e-4 0.00499,0 0.00118,0.001 -7.435e-4,0.003 0,0.005 0.00105,0.002 0.00394,0.003 0.00499,0.005 7.434e-4,0.001 -7.435e-4,0.003 0,0.005 0.00105,0.002 0.00394,0.003 0.00499,0.005 0.00333,0.007 -0.00499,0.005 0.00499,0.005"
       id="path9654"
       inkscape:connector-curvature="0" />
    <path
       style="fill:none;fill-opacity:1;stroke:#ffffff;stroke-width:0.13229166;stroke-miterlimit:4;stroke-dasharray:none"
       d="m 1.9119641,294.23387 c 0.00666,-0.01 0.014628,-0.0189 0.019993,-0.0295 0.00151,-0.003 -0.00105,-0.007 0,-0.01 7.435e-4,-0.002 0.00425,-0.003 0.00499,-0.005 0.00105,-0.003 0,-0.007 0,-0.01 0,-0.002 -7.434e-4,-0.004 0,-0.005 0.00105,-0.002 0.00394,-0.003 0.00499,-0.005 7.435e-4,-0.001 0,-0.003 0,-0.005 0,-0.003 0,-0.007 0,-0.01 0,-0.0116 0,-0.0233 0,-0.0349 0,-0.0283 0,-0.0566 0,-0.0849 0,-0.01 0,-0.02 0,-0.0299 0,-0.005 0,-0.01 0,-0.015 0,-0.002 -7.435e-4,-0.003 0,-0.005 0.00105,-0.002 0.00425,-0.003 0.00499,-0.005 0.00211,-0.006 -0.00298,-0.014 0,-0.02 7.434e-4,-0.001 0.00425,10e-4 0.00499,0 3.916e-4,-7.8e-4 0,-0.0236 0,-0.025 0,-0.015 0,-0.0299 0,-0.0449 0,-0.0233 0,-0.0466 0,-0.0699 0,-0.008 0,-0.0166 0,-0.025 0,-0.002 -7.435e-4,-0.004 0,-0.005 0.011424,-0.0229 -0.00207,0.0212 0.00998,-0.015 0.00105,-0.003 -0.00149,-0.007 0,-0.01 0.016557,-0.0166 -0.00235,0.005 0.00499,-0.01 0.00211,-0.004 0.00788,-0.006 0.00998,-0.01 7.435e-4,-10e-4 -7.435e-4,-0.004 0,-0.005 0.003,-0.006 0.011981,-0.009 0.014976,-0.015 7.435e-4,-0.001 -0.00118,-0.004 0,-0.005 0.00118,-0.001 0.00382,10e-4 0.00499,0 0.00118,-0.001 -7.434e-4,-0.004 0,-0.005 0.00105,-0.002 0.00394,-0.003 0.00499,-0.005 7.435e-4,-0.001 -0.00118,-0.004 0,-0.005 0.00118,-0.001 0.00382,10e-4 0.00499,0 0.00118,-0.001 -0.00118,-0.004 0,-0.005 0.00235,-0.002 0.00701,0.001 0.00998,0 0.00211,-10e-4 0.00289,-0.004 0.00499,-0.005 0.00149,-7.5e-4 0.00382,0.001 0.00499,0 0.00263,-0.003 0.00236,-0.007 0.00499,-0.01 0.00235,-0.002 0.00763,0.002 0.00998,0 0.0025,-0.002 -0.0025,-0.0125 0,-0.015 0.00118,-10e-4 0.00382,10e-4 0.00499,0 0.00155,-0.002 -0.00155,-0.0234 0,-0.025 0.00118,-0.001 0.00382,10e-4 0.00499,0 0.00118,-0.001 0,-0.003 0,-0.005 0,-0.008 0,-0.0166 0,-0.025 -0.044737,0.0459 0.014785,0.0297 0.020014,0.0454 0.0021,0.006 -0.00298,0.014 0,0.02 0.003,0.006 0.011981,0.009 0.014976,0.015 7.442e-4,0.001 -5.262e-4,0.003 0,0.005 0.012053,0.0362 -0.00144,-0.008 0.00998,0.015 7.442e-4,0.001 -7.442e-4,0.004 0,0.005 0.00105,0.002 0.00394,0.003 0.00499,0.005 7.441e-4,10e-4 -0.00118,0.004 0,0.005 0.00118,10e-4 0.00382,-0.001 0.00499,0 0.00263,0.003 0.00293,0.007 0.00499,0.01 0.00131,0.002 0.00394,0.003 0.00499,0.005 7.442e-4,10e-4 -0.00118,0.004 0,0.005 0.00263,0.003 0.00689,0.003 0.00998,0.005 0.00196,10e-4 0.00333,0.003 0.00499,0.005 0.00166,0.002 0.00412,0.003 0.00499,0.005 0.00255,0.006 0.00244,0.0136 0.00499,0.02 -0.00187,0.0109 0.00832,0.002 0.00998,0.005 0.00149,0.003 0,0.007 0,0.01 0,0.002 -0.00118,0.004 0,0.005 0.00263,0.003 0.00735,0.002 0.00998,0.005 0.00118,10e-4 -7.442e-4,0.004 0,0.005 0.00105,0.002 0.00394,0.003 0.00499,0.005 7.441e-4,0.001 -7.442e-4,0.003 0,0.005 0.00105,0.002 0.00394,0.003 0.00499,0.005 7.442e-4,0.001 -7.442e-4,0.004 0,0.005 0.00133,0.003 0.00866,0.007 0.00998,0.01 0.00152,0.003 -0.00152,0.0269 0,0.0299 0.00105,0.002 0.00425,0.003 0.00499,0.005 7.617e-4,0.002 0,0.0222 0,0.025 0,0.0166 0,0.0333 0,0.0499 0,0.0699 0,0.13978 0,0.20967 0.00833,-0.002 0.016754,-0.003 0.025004,-0.005 0.030566,-0.008 0.0041,8.9e-4 0.019969,-0.015 0.00118,-0.001 0.00333,0 0.00499,0 0.00666,0 0.013312,0 0.019969,0 0.00333,0 0.00722,0.002 0.00998,0 0.0031,-0.002 0.00236,-0.007 0.00499,-0.01 0.00235,-0.002 0.00763,0.002 0.00998,0 0.00118,-0.001 -0.00149,-0.004 0,-0.005 0.00298,-0.001 0.00683,10e-4 0.00998,0 0.00223,-7.4e-4 0.00333,-0.003 0.00499,-0.005 0.00333,-0.002 0.00645,-0.004 0.00998,-0.005 0.00316,-10e-4 0.00666,0 0.00998,0 0.00832,0 0.016641,0 0.024961,0 0.013312,0 0.026625,0 0.039937,0 0.00499,0 0.010241,0.002 0.014976,0 0.00223,-7.4e-4 0.00276,-0.004 0.00499,-0.005 0.00292,-9.8e-4 0.025668,0 0.029953,0 0.019968,0 0.039937,0 0.059906,0 0.053249,0 0.106499,0 0.1597485,0 -0.049149,0.0325 -0.00966,0.0129 -0.074853,0.0248 -0.00366,6.6e-4 -0.00632,0.004 -0.00998,0.005 -0.030287,0.006 -0.050578,0.003 -0.079874,0.01 -0.00363,8.1e-4 -0.00666,0.003 -0.00998,0.005 -0.00333,0.002 -0.00689,0.003 -0.00998,0.005 -0.00196,0.001 -0.00303,0.004 -0.00499,0.005 -9.299e-4,6.2e-4 -0.019649,0.01 -0.019969,0.01 -0.00263,0.003 -0.00236,0.007 -0.00499,0.01 -0.00118,10e-4 -0.00333,0 -0.00499,0 -0.00166,0.003 -0.00236,0.007 -0.00499,0.01 -0.012125,0.0121 -0.00733,-0.001 -0.014976,0.01 -0.00166,0.003 -0.00333,0.007 -0.00499,0.01 0,0.003 0.00149,0.007 0,0.01 -0.00516,0 -0.0069,-10e-4 -0.00998,0.005 -7.442e-4,0.001 0,0.003 0,0.005 0,0.005 0.00121,0.0101 0,0.015 -0.00114,0.005 -0.0085,0.006 -0.00998,0.01 -0.00227,0.007 0.00227,0.0231 0,0.0299 -7.441e-4,0.002 -0.00425,0.003 -0.00499,0.005 0,0.0227 0.00235,2.8e-4 -0.00499,0.015 -7.023e-4,0.001 0,0.0311 0,0.0349 0,0.0283 0,0.0566 0,0.0849 0,0.02 0,0.0399 0,0.0599 0,10e-4 -3.265e-4,0.0341 0,0.0349 0.00175,0.004 0.00737,0.006 0.00998,0.01 9.231e-4,10e-4 -5.262e-4,0.003 0,0.005 0.00118,0.004 0.00382,0.006 0.00499,0.01 5.262e-4,0.002 -7.442e-4,0.004 0,0.005 0.00105,0.002 0.00425,0.003 0.00499,0.005 0.00158,0.005 0,0.01 0,0.015 0,0.0133 0,0.0266 0,0.0399 8.019e-4,-0.004 0.055649,0.002 0.06487,-1.9e-4 0.00228,-5.7e-4 0.00276,-0.004 0.00499,-0.005 0.00316,-10e-4 0.00668,4.1e-4 0.00998,0 0.010044,-10e-4 0.020133,-0.003 0.029953,-0.005 0.00722,-0.002 0.012749,-0.008 0.019969,-0.01 0.00982,-0.002 0.019909,-0.004 0.029953,-0.005 0.0033,-4.1e-4 0.00722,0.002 0.00998,0 0.0031,-0.002 0.00166,-0.008 0.00499,-0.01 0.018009,-0.009 0.011024,0.009 0.024961,-0.005 0.00263,-0.003 0.00236,-0.007 0.00499,-0.01 0.00118,-0.001 0.0035,7.5e-4 0.00499,0 0.00599,-0.003 0.00899,-0.012 0.014976,-0.015 0.00149,-7.5e-4 0.0035,7.4e-4 0.00499,0 0.00241,-10e-4 0.019866,-0.0198 0.019969,-0.02 0.00223,-0.003 0.00236,-0.007 0.00499,-0.01 0.00118,-0.001 0.00382,10e-4 0.00499,0 0.019483,-0.0195 -0.00116,-0.003 0.00499,-0.015 0.00105,-0.002 0.00369,-0.003 0.00499,-0.005 0.00206,-0.003 0.00293,-0.007 0.00499,-0.01 0.00131,-0.002 0.00394,-0.003 0.00499,-0.005 7.441e-4,-10e-4 0,-0.003 0,-0.005 0.00166,-0.003 0.00293,-0.007 0.00499,-0.01 0.00131,-0.002 0.00425,-0.003 0.00499,-0.005 0.00105,-0.003 -0.00105,-0.007 0,-0.01 7.442e-4,-0.002 0.00394,-0.003 0.00499,-0.005 7.442e-4,-0.001 -7.442e-4,-0.003 0,-0.005 0.00105,-0.002 0.00394,-0.003 0.00499,-0.005 7.442e-4,-0.001 -7.442e-4,-0.004 0,-0.005 0.00105,-0.002 0.00425,-0.003 0.00499,-0.005 0.00105,-0.003 -0.00105,-0.007 0,-0.01 7.441e-4,-0.002 0.00394,-0.003 0.00499,-0.005 7.442e-4,-10e-4 -7.442e-4,-0.004 0,-0.005 0.0021,-0.004 0.00737,-0.006 0.00998,-0.01 0.00206,-0.003 0.00293,-0.007 0.00499,-0.01 0.00131,-0.002 0.00394,-0.003 0.00499,-0.005 7.442e-4,-0.001 -7.441e-4,-0.004 0,-0.005 6.628e-4,-0.001 0.013651,-0.0143 0.014976,-0.015 0.00149,-7.5e-4 0.00382,0.001 0.00499,0 0.012231,-0.0245 -0.00163,-0.004 0.00998,-0.01 0.011038,-0.006 0.00155,-0.003 0.00499,-0.01 0.010388,-0.0208 -3.446e-4,0.005 0.00998,-0.005 0.010329,-0.0103 -0.015784,4e-4 0.00499,-0.01 0.00149,-7.4e-4 0.0035,7.5e-4 0.00499,0 0.0021,-0.001 0.00303,-0.004 0.00499,-0.005 9.299e-4,-6.2e-4 0.019649,-0.01 0.019969,-0.01 0.00118,-0.001 -0.00118,-0.004 0,-0.005 0.00263,-0.003 0.00689,-0.003 0.00998,-0.005 0.00392,-0.003 0.00577,-0.008 0.00998,-0.01 0.00149,-7.5e-4 0.00341,5.2e-4 0.00499,0 0.00353,-10e-4 0.00645,-0.004 0.00998,-0.005 0.00158,-5.2e-4 0.00382,0.001 0.00499,0 0.00118,-10e-4 -0.00118,-0.004 0,-0.005 0.00118,-10e-4 0.0035,7.5e-4 0.00499,0 0.00421,-0.002 0.00607,-0.007 0.00998,-0.01 0.0031,-0.002 0.00689,-0.003 0.00998,-0.005 0.00196,-0.001 0.00289,-0.004 0.00499,-0.005 0.00149,-7.4e-4 0.0035,7.5e-4 0.00499,0 0.011038,-0.006 0.00155,-0.003 0.00499,-0.01 0.00133,-0.003 0.00866,-0.007 0.00998,-0.01 7.441e-4,-10e-4 -0.00118,-0.004 0,-0.005 0.00666,-0.007 0.00499,0.008 0.00499,-0.005 -0.020748,0.0841 -0.0075,0.0558 -0.024849,0.0905 -0.00166,0.003 -0.00361,0.007 -0.00499,0.01 -0.00195,0.005 -0.00264,0.0103 -0.00499,0.015 9.418e-4,0.0169 -0.019246,0.0147 -0.024961,0.025 -0.00588,0.0106 -0.00457,0.0241 -0.00998,0.035 -0.00166,0.003 -0.00735,0.002 -0.00998,0.005 -0.00263,0.003 -0.00308,0.007 -0.00499,0.01 -0.00309,0.005 -0.0069,0.01 -0.00998,0.015 -0.00191,0.003 -0.00308,0.007 -0.00499,0.01 -0.00309,0.005 -0.0073,0.01 -0.00998,0.015 -0.00235,0.005 -0.00228,0.0105 -0.00499,0.015 -0.00242,0.004 -0.00737,0.006 -0.00998,0.01 -9.23e-4,10e-4 3.264e-4,0.003 0,0.005 -0.00135,0.007 -0.00244,0.0136 -0.00499,0.02 -8.74e-4,0.002 -0.00333,0.003 -0.00499,0.005 -0.00333,0.008 -0.00781,0.0163 -0.00998,0.025 -0.00121,0.005 0.00185,0.0103 0,0.015 -0.00813,0.008 -0.011428,0.009 -0.014976,0.02 -5.263e-4,0.002 5.262e-4,0.003 0,0.005 -0.010329,0.031 4.037e-4,-0.0166 -0.00998,0.025 -0.00154,0.006 0.00124,0.0138 0,0.02 -0.00519,0.026 -0.00333,0.005 -0.00998,0.025 -5.262e-4,0.002 0,0.003 0,0.005 0,0.007 0.001,0.0249 0,0.03 -7.297e-4,0.004 -0.00409,0.006 -0.00499,0.01 -8.281e-4,0.003 0,0.0257 0,0.0299 0,0.01 0,0.02 0,0.03 0,0.001 -5.595e-4,0.0188 0,0.02 0.00105,0.002 0.00394,0.003 0.00499,0.005 0.00111,0.002 -7.611e-4,0.0177 0,0.02 0.00149,0.004 0.0085,0.006 0.00998,0.01 0.00105,0.003 -0.00149,0.007 0,0.01 7.442e-4,10e-4 0.00333,0 0.00499,0 0.00166,0.002 0.00425,0.003 0.00499,0.005 0.00105,0.003 -0.00235,0.008 0,0.01 0.00235,0.002 0.00701,-0.001 0.00998,0 0.00149,7.4e-4 0,0.003 0,0.005 0,0.0133 -0.00166,-0.002 0.00499,0.005 0.00127,10e-4 -0.00127,0.0137 0,0.015 0.00235,0.002 0.00763,-0.002 0.00998,0 0.00235,0.002 -0.00105,0.007 0,0.01 7.441e-4,0.002 0.00369,0.003 0.00499,0.005 0.00304,0.005 0.00426,0.0121 0.00998,0.015 0.00149,7.5e-4 0.00382,-0.001 0.00499,0 0.00118,10e-4 -7.442e-4,0.004 0,0.005 0.00105,0.002 0.00394,0.003 0.00499,0.005 0.00149,0.003 -0.00235,0.008 0,0.01 0.00118,10e-4 0.00382,-10e-4 0.00499,0 0.00118,10e-4 0,0.003 0,0.005 0,0.003 -0.00149,0.007 0,0.01 0.00516,0 0.0069,-10e-4 0.00998,0.005 9.896e-4,0.002 -0.00102,0.014 0,0.015 0.00118,10e-4 0.00333,0 0.00499,0 0.069877,0.0489 0.077757,0.14461 0.1247928,0.20875 0.0044,0.006 0.014706,0.005 0.019969,0.01 0.00235,0.002 -0.00149,0.007 0,0.01 0.0021,0.004 0.00716,0.006 0.00998,0.01 0.00223,0.003 0.00293,0.007 0.00499,0.01 0.00261,0.004 0.0085,0.006 0.00998,0.01 7.611e-4,0.002 -0.00111,0.0177 0,0.02 0.00105,0.002 0.00442,0.003 0.00499,0.005 0,0.0354 -0.00353,0.003 0.00499,0.02 9.274e-4,0.002 0,0.0307 0,0.0349 0,0.008 0,0.0166 0,0.025 0,0.005 0.00158,0.0102 0,0.015 -7.442e-4,0.002 -0.00394,0.003 -0.00499,0.005 -0.00149,0.003 0.00105,0.007 0,0.01 -0.00118,0.004 -0.00382,0.006 -0.00499,0.01 -0.00199,0.006 0.00199,0.004 0,0.01 -0.00118,0.004 -0.00409,0.006 -0.00499,0.01 -8.072e-4,0.003 0.00105,0.007 0,0.01 -7.442e-4,0.002 -0.00394,0.003 -0.00499,0.005 -0.00471,0.009 -0.00608,0.0202 -0.00998,0.03 -0.00905,0.0226 -4.609e-4,6.9e-4 -0.00998,0.015 -0.00872,0.0131 -0.00187,0.009 -0.00998,0.025 -0.00268,0.005 -0.0073,0.01 -0.00998,0.015 -7.442e-4,0.001 9.231e-4,0.004 0,0.005 -0.00261,0.004 -0.0085,0.006 -0.00998,0.01 -0.00372,0.0112 -0.00214,0.0235 -0.00499,0.0349 -5.708e-4,0.002 -0.00369,0.003 -0.00499,0.005 -0.00485,0.007 -0.00312,0.0104 -0.00998,0.015 -0.0031,0.002 -0.00775,0.002 -0.00998,0.005 -0.00316,0.004 -0.00207,0.0106 -0.00499,0.015 -9.231e-4,0.001 -0.00333,0 -0.00499,0 -0.00333,0.003 -0.00788,0.006 -0.00998,0.01 -0.00149,0.003 0.00149,0.007 0,0.01 -7.442e-4,0.001 -0.00361,-9.2e-4 -0.00499,0 -0.026931,0.018 0.00344,0.002 -0.014976,0.02 -0.00263,0.003 -0.00645,0.004 -0.00998,0.005 -0.00158,5.3e-4 -0.00382,-0.001 -0.00499,0 -0.00263,0.003 -0.00293,0.007 -0.00499,0.01 -0.00765,0.0115 -0.00285,-0.002 -0.014976,0.01 -0.00263,0.003 -0.00236,0.007 -0.00499,0.01 -0.00263,0.003 -0.00735,0.002 -0.00998,0.005 -0.00263,0.003 -0.00236,0.007 -0.00499,0.01 -0.00118,0.001 -0.00382,-0.001 -0.00499,0 -0.00263,0.003 -0.00236,0.007 -0.00499,0.01 -0.00118,0.001 -0.0035,-7.4e-4 -0.00499,0 -0.0021,0.001 -0.00311,0.004 -0.00499,0.005 -0.0048,0.004 -0.010734,0.006 -0.014976,0.01 -0.00118,0.001 0.00118,0.004 0,0.005 -0.00263,0.003 -0.00689,0.003 -0.00998,0.005 -0.00616,0.004 -0.00383,0.006 -0.00998,0.01 -0.00619,0.004 -0.013777,0.006 -0.019969,0.01 -0.00196,0.001 -0.00289,0.004 -0.00499,0.005 -0.00471,0.002 -0.010091,0.003 -0.014976,0.005 -0.00345,0.001 -0.00666,0.003 -0.00998,0.005 -0.00333,0.002 -0.00689,0.003 -0.00998,0.005 -0.00196,0.001 -0.00303,0.004 -0.00499,0.005 -0.0031,0.002 -0.00666,0.003 -0.00998,0.005 -0.00333,0.002 -0.00653,0.004 -0.00998,0.005 -0.00489,0.002 -0.01027,0.003 -0.014976,0.005 -0.0021,0.001 -0.00289,0.004 -0.00499,0.005 -0.00471,0.002 -0.01027,0.003 -0.014976,0.005 -0.00421,0.002 -0.00607,0.007 -0.00998,0.01 -0.0031,0.002 -0.00689,0.003 -0.00998,0.005 -0.00196,0.001 -0.00333,0.003 -0.00499,0.005 -0.00333,0.003 -0.00666,0.007 -0.00998,0.01 -0.00166,0.002 -0.00289,0.004 -0.00499,0.005 -0.00149,7.4e-4 -0.00361,-9.3e-4 -0.00499,0 -0.00392,0.003 -0.00622,0.007 -0.00998,0.01 -0.00298,0.002 -0.00689,0.003 -0.00998,0.005 -0.00196,0.001 -0.00303,0.004 -0.00499,0.005 5.685e-4,0.009 -0.011648,0.003 -0.014976,0.005 -0.0021,0.001 -0.00303,0.004 -0.00499,0.005 -0.0031,0.002 -0.00735,0.002 -0.00998,0.005 -0.00263,0.003 -0.0019,0.008 -0.00499,0.01 -0.00277,0.002 -0.00701,-0.001 -0.00998,0 -0.00149,7.4e-4 0,0.003 0,0.005 -0.00166,0.002 -0.00281,0.004 -0.00499,0.005 -0.00637,0.003 -0.013598,0.002 -0.019969,0.005 -0.00637,0.003 -0.00592,0.0109 -0.00998,0.015 -0.00118,0.001 -0.00361,-9.2e-4 -0.00499,0 -0.00676,0.003 -0.0091,0.0111 -0.014977,0.015 -9.299e-4,6.2e-4 -0.019649,0.01 -0.019968,0.01 -0.00263,0.003 -0.0018,0.008 -0.00499,0.01 -0.00588,0.004 -0.013598,0.002 -0.019969,0.005 -0.019228,0.008 0.014409,0.003 -0.00998,0.015 -0.00447,0.002 -0.011078,-0.003 -0.014976,0 -0.00581,0.005 -0.00472,0.0147 -0.00998,0.02 -0.00235,0.002 -0.00666,0 -0.00998,0 -0.009,0 -0.017736,-0.002 -0.024961,0.005 -0.00263,0.003 -0.00236,0.007 -0.00499,0.01 -0.00118,0.001 -0.0035,-7.5e-4 -0.00499,0 -0.0021,0.001 -0.00289,0.004 -0.00499,0.005 -0.00149,7.4e-4 -0.00382,-0.001 -0.00499,0 -0.010329,0.0103 0.015784,-4e-4 -0.00499,0.01 -0.00298,0.001 -0.00763,-0.002 -0.00998,0 -0.00118,0.001 0.00118,0.004 0,0.005 -0.00118,0.001 -0.00341,-5.3e-4 -0.00499,0 -0.03616,0.012 0.00787,-0.001 -0.014976,0.01 -0.00298,0.001 -0.00701,-0.001 -0.00998,0 -0.00421,0.002 -0.00577,0.008 -0.00998,0.01 -0.00149,7.4e-4 -0.00336,-3.3e-4 -0.00499,0 -0.00673,0.001 -0.01346,0.003 -0.019969,0.005 -0.00353,0.001 -0.00645,0.004 -0.00998,0.005 -0.00484,0.002 -0.02664,-0.002 -0.029953,0 -0.0021,0.001 -0.00289,0.004 -0.00499,0.005 -0.00298,0.001 -0.00701,-0.001 -0.00998,0 -0.0021,0.001 -0.00289,0.004 -0.00499,0.005 -0.0014,7.1e-4 -0.031129,0 -0.034945,0 -0.00333,0 -0.00666,0 -0.00998,0 -0.00166,0 -0.0035,-7.4e-4 -0.00499,0 -0.0021,0.001 -0.00276,0.004 -0.00499,0.005 -0.00256,8.5e-4 -0.026384,0 -0.029953,0 -0.00166,0 -0.0035,-7.5e-4 -0.00499,0 -0.0021,0.001 -0.00289,0.004 -0.00499,0.005 -0.00331,0.002 -0.025111,-0.002 -0.029953,0 -0.00353,0.001 -0.00645,0.004 -0.00998,0.005 -0.0027,9e-4 -0.018268,0 -0.019969,0 -0.011648,0 -0.023297,0 -0.034945,0 -0.00499,0 -0.010133,-0.001 -0.014976,0 -0.00228,5.7e-4 -0.00289,0.004 -0.00499,0.005 -0.00298,0.001 -0.00721,-0.002 -0.00998,0 -0.00391,0.003 -0.00665,0.007 -0.00998,0.01"
       id="path9656"
       inkscape:connector-curvature="0" />
  </g>
</svg>
