<?xml version="1.0" encoding="UTF-8" standalone="no"?>
<!-- Created with Inkscape (http://www.inkscape.org/) -->

<svg
   xmlns:dc="http://purl.org/dc/elements/1.1/"
   xmlns:cc="http://creativecommons.org/ns#"
   xmlns:rdf="http://www.w3.org/1999/02/22-rdf-syntax-ns#"
   xmlns:svg="http://www.w3.org/2000/svg"
   xmlns="http://www.w3.org/2000/svg"
   xmlns:sodipodi="http://sodipodi.sourceforge.net/DTD/sodipodi-0.dtd"
   xmlns:inkscape="http://www.inkscape.org/namespaces/inkscape"
   width="16"
   height="16"
   viewBox="0 0 4.2333333 4.2333333"
   version="1.1"
   id="svg7979"
   inkscape:version="0.92.1 r15371"
   sodipodi:docname="Followers.svg"
   inkscape:export-filename="C:\Unity\Gods Fate\Assets\Graphics\Icons\Followers.png"
   inkscape:export-xdpi="96"
   inkscape:export-ydpi="96">
  <defs
     id="defs7973" />
  <sodipodi:namedview
     id="base"
     pagecolor="#ffffff"
     bordercolor="#666666"
     borderopacity="1.0"
     inkscape:pageopacity="0.0"
     inkscape:pageshadow="2"
     inkscape:zoom="33.5"
     inkscape:cx="8"
     inkscape:cy="8"
     inkscape:document-units="mm"
     inkscape:current-layer="layer1"
     showgrid="false"
     units="px"
     inkscape:window-width="1366"
     inkscape:window-height="705"
     inkscape:window-x="-8"
     inkscape:window-y="-8"
     inkscape:window-maximized="1" />
  <metadata
     id="metadata7976">
    <rdf:RDF>
      <cc:Work
         rdf:about="">
        <dc:format>image/svg+xml</dc:format>
        <dc:type
           rdf:resource="http://purl.org/dc/dcmitype/StillImage" />
        <dc:title></dc:title>
      </cc:Work>
    </rdf:RDF>
  </metadata>
  <g
     inkscape:label="Calque 1"
     inkscape:groupmode="layer"
     id="layer1"
     transform="translate(0,-292.76667)">
    <ellipse
       style="fill:#000000;fill-opacity:1;stroke:none;stroke-width:0.12975544;stroke-miterlimit:4;stroke-dasharray:none"
       id="path8532"
       cx="2.1241548"
       cy="294.87585"
       rx="2.1091783"
       ry="2.1041863" />
    <path
       style="fill:none;fill-opacity:1;stroke:#ffffff;stroke-width:0.13229166;stroke-miterlimit:4;stroke-dasharray:none"
       d="m 2.1245646,293.31163 c -0.050021,0 -0.1000414,0 -0.1500621,0 -0.00549,0 -0.036634,-10e-4 -0.03949,0 -0.00333,0.002 -0.0048,0.006 -0.0079,0.008 -0.0098,0.007 -0.023267,0.007 -0.031592,0.0158 -0.00186,0.002 0.00186,0.006 0,0.008 -0.00186,0.002 -0.00554,-0.001 -0.0079,0 -0.00333,0.002 -0.00457,0.006 -0.0079,0.008 -0.00471,0.002 -0.012073,-0.004 -0.015796,0 -0.00186,0.002 0.00186,0.006 0,0.008 -0.00186,0.002 -0.00604,-0.002 -0.0079,0 -0.00186,0.002 0.00186,0.006 0,0.008 -0.00186,0.002 -0.00554,-0.001 -0.0079,0 -0.00948,0.005 -0.014216,0.019 -0.023694,0.0237 -0.00632,0.003 -0.017376,-0.003 -0.023694,0 -0.00333,0.002 -0.00457,0.006 -0.0079,0.008 -0.00235,10e-4 -0.00554,-0.001 -0.0079,0 -0.00333,0.002 -0.00457,0.006 -0.0079,0.008 -0.00235,0.001 -0.00554,-10e-4 -0.0079,0 -0.0099,0.005 -0.021688,0.0266 -0.031592,0.0316 -0.00235,10e-4 -0.00604,-0.002 -0.0079,0 -0.00186,0.002 0.00186,0.006 0,0.008 -0.00186,0.002 -0.00554,-10e-4 -0.0079,0 -0.00666,0.003 -0.00914,0.0125 -0.015796,0.0158 -0.00235,10e-4 -0.00604,-0.002 -0.0079,0 -0.00186,0.002 0.00186,0.006 0,0.008 -0.00186,0.002 -0.00604,-0.002 -0.0079,0 -0.00186,0.002 0.00186,0.006 0,0.008 -0.00186,0.002 -0.00672,-0.002 -0.0079,0 -0.00316,0.006 0.00316,0.0174 0,0.0237 -0.00166,0.003 -0.00623,0.005 -0.0079,0.008 -0.00118,0.002 0.00118,0.006 0,0.008 -0.00166,0.003 -0.00623,0.005 -0.0079,0.008 -0.00261,0.005 0.00178,0.0263 0,0.0316 -0.00118,0.004 -0.00623,0.005 -0.0079,0.008 -0.00235,0.005 0,0.0105 0,0.0158 0,0.0184 0,0.0369 0,0.0553 0,0.006 0.00201,0.0177 0,0.0237 -0.00186,0.006 -0.00604,0.0102 -0.0079,0.0158 -0.00217,0.007 0,0.0401 0,0.0474 0,0.029 0,0.0579 0,0.0869 0,0.029 0,0.0579 0,0.0869 0,0.003 0,0.005 0,0.008 0,0.003 -0.00186,0.006 0,0.008 0.00186,0.002 0.00672,-0.002 0.0079,0 0.00312,0.006 -0.00315,0.0332 0,0.0395 0.00166,0.003 0.00623,0.005 0.0079,0.008 0.00118,0.002 -0.00118,0.006 0,0.008 0.00166,0.003 0.00623,0.005 0.0079,0.008 0.00118,0.002 -0.00186,0.006 0,0.008 0.00186,0.002 0.00604,-0.002 0.0079,0 0.00186,0.002 -0.00118,0.006 0,0.008 0.00166,0.003 0.00623,0.005 0.0079,0.008 0.00238,0.005 -0.00365,0.02 0,0.0237 0.00186,0.002 0.00604,-0.002 0.0079,0 0.00186,0.002 -0.00186,0.006 0,0.008 0.00416,0.004 0.010898,0.005 0.015796,0.008 0.0031,0.002 0.00457,0.006 0.0079,0.008 0.00471,0.002 0.012073,-0.004 0.015796,0 0.00186,0.002 -0.00186,0.006 0,0.008 0.00186,0.002 0.00604,-0.002 0.0079,0 0.016341,0.0163 -0.024972,-6.4e-4 0.0079,0.0158 0.00235,10e-4 0.00604,-0.002 0.0079,0 0.00416,0.004 0.00374,0.0116 0.0079,0.0158 0.00186,0.002 0.00604,-0.002 0.0079,0 0.00186,0.002 -0.00186,0.006 0,0.008 0.00211,0.002 0.021589,-0.002 0.023694,0 0.00372,0.004 -0.00235,0.0111 0,0.0158 0.00235,0.005 0.011087,-0.002 0.015796,0 0.00333,0.002 0.00457,0.006 0.0079,0.008 0.00235,0.001 0.00554,-10e-4 0.0079,0 0.00333,0.002 0.00437,0.007 0.0079,0.008 0.005,0.002 0.010801,-0.002 0.015796,0 0.00313,0.001 0.012663,0.0147 0.015796,0.0158 0.00668,0.002 0.033897,-0.003 0.03949,0 0.00333,0.002 0.00457,0.006 0.0079,0.008 0.00471,0.002 0.011087,-0.002 0.015796,0 0.00333,0.002 0.00457,0.006 0.0079,0.008 0.00632,0.003 0.017376,-0.003 0.023694,0 0.00333,0.002 0.00457,0.006 0.0079,0.008 0.00632,0.003 0.017376,-0.003 0.023694,0 0.00333,0.002 0.00527,0.005 0.0079,0.008 0.00527,0 0.010801,-0.002 0.015796,0 0.00353,10e-4 0.00457,0.006 0.0079,0.008 0.00286,10e-4 0.033997,0 0.03949,0 0.028959,0 0.057919,0 0.086878,0 0.050021,0 0.1000415,0 0.1500622,0 0.00495,0 0.030616,9.7e-4 0.031592,0 0.00186,-0.002 -0.00186,-0.006 0,-0.008 0.00186,-0.002 0.00554,10e-4 0.0079,0 0.00333,-0.002 0.00527,-0.005 0.0079,-0.008 0.00263,-0.003 0.00623,-0.005 0.0079,-0.008 0.00118,-0.002 -0.00186,-0.006 0,-0.008 0.00186,-0.002 0.00554,10e-4 0.0079,0 0.00333,-0.002 0.00457,-0.006 0.0079,-0.008 0.00471,-0.002 0.012073,0.004 0.015796,0 0.00186,-0.002 -0.00186,-0.006 0,-0.008 0.00186,-0.002 0.00554,10e-4 0.0079,0 0.00333,-0.002 0.00457,-0.006 0.0079,-0.008 0.00471,-0.002 0.012073,0.004 0.015796,0 0.00671,-0.007 0.00987,-0.0163 0.015796,-0.0237 0.00465,-0.006 0.010531,-0.0105 0.015796,-0.0158 0.013163,-0.0132 0.026327,-0.0263 0.03949,-0.0395 0.00527,-0.005 0.012466,-0.009 0.015796,-0.0158 0.00118,-0.002 -0.00186,-0.006 0,-0.008 0.016341,-0.0164 -6.377e-4,0.025 0.015796,-0.008 0.00118,-0.002 -0.00186,-0.006 0,-0.008 0.00186,-0.002 0.00672,0.002 0.0079,0 0.00235,-0.005 -0.00166,-0.0108 0,-0.0158 0.00489,-0.0147 0.016798,-0.002 0.023694,-0.0158 0.00118,-0.002 -0.00118,-0.006 0,-0.008 0.00166,-0.003 0.00672,-0.004 0.0079,-0.008 0.00166,-0.005 -0.00166,-0.0108 0,-0.0158 0.00822,-0.0247 0.00527,0.003 0.015796,-0.008 0.00372,-0.004 -0.00235,-0.0111 0,-0.0158 0.00166,-0.003 0.00623,-0.005 0.0079,-0.008 0.0019,-0.004 0,-0.0261 0,-0.0316 0,-0.0211 0,-0.0421 0,-0.0632 0,-0.005 -0.0019,-0.0278 0,-0.0316 0.00166,-0.003 0.00623,-0.005 0.0079,-0.008 0.00353,-0.007 -0.0025,-0.0162 0,-0.0237 0.00118,-0.004 0.00623,-0.005 0.0079,-0.008 0.0019,-0.004 0,-0.0261 0,-0.0316 0,-0.0237 0,-0.0474 0,-0.0711 0,-0.005 0.00191,-0.0515 0,-0.0553 -0.00333,-0.007 -0.012466,-0.009 -0.015796,-0.0158 -0.00118,-0.002 0.00118,-0.006 0,-0.008 -0.00166,-0.003 -0.00672,-0.004 -0.0079,-0.008 -1.2e-5,-3e-5 7.5e-6,-0.0237 0,-0.0237 -0.00186,-0.002 -0.00604,0.002 -0.0079,0 -0.00186,-0.002 0.00186,-0.006 0,-0.008 -0.00186,-0.002 -0.00604,0.002 -0.0079,0 -0.00372,-0.004 0.00235,-0.0111 0,-0.0158 -0.00166,-0.003 -0.00623,-0.005 -0.0079,-0.008 -0.00118,-0.002 0.00118,-0.006 0,-0.008 -0.00166,-0.003 -0.00623,-0.005 -0.0079,-0.008 -0.00118,-0.002 0.00186,-0.006 0,-0.008 -0.00186,-0.002 -0.00554,10e-4 -0.0079,0 -0.0021,-0.001 -0.022645,-0.0216 -0.023694,-0.0237 -0.00118,-0.002 0.00186,-0.006 0,-0.008 -0.00186,-0.002 -0.00554,10e-4 -0.0079,0 -0.00333,-0.002 -0.00457,-0.006 -0.0079,-0.008 -0.00235,-0.001 -0.00604,0.002 -0.0079,0 -0.00186,-0.002 0.00118,-0.006 0,-0.008 -0.016435,-0.0329 5.45e-4,0.008 -0.015796,-0.008 -0.016341,-0.0163 0.024972,6.3e-4 -0.0079,-0.0158 -0.00235,-10e-4 -0.00554,0.001 -0.0079,0 -0.00333,-0.002 -0.00457,-0.006 -0.0079,-0.008 -0.00235,-0.001 -0.00604,0.002 -0.0079,0 -0.00186,-0.002 0.00186,-0.006 0,-0.008 -0.00186,-0.002 -0.00604,0.002 -0.0079,0 -0.00186,-0.002 0.00186,-0.006 0,-0.008 -0.00186,-0.002 -0.00604,0.002 -0.0079,0 -0.00186,-0.002 0.00186,-0.006 0,-0.008 -0.00372,-0.004 -0.012073,0.004 -0.015796,0 -0.00186,-0.002 0.00186,-0.006 0,-0.008 -0.00395,-0.004 -0.019745,0.004 -0.023694,0 -0.00186,-0.002 0.00118,-0.006 0,-0.008 -0.00166,-0.003 -0.00527,-0.005 -0.0079,-0.008 -0.00263,-0.003 -0.00457,-0.006 -0.0079,-0.008 -0.00471,-0.002 -0.012073,0.004 -0.015796,0 -0.00186,-0.002 0.00186,-0.006 0,-0.008 -0.00372,-0.004 -0.011087,0.002 -0.015796,0 -0.00666,-0.003 -0.00914,-0.0125 -0.015796,-0.0158 -0.00235,-10e-4 -0.00554,0.001 -0.0079,0 -0.00333,-0.002 -0.00457,-0.006 -0.0079,-0.008 -0.00471,-0.002 -0.012073,0.004 -0.015796,0 -0.00186,-0.002 0.00186,-0.006 0,-0.008 -0.00209,-0.002 -0.020442,0 -0.023694,0 -0.026326,0 -0.052653,0 -0.07898,0 -0.011625,0 -0.028428,-0.002 -0.03949,0 -0.010644,0.002 -0.021061,0.005 -0.031592,0.008 z"
       id="path4501"
       inkscape:connector-curvature="0" />
    <path
       style="fill:none;fill-opacity:1;stroke:#ffffff;stroke-width:0.13229166;stroke-miterlimit:4;stroke-dasharray:none"
       d="m 2.0297925,294.18403 c 0.028958,0.0277 0.059271,0.0542 0.086874,0.0833 0.00181,0.002 -0.00604,-0.002 -0.0079,0 -0.00186,0.002 0,0.005 0,0.008 -0.00263,0 -0.00604,-0.002 -0.0079,0 -3.175e-4,3.2e-4 0,0.0287 0,0.0316 0,0.0421 0,0.0842 0,0.12637 0,0.0526 0,0.10531 0,0.15796 0,0.0184 0,0.0369 0,0.0553 0,0.005 0.00235,0.0111 0,0.0158 -0.00166,0.003 -0.00623,0.005 -0.0079,0.008 -0.00183,0.004 0,0.0253 0,0.0316 0,0.0263 0,0.0527 0,0.079 0,0.0421 0,0.0842 0,0.12637 0,0.0184 0,0.0369 0,0.0553 0,0.005 0.00235,0.0111 0,0.0158 -0.00166,0.003 -0.00623,0.005 -0.0079,0.008 -0.00235,0.005 0,0.0105 0,0.0158 0,0.0211 0,0.0421 0,0.0632 0,0.002 8.864e-4,0.0298 0,0.0316 -0.00166,0.003 -0.00623,0.005 -0.0079,0.008 -0.00284,0.006 0.00284,0.0496 0,0.0553 -0.00166,0.003 -0.00623,0.005 -0.0079,0.008 -8.864e-4,0.002 0,0.0297 0,0.0316 0,0.003 0.00169,0.0361 0,0.0395 -0.00166,0.003 -0.00623,0.005 -0.0079,0.008 -0.00244,0.005 0.00234,0.0292 0,0.0316 -0.00186,0.002 -0.00604,-0.002 -0.0079,0 -0.00186,0.002 0,0.005 0,0.008 0,0.003 0,0.005 0,0.008 0,0.0263 0,0.0527 0,0.079 -0.010525,0.0155 -0.021051,0.0309 -0.031576,0.0464 -0.00263,0 -0.00554,-0.001 -0.0079,0 -0.00333,0.002 -0.00623,0.005 -0.0079,0.008 -0.00118,0.002 0.00186,0.006 0,0.008 -0.00186,0.002 -0.00604,-0.002 -0.0079,0 -0.00186,0.002 0.00186,0.006 0,0.008 -0.00186,0.002 -0.00604,-0.002 -0.0079,0 -0.00186,0.002 0.00186,0.006 0,0.008 -0.00416,0.004 -0.011633,0.004 -0.015796,0.008 -0.00186,0.002 0.00235,0.007 0,0.008 -0.00471,0.002 -0.011087,-0.002 -0.015796,0 -0.00235,0.001 0.00186,0.006 0,0.008 -0.00186,0.002 -0.00527,0 -0.0079,0 -0.00263,0.005 -0.00374,0.0116 -0.0079,0.0158 -0.00186,0.002 -0.00571,-0.001 -0.0079,0 -0.0062,0.004 -0.010531,0.0105 -0.015796,0.0158 -0.010531,0.0105 -0.021061,0.0211 -0.031592,0.0316 -0.00527,0.005 -0.0096,0.0117 -0.015796,0.0158 -0.0049,0.003 -0.010531,0.005 -0.015796,0.008 -0.0079,0.008 -0.014758,0.017 -0.023694,0.0237 -0.00211,0.002 -0.00554,-0.001 -0.0079,0 -0.00333,0.002 -0.00492,0.006 -0.0079,0.008 -0.00759,0.006 -0.0161,0.0101 -0.023694,0.0158 -0.024193,0.0181 0.01295,-0.005 -0.015796,0.0237 -0.00416,0.004 -0.011633,0.004 -0.015796,0.008 -0.00186,0.002 0,0.005 0,0.008 -0.00263,0.003 -0.0048,0.006 -0.0079,0.008 -0.063184,0.0421 0.028959,-0.029 -0.023694,0.0237 -0.00186,0.002 -0.00604,-0.002 -0.0079,0 -0.00416,0.004 -0.00374,0.0116 -0.0079,0.0158 -0.00416,0.004 -0.012531,0.003 -0.015796,0.008 -0.00292,0.004 0,0.0105 0,0.0158 -0.00527,0.005 -0.010531,0.0105 -0.015796,0.0158 -0.00263,0.003 -0.00457,0.006 -0.0079,0.008 -0.00235,0.001 -0.00604,-0.002 -0.0079,0 -0.00186,0.002 0.00146,0.006 0,0.008 0.019489,0.0239 -0.021483,0.0136 -0.023694,0.0158 -0.00416,0.004 -0.00374,0.0116 -0.0079,0.0158 -0.00416,0.004 -0.011633,0.004 -0.015796,0.008 -0.00186,0.002 0.00186,0.006 0,0.008 -0.00186,0.002 -0.00554,-0.001 -0.0079,0 -0.00333,0.002 -0.00457,0.006 -0.0079,0.008 -0.00235,0.001 -0.00554,-0.001 -0.0079,0 -0.017463,0.009 -0.00245,0.005 -0.0079,0.0158 -0.00141,0.003 -0.028307,0.0294 -0.031592,0.0316 -0.057265,0.0286 0.012488,-0.008 -0.023694,0.0158 -0.0049,0.003 -0.011633,0.004 -0.015796,0.008 -0.00416,0.004 -0.00374,0.0116 -0.0079,0.0158 -0.00186,0.002 -0.00554,-0.001 -0.0079,0 -0.012096,0.006 -0.00618,0.0141 -0.015796,0.0237 -0.00186,0.002 -0.00604,-0.002 -0.0079,0 -0.00416,0.004 -0.00374,0.0116 -0.0079,0.0158 -0.00186,0.002 -0.00604,-0.002 -0.0079,0 -0.00186,0.002 0.00186,0.006 0,0.008 -0.00416,0.004 -0.011633,0.004 -0.015796,0.008 -0.00186,0.002 0.00118,0.006 0,0.008 -0.00873,0.0175 -0.0049,0.002 -0.015796,0.008 -0.00333,0.002 -0.00527,0.005 -0.0079,0.008 -0.00263,0.003 -0.00623,0.005 -0.0079,0.008 -0.00235,0.005 0.00372,0.0121 0,0.0158 -0.00186,0.002 -0.00554,-0.001 -0.0079,0 -0.012096,0.006 -0.00618,0.0141 -0.015796,0.0237 -0.00186,0.002 -0.00554,-0.001 -0.0079,0 -0.017463,0.009 -0.00245,0.005 -0.0079,0.0158 -0.016435,0.0329 5.453e-4,-0.008 -0.015796,0.008 -0.00186,0.002 0.00186,0.006 0,0.008 -0.00416,0.004 -0.011633,0.004 -0.015796,0.008 -0.00186,0.002 0.00186,0.006 0,0.008 -0.016341,0.0163 6.388e-4,-0.025 -0.015796,0.008 -0.00118,0.002 0.00118,0.006 0,0.008 -0.00167,0.003 -0.00623,0.005 -0.0079,0.008 -0.00235,0.005 0.00235,0.0111 0,0.0158 -0.00873,0.0175 -0.0049,0.002 -0.015796,0.008 -0.03287,0.0164 0.00844,-5.5e-4 -0.0079,0.0158 -0.00186,0.002 -0.00604,-0.002 -0.0079,0 -0.00372,0.004 0.00372,0.0121 0,0.0158 -0.00186,0.002 -0.00604,-0.002 -0.0079,0 -0.00186,0.002 0.00186,0.006 0,0.008 -0.00186,0.002 -0.00604,-0.002 -0.0079,0 -0.00186,0.002 0.00186,0.006 0,0.008 -0.00186,0.002 -0.00604,-0.002 -0.0079,0 -0.00372,0.004 0.00372,0.0121 0,0.0158 -0.00186,0.002 -0.00604,-0.002 -0.0079,0 -0.00186,0.002 0.00186,0.006 0,0.008 -0.00186,0.002 -0.00604,-0.002 -0.0079,0 -0.00186,0.002 -0.00186,0.006 0,0.008 0.00186,0.002 0.00604,0.002 0.0079,0 0.00186,-0.002 -0.00146,-0.006 0,-0.008 0.00413,-0.006 0.010531,-0.0105 0.015796,-0.0158"
       id="path4503"
       inkscape:connector-curvature="0" />
    <path
       style="fill:none;fill-opacity:1;stroke:#ffffff;stroke-width:0.13229166;stroke-miterlimit:4;stroke-dasharray:none"
       d="m 2.0534665,295.37403 c 0.018434,0.0234 0.038088,0.0458 0.055302,0.0701 0.00152,0.002 -0.00118,0.006 0,0.008 0.00166,0.003 0.00623,0.005 0.0079,0.008 0.00118,0.002 -0.00118,0.006 0,0.008 0.016435,0.0329 -5.45e-4,-0.008 0.015796,0.008 0.00416,0.004 0.00463,0.0109 0.0079,0.0158 0.00207,0.003 0.00623,0.005 0.0079,0.008 0.00118,0.002 -0.00186,0.006 0,0.008 0.00186,0.002 0.00604,-0.002 0.0079,0 0.00416,0.004 0.00463,0.0109 0.0079,0.0158 0.0064,0.01 0.02293,0.0229 0.031592,0.0316 0.00263,0.003 0.00623,0.005 0.0079,0.008 0.00118,0.002 -0.00118,0.006 0,0.008 0.016435,0.0329 -5.45e-4,-0.008 0.015796,0.008 0.00372,0.004 -0.00372,0.0121 0,0.0158 0.00186,0.002 0.00604,-0.002 0.0079,0 0.00186,0.002 -0.00118,0.006 0,0.008 0.016435,0.0329 -5.45e-4,-0.008 0.015796,0.008 0.016341,0.0163 -0.024972,-6.3e-4 0.0079,0.0158 0.00745,0.004 0.016248,0.004 0.023694,0.008 0.03287,0.0164 -0.00844,-5.5e-4 0.0079,0.0158 0.00416,0.004 0.011087,0.004 0.015796,0.008 0.00894,0.007 0.0144,0.0175 0.023694,0.0237 0.0049,0.003 0.011633,0.004 0.015796,0.008 0.00416,0.004 0.00374,0.0116 0.0079,0.0158 0.00186,0.002 0.00672,-0.002 0.0079,0 0.00235,0.005 -0.00235,0.0111 0,0.0158 0.00118,0.002 0.00604,-0.002 0.0079,0 0.00186,0.002 -0.00186,0.006 0,0.008 0.00186,0.002 0.00554,-10e-4 0.0079,0 0.03287,0.0164 -0.00844,-5.6e-4 0.0079,0.0158 0.00186,0.002 0.00527,0 0.0079,0 0,0.003 -0.00118,0.006 0,0.008 0.00166,0.003 0.00527,0.005 0.0079,0.008 0.00263,0.003 0.00457,0.006 0.0079,0.008 0.00235,10e-4 0.00604,-0.002 0.0079,0 0.00186,0.002 -0.00146,0.006 0,0.008 0.00413,0.006 0.011665,0.01 0.015796,0.0158 0.00146,0.002 -0.00118,0.006 0,0.008 0.00424,0.008 0.010912,0.0155 0.015796,0.0237 0.00303,0.005 0.00374,0.0116 0.0079,0.0158 0.00186,0.002 0.00672,-0.002 0.0079,0 0.00235,0.005 -0.00166,0.0108 0,0.0158 0.00822,0.0247 0.00527,-0.003 0.015796,0.008 0.00186,0.002 -0.00118,0.006 0,0.008 0.00166,0.003 0.00623,0.005 0.0079,0.008 0.00118,0.002 -0.00186,0.006 0,0.008 0.00186,0.002 0.00604,-0.002 0.0079,0 0.00186,0.002 -0.00118,0.006 0,0.008 0.016435,0.0329 -5.451e-4,-0.008 0.015796,0.008 0.00186,0.002 0,0.005 0,0.008 0.00263,0 0.00571,-0.001 0.0079,0 0.042608,0.0284 -0.00544,0.002 0.023694,0.0316 0.00186,0.002 0.00604,-0.002 0.0079,0 0.00416,0.004 0.00374,0.0116 0.0079,0.0158 0.00186,0.002 0.00604,-0.002 0.0079,0 0.00186,0.002 -0.00186,0.006 0,0.008 0.00186,0.002 0.00604,-0.002 0.0079,0 0.00186,0.002 -0.00118,0.006 0,0.008 0.00166,0.003 0.00623,0.005 0.0079,0.008 0.00118,0.002 -0.00186,0.006 0,0.008 0.00416,0.004 0.011633,0.004 0.015796,0.008 0.00186,0.002 -0.00186,0.006 0,0.008 0.00186,0.002 0.00604,-0.002 0.0079,0 0.00372,0.004 -0.00235,0.0111 0,0.0158 0.016435,0.0329 -5.45e-4,-0.008 0.015796,0.008 0.00226,0.002 -0.00357,0.0201 0.0079,0.0316 0.00186,0.002 0.00554,-0.001 0.0079,0 0.00333,0.002 0.00527,0.005 0.0079,0.008 0.00263,0.003 0.00623,0.005 0.0079,0.008 0.019055,0.01 0.0019,0.0275 0.0079,0.0395 0.00116,0.002 0.00644,-0.002 0.0079,0 0.00462,0.007 0.00418,0.0163 0.0079,0.0237 0.00333,0.007 0.011666,0.01 0.015796,0.0158 0.032564,0.0489 -0.016769,-0.0172 0.015796,0.0316 0.00413,0.006 0.012467,0.009 0.015796,0.0158 0.00412,0.008 -0.00412,0.008 0,0.0158 0.00333,0.007 0.012467,0.009 0.015796,0.0158 0.00235,0.005 -0.00372,0.0121 0,0.0158 0.00185,0.002 0.00604,-0.002 0.0079,0 0.0019,0.002 -0.00191,0.0297 0,0.0316 0.00185,0.002 0.00527,0 0.0079,0"
       id="path4505"
       inkscape:connector-curvature="0" />
    <path
       style="fill:none;fill-opacity:1;stroke:#ffffff;stroke-width:0.13229166;stroke-miterlimit:4;stroke-dasharray:none"
       d="m 2.0850665,294.98643 c 0.028962,-0.066 0.056748,-0.13244 0.086886,-0.19787 0.00558,-0.0121 0.022719,-0.0105 0.031592,-0.0158 0.00639,-0.004 0.0096,-0.0117 0.015796,-0.0158 0.00219,-10e-4 0.00554,0.001 0.0079,0 0.00333,-0.002 0.0048,-0.006 0.0079,-0.008 0.0049,-0.003 0.011634,-0.004 0.015796,-0.008 0.00186,-0.002 -0.00186,-0.006 0,-0.008 0.00416,-0.004 0.010898,-0.005 0.015796,-0.008 0.0062,-0.004 0.010531,-0.0105 0.015796,-0.0158 0.0079,-0.008 0.015796,-0.0158 0.023694,-0.0237 0.00519,-0.005 0.020723,-0.0178 0.023694,-0.0237 0.00118,-0.002 -0.00186,-0.006 0,-0.008 0.00186,-0.002 0.00604,0.002 0.0079,0 0.00186,-0.002 -0.00186,-0.006 0,-0.008 0.00186,-0.002 0.00604,0.002 0.0079,0 0.00416,-0.004 0.003,-0.0125 0.0079,-0.0158 0.00438,-0.003 0.010801,0.002 0.015796,0 0.00907,-0.003 0.010958,-0.0189 0.015796,-0.0237 0.00186,-0.002 0.00554,10e-4 0.0079,0 0.00333,-0.002 0.0048,-0.006 0.0079,-0.008 0.0098,-0.007 0.021796,-0.009 0.031592,-0.0158 0.0031,-0.002 0.00457,-0.006 0.0079,-0.008 0.00235,-10e-4 0.00571,0.001 0.0079,0 0.0062,-0.004 0.0096,-0.0117 0.015796,-0.0158 0.00219,-10e-4 0.00554,0.001 0.0079,0 0.00333,-0.002 0.00457,-0.006 0.0079,-0.008 0.00235,-10e-4 0.00554,0.001 0.0079,0 0.00948,-0.005 0.014216,-0.019 0.023694,-0.0237 0.00235,-10e-4 0.00554,0.001 0.0079,0 0.00333,-0.002 0.00457,-0.006 0.0079,-0.008 0.019452,-0.01 -0.00713,0.0229 0.023694,-0.008 0.00186,-0.002 -0.00186,-0.006 0,-0.008 0.00186,-0.002 0.00554,0.001 0.0079,0 0.020065,-0.01 -0.00809,-0.009 0.023694,-0.0158 0.00774,-0.002 0.017123,0.004 0.023694,0 0.00438,-0.003 -0.00438,-0.0129 0,-0.0158 0.00657,-0.004 0.015949,0.002 0.023694,0 0.014295,0.005 0.014689,-0.0128 0.023694,-0.0158 0.005,-0.002 0.0108,0.002 0.015796,0 0.00706,-0.002 0.00914,-0.0125 0.015796,-0.0158 0.00235,-10e-4 0.00604,0.002 0.0079,0 0.00185,-0.002 -0.00235,-0.007 0,-0.008 0.035954,0 4.498e-4,0.004 0.023694,-0.008 0.00235,-0.001 0.00604,0.002 0.0079,0 0.00185,-0.002 -0.00235,-0.007 0,-0.008 0.00471,-0.002 0.011414,0.003 0.015796,0 0.0049,-0.003 0.00374,-0.0116 0.0079,-0.0158 0.00185,-0.002 0.00604,0.002 0.0079,0 0.00185,-0.002 -0.00185,-0.006 0,-0.008 0.00372,-0.004 0.011086,0.002 0.015796,0 0.00948,-0.005 0.014216,-0.019 0.023693,-0.0237 0.00235,-0.001 0.00604,0.002 0.0079,0 0.00416,-0.004 0.00374,-0.0116 0.0079,-0.0158 0.00185,-0.002 0.00554,10e-4 0.0079,0 0.00333,-0.002 0.00457,-0.006 0.0079,-0.008 0.00235,-0.001 0.00604,0.002 0.0079,0 0.00185,-0.002 -0.00185,-0.006 0,-0.008 0.00416,-0.004 0.011634,-0.004 0.015796,-0.008 0.00185,-0.002 -0.00185,-0.006 0,-0.008 0.00185,-0.002 0.00604,0.002 0.0079,0 0.01053,-0.0105 -0.013163,-0.008 0.0079,-0.008"
       id="path4507"
       inkscape:connector-curvature="0" />
    <path
       style="fill:none;fill-opacity:1;stroke:#ffffff;stroke-width:0.13229166;stroke-miterlimit:4;stroke-dasharray:none"
       d="m 2.0850665,294.98643 c -0.010528,-0.0502 -0.021056,-0.10032 -0.031584,-0.15048 -0.00263,-0.003 -0.00623,-0.005 -0.0079,-0.008 -0.00235,-0.005 0.00372,-0.0121 0,-0.0158 -0.00186,-0.002 -0.00554,0.001 -0.0079,0 -0.00723,-0.004 -0.013872,-0.0179 -0.015796,-0.0237 -8.334e-4,-0.002 0.00118,-0.006 0,-0.008 -0.00333,-0.007 -0.012466,-0.009 -0.015796,-0.0158 -0.00118,-0.002 0.00118,-0.006 0,-0.008 -0.00166,-0.003 -0.00583,-0.005 -0.0079,-0.008 -0.00327,-0.005 -0.00463,-0.0109 -0.0079,-0.0158 -0.00207,-0.003 -0.00623,-0.005 -0.0079,-0.008 -0.00118,-0.002 0.00186,-0.006 0,-0.008 -0.00186,-0.002 -0.00554,10e-4 -0.0079,0 -0.00333,-0.002 -0.00527,-0.005 -0.0079,-0.008 -0.00263,-0.003 -0.00623,-0.005 -0.0079,-0.008 -0.00545,-0.0109 0.00956,-0.007 -0.0079,-0.0158 -0.00235,-10e-4 -0.00527,0 -0.0079,0 -0.00527,-0.005 -0.0096,-0.0117 -0.015796,-0.0158 -0.00219,-10e-4 -0.00604,0.002 -0.0079,0 -0.00416,-0.004 -0.00373,-0.0116 -0.0079,-0.0158 -0.00416,-0.004 -0.011087,-0.004 -0.015796,-0.008 -0.00596,-0.004 -0.00941,-0.012 -0.015796,-0.0158 -0.00771,-0.005 -0.031498,-0.008 -0.03949,-0.0158 -0.00186,-0.002 0.00146,-0.006 0,-0.008 -0.00328,-0.005 -0.042722,-0.0443 -0.047388,-0.0474 -0.0049,-0.003 -0.011633,-0.004 -0.015796,-0.008 -0.00186,-0.002 0.00235,-0.007 0,-0.008 -0.00471,-0.002 -0.011087,0.002 -0.015796,0 -0.00235,-10e-4 0.00118,-0.006 0,-0.008 -0.00166,-0.003 -0.00623,-0.005 -0.0079,-0.008 -0.00118,-0.002 0.00186,-0.006 0,-0.008 -0.00416,-0.004 -0.011633,-0.004 -0.015796,-0.008 -0.00416,-0.004 -0.003,-0.0125 -0.0079,-0.0158 -0.00438,-0.003 -0.012073,0.004 -0.015796,0 -0.00372,-0.004 0.00372,-0.0121 0,-0.0158 -0.00372,-0.004 -0.011415,0.003 -0.015796,0 -0.014471,-0.01 -6.297e-4,-0.0176 -0.015795,-0.0237 -0.010079,-0.004 -0.021429,-0.004 -0.031592,-0.008 -0.016536,-0.006 -0.031592,-0.0158 -0.047388,-0.0237 -0.010531,-0.005 -0.023267,-0.007 -0.031592,-0.0158 -0.00833,-0.008 -0.00844,-0.0224 -0.015796,-0.0316 -0.00436,-0.005 -0.036917,-0.0148 -0.03949,-0.0158 -0.010932,-0.004 -0.021796,-0.009 -0.031592,-0.0158 -0.0062,-0.004 -0.00914,-0.0125 -0.015796,-0.0158 -0.00477,-0.002 -0.020043,0.004 -0.023694,0 -0.00186,-0.002 -0.00263,-0.008 0,-0.008 0.00263,0 0.00263,0.008 0,0.008 -0.00372,0 -0.00623,-0.005 -0.0079,-0.008 -0.00118,-0.002 0.00186,-0.006 0,-0.008 -0.010531,-0.0105 -0.0079,0.0132 -0.0079,-0.008"
       id="path4509"
       inkscape:connector-curvature="0" />
  </g>
</svg>
