<?xml version="1.0" encoding="UTF-8" standalone="no"?>
<!-- Created with Inkscape (http://www.inkscape.org/) -->

<svg
   xmlns:dc="http://purl.org/dc/elements/1.1/"
   xmlns:cc="http://creativecommons.org/ns#"
   xmlns:rdf="http://www.w3.org/1999/02/22-rdf-syntax-ns#"
   xmlns:svg="http://www.w3.org/2000/svg"
   xmlns="http://www.w3.org/2000/svg"
   xmlns:sodipodi="http://sodipodi.sourceforge.net/DTD/sodipodi-0.dtd"
   xmlns:inkscape="http://www.inkscape.org/namespaces/inkscape"
   width="32"
   height="32"
   viewBox="0 0 8.4666667 8.4666667"
   version="1.1"
   id="svg4517"
   inkscape:version="0.92.1 r15371"
   sodipodi:docname="Options.svg"
   inkscape:export-filename="C:\Unity\Gods Fate\Assets\Graphics\Icons\Options.png"
   inkscape:export-xdpi="96"
   inkscape:export-ydpi="96">
  <defs
     id="defs4511" />
  <sodipodi:namedview
     id="base"
     pagecolor="#ffffff"
     bordercolor="#666666"
     borderopacity="1.0"
     inkscape:pageopacity="0.0"
     inkscape:pageshadow="2"
     inkscape:zoom="16.75"
     inkscape:cx="4.358209"
     inkscape:cy="16"
     inkscape:document-units="mm"
     inkscape:current-layer="layer1"
     showgrid="false"
     units="px"
     inkscape:window-width="1920"
     inkscape:window-height="1017"
     inkscape:window-x="-8"
     inkscape:window-y="-8"
     inkscape:window-maximized="1" />
  <metadata
     id="metadata4514">
    <rdf:RDF>
      <cc:Work
         rdf:about="">
        <dc:format>image/svg+xml</dc:format>
        <dc:type
           rdf:resource="http://purl.org/dc/dcmitype/StillImage" />
        <dc:title></dc:title>
      </cc:Work>
    </rdf:RDF>
  </metadata>
  <g
     inkscape:label="Calque 1"
     inkscape:groupmode="layer"
     id="layer1"
     transform="translate(0,-288.53333)">
    <path
       style="fill:none;stroke:#000000;stroke-width:0.26458332px;stroke-linecap:butt;stroke-linejoin:miter;stroke-opacity:1"
       d="m 2.369403,294.01455 c -0.012378,-0.0542 0.06233,-0.0457 0.07898,-0.079 0.00745,-0.0149 0.00835,-0.0325 0.015796,-0.0474 0.00333,-0.007 0.011328,-0.01 0.015796,-0.0158 0.011391,-0.0152 0.020202,-0.0322 0.031592,-0.0474 0.00447,-0.006 0.011665,-0.01 0.015796,-0.0158 0.00653,-0.01 0.00873,-0.0222 0.015796,-0.0316 0.013403,-0.0179 0.034997,-0.0288 0.047388,-0.0474 0.013062,-0.0196 0.014942,-0.0465 0.031592,-0.0632 0.00833,-0.008 0.023267,-0.007 0.031592,-0.0158 0.013425,-0.0134 0.020201,-0.0322 0.031592,-0.0474 0.02032,-0.0271 0.011271,-0.004 0.031592,-0.0316 0.01139,-0.0152 0.018169,-0.034 0.031592,-0.0474 0.00833,-0.008 0.024527,-0.006 0.031592,-0.0158 0.00999,-0.0133 0.00723,-0.0331 0.015796,-0.0474 0.00766,-0.0128 0.022656,-0.0197 0.031592,-0.0316 0.00706,-0.009 0.01053,-0.0211 0.015796,-0.0316 0.010531,-0.0158 0.020201,-0.0322 0.031592,-0.0474 0.00447,-0.006 0.01375,-0.009 0.015796,-0.0158 0.00754,-0.0264 0.011382,-0.10848 0.031592,-0.14216 0.015325,-0.0255 0.04786,-0.0376 0.063184,-0.0632 0.040188,-0.018 0.00249,-0.0557 0.015796,-0.079 0.016727,-0.0293 0.043588,-0.0515 0.063184,-0.079 0.00684,-0.01 0.00747,-0.0233 0.015796,-0.0316 0.038365,-0.0384 0.023196,0.005 0.047388,-0.0316 0.00653,-0.01 0.00927,-0.0218 0.015796,-0.0316 0.01239,-0.0186 0.031592,-0.0316 0.047388,-0.0474 0.00527,-0.005 0.00984,-0.0113 0.015796,-0.0158 0.015187,-0.0114 0.037969,-0.0151 0.047388,-0.0316 0.013322,-0.0233 0.00379,-0.055 0.015796,-0.079 0.00527,-0.0105 0.026326,-0.005 0.031592,-0.0158 0.049805,-0.24903 -0.022119,0.003 0.047388,-0.0948 0.020529,-0.0287 0.033043,-0.0625 0.047388,-0.0948 0.00676,-0.0152 0.00402,-0.0356 0.015796,-0.0474 0.011774,-0.0118 0.034597,-0.005 0.047388,-0.0158 0.020225,-0.0169 0.032784,-0.0413 0.047388,-0.0632 0.00653,-0.01 0.00581,-0.0254 0.015796,-0.0316 0.034004,-0.0213 0.078492,-0.0233 0.110572,-0.0474 0.013322,-0.01 0.00402,-0.0356 0.015796,-0.0474 0.011774,-0.0118 0.035614,-0.004 0.047388,-0.0158 0.011774,-0.0118 0.00656,-0.0335 0.015796,-0.0474 0.016521,-0.0248 0.046662,-0.0384 0.063184,-0.0632 0.00653,-0.01 0.00747,-0.0233 0.015796,-0.0316 0.00372,-0.004 0.012073,0.004 0.015796,0 0.028545,-0.0285 0.018143,-0.1062 0.031592,-0.12637 0.00876,-0.0131 0.034751,0.009 0.047388,0 0.013322,-0.01 0.0058,-0.0341 0.015796,-0.0474 0.00706,-0.009 0.023267,-0.007 0.031592,-0.0158 0.1038616,-0.10387 -0.029696,0.008 0.047388,-0.0948 0.014129,-0.0188 0.046534,-0.0149 0.063184,-0.0316 0.013425,-0.0134 0.020201,-0.0322 0.031592,-0.0474 0.00447,-0.006 0.011666,-0.01 0.015796,-0.0158 0.00653,-0.01 0.00927,-0.0218 0.015796,-0.0316 0.016105,-0.0242 0.021812,-0.0124 0.047388,-0.0316 0.00861,-0.006 0.073181,-0.0703 0.07898,-0.079 0.00292,-0.004 -0.00372,-0.0121 0,-0.0158 0.00833,-0.008 0.023268,-0.007 0.031592,-0.0158 0.00833,-0.008 0.00747,-0.0233 0.015796,-0.0316 0.00833,-0.008 0.023268,-0.007 0.031592,-0.0158 0.016158,-0.0162 0.065275,-0.11951 0.07898,-0.12637 0.049168,-0.0246 0.1139828,-0.0144 0.1579602,-0.0474 0.026641,-0.02 0.019225,-0.0639 0.031592,-0.0948 0.00874,-0.0219 0.016883,-0.0448 0.031592,-0.0632 0.00736,-0.009 0.021495,-0.01 0.031592,-0.0158 0.01628,-0.01 0.033964,-0.0182 0.047388,-0.0316 0.018616,-0.0186 0.030534,-0.043 0.047388,-0.0632 0.00953,-0.0114 0.021061,-0.0211 0.031592,-0.0316 0.00527,-0.005 0.0096,-0.0117 0.015796,-0.0158 0.0098,-0.007 0.023267,-0.007 0.031592,-0.0158 0.00833,-0.008 0.00927,-0.0218 0.015796,-0.0316 0.00413,-0.006 0.012465,-0.009 0.015796,-0.0158 0.00235,-0.005 -0.00235,-0.0111 0,-0.0158 0.00333,-0.007 0.012467,-0.009 0.015796,-0.0158 0.00235,-0.005 -0.00372,-0.0121 0,-0.0158 0.00372,-0.004 0.012073,0.004 0.015796,0 0.00372,-0.004 -0.00167,-0.0108 0,-0.0158 0.038139,-0.11442 -0.00455,0.0249 0.031592,-0.0474 0.00235,-0.005 0,-0.0105 0,-0.0158 -0.01053,-0.0471 -0.021059,-0.0943 -0.031589,-0.14146 0,-0.005 0.00372,-0.0121 0,-0.0158 -0.00833,-0.008 -0.023267,-0.007 -0.031592,-0.0158 -0.00372,-0.004 0.00235,-0.0111 0,-0.0158 -0.00333,-0.007 -0.012466,-0.009 -0.015796,-0.0158 -0.00706,-0.0141 0.005,-0.0324 0,-0.0474 -0.00235,-0.007 -0.012466,-0.009 -0.015796,-0.0158 -0.00471,-0.009 0.00471,-0.0222 0,-0.0316 -0.00333,-0.007 -0.012466,-0.009 -0.015796,-0.0158 -0.00489,-0.01 0.00467,-0.0585 0,-0.0632 -0.00372,-0.004 -0.012073,0.004 -0.015796,0 -0.00372,-0.004 0,-0.0105 0,-0.0158 0,-0.0105 0,-0.0211 0,-0.0316 0,-0.0948 0,-0.18955 0,-0.28432 0,-0.0474 0,-0.0948 0,-0.14217 0,-0.005 0,-0.0105 0,-0.0158 0,-0.005 -0.00372,-0.0121 0,-0.0158 0.00372,-0.004 0.012073,0.004 0.015796,0 0.00745,-0.007 -0.00745,-0.0242 0,-0.0316 0.032683,-0.0327 -0.00128,0.0499 0.031592,-0.0158 0,-0.0421 -0.00527,0.005 0.015796,-0.0158 0.00372,-0.004 -0.00372,-0.0121 0,-0.0158 0.00372,-0.004 0.012073,0.004 0.015796,0 0.00372,-0.004 -0.00372,-0.0121 0,-0.0158 0.032683,-0.0327 -0.00128,0.05 0.031592,-0.0158 0.00235,-0.005 -0.00372,-0.0121 0,-0.0158 0.00372,-0.004 0.012073,0.004 0.015796,0 0.00372,-0.004 -0.00372,-0.0121 0,-0.0158 0.010513,-0.0105 0.021079,0.0105 0.031592,0 0.032683,-0.0327 -0.049943,0.001 0.015796,-0.0316 0.00942,-0.005 0.024146,0.007 0.031592,0 0.00372,-0.004 -0.00372,-0.0121 0,-0.0158 0.00745,-0.007 0.022173,0.005 0.031592,0 0.01332,-0.007 0.017464,-0.0269 0.031592,-0.0316 0.014985,-0.005 0.03326,0.007 0.047388,0 0.00666,-0.003 0.00914,-0.0125 0.015796,-0.0158 0.00942,-0.005 0.021602,0.003 0.031592,0 0.022339,-0.007 0.040845,-0.0242 0.063184,-0.0316 0.010087,-0.003 0.074764,0.004 0.07898,0 0.00372,-0.004 -0.00372,-0.0121 0,-0.0158 1.5e-5,-10e-6 0.047316,3e-5 0.047388,0 0.00706,-0.002 0.00914,-0.0125 0.015796,-0.0158 0.016821,-0.008 0.014771,0.008 0.031592,0 0.00666,-0.003 0.00914,-0.0125 0.015796,-0.0158 0.00761,-0.004 0.05226,0 0.063184,0 0.047388,0 0.094776,0 0.1421642,0 0.0065,0 0.043207,-0.004 0.047388,0 0.00372,0.004 -0.00235,0.0111 0,0.0158 0.03287,0.0657 -0.00109,-0.0169 0.031592,0.0158 0.00372,0.004 -0.00372,0.0121 0,0.0158 0.00372,0.004 0.011087,-0.002 0.015796,0 0.00666,0.003 0.010531,0.0105 0.015796,0.0158 0.00527,0.005 0.012466,0.009 0.015796,0.0158 0.00235,0.005 -0.00471,0.0134 0,0.0158 0.00942,0.005 0.022173,-0.005 0.031592,0 0.042123,0.0211 -0.047388,0.0158 0.015796,0.0158"
       id="path10269"
       inkscape:connector-curvature="0" />
    <path
       style="fill:none;stroke:#000000;stroke-width:0.26458332px;stroke-linecap:butt;stroke-linejoin:miter;stroke-opacity:1"
       d="m 5.7813423,289.7179 c -0.014129,0.002 -0.052035,0.0814 -0.078979,0.0949 -0.00471,0.002 -0.012073,-0.004 -0.015796,0 -0.00372,0.004 0.00372,0.0121 0,0.0158 -0.00372,0.004 -0.011086,-0.002 -0.015796,0 -0.00666,0.003 -0.01053,0.0105 -0.015796,0.0158 -0.00527,0.005 -0.012467,0.009 -0.015796,0.0158 -0.00235,0.005 0.00235,0.0111 0,0.0158 -0.00209,0.004 -0.043194,0.0453 -0.047388,0.0474 -0.00471,0.002 -0.011086,-0.002 -0.015796,0 -0.00666,0.003 -0.00914,0.0125 -0.015796,0.0158 -0.021788,0.0109 -0.014129,-0.0191 -0.031592,0.0158 0,0.0421 0.00527,-0.005 -0.015796,0.0158 -0.00372,0.004 0.00372,0.0121 0,0.0158 -0.032683,0.0327 0.00127,-0.0499 -0.031592,0.0158 -0.00235,0.005 0.00372,0.0121 0,0.0158 -0.00372,0.004 -0.012073,-0.004 -0.015796,0 -0.00372,0.004 0.00372,0.0121 0,0.0158 -0.00372,0.004 -0.012073,-0.004 -0.015796,0 -0.021061,0.0211 0.026326,0.0158 -0.015796,0.0158 0.026327,0.0316 0.049902,0.0657 0.07898,0.0947 0.00372,0.004 0.011087,-0.002 0.015796,0 0.01332,0.007 0.018272,0.0249 0.031592,0.0316 0.00471,0.002 0.012073,-0.004 0.015796,0 0.00372,0.004 -0.00372,0.0121 0,0.0158 0.00745,0.007 0.022173,-0.005 0.031592,0 0.00666,0.003 0.00914,0.0125 0.015796,0.0158 0.00942,0.005 0.022173,-0.005 0.031592,0 0.00666,0.003 0.00914,0.0125 0.015796,0.0158 0.016877,0.008 0.014715,-0.008 0.031592,0 0.00666,0.003 0.00914,0.0125 0.015796,0.0158 0.00942,0.005 0.022173,-0.005 0.031592,0 0.00666,0.003 0.010531,0.0105 0.015796,0.0158 0.00527,0.005 0.012466,0.009 0.015796,0.0158 0.00235,0.005 -0.00235,0.0111 0,0.0158 0.00333,0.007 0.012466,0.009 0.015796,0.0158 0.00235,0.005 -0.00372,0.0121 0,0.0158 0.00372,0.004 0.012073,-0.004 0.015796,0 0.00372,0.004 -0.00372,0.0121 0,0.0158 0.00372,0.004 0.012073,-0.004 0.015796,0 0.00372,0.004 0.00527,0.0158 0,0.0158 -0.00527,0 0,-0.0105 0,-0.0158 0.038034,-0.008 0.073375,4.9e-4 0.094776,-0.0316 0.00653,-0.01 0.00747,-0.0233 0.015796,-0.0316 0.00372,-0.004 0.013441,0.005 0.015796,0 0.00471,-0.009 -0.00745,-0.0241 0,-0.0316 0.00745,-0.007 0.022173,0.005 0.031592,0 0.00471,-0.002 -0.00235,-0.0111 0,-0.0158 0.00666,-0.0133 0.021061,-0.0211 0.031592,-0.0316 0.00527,-0.005 0.00914,-0.0125 0.015796,-0.0158 0.021788,-0.0109 0.014129,0.0191 0.031592,-0.0158 0.00235,-0.005 0,-0.0105 0,-0.0158 0.00527,-0.005 0.012466,-0.009 0.015796,-0.0158 0.00471,-0.009 -0.00745,-0.0242 0,-0.0316 0.00372,-0.004 0.012073,0.004 0.015796,0 0.00745,-0.007 -0.00745,-0.0242 0,-0.0316 0.00372,-0.004 0.012073,0.004 0.015796,0 0.00372,-0.004 -0.00235,-0.0111 0,-0.0158 0.00333,-0.007 0.012466,-0.009 0.015796,-0.0158 0.00428,-0.009 -0.00432,-0.0589 0,-0.0632 0.021061,-0.0211 0.015796,0.0263 0.015796,-0.0158 0.089981,0.0128 0.00146,0.0662 0.015797,0.0949 0.00333,0.007 0.012466,0.009 0.015796,0.0158 0.00235,0.005 -0.00372,0.0121 0,0.0158 0.00372,0.004 0.012073,-0.004 0.015796,0 0.00745,0.007 -0.00471,0.0222 0,0.0316 0.00666,0.0133 0.024932,0.0183 0.031592,0.0316 0.00471,0.009 -0.00745,0.0242 0,0.0316 0.021061,0.0211 0.015796,-0.0263 0.015796,0.0158 0,0.0177 -0.00444,0.0657 0,0.079 0.00235,0.007 0.012466,0.009 0.015796,0.0158 0.00624,0.0125 -0.00444,0.0341 0,0.0474 0.00372,0.0112 0.012073,0.0204 0.015796,0.0316 0.00333,0.01 0,0.0211 0,0.0316 0,0.0369 0,0.0737 0,0.11057 0,0.0421 0,0.0842 0,0.12637 0,0.007 0.0024,0.0426 0,0.0474 -0.00333,0.007 -0.012466,0.009 -0.015796,0.0158 -0.00471,0.009 0.00745,0.0241 0,0.0316 -0.00372,0.004 -0.012073,-0.004 -0.015796,0 -0.010513,0.0105 0.010513,0.0211 0,0.0316 -0.00372,0.004 -0.012073,-0.004 -0.015796,0 -0.00372,0.004 0.00372,0.0121 0,0.0158 -0.00372,0.004 -0.012073,-0.004 -0.015796,0 -0.00745,0.007 0.00745,0.0241 0,0.0316 -0.00745,0.007 -0.022173,-0.005 -0.031592,0 -0.065739,0.0329 0.016887,-10e-4 -0.015796,0.0316 -0.00372,0.004 -0.011087,-0.002 -0.015796,0 -0.00666,0.003 -0.00914,0.0125 -0.015796,0.0158 -0.012775,0.006 -0.1080437,-0.006 -0.1263681,0 -0.00706,0.002 -0.00914,0.0125 -0.015796,0.0158 -0.014128,0.007 -0.03326,-0.007 -0.047388,0 -0.00471,0.002 0.00372,0.0121 0,0.0158 -8.125e-4,8.1e-4 -0.085764,0 -0.094776,0 -0.063184,0 -0.1263682,0 -0.1895523,0 -0.00527,0 -0.010531,0 -0.015796,0 -0.00527,0 -0.012073,-0.004 -0.015796,0 -0.00372,0.004 0.00372,0.0121 0,0.0158 -0.00745,0.007 -0.024146,-0.007 -0.031592,0 -0.00372,0.004 0.00372,0.0121 0,0.0158 -0.00418,0.004 -0.040884,0 -0.047388,0 -0.042123,0 0.00527,-0.005 -0.015796,0.0158 -0.00432,0.004 -0.054615,-0.004 -0.063184,0 -0.00666,0.003 -0.010531,0.0105 -0.015796,0.0158 -0.010531,0.0315 -0.015081,0.0657 -0.031593,0.0946 -0.00585,0.0102 -0.021796,0.009 -0.031592,0.0158 -0.0062,0.004 -0.011666,0.01 -0.015796,0.0158 -0.00653,0.01 -0.010531,0.0211 -0.015796,0.0316 -0.015796,0.0316 -0.032772,0.0626 -0.047388,0.0948 -0.011733,0.0258 -0.013637,0.057 -0.031592,0.079 -0.03074,0.0376 -0.08294,0.0549 -0.1105721,0.0948 -0.021819,0.0315 -0.016024,0.0755 -0.031592,0.11058 -0.00605,0.0136 -0.022289,0.02 -0.031592,0.0316 -0.011859,0.0148 -0.021061,0.0316 -0.031592,0.0474 -0.010531,0.0158 -0.023102,0.0304 -0.031592,0.0474 -0.012681,0.0254 -0.013139,0.0575 -0.031592,0.079 -0.015324,0.0179 -0.050122,0.012 -0.063184,0.0316 -0.021263,0.0319 -0.016024,0.0755 -0.031592,0.11057 -0.00605,0.0136 -0.02393,0.0188 -0.031592,0.0316 -0.017133,0.0286 -0.014459,0.0662 -0.031592,0.0948 -0.00766,0.0128 -0.023331,0.0192 -0.031592,0.0316 -0.00292,0.004 0.00103,0.0106 0,0.0158 -0.00426,0.0213 -0.00817,0.0429 -0.015796,0.0632 -0.00827,0.022 -0.01853,0.0436 -0.031592,0.0632 -0.00826,0.0124 -0.026061,0.0178 -0.031592,0.0316 -0.00587,0.0147 0,0.0316 0,0.0474 -0.00527,0.0158 -0.00835,0.0325 -0.015796,0.0474 -0.00333,0.007 -0.012466,0.009 -0.015796,0.0158 -0.00745,0.0149 -0.00723,0.0331 -0.015796,0.0474 -0.00766,0.0128 -0.024932,0.0183 -0.031592,0.0316 -0.025025,0.05 0.032688,0.0147 -0.015796,0.0632 -0.00833,0.008 -0.025061,0.006 -0.031592,0.0158 -0.00584,0.009 0.00333,0.0216 0,0.0316 -0.00471,0.0141 -0.023331,0.0192 -0.031592,0.0316 -0.00653,0.01 -0.00747,0.0233 -0.015796,0.0316 -0.00372,0.004 -0.013441,-0.005 -0.015796,0 -0.00471,0.009 0.00333,0.0216 0,0.0316 -0.00235,0.007 -0.010531,0.0105 -0.015796,0.0158 -0.00527,0.005 -0.0096,0.0117 -0.015796,0.0158 -0.0098,0.007 -0.023267,0.007 -0.031592,0.0158 -0.00372,0.004 0.00235,0.0111 0,0.0158 -0.00741,0.0148 -0.067747,0.0649 -0.07898,0.079 -0.011859,0.0148 -0.020201,0.0322 -0.031592,0.0474 -0.00894,0.0119 -0.024932,0.0183 -0.031592,0.0316 -0.014498,0.029 0.04473,0.0169 -0.031592,0.0474 -0.014666,0.006 -0.034245,-0.009 -0.047388,0 -0.00876,0.006 0.00584,0.0228 0,0.0316 -0.00653,0.01 -0.023267,0.007 -0.031592,0.0158 -0.038365,0.0384 0.0047,0.0232 -0.031592,0.0474 -0.0098,0.007 -0.020423,0.0121 -0.031592,0.0158 -0.005,0.002 -0.012073,-0.004 -0.015796,0 -0.00833,0.008 -0.00927,0.0218 -0.015796,0.0316 -0.016201,0.0243 -0.046983,0.0389 -0.063184,0.0632 -0.00292,0.004 0.00235,0.0111 0,0.0158 -0.00333,0.007 -0.010531,0.0105 -0.015796,0.0158 -0.010531,0.0105 -0.023331,0.0192 -0.031592,0.0316 -0.00292,0.004 0.00372,0.0121 0,0.0158 -0.00372,0.004 -0.013441,-0.005 -0.015796,0 -0.00471,0.009 0.00471,0.0222 0,0.0316 -0.00235,0.005 -0.011087,-0.002 -0.015796,0 -0.00666,0.003 -0.010531,0.0105 -0.015796,0.0158 -0.00527,0.005 -0.011665,0.01 -0.015796,0.0158 -0.084245,0.12637 0.057919,-0.0579 -0.047388,0.0474 -0.00372,0.004 0.00372,0.0121 0,0.0158 -0.00833,0.008 -0.025061,0.006 -0.031592,0.0158 -0.00584,0.009 0.00471,0.0222 0,0.0316 -0.00235,0.005 -0.011087,-0.002 -0.015796,0 -0.00666,0.003 -0.00914,0.0125 -0.015796,0.0158 -0.00471,0.002 -0.013441,-0.005 -0.015796,0 -0.00471,0.009 0.00333,0.0216 0,0.0316 -0.00471,0.0141 -0.024932,0.0183 -0.031592,0.0316 -0.00471,0.009 0.00584,0.0228 0,0.0316 -0.00826,0.0124 -0.019201,0.0233 -0.031592,0.0316 -0.00438,0.003 -0.012875,-0.004 -0.015796,0 -0.00924,0.0138 -0.00402,0.0356 -0.015796,0.0474 -0.00745,0.007 -0.02283,-0.006 -0.031592,0 -0.0098,0.007 -0.00927,0.0218 -0.015796,0.0316 -0.00413,0.006 -0.010531,0.0105 -0.015796,0.0158 -0.00527,0.005 -0.0096,0.0117 -0.015796,0.0158 -0.0098,0.007 -0.023267,0.007 -0.031592,0.0158 -0.00833,0.008 -0.00927,0.0218 -0.015796,0.0316 -0.00413,0.006 -0.010531,0.0105 -0.015796,0.0158 -0.00527,0.005 -0.00914,0.0125 -0.015796,0.0158 -0.00471,0.002 -0.012073,-0.004 -0.015796,0 -0.00372,0.004 0.00292,0.0114 0,0.0158 -0.00826,0.0124 -0.021061,0.0211 -0.031592,0.0316 -0.00527,0.005 -0.0096,0.0117 -0.015796,0.0158 -0.0098,0.007 -0.023267,0.007 -0.031592,0.0158 -0.00372,0.004 0.00292,0.0114 0,0.0158 -0.00826,0.0124 -0.021061,0.0211 -0.031592,0.0316 -0.00527,0.005 -0.0096,0.0117 -0.015796,0.0158 -0.0098,0.007 -0.023267,0.007 -0.031592,0.0158 -0.00372,0.004 0,0.0105 0,0.0158 -0.010531,0.0105 -0.019201,0.0233 -0.031592,0.0316 -0.00438,0.003 -0.010531,0 -0.015796,0 -0.00527,0.0105 -0.00747,0.0233 -0.015796,0.0316 -0.032682,0.0327 0.00128,-0.0499 -0.031592,0.0158 -0.00235,0.005 0.00235,0.0111 0,0.0158 -0.00333,0.007 -0.012466,0.009 -0.015796,0.0158 -0.00235,0.005 0.00372,0.0121 0,0.0158 -0.00833,0.008 -0.023267,0.007 -0.031592,0.0158 -0.032682,0.0327 0.049943,-10e-4 -0.015796,0.0316 -0.00942,0.005 -0.026883,-0.009 -0.031592,0 -0.00471,0.009 0.00471,0.0222 0,0.0316 -0.00235,0.005 -0.011087,-0.002 -0.015796,0 -0.018955,0.009 -0.028433,0.0379 -0.047388,0.0474 -0.00471,0.002 -0.012073,-0.004 -0.015796,0 -0.00372,0.004 0.00372,0.0121 0,0.0158 -0.00372,0.004 -0.012073,-0.004 -0.015796,0 -0.00372,0.004 0,0.0105 0,0.0158 -0.010531,0.005 -0.023267,0.007 -0.031592,0.0158 -0.00372,0.004 0.00235,0.0111 0,0.0158 -0.00333,0.007 -0.012466,0.009 -0.015796,0.0158 -0.00235,0.005 0.00372,0.0121 0,0.0158 -0.00372,0.004 -0.011087,-0.002 -0.015796,0 -0.065739,0.0329 0.016887,-10e-4 -0.015796,0.0316 -0.00372,0.004 -0.012073,-0.004 -0.015796,0 -0.00372,0.004 0.00372,0.0121 0,0.0158 -0.00372,0.004 -0.012073,-0.004 -0.015796,0 -0.00372,0.004 0.00372,0.0121 0,0.0158 -0.00372,0.004 -0.011087,-0.002 -0.015796,0 -0.00666,0.003 -0.00914,0.0125 -0.015796,0.0158 -0.00471,0.002 -0.011087,-0.002 -0.015796,0 -0.01332,0.007 -0.018272,0.0249 -0.031592,0.0316 -0.00471,0.002 -0.012073,-0.004 -0.015796,0 -0.00372,0.004 0.00235,0.0111 0,0.0158 -0.00948,0.019 -0.03791,0.0284 -0.047388,0.0474 -0.023242,0.0465 0.036593,-0.0208 -0.015796,0.0316 -1.1e-6,0.0313 -0.00446,0.063 -3.2e-6,0.094 0.00106,0.007 0.013441,0.009 0.015796,0.0158 0.00333,0.01 -0.00471,0.0222 0,0.0316 0.00235,0.005 0.012073,-0.004 0.015796,0 0.00372,0.004 -0.00235,0.0111 0,0.0158 0.00333,0.007 0.012466,0.009 0.015796,0.0158 0.00471,0.009 -0.00745,0.0242 0,0.0316 0.00372,0.004 0.012073,-0.004 0.015796,0 0.00338,0.003 -0.0029,0.0545 0,0.0632 0.00372,0.0112 0.012073,0.0204 0.015796,0.0316 0.00444,0.0133 -0.00624,0.0349 0,0.0474 0.00333,0.007 0.012466,0.009 0.015796,0.0158 0.00235,0.005 -0.00167,0.0108 0,0.0158 0.00372,0.0112 0.012073,0.0204 0.015796,0.0316 0.00409,0.0123 0,0.0773 0,0.0948 0,0.0737 0,0.14743 0,0.22114 0,0.0263 0,0.0527 0,0.079 0,0.0105 0.00333,0.0216 0,0.0316 -0.00372,0.0112 -0.012073,0.0204 -0.015796,0.0316 -0.00298,0.009 0.00634,0.041 0,0.0474 -0.032682,0.0327 0.00128,-0.0499 -0.031592,0.0158 -0.00471,0.009 0.00745,0.0242 0,0.0316 -0.00372,0.004 -0.012073,-0.004 -0.015796,0 -0.00372,0.004 0.00235,0.0111 0,0.0158 -0.00333,0.007 -0.012466,0.009 -0.015796,0.0158 -0.00235,0.005 0.00471,0.0134 0,0.0158 -0.00942,0.005 -0.024146,-0.007 -0.031592,0 -0.00745,0.007 0.00745,0.0241 0,0.0316 -0.00745,0.007 -0.021602,-0.003 -0.031592,0 -0.00706,0.002 -0.00857,0.014 -0.015796,0.0158 -0.015324,0.004 -0.031592,0 -0.047388,0 -0.010531,0 -0.022173,-0.005 -0.031592,0 -0.00471,0.002 0,0.0105 0,0.0158 -0.010531,0.005 -0.02017,0.0129 -0.031592,0.0158 -0.020433,0.005 -0.043204,-0.007 -0.063184,0 -0.014128,0.005 -0.017464,0.0269 -0.031592,0.0316 -0.014985,0.005 -0.032403,-0.005 -0.047388,0 -0.011169,0.004 -0.020423,0.0121 -0.031592,0.0158 -0.013322,0.004 -0.034914,-0.006 -0.047388,0 -0.00666,0.003 -0.00873,0.0134 -0.015796,0.0158 -7.16e-5,3e-5 -0.047373,-1e-5 -0.047388,0 -0.00372,0.004 0.00372,0.0121 0,0.0158 -0.00372,0.004 -0.010531,0 -0.015796,0 -0.031592,0 -0.063184,0 -0.094776,0 -0.010924,0 -0.055572,0.004 -0.063184,0 -0.00666,-0.003 -0.00914,-0.0125 -0.015796,-0.0158 -0.012651,-0.006 -0.077687,0.006 -0.094776,0 -0.010531,-0.005 -0.021061,-0.0105 -0.031592,-0.0158 0,-0.005 0.00372,-0.0121 0,-0.0158 -0.0079,-0.008 -0.03949,0.008 -0.047388,0 -0.00372,-0.004 0,-0.0105 0,-0.0158 -0.00527,0 -0.012073,0.004 -0.015796,0 -0.00372,-0.004 0.00372,-0.0121 0,-0.0158 -0.00372,-0.004 -0.011087,0.002 -0.015796,0 -0.01332,-0.007 -0.018272,-0.0249 -0.031592,-0.0316 -0.046485,-0.0232 0.020797,0.0366 -0.031592,-0.0158 0.01053,-0.0264 0.01585,-0.0555 0.031591,-0.0792 0.00652,-0.01 0.023267,-0.007 0.031592,-0.0158 0.00372,-0.004 -0.00235,-0.0111 0,-0.0158 0.00666,-0.0133 0.023331,-0.0192 0.031592,-0.0316 0.00653,-0.01 0.00927,-0.0218 0.015796,-0.0316 0.00413,-0.006 0.012466,-0.009 0.015796,-0.0158 0.00235,-0.005 -0.00235,-0.0111 0,-0.0158 0.00333,-0.007 0.012466,-0.009 0.015796,-0.0158 0.00235,-0.005 -0.00235,-0.0111 0,-0.0158 0.00666,-0.0133 0.026883,-0.0175 0.031592,-0.0316 0.00333,-0.01 -0.00471,-0.0222 0,-0.0316 0.00235,-0.005 0.011415,0.003 0.015796,0 0.012391,-0.008 0.023331,-0.0192 0.031592,-0.0316 0,-0.0421 -0.00527,0.005 0.015796,-0.0158 0.00372,-0.004 -0.00372,-0.0121 0,-0.0158 0.00372,-0.004 0.012073,0.004 0.015796,0 0.00372,-0.004 -0.00372,-0.0121 0,-0.0158 0.00372,-0.004 0.012073,0.004 0.015796,0 0.00833,-0.008 0.00747,-0.0233 0.015796,-0.0316 0.00372,-0.004 0.012073,0.004 0.015796,0 0.0038,-0.004 -0.0038,-0.0594 0,-0.0632 0.021061,-0.0211 0.015796,0.0263 0.015796,-0.0158 -0.021061,-0.0316 -0.042123,-0.0631 -0.063184,-0.0947 -0.00527,0 -0.011087,0.002 -0.015796,0 -0.00666,-0.003 -0.010531,-0.0105 -0.015796,-0.0158 -0.00527,-0.005 -0.012466,-0.009 -0.015796,-0.0158 -0.00235,-0.005 0.00372,-0.0121 0,-0.0158 -0.00372,-0.004 -0.011086,0.002 -0.015796,0 -0.00666,-0.003 -0.00914,-0.0125 -0.015796,-0.0158 -0.00471,-0.002 -0.012073,0.004 -0.015796,0 -0.00372,-0.004 0.00235,-0.0111 0,-0.0158 -0.00333,-0.007 -0.010531,-0.0105 -0.015796,-0.0158 -0.00527,-0.005 -0.00914,-0.0125 -0.015796,-0.0158 -0.00471,-0.002 -0.011087,0.002 -0.015796,0 -0.065739,-0.0329 0.016887,10e-4 -0.015796,-0.0316 -0.00372,-0.004 -0.012073,0.004 -0.015796,0 -0.00372,-0.004 0.00372,-0.0121 0,-0.0158 -0.00745,-0.007 -0.022173,0.005 -0.031592,0 -0.00666,-0.003 -0.00914,-0.0125 -0.015796,-0.0158 -0.00471,-0.002 -0.011087,0.002 -0.015796,0 -0.065739,-0.0329 0.016887,10e-4 -0.015796,-0.0316 -0.00372,-0.004 -0.012073,0.004 -0.015796,0 -0.00372,-0.004 0.00372,-0.0121 0,-0.0158 -0.00372,-0.004 -0.012073,0.004 -0.015796,0 -0.00372,-0.004 0.00372,-0.0121 0,-0.0158 -0.00372,-0.004 -0.012073,0.004 -0.015796,0 -0.00745,-0.007 0.00745,-0.0242 0,-0.0316 -0.00372,-0.004 -0.011087,0.002 -0.015796,0 -0.00666,-0.003 -0.00914,-0.0125 -0.015796,-0.0158 -0.00471,-0.002 -0.012073,0.004 -0.015796,0 -0.015582,-0.0156 0.032367,-0.0316 -0.015796,-0.0316 -0.026327,0.0211 -0.064719,0.0327 -0.07898,0.0633 -0.024886,0.0534 -0.017314,0.11665 -0.031592,0.17376 -0.00181,0.007 -0.011666,0.01 -0.015796,0.0158 -0.00653,0.01 -0.006,0.0251 -0.015796,0.0316 -0.00876,0.006 -0.022173,-0.005 -0.031592,0 -0.00471,0.002 0.00235,0.0111 0,0.0158 -0.00333,0.007 -0.012466,0.009 -0.015796,0.0158 -0.00235,0.005 0.00372,0.0121 0,0.0158 -0.00372,0.004 -0.012073,-0.004 -0.015796,0 -0.03175,0.0317 0.03175,-1.6e-4 0,0.0316 -0.00372,0.004 -0.013441,-0.005 -0.015796,0 -0.00471,0.009 0.00255,0.0214 0,0.0316 -0.00286,0.0114 -0.012073,0.0204 -0.015796,0.0316 -0.00167,0.005 0.00235,0.0111 0,0.0158 -0.00666,0.0133 -0.024932,0.0183 -0.031592,0.0316 -0.00471,0.009 0.00745,0.0242 0,0.0316 -0.00372,0.004 -0.012073,-0.004 -0.015796,0 -0.00745,0.007 0.00471,0.0222 0,0.0316 -0.015586,0.0312 -0.028386,0.006 -0.047388,0.0158 -0.065739,0.0329 0.016887,-10e-4 -0.015796,0.0316 -0.00372,0.004 -0.012073,-0.004 -0.015796,0 -0.00372,0.004 0.00372,0.0121 0,0.0158 -0.015582,0.0156 -0.031592,-0.0324 -0.031592,0.0158 -0.021062,-0.0316 -0.042123,-0.0633 -0.063185,-0.0949 -0.010531,-0.005 -0.024749,-0.006 -0.031592,-0.0158 -0.02053,-0.0287 -0.026858,-0.066 -0.047388,-0.0948 -0.00684,-0.01 -0.021796,-0.009 -0.031592,-0.0158 -0.0062,-0.004 -0.00914,-0.0125 -0.015796,-0.0158 -0.021788,-0.0109 -0.014129,0.0191 -0.031592,-0.0158 -0.00235,-0.005 0.00235,-0.0111 0,-0.0158 -0.00333,-0.007 -0.012466,-0.009 -0.015796,-0.0158 -0.00471,-0.009 0.00471,-0.0222 0,-0.0316 -0.00333,-0.007 -0.012466,-0.009 -0.015796,-0.0158 -0.00645,-0.0129 0.00645,-0.0503 0,-0.0632 -0.00333,-0.007 -0.012466,-0.009 -0.015796,-0.0158 -0.00598,-0.012 0.00328,-0.0343 0,-0.0474 -0.00404,-0.0161 -0.011758,-0.0312 -0.015796,-0.0474 -0.00255,-0.0102 0,-0.0211 0,-0.0316 0,-0.0316 0,-0.0632 0,-0.0948 0,-0.0421 0,-0.0842 0,-0.12636 0,-0.0126 -0.00366,-0.0559 0,-0.0632 0.00333,-0.007 0.012466,-0.009 0.015796,-0.0158 0.00546,-0.0109 -0.00554,-0.0734 0,-0.079 0.00372,-0.004 0.013441,0.005 0.015796,0 0.00471,-0.009 -0.00333,-0.0216 0,-0.0316 0.00235,-0.007 0.012466,-0.009 0.015796,-0.0158 0.00235,-0.005 -0.00235,-0.0111 0,-0.0158 0.00333,-0.007 0.012466,-0.009 0.015796,-0.0158 0.00235,-0.005 -0.00372,-0.0121 0,-0.0158 0.00372,-0.004 0.012073,0.004 0.015796,0 0.00833,-0.008 0.00747,-0.0233 0.015796,-0.0316 0.00372,-0.004 0.011087,0.002 0.015796,0 0.00666,-0.003 0.010531,-0.0105 0.015796,-0.0158 0.00527,-0.005 0.012466,-0.009 0.015796,-0.0158 0.01256,-0.0251 -0.03044,-0.0166 0.015796,-0.0474 0.00876,-0.006 0.021602,0.003 0.031592,0 0.012279,-0.004 0.075715,-0.0821 0.094776,-0.0948 0.018949,-0.0126 0.044235,-0.019 0.063184,-0.0316 0.0062,-0.004 0.00914,-0.0125 0.015796,-0.0158 0.00471,-0.002 0.010801,0.002 0.015796,0 0.011169,-0.004 0.020422,-0.0121 0.031592,-0.0158 0.00999,-0.003 0.022173,0.005 0.031592,0 0.01332,-0.007 0.018272,-0.0249 0.031592,-0.0316 0.014128,-0.007 0.032403,0.005 0.047388,0 0.00706,-0.002 0.00914,-0.0125 0.015796,-0.0158 0.00471,-0.002 0.011087,0.002 0.015796,0 0.00666,-0.003 0.00914,-0.0125 0.015796,-0.0158 0.012783,-0.006 0.066197,0.006 0.07898,0 0.00666,-0.003 0.00914,-0.0125 0.015796,-0.0158 0.00954,-0.005 0.040086,0.007 0.047388,0 0.00372,-0.004 -0.00372,-0.0121 0,-0.0158 0.00432,-0.004 0.054615,0.004 0.063184,0 0.00666,-0.003 0.00914,-0.0125 0.015796,-0.0158 0.014835,-0.007 0.039563,0.0142 0.047388,0.0158 0.00659,0.001 0.089438,-0.003 0.094776,0 0.00471,0.002 -0.00372,0.0121 0,0.0158 0.00467,0.005 0.0534,-0.005 0.063184,0 0.00666,0.003 0.012466,0.009 0.015796,0.0158 0.00235,0.005 -0.00471,0.0134 0,0.0158 0.00942,0.005 0.022173,-0.005 0.031592,0 0.00471,0.002 -0.00471,0.0134 0,0.0158 0.00942,0.005 0.022173,-0.005 0.031592,0 0.00471,0.002 -0.00235,0.0111 0,0.0158 0.03287,0.0657 -0.00109,-0.0169 0.031592,0.0158 0.00372,0.004 -0.00372,0.0121 0,0.0158 0.00372,0.004 0.012073,-0.004 0.015796,0 0.00745,0.007 -0.00471,0.0222 0,0.0316 0.00666,0.0133 0.024932,0.0183 0.031592,0.0316 0.017933,0.0359 0.031592,0.0737 0.047388,0.11057"
       id="path10271"
       inkscape:connector-curvature="0" />
    <path
       style="fill:none;stroke:#000000;stroke-width:0.26458332px;stroke-linecap:butt;stroke-linejoin:miter;stroke-opacity:1"
       d="m 4.5650498,293.90397 c 0.046657,-0.004 0.050928,0.0445 0.07898,0.0632 0.00979,0.007 0.023267,0.007 0.031592,0.0158 0.00833,0.008 0.00747,0.0233 0.015796,0.0316 0.00372,0.004 0.0108,-0.002 0.015796,0 0.011171,0.004 0.021061,0.0105 0.031592,0.0158 0.01053,0.005 0.023267,0.007 0.031592,0.0158 0.00372,0.004 -0.00372,0.0121 0,0.0158 0.00833,0.008 0.023267,0.007 0.031592,0.0158 0.00372,0.004 -0.00471,0.0134 0,0.0158 0.00942,0.005 0.024146,-0.007 0.031592,0 0.00745,0.007 -0.00584,0.0228 0,0.0316 0.030824,0.0462 0.022267,0.003 0.047388,0.0158 0.00666,0.003 0.00914,0.0125 0.015796,0.0158 0.00471,0.002 0.012073,-0.004 0.015796,0 0,0.0421 -0.00527,-0.005 0.015796,0.0158 0.00372,0.004 -0.00372,0.0121 0,0.0158 0.00833,0.008 0.021796,0.009 0.031592,0.0158 0.00657,0.004 0.060359,0.0575 0.063184,0.0632 0.00235,0.005 -0.00372,0.0121 0,0.0158 0.061648,0.0616 0.00848,-0.004 0.047388,0.0158 0.017216,0.009 0.044751,0.0509 0.063184,0.0632 0.0098,0.007 0.020423,0.0121 0.031592,0.0158 0.005,0.002 0.012073,-0.004 0.015796,0 0.00372,0.004 -0.00235,0.0111 0,0.0158 0.00333,0.007 0.01053,0.0105 0.015796,0.0158 0.00527,0.005 0.00914,0.0125 0.015796,0.0158 0.00471,0.002 0.012073,-0.004 0.015796,0 0.00372,0.004 0,0.0105 0,0.0158 0.00527,0 0.012073,-0.004 0.015796,0 0.00372,0.004 -0.00372,0.0121 0,0.0158 0.00372,0.004 0.011086,-0.002 0.015796,0 0.00666,0.003 0.0096,0.0117 0.015796,0.0158 -0.00881,0.0264 0.039993,0.0121 0.047388,0.0158 0.00557,0.003 0.026022,0.0288 0.031592,0.0316 0.00471,0.002 0.011086,-0.002 0.015796,0 0.065739,0.0329 -0.016886,-0.001 0.015796,0.0316 0.00372,0.004 0.012073,-0.004 0.015796,0 0.00372,0.004 -0.00235,0.0111 0,0.0158 0.00209,0.004 0.043194,0.0453 0.047388,0.0474 0.00471,0.002 0.011086,-0.002 0.015796,0 0.00666,0.003 0.0096,0.0117 0.015796,0.0158 0.0098,0.007 0.023268,0.007 0.031592,0.0158 0.021061,0.0211 -0.026326,0.0158 0.015796,0.0158 0.026327,-6e-5 0.053021,0.004 0.078981,-1.9e-4 0.00839,-10e-4 0.049192,-0.0538 0.063184,-0.0632 0.0098,-0.007 0.023267,-0.007 0.031592,-0.0158 0.00372,-0.004 -0.00235,-0.0111 0,-0.0158 0.0046,-0.009 0.083504,-0.0863 0.094776,-0.0948 0.00942,-0.007 0.023267,-0.007 0.031592,-0.0158 0.00372,-0.004 -0.00235,-0.0111 0,-0.0158 0.00333,-0.007 0.012466,-0.009 0.015796,-0.0158 0.00235,-0.005 -0.00372,-0.0121 0,-0.0158 0.00833,-0.008 0.023267,-0.007 0.031592,-0.0158 0.00745,-0.007 -0.00942,-0.0269 0,-0.0316 0.00942,-0.005 0.02283,0.006 0.031592,0 0.0098,-0.007 0.00927,-0.0218 0.015796,-0.0316 0.00413,-0.006 0.012466,-0.009 0.015796,-0.0158 0.00235,-0.005 -0.00372,-0.0121 0,-0.0158 0.00372,-0.004 0.011086,0.002 0.015796,0 0.00666,-0.003 0.010531,-0.0105 0.015796,-0.0158 0.00527,-0.005 0.012466,-0.009 0.015796,-0.0158 0.00235,-0.005 -0.00167,-0.0108 0,-0.0158 0.038139,-0.11441 -0.00455,0.0249 0.031592,-0.0474 0.00235,-0.005 -0.00235,-0.0111 0,-0.0158 0.00333,-0.007 0.012466,-0.009 0.015796,-0.0158 0.00471,-0.009 -0.00471,-0.0222 0,-0.0316 0.00333,-0.007 0.012466,-0.009 0.015796,-0.0158 0.00235,-0.005 -0.00372,-0.0121 0,-0.0158 0.00372,-0.004 0.012073,0.004 0.015796,0 0.00372,-0.004 0,-0.0105 0,-0.0158 0,-0.005 0,-0.0105 0,-0.0158 0,-0.0109 -0.00381,-0.0556 0,-0.0632 0.00333,-0.007 0.010531,-0.0105 0.015796,-0.0158 -0.031592,-0.0315 -0.063184,-0.0631 -0.094775,-0.0946 0,-0.005 0.00372,-0.0121 0,-0.0158 -0.00833,-0.008 -0.021796,-0.009 -0.031592,-0.0158 -0.018587,-0.0124 -0.029517,-0.034 -0.047388,-0.0474 -0.00942,-0.007 -0.023267,-0.007 -0.031592,-0.0158 -0.00833,-0.008 -0.006,-0.0251 -0.015796,-0.0316 -0.00876,-0.006 -0.02283,0.006 -0.031592,0 -0.00823,-0.0165 -0.014362,-0.0371 -0.031592,-0.0474 -0.020192,-0.0121 -0.042992,-0.0195 -0.063184,-0.0316 -0.023291,-0.014 -0.040236,-0.0479 -0.063184,-0.0632 -0.0098,-0.007 -0.021796,-0.009 -0.031592,-0.0158 -0.012391,-0.008 -0.018272,-0.0249 -0.031592,-0.0316 -0.00471,-0.002 -0.012073,0.004 -0.015796,0 -0.00372,-0.004 0.00372,-0.0121 0,-0.0158 -0.00833,-0.008 -0.023267,-0.007 -0.031592,-0.0158 -0.00372,-0.004 0.00235,-0.0111 0,-0.0158 -0.00666,-0.0133 -0.023331,-0.0192 -0.031592,-0.0316 -0.00653,-0.01 -0.00747,-0.0233 -0.015796,-0.0316 -0.00372,-0.004 -0.010531,0 -0.015796,0 -0.010531,-0.0105 -0.023331,-0.0192 -0.031592,-0.0316 -0.00292,-0.004 0,-0.0105 0,-0.0158 -0.010531,-0.0105 -0.019201,-0.0233 -0.031592,-0.0316 -0.00438,-0.003 -0.011415,0.003 -0.015796,0 -0.012391,-0.008 -0.019201,-0.0233 -0.031592,-0.0316 -0.00438,-0.003 -0.012073,0.004 -0.015796,0 -0.00833,-0.008 -0.00747,-0.0233 -0.015796,-0.0316 -0.00833,-0.008 -0.021061,-0.0105 -0.031592,-0.0158 -0.010531,-0.005 -0.020423,-0.0121 -0.031592,-0.0158 -0.005,-0.002 -0.012073,0.004 -0.015796,0 -0.00372,-0.004 0.00235,-0.0111 0,-0.0158 -0.03287,-0.0657 0.00109,0.0169 -0.031592,-0.0158 -0.00372,-0.004 0.00372,-0.0121 0,-0.0158 -0.00745,-0.007 -0.024146,0.007 -0.031592,0 0,-0.0421 0.00527,0.005 -0.015796,-0.0158 -0.00372,-0.004 0.00372,-0.0121 0,-0.0158 -0.00372,-0.004 -0.011087,0.002 -0.015796,0 -0.00666,-0.003 -0.00914,-0.0125 -0.015796,-0.0158 -0.00471,-0.002 -0.012073,0.004 -0.015796,0 -0.00372,-0.004 0.00235,-0.0111 0,-0.0158 -0.00666,-0.0133 -0.024932,-0.0183 -0.031592,-0.0316 -0.00235,-0.005 0.00372,-0.0121 0,-0.0158 -0.00372,-0.004 -0.010531,0 -0.015796,0"
       id="path10273"
       inkscape:connector-curvature="0" />
    <path
       style="fill:none;stroke:#000000;stroke-width:0.26458332px;stroke-linecap:butt;stroke-linejoin:miter;stroke-opacity:1"
       d="m 5.7181592,294.25149 c -0.021061,-0.0158 -0.040609,-0.0338 -0.063184,-0.0474 -0.00451,-0.003 -0.011086,0.002 -0.015796,0 -0.00666,-0.003 -0.0096,-0.0117 -0.015796,-0.0158 -0.00979,-0.007 -0.021796,-0.009 -0.031592,-0.0158 -0.029138,-0.0194 -0.049842,-0.0596 -0.07898,-0.079 -0.0098,-0.007 -0.023267,-0.007 -0.031592,-0.0158 -0.00372,-0.004 0.00235,-0.0111 0,-0.0158 -0.03287,-0.0657 0.00108,0.0169 -0.031592,-0.0158 -0.00833,-0.008 -0.006,-0.0251 -0.015796,-0.0316 -0.00876,-0.006 -0.022831,0.006 -0.031592,0 -0.00979,-0.007 -0.00747,-0.0233 -0.015796,-0.0316 -0.00833,-0.008 -0.022172,-0.009 -0.031592,-0.0158 -0.011914,-0.009 -0.019201,-0.0233 -0.031592,-0.0316 -0.00438,-0.003 -0.011086,0.002 -0.015796,0 -0.065739,-0.0329 0.016886,10e-4 -0.015796,-0.0316 -0.00745,-0.007 -0.024146,0.007 -0.031592,0 -0.00833,-0.008 -0.00747,-0.0233 -0.015796,-0.0316 -0.00833,-0.008 -0.023267,-0.007 -0.031592,-0.0158 -0.00833,-0.008 -0.00747,-0.0233 -0.015796,-0.0316 -0.00372,-0.004 -0.010531,0 -0.015796,0 -0.00527,-0.0105 -0.00927,-0.0218 -0.015796,-0.0316 -0.00604,-0.009 -0.071039,-0.075 -0.07898,-0.079 -0.00471,-0.002 -0.011086,0.002 -0.015796,0 -0.00666,-0.003 -0.00914,-0.0125 -0.015796,-0.0158 -0.00471,-0.002 -0.013441,0.005 -0.015796,0 -0.00471,-0.009 0.00471,-0.0222 0,-0.0316 -0.00471,-0.009 -0.022172,0.005 -0.031592,0 -0.024193,-0.0121 -0.012353,-0.0281 -0.031592,-0.0474 -0.00372,-0.004 -0.011086,0.002 -0.015796,0 -0.013319,-0.007 -0.018272,-0.0249 -0.031592,-0.0316 -0.00471,-0.002 -0.012073,0.004 -0.015796,0 -0.00372,-0.004 0.00372,-0.0121 0,-0.0158 -0.00745,-0.007 -0.024146,0.007 -0.031592,0 -0.00372,-0.004 0.00372,-0.0121 0,-0.0158 -0.042123,0 0.00527,0.005 -0.015796,-0.0158 -0.00372,-0.004 -0.012073,0.004 -0.015796,0 -0.00372,-0.004 0.00372,-0.0121 0,-0.0158 -0.032683,-0.0327 0.00127,0.0499 -0.031592,-0.0158 -0.00235,-0.005 0.00372,-0.0121 0,-0.0158 -0.00372,-0.004 -0.012073,0.004 -0.015796,0 -0.00372,-0.004 0.00372,-0.0121 0,-0.0158 -0.00372,-0.004 -0.012073,0.004 -0.015796,0 -0.021061,-0.0211 0.026326,-0.0158 -0.015796,-0.0158"
       id="path10275"
       inkscape:connector-curvature="0" />
    <path
       style="fill:none;stroke:#000000;stroke-width:0.26458332px;stroke-linecap:butt;stroke-linejoin:miter;stroke-opacity:1"
       d="m 3.238184,292.35597 c -0.021061,-0.0158 -0.044568,-0.0288 -0.063184,-0.0474 -0.00372,-0.004 0.00235,-0.0111 0,-0.0158 -0.00268,-0.005 -0.087353,-0.0898 -0.094776,-0.0948 -0.019592,-0.0131 -0.046534,-0.0149 -0.063184,-0.0316 -0.00372,-0.004 0.00235,-0.0111 0,-0.0158 -0.012097,-0.0242 -0.028149,-0.0124 -0.047388,-0.0316 -0.00372,-0.004 0.00235,-0.0111 0,-0.0158 -0.012097,-0.0242 -0.028149,-0.0123 -0.047388,-0.0316 -0.00372,-0.004 0.00235,-0.0111 0,-0.0158 -0.03287,-0.0657 0.00108,0.0169 -0.031592,-0.0158 -0.00372,-0.004 0.00372,-0.0121 0,-0.0158 -0.00372,-0.004 -0.013441,0.005 -0.015796,0 -0.00471,-0.009 0.00745,-0.0241 0,-0.0316 -0.00745,-0.007 -0.022831,0.006 -0.031592,0 -0.0098,-0.007 -0.00927,-0.0218 -0.015796,-0.0316 -0.00413,-0.006 -0.01053,-0.0105 -0.015796,-0.0158 -0.00527,-0.005 -0.00914,-0.0125 -0.015796,-0.0158 -0.00471,-0.002 -0.012073,0.004 -0.015796,0 -0.00833,-0.008 -0.00747,-0.0233 -0.015796,-0.0316 -0.00372,-0.004 -0.012073,0.004 -0.015796,0 -0.00833,-0.008 -0.00927,-0.0218 -0.015796,-0.0316 -0.00854,-0.0128 -0.086957,-0.0896 -0.094776,-0.0948 -0.0098,-0.007 -0.023267,-0.007 -0.031592,-0.0158 -0.00372,-0.004 0.00235,-0.0111 0,-0.0158 -0.00333,-0.007 -0.010531,-0.0105 -0.015796,-0.0158 -0.010531,-0.0105 -0.021061,-0.0211 -0.031592,-0.0316 -0.01038,-0.0104 -0.035505,-0.0414 -0.047388,-0.0474 -0.00471,-0.002 -0.011087,0.002 -0.015796,0 -0.01332,-0.007 -0.018272,-0.0249 -0.031592,-0.0316 -0.00471,-0.002 -0.011087,0.002 -0.015796,0 -0.00666,-0.003 -0.00914,-0.0125 -0.015796,-0.0158 -0.00471,-0.002 -0.011087,0.002 -0.015796,0 -0.00666,-0.003 -0.010531,-0.0105 -0.015796,-0.0158 -0.00527,-0.005 -0.012466,-0.009 -0.015796,-0.0158 -0.00235,-0.005 0.00372,-0.0121 0,-0.0158 -0.00372,-0.004 -0.011087,0.002 -0.015796,0 -0.00666,-0.003 -0.010531,-0.0105 -0.015796,-0.0158 -0.00527,-0.005 -0.012466,-0.009 -0.015796,-0.0158 -0.00235,-0.005 0.00471,-0.0134 0,-0.0158 -0.00942,-0.005 -0.02283,0.006 -0.031592,0 -0.0098,-0.007 -0.00747,-0.0233 -0.015796,-0.0316 -0.00745,-0.007 -0.022173,0.005 -0.031592,0 -0.018955,-0.009 -0.028433,-0.0379 -0.047388,-0.0474 -0.00471,-0.002 -0.012073,0.004 -0.015796,0 -0.00372,-0.004 0.00372,-0.0121 0,-0.0158 -0.00372,-0.004 -0.011087,0.002 -0.015796,0 -0.035928,-0.018 0.00734,-0.0316 -0.031592,-0.0316 -0.2052712,0.0417 -0.055241,-0.0156 -0.078981,0.0318 -0.00333,0.007 -0.00914,0.0125 -0.015796,0.0158 -0.021788,0.0109 -0.014129,-0.0191 -0.031592,0.0158 -0.00477,0.01 0.0073,0.0401 0,0.0474 -0.00372,0.004 -0.012073,-0.004 -0.015796,0 -0.00745,0.007 0.00471,0.0222 0,0.0316 -0.00948,0.019 -0.03791,0.0284 -0.047388,0.0474 -0.00235,0.005 0.00372,0.0121 0,0.0158 -0.00745,0.007 -0.022173,-0.005 -0.031592,0 -0.00666,0.003 -0.00914,0.0125 -0.015796,0.0158 -0.00471,0.002 -0.012073,-0.004 -0.015796,0 -0.00372,0.004 0.00372,0.0121 0,0.0158 -0.00372,0.004 -0.012073,-0.004 -0.015796,0 -0.00372,0.004 0.00372,0.0121 0,0.0158 -0.00372,0.004 -0.011087,-0.002 -0.015796,0 -0.035928,0.018 0.00734,0.0316 -0.031592,0.0316 -0.070751,0.0334 -0.060812,-0.0462 -0.094777,-0.0632 -0.00471,-0.002 -0.011087,0.002 -0.015796,0 -0.00666,-0.003 -0.010531,-0.0105 -0.015796,-0.0158 -0.00527,-0.005 -0.012466,-0.009 -0.015796,-0.0158 -0.00235,-0.005 0.00372,-0.0121 0,-0.0158 -0.00372,-0.004 -0.012073,0.004 -0.015796,0 -0.010731,-0.0107 0.016151,-0.0314 -0.015796,-0.0474 -0.00471,-0.002 -0.012073,0.004 -0.015796,0 -0.00833,-0.008 -0.00927,-0.0218 -0.015796,-0.0316 0.00158,-0.0313 -0.023267,-0.007 -0.031592,-0.0158 -0.00833,-0.008 -0.00927,-0.0218 -0.015796,-0.0316 -0.00413,-0.006 -0.010531,-0.0105 -0.015796,-0.0158 -0.012412,-0.0124 -0.073949,-0.0689 -0.07898,-0.079 -0.00235,-0.005 0.00372,-0.0121 0,-0.0158 -0.010531,-0.005 -0.021061,-0.0105 -0.031592,-0.0158 0,-0.005 0.00372,-0.0121 0,-0.0158 -0.032682,-0.0327 0.00128,0.0499 -0.031592,-0.0158 -0.00235,-0.005 0.00235,-0.0111 0,-0.0158 -0.0021,-0.004 -0.043194,-0.0453 -0.047388,-0.0474 -0.00471,-0.002 -0.012073,0.004 -0.015796,0 -0.00372,-0.004 0.00372,-0.0121 0,-0.0158 -0.00372,-0.004 -0.012073,0.004 -0.015796,0 -0.00372,-0.004 0.00235,-0.0111 0,-0.0158 -0.00666,-0.0133 -0.024932,-0.0183 -0.031592,-0.0316 -0.00235,-0.005 0.00372,-0.0121 0,-0.0158 -0.00372,-0.004 -0.010531,0 -0.015796,0 0.098823,-0.0822 0.094776,-0.0378 0.094776,-0.0947 0,-0.005 -0.00372,-0.0121 0,-0.0158 0.00745,-0.007 0.022173,0.005 0.031592,0 0.019961,-0.01 0.059019,-0.069 0.07898,-0.079 0.00471,-0.002 0.012073,0.004 0.015796,0 0.00833,-0.008 0.00747,-0.0233 0.015796,-0.0316 0.038365,-0.0384 0.023195,0.005 0.047388,-0.0316 0.00653,-0.01 0.00927,-0.0218 0.015796,-0.0316 0.00413,-0.006 0.010531,-0.0105 0.015796,-0.0158 0.00527,-0.005 0.00873,-0.0134 0.015796,-0.0158 0.00999,-0.003 0.02283,0.006 0.031592,0 0.0098,-0.007 0.00747,-0.0233 0.015796,-0.0316 0.00833,-0.008 0.023267,-0.007 0.031592,-0.0158 0.00372,-0.004 -0.00235,-0.0111 0,-0.0158 0.00594,-0.0119 0.037008,-0.037 0.047388,-0.0474 0.026327,-0.0263 0.052653,-0.0527 0.07898,-0.079 0.00527,-0.005 0.00914,-0.0125 0.015796,-0.0158 0.00471,-0.002 0.012073,0.004 0.015796,0 0.00372,-0.004 -0.00235,-0.0111 0,-0.0158 0.017463,-0.0349 0.0098,-0.005 0.031592,-0.0158 0.00666,-0.003 0.00914,-0.0125 0.015796,-0.0158 0.00942,-0.005 0.026883,0.009 0.031592,0 0.00471,-0.009 -0.00471,-0.0222 0,-0.0316 0.00235,-0.005 0.012073,0.004 0.015796,0 0.021061,-0.0211 -0.026327,-0.0158 0.015796,-0.0158 0.1158376,0.0422 0.2319243,0.0837 0.3475129,0.12653 0.042415,0.003 0.073341,0.0325 0.1105722,0.0474 0.039022,0.0156 0.073961,0.0254 0.1105721,0.0474 0.016279,0.01 0.031109,0.0218 0.047388,0.0316 0.020192,0.0121 0.042123,0.0211 0.063184,0.0316 0.010531,0.005 0.02017,0.0129 0.031592,0.0158 0.010216,0.003 0.021061,0 0.031592,0 0.00527,0 0.011087,-0.002 0.015796,0 0.01332,0.007 0.018272,0.0249 0.031592,0.0316 0.00942,0.005 0.022173,-0.005 0.031592,0 0.00666,0.003 0.00914,0.0125 0.015796,0.0158 0.00471,0.002 0.011087,-0.002 0.015796,0 0.01332,0.007 0.018272,0.0249 0.031592,0.0316 0.00471,0.002 0.012073,-0.004 0.015796,0 0.00833,0.008 0.00747,0.0233 0.015796,0.0316 0.00372,0.004 0.011087,-0.002 0.015796,0 0.00666,0.003 0.00914,0.0125 0.015796,0.0158 0.042123,0 -0.00527,-0.005 0.015796,0.0158 0.00372,0.004 0.015796,-0.005 0.015796,0 0,0.005 -0.010531,0 -0.015796,0 -0.00527,0 -0.010531,0 -0.015796,0 -0.021061,0 -0.042123,0 -0.063184,0 -0.042123,0 -0.084245,0 -0.1263682,0 -0.015015,0 -0.050203,-0.004 -0.063184,0 -0.1144172,0.0381 0.024904,-0.005 -0.047388,0.0316 -0.00471,0.002 -0.012073,-0.004 -0.015796,0 -0.00372,0.004 0.00372,0.0121 0,0.0158 -0.00745,0.007 -0.024146,-0.007 -0.031592,0 -0.00372,0.004 0.00235,0.0111 0,0.0158 -0.00333,0.007 -0.010531,0.0105 -0.015796,0.0158 0.3107118,0.0774 0.060056,-0.019 0.1421644,0.0631 0.00372,0.004 0.012073,-0.004 0.015796,0 0.00372,0.004 -0.00372,0.0121 0,0.0158 0.00372,0.004 0.010801,-0.002 0.015796,0 0.01117,0.004 0.02017,0.0129 0.031592,0.0158 0.010216,0.003 0.021602,-0.003 0.031592,0 0.00706,0.002 0.00914,0.0125 0.015796,0.0158 0.00471,0.002 0.012073,-0.004 0.015796,0 0.00372,0.004 -0.00235,0.0111 0,0.0158 0.03287,0.0657 -0.00109,-0.0169 0.031592,0.0158 0.00372,0.004 -0.00372,0.0121 0,0.0158 0.00372,0.004 0.011087,-0.002 0.015796,0 0.01332,0.007 0.019201,0.0233 0.031592,0.0316 0.0098,0.007 0.023267,0.007 0.031592,0.0158 0.032682,0.0327 -0.049943,-0.001 0.015796,0.0316 0.00471,0.002 0.013441,-0.005 0.015796,0 0.00471,0.009 -0.00471,0.0222 0,0.0316 0.00235,0.005 0.011087,-0.002 0.015796,0 0.018661,0.009 0.029962,0.0358 0.047388,0.0474 0.0098,0.007 0.021796,0.009 0.031592,0.0158 0.012391,0.008 0.021061,0.0211 0.031592,0.0316 0.015796,0.0158 0.031592,0.0316 0.047388,0.0474 0.00527,0.005 0.00914,0.0125 0.015796,0.0158 0.00471,0.002 0.012073,-0.004 0.015796,0 0.00372,0.004 -0.00372,0.0121 0,0.0158 0.00833,0.008 0.023267,0.007 0.031592,0.0158 0.00372,0.004 -0.00235,0.0111 0,0.0158 0.00333,0.007 0.010531,0.0105 0.015796,0.0158 0.00527,0.005 0.00914,0.0125 0.015796,0.0158 0.00471,0.002 0.012073,-0.004 0.015796,0 0.00833,0.008 0.00747,0.0233 0.015796,0.0316 0.00372,0.004 0.012073,-0.004 0.015796,0 0.00833,0.008 0.00747,0.0233 0.015796,0.0316 0.00372,0.004 0.011086,-0.002 0.015796,0 0.019961,0.01 0.059019,0.069 0.07898,0.079 0.012637,0.006 0.034751,-0.006 0.047388,0 0.00666,0.003 0.010531,0.0105 0.015796,0.0158 0.00527,0.005 0.012466,0.009 0.015796,0.0158 0.00235,0.005 -0.00372,0.0121 0,0.0158 0.00745,0.007 0.022173,-0.005 0.031592,0 0.00666,0.003 0.00914,0.0125 0.015796,0.0158 0.00471,0.002 0.011087,-0.002 0.015796,0 0.00666,0.003 0.00914,0.0125 0.015796,0.0158 0.00471,0.002 0.012073,-0.004 0.015796,0 0.00372,0.004 -0.00235,0.0111 0,0.0158 0.00594,0.0119 0.037008,0.037 0.047388,0.0474 0.011864,0.0119 0.034946,0.0316 0.015796,0.0316 -0.00527,0 -0.00527,-0.0158 0,-0.0158 0.00745,0 0.012466,0.009 0.015796,0.0158 0.00471,0.009 -0.00745,0.0242 0,0.0316 0.00372,0.004 0.012073,-0.004 0.015796,0 0.00372,0.004 -0.00235,0.0111 0,0.0158 0.03287,0.0657 -0.00109,-0.0169 0.031592,0.0158 0.021061,0.0211 -0.026327,0.0158 0.015796,0.0158"
       id="path10277"
       inkscape:connector-curvature="0" />
    <path
       style="fill:none;stroke:#000000;stroke-width:0.26458332px;stroke-linecap:butt;stroke-linejoin:miter;stroke-opacity:1"
       d="m 4.5650499,293.90397 c -0.012772,-0.0899 -0.06613,-0.001 -0.094776,-0.0158 -0.042629,-0.0213 5.556e-4,-0.007 -0.015796,-0.0316 -0.00826,-0.0124 -0.019201,-0.0233 -0.031592,-0.0316 -0.00876,-0.006 -0.024146,0.007 -0.031592,0 -0.032683,-0.0327 0.049943,10e-4 -0.015796,-0.0316 -0.00471,-0.002 -0.01053,0 -0.015796,0 -0.00527,-0.0105 -0.00747,-0.0233 -0.015796,-0.0316 -0.00372,-0.004 -0.012073,0.004 -0.015796,0 -0.00372,-0.004 0.00235,-0.0111 0,-0.0158 -0.00333,-0.007 -0.012465,-0.009 -0.015796,-0.0158 -0.00235,-0.005 0.00471,-0.0134 0,-0.0158 -0.00942,-0.005 -0.022172,0.005 -0.031592,0 -0.00471,-0.002 0.00235,-0.0111 0,-0.0158 -0.00333,-0.007 -0.01053,-0.0105 -0.015796,-0.0158 -0.00527,-0.005 -0.00914,-0.0125 -0.015796,-0.0158 -0.00471,-0.002 -0.012073,0.004 -0.015796,0 -0.00372,-0.004 0.00372,-0.0121 0,-0.0158 -0.00372,-0.004 -0.011086,0.002 -0.015796,0 -0.00666,-0.003 -0.00914,-0.0125 -0.015796,-0.0158 -0.00942,-0.005 -0.024146,0.007 -0.031592,0 -0.00372,-0.004 0.00372,-0.0121 0,-0.0158 -0.00372,-0.004 -0.012073,0.004 -0.015796,0 -0.00372,-0.004 0.00372,-0.0121 0,-0.0158 -0.00745,-0.007 -0.024146,0.007 -0.031592,0 -0.00372,-0.004 0.00372,-0.0121 0,-0.0158 -0.00372,-0.004 -0.012073,0.004 -0.015796,0 -0.00372,-0.004 0.00372,-0.0121 0,-0.0158 -0.00372,-0.004 -0.011086,0.002 -0.015796,0 -0.00666,-0.003 -0.00914,-0.0125 -0.015796,-0.0158 -0.00471,-0.002 -0.011086,0.002 -0.015796,0 -0.00666,-0.003 -0.00873,-0.0134 -0.015796,-0.0158 -0.00999,-0.003 -0.022172,0.005 -0.031592,0 -0.00942,-0.005 0.00745,-0.0241 0,-0.0316 -0.010583,-0.0106 -0.021008,0.0106 -0.031592,0 -0.00372,-0.004 0.00372,-0.0121 0,-0.0158 -0.00372,-0.004 -0.011086,0.002 -0.015796,0 -0.065739,-0.0329 0.016886,10e-4 -0.015796,-0.0316 -0.00372,-0.004 -0.012073,0.004 -0.015796,0 -0.00372,-0.004 0.00372,-0.0121 0,-0.0158 -0.021061,-0.0211 -0.015796,0.0263 -0.015796,-0.0158"
       id="path10279"
       inkscape:connector-curvature="0" />
    <path
       style="fill:none;stroke:#000000;stroke-width:0.26458332px;stroke-linecap:butt;stroke-linejoin:miter;stroke-opacity:1"
       d="m 4.7703991,293.46149 c -0.040197,-0.001 -0.084924,-0.0951 -0.1263693,-0.12617 -0.015187,-0.0114 -0.032201,-0.0202 -0.047388,-0.0316 -0.011914,-0.009 -0.018272,-0.0249 -0.031592,-0.0316 -0.014893,-0.007 -0.032495,-0.008 -0.047388,-0.0158 -0.00666,-0.003 -0.00914,-0.0125 -0.015796,-0.0158 -0.00471,-0.002 -0.012073,0.004 -0.015796,0 -0.00372,-0.004 0.00372,-0.0121 0,-0.0158 -0.00372,-0.004 -0.012073,0.004 -0.015796,0 -0.021061,-0.0211 0.033508,-0.0152 -0.015796,-0.0316 -0.00999,-0.003 -0.022172,0.005 -0.031592,0 -0.00471,-0.002 0.00372,-0.0121 0,-0.0158 -0.00372,-0.004 -0.011086,0.002 -0.015796,0 -0.00666,-0.003 -0.00914,-0.0125 -0.015796,-0.0158 -0.00471,-0.002 -0.011086,0.002 -0.015796,0 -0.00666,-0.003 -0.00914,-0.0125 -0.015796,-0.0158 -0.00942,-0.005 -0.024146,0.007 -0.031592,0 -0.00372,-0.004 0.00372,-0.0121 0,-0.0158 -0.00372,-0.004 -0.012073,0.004 -0.015796,0 -0.00372,-0.004 0.00372,-0.0121 0,-0.0158 -0.00745,-0.007 -0.024146,0.007 -0.031592,0 -0.00372,-0.004 0.00372,-0.0121 0,-0.0158 -0.00372,-0.004 -0.011086,0.002 -0.015796,0 -0.013322,-0.007 -0.017463,-0.0269 -0.031592,-0.0316 -0.00999,-0.003 -0.022172,0.005 -0.031592,0 -0.00471,-0.002 0.00372,-0.0121 0,-0.0158 -0.00372,-0.004 -0.01053,0 -0.015796,0 -0.00527,0 -0.01053,0 -0.015796,0"
       id="path10281"
       inkscape:connector-curvature="0" />
    <path
       style="fill:#ffffff;stroke:#000000;stroke-width:0.26458332px;stroke-linecap:butt;stroke-linejoin:miter;stroke-opacity:1"
       d="m 5.1021157,293.14558 c -0.064987,0.01 -0.075659,-0.0461 -0.1263695,-0.063 -0.005,-0.002 -0.01053,0 -0.015796,0 -0.015796,-0.0105 -0.030408,-0.0231 -0.047388,-0.0316 -0.00471,-0.002 -0.011086,0.002 -0.015796,0 -0.00666,-0.003 -0.00914,-0.0125 -0.015796,-0.0158 -0.00942,-0.005 -0.024146,0.007 -0.031592,0 -0.00372,-0.004 0.00372,-0.0121 0,-0.0158 -0.00372,-0.004 -0.011086,0.002 -0.015796,0 -0.00991,-0.005 -0.052375,-0.0524 -0.063184,-0.0632 -0.012412,-0.0124 -0.073949,-0.0689 -0.07898,-0.079 -0.00235,-0.005 0.00372,-0.0121 0,-0.0158 -0.00372,-0.004 -0.011086,0.002 -0.015796,0 -0.00666,-0.003 -0.01053,-0.0105 -0.015796,-0.0158 -0.00527,-0.005 -0.012467,-0.009 -0.015796,-0.0158 -0.00235,-0.005 0.00372,-0.0121 0,-0.0158 -0.00372,-0.004 -0.012073,0.004 -0.015796,0 -0.00372,-0.004 0.00372,-0.0121 0,-0.0158 -0.032682,-0.0327 0.00127,0.0499 -0.031592,-0.0158 -0.00471,-0.009 0.00471,-0.0222 0,-0.0316 -0.00333,-0.007 -0.012467,-0.009 -0.015796,-0.0158 -0.00235,-0.005 0.00372,-0.0121 0,-0.0158 -0.00745,-0.007 -0.024146,0.007 -0.031592,0 -0.00372,-0.004 0.00372,-0.0121 0,-0.0158 -0.00372,-0.004 -0.012073,0.004 -0.015796,0 -0.032682,-0.0327 0.049943,0.001 -0.015796,-0.0316 -0.01987,-0.01 -0.031592,0.0227 -0.031592,-0.0158"
       id="path10283"
       inkscape:connector-curvature="0" />
    <path
       style="fill:#ffffff;fill-opacity:1;stroke:#000000;stroke-width:0.02985075;stroke-miterlimit:4;stroke-dasharray:none"
       d="M 8.5223651,25.843804 C 8.2556562,25.803402 8.20947,25.632158 8.3887049,25.348232 8.4727778,25.215051 8.6315596,25.006321 8.7415533,24.884386 8.9633457,24.638516 9.1343284,24.277513 9.1343284,24.055105 9.1343284,23.913392 8.6955716,23.2 8.6084145,23.2 8.5842955,23.2 8.4328815,23.079104 8.271939,22.931343 8.1109966,22.783582 7.9542376,22.662687 7.9235858,22.662687 c -0.030652,0 -0.1805494,-0.132949 -0.3331057,-0.295442 C 7.2214887,21.97422 6.9242186,21.91185 6.5621084,22.151483 c -0.2676624,0.177131 -0.469105,0.540545 -0.471245,0.850154 -8.943e-4,0.12936 -0.048002,0.226424 -0.1481053,0.305165 -0.080737,0.06351 -0.2128639,0.260234 -0.2936159,0.437169 -0.080752,0.176935 -0.149023,0.277469 -0.1517134,0.223408 -0.00269,-0.05406 -0.094218,-0.176723 -0.2033956,-0.272583 -0.2407324,-0.211365 -0.3389779,-0.613474 -0.3384764,-1.38535 4.681e-4,-0.720148 0.05933,-0.880905 0.4634208,-1.265644 0.3826769,-0.364351 0.5461468,-0.465499 1.0287836,-0.636571 1.1175007,-0.3961 1.6006287,-0.321989 1.9147387,0.293717 0.093497,0.183269 0.1465,0.23027 0.2233295,0.198038 0.2538077,-0.106479 0.8079268,-0.265429 0.8340937,-0.239262 0.015998,0.016 -0.01547,0.09709 -0.069929,0.180204 -0.076314,0.11647 -0.080729,0.151117 -0.019257,0.151117 0.098,0 0.3237191,-0.243841 0.5400805,-0.583441 0.1823044,-0.286145 0.2217234,-0.336579 0.7289464,-0.932663 0.435867,-0.512226 0.862922,-1.181127 0.862922,-1.351605 0,-0.0684 0.08154,-0.225836 0.181206,-0.349854 0.09966,-0.124018 0.206814,-0.318235 0.238115,-0.431595 0.03591,-0.13007 0.222355,-0.375354 0.505361,-0.664858 0.250986,-0.256749 0.448452,-0.510513 0.448452,-0.576306 0,-0.06466 0.02852,-0.135185 0.06338,-0.15673 0.03486,-0.02155 0.09046,-0.09701 0.123547,-0.167703 0.208569,-0.445573 0.636029,-0.9942 0.774627,-0.9942 0.132221,0 0.940714,-0.906986 1.137813,-1.276427 0.132266,-0.247916 0.847657,-1.089937 1.414065,-1.664366 0.251192,-0.25475 0.479411,-0.513201 0.507153,-0.574337 0.02774,-0.06114 0.16207,-0.143991 0.298508,-0.184124 0.30574,-0.08993 0.557918,-0.319382 0.609592,-0.554651 0.02462,-0.112075 0.192144,-0.323376 0.454854,-0.5736991 0.416401,-0.3967688 0.776556,-0.9123328 0.847622,-1.2133747 0.03818,-0.161747 -0.05765,-0.7439287 -0.140663,-0.854544 C 18.90168,7.8537313 18.824221,7.6588482 18.754192,7.4534936 18.64846,7.1434445 18.626866,6.9406636 18.626866,6.257833 V 5.4355444 l 0.19403,-0.1716007 c 0.257008,-0.2272992 0.570216,-0.3615898 1.263401,-0.5416943 0.852531,-0.2215064 1.087022,-0.1879313 0.676897,0.09692 -0.106716,0.07412 -0.257015,0.1957188 -0.333998,0.2702204 -0.113828,0.1101608 -0.21872,0.138712 -0.561671,0.1528845 l -0.421702,0.017427 0.482419,0.5734002 c 0.499414,0.5935999 0.886775,0.9015886 1.283392,1.0204181 0.126635,0.037941 0.256348,0.1177573 0.288252,0.1773703 0.09726,0.1817281 0.500211,0.3430902 0.724768,0.2902327 0.231794,-0.054561 0.523585,-0.1856017 0.523687,-0.2351834 1.8e-4,-0.081009 0.302734,-0.3791648 0.343518,-0.338511 0.02446,0.02438 0.05358,0.3224546 0.06471,0.6623887 0.01843,0.5627028 0.0093,0.6274278 -0.101879,0.7226284 -0.06717,0.057512 -0.170309,0.1113126 -0.229201,0.119558 -0.490755,0.06871 -0.614532,0.095049 -0.614487,0.1307591 2.8e-5,0.022615 -0.261912,0.042768 -0.582089,0.044784 -0.92592,0.00583 -1.45744,0.1995992 -1.536639,0.5601877 -0.02104,0.09579 -0.07902,0.2079951 -0.128839,0.2493442 -0.04982,0.041349 -0.172125,0.2367072 -0.271783,0.4341293 -0.09966,0.1974222 -0.298959,0.4734014 -0.44289,0.6132854 -0.143931,0.139885 -0.261692,0.300739 -0.261692,0.357452 0,0.131302 -0.472987,0.918236 -0.575565,0.957599 -0.07875,0.03022 -0.364014,0.598824 -0.623231,1.242247 -0.07937,0.197015 -0.2048,0.449272 -0.278729,0.56057 -0.07393,0.111299 -0.134416,0.253595 -0.134416,0.316215 0,0.145475 -0.516403,1.051727 -0.697944,1.224842 -0.07583,0.07231 -0.137877,0.145981 -0.137877,0.163707 0,0.04473 -1.090469,1.141866 -1.165374,1.172494 -0.06943,0.02839 -0.565969,0.611394 -0.565969,0.664522 0,0.01923 -0.08731,0.125738 -0.19403,0.236685 -0.305067,0.317162 -0.545209,0.611966 -0.632362,0.776305 -0.06372,0.120159 -1.207441,1.27153 -1.570128,1.580637 -0.0446,0.03801 -0.134823,0.141438 -0.200495,0.229837 -0.06567,0.0884 -0.236827,0.272224 -0.380347,0.408501 -0.143518,0.136276 -0.425608,0.411724 -0.626865,0.612108 -0.201257,0.200384 -0.406221,0.388443 -0.455474,0.417911 -0.04925,0.02947 -0.179859,0.169904 -0.290233,0.312083 -0.187789,0.241899 -0.199083,0.282172 -0.175801,0.626866 0.01368,0.202597 0.0686,0.462389 0.122032,0.577314 0.191816,0.412557 0.284304,0.953508 0.284077,1.661539 -2.57e-4,0.806438 -0.08774,1.046203 -0.390863,1.07129 -0.09394,0.0078 -0.197513,0.04084 -0.230158,0.07349 -0.03264,0.03264 -0.1195583,0.05935 -0.1931429,0.05935 -0.073584,0 -0.148478,0.02377 -0.16643,0.05281 -0.017952,0.02905 -0.1532398,0.0709 -0.3006394,0.093 -0.1473995,0.0221 -0.2836438,0.0655 -0.302765,0.09644 -0.034515,0.05585 -0.2649738,0.06121 -0.5799806,0.01349 z"
       id="path10285"
       inkscape:connector-curvature="0"
       transform="matrix(0.26458333,0,0,0.26458333,0,288.53333)" />
    <path
       style="fill:#ffffff;fill-opacity:1;stroke:#000000;stroke-width:0.02985075;stroke-miterlimit:4;stroke-dasharray:none"
       d="m 20.858384,22.450987 c -0.05597,-0.08542 -0.251857,-0.250691 -0.4353,-0.36726 C 20.239642,21.967158 20.049254,21.835126 20,21.790322 c -0.04925,-0.0448 -0.358209,-0.299607 -0.686567,-0.566231 -0.328358,-0.266624 -0.664179,-0.543177 -0.746269,-0.614563 -0.08209,-0.07139 -0.270149,-0.213675 -0.41791,-0.316199 -0.147761,-0.102524 -0.361241,-0.283002 -0.474398,-0.401062 -0.113158,-0.11806 -0.26303,-0.214655 -0.333048,-0.214655 -0.14978,0 -0.680988,-0.337749 -0.729325,-0.463715 -0.01838,-0.0479 -0.294762,-0.25614 -0.614179,-0.462755 -0.798252,-0.516351 -0.852128,-0.565641 -0.74569,-0.682224 0.0466,-0.05104 0.162054,-0.179278 0.256568,-0.284975 l 0.171844,-0.192176 0.671555,0.408188 c 0.462208,0.280942 0.847932,0.57814 1.23735,0.95337 0.311188,0.29985 0.594665,0.545182 0.62995,0.545182 0.03528,0 0.164613,0.08731 0.287395,0.19403 0.122782,0.106717 0.304387,0.255118 0.403567,0.329781 0.09918,0.07466 0.213447,0.215708 0.253925,0.313433 0.04048,0.09773 0.100234,0.177682 0.132789,0.177682 0.03255,0 0.143474,0.06813 0.246488,0.15139 0.543536,0.439331 1.023701,0.838343 1.175256,0.976624 0.09377,0.08556 0.268986,0.20852 0.389357,0.273238 l 0.218856,0.117671 0.14301,-0.177372 c 0.07865,-0.09756 0.213689,-0.278438 0.300077,-0.401962 0.151988,-0.217325 0.153594,-0.228429 0.04965,-0.343284 -0.05908,-0.06528 -0.138525,-0.118693 -0.176547,-0.118693 -0.03802,0 -0.148036,-0.08307 -0.244478,-0.184605 -0.148973,-0.156838 -0.394515,-0.362131 -1.064517,-0.890022 -0.06251,-0.04925 -0.251745,-0.223881 -0.420515,-0.38806 -0.304139,-0.295864 -0.640676,-0.585727 -1.053825,-0.90767 -0.117841,-0.09183 -0.279035,-0.228816 -0.358209,-0.304421 -0.552831,-0.52791 -0.833972,-0.769806 -0.985008,-0.847513 -0.09563,-0.0492 -0.194538,-0.121619 -0.219797,-0.160931 -0.02526,-0.03931 -0.213318,-0.155899 -0.41791,-0.25908 -0.396496,-0.199966 -0.531894,-0.296504 -0.415854,-0.296504 0.03826,0 0.162157,-0.0813 0.275325,-0.18066 l 0.205761,-0.18066 0.498337,0.494093 c 0.33402,0.331175 0.632219,0.562991 0.904368,0.703048 0.546005,0.28099 0.578093,0.300395 0.849559,0.513773 0.129741,0.101978 0.356787,0.260173 0.504549,0.351545 0.147761,0.09137 0.470149,0.370881 0.716417,0.621131 0.246269,0.25025 0.580403,0.562204 0.74252,0.69323 0.162117,0.131027 0.34346,0.285246 0.402985,0.342709 0.05953,0.05746 0.128376,0.105332 0.153003,0.106378 0.02463,10e-4 0.191413,0.132019 0.370636,0.291054 l 0.325861,0.289155 -0.116905,0.260567 c -0.112332,0.250372 -0.348323,0.551887 -0.882457,1.127473 -0.398658,0.429596 -0.436152,0.447555 -0.555169,0.265912 z"
       id="path10287"
       inkscape:connector-curvature="0"
       transform="matrix(0.26458333,0,0,0.26458333,0,288.53333)" />
    <path
       style="fill:none;stroke:#000000;stroke-width:0.26458332px;stroke-linecap:butt;stroke-linejoin:miter;stroke-opacity:1"
       d="m 3.238184,292.35597 c -0.021061,0.0421 -0.021061,0.0421 0,0 z"
       id="path10289"
       inkscape:connector-curvature="0" />
    <path
       style="fill:#ffffff;fill-opacity:1;stroke:#000000;stroke-width:0.02985075;stroke-miterlimit:4;stroke-dasharray:none"
       d="m 12.359419,14.48433 c -0.09628,-0.05951 -0.01659,-0.198529 0.09029,-0.157515 0.05543,0.02127 0.07794,-0.02184 0.0745,-0.142691 -0.0056,-0.195186 -0.02337,-0.214784 -1.604205,-1.763814 C 10.34833,11.860137 9.7328358,11.298582 9.5522388,11.172411 9.3716418,11.046239 9.1701493,10.892019 9.1044776,10.8297 8.7177954,10.462759 8.3838888,10.280709 8.0527755,10.256299 7.5785053,10.221336 7.3257515,10.350325 7.2219408,10.680301 7.0912801,11.095624 6.8580589,11.279064 6.7786759,11.02895 6.7592386,10.967709 6.5760849,10.755825 6.3716676,10.558097 6.1672504,10.360369 5.9214089,10.115283 5.8253531,10.013461 L 5.6507061,9.8283307 6.0621406,9.4544639 C 6.2884296,9.2488371 6.7078339,8.8455318 6.9941503,8.55823 7.4931137,8.0575491 7.5217005,8.0385664 7.6827359,8.1009834 7.7751416,8.1367996 8.038806,8.23355 8.2686567,8.3159843 8.4985075,8.3984185 8.8685534,8.5491691 9.090981,8.6509856 L 9.4953948,8.8361064 9.0649836,9.2694096 c -0.29711,0.2991062 -0.4038697,0.4425659 -0.3447123,0.4632114 0.047134,0.01645 0.3065195,0.085045 0.5764114,0.1524339 0.566103,0.1413501 1.1366193,0.4503641 1.4798343,0.8015381 0.131563,0.134613 0.319622,0.307627 0.417911,0.384475 0.09829,0.07685 0.428085,0.379808 0.732882,0.673241 0.318017,0.306161 0.686919,0.598754 0.865672,0.686607 0.178542,0.08775 0.375201,0.243664 0.460749,0.365293 0.08209,0.116711 0.221608,0.289431 0.31004,0.383823 l 0.160787,0.171621 -0.265544,0.252532 c -0.146049,0.138892 -0.379596,0.35334 -0.518995,0.476551 -0.139399,0.12321 -0.309913,0.27502 -0.378922,0.337356 -0.07532,0.06804 -0.15593,0.09451 -0.201678,0.06624 z"
       id="path10291"
       inkscape:connector-curvature="0"
       transform="matrix(0.26458333,0,0,0.26458333,0,288.53333)" />
  </g>
</svg>
