<?xml version="1.0" encoding="UTF-8" standalone="no"?>
<!-- Created with Inkscape (http://www.inkscape.org/) -->

<svg
   xmlns:dc="http://purl.org/dc/elements/1.1/"
   xmlns:cc="http://creativecommons.org/ns#"
   xmlns:rdf="http://www.w3.org/1999/02/22-rdf-syntax-ns#"
   xmlns:svg="http://www.w3.org/2000/svg"
   xmlns="http://www.w3.org/2000/svg"
   xmlns:sodipodi="http://sodipodi.sourceforge.net/DTD/sodipodi-0.dtd"
   xmlns:inkscape="http://www.inkscape.org/namespaces/inkscape"
   width="32"
   height="32"
   viewBox="0 0 8.4666667 8.4666667"
   version="1.1"
   id="svg4517"
   inkscape:version="0.92.1 r15371"
   sodipodi:docname="Rain.svg"
   inkscape:export-filename="C:\Unity\Gods Fate\Assets\Graphics\Icons\Rain.png"
   inkscape:export-xdpi="96"
   inkscape:export-ydpi="96">
  <defs
     id="defs4511" />
  <sodipodi:namedview
     id="base"
     pagecolor="#ffffff"
     bordercolor="#666666"
     borderopacity="1.0"
     inkscape:pageopacity="0.0"
     inkscape:pageshadow="2"
     inkscape:zoom="16.75"
     inkscape:cx="4.358209"
     inkscape:cy="16"
     inkscape:document-units="mm"
     inkscape:current-layer="layer1"
     showgrid="false"
     units="px"
     inkscape:window-width="1920"
     inkscape:window-height="1017"
     inkscape:window-x="-8"
     inkscape:window-y="-8"
     inkscape:window-maximized="1" />
  <metadata
     id="metadata4514">
    <rdf:RDF>
      <cc:Work
         rdf:about="">
        <dc:format>image/svg+xml</dc:format>
        <dc:type
           rdf:resource="http://purl.org/dc/dcmitype/StillImage" />
        <dc:title />
      </cc:Work>
    </rdf:RDF>
  </metadata>
  <g
     inkscape:label="Calque 1"
     inkscape:groupmode="layer"
     id="layer1"
     transform="translate(0,-288.53333)">
    <path
       style="fill:none;fill-opacity:1;stroke:#000000;stroke-width:0.13229166;stroke-miterlimit:4;stroke-dasharray:none"
       d="m 1.595398,291.48719 c -0.00527,0.0211 -0.010531,0.0421 -0.015796,0.0632 -0.00527,0.005 -0.012466,0.009 -0.015796,0.0158 -0.00235,0.005 0.00235,0.0111 0,0.0158 -0.00333,0.007 -0.012466,0.009 -0.015796,0.0158 -0.00471,0.009 0.00471,0.0222 0,0.0316 -0.00333,0.007 -0.012466,0.009 -0.015796,0.0158 -0.00471,0.009 0,0.0211 0,0.0316 0,0.0316 0,0.0632 0,0.0948 0,0.0105 0,0.0211 0,0.0316 0,0.005 0.00235,0.0111 0,0.0158 -0.00333,0.007 -0.012466,0.009 -0.015796,0.0158 -0.00381,0.008 0,0.0523 0,0.0632 0,0.0527 0,0.10531 0,0.15796 0,0.0185 -0.00401,0.10255 0,0.11057 0.00333,0.007 0.012466,0.009 0.015796,0.0158 0.00235,0.005 -0.00235,0.0111 0,0.0158 0.00333,0.007 0.012466,0.009 0.015796,0.0158 0.00477,0.01 -0.0073,0.0401 0,0.0474 0.00833,0.008 0.023267,0.007 0.031592,0.0158 0.00745,0.007 -0.00745,0.0242 0,0.0316 0.00372,0.004 0.012073,-0.004 0.015796,0 0.00372,0.004 -0.00372,0.0121 0,0.0158 0.00372,0.004 0.011087,-0.002 0.015796,0 0.019808,0.01 0.043376,0.0533 0.063184,0.0632 0.00471,0.002 0.012073,-0.004 0.015796,0 0.00833,0.008 0.00747,0.0233 0.015796,0.0316 0.0073,0.007 0.037851,-0.005 0.047388,0 0.00852,0.004 0.023069,0.0273 0.031592,0.0316 0.00761,0.004 0.05226,0 0.063184,0 0.052653,0 0.1053068,0 0.1579602,0 0.063184,0 0.1263682,0 0.1895523,0 0.019214,0 0.082112,0.004 0.094776,0 0.1144171,-0.0381 -0.024904,0.005 0.047388,-0.0316 0.00471,-0.002 0.010801,0.002 0.015796,0 0.1144172,-0.0381 -0.024904,0.005 0.047388,-0.0316 0.00471,-0.002 0.011087,0.002 0.015796,0 0.00666,-0.003 0.00873,-0.0134 0.015796,-0.0158 0.00999,-0.003 0.021602,0.003 0.031592,0 0.049304,-0.0164 -0.00527,-0.0105 0.015796,-0.0316 0.00372,-0.004 0.012073,0.004 0.015796,0 0.00833,-0.008 0.00747,-0.0233 0.015796,-0.0316 0.00372,-0.004 0.013441,0.005 0.015796,0 0.00471,-0.009 -0.00471,-0.0222 0,-0.0316 0.00235,-0.005 0.012073,0.004 0.015796,0 0.00372,-0.004 0,-0.0105 0,-0.0158 0.010531,-0.005 0.023267,-0.007 0.031592,-0.0158 0.00745,-0.007 -0.00745,-0.0241 0,-0.0316 0.00372,-0.004 0.012073,0.004 0.015796,0 0.00745,-0.007 -0.00471,-0.0222 0,-0.0316 0.00333,-0.007 0.00914,-0.0125 0.015796,-0.0158 0.00471,-0.002 0.013441,0.005 0.015796,0 0,-0.0895 -0.010531,-0.005 0.015796,-0.0316 0.00745,-0.007 -0.00745,-0.0241 0,-0.0316 0.00372,-0.004 0.012073,0.004 0.015796,0 0.00832,-0.008 0.00747,-0.0233 0.015796,-0.0316 0.00372,-0.004 0.012073,0.004 0.015796,0 0.00372,-0.004 -0.00372,-0.0121 0,-0.0158 0.00832,-0.008 0.023268,-0.007 0.031592,-0.0158 0.00372,-0.004 -0.00372,-0.0121 0,-0.0158 0.00372,-0.004 0.013441,0.005 0.015796,0 0.00471,-0.009 -0.00333,-0.0216 0,-0.0316 0.00235,-0.007 0.012467,-0.009 0.015796,-0.0158 0.00241,-0.005 0,-0.0403 0,-0.0474 0,-0.0158 -0.00706,-0.0333 0,-0.0474 0.00235,-0.005 0.012073,0.004 0.015796,0 0.00372,-0.004 -0.00235,-0.0111 0,-0.0158 0.00333,-0.007 0.012467,-0.009 0.015796,-0.0158 0.00428,-0.009 -0.00432,-0.0589 0,-0.0632 0.00372,-0.004 0.012073,0.004 0.015796,0 7.144e-4,-7.1e-4 0,-0.0715 0,-0.079"
       id="path5062"
       inkscape:connector-curvature="0" />
    <path
       style="fill:none;fill-opacity:1;stroke:#000000;stroke-width:0.13229166;stroke-miterlimit:4;stroke-dasharray:none"
       d="m 2.6221385,292.16652 c 0.021062,0.0316 0.03888,0.0655 0.063185,0.0947 0.00337,0.004 0.012073,-0.004 0.015796,0 0.00372,0.004 -0.00167,0.0108 0,0.0158 0.00759,0.0228 0.026784,0.0494 0.047388,0.0632 0.00979,0.007 0.025061,0.006 0.031592,0.0158 0.00584,0.009 -0.00471,0.0222 0,0.0316 0.00235,0.005 0.011086,-0.002 0.015796,0 0.011882,0.006 0.037008,0.037 0.047388,0.0474 0.031592,0.0316 0.063184,0.0632 0.094776,0.0948 0.014531,0.0145 0.030328,0.036 0.047388,0.0474 -0.0018,0.0299 0.036857,0.0105 0.047388,0.0158 0.00666,0.003 0.0096,0.0117 0.015796,0.0158 0.00979,0.007 0.021796,0.009 0.031592,0.0158 0.0062,0.004 0.00914,0.0125 0.015796,0.0158 0.00942,0.005 0.0216,-0.003 0.031592,0 0.098047,0.0327 -0.052499,-0.001 0.07898,0.0316 0.00511,0.001 0.0108,-0.002 0.015796,0 0.011171,0.004 0.020423,0.0121 0.031592,0.0158 0.01207,0.004 0.034573,0 0.047388,0 0.042123,0 0.084246,0 0.1263682,0 0.042123,0 0.084246,0 0.1263682,0 0.015796,0 0.03326,0.007 0.047388,0 0.00471,-0.002 -0.00235,-0.0111 0,-0.0158 0.00327,-0.007 0.040693,-0.0429 0.047388,-0.0474 0.00979,-0.007 0.023268,-0.007 0.031592,-0.0158 0,-0.0232 -0.00372,-0.0121 0.015796,-0.0316 0.01038,-0.0104 0.041447,-0.0355 0.047388,-0.0474 0.00235,-0.005 -0.00235,-0.0111 0,-0.0158 0.00333,-0.007 0.011665,-0.01 0.015796,-0.0158 0.00653,-0.01 0.006,-0.0251 0.015796,-0.0316 0.00876,-0.006 0.024146,0.007 0.031592,0 0.00745,-0.007 -0.00471,-0.0222 0,-0.0316 0.00235,-0.005 0.012073,0.004 0.015796,0 0.00833,-0.008 0.00747,-0.0233 0.015796,-0.0316 0.00372,-0.004 0.011086,0.002 0.015796,0 0.00666,-0.003 0.00914,-0.0125 0.015796,-0.0158 0.00471,-0.002 0.012073,0.004 0.015796,0 0.00833,-0.008 0.00747,-0.0233 0.015796,-0.0316 0.00833,-0.008 0.021796,-0.009 0.031592,-0.0158 0.01239,-0.008 0.021061,-0.0211 0.031592,-0.0316 0.031592,-0.0316 0.063184,-0.0632 0.094776,-0.0948 0.01038,-0.0104 0.041447,-0.0355 0.047388,-0.0474 0.00624,-0.0125 -0.00444,-0.0341 0,-0.0474 0.00372,-0.0112 0.012073,-0.0204 0.015796,-0.0316 0.00167,-0.005 0,-0.0105 0,-0.0158 0,-0.0105 0,-0.0211 0,-0.0316 0,-0.0421 0,-0.0842 0,-0.12637 0,-0.0842 0,-0.16849 0,-0.25274"
       id="path5064"
       inkscape:connector-curvature="0" />
    <path
       style="fill:none;fill-opacity:1;stroke:#000000;stroke-width:0.13229166;stroke-miterlimit:4;stroke-dasharray:none"
       d="m 3.9490049,292.37176 c -0.06202,0.23839 0.067928,0.0363 0.094776,0.0632 0.00372,0.004 -0.00372,0.0121 0,0.0158 0.01665,0.0167 0.043591,0.0185 0.063184,0.0316 0.0062,0.004 0.01053,0.0105 0.015796,0.0158 0.01053,0.005 0.021796,0.009 0.031592,0.0158 0.01954,0.013 0.012054,0.0186 0.031592,0.0316 0.00979,0.007 0.021796,0.009 0.031592,0.0158 0.0062,0.004 0.00857,0.014 0.015796,0.0158 0.015325,0.004 0.031899,-0.003 0.047388,0 0.029234,-0.0117 0.028971,0.027 0.047388,0.0316 0.020016,0.005 0.071378,0 0.094776,0 0.00527,0 0.0108,-0.002 0.015796,0 0.011171,0.004 0.020423,0.0121 0.031592,0.0158 0.013142,0.004 0.046908,0 0.063184,0 0.042123,0 0.084246,0 0.1263682,0 0.016968,0 0.1194424,0.003 0.1263681,0 0.048171,-0.0241 -0.02889,-0.0125 0.047388,-0.0316 0.010216,-0.003 0.021601,0.003 0.031592,0 0.00706,-0.002 0.00914,-0.0125 0.015796,-0.0158 0.00471,-0.002 0.01053,0 0.015796,0 0.00527,-0.005 0.00914,-0.0125 0.015796,-0.0158 0.00471,-0.002 0.011086,0.002 0.015796,0 0.013319,-0.007 0.018272,-0.0249 0.031592,-0.0316 0.00942,-0.005 0.022172,0.005 0.031592,0 0.00441,-0.002 0.076778,-0.0746 0.07898,-0.079 0.00235,-0.005 -0.00235,-0.0111 0,-0.0158 0.00666,-0.0133 0.024932,-0.0183 0.031592,-0.0316 0.00235,-0.005 -0.00235,-0.0111 0,-0.0158 0.036146,-0.0723 -0.00655,0.067 0.031592,-0.0474 0.00167,-0.005 -0.00292,-0.0114 0,-0.0158 0.00826,-0.0124 0.023331,-0.0192 0.031592,-0.0316 0.00485,-0.007 -0.00456,-0.0586 0,-0.0632 0.00372,-0.004 0.012073,0.004 0.015796,0 0.030751,-0.0308 0.00458,-0.0453 0.015796,-0.079 0.00235,-0.007 0.012465,-0.009 0.015796,-0.0158 0.00389,-0.008 0,-0.0775 0,-0.0948 0,-0.0579 0,-0.11584 0,-0.17376 0,-0.0126 0.00365,-0.0559 0,-0.0632 -0.00333,-0.007 -0.012467,-0.009 -0.015796,-0.0158 -0.00471,-0.009 0,-0.0211 0,-0.0316 0,-0.0105 -0.01053,-0.0316 0,-0.0316 0.01053,0 0,0.0211 0,0.0316"
       id="path5066"
       inkscape:connector-curvature="0" />
    <path
       style="fill:none;fill-opacity:1;stroke:#000000;stroke-width:0.13229166;stroke-miterlimit:4;stroke-dasharray:none"
       d="m 1.579602,291.55039 c -0.068449,0.0684 -0.1344126,0.13947 -0.2053483,0.20533 -0.00386,0.004 -0.010531,0 -0.015796,0 -0.00527,0 -0.010531,0 -0.015796,0 -0.036857,0 -0.073715,0 -0.1105721,0 -0.014349,0 -0.1003178,0.003 -0.1105722,0 -0.00706,-0.002 -0.00914,-0.0125 -0.015796,-0.0158 -0.00471,-0.002 -0.011087,0.002 -0.015796,0 -0.00666,-0.003 -0.00873,-0.0134 -0.015796,-0.0158 -0.00999,-0.003 -0.022173,0.005 -0.031592,0 -0.00471,-0.002 0.00372,-0.0121 0,-0.0158 -0.00745,-0.007 -0.022173,0.005 -0.031592,0 -0.00666,-0.003 -0.00914,-0.0125 -0.0157959,-0.0158 -0.00471,-0.002 -0.0120729,0.004 -0.0157962,0 -0.003723,-0.004 0.003723,-0.0121 0,-0.0158 -0.0326825,-0.0327 0.001278,0.0499 -0.031592,-0.0158 -0.002355,-0.005 0.003723,-0.0121 0,-0.0158 -0.008325,-0.008 -0.0217958,-0.009 -0.031592,-0.0158 -0.0135705,-0.009 -0.087109,-0.0845 -0.0947761,-0.0948 -0.007064,-0.009 -0.007471,-0.0233 -0.0157962,-0.0316 -0.007446,-0.007 -0.0241456,0.007 -0.031592,0 -0.008325,-0.008 -0.007471,-0.0233 -0.0157959,-0.0316 -0.008325,-0.008 -0.0232669,-0.007 -0.031592,-0.0158 -0.003723,-0.004 0.002355,-0.0111 0,-0.0158 -0.00666,-0.0133 -0.024932,-0.0183 -0.031592,-0.0316 -0.002355,-0.005 0.003723,-0.0121 0,-0.0158 -0.003723,-0.004 -0.0120729,0.004 -0.0157962,0 -0.003723,-0.004 0.003723,-0.0121 0,-0.0158 -0.008325,-0.008 -0.0232669,-0.007 -0.031592,-0.0158 -0.003723,-0.004 0,-0.0105 0,-0.0158 -0.005265,0 -0.0120729,0.004 -0.0157962,0 -0.003723,-0.004 0.003723,-0.0121 0,-0.0158 -0.003723,-0.004 -0.0120729,0.004 -0.0157962,0 -0.003723,-0.004 0.002355,-0.0111 0,-0.0158 -0.00666,-0.0133 -0.024932,-0.0183 -0.031592,-0.0316 -0.00471,-0.009 0.00471,-0.0222 0,-0.0316 -0.00333,-0.007 -0.0124658,-0.009 -0.0157962,-0.0158 -0.00471,-0.009 0.007446,-0.0242 0,-0.0316 -0.008325,-0.008 -0.0232669,-0.007 -0.031592,-0.0158 -0.007446,-0.007 0.00333,-0.0216 0,-0.0316 -0.003723,-0.0112 -0.0120729,-0.0204 -0.0157959,-0.0316 -0.004314,-0.0129 0,-0.10554 0,-0.12636 0,-0.01 -0.003635,-0.0875 0,-0.0948 0.00333,-0.007 0.0124658,-0.009 0.0157959,-0.0158 0.002355,-0.005 -0.003723,-0.0121 0,-0.0158 0.003723,-0.004 0.0120729,0.004 0.0157962,0 0.007446,-0.007 -0.00471,-0.0222 0,-0.0316 0.00333,-0.007 0.0105307,-0.0105 0.0157962,-0.0158 0.005265,-0.005 0.009136,-0.0125 0.0157962,-0.0158 0.00471,-0.002 0.0120729,0.004 0.0157962,0 0.003723,-0.004 -0.003723,-0.0121 0,-0.0158 0.003723,-0.004 0.0120729,0.004 0.0157959,0 0.003723,-0.004 -0.002355,-0.0111 0,-0.0158 0.00333,-0.007 0.0105307,-0.0105 0.0157962,-0.0158 0.005265,-0.005 0.009136,-0.0125 0.0157961,-0.0158 0.00471,-0.002 0.0120729,0.004 0.0157962,0 0.003723,-0.004 -0.003723,-0.0121 0,-0.0158 0.003723,-0.004 0.0120729,0.004 0.0157962,0 0.003723,-0.004 -0.002355,-0.0111 0,-0.0158 0.0328696,-0.0657 -0.00109,0.0169 0.031592,-0.0158 0.0210614,-0.0211 -0.0263266,-0.0158 0.0157962,-0.0158"
       id="path5068"
       inkscape:connector-curvature="0" />
    <path
       style="fill:none;fill-opacity:1;stroke:#000000;stroke-width:0.13229166;stroke-miterlimit:4;stroke-dasharray:none"
       d="m 0.7266179,290.68136 c 0.0157956,-0.005 0.042198,-0.0314 0.0473871,-0.0156 0.005189,0.0158 -0.0473871,0.0322 -0.0473871,0.0156 0,-0.0352 0.0334763,-0.0622 0.0473871,-0.0945 0.003463,-0.008 0,-0.0949 0,-0.11057 0,-0.005 0,-0.0105 0,-0.0158 0,-0.005 -0.003723,-0.0121 0,-0.0158 0.003723,-0.004 0.0120729,0.004 0.0157962,0 0.003723,-0.004 -0.002355,-0.0111 0,-0.0158 0.00333,-0.007 0.0124658,-0.009 0.0157962,-0.0158 0.002355,-0.005 -0.003723,-0.0121 0,-0.0158 0.007446,-0.007 0.0241459,0.007 0.031592,0 0.003723,-0.004 -0.003723,-0.0121 0,-0.0158 0.003723,-0.004 0.0105307,0 0.0157962,0 0.0105307,0 0.0221731,0.005 0.031592,0 0.00471,-0.002 -0.002355,-0.0111 0,-0.0158 0.00333,-0.007 0.009136,-0.0125 0.0157962,-0.0158 0.00471,-0.002 0.0110866,0.002 0.0157962,0 0.00666,-0.003 0.009136,-0.0125 0.0157962,-0.0158 0.009419,-0.005 0.0221731,0.005 0.031592,0 0.0657393,-0.0329 -0.0168865,10e-4 0.0157962,-0.0316 0.008325,-0.008 0.0204227,-0.0121 0.0315921,-0.0158 0.005,-0.002 0.012073,0.004 0.015796,0 0.00372,-0.004 -0.00235,-0.0111 0,-0.0158 0.017462,-0.0349 0.0098,-0.005 0.031591,-0.0158 0.018955,-0.009 0.028433,-0.0379 0.047388,-0.0474 0.012907,-0.006 0.050277,0.006 0.063184,0 0.00666,-0.003 0.00914,-0.0125 0.015796,-0.0158 0.00942,-0.005 0.021061,0 0.031592,0 0.031592,0 0.063184,0 0.094776,0 0.052653,0 0.1053068,0 0.1579602,0 0.010531,0 0.021061,0 0.031592,0 0.00527,0 0.012073,-0.004 0.015796,0 0.00372,0.004 -0.00471,0.0134 0,0.0158 0.00942,0.005 0.021061,0 0.031592,0 0.00527,0 0.012073,-0.004 0.015796,0 0.00372,0.004 -0.00372,0.0121 0,0.0158 0.021061,0.0211 0.015157,-0.0335 0.031592,0.0158 0.00333,0.01 -0.00471,0.0222 0,0.0316 0.00471,0.009 0.024146,-0.007 0.031592,0 0.0038,0.004 -0.0038,0.0594 0,0.0632 0.00372,0.004 0.012073,-0.004 0.015796,0 0.00372,0.004 -0.00372,0.0121 0,0.0158 0.00372,0.004 0.012073,-0.004 0.015796,0 0.0073,0.007 -0.00477,0.0378 0,0.0474 0.017104,0.0342 0.015796,-0.006 0.015796,0.0474"
       id="path5070"
       inkscape:connector-curvature="0" />
    <path
       style="fill:none;fill-opacity:1;stroke:#000000;stroke-width:0.13229166;stroke-miterlimit:4;stroke-dasharray:none"
       d="m 1.6743777,290.44469 c -0.036857,-0.10532 -0.078512,-0.20908 -0.1105717,-0.31596 -0.00151,-0.005 0.011087,0.002 0.015796,0 0.00666,-0.003 0.012466,-0.009 0.015796,-0.0158 0.00235,-0.005 -0.00235,-0.0111 0,-0.0158 0.00333,-0.007 0.012466,-0.009 0.015796,-0.0158 0.00235,-0.005 -0.00372,-0.0121 0,-0.0158 0.032683,-0.0327 -0.00128,0.05 0.031592,-0.0158 0.00235,-0.005 -0.00372,-0.0121 0,-0.0158 0.00745,-0.007 0.024146,0.007 0.031592,0 0.019239,-0.0192 0.0074,-0.0353 0.031592,-0.0474 0.00471,-0.002 0.011087,0.002 0.015796,0 0.00666,-0.003 0.00914,-0.0125 0.015796,-0.0158 0.00471,-0.002 0.012073,0.004 0.015796,0 0.00372,-0.004 -0.00372,-0.0121 0,-0.0158 1.51e-5,-10e-6 0.047316,2e-5 0.047388,0 0.058558,-0.0195 -0.019254,-0.0158 0.031592,-0.0158 0.061706,0 0.00167,0.005 0.063184,-0.0158 0.005,-0.002 0.010531,0 0.015796,0 0.024456,0 0.054925,0.005 0.07898,0 0.2100206,-0.042 -5.36e-5,0.008 0.07898,-0.0316 0.00739,-0.004 0.068135,0 0.07898,0 0.073715,0 0.1474295,0 0.2211443,0 0.036857,0 0.073715,0 0.1105721,0 0.010531,0 0.021602,-0.003 0.031592,0 0.011169,0.004 0.02017,0.0129 0.031592,0.0158 0.010216,0.003 0.021602,-0.003 0.031592,0 0.00706,0.002 0.00914,0.0125 0.015796,0.0158 0.00471,0.002 0.010531,0 0.015796,0 0.010531,0.005 0.021796,0.009 0.031592,0.0158 0.012392,0.008 0.018272,0.0249 0.031592,0.0316 0.00471,0.002 0.01053,0 0.015796,0 0.015796,0.005 0.032495,0.008 0.047388,0.0158 0.013322,0.007 0.019201,0.0233 0.031592,0.0316 0.00979,0.007 0.023267,0.007 0.031592,0.0158 0.00372,0.004 -0.00372,0.0121 0,0.0158 0.00833,0.008 0.023267,0.007 0.031592,0.0158 0.00372,0.004 -0.00372,0.0121 0,0.0158 0.00372,0.004 0.011086,-0.002 0.015796,0 0.00419,0.002 0.045291,0.0432 0.047388,0.0474 0.00235,0.005 -0.00372,0.0121 0,0.0158 0.00833,0.008 0.021796,0.009 0.031592,0.0158 0.0062,0.004 0.01053,0.0105 0.015796,0.0158 0.00527,0.005 0.012465,0.009 0.015796,0.0158 0.00235,0.005 -0.00372,0.0121 0,0.0158 0.00372,0.004 0.012073,-0.004 0.015796,0 0.00372,0.004 -0.00372,0.0121 0,0.0158 0.00745,0.007 0.024146,-0.007 0.031592,0 0.00372,0.004 -0.00235,0.0111 0,0.0158 0.00333,0.007 0.012465,0.009 0.015796,0.0158 0.00235,0.005 -0.00235,0.0111 0,0.0158 0.052389,0.0524 -0.00745,-0.0149 0.015796,0.0316 0.00333,0.007 0.012465,0.009 0.015796,0.0158 0.00471,0.009 -0.00471,0.0222 0,0.0316 0.03287,0.0657 -0.00108,-0.0169 0.031592,0.0158 6.35e-4,6.3e-4 0,0.0574 0,0.0632"
       id="path5072"
       inkscape:connector-curvature="0" />
    <path
       style="fill:none;fill-opacity:1;stroke:#000000;stroke-width:0.13229166;stroke-miterlimit:4;stroke-dasharray:none"
       d="m 3.0012423,290.22353 c -0.026326,-0.0579 -0.052652,-0.11585 -0.078979,-0.17378 0,-0.005 -0.00372,-0.0121 0,-0.0158 0.00372,-0.004 0.012073,0.004 0.015796,0 0.00372,-0.004 -0.00372,-0.0121 0,-0.0158 0.00372,-0.004 0.011086,0.002 0.015796,0 0.00666,-0.003 0.00914,-0.0125 0.015796,-0.0158 0.00471,-0.002 0.012073,0.004 0.015796,0 0.00372,-0.004 -0.00235,-0.0111 0,-0.0158 0.017463,-0.0349 0.0098,-0.005 0.031592,-0.0158 0.034926,-0.0175 0.0049,-0.01 0.015796,-0.0316 0.032869,-0.0657 -0.00108,0.0169 0.031592,-0.0158 0.00372,-0.004 -0.00372,-0.0121 0,-0.0158 0.00745,-0.007 0.022172,0.005 0.031592,0 0.065739,-0.0329 -0.016886,10e-4 0.015796,-0.0316 0.00372,-0.004 0.012073,0.004 0.015796,0 0.00372,-0.004 -0.00372,-0.0121 0,-0.0158 0.00372,-0.004 0.01053,0 0.015796,0 0.00527,0 0.01053,0 0.015796,0 0.0065,0 0.043207,-0.004 0.047388,0 0.00372,0.004 -0.00372,0.0121 0,0.0158 0.00745,0.007 0.022172,-0.005 0.031592,0 0.013322,0.007 0.018272,0.0249 0.031592,0.0316 0.0085,0.004 0.094579,0 0.110572,0 0.00527,0 0.01053,0 0.015796,0 0.00527,0 0.012073,-0.004 0.015796,0 0.00372,0.004 -0.00372,0.0121 0,0.0158 0.010731,0.0107 0.031414,-0.0161 0.047388,0.0158 0.00235,0.005 -0.00471,0.0134 0,0.0158 0.00942,0.005 0.021061,0 0.031592,0 0.00527,0 0.012073,-0.004 0.015796,0 0.00372,0.004 -0.00372,0.0121 0,0.0158 0.00372,0.004 0.011086,-0.002 0.015796,0 0.013322,0.007 0.018272,0.0249 0.031592,0.0316 0.00942,0.005 0.022172,-0.005 0.031592,0 0.00666,0.003 0.00914,0.0125 0.015796,0.0158 0.00471,0.002 0.012073,-0.004 0.015796,0 0.00372,0.004 -0.00372,0.0121 0,0.0158 0.00372,0.004 0.012073,-0.004 0.015796,0 0.00745,0.007 -0.00745,0.0242 0,0.0316 0.00372,0.004 0.011086,-0.002 0.015796,0 0.065739,0.0329 -0.016886,-10e-4 0.015796,0.0316 0.00372,0.004 0.012073,-0.004 0.015796,0 0.00745,0.007 -0.00745,0.0241 0,0.0316 0.00372,0.004 0.012073,-0.004 0.015796,0 0.032683,0.0327 -0.049943,-0.001 0.015796,0.0316 0.00471,0.002 0.01053,0 0.015796,0 0.00527,0.0105 0.00747,0.0233 0.015796,0.0316 0.00372,0.004 0.012875,-0.004 0.015796,0 0.00924,0.0139 0.00656,0.0335 0.015796,0.0474 0.00292,0.004 0.012073,-0.004 0.015796,0 0.00833,0.008 0.00747,0.0233 0.015796,0.0316 0.00372,0.004 0.011086,-0.002 0.015796,0 0.00666,0.003 0.00914,0.0125 0.015796,0.0158 0.016611,0.008 0.031592,-0.0156 0.031592,0.0316"
       id="path5074"
       inkscape:connector-curvature="0" />
    <path
       style="fill:none;fill-opacity:1;stroke:#000000;stroke-width:0.13229166;stroke-miterlimit:4;stroke-dasharray:none"
       d="m 3.6804713,290.09715 c 0.015796,-0.0211 0.02683,-0.0467 0.047389,-0.0632 0.00822,-0.007 0.021376,0.003 0.031592,0 0.011422,-0.003 0.021796,-0.009 0.031592,-0.0158 0.0062,-0.004 0.00845,-0.0146 0.015796,-0.0158 0.025969,-0.004 0.053012,0.004 0.07898,0 0.00734,-10e-4 0.00873,-0.0134 0.015796,-0.0158 0.00999,-0.003 0.021061,0 0.031592,0 0.031592,0 0.063428,0.004 0.094776,0 0.011681,-0.001 0.020423,-0.0121 0.031592,-0.0158 0.01356,-0.005 0.091265,0 0.110572,0 0.00624,0 0.072234,-0.003 0.07898,0 0.00666,0.003 0.00914,0.0125 0.015796,0.0158 0.00471,0.002 0.0108,-0.002 0.015796,0 0.011171,0.004 0.020423,0.0121 0.031592,0.0158 0.014409,0.005 0.073276,-0.006 0.07898,0 0.019241,0.0192 0.0074,0.0353 0.031592,0.0474 0.011761,0.006 0.098644,-0.006 0.110572,0 0.00666,0.003 0.00914,0.0125 0.015796,0.0158 0.00942,0.005 0.022172,-0.005 0.031592,0 0.00666,0.003 0.00914,0.0125 0.015796,0.0158 0.00471,0.002 0.012073,-0.004 0.015796,0 0.00372,0.004 -0.00235,0.0111 0,0.0158 0.00333,0.007 0.012465,0.009 0.015796,0.0158 0.00235,0.005 -0.00372,0.0121 0,0.0158 0.032683,0.0327 -0.00127,-0.05 0.031592,0.0158 0.00235,0.005 -0.00235,0.0111 0,0.0158 0.00948,0.019 0.037911,0.0284 0.047388,0.0474 0.00235,0.005 -0.00372,0.0121 0,0.0158 0.00833,0.008 0.023267,0.007 0.031592,0.0158 0.00372,0.004 -0.00235,0.0111 0,0.0158 0.00333,0.007 0.012467,0.009 0.015796,0.0158 0.00471,0.009 -0.00745,0.0241 0,0.0316 0.00372,0.004 0.012073,-0.004 0.015796,0 0.0073,0.007 -0.00477,0.0379 0,0.0474 0.00666,0.0133 0.024932,0.0183 0.031592,0.0316 0.00425,0.008 0,0.0946 0,0.11058"
       id="path5076"
       inkscape:connector-curvature="0" />
    <path
       style="fill:none;fill-opacity:1;stroke:#000000;stroke-width:0.13229166;stroke-miterlimit:4;stroke-dasharray:none"
       d="m 4.5808442,290.06555 c 0.057919,0.0263 0.11503,0.0545 0.1737577,0.079 0.012404,0.005 0.1027318,0 0.1263681,0 0.1105723,0 0.2211443,0 0.3317166,0 0.036857,0 0.073715,0 0.110572,0 0.00711,0 0.042581,-0.002 0.047388,0 0.00666,0.003 0.00914,0.0125 0.015796,0.0158 0.00471,0.002 0.012073,-0.004 0.015796,0 0.00372,0.004 -0.00372,0.0121 0,0.0158 0.00372,0.004 0.011086,-0.002 0.015796,0 0.00666,0.003 0.00914,0.0125 0.015796,0.0158 0.00471,0.002 0.011086,-0.002 0.015796,0 0.019809,0.01 0.043376,0.0533 0.063184,0.0632 0.00471,0.002 0.012073,-0.004 0.015796,0 0.00372,0.004 -0.00235,0.0111 0,0.0158 0.00333,0.007 0.011666,0.01 0.015796,0.0158 0.00653,0.01 0.00927,0.0218 0.015796,0.0316 0.00413,0.006 0.01053,0.0105 0.015796,0.0158 0.00527,0.005 0.00914,0.0125 0.015796,0.0158 0.00471,0.002 0.012073,-0.004 0.015796,0 0.00745,0.007 -0.00471,0.0222 0,0.0316 0.00333,0.007 0.011665,0.01 0.015796,0.0158 0.00653,0.01 0.00927,0.0218 0.015796,0.0316 0.00413,0.006 0.012467,0.009 0.015796,0.0158 0.00235,0.005 -0.00235,0.0111 0,0.0158 0.00666,0.0133 0.024932,0.0183 0.031592,0.0316 0.00241,0.005 0,0.0403 0,0.0474 0,0.0316 0,0.0632 0,0.0948 0,0.007 7.143e-4,0.0783 0,0.079 -0.00372,0.004 -0.012073,-0.004 -0.015796,0 -0.00745,0.007 0.00745,0.0241 0,0.0316 -0.00372,0.004 -0.011086,-0.002 -0.015796,0 -0.00419,0.002 -0.045291,0.0432 -0.047388,0.0474 -0.00235,0.005 0.00372,0.0121 0,0.0158 -0.0073,0.007 -0.037851,-0.005 -0.047388,0 -0.052389,0.0524 0.014893,-0.007 -0.031592,0.0158 -0.00666,0.003 -0.00914,0.0125 -0.015796,0.0158 -0.00942,0.005 -0.024146,-0.007 -0.031592,0 -0.00372,0.004 0.00235,0.0111 0,0.0158 -0.00333,0.007 -0.01053,0.0105 -0.015796,0.0158"
       id="path5078"
       inkscape:connector-curvature="0" />
    <path
       style="fill:none;fill-opacity:1;stroke:#000000;stroke-width:0.13229166;stroke-miterlimit:4;stroke-dasharray:none"
       d="m 5.6707706,290.71335 c 0.115842,0.11566 0.073743,0.0736 0.1263687,0.1262 0.00527,0.005 0.00914,0.0125 0.015796,0.0158 0.00471,0.002 0.013441,-0.005 0.015796,0 0.00471,0.009 -0.00745,0.0241 0,0.0316 0.00745,0.007 0.024146,-0.007 0.031592,0 0.045207,0.0452 -0.039413,0.0198 0.015796,0.0474 0.00471,0.002 0.012073,-0.004 0.015796,0 0.019238,0.0192 0.0074,0.0353 0.031592,0.0474 0.00471,0.002 0.013441,-0.005 0.015796,0 0.00471,0.009 -0.00745,0.0241 0,0.0316 0.00745,0.007 0.022172,-0.005 0.031592,0 0.00471,0.002 -0.00292,0.0114 0,0.0158 0.00826,0.0124 0.023331,0.0192 0.031592,0.0316 0.00292,0.004 -0.00167,0.0108 0,0.0158 0.00372,0.0112 0.00927,0.0218 0.015796,0.0316 0.00826,0.0124 0.024932,0.0183 0.031592,0.0316 0.00235,0.005 -0.00235,0.0111 0,0.0158 0.00209,0.004 0.043194,0.0453 0.047388,0.0474 0.00471,0.002 0.012073,-0.004 0.015796,0 0.00372,0.004 -0.00372,0.0121 0,0.0158 0.00372,0.004 0.012073,-0.004 0.015796,0 0.00372,0.004 -0.00471,0.0134 0,0.0158 0.00942,0.005 0.022831,-0.006 0.031592,0 0.00979,0.007 0.00747,0.0233 0.015796,0.0316 0.00372,0.004 0.012073,-0.004 0.015796,0 0.00372,0.004 -0.00372,0.0121 0,0.0158 0.00372,0.004 0.012073,-0.004 0.015796,0 0.00372,0.004 0,0.0105 0,0.0158 0,0.011 0.00286,0.0733 0,0.079 -0.00333,0.007 -0.012467,0.009 -0.015796,0.0158 -0.00235,0.005 0.00235,0.0111 0,0.0158 -0.00333,0.007 -0.012467,0.009 -0.015796,0.0158 -0.00477,0.01 0.0073,0.0401 0,0.0474 -0.00372,0.004 -0.012073,-0.004 -0.015796,0 -0.00745,0.007 0.00745,0.0241 0,0.0316 -0.00372,0.004 -0.011086,-0.002 -0.015796,0 -0.013322,0.007 -0.018272,0.0249 -0.031592,0.0316 -0.00471,0.002 -0.012073,-0.004 -0.015796,0 -0.00372,0.004 0.00372,0.0121 0,0.0158 -0.00372,0.004 -0.012073,-0.004 -0.015796,0 -0.00372,0.004 0.00372,0.0121 0,0.0158 -0.00372,0.004 -0.012073,-0.004 -0.015796,0 -0.00372,0.004 0.00372,0.0121 0,0.0158 -0.032682,0.0327 0.00127,-0.0499 -0.031592,0.0158 -0.00235,0.005 0.00372,0.0121 0,0.0158 -0.00418,0.004 -0.040884,0 -0.047388,0 -0.015796,0 -0.031592,0 -0.047388,0 -0.00527,0 -0.012073,0.004 -0.015796,0 -0.00372,-0.004 0.00372,-0.0121 0,-0.0158 -0.00745,-0.007 -0.024146,0.007 -0.031592,0 -0.00372,-0.004 0.00235,-0.0111 0,-0.0158 -0.00333,-0.007 -0.012467,-0.009 -0.015796,-0.0158 -0.00235,-0.005 0.00471,-0.0134 0,-0.0158 -0.00942,-0.005 -0.022172,0.005 -0.031592,0 -0.00471,-0.002 0.00235,-0.0111 0,-0.0158 -0.00666,-0.0133 -0.024932,-0.0183 -0.031592,-0.0316 -0.00235,-0.005 0.00471,-0.0134 0,-0.0158 -0.00942,-0.005 -0.022172,0.005 -0.031592,0 -0.00471,-0.002 0.00372,-0.0121 0,-0.0158 -0.00372,-0.004 -0.011086,0.002 -0.015796,0 -0.00666,-0.003 -0.00914,-0.0125 -0.015796,-0.0158 -0.00942,-0.005 -0.024146,0.007 -0.031592,0 -0.021061,-0.0211 0.026326,-0.0158 -0.015796,-0.0158"
       id="path5080"
       inkscape:connector-curvature="0" />
    <path
       style="fill:none;fill-opacity:1;stroke:#000000;stroke-width:0.13229166;stroke-miterlimit:4;stroke-dasharray:none"
       d="m 5.8919152,291.59795 c 0.026326,0.0368 0.056986,0.0708 0.07898,0.11038 0.00512,0.009 0,0.0211 0,0.0316 0,0.0105 0,0.0211 0,0.0316 0,0.0316 0,0.0632 0,0.0948 0,0.0105 0,0.0211 0,0.0316 0,0.005 0.00235,0.0111 0,0.0158 -0.00333,0.007 -0.012465,0.009 -0.015796,0.0158 -0.00471,0.009 0.00745,0.0242 0,0.0316 -0.00372,0.004 -0.013441,-0.005 -0.015796,0 -0.00471,0.009 0.00333,0.0216 0,0.0316 -0.00605,0.0181 -0.037712,0.0219 -0.047388,0.0316 -0.00372,0.004 0.00372,0.0121 0,0.0158 -0.00372,0.004 -0.011086,-0.002 -0.015796,0 -0.052389,0.0524 0.014893,-0.007 -0.031592,0.0158 -0.00666,0.003 -0.00914,0.0125 -0.015796,0.0158 -0.00471,0.002 -0.011086,-0.002 -0.015796,0 -0.065739,0.0329 0.016886,-10e-4 -0.015796,0.0316 -0.0079,0.008 -0.03949,-0.008 -0.047388,0 -0.00372,0.004 0.00372,0.0121 0,0.0158 -0.00685,0.007 -0.081466,-0.007 -0.094776,0 -0.00666,0.003 -0.00914,0.0125 -0.015796,0.0158 -0.00761,0.004 -0.05226,0 -0.063184,0 -0.047388,0 -0.094776,0 -0.1421643,0 -0.042123,0 -0.084245,0 -0.1263682,0 -0.010986,0 -0.073268,0.003 -0.07898,0 -0.00666,-0.003 -0.01053,-0.0105 -0.015796,-0.0158"
       id="path5082"
       inkscape:connector-curvature="0" />
    <path
       style="fill:none;fill-opacity:1;stroke:#000000;stroke-width:0.13229166;stroke-miterlimit:4;stroke-dasharray:none"
       d="m 6.1130592,291.53475 c 0.021061,0.0263 0.044484,0.0508 0.063185,0.0788 0.00292,0.004 -0.00372,0.0121 0,0.0158 0.00833,0.008 0.021796,0.009 0.031592,0.0158 0.00657,0.004 0.060359,0.0575 0.063184,0.0632 0,0.0421 -0.00527,-0.005 0.015796,0.0158 0.00372,0.004 -0.00471,0.0134 0,0.0158 0.00942,0.005 0.022172,-0.005 0.031592,0 0.00471,0.002 -0.00235,0.0111 0,0.0158 0.00948,0.019 0.037911,0.0284 0.047388,0.0474 0.00235,0.005 -0.00372,0.0121 0,0.0158 0.00372,0.004 0.011086,-0.002 0.015796,0 0.013322,0.007 0.019201,0.0233 0.031592,0.0316 0.00979,0.007 0.021061,0.0105 0.031592,0.0158 0.01053,0.005 0.020423,0.0121 0.031592,0.0158 0.005,0.002 0.010689,-0.001 0.015796,0 0.016153,0.004 0.031235,0.0118 0.047388,0.0158 0.014256,0.004 0.052923,-0.005 0.063184,0 0.00666,0.003 0.00914,0.0125 0.015796,0.0158 0.00788,0.004 0.1262179,0 0.1421644,0 0.042123,0 0.084245,0 0.1263681,0 0.00527,0 0.012073,0.004 0.015796,0 0.00372,-0.004 -0.00372,-0.0121 0,-0.0158 0.00745,-0.007 0.024146,0.007 0.031592,0 0.00372,-0.004 -0.00235,-0.0111 0,-0.0158 0.00333,-0.007 0.012467,-0.009 0.015796,-0.0158 0.00235,-0.005 -0.00372,-0.0121 0,-0.0158 0.00372,-0.004 0.013441,0.005 0.015796,0 0.00471,-0.009 -0.00584,-0.0228 0,-0.0316 0.00653,-0.01 0.025061,-0.006 0.031592,-0.0158 0.00584,-0.009 -0.00471,-0.0222 0,-0.0316 0.00235,-0.005 0.012073,0.004 0.015796,0 0.00567,-0.006 -0.00511,-0.053 0,-0.0632 0.00235,-0.005 0.012073,0.004 0.015796,0 1.51e-5,-2e-5 -2.38e-5,-0.0473 0,-0.0474 0.00235,-0.007 0.012467,-0.009 0.015796,-0.0158 0.00241,-0.005 0,-0.0403 0,-0.0474 0,-0.0421 0,-0.0842 0,-0.12637"
       id="path5084"
       inkscape:connector-curvature="0" />
    <path
       style="fill:none;fill-opacity:1;stroke:#000000;stroke-width:0.13229166;stroke-miterlimit:4;stroke-dasharray:none"
       d="m 7.0450246,291.47138 c -0.031592,-0.0474 -0.064591,-0.0939 -0.094776,-0.14215 -0.021561,-0.0345 0.022664,0.0286 0.031592,0.0316 0.00999,0.003 0.022172,-0.005 0.031592,0 0.00471,0.002 -0.00235,0.0111 0,0.0158 0.017462,0.0349 0.0098,0.005 0.031592,0.0158 0.00666,0.003 0.0096,0.0117 0.015796,0.0158 0.00979,0.007 0.021061,0.0105 0.031592,0.0158 0.01053,0.005 0.020169,0.0129 0.031592,0.0158 0.015325,0.004 0.031592,0 0.047388,0 0.052653,0 0.1053068,0 0.1579602,0 0.015994,0 0.102076,0.004 0.110572,0 0.00666,-0.003 0.00914,-0.0125 0.015796,-0.0158 0.00471,-0.002 0.011086,0.002 0.015796,0 0.00666,-0.003 0.01053,-0.0105 0.015796,-0.0158 0.00527,-0.005 0.012467,-0.009 0.015796,-0.0158 0.00235,-0.005 -0.00235,-0.0111 0,-0.0158 0.00333,-0.007 0.012467,-0.009 0.015796,-0.0158 0.00235,-0.005 -0.00372,-0.0121 0,-0.0158 0.032683,-0.0327 -0.00127,0.0499 0.031592,-0.0158 0.00844,-0.0169 -0.00844,-0.0147 0,-0.0316 0.00666,-0.0133 0.024932,-0.0183 0.031592,-0.0316 0.00428,-0.009 -0.00432,-0.0589 0,-0.0632 0.00372,-0.004 0.012073,0.004 0.015796,0 0.00372,-0.004 0,-0.0105 0,-0.0158 0,-0.0316 0,-0.0632 0,-0.0948 0,-0.005 0.00235,-0.0111 0,-0.0158 -0.00333,-0.007 -0.012467,-0.009 -0.015796,-0.0158 -0.00471,-0.009 0.00471,-0.0222 0,-0.0316 -0.00333,-0.007 -0.012465,-0.009 -0.015796,-0.0158 -0.00235,-0.005 0.00372,-0.0121 0,-0.0158 -0.00833,-0.008 -0.023267,-0.007 -0.031592,-0.0158 -0.00372,-0.004 0.00372,-0.0121 0,-0.0158 -0.00372,-0.004 -0.012073,0.004 -0.015796,0 -0.038009,-0.038 0.00786,-0.0316 -0.047388,-0.0316"
       id="path5086"
       inkscape:connector-curvature="0" />
    <path
       style="fill:none;fill-opacity:1;stroke:#000000;stroke-width:0.13229166;stroke-miterlimit:4;stroke-dasharray:none"
       d="m 7.2661692,290.2393 c 0.068449,0 0.1368988,0 0.2053481,0 0.00711,0 0.042581,-0.002 0.047388,0 0.00666,0.003 0.00873,0.0134 0.015796,0.0158 0.00999,0.003 0.021376,-0.003 0.031592,0 0.011422,0.003 0.020169,0.0129 0.031592,0.0158 5.291e-4,1.3e-4 0.047304,-8e-5 0.047388,0 0.00372,0.004 -0.00372,0.0121 0,0.0158 0.061648,0.0616 0.00848,-0.004 0.047388,0.0158 0.013322,0.007 0.019201,0.0233 0.031592,0.0316 0.01443,0.01 0.038334,0.0135 0.047388,0.0316 0.00235,0.005 -0.00235,0.0111 0,0.0158 0.03287,0.0657 -0.00108,-0.0169 0.031592,0.0158 0.0073,0.007 -0.00477,0.0378 0,0.0474 0.00333,0.007 0.012467,0.009 0.015796,0.0158 0.00235,0.005 -0.00235,0.0111 0,0.0158 0.00333,0.007 0.012467,0.009 0.015796,0.0158 0.00235,0.005 -0.00235,0.0111 0,0.0158 0.00666,0.0133 0.024932,0.0183 0.031592,0.0316 0.00235,0.005 -0.00372,0.0121 0,0.0158 0.00372,0.004 0.012073,-0.004 0.015796,0 0.00372,0.004 0,0.0105 0,0.0158 0,0.005 0,0.0105 0,0.0158 0,0.0527 0,0.10531 0,0.15796 0,0.0369 0,0.0737 0,0.11058 0,0.007 0.00241,0.0426 0,0.0474 -0.00666,0.0133 -0.024932,0.0183 -0.031592,0.0316 -0.00235,0.005 0.00372,0.0121 0,0.0158 -0.00418,0.004 -0.040884,0 -0.047388,0 -0.047388,0 -0.094776,0 -0.1421641,0 -0.020587,0 -0.042741,0.002 -0.063184,0 -0.042192,-0.005 -0.084246,-0.0106 -0.1263687,-0.0159"
       id="path5088"
       inkscape:connector-curvature="0" />
    <path
       style="fill:none;fill-opacity:1;stroke:#000000;stroke-width:0.13229166;stroke-miterlimit:4;stroke-dasharray:none"
       d="m 6.523756,289.56007 c 0.094776,0 0.1895523,0 0.2843284,0 0.016841,0 0.066859,-0.004 0.07898,0 0.00706,0.002 0.01053,0.0105 0.015796,0.0158 0.015796,0.005 0.031235,0.0118 0.047388,0.0158 0.083154,0.0208 0.1692177,0.0281 0.2527363,0.0474 0.011472,0.003 0.020169,0.0129 0.031592,0.0158 0.024572,0.006 0.054133,-0.005 0.07898,0 0.1329974,0.0266 4.763e-4,2.4e-4 0.063184,0.0316 0.00471,0.002 0.012073,-0.004 0.015796,0 0.00833,0.008 0.00747,0.0233 0.015796,0.0316 0.00372,0.004 0.011086,-0.002 0.015796,0 0.00666,0.003 0.00914,0.0125 0.015796,0.0158 0.00471,0.002 0.012073,-0.004 0.015796,0 0.00372,0.004 -0.00235,0.0111 0,0.0158 0.00724,0.0145 0.042728,0.0334 0.047388,0.0474 0.00333,0.01 -0.00333,0.0216 0,0.0316 0.00235,0.007 0.013441,0.009 0.015796,0.0158 0.005,0.015 -0.00706,0.0333 0,0.0474 0.00333,0.007 0.012467,0.009 0.015796,0.0158 0.00706,0.0141 -0.00706,0.0333 0,0.0474 0.00235,0.005 0.012073,-0.004 0.015796,0 0.00372,0.004 0,0.0105 0,0.0158 0,0.005 0,0.0105 0,0.0158 0,0.0474 0,0.0948 0,0.14217 0,0.0421 0,0.0842 0,0.12637 0,0.0105 0,0.0211 0,0.0316 0,0.005 0,0.0211 0,0.0158 0,-0.13796 0.014288,-0.0466 -0.2843281,-0.0632"
       id="path5090"
       inkscape:connector-curvature="0" />
    <path
       style="fill:none;fill-opacity:1;stroke:#000000;stroke-width:0.13229166;stroke-miterlimit:4;stroke-dasharray:none"
       d="m 5.7181591,289.76542 c 0,-0.0263 0,-0.0527 0,-0.079 0.00527,0 0.013441,0.005 0.015796,0 0.00471,-0.009 -0.00333,-0.0216 0,-0.0316 0.00235,-0.007 0.012467,-0.009 0.015796,-0.0158 0.00235,-0.005 -0.00372,-0.0121 0,-0.0158 0.00372,-0.004 0.013441,0.005 0.015796,0 0.00471,-0.009 -0.00471,-0.0222 0,-0.0316 0.00235,-0.005 0.012073,0.004 0.015796,0 0.00372,-0.004 -0.00235,-0.0111 0,-0.0158 0.00333,-0.007 0.012467,-0.009 0.015796,-0.0158 0.00471,-0.009 -0.00471,-0.0222 0,-0.0316 0.00361,-0.007 0.05597,-0.0596 0.063184,-0.0632 0.00471,-0.002 0.013441,0.005 0.015796,0 0.00471,-0.009 -0.00471,-0.0222 0,-0.0316 0.00235,-0.005 0.011086,0.002 0.015796,0 0.00666,-0.003 0.00914,-0.0125 0.015796,-0.0158 0.00471,-0.002 0.012073,0.004 0.015796,0 0.00372,-0.004 -0.00372,-0.0121 0,-0.0158 0.00372,-0.004 0.012073,0.004 0.015796,0 0.00372,-0.004 -0.00372,-0.0121 0,-0.0158 0.00833,-0.008 0.021796,-0.009 0.031592,-0.0158 0.0062,-0.004 0.00914,-0.0125 0.015796,-0.0158 0.00566,-0.003 0.1107323,0 0.1263681,0 0.047388,0 0.094776,0 0.1421641,0 0.00538,0 0.054635,-0.003 0.063184,0 0.03746,0.0125 0.035535,0.029 0.063184,0.0474 0.00979,0.007 0.023267,0.007 0.031592,0.0158 0.00372,0.004 -0.00372,0.0121 0,0.0158 0.00372,0.004 0.011086,-0.002 0.015796,0 0.00666,0.003 0.00914,0.0125 0.015796,0.0158 0.00471,0.002 0.012073,-0.004 0.015796,0 0.00372,0.004 -0.00235,0.0111 0,0.0158 0.00333,0.007 0.012467,0.009 0.015796,0.0158 0.00235,0.005 -0.00372,0.0121 0,0.0158 0.00372,0.004 0.011086,-0.002 0.015796,0 0.00666,0.003 0.01053,0.0105 0.015796,0.0158 0.00527,0.005 0.012467,0.009 0.015796,0.0158 0.00471,0.009 -0.00471,0.0222 0,0.0316 0.00333,0.007 0.012467,0.009 0.015796,0.0158 0.00632,0.0126 -0.00632,0.0347 0,0.0474 0.03287,0.0657 -0.00108,-0.0169 0.031592,0.0158 0.0073,0.007 -0.00477,0.0378 0,0.0474 0.00333,0.007 0.012467,0.009 0.015796,0.0158 0.00235,0.005 -0.00235,0.0111 0,0.0158 0.00333,0.007 0.012467,0.009 0.015796,0.0158 0.00235,0.005 0.00527,0.0158 0,0.0158 -0.00527,0 0.00204,-0.0109 0,-0.0158 -0.024462,-0.0587 -0.052645,-0.11584 -0.078972,-0.17376"
       id="path5092"
       inkscape:connector-curvature="0" />
    <path
       style="fill:none;fill-opacity:1;stroke:#000000;stroke-width:0.13229166;stroke-miterlimit:4;stroke-dasharray:none"
       d="m 4.4228855,289.08619 c 0.054092,-0.0165 0.048825,0.0481 0.07898,0.0632 0.00942,0.005 0.024146,-0.007 0.031592,0 0.00372,0.004 -0.00372,0.0121 0,0.0158 0.00372,0.004 0.010689,-10e-4 0.015796,0 0.016153,0.004 0.031235,0.0118 0.047388,0.0158 0.019823,0.005 0.043362,-0.005 0.063184,0 0.038152,0.01 0.046662,0.0419 0.063184,0.0474 0.014986,0.005 0.03326,-0.007 0.047388,0 0.065739,0.0329 -0.016886,-10e-4 0.015796,0.0316 0.00372,0.004 0.012073,-0.004 0.015796,0 0.00372,0.004 -0.00372,0.0121 0,0.0158 0.00372,0.004 0.012073,-0.004 0.015796,0 0.00372,0.004 -0.00235,0.0111 0,0.0158 0.00666,0.0133 0.024932,0.0183 0.031592,0.0316 0.00235,0.005 -0.00235,0.0111 0,0.0158 0.00333,0.007 0.012467,0.009 0.015796,0.0158 0.00241,0.005 0,0.0403 0,0.0474 0,0.0316 0,0.0632 0,0.0948 0,0.0369 0,0.0737 0,0.11057 0,0.005 0.00372,0.0121 0,0.0158 -0.00372,0.004 -0.012073,-0.004 -0.015796,0 -0.00372,0.004 0.00372,0.0121 0,0.0158 -0.00372,0.004 -0.012073,-0.004 -0.015796,0 -0.00372,0.004 0.00372,0.0121 0,0.0158 -0.00372,0.004 -0.012073,-0.004 -0.015796,0 -0.00372,0.004 0.00372,0.0121 0,0.0158 -0.00372,0.004 -0.010531,0 -0.015796,0 -0.01053,0 -0.022172,-0.005 -0.031592,0 -0.00471,0.002 0.00372,0.0121 0,0.0158 -0.00379,0.004 -0.1225812,-0.004 -0.1263682,0 -0.00372,0.004 0.00372,0.0121 0,0.0158 -0.00372,0.004 -0.011086,-0.002 -0.015796,0 -0.00666,0.003 -0.01053,0.0105 -0.015796,0.0158 -0.010531,0 -0.022172,-0.005 -0.031592,0 -0.00471,0.002 0.00372,0.0121 0,0.0158 -0.00372,0.004 -0.011086,-0.002 -0.015796,0 -0.00666,0.003 -0.01053,0.0105 -0.015796,0.0158"
       id="path5094"
       inkscape:connector-curvature="0" />
    <path
       style="fill:none;fill-opacity:1;stroke:#000000;stroke-width:0.13229166;stroke-miterlimit:4;stroke-dasharray:none"
       d="m 4.7703975,289.67076 c 0.047388,0.005 0.094776,0.0105 0.1421646,0.0157 0.00527,0.005 0.00914,0.0125 0.015796,0.0158 0.00471,0.002 0.01053,0 0.015796,0 0.01053,0.005 0.021796,0.009 0.031592,0.0158 0.036146,0.0241 -0.00988,0.0125 0.047388,0.0316 0.005,0.002 0.011086,-0.002 0.015796,0 0.01806,0.009 0.043945,0.0504 0.063184,0.0632 0.00979,0.007 0.023267,0.007 0.031592,0.0158 0.00745,0.007 -0.00745,0.0242 0,0.0316 0.00372,0.004 0.012073,-0.004 0.015796,0 0.0073,0.007 -0.00477,0.0378 0,0.0474 0.00333,0.007 0.012467,0.009 0.015796,0.0158 0.00381,0.008 0,0.0523 0,0.0632 0,0.0316 0,0.0632 0,0.0948 0,0.005 0,0.0105 0,0.0158 0,0.005 -0.005,0.0141 0,0.0158 0.093316,0.0311 0.189552,0.0527 0.2843281,0.079"
       id="path5096"
       inkscape:connector-curvature="0" />
    <path
       style="fill:none;fill-opacity:1;stroke:#000000;stroke-width:0.13229166;stroke-miterlimit:4;stroke-dasharray:none"
       d="m 3.4277363,289.16517 c 0.00257,-0.002 -0.00348,-0.15448 0,-0.15796 0.00833,-0.008 0.023268,-0.007 0.031592,-0.0158 0.032682,-0.0327 -0.049943,0.001 0.015796,-0.0316 0.00471,-0.002 0.012073,0.004 0.015796,0 0.00833,-0.008 0.00747,-0.0233 0.015796,-0.0316 0.00372,-0.004 0.011086,0.002 0.015796,0 0.048171,-0.0241 -0.02889,-0.0125 0.047388,-0.0316 0.018508,-0.005 0.059871,0 0.07898,0 0.068449,0 0.1368989,0 0.2053482,0 0.036857,0 0.073715,0 0.1105723,0 0.015796,0 0.033259,-0.007 0.047388,0 0.00471,0.002 -0.00372,0.0121 0,0.0158 0.00745,0.007 0.022172,-0.005 0.031592,0 0.00666,0.003 0.00914,0.0125 0.015796,0.0158 0.00954,0.005 0.040086,-0.007 0.047388,0 0.00372,0.004 -0.00372,0.0121 0,0.0158 0.00372,0.004 0.011086,-0.002 0.015796,0 0.00666,0.003 0.00914,0.0125 0.015796,0.0158 0.00942,0.005 0.024146,-0.007 0.031592,0 0.00372,0.004 -0.00372,0.0121 0,0.0158 0.00372,0.004 0.012073,-0.004 0.015796,0 0.00372,0.004 -0.00372,0.0121 0,0.0158 0.00372,0.004 0.011086,-0.002 0.015796,0 0.018661,0.009 0.029962,0.0358 0.047388,0.0474 0.0098,0.007 0.023267,0.007 0.031592,0.0158 0.00372,0.004 -0.00372,0.0121 0,0.0158 0.00372,0.004 0.012073,-0.004 0.015796,0 0.00745,0.007 -0.00471,0.0222 0,0.0316 0.014541,0.0291 0.032848,0.003 0.047388,0.0316 0.00471,0.009 -0.00745,0.0241 0,0.0316 0.010515,0.0105 0.021079,-0.0105 0.031592,0 0.00372,0.004 -0.00372,0.0121 0,0.0158 0.00372,0.004 0.013441,-0.005 0.015796,0 0.00288,0.006 -0.00307,0.0759 0,0.079 0.032682,0.0327 -0.00127,-0.05 0.031592,0.0158 0.00471,0.009 -0.00647,0.0399 0,0.0316 0.039459,-0.0507 0.073715,-0.1053 0.110572,-0.15795"
       id="path5098"
       inkscape:connector-curvature="0" />
    <path
       style="fill:none;fill-opacity:1;stroke:#000000;stroke-width:0.13229166;stroke-miterlimit:4;stroke-dasharray:none"
       d="m 0.88457758,290.38149 c -0.005265,-0.0737 -0.006029,-0.14791 -0.0157965,-0.22117 -0.001003,-0.008 -0.0571484,-0.0511 -0.0631841,-0.0632 -0.002355,-0.005 0.002355,-0.0111 0,-0.0158 -0.00333,-0.007 -0.0124658,-0.009 -0.0157962,-0.0158 -0.004709,-0.009 0.007446,-0.0241 0,-0.0316 -0.008325,-0.008 -0.0250611,-0.006 -0.031592,-0.0158 -0.031592,-0.0474 0.0157959,-0.0158 0,-0.0474 -0.00333,-0.007 -0.0134414,-0.009 -0.0157962,-0.0158 -0.00333,-0.01 0.00471,-0.0222 0,-0.0316 -0.002355,-0.005 -0.0120729,0.004 -0.0157959,0 -0.0302192,-0.0302 -0.006284,-0.0442 -0.0157962,-0.0632 -0.00666,-0.0133 -0.024932,-0.0183 -0.031592,-0.0316 -0.003569,-0.007 0,-0.0812 0,-0.0948 0,-0.007 -7.1702e-4,-0.0783 0,-0.079 0.003723,-0.004 0.0120729,0.004 0.0157962,0 0.0192392,-0.0192 0.007399,-0.0353 0.031592,-0.0474 0.00471,-0.002 0.0120729,0.004 0.0157959,0 0.003723,-0.004 -0.003723,-0.0121 0,-0.0158 0.0326825,-0.0327 -0.001278,0.05 0.031592,-0.0158 0.0108942,-0.0218 -0.0191299,-0.0141 0.0157962,-0.0316 0.009419,-0.005 0.0241459,0.007 0.031592,0 0.003723,-0.004 -0.003723,-0.0121 0,-0.0158 0.004322,-0.004 0.0546149,0.004 0.0631841,0 0.00666,-0.003 0.009136,-0.0125 0.0157962,-0.0158 0.0126368,-0.006 0.0347513,0.006 0.0473881,0 0.00666,-0.003 0.009136,-0.0125 0.0157959,-0.0158 0.008496,-0.004 0.0945789,0 0.11057212,0"
       id="path5100"
       inkscape:connector-curvature="0" />
    <path
       style="fill:none;fill-opacity:1;stroke:#000000;stroke-width:0.13229166;stroke-miterlimit:4;stroke-dasharray:none"
       d="m 1.0741292,289.49672 c 0.047388,0.058 0.098151,0.11335 0.1421643,0.17392 0.0031,0.004 -0.012073,0.004 -0.015796,0 -0.00372,-0.004 0.00372,-0.0121 0,-0.0158 -0.00372,-0.004 -0.012073,0.004 -0.015796,0 -0.00664,-0.007 0.00645,-0.0661 0,-0.079 -0.00333,-0.007 -0.012466,-0.009 -0.015796,-0.0158 -0.00177,-0.004 0,-0.0594 0,-0.0632 0,-0.0421 0,-0.0842 0,-0.12637 0,-0.0369 0,-0.0737 0,-0.11057 0,-0.0158 -0.00706,-0.0333 0,-0.0474 0.00235,-0.005 0.012073,0.004 0.015796,0 0.032682,-0.0327 -0.049943,0.001 0.015796,-0.0316 0.00942,-0.005 0.026883,0.009 0.031592,0 0.00471,-0.009 -0.00471,-0.0222 0,-0.0316 0.00235,-0.005 0.011087,0.002 0.015796,0 0.00666,-0.003 0.00914,-0.0125 0.015796,-0.0158 0.00471,-0.002 0.012073,0.004 0.015796,0 0.00372,-0.004 -0.00471,-0.0134 0,-0.0158 0.014128,-0.007 0.031592,0 0.047388,0 0.047388,0 0.094776,0 0.1421642,0 0.019214,0 0.082112,0.004 0.094776,0 0.011169,-0.004 0.020423,-0.0121 0.031592,-0.0158 0.013551,-0.005 0.1197442,0 0.1421642,0 0.010626,0 0.1029365,-0.004 0.1105721,0 0.00666,0.003 0.00914,0.0125 0.015796,0.0158 0.01987,0.01 0.031592,-0.0227 0.031592,0.0158"
       id="path5102"
       inkscape:connector-curvature="0" />
    <path
       style="fill:none;fill-opacity:1;stroke:#000000;stroke-width:0.13229166;stroke-miterlimit:4;stroke-dasharray:none"
       d="m 1.9429104,289.4495 c 0,-0.0632 0,-0.12637 0,-0.18955 0,-0.0316 0,-0.0632 0,-0.0948 0,-0.0105 -0.00471,-0.0222 0,-0.0316 0.00333,-0.007 0.012466,-0.009 0.015796,-0.0158 0.00841,-0.0168 -0.00841,-0.0148 0,-0.0316 0.00361,-0.007 0.05597,-0.0596 0.063184,-0.0632 0.00471,-0.002 0.012073,0.004 0.015796,0 0.00372,-0.004 -0.00235,-0.0111 0,-0.0158 0.00361,-0.007 0.05597,-0.0596 0.063184,-0.0632 0.00471,-0.002 0.011087,0.002 0.015796,0 0.00666,-0.003 0.00914,-0.0125 0.015796,-0.0158 0.00471,-0.002 0.011087,0.002 0.015796,0 0.00666,-0.003 0.00914,-0.0125 0.015796,-0.0158 0.00942,-0.005 0.024146,0.007 0.031592,0 0.00372,-0.004 -0.00372,-0.0121 0,-0.0158 0.00372,-0.004 0.010531,0 0.015796,0 0.00527,0 0.010531,0 0.015796,0 0.047388,0 0.094776,0 0.1421642,0 0.031592,0 0.063184,0 0.094776,0 0.00711,0 0.042581,-0.002 0.047388,0 0.065739,0.0329 -0.016887,-10e-4 0.015796,0.0316 0.00745,0.007 0.022173,-0.005 0.031592,0 0.00666,0.003 0.010531,0.0105 0.015796,0.0158 0.00527,0.005 0.00914,0.0125 0.015796,0.0158 0.00471,0.002 0.011087,-0.002 0.015796,0 0.00666,0.003 0.00914,0.0125 0.015796,0.0158 0.00954,0.005 0.040086,-0.007 0.047388,0 0.00372,0.004 -0.00372,0.0121 0,0.0158 0.00372,0.004 0.0108,-0.002 0.015796,0 0.1144172,0.0381 -0.024905,-0.005 0.047388,0.0316 0.00471,0.002 0.012073,-0.004 0.015796,0 0.00372,0.004 -0.00235,0.0111 0,0.0158 0.00333,0.007 0.012465,0.009 0.015796,0.0158 0.00235,0.005 -0.00372,0.0121 0,0.0158 0.00372,0.004 0.012073,-0.004 0.015796,0 0.00745,0.007 -0.00745,0.0242 0,0.0316 0.00372,0.004 0.012073,-0.004 0.015796,0 0.00745,0.007 -0.00745,0.0241 0,0.0316 0.00372,0.004 0.012073,-0.004 0.015796,0 0.0079,0.008 -0.0079,0.0395 0,0.0474 0.021061,0.0211 0.015796,-0.0263 0.015796,0.0158"
       id="path5104"
       inkscape:connector-curvature="0" />
    <path
       style="fill:none;fill-opacity:1;stroke:#000000;stroke-width:0.13229166;stroke-miterlimit:4;stroke-dasharray:none"
       d="m 2.7800996,289.51268 c -0.00527,-0.0211 -0.012226,-0.0418 -0.015796,-0.0632 -0.00172,-0.0104 0,-0.0211 0,-0.0316 0,-0.0316 0,-0.0632 0,-0.0948 0,-0.0109 -0.0038,-0.0556 0,-0.0632 0.00333,-0.007 0.012467,-0.009 0.015796,-0.0158 0.00471,-0.009 -0.00745,-0.0241 0,-0.0316 0.00372,-0.004 0.012073,0.004 0.015796,0 0.00745,-0.007 -0.00471,-0.0222 0,-0.0316 0.00333,-0.007 0.012465,-0.009 0.015796,-0.0158 0.00235,-0.005 -0.00235,-0.0111 0,-0.0158 0.00333,-0.007 0.012465,-0.009 0.015796,-0.0158 0.00235,-0.005 -0.00372,-0.0121 0,-0.0158 0.00372,-0.004 0.012073,0.004 0.015796,0 0.00372,-0.004 -0.00372,-0.0121 0,-0.0158 0.00372,-0.004 0.011086,0.002 0.015796,0 0.00666,-0.003 0.00914,-0.0125 0.015796,-0.0158 0.00942,-0.005 0.024146,0.007 0.031592,0 0.00833,-0.008 0.00927,-0.0218 0.015796,-0.0316 0.00826,-0.0124 0.024932,-0.0183 0.031592,-0.0316 0.00235,-0.005 -0.00372,-0.0121 0,-0.0158 0.00372,-0.004 0.011086,0.002 0.015796,0 0.013319,-0.007 0.021061,-0.0211 0.031592,-0.0316 0.00527,-0.005 0.012465,-0.009 0.015796,-0.0158 0.00235,-0.005 -0.00471,-0.0134 0,-0.0158 0.012462,-0.0141 0.03326,0.007 0.047388,0 0.00666,-0.003 0.00914,-0.0125 0.015796,-0.0158 0.00481,-0.002 0.040274,0 0.047388,0 0.036857,0 0.073714,0 0.110572,0 0.010925,0 0.055572,-0.004 0.063184,0 0.00666,0.003 0.00914,0.0125 0.015796,0.0158 0.00471,0.002 0.012073,-0.004 0.015796,0 0.00745,0.007 -0.00745,0.0241 0,0.0316 0.00372,0.004 0.012073,-0.004 0.015796,0 0.00372,0.004 -0.00372,0.0121 0,0.0158 0.00372,0.004 0.011086,-0.002 0.015796,0 0.00666,0.003 0.00914,0.0125 0.015796,0.0158 0.00471,0.002 0.012073,-0.004 0.015796,0 0.00372,0.004 -0.00372,0.0121 0,0.0158 0.00372,0.004 0.012073,-0.004 0.015796,0 0.00745,0.007 -0.00471,0.0222 0,0.0316 0.017463,0.0349 0.0098,0.005 0.031592,0.0158 0.034926,0.0175 0.0049,0.01 0.015796,0.0316 0.03287,0.0657 -0.00108,-0.0169 0.031592,0.0158 0.00745,0.007 -0.00745,0.0242 0,0.0316 0.00372,0.004 0.012073,-0.004 0.015796,0 0.00372,0.004 -0.00372,0.0121 0,0.0158 0.00372,0.004 0.012073,-0.004 0.015796,0 0.00372,0.004 -0.00372,0.0121 0,0.0158 0.032682,0.0327 -0.00127,-0.05 0.031592,0.0158 0.00235,0.005 -0.00372,0.0121 0,0.0158 0.00372,0.004 0.012073,-0.004 0.015796,0 0.00372,0.004 0.00527,0.0158 0,0.0158 -0.00527,0 0.00481,-0.0137 0,-0.0158 -0.045646,-0.0203 -0.094776,-0.0316 -0.142164,-0.0474"
       id="path5106"
       inkscape:connector-curvature="0" />
    <path
       style="fill:none;fill-opacity:1;stroke:#000000;stroke-width:0.13229166;stroke-miterlimit:4;stroke-dasharray:none"
       d="m 6.0972636,289.29154 c 0,-0.0632 0,-0.12637 0,-0.18955 0,-0.0105 0.00471,-0.0222 0,-0.0316 -0.00948,-0.0189 -0.03791,-0.0284 -0.047388,-0.0474 -0.00471,-0.009 0.00471,-0.0222 0,-0.0316 -0.00333,-0.007 -0.012467,-0.009 -0.015796,-0.0158 -0.00235,-0.005 0.00372,-0.0121 0,-0.0158 -0.00745,-0.007 -0.024146,0.007 -0.031592,0 -0.00745,-0.007 0.00745,-0.0241 0,-0.0316 -0.00372,-0.004 -0.011086,0.002 -0.015796,0 -0.013322,-0.007 -0.018272,-0.0249 -0.031592,-0.0316 -0.00471,-0.002 -0.012073,0.004 -0.015796,0 -0.032682,-0.0327 0.049943,10e-4 -0.015796,-0.0316 -0.00954,-0.005 -0.040086,0.007 -0.047388,0 -0.00372,-0.004 0.00471,-0.0134 0,-0.0158 -0.00942,-0.005 -0.024146,0.007 -0.031592,0 -0.00745,-0.007 0.00471,-0.0222 0,-0.0316 -0.00235,-0.005 -0.011086,0.002 -0.015796,0 -0.00666,-0.003 -0.00914,-0.0125 -0.015796,-0.0158 -0.00942,-0.005 -0.024146,0.007 -0.031592,0 -0.00372,-0.004 0.00372,-0.0121 0,-0.0158 -0.00372,-0.004 -0.012073,0.004 -0.015796,0 -0.00372,-0.004 0.00372,-0.0121 0,-0.0158 -0.00634,-0.006 -0.038454,0.003 -0.047388,0 -0.011171,-0.004 -0.020423,-0.0121 -0.031592,-0.0158 -0.00999,-0.003 -0.024146,0.007 -0.031592,0 -0.00372,-0.004 0.00372,-0.0121 0,-0.0158 -0.00372,-0.004 -0.01053,0 -0.015796,0 -0.00527,0 -0.01053,0 -0.015796,0 -0.036857,0 -0.073715,0 -0.1105721,0 -0.013996,0 -0.053381,-0.005 -0.063184,0 -0.00471,0.002 0.00235,0.0111 0,0.0158 -0.00333,0.007 -0.00914,0.0125 -0.015796,0.0158 -0.00471,0.002 -0.011086,-0.002 -0.015796,0 -0.00666,0.003 -0.01053,0.0105 -0.015796,0.0158 -0.00527,0.005 -0.012465,0.009 -0.015796,0.0158 -0.00235,0.005 0.00372,0.0121 0,0.0158 -0.00372,0.004 -0.012073,-0.004 -0.015796,0 -0.00745,0.007 0.00471,0.0222 0,0.0316 -0.00333,0.007 -0.012467,0.009 -0.015796,0.0158 -0.00357,0.007 0,0.0812 0,0.0948"
       id="path5108"
       inkscape:connector-curvature="0" />
    <path
       style="fill:none;fill-opacity:1;stroke:#000000;stroke-width:0.13229166;stroke-miterlimit:4;stroke-dasharray:none"
       d="m 5.3706474,288.81759 c -0.054255,-0.0325 -0.075562,-0.0315 -0.1263687,-0.0315 -0.00527,0 -0.011086,0.002 -0.015796,0 -0.00666,-0.003 -0.00914,-0.0125 -0.015796,-0.0158 -0.00942,-0.005 -0.022172,0.005 -0.031592,0 -0.00666,-0.003 -0.00873,-0.0134 -0.015796,-0.0158 -0.013943,-0.005 -0.04659,0 -0.063184,0 -0.047388,0 -0.094776,0 -0.1421641,0 -0.014698,0 -0.082319,0.004 -0.094776,0 -0.011171,-0.004 -0.020423,-0.0121 -0.031592,-0.0158 -0.013142,-0.004 -0.046907,0 -0.063184,0 -0.052653,0 -0.1053068,0 -0.1579602,0 -0.015179,0 -0.1043982,-0.003 -0.1105723,0 -0.00471,0.002 0.00372,0.0121 0,0.0158 -0.00372,0.004 -0.012073,-0.004 -0.015796,0 -0.00745,0.007 0.00745,0.0241 0,0.0316 -0.00372,0.004 -0.012073,-0.004 -0.015796,0 -0.00372,0.004 0.00372,0.0121 0,0.0158 -0.00745,0.007 -0.024146,-0.007 -0.031592,0 -0.0038,0.004 0.0038,0.0594 0,0.0632 -0.00372,0.004 -0.012073,-0.004 -0.015796,0 -0.00432,0.004 0.00428,0.0546 0,0.0632 -0.00333,0.007 -0.012467,0.009 -0.015796,0.0158 -0.00241,0.005 0,0.0403 0,0.0474 0,0.007 0.00241,0.0426 0,0.0474 -0.017103,0.0342 -0.015796,-0.006 -0.015796,0.0474 0,0.005 0,0.0105 0,0.0158 0,0.005 -0.00471,0.0181 0,0.0158 0.013322,-0.007 0.021061,-0.0211 0.031592,-0.0316"
       id="path5110"
       inkscape:connector-curvature="0" />
    <path
       style="fill:none;fill-opacity:1;stroke:#000000;stroke-width:0.13229166;stroke-miterlimit:4;stroke-dasharray:none"
       d="m 4.9125621,289.68646 c 0.036857,-0.0263 0.072162,-0.055 0.1105723,-0.079 0.0079,-0.005 0.1057383,0 0.1263681,0 0.1000414,0 0.2000827,0 0.3001243,0 0.015555,0 0.1316294,-0.004 0.1421641,0 0.00706,0.002 0.00914,0.0125 0.015796,0.0158 0.00942,0.005 0.024146,-0.007 0.031592,0 0.00372,0.004 -0.00372,0.0121 0,0.0158 0.00372,0.004 0.012073,-0.004 0.015796,0 0.00372,0.004 -0.00372,0.0121 0,0.0158 0.00372,0.004 0.012073,-0.004 0.015796,0 0.00832,0.008 0.00747,0.0233 0.015796,0.0316 0.00372,0.004 0.012073,-0.004 0.015796,0 0.00372,0.004 -0.00372,0.0121 0,0.0158 0.048484,0.0485 0.013134,-0.009 0.063184,0.0158 0,0.0163 -0.00372,0.0218 0.015796,0.0316 0.00942,0.005 0.024146,-0.007 0.031592,0 0.00372,0.004 -0.00235,0.0111 0,0.0158 0.00333,0.007 0.012467,0.009 0.015796,0.0158 0.00235,0.005 -0.00372,0.0121 0,0.0158 0.00372,0.004 0.012073,-0.004 0.015796,0 0.0079,0.008 -0.0079,0.0395 0,0.0474 0.00372,0.004 0.012073,-0.004 0.015796,0 0.00372,0.004 0,0.0105 0,0.0158 0,0.005 0,0.0105 0,0.0158 0,0.0737 0,0.14743 0,0.22115"
       id="path5116"
       inkscape:connector-curvature="0" />
    <path
       style="fill:none;fill-opacity:1;stroke:#000000;stroke-width:0.13229166;stroke-miterlimit:4;stroke-dasharray:none"
       d="m 5.8603229,290.09721 c 0.031592,-0.0527 0.059562,-0.10771 0.094777,-0.15803 0.00302,-0.004 0.01053,0 0.015796,0 0.021061,0 0.042123,0 0.063184,0 0.042123,0 0.084245,0 0.1263682,0 0.00711,0 0.042581,-0.002 0.047388,0 0.018955,0.009 0.028433,0.0379 0.047388,0.0474 0.00942,0.005 0.024146,-0.007 0.031592,0 0.00372,0.004 -0.00235,0.0111 0,0.0158 0.03287,0.0657 -0.00108,-0.0169 0.031592,0.0158 0.00372,0.004 -0.00372,0.0121 0,0.0158 0.00372,0.004 0.012073,-0.004 0.015796,0 0.00745,0.007 -0.00471,0.0222 0,0.0316 0.00333,0.007 0.012467,0.009 0.015796,0.0158 0.00632,0.0126 -0.00632,0.0347 0,0.0474 0.00666,0.0133 0.024932,0.0183 0.031592,0.0316 0.00568,0.0114 -0.00568,0.0992 0,0.11057 0.00333,0.007 0.012467,0.009 0.015796,0.0158 0.00357,0.007 0,0.0812 0,0.0948 0,0.005 0,0.0105 0,0.0158 0,0.005 0.00527,0.0158 0,0.0158 -0.00527,0 0,-0.0211 0,-0.0158 0,0.0105 0.00471,0.0222 0,0.0316 -0.00471,0.009 -0.022172,-0.005 -0.031592,0 -0.013319,0.007 -0.018272,0.0249 -0.031592,0.0316 -0.00471,0.002 -0.011086,-0.002 -0.015796,0 -0.00666,0.003 -0.0096,0.0117 -0.015796,0.0158 -0.0098,0.007 -0.023268,0.007 -0.031592,0.0158 -0.00372,0.004 0.00372,0.0121 0,0.0158 -1.51e-5,2e-5 -0.047316,-2e-5 -0.047388,0 -0.00706,0.002 -0.01053,0.0105 -0.015796,0.0158 -0.00527,0.005 -0.01053,0.0105 -0.015796,0.0158"
       id="path5118"
       inkscape:connector-curvature="0" />
    <path
       style="fill:none;fill-opacity:1;stroke:#000000;stroke-width:0.13229166;stroke-miterlimit:4;stroke-dasharray:none"
       d="m 6.19204,290.53955 c -0.042123,-0.0211 -0.083082,-0.0447 -0.1263685,-0.0633 -0.00684,-0.003 0.0096,0.0117 0.015796,0.0158 0.00979,0.007 0.021796,0.009 0.031592,0.0158 0.0062,0.004 0.00914,0.0125 0.015796,0.0158 0.00471,0.002 0.012073,-0.004 0.015796,0 0.00372,0.004 -0.00499,0.0141 0,0.0158 0.014973,0.005 0.038626,-0.013 0.047388,1.3e-4 0.017743,0.0266 0.00567,0.0643 0.015796,0.0947 0.00167,0.005 0.011086,-0.002 0.015796,0 0.065739,0.0329 -0.016886,-10e-4 0.015796,0.0316 0.00372,0.004 0.012073,-0.004 0.015796,0 0.0079,0.008 -0.0079,0.0395 0,0.0474 0.00372,0.004 0.012073,-0.004 0.015796,0 0.00745,0.007 -0.00471,0.0222 0,0.0316 0.00333,0.007 0.012467,0.009 0.015796,0.0158 0.00286,0.006 0,0.068 0,0.079 0,0.006 6.35e-4,0.0626 0,0.0632 -0.00372,0.004 -0.012073,-0.004 -0.015796,0 -0.0079,0.008 0.0079,0.0395 0,0.0474 -0.00372,0.004 -0.012073,-0.004 -0.015796,0 -0.00372,0.004 0.00372,0.0121 0,0.0158 -0.00372,0.004 -0.012073,-0.004 -0.015796,0 -0.00745,0.007 0.00745,0.0241 0,0.0316 -0.00372,0.004 -0.011086,-0.002 -0.015796,0 -0.018955,0.009 -0.028433,0.0379 -0.047388,0.0474 -0.00471,0.002 -0.010531,0 -0.015796,0 -0.00527,0.005 -0.00914,0.0125 -0.015796,0.0158 -0.00471,0.002 -0.012073,-0.004 -0.015796,0 -0.00372,0.004 0.00372,0.0121 0,0.0158 -0.0079,0.008 -0.03949,-0.008 -0.047388,0 -0.00372,0.004 0.00235,0.0111 0,0.0158 -0.017462,0.0349 -0.0098,0.005 -0.031592,0.0158 -0.00666,0.003 -0.00914,0.0125 -0.015796,0.0158 -0.00471,0.002 -0.013182,0.005 -0.015796,0 -0.019894,-0.0348 -0.031592,-0.0737 -0.047389,-0.11053"
       id="path5120"
       inkscape:connector-curvature="0" />
    <path
       style="fill:none;fill-opacity:1;stroke:#000000;stroke-width:0.13229166;stroke-miterlimit:4;stroke-dasharray:none"
       d="m 1.8165423,292.84564 c 0,0.0684 0,0.1369 0,0.20535"
       id="path5122"
       inkscape:connector-curvature="0" />
    <path
       style="fill:none;fill-opacity:1;stroke:#000000;stroke-width:0.13229166;stroke-miterlimit:4;stroke-dasharray:none"
       d="m 2.5905472,292.97201 c 0.00527,0.0421 0.012771,0.084 0.015796,0.12637 0.00413,0.0578 0,0.11584 0,0.17376 0,0.1053 0,0.21061 0,0.31592"
       id="path5124"
       inkscape:connector-curvature="0" />
    <path
       style="fill:none;fill-opacity:1;stroke:#000000;stroke-width:0.13229166;stroke-miterlimit:4;stroke-dasharray:none"
       d="m 3.0644279,293.20895 c 0.00527,0.0211 0.01053,0.0421 0.015796,0.0632 0,0.0105 -0.00257,0.0214 0,0.0316 0.00285,0.0114 0.01053,0.0211 0.015796,0.0316 0.00527,0.0316 0.011824,0.063 0.015796,0.0948 0.00327,0.0261 -0.00291,0.0528 0,0.079 0.00354,0.0318 0.00803,0.0637 0.015796,0.0948 0.00571,0.0229 0.026974,0.0401 0.031592,0.0632 0.0031,0.0155 -0.0031,0.0319 0,0.0474 0.0023,0.0115 0.012941,0.043 0.015796,0.0316 0.00766,-0.0306 0,-0.0632 0,-0.0948"
       id="path5126"
       inkscape:connector-curvature="0" />
    <path
       style="fill:none;fill-opacity:1;stroke:#000000;stroke-width:0.13229166;stroke-miterlimit:4;stroke-dasharray:none"
       d="m 3.964801,293.44589 c 0,0.17902 0,0.35805 0,0.53707"
       id="path5128"
       inkscape:connector-curvature="0" />
    <path
       style="fill:none;fill-opacity:1;stroke:#000000;stroke-width:0.13229166;stroke-miterlimit:4;stroke-dasharray:none"
       d="m 4.7546019,293.24054 c 0,0.18429 0,0.36858 0,0.55286"
       id="path5130"
       inkscape:connector-curvature="0" />
    <path
       style="fill:none;fill-opacity:1;stroke:#000000;stroke-width:0.13229166;stroke-miterlimit:4;stroke-dasharray:none"
       d="m 5.6391791,293.12997 c 0,0.0895 0,0.17902 0,0.26853 0,0.0161 -0.00454,0.0811 0,0.0948 0.00235,0.007 0.012467,0.009 0.015796,0.0158 0.00546,0.0109 -0.00555,0.0734 0,0.079 0.00372,0.004 0.01053,0 0.015796,0"
       id="path5132"
       inkscape:connector-curvature="0" />
    <path
       style="fill:none;fill-opacity:1;stroke:#000000;stroke-width:0.13229166;stroke-miterlimit:4;stroke-dasharray:none"
       d="m 6.0656715,292.57711 c 0.032176,0.0478 0.031592,0.0529 0.031592,0.0948 0,0.0105 -0.00333,0.0216 0,0.0316 0.00235,0.007 0.012467,0.009 0.015796,0.0158 0.0038,0.008 0,0.0523 0,0.0632 0,0.0421 0,0.0842 0,0.12637"
       id="path5134"
       inkscape:connector-curvature="0" />
    <path
       style="fill:none;fill-opacity:1;stroke:#000000;stroke-width:0.13229166;stroke-miterlimit:4;stroke-dasharray:none"
       d="m 6.7133083,292.49813 c 0.017756,0.14204 0.015796,0.0839 0.015796,0.17376 0,0.005 -0.00167,0.0108 0,0.0158 0.00372,0.0112 0.012941,0.0202 0.015796,0.0316 0.00463,0.0185 0,0.0599 0,0.079 0,0.0421 0,0.0842 0,0.12637 0,0.0187 -0.00389,0.0792 0,0.0948 0.00285,0.0114 0.012073,0.0204 0.015796,0.0316 0.00333,0.01 -0.00471,0.0222 0,0.0316 0.00333,0.007 0.012467,0.009 0.015796,0.0158 0.023241,0.0465 -0.036593,-0.0208 0.015796,0.0316"
       id="path5136"
       inkscape:connector-curvature="0" />
    <path
       style="fill:none;fill-opacity:1;stroke:#000000;stroke-width:0.13229166;stroke-miterlimit:4;stroke-dasharray:none"
       d="m 7.1555969,292.65609 c 0,0.0421 0,0.0842 0,0.12637 0,0.0105 0,0.0211 0,0.0316 0,0.005 -0.00167,0.0108 0,0.0158 0.00372,0.0112 0.013489,0.02 0.015796,0.0316 0.0031,0.0155 0,0.0316 0,0.0474 0,0.0368 0,0.0737 0,0.11057 0,0.0895 0,0.17902 0,0.26853"
       id="path5138"
       inkscape:connector-curvature="0" />
    <path
       style="fill:none;fill-opacity:1;stroke:#000000;stroke-width:0.13229166;stroke-miterlimit:4;stroke-dasharray:none"
       d="m 6.381592,293.58806 c 0,0.18955 0,0.3791 0,0.56865"
       id="path5140"
       inkscape:connector-curvature="0" />
    <path
       style="fill:none;fill-opacity:1;stroke:#000000;stroke-width:0.13229166;stroke-miterlimit:4;stroke-dasharray:none"
       d="m 5.8919154,294.33047 c -0.00401,0.005 -0.058172,0.0697 -0.063184,0.0948 -0.0031,0.0155 0.00383,0.0321 0,0.0474 -0.0018,0.007 -0.011665,0.01 -0.015796,0.0158 -0.00653,0.01 -0.012073,0.0204 -0.015796,0.0316 -0.00167,0.005 0.00167,0.0108 0,0.0158 -0.00372,0.0112 -0.012073,0.0204 -0.015796,0.0316 -0.00167,0.005 0.00167,0.0108 0,0.0158 -0.00372,0.0112 -0.012941,0.0202 -0.015796,0.0316 -0.00454,0.0182 0.00538,0.0998 0,0.11057 -0.00666,0.0133 -0.024932,0.0183 -0.031592,0.0316 -0.00471,0.009 0,0.0211 0,0.0316"
       id="path5142"
       inkscape:connector-curvature="0" />
    <path
       style="fill:none;fill-opacity:1;stroke:#000000;stroke-width:0.13229166;stroke-miterlimit:4;stroke-dasharray:none"
       d="m 5.3706466,294.40945 c 0,0.14216 0,0.28433 0,0.42649 0,0.009 8.202e-4,0.094 0,0.0948 -0.021061,0.0211 -0.015796,-0.0263 -0.015796,0.0158"
       id="path5144"
       inkscape:connector-curvature="0" />
    <path
       style="fill:none;fill-opacity:1;stroke:#000000;stroke-width:0.13229166;stroke-miterlimit:4;stroke-dasharray:none"
       d="m 4.7861939,294.53582 c -0.015796,0.0211 -0.031592,0.0421 -0.047388,0.0632 -0.00527,0.0105 -0.00927,0.0218 -0.015796,0.0316 -0.00826,0.0124 -0.024932,0.0183 -0.031592,0.0316 -0.047702,0.0954 0.00228,0.007 -0.015796,0.079 -0.00285,0.0114 -0.012941,0.0202 -0.015796,0.0316 -0.00777,0.0311 -0.011824,0.063 -0.015796,0.0948 -0.00196,0.0157 0.00383,0.0321 0,0.0474 -0.00404,0.0161 -0.012531,0.0311 -0.015796,0.0474 -0.00413,0.0206 0.00511,0.0428 0,0.0632 -0.00571,0.0229 -0.024146,0.0409 -0.031592,0.0632 -0.00333,0.01 0.00333,0.0216 0,0.0316 -0.00372,0.0112 -0.012941,0.0202 -0.015796,0.0316 -0.00257,0.0102 0.00471,0.0222 0,0.0316 -0.00235,0.005 -0.01053,0 -0.015796,0 -0.00527,0 -0.01053,0 -0.015796,0"
       id="path5146"
       inkscape:connector-curvature="0" />
    <path
       style="fill:none;fill-opacity:1;stroke:#000000;stroke-width:0.13229166;stroke-miterlimit:4;stroke-dasharray:none"
       d="m 4.2807212,294.70957 c -0.18991,0.18991 -0.029883,0.0132 -0.094776,0.11058 -0.0359,0.0539 -0.00153,-0.0586 -0.047388,0.079 -0.00333,0.01 0,0.0211 0,0.0316 0,0.0221 0.00448,0.0768 0,0.0948 -0.00285,0.0114 -0.012073,0.0204 -0.015796,0.0316 -0.00632,0.0189 0.00632,0.0442 0,0.0632 -0.00235,0.007 -0.012467,0.009 -0.015796,0.0158 -0.00596,0.0119 0.0047,0.10587 0,0.11057 -0.021061,0.0211 -0.015796,-0.0263 -0.015796,0.0158"
       id="path5148"
       inkscape:connector-curvature="0" />
    <path
       style="fill:none;fill-opacity:1;stroke:#000000;stroke-width:0.13229166;stroke-miterlimit:4;stroke-dasharray:none"
       d="m 3.5225124,294.66219 c 0,0.0948 0,0.18955 0,0.28432 0,0.0256 0.00461,0.0717 0,0.0948 -0.0023,0.0115 -0.012073,0.0204 -0.015796,0.0316 -0.00433,0.013 0,0.0482 0,0.0632"
       id="path5150"
       inkscape:connector-curvature="0" />
    <path
       style="fill:none;fill-opacity:1;stroke:#000000;stroke-width:0.13229166;stroke-miterlimit:4;stroke-dasharray:none"
       d="m 2.9380598,294.50423 c 0,0.0421 0,0.0842 0,0.12636 0,0.1369 0,0.2738 0,0.4107 0,0.0474 0,0.0948 0,0.14216 0,0.005 0,0.0105 0,0.0158 0,0.005 0.00527,0.0158 0,0.0158 -0.00527,0 0,-0.0105 0,-0.0158"
       id="path5152"
       inkscape:connector-curvature="0" />
    <path
       style="fill:none;fill-opacity:1;stroke:#000000;stroke-width:0.13229166;stroke-miterlimit:4;stroke-dasharray:none"
       d="m 2.400995,294.36206 c 0,0.14217 0,0.28433 0,0.42649"
       id="path5154"
       inkscape:connector-curvature="0" />
    <path
       style="fill:none;fill-opacity:1;stroke:#000000;stroke-width:0.13229166;stroke-miterlimit:4;stroke-dasharray:none"
       d="m 1.9902985,294.12512 c -0.00527,0.0211 -0.012227,0.0418 -0.015796,0.0632 -0.00346,0.0208 0,0.0421 0,0.0632 0,0.0369 0,0.0737 0,0.11057 0,0.10531 0,0.21061 0,0.31592"
       id="path5156"
       inkscape:connector-curvature="0" />
    <path
       style="fill:none;fill-opacity:1;stroke:#000000;stroke-width:0.13229166;stroke-miterlimit:4;stroke-dasharray:none"
       d="m 2.1482587,293.4143 c -0.033301,0.0209 0.00833,0.054 0,0.079 -0.00372,0.0112 -0.012941,0.0202 -0.015796,0.0316 -0.00255,0.0102 0,0.0211 0,0.0316 0,0.0316 0,0.0632 0,0.0948"
       id="path5158"
       inkscape:connector-curvature="0" />
    <path
       style="fill:none;fill-opacity:1;stroke:#000000;stroke-width:0.13229166;stroke-miterlimit:4;stroke-dasharray:none"
       d="m 1.563806,293.54067 c 0,0.23167 0,0.46335 0,0.69502"
       id="path5160"
       inkscape:connector-curvature="0" />
    <path
       style="fill:none;fill-opacity:1;stroke:#000000;stroke-width:0.13229166;stroke-miterlimit:4;stroke-dasharray:none"
       d="m 1.2478856,292.51393 c 0,0.079 0,0.15796 0,0.23694"
       id="path5162"
       inkscape:connector-curvature="0" />
    <path
       style="fill:none;fill-opacity:1;stroke:#000000;stroke-width:0.13229166;stroke-miterlimit:4;stroke-dasharray:none"
       d="m 2.0218905,295.35721 c 0,0.21061 0,0.42123 0,0.63184"
       id="path5164"
       inkscape:connector-curvature="0" />
    <path
       style="fill:none;fill-opacity:1;stroke:#000000;stroke-width:0.13229166;stroke-miterlimit:4;stroke-dasharray:none"
       d="m 2.7169155,295.65733 c 0.088278,0.0239 0.00402,0.0753 0.015796,0.11058 0.00372,0.0112 0.011422,0.0207 0.015796,0.0316 0.00618,0.0155 0.00961,0.0319 0.015796,0.0474 0.00437,0.0109 0.012941,0.0202 0.015796,0.0316 0.00257,0.0102 -0.0013,0.0211 0,0.0316 0.00397,0.0318 0.011266,0.0631 0.015796,0.0948 0.00421,0.0295 0,0.0656 0,0.0948 0,0.0105 -0.00257,0.0214 0,0.0316 0.00285,0.0114 0.012073,0.0204 0.015796,0.0316 0.00632,0.019 -0.00632,0.0442 0,0.0632 0.00372,0.0112 0.012941,0.0202 0.015796,0.0316 0.00401,0.016 -0.00335,0.0457 0,0.0474 0.00942,0.005 0.021061,0 0.031592,0"
       id="path5166"
       inkscape:connector-curvature="0" />
    <path
       style="fill:none;fill-opacity:1;stroke:#000000;stroke-width:0.13229166;stroke-miterlimit:4;stroke-dasharray:none"
       d="m 3.901617,295.7837 c 0,0.0579 0,0.11584 0,0.17376 0,0.0105 -0.00257,0.0214 0,0.0316 0.00404,0.0161 0.011758,0.0312 0.015796,0.0474 0.00257,0.0102 0,0.0211 0,0.0316 0,0.0369 0,0.0737 0,0.11057"
       id="path5168"
       inkscape:connector-curvature="0" />
    <path
       style="fill:none;fill-opacity:1;stroke:#000000;stroke-width:0.13229166;stroke-miterlimit:4;stroke-dasharray:none"
       d="m 4.5018655,295.95746 c 0.033301,0.0209 -0.00833,0.054 0,0.079 0.00372,0.0112 0.012073,0.0204 0.015796,0.0316 0.00449,0.0135 0,0.0879 0,0.0948 0,0.0474 0,0.0948 0,0.14216"
       id="path5170"
       inkscape:connector-curvature="0" />
    <path
       style="fill:none;fill-opacity:1;stroke:#000000;stroke-width:0.13229166;stroke-miterlimit:4;stroke-dasharray:none"
       d="m 5.1495025,295.72052 c 0,0.1211 0,0.2422 0,0.36331"
       id="path5172"
       inkscape:connector-curvature="0" />
    <path
       style="fill:none;fill-opacity:1;stroke:#000000;stroke-width:0.13229166;stroke-miterlimit:4;stroke-dasharray:none"
       d="m 5.8603234,295.59415 c 0.021947,0.12018 0.015796,0.24182 0.015796,0.36331 0,0.0316 -0.00519,0.0636 0,0.0948 0.00441,0.0265 0.011382,0.0525 0.015796,0.079 0.00504,0.0302 0,0.0638 0,0.0948"
       id="path5174"
       inkscape:connector-curvature="0" />
    <path
       style="fill:none;fill-opacity:1;stroke:#000000;stroke-width:0.13229166;stroke-miterlimit:4;stroke-dasharray:none"
       d="m 6.6343283,295.35721 c 0,0.1527 0,0.30539 0,0.45809"
       id="path5176"
       inkscape:connector-curvature="0" />
    <path
       style="fill:none;fill-opacity:1;stroke:#000000;stroke-width:0.13229166;stroke-miterlimit:4;stroke-dasharray:none"
       d="m 6.8712685,294.29888 c 0.043921,0.021 0.00928,0.0529 0.015796,0.079 0.00404,0.0161 0.012531,0.0311 0.015796,0.0474 0.00409,0.0204 0,0.0902 0,0.11057 0,0.0684 0,0.1369 0,0.20535"
       id="path5178"
       inkscape:connector-curvature="0" />
    <path
       style="fill:#000000;fill-opacity:1;stroke:#000000;stroke-width:0.13229166;stroke-miterlimit:4;stroke-dasharray:none"
       d="m 7.139801,293.76181 c 0.01053,0.0211 0.021061,0.0421 0.031592,0.0632 0,0.005 -0.00146,0.0107 0,0.0158 0.013721,0.048 0.028836,0.0958 0.047388,0.14217 -0.00786,0.028 0.024543,0.0298 0.031592,0.0474 0.00806,0.0202 0.011539,0.0419 0.015796,0.0632 0.00206,0.0103 -0.00745,0.0241 0,0.0316 0.00372,0.004 0.01053,0 0.015796,0"
       id="path5180"
       inkscape:connector-curvature="0" />
    <path
       style="fill:#ffffff;fill-opacity:1;stroke:#000000;stroke-width:0.02985075;stroke-miterlimit:4;stroke-dasharray:none"
       d="m 12.089552,15.326741 c -0.164179,-0.05927 -0.379104,-0.150066 -0.477612,-0.201777 -0.167452,-0.0879 -1.164179,-1.067169 -1.164179,-1.143784 0,-0.0192 -0.05641,-0.09132 -0.12535,-0.160262 l -0.12535,-0.12535 0.191667,-0.19775 c 0.198142,-0.204431 0.327903,-0.585561 0.411372,-1.208266 l 0.04201,-0.313433 h -0.247322 c -0.238673,0 -0.250106,0.0089 -0.326959,0.253732 -0.0438,0.139552 -0.101833,0.279253 -0.128959,0.310448 -0.02713,0.03119 -0.04932,0.146278 -0.04932,0.255743 0,0.140188 -0.05039,0.248286 -0.1704517,0.365649 -0.093748,0.09164 -0.2440621,0.292229 -0.334031,0.445749 -0.089968,0.15352 -0.1849797,0.279127 -0.2111356,0.279127 -0.026156,0 -0.063197,0.06232 -0.082313,0.138483 -0.02355,0.09383 -0.1534615,0.199703 -0.4029182,0.328358 -0.3598746,0.185602 -0.3861654,0.189876 -1.1681232,0.189876 -0.6740519,0 -0.8357157,-0.01824 -1.0271173,-0.115886 -0.2719909,-0.13876 -0.5870149,-0.482582 -0.6416645,-0.700323 -0.068949,-0.274714 0.03177,-1.924415 0.128966,-2.112372 0.1482964,-0.286773 0.1151883,-0.401511 -0.135987,-0.471265 -0.287163,-0.07975 -0.3134328,-0.0786 -0.3134328,0.01365 0,0.04207 -0.1552567,0.230132 -0.3450148,0.41791 C 5.0437283,11.914029 5.038819,11.916414 4.684836,11.915858 4.2510638,11.915177 3.8741276,11.720776 3.4542004,11.281173 3.3017717,11.121603 3.1271448,10.947868 3.0661407,10.895097 2.8878112,10.740834 2.7462687,10.54831 2.7462687,10.460012 c 0,-0.04505 -0.053408,-0.09587 -0.1186842,-0.112943 C 2.5623082,10.329999 2.4816996,10.239552 2.4484542,10.146076 2.4152089,10.0526 2.3611541,9.929469 2.3283324,9.8724519 2.2955108,9.8154347 2.2686567,9.5931927 2.2686567,9.3785807 c 0,-0.3751626 0.00964,-0.4006572 0.2499712,-0.6613905 0.1374842,-0.1491527 0.3363597,-0.3072821 0.4419457,-0.3513988 0.1894131,-0.079142 0.1925445,-0.087056 0.234702,-0.593151 0.036725,-0.4408789 0.058015,-0.5129389 0.1515459,-0.5129389 0.05985,0 0.1256737,-0.027273 0.1462749,-0.060606 0.020601,-0.033333 0.1229329,-0.099613 0.227404,-0.1472876 0.104471,-0.047675 0.2931521,-0.1748797 0.4192913,-0.2826775 L 4.3691356,6.5731343 h 0.6831962 c 0.7602146,0 0.7287075,-0.016068 0.9015328,0.4597659 L 6.0558023,7.3135617 6.3264086,7.278221 C 6.4752421,7.2587836 6.6077292,7.233712 6.6208244,7.2225063 6.6436583,7.2029671 6.4852787,6.7260078 6.3211777,6.3201213 6.245606,6.1332027 6.2507562,6.1188885 6.4769106,5.8872855 6.6055496,5.7555471 6.7474121,5.6477612 6.7921605,5.6477612 c 0.044749,0 0.1374015,-0.029992 0.2058957,-0.066649 0.1346759,-0.072076 0.2845777,-0.085548 1.5989587,-0.1436965 0.8517015,-0.03768 0.8702991,-0.03581 1.1524126,0.1158747 0.157708,0.084795 0.3129015,0.1541723 0.3448745,0.1541723 0.03197,0 0.154365,0.087313 0.271982,0.1940298 0.54561,0.4950445 0.795769,0.7767078 0.868378,0.9777371 0.09777,0.2706859 0.259598,0.3777017 0.511063,0.3379579 0.172873,-0.027322 0.18992,-0.047359 0.160011,-0.188063 -0.01841,-0.086615 -0.142959,-0.3944681 -0.27677,-0.6841169 L 11.385673,5.8183733 11.560919,5.6584404 c 0.338175,-0.3086257 0.460525,-0.3654105 0.58741,-0.2726296 0.06231,0.045565 0.215685,0.082846 0.340825,0.082846 0.360562,0 1.172627,0.468068 1.180502,0.6804318 0.0036,0.097293 0.705346,0.752404 0.805957,0.752404 0.05423,0 0.08199,-0.026866 0.0617,-0.059702 -0.02201,-0.035609 0.05047,-0.059701 0.179605,-0.059701 0.196921,0 0.212777,-0.012149 0.175321,-0.1343284 -0.05367,-0.1750772 -0.142726,-0.2835821 -0.232745,-0.2835821 -0.03968,0 -0.108098,-0.067164 -0.152031,-0.1492537 -0.04393,-0.08209 -0.102204,-0.1492538 -0.129492,-0.1492538 -0.08489,0 -0.05433,-0.1645203 0.03707,-0.1995946 0.04768,-0.018296 0.37385,-0.065578 0.724826,-0.1050714 0.669387,-0.075323 1.07869,-0.027286 1.380417,0.1620086 0.07272,0.045626 0.207053,0.083323 0.298507,0.083771 0.291313,0.00143 0.399874,0.063575 0.626223,0.3584841 0.260152,0.3389519 0.405728,0.6624935 0.405728,0.901723 0,0.1663752 0.0094,0.1718135 0.298508,0.1718135 h 0.298507 l -0.0013,-0.2238806 C 18.445725,7.091791 18.391995,6.8739318 18.327045,6.7307938 18.262097,6.5876558 18.208955,6.446611 18.208955,6.417361 c 0,-0.082332 1.663902,-0.062617 1.9504,0.02311 0.508988,0.1523012 0.998234,0.779737 1.049066,1.3453814 0.03447,0.383611 -0.0402,0.490428 -0.447227,0.639761 -0.15597,0.057223 -0.283582,0.1250602 -0.283582,0.1507495 0,0.025689 -0.01771,0.09592 -0.03936,0.1560682 -0.02165,0.060148 -0.0168,0.088835 0.01079,0.063748 0.02758,-0.025087 0.121925,0.023153 0.20965,0.1072001 l 0.159502,0.1528121 0.333854,-0.173214 0.333853,-0.1732139 0.179008,0.1854169 c 0.4461,0.4620707 0.680741,0.7340644 0.752937,0.8727975 0.04295,0.082537 0.231409,0.2950652 0.418792,0.4722842 0.338485,0.320126 0.340272,0.323636 0.275208,0.540801 -0.04078,0.136106 -0.157928,0.29287 -0.31047,0.415456 l -0.24498,0.196871 -0.248344,-0.235382 c -0.464589,-0.440341 -0.711351,-0.530263 -0.895807,-0.326441 -0.159917,0.176706 -0.116257,0.292572 0.184777,0.490355 0.15597,0.102474 0.370895,0.313616 0.477612,0.469204 0.165817,0.241754 0.19403,0.334875 0.19403,0.640439 0,0.418221 -0.04789,0.494631 -0.447761,0.714442 -0.270614,0.148757 -0.369638,0.16666 -1.059702,0.191592 L 20,13.365102 19.9974,12.894491 c -0.0045,-0.813686 -0.09816,-1.094116 -0.36627,-1.096562 -0.24024,-0.0022 -0.277064,0.135764 -0.243526,0.912344 0.02848,0.659502 0.01739,0.782052 -0.104221,1.151213 -0.07485,0.227227 -0.186027,0.484453 -0.247053,0.571611 -0.06103,0.08716 -0.110957,0.184843 -0.110957,0.217078 0,0.03224 -0.09289,0.102686 -0.206419,0.156561 -0.113531,0.05387 -0.221043,0.121614 -0.238917,0.150534 -0.01787,0.02892 -0.181287,0.09938 -0.36314,0.156582 -0.26908,0.08464 -0.44917,0.09675 -0.967227,0.06505 -0.350121,-0.02142 -0.663371,-0.06574 -0.696112,-0.09848 -0.03274,-0.03274 -0.114603,-0.05982 -0.181916,-0.06017 -0.06731,-3.58e-4 -0.295074,-0.121249 -0.506133,-0.268656 -0.211063,-0.147407 -0.424866,-0.268013 -0.47512,-0.268013 -0.05804,0 -0.0023,-0.09255 0.152892,-0.253731 0.386147,-0.401115 0.401625,-0.45523 0.426907,-1.492538 l 0.02292,-0.940298 h -0.304763 -0.304763 v 0.877868 0.877868 l -0.462686,0.440769 c -0.594213,0.566064 -0.774809,0.74837 -1.121246,1.131853 l -0.283153,0.313433 -0.514219,-0.0022 c -0.340841,-0.0014 -0.614865,-0.03849 -0.812726,-0.109911 z"
       id="path7952"
       inkscape:connector-curvature="0"
       transform="matrix(0.26458333,0,0,0.26458333,0,288.53333)" />
    <path
       style="fill:#ffffff;fill-opacity:1;stroke:#000000;stroke-width:0.02985075;stroke-miterlimit:4;stroke-dasharray:none"
       d="m 3.5820896,6.2703534 c 0,-0.089958 -0.064501,-0.2481249 -0.1433343,-0.3514814 C 3.2582419,5.6822068 2.9361995,4.9767092 2.8659043,4.6639289 2.8156963,4.4405266 2.8245483,4.4153419 3.014402,4.2414426 3.1485894,4.1185318 3.3317005,4.0306924 3.5604504,3.9795005 l 0.34416,-0.07702 0.1648763,0.2009984 c 0.3262411,0.3977158 0.4056089,0.4696551 0.5181519,0.4696551 0.1706865,0 0.2791544,-0.3028695 0.1949621,-0.5443834 -0.036401,-0.1044187 -0.066183,-0.4410671 -0.066183,-0.7481075 0,-0.7851678 -0.023428,-0.7687113 1.1704072,-0.8221304 0.5219477,-0.023355 0.9960107,-0.024394 1.0534734,-0.00231 0.088014,0.033826 0.1044776,0.1191122 0.1044776,0.5412291 V 3.4985075 H 7.3432836 7.641791 V 2.8758927 c 0,-0.6206632 6.084e-4,-0.6232562 0.1940299,-0.8272336 0.2976805,-0.3139259 0.5165428,-0.4007942 1.0119606,-0.4016559 0.3833701,-6.668e-4 0.4911546,0.026268 0.8959057,0.2238806 0.2530579,0.1235512 0.4841748,0.2783699 0.5135938,0.3440416 0.03525,0.078698 0.0234,0.2077857 -0.03477,0.3786642 -0.08389,0.2464317 -0.0829,1.0942798 0.0014,1.1785498 0.018,0.017998 0.142898,0.00306 0.277556,-0.033203 l 0.244831,-0.065926 V 3.2069518 c 0,-0.3902374 0.01943,-0.4836372 0.119403,-0.574116 0.06567,-0.059432 0.119403,-0.1325641 0.119403,-0.1625158 0,-0.055057 0.328304,-0.3836185 0.590141,-0.5906032 0.215928,-0.1706941 0.704411,-0.1516706 0.917321,0.035724 0.0903,0.079477 0.164179,0.1666871 0.164179,0.1938005 0,0.027113 0.05618,0.097402 0.124851,0.1561978 0.08613,0.073748 0.11426,0.1490991 0.0907,0.242968 -0.02973,0.1184406 -0.0014,0.1457796 0.218433,0.2110404 0.138921,0.041235 0.286031,0.1022423 0.326911,0.1355712 0.0519,0.042315 0.121037,0.029994 0.229142,-0.04084 0.198005,-0.1297376 0.159264,-0.3230222 -0.128612,-0.6416668 -0.240922,-0.2666717 -0.247917,-0.308611 -0.07202,-0.4318132 0.211715,-0.1482914 1.499666,-0.1311265 1.86351,0.024836 0.301033,0.1290377 0.689403,0.4147441 0.692027,0.5090927 9.13e-4,0.032836 0.08151,0.1380597 0.179106,0.2338308 0.0976,0.095771 0.178412,0.2166667 0.179593,0.2686567 0.0012,0.05199 0.06356,0.1695628 0.138617,0.2612728 0.117286,0.1433046 0.157961,0.1585747 0.289343,0.1086232 0.08408,-0.031967 0.211592,-0.1405847 0.283359,-0.2413723 0.153985,-0.2162516 0.301366,-0.2310255 0.63212,-0.063366 0.335109,0.1698681 0.385757,0.2650887 0.385757,0.7252467 0,0.4434722 -0.06326,0.5280032 -0.395136,0.5280032 -0.214521,0 -0.679491,0.22648 -0.679491,0.3309703 0,0.083991 0.27112,0.3857345 0.345997,0.3850798 0.02313,-2.03e-4 0.121782,-0.041936 0.219215,-0.092742 0.276055,-0.1439463 0.796945,-0.1348903 1.092167,0.018988 0.412923,0.2152277 0.512626,0.3521535 0.540884,0.742821 l 0.02504,0.3462264 -0.589265,-5.851e-4 C 18.144198,5.8257791 18.013048,5.803981 17.734349,5.674251 17.555405,5.5909555 17.286749,5.5064896 17.137334,5.486549 16.98792,5.4666084 16.848793,5.4245498 16.828165,5.3930855 16.661523,5.1389141 14.726405,5.1293285 14.127167,5.379706 13.935959,5.4595981 13.912578,5.4534722 13.516413,5.2196854 13.257136,5.0666818 13.004916,4.966246 12.835821,4.9486703 12.68806,4.9333121 12.482507,4.8828321 12.379037,4.8364925 12.121741,4.7212614 11.764184,4.7313678 11.570109,4.8593568 11.481429,4.917839 11.27818,5.089429 11.118443,5.2406678 l -0.29043,0.2749797 -0.14535,-0.112829 C 10.602721,5.3407626 10.362687,5.2025777 10.149254,5.095741 9.7621433,4.9019676 9.7586555,4.9014464 8.7233451,4.8826252 c -0.6797509,-0.012357 -1.0598087,0.00309 -1.1014927,0.044776 -0.035004,0.035004 -0.1672692,0.063644 -0.2939228,0.063644 -0.6432031,0 -1.4221929,0.411717 -1.5276404,0.8073988 l -0.04735,0.1776758 -0.8404826,0.034899 C 4.0763813,6.0457352 4.0706897,6.0469355 3.8270318,6.2399161 L 3.5820896,6.433914 Z"
       id="path7954"
       inkscape:connector-curvature="0"
       transform="matrix(0.26458333,0,0,0.26458333,0,288.53333)" />
    <path
       style="fill:#ffffff;fill-opacity:1;stroke:#000000;stroke-width:0.02985075;stroke-miterlimit:4;stroke-dasharray:none"
       d="M 18.67783,3.4456195 C 18.659103,3.033238 18.632761,2.937617 18.477388,2.7180142 18.379004,2.5789581 18.258209,2.4469868 18.208955,2.4247447 c -0.04925,-0.022242 -0.179043,-0.085267 -0.28842,-0.1400552 -0.109377,-0.054788 -0.265621,-0.099615 -0.347208,-0.099615 -0.174252,0 -0.341699,-0.081805 -0.508144,-0.2482499 -0.100539,-0.1005388 -0.11342,-0.1662603 -0.08009,-0.4086137 0.06669,-0.4849171 0.104188,-0.4983393 1.266522,-0.4533881 0.551163,0.021315 1.156592,0.070458 1.345398,0.1092064 0.334168,0.068581 0.343284,0.075673 0.343284,0.2670917 0,0.1961672 7.17e-4,0.1966402 0.298507,0.1966402 h 0.298507 V 1.4421913 c 0,-0.60654949 0.893117,-0.50164007 1.813302,0.2129983 0.279544,0.2171008 0.395182,0.4615345 0.39543,0.8358552 2.09e-4,0.3185006 -0.0082,0.3375484 -0.163955,0.3693159 -0.223919,0.045683 -0.834598,0.6033315 -0.941876,0.8600853 -0.07007,0.167701 -0.108032,0.1990529 -0.192127,0.1586723 -0.165326,-0.079386 -2.577398,-0.1008879 -2.670278,-0.023804 -0.06338,0.052603 -0.08255,-0.025949 -0.09998,-0.4096948 z"
       id="path7956"
       inkscape:connector-curvature="0"
       transform="matrix(0.26458333,0,0,0.26458333,0,288.53333)" />
    <path
       style="fill:#ffffff;fill-opacity:1;stroke:#000000;stroke-width:0.02985075;stroke-miterlimit:4;stroke-dasharray:none"
       d="m 24.851123,12.450368 c -0.139345,-0.02749 -0.290817,-0.07156 -0.336605,-0.09794 -0.09761,-0.05622 -0.519722,-0.449966 -0.80162,-0.747744 l -0.197549,-0.208679 0.127842,-0.395712 c 0.155855,-0.482424 0.120278,-0.72039 -0.14194,-0.949409 -0.1033,-0.090222 -0.214684,-0.16529 -0.24752,-0.1668183 -0.03283,-0.00153 0.0396,-0.055224 0.160975,-0.1193254 0.509639,-0.2691582 0.733443,-0.8984011 0.550913,-1.5489355 -0.0551,-0.1963805 -0.137072,-0.3876687 -0.182156,-0.425085 -0.102415,-0.084997 -0.106922,-0.1837616 -0.0073,-0.1609534 0.123088,0.028193 0.630832,-0.3011865 0.674013,-0.4372404 0.071,-0.223835 -0.03989,-1.0245127 -0.195982,-1.4147973 C 24.033281,5.225378 23.803943,5.0902809 23.020088,5.0507463 L 22.428236,5.0208955 22.363372,4.7974727 C 22.327696,4.6745902 22.25651,4.5256652 22.205179,4.4665282 c -0.05133,-0.059137 -0.112876,-0.139151 -0.136768,-0.177809 -0.06572,-0.1063347 0.127371,-0.4348585 0.402543,-0.6848914 0.244671,-0.2223172 0.247182,-0.2230406 0.777142,-0.2238806 0.487185,-7.722e-4 0.549636,0.012771 0.746269,0.1618304 0.265645,0.2013761 0.418955,0.3786681 0.421559,0.4875041 0.0033,0.1371999 0.251548,0.5928449 0.397971,0.7304018 0.131821,0.1238401 0.142716,0.1247822 0.294314,0.025451 0.159148,-0.1042783 0.16329,-0.1424079 0.05383,-0.4955826 -0.03994,-0.1288758 -0.02727,-0.1343283 0.312172,-0.1343283 0.194593,0 0.567129,0.050878 0.827858,0.1130621 0.412677,0.098424 0.902687,0.2022908 1.311117,0.277916 0.356937,0.066091 0.625623,0.6153093 0.625623,1.2788309 0,0.3307992 -0.03919,0.3600417 -0.482495,0.3600417 -0.209335,0 -0.293624,0.023565 -0.293624,0.08209 0,0.045149 -0.01679,0.1660448 -0.03731,0.2686567 l -0.03731,0.1865672 h 0.412105 c 0.345288,0 0.429579,0.020409 0.519882,0.1258743 0.08231,0.096133 0.149921,0.1174454 0.286144,0.090201 0.275687,-0.055137 0.484668,0.091789 0.696887,0.4899526 0.173583,0.3256753 0.189459,0.4017916 0.189459,0.9083392 v 0.552877 L 28.865672,8.8541333 28.238806,8.8186342 V 8.964541 c 0,0.09138 -0.03425,0.1459068 -0.09165,0.1459068 -0.07427,0 -0.07907,0.023507 -0.02533,0.123922 0.03648,0.068157 0.11802,0.1756201 0.181205,0.2388057 0.165174,0.1651738 0.146313,0.5055744 -0.04951,0.8936055 l -0.164398,0.325756 -0.539598,0.017 -0.539598,0.017 -0.366619,-0.246178 c -0.403299,-0.270809 -0.585733,-0.277249 -0.649564,-0.02293 -0.02595,0.103382 0.01685,0.227966 0.149115,0.434083 0.122481,0.190869 0.185507,0.364536 0.185507,0.511155 0,0.244957 -0.11521,0.765297 -0.179844,0.812255 -0.0226,0.01642 -0.07292,0.0903 -0.111826,0.164179 -0.06394,0.121421 -0.11213,0.1337 -0.501475,0.127787 -0.236905,-0.0036 -0.544745,-0.02903 -0.68409,-0.05652 z"
       id="path7958"
       inkscape:connector-curvature="0"
       transform="matrix(0.26458333,0,0,0.26458333,0,288.53333)" />
    <path
       style="fill:#ffffff;fill-opacity:1;stroke:#000000;stroke-width:0.02985075;stroke-miterlimit:4;stroke-dasharray:none"
       d="M 22.659039,9.0955224 C 22.53775,8.9559701 22.287417,8.6887433 22.102744,8.501685 l -0.335769,-0.3401061 -0.0029,-0.4360133 c -0.0031,-0.4609277 0.005,-0.442868 -0.555009,-1.2419835 C 20.962892,6.1322949 20.5335,5.866424 20.149254,5.8273614 L 19.850746,5.7970149 19.813497,5.4503152 C 19.764751,4.9966129 19.623589,4.7007085 19.359435,4.4985075 L 19.144952,4.3343284 h 0.951553 c 0.764606,0 0.977622,0.018259 1.084241,0.092937 0.07298,0.051116 0.13366,0.1249963 0.13485,0.1641791 0.0012,0.039183 0.115369,0.1249729 0.253732,0.1906446 l 0.251568,0.1194029 0.01725,0.5223881 c 0.01698,0.5143398 0.01957,0.5223881 0.168104,0.5223881 0.08297,0 0.20179,0.02726 0.264045,0.060578 0.09632,0.051551 0.133549,0.02493 0.249807,-0.1786446 0.132583,-0.2321621 0.146035,-0.2392362 0.455758,-0.2396825 0.563941,-8.125e-4 0.824417,0.311344 0.857776,1.0279661 l 0.01711,0.3675914 -0.235177,0.1335035 c -0.213794,0.1213648 -0.250166,0.1257529 -0.40002,0.04826 -0.236491,-0.1222939 -0.453217,-0.1074087 -0.530189,0.036415 -0.09273,0.1732782 -0.024,0.3292841 0.204456,0.4640796 0.273059,0.1611088 0.572871,0.6982852 0.572871,1.0264205 0,0.2143021 -0.03356,0.2859938 -0.213207,0.4554193 -0.117263,0.1105936 -0.248465,0.2010792 -0.29156,0.2010792 -0.0431,0 -0.177591,-0.1141791 -0.298881,-0.2537313 z"
       id="path7960"
       inkscape:connector-curvature="0"
       transform="matrix(0.26458333,0,0,0.26458333,0,288.53333)" />
  </g>
</svg>
