<?xml version="1.0" encoding="UTF-8" standalone="no"?>
<!-- Created with Inkscape (http://www.inkscape.org/) -->

<svg
   xmlns:dc="http://purl.org/dc/elements/1.1/"
   xmlns:cc="http://creativecommons.org/ns#"
   xmlns:rdf="http://www.w3.org/1999/02/22-rdf-syntax-ns#"
   xmlns:svg="http://www.w3.org/2000/svg"
   xmlns="http://www.w3.org/2000/svg"
   xmlns:sodipodi="http://sodipodi.sourceforge.net/DTD/sodipodi-0.dtd"
   xmlns:inkscape="http://www.inkscape.org/namespaces/inkscape"
   width="32"
   height="32"
   viewBox="0 0 8.4666667 8.4666667"
   version="1.1"
   id="svg4517"
   inkscape:version="0.92.1 r15371"
   sodipodi:docname="Thunderstorm.svg"
   inkscape:export-filename="C:\Unity\Gods Fate\Assets\Graphics\Icons\Thunderstorm.png"
   inkscape:export-xdpi="96"
   inkscape:export-ydpi="96">
  <defs
     id="defs4511" />
  <sodipodi:namedview
     id="base"
     pagecolor="#ffffff"
     bordercolor="#666666"
     borderopacity="1.0"
     inkscape:pageopacity="0.0"
     inkscape:pageshadow="2"
     inkscape:zoom="16.75"
     inkscape:cx="16"
     inkscape:cy="20.776119"
     inkscape:document-units="mm"
     inkscape:current-layer="layer1"
     showgrid="false"
     units="px"
     inkscape:window-width="1920"
     inkscape:window-height="1017"
     inkscape:window-x="-8"
     inkscape:window-y="-8"
     inkscape:window-maximized="1" />
  <metadata
     id="metadata4514">
    <rdf:RDF>
      <cc:Work
         rdf:about="">
        <dc:format>image/svg+xml</dc:format>
        <dc:type
           rdf:resource="http://purl.org/dc/dcmitype/StillImage" />
        <dc:title></dc:title>
      </cc:Work>
    </rdf:RDF>
  </metadata>
  <g
     inkscape:label="Calque 1"
     inkscape:groupmode="layer"
     id="layer1"
     transform="translate(0,-288.53333)">
    <path
       style="fill:none;fill-opacity:1;stroke:#000000;stroke-width:0.13229166;stroke-miterlimit:4;stroke-dasharray:none"
       d="m 1.595398,291.48719 c -0.00527,0.0211 -0.010531,0.0421 -0.015796,0.0632 -0.00527,0.005 -0.012466,0.009 -0.015796,0.0158 -0.00235,0.005 0.00235,0.0111 0,0.0158 -0.00333,0.007 -0.012466,0.009 -0.015796,0.0158 -0.00471,0.009 0.00471,0.0222 0,0.0316 -0.00333,0.007 -0.012466,0.009 -0.015796,0.0158 -0.00471,0.009 0,0.0211 0,0.0316 0,0.0316 0,0.0632 0,0.0948 0,0.0105 0,0.0211 0,0.0316 0,0.005 0.00235,0.0111 0,0.0158 -0.00333,0.007 -0.012466,0.009 -0.015796,0.0158 -0.00381,0.008 0,0.0523 0,0.0632 0,0.0527 0,0.10531 0,0.15796 0,0.0185 -0.00401,0.10255 0,0.11057 0.00333,0.007 0.012466,0.009 0.015796,0.0158 0.00235,0.005 -0.00235,0.0111 0,0.0158 0.00333,0.007 0.012466,0.009 0.015796,0.0158 0.00477,0.01 -0.0073,0.0401 0,0.0474 0.00833,0.008 0.023267,0.007 0.031592,0.0158 0.00745,0.007 -0.00745,0.0242 0,0.0316 0.00372,0.004 0.012073,-0.004 0.015796,0 0.00372,0.004 -0.00372,0.0121 0,0.0158 0.00372,0.004 0.011087,-0.002 0.015796,0 0.019808,0.01 0.043376,0.0533 0.063184,0.0632 0.00471,0.002 0.012073,-0.004 0.015796,0 0.00833,0.008 0.00747,0.0233 0.015796,0.0316 0.0073,0.007 0.037851,-0.005 0.047388,0 0.00852,0.004 0.023069,0.0273 0.031592,0.0316 0.00761,0.004 0.05226,0 0.063184,0 0.052653,0 0.1053068,0 0.1579602,0 0.063184,0 0.1263682,0 0.1895523,0 0.019214,0 0.082112,0.004 0.094776,0 0.1144171,-0.0381 -0.024904,0.005 0.047388,-0.0316 0.00471,-0.002 0.010801,0.002 0.015796,0 0.1144172,-0.0381 -0.024904,0.005 0.047388,-0.0316 0.00471,-0.002 0.011087,0.002 0.015796,0 0.00666,-0.003 0.00873,-0.0134 0.015796,-0.0158 0.00999,-0.003 0.021602,0.003 0.031592,0 0.049304,-0.0164 -0.00527,-0.0105 0.015796,-0.0316 0.00372,-0.004 0.012073,0.004 0.015796,0 0.00833,-0.008 0.00747,-0.0233 0.015796,-0.0316 0.00372,-0.004 0.013441,0.005 0.015796,0 0.00471,-0.009 -0.00471,-0.0222 0,-0.0316 0.00235,-0.005 0.012073,0.004 0.015796,0 0.00372,-0.004 0,-0.0105 0,-0.0158 0.010531,-0.005 0.023267,-0.007 0.031592,-0.0158 0.00745,-0.007 -0.00745,-0.0241 0,-0.0316 0.00372,-0.004 0.012073,0.004 0.015796,0 0.00745,-0.007 -0.00471,-0.0222 0,-0.0316 0.00333,-0.007 0.00914,-0.0125 0.015796,-0.0158 0.00471,-0.002 0.013441,0.005 0.015796,0 0,-0.0895 -0.010531,-0.005 0.015796,-0.0316 0.00745,-0.007 -0.00745,-0.0241 0,-0.0316 0.00372,-0.004 0.012073,0.004 0.015796,0 0.00832,-0.008 0.00747,-0.0233 0.015796,-0.0316 0.00372,-0.004 0.012073,0.004 0.015796,0 0.00372,-0.004 -0.00372,-0.0121 0,-0.0158 0.00832,-0.008 0.023268,-0.007 0.031592,-0.0158 0.00372,-0.004 -0.00372,-0.0121 0,-0.0158 0.00372,-0.004 0.013441,0.005 0.015796,0 0.00471,-0.009 -0.00333,-0.0216 0,-0.0316 0.00235,-0.007 0.012467,-0.009 0.015796,-0.0158 0.00241,-0.005 0,-0.0403 0,-0.0474 0,-0.0158 -0.00706,-0.0333 0,-0.0474 0.00235,-0.005 0.012073,0.004 0.015796,0 0.00372,-0.004 -0.00235,-0.0111 0,-0.0158 0.00333,-0.007 0.012467,-0.009 0.015796,-0.0158 0.00428,-0.009 -0.00432,-0.0589 0,-0.0632 0.00372,-0.004 0.012073,0.004 0.015796,0 7.144e-4,-7.1e-4 0,-0.0715 0,-0.079"
       id="path5062"
       inkscape:connector-curvature="0" />
    <path
       style="fill:none;fill-opacity:1;stroke:#000000;stroke-width:0.13229166;stroke-miterlimit:4;stroke-dasharray:none"
       d="m 2.6221385,292.16652 c 0.021062,0.0316 0.03888,0.0655 0.063185,0.0947 0.00337,0.004 0.012073,-0.004 0.015796,0 0.00372,0.004 -0.00167,0.0108 0,0.0158 0.00759,0.0228 0.026784,0.0494 0.047388,0.0632 0.00979,0.007 0.025061,0.006 0.031592,0.0158 0.00584,0.009 -0.00471,0.0222 0,0.0316 0.00235,0.005 0.011086,-0.002 0.015796,0 0.011882,0.006 0.037008,0.037 0.047388,0.0474 0.031592,0.0316 0.063184,0.0632 0.094776,0.0948 0.014531,0.0145 0.030328,0.036 0.047388,0.0474 -0.0018,0.0299 0.036857,0.0105 0.047388,0.0158 0.00666,0.003 0.0096,0.0117 0.015796,0.0158 0.00979,0.007 0.021796,0.009 0.031592,0.0158 0.0062,0.004 0.00914,0.0125 0.015796,0.0158 0.00942,0.005 0.0216,-0.003 0.031592,0 0.098047,0.0327 -0.052499,-0.001 0.07898,0.0316 0.00511,0.001 0.0108,-0.002 0.015796,0 0.011171,0.004 0.020423,0.0121 0.031592,0.0158 0.01207,0.004 0.034573,0 0.047388,0 0.042123,0 0.084246,0 0.1263682,0 0.042123,0 0.084246,0 0.1263682,0 0.015796,0 0.03326,0.007 0.047388,0 0.00471,-0.002 -0.00235,-0.0111 0,-0.0158 0.00327,-0.007 0.040693,-0.0429 0.047388,-0.0474 0.00979,-0.007 0.023268,-0.007 0.031592,-0.0158 0,-0.0232 -0.00372,-0.0121 0.015796,-0.0316 0.01038,-0.0104 0.041447,-0.0355 0.047388,-0.0474 0.00235,-0.005 -0.00235,-0.0111 0,-0.0158 0.00333,-0.007 0.011665,-0.01 0.015796,-0.0158 0.00653,-0.01 0.006,-0.0251 0.015796,-0.0316 0.00876,-0.006 0.024146,0.007 0.031592,0 0.00745,-0.007 -0.00471,-0.0222 0,-0.0316 0.00235,-0.005 0.012073,0.004 0.015796,0 0.00833,-0.008 0.00747,-0.0233 0.015796,-0.0316 0.00372,-0.004 0.011086,0.002 0.015796,0 0.00666,-0.003 0.00914,-0.0125 0.015796,-0.0158 0.00471,-0.002 0.012073,0.004 0.015796,0 0.00833,-0.008 0.00747,-0.0233 0.015796,-0.0316 0.00833,-0.008 0.021796,-0.009 0.031592,-0.0158 0.01239,-0.008 0.021061,-0.0211 0.031592,-0.0316 0.031592,-0.0316 0.063184,-0.0632 0.094776,-0.0948 0.01038,-0.0104 0.041447,-0.0355 0.047388,-0.0474 0.00624,-0.0125 -0.00444,-0.0341 0,-0.0474 0.00372,-0.0112 0.012073,-0.0204 0.015796,-0.0316 0.00167,-0.005 0,-0.0105 0,-0.0158 0,-0.0105 0,-0.0211 0,-0.0316 0,-0.0421 0,-0.0842 0,-0.12637 0,-0.0842 0,-0.16849 0,-0.25274"
       id="path5064"
       inkscape:connector-curvature="0" />
    <path
       style="fill:none;fill-opacity:1;stroke:#000000;stroke-width:0.13229166;stroke-miterlimit:4;stroke-dasharray:none"
       d="m 3.9490049,292.37176 c -0.06202,0.23839 0.067928,0.0363 0.094776,0.0632 0.00372,0.004 -0.00372,0.0121 0,0.0158 0.01665,0.0167 0.043591,0.0185 0.063184,0.0316 0.0062,0.004 0.01053,0.0105 0.015796,0.0158 0.01053,0.005 0.021796,0.009 0.031592,0.0158 0.01954,0.013 0.012054,0.0186 0.031592,0.0316 0.00979,0.007 0.021796,0.009 0.031592,0.0158 0.0062,0.004 0.00857,0.014 0.015796,0.0158 0.015325,0.004 0.031899,-0.003 0.047388,0 0.029234,-0.0117 0.028971,0.027 0.047388,0.0316 0.020016,0.005 0.071378,0 0.094776,0 0.00527,0 0.0108,-0.002 0.015796,0 0.011171,0.004 0.020423,0.0121 0.031592,0.0158 0.013142,0.004 0.046908,0 0.063184,0 0.042123,0 0.084246,0 0.1263682,0 0.016968,0 0.1194424,0.003 0.1263681,0 0.048171,-0.0241 -0.02889,-0.0125 0.047388,-0.0316 0.010216,-0.003 0.021601,0.003 0.031592,0 0.00706,-0.002 0.00914,-0.0125 0.015796,-0.0158 0.00471,-0.002 0.01053,0 0.015796,0 0.00527,-0.005 0.00914,-0.0125 0.015796,-0.0158 0.00471,-0.002 0.011086,0.002 0.015796,0 0.013319,-0.007 0.018272,-0.0249 0.031592,-0.0316 0.00942,-0.005 0.022172,0.005 0.031592,0 0.00441,-0.002 0.076778,-0.0746 0.07898,-0.079 0.00235,-0.005 -0.00235,-0.0111 0,-0.0158 0.00666,-0.0133 0.024932,-0.0183 0.031592,-0.0316 0.00235,-0.005 -0.00235,-0.0111 0,-0.0158 0.036146,-0.0723 -0.00655,0.067 0.031592,-0.0474 0.00167,-0.005 -0.00292,-0.0114 0,-0.0158 0.00826,-0.0124 0.023331,-0.0192 0.031592,-0.0316 0.00485,-0.007 -0.00456,-0.0586 0,-0.0632 0.00372,-0.004 0.012073,0.004 0.015796,0 0.030751,-0.0308 0.00458,-0.0453 0.015796,-0.079 0.00235,-0.007 0.012465,-0.009 0.015796,-0.0158 0.00389,-0.008 0,-0.0775 0,-0.0948 0,-0.0579 0,-0.11584 0,-0.17376 0,-0.0126 0.00365,-0.0559 0,-0.0632 -0.00333,-0.007 -0.012467,-0.009 -0.015796,-0.0158 -0.00471,-0.009 0,-0.0211 0,-0.0316 0,-0.0105 -0.01053,-0.0316 0,-0.0316 0.01053,0 0,0.0211 0,0.0316"
       id="path5066"
       inkscape:connector-curvature="0" />
    <path
       style="fill:none;fill-opacity:1;stroke:#000000;stroke-width:0.13229166;stroke-miterlimit:4;stroke-dasharray:none"
       d="m 1.579602,291.55039 c -0.068449,0.0684 -0.1344126,0.13947 -0.2053483,0.20533 -0.00386,0.004 -0.010531,0 -0.015796,0 -0.00527,0 -0.010531,0 -0.015796,0 -0.036857,0 -0.073715,0 -0.1105721,0 -0.014349,0 -0.1003178,0.003 -0.1105722,0 -0.00706,-0.002 -0.00914,-0.0125 -0.015796,-0.0158 -0.00471,-0.002 -0.011087,0.002 -0.015796,0 -0.00666,-0.003 -0.00873,-0.0134 -0.015796,-0.0158 -0.00999,-0.003 -0.022173,0.005 -0.031592,0 -0.00471,-0.002 0.00372,-0.0121 0,-0.0158 -0.00745,-0.007 -0.022173,0.005 -0.031592,0 -0.00666,-0.003 -0.00914,-0.0125 -0.0157959,-0.0158 -0.00471,-0.002 -0.0120729,0.004 -0.0157962,0 -0.003723,-0.004 0.003723,-0.0121 0,-0.0158 -0.0326825,-0.0327 0.001278,0.0499 -0.031592,-0.0158 -0.002355,-0.005 0.003723,-0.0121 0,-0.0158 -0.008325,-0.008 -0.0217958,-0.009 -0.031592,-0.0158 -0.0135705,-0.009 -0.087109,-0.0845 -0.0947761,-0.0948 -0.007064,-0.009 -0.007471,-0.0233 -0.0157962,-0.0316 -0.007446,-0.007 -0.0241456,0.007 -0.031592,0 -0.008325,-0.008 -0.007471,-0.0233 -0.0157959,-0.0316 -0.008325,-0.008 -0.0232669,-0.007 -0.031592,-0.0158 -0.003723,-0.004 0.002355,-0.0111 0,-0.0158 -0.00666,-0.0133 -0.024932,-0.0183 -0.031592,-0.0316 -0.002355,-0.005 0.003723,-0.0121 0,-0.0158 -0.003723,-0.004 -0.0120729,0.004 -0.0157962,0 -0.003723,-0.004 0.003723,-0.0121 0,-0.0158 -0.008325,-0.008 -0.0232669,-0.007 -0.031592,-0.0158 -0.003723,-0.004 0,-0.0105 0,-0.0158 -0.005265,0 -0.0120729,0.004 -0.0157962,0 -0.003723,-0.004 0.003723,-0.0121 0,-0.0158 -0.003723,-0.004 -0.0120729,0.004 -0.0157962,0 -0.003723,-0.004 0.002355,-0.0111 0,-0.0158 -0.00666,-0.0133 -0.024932,-0.0183 -0.031592,-0.0316 -0.00471,-0.009 0.00471,-0.0222 0,-0.0316 -0.00333,-0.007 -0.0124658,-0.009 -0.0157962,-0.0158 -0.00471,-0.009 0.007446,-0.0242 0,-0.0316 -0.008325,-0.008 -0.0232669,-0.007 -0.031592,-0.0158 -0.007446,-0.007 0.00333,-0.0216 0,-0.0316 -0.003723,-0.0112 -0.0120729,-0.0204 -0.0157959,-0.0316 -0.004314,-0.0129 0,-0.10554 0,-0.12636 0,-0.01 -0.003635,-0.0875 0,-0.0948 0.00333,-0.007 0.0124658,-0.009 0.0157959,-0.0158 0.002355,-0.005 -0.003723,-0.0121 0,-0.0158 0.003723,-0.004 0.0120729,0.004 0.0157962,0 0.007446,-0.007 -0.00471,-0.0222 0,-0.0316 0.00333,-0.007 0.0105307,-0.0105 0.0157962,-0.0158 0.005265,-0.005 0.009136,-0.0125 0.0157962,-0.0158 0.00471,-0.002 0.0120729,0.004 0.0157962,0 0.003723,-0.004 -0.003723,-0.0121 0,-0.0158 0.003723,-0.004 0.0120729,0.004 0.0157959,0 0.003723,-0.004 -0.002355,-0.0111 0,-0.0158 0.00333,-0.007 0.0105307,-0.0105 0.0157962,-0.0158 0.005265,-0.005 0.009136,-0.0125 0.0157961,-0.0158 0.00471,-0.002 0.0120729,0.004 0.0157962,0 0.003723,-0.004 -0.003723,-0.0121 0,-0.0158 0.003723,-0.004 0.0120729,0.004 0.0157962,0 0.003723,-0.004 -0.002355,-0.0111 0,-0.0158 0.0328696,-0.0657 -0.00109,0.0169 0.031592,-0.0158 0.0210614,-0.0211 -0.0263266,-0.0158 0.0157962,-0.0158"
       id="path5068"
       inkscape:connector-curvature="0" />
    <path
       style="fill:none;fill-opacity:1;stroke:#000000;stroke-width:0.13229166;stroke-miterlimit:4;stroke-dasharray:none"
       d="m 0.7266179,290.68136 c 0.0157956,-0.005 0.042198,-0.0314 0.0473871,-0.0156 0.005189,0.0158 -0.0473871,0.0322 -0.0473871,0.0156 0,-0.0352 0.0334763,-0.0622 0.0473871,-0.0945 0.003463,-0.008 0,-0.0949 0,-0.11057 0,-0.005 0,-0.0105 0,-0.0158 0,-0.005 -0.003723,-0.0121 0,-0.0158 0.003723,-0.004 0.0120729,0.004 0.0157962,0 0.003723,-0.004 -0.002355,-0.0111 0,-0.0158 0.00333,-0.007 0.0124658,-0.009 0.0157962,-0.0158 0.002355,-0.005 -0.003723,-0.0121 0,-0.0158 0.007446,-0.007 0.0241459,0.007 0.031592,0 0.003723,-0.004 -0.003723,-0.0121 0,-0.0158 0.003723,-0.004 0.0105307,0 0.0157962,0 0.0105307,0 0.0221731,0.005 0.031592,0 0.00471,-0.002 -0.002355,-0.0111 0,-0.0158 0.00333,-0.007 0.009136,-0.0125 0.0157962,-0.0158 0.00471,-0.002 0.0110866,0.002 0.0157962,0 0.00666,-0.003 0.009136,-0.0125 0.0157962,-0.0158 0.009419,-0.005 0.0221731,0.005 0.031592,0 0.0657393,-0.0329 -0.0168865,10e-4 0.0157962,-0.0316 0.008325,-0.008 0.0204227,-0.0121 0.0315921,-0.0158 0.005,-0.002 0.012073,0.004 0.015796,0 0.00372,-0.004 -0.00235,-0.0111 0,-0.0158 0.017462,-0.0349 0.0098,-0.005 0.031591,-0.0158 0.018955,-0.009 0.028433,-0.0379 0.047388,-0.0474 0.012907,-0.006 0.050277,0.006 0.063184,0 0.00666,-0.003 0.00914,-0.0125 0.015796,-0.0158 0.00942,-0.005 0.021061,0 0.031592,0 0.031592,0 0.063184,0 0.094776,0 0.052653,0 0.1053068,0 0.1579602,0 0.010531,0 0.021061,0 0.031592,0 0.00527,0 0.012073,-0.004 0.015796,0 0.00372,0.004 -0.00471,0.0134 0,0.0158 0.00942,0.005 0.021061,0 0.031592,0 0.00527,0 0.012073,-0.004 0.015796,0 0.00372,0.004 -0.00372,0.0121 0,0.0158 0.021061,0.0211 0.015157,-0.0335 0.031592,0.0158 0.00333,0.01 -0.00471,0.0222 0,0.0316 0.00471,0.009 0.024146,-0.007 0.031592,0 0.0038,0.004 -0.0038,0.0594 0,0.0632 0.00372,0.004 0.012073,-0.004 0.015796,0 0.00372,0.004 -0.00372,0.0121 0,0.0158 0.00372,0.004 0.012073,-0.004 0.015796,0 0.0073,0.007 -0.00477,0.0378 0,0.0474 0.017104,0.0342 0.015796,-0.006 0.015796,0.0474"
       id="path5070"
       inkscape:connector-curvature="0" />
    <path
       style="fill:none;fill-opacity:1;stroke:#000000;stroke-width:0.13229166;stroke-miterlimit:4;stroke-dasharray:none"
       d="m 1.6743777,290.44469 c -0.036857,-0.10532 -0.078512,-0.20908 -0.1105717,-0.31596 -0.00151,-0.005 0.011087,0.002 0.015796,0 0.00666,-0.003 0.012466,-0.009 0.015796,-0.0158 0.00235,-0.005 -0.00235,-0.0111 0,-0.0158 0.00333,-0.007 0.012466,-0.009 0.015796,-0.0158 0.00235,-0.005 -0.00372,-0.0121 0,-0.0158 0.032683,-0.0327 -0.00128,0.05 0.031592,-0.0158 0.00235,-0.005 -0.00372,-0.0121 0,-0.0158 0.00745,-0.007 0.024146,0.007 0.031592,0 0.019239,-0.0192 0.0074,-0.0353 0.031592,-0.0474 0.00471,-0.002 0.011087,0.002 0.015796,0 0.00666,-0.003 0.00914,-0.0125 0.015796,-0.0158 0.00471,-0.002 0.012073,0.004 0.015796,0 0.00372,-0.004 -0.00372,-0.0121 0,-0.0158 1.51e-5,-10e-6 0.047316,2e-5 0.047388,0 0.058558,-0.0195 -0.019254,-0.0158 0.031592,-0.0158 0.061706,0 0.00167,0.005 0.063184,-0.0158 0.005,-0.002 0.010531,0 0.015796,0 0.024456,0 0.054925,0.005 0.07898,0 0.2100206,-0.042 -5.36e-5,0.008 0.07898,-0.0316 0.00739,-0.004 0.068135,0 0.07898,0 0.073715,0 0.1474295,0 0.2211443,0 0.036857,0 0.073715,0 0.1105721,0 0.010531,0 0.021602,-0.003 0.031592,0 0.011169,0.004 0.02017,0.0129 0.031592,0.0158 0.010216,0.003 0.021602,-0.003 0.031592,0 0.00706,0.002 0.00914,0.0125 0.015796,0.0158 0.00471,0.002 0.010531,0 0.015796,0 0.010531,0.005 0.021796,0.009 0.031592,0.0158 0.012392,0.008 0.018272,0.0249 0.031592,0.0316 0.00471,0.002 0.01053,0 0.015796,0 0.015796,0.005 0.032495,0.008 0.047388,0.0158 0.013322,0.007 0.019201,0.0233 0.031592,0.0316 0.00979,0.007 0.023267,0.007 0.031592,0.0158 0.00372,0.004 -0.00372,0.0121 0,0.0158 0.00833,0.008 0.023267,0.007 0.031592,0.0158 0.00372,0.004 -0.00372,0.0121 0,0.0158 0.00372,0.004 0.011086,-0.002 0.015796,0 0.00419,0.002 0.045291,0.0432 0.047388,0.0474 0.00235,0.005 -0.00372,0.0121 0,0.0158 0.00833,0.008 0.021796,0.009 0.031592,0.0158 0.0062,0.004 0.01053,0.0105 0.015796,0.0158 0.00527,0.005 0.012465,0.009 0.015796,0.0158 0.00235,0.005 -0.00372,0.0121 0,0.0158 0.00372,0.004 0.012073,-0.004 0.015796,0 0.00372,0.004 -0.00372,0.0121 0,0.0158 0.00745,0.007 0.024146,-0.007 0.031592,0 0.00372,0.004 -0.00235,0.0111 0,0.0158 0.00333,0.007 0.012465,0.009 0.015796,0.0158 0.00235,0.005 -0.00235,0.0111 0,0.0158 0.052389,0.0524 -0.00745,-0.0149 0.015796,0.0316 0.00333,0.007 0.012465,0.009 0.015796,0.0158 0.00471,0.009 -0.00471,0.0222 0,0.0316 0.03287,0.0657 -0.00108,-0.0169 0.031592,0.0158 6.35e-4,6.3e-4 0,0.0574 0,0.0632"
       id="path5072"
       inkscape:connector-curvature="0" />
    <path
       style="fill:none;fill-opacity:1;stroke:#000000;stroke-width:0.13229166;stroke-miterlimit:4;stroke-dasharray:none"
       d="m 3.0012423,290.22353 c -0.026326,-0.0579 -0.052652,-0.11585 -0.078979,-0.17378 0,-0.005 -0.00372,-0.0121 0,-0.0158 0.00372,-0.004 0.012073,0.004 0.015796,0 0.00372,-0.004 -0.00372,-0.0121 0,-0.0158 0.00372,-0.004 0.011086,0.002 0.015796,0 0.00666,-0.003 0.00914,-0.0125 0.015796,-0.0158 0.00471,-0.002 0.012073,0.004 0.015796,0 0.00372,-0.004 -0.00235,-0.0111 0,-0.0158 0.017463,-0.0349 0.0098,-0.005 0.031592,-0.0158 0.034926,-0.0175 0.0049,-0.01 0.015796,-0.0316 0.032869,-0.0657 -0.00108,0.0169 0.031592,-0.0158 0.00372,-0.004 -0.00372,-0.0121 0,-0.0158 0.00745,-0.007 0.022172,0.005 0.031592,0 0.065739,-0.0329 -0.016886,10e-4 0.015796,-0.0316 0.00372,-0.004 0.012073,0.004 0.015796,0 0.00372,-0.004 -0.00372,-0.0121 0,-0.0158 0.00372,-0.004 0.01053,0 0.015796,0 0.00527,0 0.01053,0 0.015796,0 0.0065,0 0.043207,-0.004 0.047388,0 0.00372,0.004 -0.00372,0.0121 0,0.0158 0.00745,0.007 0.022172,-0.005 0.031592,0 0.013322,0.007 0.018272,0.0249 0.031592,0.0316 0.0085,0.004 0.094579,0 0.110572,0 0.00527,0 0.01053,0 0.015796,0 0.00527,0 0.012073,-0.004 0.015796,0 0.00372,0.004 -0.00372,0.0121 0,0.0158 0.010731,0.0107 0.031414,-0.0161 0.047388,0.0158 0.00235,0.005 -0.00471,0.0134 0,0.0158 0.00942,0.005 0.021061,0 0.031592,0 0.00527,0 0.012073,-0.004 0.015796,0 0.00372,0.004 -0.00372,0.0121 0,0.0158 0.00372,0.004 0.011086,-0.002 0.015796,0 0.013322,0.007 0.018272,0.0249 0.031592,0.0316 0.00942,0.005 0.022172,-0.005 0.031592,0 0.00666,0.003 0.00914,0.0125 0.015796,0.0158 0.00471,0.002 0.012073,-0.004 0.015796,0 0.00372,0.004 -0.00372,0.0121 0,0.0158 0.00372,0.004 0.012073,-0.004 0.015796,0 0.00745,0.007 -0.00745,0.0242 0,0.0316 0.00372,0.004 0.011086,-0.002 0.015796,0 0.065739,0.0329 -0.016886,-10e-4 0.015796,0.0316 0.00372,0.004 0.012073,-0.004 0.015796,0 0.00745,0.007 -0.00745,0.0241 0,0.0316 0.00372,0.004 0.012073,-0.004 0.015796,0 0.032683,0.0327 -0.049943,-0.001 0.015796,0.0316 0.00471,0.002 0.01053,0 0.015796,0 0.00527,0.0105 0.00747,0.0233 0.015796,0.0316 0.00372,0.004 0.012875,-0.004 0.015796,0 0.00924,0.0139 0.00656,0.0335 0.015796,0.0474 0.00292,0.004 0.012073,-0.004 0.015796,0 0.00833,0.008 0.00747,0.0233 0.015796,0.0316 0.00372,0.004 0.011086,-0.002 0.015796,0 0.00666,0.003 0.00914,0.0125 0.015796,0.0158 0.016611,0.008 0.031592,-0.0156 0.031592,0.0316"
       id="path5074"
       inkscape:connector-curvature="0" />
    <path
       style="fill:none;fill-opacity:1;stroke:#000000;stroke-width:0.13229166;stroke-miterlimit:4;stroke-dasharray:none"
       d="m 3.6804713,290.09715 c 0.015796,-0.0211 0.02683,-0.0467 0.047389,-0.0632 0.00822,-0.007 0.021376,0.003 0.031592,0 0.011422,-0.003 0.021796,-0.009 0.031592,-0.0158 0.0062,-0.004 0.00845,-0.0146 0.015796,-0.0158 0.025969,-0.004 0.053012,0.004 0.07898,0 0.00734,-10e-4 0.00873,-0.0134 0.015796,-0.0158 0.00999,-0.003 0.021061,0 0.031592,0 0.031592,0 0.063428,0.004 0.094776,0 0.011681,-0.001 0.020423,-0.0121 0.031592,-0.0158 0.01356,-0.005 0.091265,0 0.110572,0 0.00624,0 0.072234,-0.003 0.07898,0 0.00666,0.003 0.00914,0.0125 0.015796,0.0158 0.00471,0.002 0.0108,-0.002 0.015796,0 0.011171,0.004 0.020423,0.0121 0.031592,0.0158 0.014409,0.005 0.073276,-0.006 0.07898,0 0.019241,0.0192 0.0074,0.0353 0.031592,0.0474 0.011761,0.006 0.098644,-0.006 0.110572,0 0.00666,0.003 0.00914,0.0125 0.015796,0.0158 0.00942,0.005 0.022172,-0.005 0.031592,0 0.00666,0.003 0.00914,0.0125 0.015796,0.0158 0.00471,0.002 0.012073,-0.004 0.015796,0 0.00372,0.004 -0.00235,0.0111 0,0.0158 0.00333,0.007 0.012465,0.009 0.015796,0.0158 0.00235,0.005 -0.00372,0.0121 0,0.0158 0.032683,0.0327 -0.00127,-0.05 0.031592,0.0158 0.00235,0.005 -0.00235,0.0111 0,0.0158 0.00948,0.019 0.037911,0.0284 0.047388,0.0474 0.00235,0.005 -0.00372,0.0121 0,0.0158 0.00833,0.008 0.023267,0.007 0.031592,0.0158 0.00372,0.004 -0.00235,0.0111 0,0.0158 0.00333,0.007 0.012467,0.009 0.015796,0.0158 0.00471,0.009 -0.00745,0.0241 0,0.0316 0.00372,0.004 0.012073,-0.004 0.015796,0 0.0073,0.007 -0.00477,0.0379 0,0.0474 0.00666,0.0133 0.024932,0.0183 0.031592,0.0316 0.00425,0.008 0,0.0946 0,0.11058"
       id="path5076"
       inkscape:connector-curvature="0" />
    <path
       style="fill:none;fill-opacity:1;stroke:#000000;stroke-width:0.13229166;stroke-miterlimit:4;stroke-dasharray:none"
       d="m 4.5808442,290.06555 c 0.057919,0.0263 0.11503,0.0545 0.1737577,0.079 0.012404,0.005 0.1027318,0 0.1263681,0 0.1105723,0 0.2211443,0 0.3317166,0 0.036857,0 0.073715,0 0.110572,0 0.00711,0 0.042581,-0.002 0.047388,0 0.00666,0.003 0.00914,0.0125 0.015796,0.0158 0.00471,0.002 0.012073,-0.004 0.015796,0 0.00372,0.004 -0.00372,0.0121 0,0.0158 0.00372,0.004 0.011086,-0.002 0.015796,0 0.00666,0.003 0.00914,0.0125 0.015796,0.0158 0.00471,0.002 0.011086,-0.002 0.015796,0 0.019809,0.01 0.043376,0.0533 0.063184,0.0632 0.00471,0.002 0.012073,-0.004 0.015796,0 0.00372,0.004 -0.00235,0.0111 0,0.0158 0.00333,0.007 0.011666,0.01 0.015796,0.0158 0.00653,0.01 0.00927,0.0218 0.015796,0.0316 0.00413,0.006 0.01053,0.0105 0.015796,0.0158 0.00527,0.005 0.00914,0.0125 0.015796,0.0158 0.00471,0.002 0.012073,-0.004 0.015796,0 0.00745,0.007 -0.00471,0.0222 0,0.0316 0.00333,0.007 0.011665,0.01 0.015796,0.0158 0.00653,0.01 0.00927,0.0218 0.015796,0.0316 0.00413,0.006 0.012467,0.009 0.015796,0.0158 0.00235,0.005 -0.00235,0.0111 0,0.0158 0.00666,0.0133 0.024932,0.0183 0.031592,0.0316 0.00241,0.005 0,0.0403 0,0.0474 0,0.0316 0,0.0632 0,0.0948 0,0.007 7.143e-4,0.0783 0,0.079 -0.00372,0.004 -0.012073,-0.004 -0.015796,0 -0.00745,0.007 0.00745,0.0241 0,0.0316 -0.00372,0.004 -0.011086,-0.002 -0.015796,0 -0.00419,0.002 -0.045291,0.0432 -0.047388,0.0474 -0.00235,0.005 0.00372,0.0121 0,0.0158 -0.0073,0.007 -0.037851,-0.005 -0.047388,0 -0.052389,0.0524 0.014893,-0.007 -0.031592,0.0158 -0.00666,0.003 -0.00914,0.0125 -0.015796,0.0158 -0.00942,0.005 -0.024146,-0.007 -0.031592,0 -0.00372,0.004 0.00235,0.0111 0,0.0158 -0.00333,0.007 -0.01053,0.0105 -0.015796,0.0158"
       id="path5078"
       inkscape:connector-curvature="0" />
    <path
       style="fill:none;fill-opacity:1;stroke:#000000;stroke-width:0.13229166;stroke-miterlimit:4;stroke-dasharray:none"
       d="m 5.6707706,290.71335 c 0.115842,0.11566 0.073743,0.0736 0.1263687,0.1262 0.00527,0.005 0.00914,0.0125 0.015796,0.0158 0.00471,0.002 0.013441,-0.005 0.015796,0 0.00471,0.009 -0.00745,0.0241 0,0.0316 0.00745,0.007 0.024146,-0.007 0.031592,0 0.045207,0.0452 -0.039413,0.0198 0.015796,0.0474 0.00471,0.002 0.012073,-0.004 0.015796,0 0.019238,0.0192 0.0074,0.0353 0.031592,0.0474 0.00471,0.002 0.013441,-0.005 0.015796,0 0.00471,0.009 -0.00745,0.0241 0,0.0316 0.00745,0.007 0.022172,-0.005 0.031592,0 0.00471,0.002 -0.00292,0.0114 0,0.0158 0.00826,0.0124 0.023331,0.0192 0.031592,0.0316 0.00292,0.004 -0.00167,0.0108 0,0.0158 0.00372,0.0112 0.00927,0.0218 0.015796,0.0316 0.00826,0.0124 0.024932,0.0183 0.031592,0.0316 0.00235,0.005 -0.00235,0.0111 0,0.0158 0.00209,0.004 0.043194,0.0453 0.047388,0.0474 0.00471,0.002 0.012073,-0.004 0.015796,0 0.00372,0.004 -0.00372,0.0121 0,0.0158 0.00372,0.004 0.012073,-0.004 0.015796,0 0.00372,0.004 -0.00471,0.0134 0,0.0158 0.00942,0.005 0.022831,-0.006 0.031592,0 0.00979,0.007 0.00747,0.0233 0.015796,0.0316 0.00372,0.004 0.012073,-0.004 0.015796,0 0.00372,0.004 -0.00372,0.0121 0,0.0158 0.00372,0.004 0.012073,-0.004 0.015796,0 0.00372,0.004 0,0.0105 0,0.0158 0,0.011 0.00286,0.0733 0,0.079 -0.00333,0.007 -0.012467,0.009 -0.015796,0.0158 -0.00235,0.005 0.00235,0.0111 0,0.0158 -0.00333,0.007 -0.012467,0.009 -0.015796,0.0158 -0.00477,0.01 0.0073,0.0401 0,0.0474 -0.00372,0.004 -0.012073,-0.004 -0.015796,0 -0.00745,0.007 0.00745,0.0241 0,0.0316 -0.00372,0.004 -0.011086,-0.002 -0.015796,0 -0.013322,0.007 -0.018272,0.0249 -0.031592,0.0316 -0.00471,0.002 -0.012073,-0.004 -0.015796,0 -0.00372,0.004 0.00372,0.0121 0,0.0158 -0.00372,0.004 -0.012073,-0.004 -0.015796,0 -0.00372,0.004 0.00372,0.0121 0,0.0158 -0.00372,0.004 -0.012073,-0.004 -0.015796,0 -0.00372,0.004 0.00372,0.0121 0,0.0158 -0.032682,0.0327 0.00127,-0.0499 -0.031592,0.0158 -0.00235,0.005 0.00372,0.0121 0,0.0158 -0.00418,0.004 -0.040884,0 -0.047388,0 -0.015796,0 -0.031592,0 -0.047388,0 -0.00527,0 -0.012073,0.004 -0.015796,0 -0.00372,-0.004 0.00372,-0.0121 0,-0.0158 -0.00745,-0.007 -0.024146,0.007 -0.031592,0 -0.00372,-0.004 0.00235,-0.0111 0,-0.0158 -0.00333,-0.007 -0.012467,-0.009 -0.015796,-0.0158 -0.00235,-0.005 0.00471,-0.0134 0,-0.0158 -0.00942,-0.005 -0.022172,0.005 -0.031592,0 -0.00471,-0.002 0.00235,-0.0111 0,-0.0158 -0.00666,-0.0133 -0.024932,-0.0183 -0.031592,-0.0316 -0.00235,-0.005 0.00471,-0.0134 0,-0.0158 -0.00942,-0.005 -0.022172,0.005 -0.031592,0 -0.00471,-0.002 0.00372,-0.0121 0,-0.0158 -0.00372,-0.004 -0.011086,0.002 -0.015796,0 -0.00666,-0.003 -0.00914,-0.0125 -0.015796,-0.0158 -0.00942,-0.005 -0.024146,0.007 -0.031592,0 -0.021061,-0.0211 0.026326,-0.0158 -0.015796,-0.0158"
       id="path5080"
       inkscape:connector-curvature="0" />
    <path
       style="fill:none;fill-opacity:1;stroke:#000000;stroke-width:0.13229166;stroke-miterlimit:4;stroke-dasharray:none"
       d="m 5.8919152,291.59795 c 0.026326,0.0368 0.056986,0.0708 0.07898,0.11038 0.00512,0.009 0,0.0211 0,0.0316 0,0.0105 0,0.0211 0,0.0316 0,0.0316 0,0.0632 0,0.0948 0,0.0105 0,0.0211 0,0.0316 0,0.005 0.00235,0.0111 0,0.0158 -0.00333,0.007 -0.012465,0.009 -0.015796,0.0158 -0.00471,0.009 0.00745,0.0242 0,0.0316 -0.00372,0.004 -0.013441,-0.005 -0.015796,0 -0.00471,0.009 0.00333,0.0216 0,0.0316 -0.00605,0.0181 -0.037712,0.0219 -0.047388,0.0316 -0.00372,0.004 0.00372,0.0121 0,0.0158 -0.00372,0.004 -0.011086,-0.002 -0.015796,0 -0.052389,0.0524 0.014893,-0.007 -0.031592,0.0158 -0.00666,0.003 -0.00914,0.0125 -0.015796,0.0158 -0.00471,0.002 -0.011086,-0.002 -0.015796,0 -0.065739,0.0329 0.016886,-10e-4 -0.015796,0.0316 -0.0079,0.008 -0.03949,-0.008 -0.047388,0 -0.00372,0.004 0.00372,0.0121 0,0.0158 -0.00685,0.007 -0.081466,-0.007 -0.094776,0 -0.00666,0.003 -0.00914,0.0125 -0.015796,0.0158 -0.00761,0.004 -0.05226,0 -0.063184,0 -0.047388,0 -0.094776,0 -0.1421643,0 -0.042123,0 -0.084245,0 -0.1263682,0 -0.010986,0 -0.073268,0.003 -0.07898,0 -0.00666,-0.003 -0.01053,-0.0105 -0.015796,-0.0158"
       id="path5082"
       inkscape:connector-curvature="0" />
    <path
       style="fill:none;fill-opacity:1;stroke:#000000;stroke-width:0.13229166;stroke-miterlimit:4;stroke-dasharray:none"
       d="m 6.1130592,291.53475 c 0.021061,0.0263 0.044484,0.0508 0.063185,0.0788 0.00292,0.004 -0.00372,0.0121 0,0.0158 0.00833,0.008 0.021796,0.009 0.031592,0.0158 0.00657,0.004 0.060359,0.0575 0.063184,0.0632 0,0.0421 -0.00527,-0.005 0.015796,0.0158 0.00372,0.004 -0.00471,0.0134 0,0.0158 0.00942,0.005 0.022172,-0.005 0.031592,0 0.00471,0.002 -0.00235,0.0111 0,0.0158 0.00948,0.019 0.037911,0.0284 0.047388,0.0474 0.00235,0.005 -0.00372,0.0121 0,0.0158 0.00372,0.004 0.011086,-0.002 0.015796,0 0.013322,0.007 0.019201,0.0233 0.031592,0.0316 0.00979,0.007 0.021061,0.0105 0.031592,0.0158 0.01053,0.005 0.020423,0.0121 0.031592,0.0158 0.005,0.002 0.010689,-0.001 0.015796,0 0.016153,0.004 0.031235,0.0118 0.047388,0.0158 0.014256,0.004 0.052923,-0.005 0.063184,0 0.00666,0.003 0.00914,0.0125 0.015796,0.0158 0.00788,0.004 0.1262179,0 0.1421644,0 0.042123,0 0.084245,0 0.1263681,0 0.00527,0 0.012073,0.004 0.015796,0 0.00372,-0.004 -0.00372,-0.0121 0,-0.0158 0.00745,-0.007 0.024146,0.007 0.031592,0 0.00372,-0.004 -0.00235,-0.0111 0,-0.0158 0.00333,-0.007 0.012467,-0.009 0.015796,-0.0158 0.00235,-0.005 -0.00372,-0.0121 0,-0.0158 0.00372,-0.004 0.013441,0.005 0.015796,0 0.00471,-0.009 -0.00584,-0.0228 0,-0.0316 0.00653,-0.01 0.025061,-0.006 0.031592,-0.0158 0.00584,-0.009 -0.00471,-0.0222 0,-0.0316 0.00235,-0.005 0.012073,0.004 0.015796,0 0.00567,-0.006 -0.00511,-0.053 0,-0.0632 0.00235,-0.005 0.012073,0.004 0.015796,0 1.51e-5,-2e-5 -2.38e-5,-0.0473 0,-0.0474 0.00235,-0.007 0.012467,-0.009 0.015796,-0.0158 0.00241,-0.005 0,-0.0403 0,-0.0474 0,-0.0421 0,-0.0842 0,-0.12637"
       id="path5084"
       inkscape:connector-curvature="0" />
    <path
       style="fill:none;fill-opacity:1;stroke:#000000;stroke-width:0.13229166;stroke-miterlimit:4;stroke-dasharray:none"
       d="m 7.0450246,291.47138 c -0.031592,-0.0474 -0.064591,-0.0939 -0.094776,-0.14215 -0.021561,-0.0345 0.022664,0.0286 0.031592,0.0316 0.00999,0.003 0.022172,-0.005 0.031592,0 0.00471,0.002 -0.00235,0.0111 0,0.0158 0.017462,0.0349 0.0098,0.005 0.031592,0.0158 0.00666,0.003 0.0096,0.0117 0.015796,0.0158 0.00979,0.007 0.021061,0.0105 0.031592,0.0158 0.01053,0.005 0.020169,0.0129 0.031592,0.0158 0.015325,0.004 0.031592,0 0.047388,0 0.052653,0 0.1053068,0 0.1579602,0 0.015994,0 0.102076,0.004 0.110572,0 0.00666,-0.003 0.00914,-0.0125 0.015796,-0.0158 0.00471,-0.002 0.011086,0.002 0.015796,0 0.00666,-0.003 0.01053,-0.0105 0.015796,-0.0158 0.00527,-0.005 0.012467,-0.009 0.015796,-0.0158 0.00235,-0.005 -0.00235,-0.0111 0,-0.0158 0.00333,-0.007 0.012467,-0.009 0.015796,-0.0158 0.00235,-0.005 -0.00372,-0.0121 0,-0.0158 0.032683,-0.0327 -0.00127,0.0499 0.031592,-0.0158 0.00844,-0.0169 -0.00844,-0.0147 0,-0.0316 0.00666,-0.0133 0.024932,-0.0183 0.031592,-0.0316 0.00428,-0.009 -0.00432,-0.0589 0,-0.0632 0.00372,-0.004 0.012073,0.004 0.015796,0 0.00372,-0.004 0,-0.0105 0,-0.0158 0,-0.0316 0,-0.0632 0,-0.0948 0,-0.005 0.00235,-0.0111 0,-0.0158 -0.00333,-0.007 -0.012467,-0.009 -0.015796,-0.0158 -0.00471,-0.009 0.00471,-0.0222 0,-0.0316 -0.00333,-0.007 -0.012465,-0.009 -0.015796,-0.0158 -0.00235,-0.005 0.00372,-0.0121 0,-0.0158 -0.00833,-0.008 -0.023267,-0.007 -0.031592,-0.0158 -0.00372,-0.004 0.00372,-0.0121 0,-0.0158 -0.00372,-0.004 -0.012073,0.004 -0.015796,0 -0.038009,-0.038 0.00786,-0.0316 -0.047388,-0.0316"
       id="path5086"
       inkscape:connector-curvature="0" />
    <path
       style="fill:none;fill-opacity:1;stroke:#000000;stroke-width:0.13229166;stroke-miterlimit:4;stroke-dasharray:none"
       d="m 7.2661692,290.2393 c 0.068449,0 0.1368988,0 0.2053481,0 0.00711,0 0.042581,-0.002 0.047388,0 0.00666,0.003 0.00873,0.0134 0.015796,0.0158 0.00999,0.003 0.021376,-0.003 0.031592,0 0.011422,0.003 0.020169,0.0129 0.031592,0.0158 5.291e-4,1.3e-4 0.047304,-8e-5 0.047388,0 0.00372,0.004 -0.00372,0.0121 0,0.0158 0.061648,0.0616 0.00848,-0.004 0.047388,0.0158 0.013322,0.007 0.019201,0.0233 0.031592,0.0316 0.01443,0.01 0.038334,0.0135 0.047388,0.0316 0.00235,0.005 -0.00235,0.0111 0,0.0158 0.03287,0.0657 -0.00108,-0.0169 0.031592,0.0158 0.0073,0.007 -0.00477,0.0378 0,0.0474 0.00333,0.007 0.012467,0.009 0.015796,0.0158 0.00235,0.005 -0.00235,0.0111 0,0.0158 0.00333,0.007 0.012467,0.009 0.015796,0.0158 0.00235,0.005 -0.00235,0.0111 0,0.0158 0.00666,0.0133 0.024932,0.0183 0.031592,0.0316 0.00235,0.005 -0.00372,0.0121 0,0.0158 0.00372,0.004 0.012073,-0.004 0.015796,0 0.00372,0.004 0,0.0105 0,0.0158 0,0.005 0,0.0105 0,0.0158 0,0.0527 0,0.10531 0,0.15796 0,0.0369 0,0.0737 0,0.11058 0,0.007 0.00241,0.0426 0,0.0474 -0.00666,0.0133 -0.024932,0.0183 -0.031592,0.0316 -0.00235,0.005 0.00372,0.0121 0,0.0158 -0.00418,0.004 -0.040884,0 -0.047388,0 -0.047388,0 -0.094776,0 -0.1421641,0 -0.020587,0 -0.042741,0.002 -0.063184,0 -0.042192,-0.005 -0.084246,-0.0106 -0.1263687,-0.0159"
       id="path5088"
       inkscape:connector-curvature="0" />
    <path
       style="fill:none;fill-opacity:1;stroke:#000000;stroke-width:0.13229166;stroke-miterlimit:4;stroke-dasharray:none"
       d="m 6.523756,289.56007 c 0.094776,0 0.1895523,0 0.2843284,0 0.016841,0 0.066859,-0.004 0.07898,0 0.00706,0.002 0.01053,0.0105 0.015796,0.0158 0.015796,0.005 0.031235,0.0118 0.047388,0.0158 0.083154,0.0208 0.1692177,0.0281 0.2527363,0.0474 0.011472,0.003 0.020169,0.0129 0.031592,0.0158 0.024572,0.006 0.054133,-0.005 0.07898,0 0.1329974,0.0266 4.763e-4,2.4e-4 0.063184,0.0316 0.00471,0.002 0.012073,-0.004 0.015796,0 0.00833,0.008 0.00747,0.0233 0.015796,0.0316 0.00372,0.004 0.011086,-0.002 0.015796,0 0.00666,0.003 0.00914,0.0125 0.015796,0.0158 0.00471,0.002 0.012073,-0.004 0.015796,0 0.00372,0.004 -0.00235,0.0111 0,0.0158 0.00724,0.0145 0.042728,0.0334 0.047388,0.0474 0.00333,0.01 -0.00333,0.0216 0,0.0316 0.00235,0.007 0.013441,0.009 0.015796,0.0158 0.005,0.015 -0.00706,0.0333 0,0.0474 0.00333,0.007 0.012467,0.009 0.015796,0.0158 0.00706,0.0141 -0.00706,0.0333 0,0.0474 0.00235,0.005 0.012073,-0.004 0.015796,0 0.00372,0.004 0,0.0105 0,0.0158 0,0.005 0,0.0105 0,0.0158 0,0.0474 0,0.0948 0,0.14217 0,0.0421 0,0.0842 0,0.12637 0,0.0105 0,0.0211 0,0.0316 0,0.005 0,0.0211 0,0.0158 0,-0.13796 0.014288,-0.0466 -0.2843281,-0.0632"
       id="path5090"
       inkscape:connector-curvature="0" />
    <path
       style="fill:none;fill-opacity:1;stroke:#000000;stroke-width:0.13229166;stroke-miterlimit:4;stroke-dasharray:none"
       d="m 5.7181591,289.76542 c 0,-0.0263 0,-0.0527 0,-0.079 0.00527,0 0.013441,0.005 0.015796,0 0.00471,-0.009 -0.00333,-0.0216 0,-0.0316 0.00235,-0.007 0.012467,-0.009 0.015796,-0.0158 0.00235,-0.005 -0.00372,-0.0121 0,-0.0158 0.00372,-0.004 0.013441,0.005 0.015796,0 0.00471,-0.009 -0.00471,-0.0222 0,-0.0316 0.00235,-0.005 0.012073,0.004 0.015796,0 0.00372,-0.004 -0.00235,-0.0111 0,-0.0158 0.00333,-0.007 0.012467,-0.009 0.015796,-0.0158 0.00471,-0.009 -0.00471,-0.0222 0,-0.0316 0.00361,-0.007 0.05597,-0.0596 0.063184,-0.0632 0.00471,-0.002 0.013441,0.005 0.015796,0 0.00471,-0.009 -0.00471,-0.0222 0,-0.0316 0.00235,-0.005 0.011086,0.002 0.015796,0 0.00666,-0.003 0.00914,-0.0125 0.015796,-0.0158 0.00471,-0.002 0.012073,0.004 0.015796,0 0.00372,-0.004 -0.00372,-0.0121 0,-0.0158 0.00372,-0.004 0.012073,0.004 0.015796,0 0.00372,-0.004 -0.00372,-0.0121 0,-0.0158 0.00833,-0.008 0.021796,-0.009 0.031592,-0.0158 0.0062,-0.004 0.00914,-0.0125 0.015796,-0.0158 0.00566,-0.003 0.1107323,0 0.1263681,0 0.047388,0 0.094776,0 0.1421641,0 0.00538,0 0.054635,-0.003 0.063184,0 0.03746,0.0125 0.035535,0.029 0.063184,0.0474 0.00979,0.007 0.023267,0.007 0.031592,0.0158 0.00372,0.004 -0.00372,0.0121 0,0.0158 0.00372,0.004 0.011086,-0.002 0.015796,0 0.00666,0.003 0.00914,0.0125 0.015796,0.0158 0.00471,0.002 0.012073,-0.004 0.015796,0 0.00372,0.004 -0.00235,0.0111 0,0.0158 0.00333,0.007 0.012467,0.009 0.015796,0.0158 0.00235,0.005 -0.00372,0.0121 0,0.0158 0.00372,0.004 0.011086,-0.002 0.015796,0 0.00666,0.003 0.01053,0.0105 0.015796,0.0158 0.00527,0.005 0.012467,0.009 0.015796,0.0158 0.00471,0.009 -0.00471,0.0222 0,0.0316 0.00333,0.007 0.012467,0.009 0.015796,0.0158 0.00632,0.0126 -0.00632,0.0347 0,0.0474 0.03287,0.0657 -0.00108,-0.0169 0.031592,0.0158 0.0073,0.007 -0.00477,0.0378 0,0.0474 0.00333,0.007 0.012467,0.009 0.015796,0.0158 0.00235,0.005 -0.00235,0.0111 0,0.0158 0.00333,0.007 0.012467,0.009 0.015796,0.0158 0.00235,0.005 0.00527,0.0158 0,0.0158 -0.00527,0 0.00204,-0.0109 0,-0.0158 -0.024462,-0.0587 -0.052645,-0.11584 -0.078972,-0.17376"
       id="path5092"
       inkscape:connector-curvature="0" />
    <path
       style="fill:none;fill-opacity:1;stroke:#000000;stroke-width:0.13229166;stroke-miterlimit:4;stroke-dasharray:none"
       d="m 4.4228855,289.08619 c 0.054092,-0.0165 0.048825,0.0481 0.07898,0.0632 0.00942,0.005 0.024146,-0.007 0.031592,0 0.00372,0.004 -0.00372,0.0121 0,0.0158 0.00372,0.004 0.010689,-10e-4 0.015796,0 0.016153,0.004 0.031235,0.0118 0.047388,0.0158 0.019823,0.005 0.043362,-0.005 0.063184,0 0.038152,0.01 0.046662,0.0419 0.063184,0.0474 0.014986,0.005 0.03326,-0.007 0.047388,0 0.065739,0.0329 -0.016886,-10e-4 0.015796,0.0316 0.00372,0.004 0.012073,-0.004 0.015796,0 0.00372,0.004 -0.00372,0.0121 0,0.0158 0.00372,0.004 0.012073,-0.004 0.015796,0 0.00372,0.004 -0.00235,0.0111 0,0.0158 0.00666,0.0133 0.024932,0.0183 0.031592,0.0316 0.00235,0.005 -0.00235,0.0111 0,0.0158 0.00333,0.007 0.012467,0.009 0.015796,0.0158 0.00241,0.005 0,0.0403 0,0.0474 0,0.0316 0,0.0632 0,0.0948 0,0.0369 0,0.0737 0,0.11057 0,0.005 0.00372,0.0121 0,0.0158 -0.00372,0.004 -0.012073,-0.004 -0.015796,0 -0.00372,0.004 0.00372,0.0121 0,0.0158 -0.00372,0.004 -0.012073,-0.004 -0.015796,0 -0.00372,0.004 0.00372,0.0121 0,0.0158 -0.00372,0.004 -0.012073,-0.004 -0.015796,0 -0.00372,0.004 0.00372,0.0121 0,0.0158 -0.00372,0.004 -0.010531,0 -0.015796,0 -0.01053,0 -0.022172,-0.005 -0.031592,0 -0.00471,0.002 0.00372,0.0121 0,0.0158 -0.00379,0.004 -0.1225812,-0.004 -0.1263682,0 -0.00372,0.004 0.00372,0.0121 0,0.0158 -0.00372,0.004 -0.011086,-0.002 -0.015796,0 -0.00666,0.003 -0.01053,0.0105 -0.015796,0.0158 -0.010531,0 -0.022172,-0.005 -0.031592,0 -0.00471,0.002 0.00372,0.0121 0,0.0158 -0.00372,0.004 -0.011086,-0.002 -0.015796,0 -0.00666,0.003 -0.01053,0.0105 -0.015796,0.0158"
       id="path5094"
       inkscape:connector-curvature="0" />
    <path
       style="fill:none;fill-opacity:1;stroke:#000000;stroke-width:0.13229166;stroke-miterlimit:4;stroke-dasharray:none"
       d="m 4.7703975,289.67076 c 0.047388,0.005 0.094776,0.0105 0.1421646,0.0157 0.00527,0.005 0.00914,0.0125 0.015796,0.0158 0.00471,0.002 0.01053,0 0.015796,0 0.01053,0.005 0.021796,0.009 0.031592,0.0158 0.036146,0.0241 -0.00988,0.0125 0.047388,0.0316 0.005,0.002 0.011086,-0.002 0.015796,0 0.01806,0.009 0.043945,0.0504 0.063184,0.0632 0.00979,0.007 0.023267,0.007 0.031592,0.0158 0.00745,0.007 -0.00745,0.0242 0,0.0316 0.00372,0.004 0.012073,-0.004 0.015796,0 0.0073,0.007 -0.00477,0.0378 0,0.0474 0.00333,0.007 0.012467,0.009 0.015796,0.0158 0.00381,0.008 0,0.0523 0,0.0632 0,0.0316 0,0.0632 0,0.0948 0,0.005 0,0.0105 0,0.0158 0,0.005 -0.005,0.0141 0,0.0158 0.093316,0.0311 0.189552,0.0527 0.2843281,0.079"
       id="path5096"
       inkscape:connector-curvature="0" />
    <path
       style="fill:none;fill-opacity:1;stroke:#000000;stroke-width:0.13229166;stroke-miterlimit:4;stroke-dasharray:none"
       d="m 3.4277363,289.16517 c 0.00257,-0.002 -0.00348,-0.15448 0,-0.15796 0.00833,-0.008 0.023268,-0.007 0.031592,-0.0158 0.032682,-0.0327 -0.049943,0.001 0.015796,-0.0316 0.00471,-0.002 0.012073,0.004 0.015796,0 0.00833,-0.008 0.00747,-0.0233 0.015796,-0.0316 0.00372,-0.004 0.011086,0.002 0.015796,0 0.048171,-0.0241 -0.02889,-0.0125 0.047388,-0.0316 0.018508,-0.005 0.059871,0 0.07898,0 0.068449,0 0.1368989,0 0.2053482,0 0.036857,0 0.073715,0 0.1105723,0 0.015796,0 0.033259,-0.007 0.047388,0 0.00471,0.002 -0.00372,0.0121 0,0.0158 0.00745,0.007 0.022172,-0.005 0.031592,0 0.00666,0.003 0.00914,0.0125 0.015796,0.0158 0.00954,0.005 0.040086,-0.007 0.047388,0 0.00372,0.004 -0.00372,0.0121 0,0.0158 0.00372,0.004 0.011086,-0.002 0.015796,0 0.00666,0.003 0.00914,0.0125 0.015796,0.0158 0.00942,0.005 0.024146,-0.007 0.031592,0 0.00372,0.004 -0.00372,0.0121 0,0.0158 0.00372,0.004 0.012073,-0.004 0.015796,0 0.00372,0.004 -0.00372,0.0121 0,0.0158 0.00372,0.004 0.011086,-0.002 0.015796,0 0.018661,0.009 0.029962,0.0358 0.047388,0.0474 0.0098,0.007 0.023267,0.007 0.031592,0.0158 0.00372,0.004 -0.00372,0.0121 0,0.0158 0.00372,0.004 0.012073,-0.004 0.015796,0 0.00745,0.007 -0.00471,0.0222 0,0.0316 0.014541,0.0291 0.032848,0.003 0.047388,0.0316 0.00471,0.009 -0.00745,0.0241 0,0.0316 0.010515,0.0105 0.021079,-0.0105 0.031592,0 0.00372,0.004 -0.00372,0.0121 0,0.0158 0.00372,0.004 0.013441,-0.005 0.015796,0 0.00288,0.006 -0.00307,0.0759 0,0.079 0.032682,0.0327 -0.00127,-0.05 0.031592,0.0158 0.00471,0.009 -0.00647,0.0399 0,0.0316 0.039459,-0.0507 0.073715,-0.1053 0.110572,-0.15795"
       id="path5098"
       inkscape:connector-curvature="0" />
    <path
       style="fill:none;fill-opacity:1;stroke:#000000;stroke-width:0.13229166;stroke-miterlimit:4;stroke-dasharray:none"
       d="m 0.88457758,290.38149 c -0.005265,-0.0737 -0.006029,-0.14791 -0.0157965,-0.22117 -0.001003,-0.008 -0.0571484,-0.0511 -0.0631841,-0.0632 -0.002355,-0.005 0.002355,-0.0111 0,-0.0158 -0.00333,-0.007 -0.0124658,-0.009 -0.0157962,-0.0158 -0.004709,-0.009 0.007446,-0.0241 0,-0.0316 -0.008325,-0.008 -0.0250611,-0.006 -0.031592,-0.0158 -0.031592,-0.0474 0.0157959,-0.0158 0,-0.0474 -0.00333,-0.007 -0.0134414,-0.009 -0.0157962,-0.0158 -0.00333,-0.01 0.00471,-0.0222 0,-0.0316 -0.002355,-0.005 -0.0120729,0.004 -0.0157959,0 -0.0302192,-0.0302 -0.006284,-0.0442 -0.0157962,-0.0632 -0.00666,-0.0133 -0.024932,-0.0183 -0.031592,-0.0316 -0.003569,-0.007 0,-0.0812 0,-0.0948 0,-0.007 -7.1702e-4,-0.0783 0,-0.079 0.003723,-0.004 0.0120729,0.004 0.0157962,0 0.0192392,-0.0192 0.007399,-0.0353 0.031592,-0.0474 0.00471,-0.002 0.0120729,0.004 0.0157959,0 0.003723,-0.004 -0.003723,-0.0121 0,-0.0158 0.0326825,-0.0327 -0.001278,0.05 0.031592,-0.0158 0.0108942,-0.0218 -0.0191299,-0.0141 0.0157962,-0.0316 0.009419,-0.005 0.0241459,0.007 0.031592,0 0.003723,-0.004 -0.003723,-0.0121 0,-0.0158 0.004322,-0.004 0.0546149,0.004 0.0631841,0 0.00666,-0.003 0.009136,-0.0125 0.0157962,-0.0158 0.0126368,-0.006 0.0347513,0.006 0.0473881,0 0.00666,-0.003 0.009136,-0.0125 0.0157959,-0.0158 0.008496,-0.004 0.0945789,0 0.11057212,0"
       id="path5100"
       inkscape:connector-curvature="0" />
    <path
       style="fill:none;fill-opacity:1;stroke:#000000;stroke-width:0.13229166;stroke-miterlimit:4;stroke-dasharray:none"
       d="m 1.0741292,289.49672 c 0.047388,0.058 0.098151,0.11335 0.1421643,0.17392 0.0031,0.004 -0.012073,0.004 -0.015796,0 -0.00372,-0.004 0.00372,-0.0121 0,-0.0158 -0.00372,-0.004 -0.012073,0.004 -0.015796,0 -0.00664,-0.007 0.00645,-0.0661 0,-0.079 -0.00333,-0.007 -0.012466,-0.009 -0.015796,-0.0158 -0.00177,-0.004 0,-0.0594 0,-0.0632 0,-0.0421 0,-0.0842 0,-0.12637 0,-0.0369 0,-0.0737 0,-0.11057 0,-0.0158 -0.00706,-0.0333 0,-0.0474 0.00235,-0.005 0.012073,0.004 0.015796,0 0.032682,-0.0327 -0.049943,0.001 0.015796,-0.0316 0.00942,-0.005 0.026883,0.009 0.031592,0 0.00471,-0.009 -0.00471,-0.0222 0,-0.0316 0.00235,-0.005 0.011087,0.002 0.015796,0 0.00666,-0.003 0.00914,-0.0125 0.015796,-0.0158 0.00471,-0.002 0.012073,0.004 0.015796,0 0.00372,-0.004 -0.00471,-0.0134 0,-0.0158 0.014128,-0.007 0.031592,0 0.047388,0 0.047388,0 0.094776,0 0.1421642,0 0.019214,0 0.082112,0.004 0.094776,0 0.011169,-0.004 0.020423,-0.0121 0.031592,-0.0158 0.013551,-0.005 0.1197442,0 0.1421642,0 0.010626,0 0.1029365,-0.004 0.1105721,0 0.00666,0.003 0.00914,0.0125 0.015796,0.0158 0.01987,0.01 0.031592,-0.0227 0.031592,0.0158"
       id="path5102"
       inkscape:connector-curvature="0" />
    <path
       style="fill:none;fill-opacity:1;stroke:#000000;stroke-width:0.13229166;stroke-miterlimit:4;stroke-dasharray:none"
       d="m 1.9429104,289.4495 c 0,-0.0632 0,-0.12637 0,-0.18955 0,-0.0316 0,-0.0632 0,-0.0948 0,-0.0105 -0.00471,-0.0222 0,-0.0316 0.00333,-0.007 0.012466,-0.009 0.015796,-0.0158 0.00841,-0.0168 -0.00841,-0.0148 0,-0.0316 0.00361,-0.007 0.05597,-0.0596 0.063184,-0.0632 0.00471,-0.002 0.012073,0.004 0.015796,0 0.00372,-0.004 -0.00235,-0.0111 0,-0.0158 0.00361,-0.007 0.05597,-0.0596 0.063184,-0.0632 0.00471,-0.002 0.011087,0.002 0.015796,0 0.00666,-0.003 0.00914,-0.0125 0.015796,-0.0158 0.00471,-0.002 0.011087,0.002 0.015796,0 0.00666,-0.003 0.00914,-0.0125 0.015796,-0.0158 0.00942,-0.005 0.024146,0.007 0.031592,0 0.00372,-0.004 -0.00372,-0.0121 0,-0.0158 0.00372,-0.004 0.010531,0 0.015796,0 0.00527,0 0.010531,0 0.015796,0 0.047388,0 0.094776,0 0.1421642,0 0.031592,0 0.063184,0 0.094776,0 0.00711,0 0.042581,-0.002 0.047388,0 0.065739,0.0329 -0.016887,-10e-4 0.015796,0.0316 0.00745,0.007 0.022173,-0.005 0.031592,0 0.00666,0.003 0.010531,0.0105 0.015796,0.0158 0.00527,0.005 0.00914,0.0125 0.015796,0.0158 0.00471,0.002 0.011087,-0.002 0.015796,0 0.00666,0.003 0.00914,0.0125 0.015796,0.0158 0.00954,0.005 0.040086,-0.007 0.047388,0 0.00372,0.004 -0.00372,0.0121 0,0.0158 0.00372,0.004 0.0108,-0.002 0.015796,0 0.1144172,0.0381 -0.024905,-0.005 0.047388,0.0316 0.00471,0.002 0.012073,-0.004 0.015796,0 0.00372,0.004 -0.00235,0.0111 0,0.0158 0.00333,0.007 0.012465,0.009 0.015796,0.0158 0.00235,0.005 -0.00372,0.0121 0,0.0158 0.00372,0.004 0.012073,-0.004 0.015796,0 0.00745,0.007 -0.00745,0.0242 0,0.0316 0.00372,0.004 0.012073,-0.004 0.015796,0 0.00745,0.007 -0.00745,0.0241 0,0.0316 0.00372,0.004 0.012073,-0.004 0.015796,0 0.0079,0.008 -0.0079,0.0395 0,0.0474 0.021061,0.0211 0.015796,-0.0263 0.015796,0.0158"
       id="path5104"
       inkscape:connector-curvature="0" />
    <path
       style="fill:none;fill-opacity:1;stroke:#000000;stroke-width:0.13229166;stroke-miterlimit:4;stroke-dasharray:none"
       d="m 2.7800996,289.51268 c -0.00527,-0.0211 -0.012226,-0.0418 -0.015796,-0.0632 -0.00172,-0.0104 0,-0.0211 0,-0.0316 0,-0.0316 0,-0.0632 0,-0.0948 0,-0.0109 -0.0038,-0.0556 0,-0.0632 0.00333,-0.007 0.012467,-0.009 0.015796,-0.0158 0.00471,-0.009 -0.00745,-0.0241 0,-0.0316 0.00372,-0.004 0.012073,0.004 0.015796,0 0.00745,-0.007 -0.00471,-0.0222 0,-0.0316 0.00333,-0.007 0.012465,-0.009 0.015796,-0.0158 0.00235,-0.005 -0.00235,-0.0111 0,-0.0158 0.00333,-0.007 0.012465,-0.009 0.015796,-0.0158 0.00235,-0.005 -0.00372,-0.0121 0,-0.0158 0.00372,-0.004 0.012073,0.004 0.015796,0 0.00372,-0.004 -0.00372,-0.0121 0,-0.0158 0.00372,-0.004 0.011086,0.002 0.015796,0 0.00666,-0.003 0.00914,-0.0125 0.015796,-0.0158 0.00942,-0.005 0.024146,0.007 0.031592,0 0.00833,-0.008 0.00927,-0.0218 0.015796,-0.0316 0.00826,-0.0124 0.024932,-0.0183 0.031592,-0.0316 0.00235,-0.005 -0.00372,-0.0121 0,-0.0158 0.00372,-0.004 0.011086,0.002 0.015796,0 0.013319,-0.007 0.021061,-0.0211 0.031592,-0.0316 0.00527,-0.005 0.012465,-0.009 0.015796,-0.0158 0.00235,-0.005 -0.00471,-0.0134 0,-0.0158 0.012462,-0.0141 0.03326,0.007 0.047388,0 0.00666,-0.003 0.00914,-0.0125 0.015796,-0.0158 0.00481,-0.002 0.040274,0 0.047388,0 0.036857,0 0.073714,0 0.110572,0 0.010925,0 0.055572,-0.004 0.063184,0 0.00666,0.003 0.00914,0.0125 0.015796,0.0158 0.00471,0.002 0.012073,-0.004 0.015796,0 0.00745,0.007 -0.00745,0.0241 0,0.0316 0.00372,0.004 0.012073,-0.004 0.015796,0 0.00372,0.004 -0.00372,0.0121 0,0.0158 0.00372,0.004 0.011086,-0.002 0.015796,0 0.00666,0.003 0.00914,0.0125 0.015796,0.0158 0.00471,0.002 0.012073,-0.004 0.015796,0 0.00372,0.004 -0.00372,0.0121 0,0.0158 0.00372,0.004 0.012073,-0.004 0.015796,0 0.00745,0.007 -0.00471,0.0222 0,0.0316 0.017463,0.0349 0.0098,0.005 0.031592,0.0158 0.034926,0.0175 0.0049,0.01 0.015796,0.0316 0.03287,0.0657 -0.00108,-0.0169 0.031592,0.0158 0.00745,0.007 -0.00745,0.0242 0,0.0316 0.00372,0.004 0.012073,-0.004 0.015796,0 0.00372,0.004 -0.00372,0.0121 0,0.0158 0.00372,0.004 0.012073,-0.004 0.015796,0 0.00372,0.004 -0.00372,0.0121 0,0.0158 0.032682,0.0327 -0.00127,-0.05 0.031592,0.0158 0.00235,0.005 -0.00372,0.0121 0,0.0158 0.00372,0.004 0.012073,-0.004 0.015796,0 0.00372,0.004 0.00527,0.0158 0,0.0158 -0.00527,0 0.00481,-0.0137 0,-0.0158 -0.045646,-0.0203 -0.094776,-0.0316 -0.142164,-0.0474"
       id="path5106"
       inkscape:connector-curvature="0" />
    <path
       style="fill:none;fill-opacity:1;stroke:#000000;stroke-width:0.13229166;stroke-miterlimit:4;stroke-dasharray:none"
       d="m 6.0972636,289.29154 c 0,-0.0632 0,-0.12637 0,-0.18955 0,-0.0105 0.00471,-0.0222 0,-0.0316 -0.00948,-0.0189 -0.03791,-0.0284 -0.047388,-0.0474 -0.00471,-0.009 0.00471,-0.0222 0,-0.0316 -0.00333,-0.007 -0.012467,-0.009 -0.015796,-0.0158 -0.00235,-0.005 0.00372,-0.0121 0,-0.0158 -0.00745,-0.007 -0.024146,0.007 -0.031592,0 -0.00745,-0.007 0.00745,-0.0241 0,-0.0316 -0.00372,-0.004 -0.011086,0.002 -0.015796,0 -0.013322,-0.007 -0.018272,-0.0249 -0.031592,-0.0316 -0.00471,-0.002 -0.012073,0.004 -0.015796,0 -0.032682,-0.0327 0.049943,10e-4 -0.015796,-0.0316 -0.00954,-0.005 -0.040086,0.007 -0.047388,0 -0.00372,-0.004 0.00471,-0.0134 0,-0.0158 -0.00942,-0.005 -0.024146,0.007 -0.031592,0 -0.00745,-0.007 0.00471,-0.0222 0,-0.0316 -0.00235,-0.005 -0.011086,0.002 -0.015796,0 -0.00666,-0.003 -0.00914,-0.0125 -0.015796,-0.0158 -0.00942,-0.005 -0.024146,0.007 -0.031592,0 -0.00372,-0.004 0.00372,-0.0121 0,-0.0158 -0.00372,-0.004 -0.012073,0.004 -0.015796,0 -0.00372,-0.004 0.00372,-0.0121 0,-0.0158 -0.00634,-0.006 -0.038454,0.003 -0.047388,0 -0.011171,-0.004 -0.020423,-0.0121 -0.031592,-0.0158 -0.00999,-0.003 -0.024146,0.007 -0.031592,0 -0.00372,-0.004 0.00372,-0.0121 0,-0.0158 -0.00372,-0.004 -0.01053,0 -0.015796,0 -0.00527,0 -0.01053,0 -0.015796,0 -0.036857,0 -0.073715,0 -0.1105721,0 -0.013996,0 -0.053381,-0.005 -0.063184,0 -0.00471,0.002 0.00235,0.0111 0,0.0158 -0.00333,0.007 -0.00914,0.0125 -0.015796,0.0158 -0.00471,0.002 -0.011086,-0.002 -0.015796,0 -0.00666,0.003 -0.01053,0.0105 -0.015796,0.0158 -0.00527,0.005 -0.012465,0.009 -0.015796,0.0158 -0.00235,0.005 0.00372,0.0121 0,0.0158 -0.00372,0.004 -0.012073,-0.004 -0.015796,0 -0.00745,0.007 0.00471,0.0222 0,0.0316 -0.00333,0.007 -0.012467,0.009 -0.015796,0.0158 -0.00357,0.007 0,0.0812 0,0.0948"
       id="path5108"
       inkscape:connector-curvature="0" />
    <path
       style="fill:none;fill-opacity:1;stroke:#000000;stroke-width:0.13229166;stroke-miterlimit:4;stroke-dasharray:none"
       d="m 5.3706474,288.81759 c -0.054255,-0.0325 -0.075562,-0.0315 -0.1263687,-0.0315 -0.00527,0 -0.011086,0.002 -0.015796,0 -0.00666,-0.003 -0.00914,-0.0125 -0.015796,-0.0158 -0.00942,-0.005 -0.022172,0.005 -0.031592,0 -0.00666,-0.003 -0.00873,-0.0134 -0.015796,-0.0158 -0.013943,-0.005 -0.04659,0 -0.063184,0 -0.047388,0 -0.094776,0 -0.1421641,0 -0.014698,0 -0.082319,0.004 -0.094776,0 -0.011171,-0.004 -0.020423,-0.0121 -0.031592,-0.0158 -0.013142,-0.004 -0.046907,0 -0.063184,0 -0.052653,0 -0.1053068,0 -0.1579602,0 -0.015179,0 -0.1043982,-0.003 -0.1105723,0 -0.00471,0.002 0.00372,0.0121 0,0.0158 -0.00372,0.004 -0.012073,-0.004 -0.015796,0 -0.00745,0.007 0.00745,0.0241 0,0.0316 -0.00372,0.004 -0.012073,-0.004 -0.015796,0 -0.00372,0.004 0.00372,0.0121 0,0.0158 -0.00745,0.007 -0.024146,-0.007 -0.031592,0 -0.0038,0.004 0.0038,0.0594 0,0.0632 -0.00372,0.004 -0.012073,-0.004 -0.015796,0 -0.00432,0.004 0.00428,0.0546 0,0.0632 -0.00333,0.007 -0.012467,0.009 -0.015796,0.0158 -0.00241,0.005 0,0.0403 0,0.0474 0,0.007 0.00241,0.0426 0,0.0474 -0.017103,0.0342 -0.015796,-0.006 -0.015796,0.0474 0,0.005 0,0.0105 0,0.0158 0,0.005 -0.00471,0.0181 0,0.0158 0.013322,-0.007 0.021061,-0.0211 0.031592,-0.0316"
       id="path5110"
       inkscape:connector-curvature="0" />
    <path
       style="fill:none;fill-opacity:1;stroke:#000000;stroke-width:0.13229166;stroke-miterlimit:4;stroke-dasharray:none"
       d="m 4.9125621,289.68646 c 0.036857,-0.0263 0.072162,-0.055 0.1105723,-0.079 0.0079,-0.005 0.1057383,0 0.1263681,0 0.1000414,0 0.2000827,0 0.3001243,0 0.015555,0 0.1316294,-0.004 0.1421641,0 0.00706,0.002 0.00914,0.0125 0.015796,0.0158 0.00942,0.005 0.024146,-0.007 0.031592,0 0.00372,0.004 -0.00372,0.0121 0,0.0158 0.00372,0.004 0.012073,-0.004 0.015796,0 0.00372,0.004 -0.00372,0.0121 0,0.0158 0.00372,0.004 0.012073,-0.004 0.015796,0 0.00832,0.008 0.00747,0.0233 0.015796,0.0316 0.00372,0.004 0.012073,-0.004 0.015796,0 0.00372,0.004 -0.00372,0.0121 0,0.0158 0.048484,0.0485 0.013134,-0.009 0.063184,0.0158 0,0.0163 -0.00372,0.0218 0.015796,0.0316 0.00942,0.005 0.024146,-0.007 0.031592,0 0.00372,0.004 -0.00235,0.0111 0,0.0158 0.00333,0.007 0.012467,0.009 0.015796,0.0158 0.00235,0.005 -0.00372,0.0121 0,0.0158 0.00372,0.004 0.012073,-0.004 0.015796,0 0.0079,0.008 -0.0079,0.0395 0,0.0474 0.00372,0.004 0.012073,-0.004 0.015796,0 0.00372,0.004 0,0.0105 0,0.0158 0,0.005 0,0.0105 0,0.0158 0,0.0737 0,0.14743 0,0.22115"
       id="path5116"
       inkscape:connector-curvature="0" />
    <path
       style="fill:none;fill-opacity:1;stroke:#000000;stroke-width:0.13229166;stroke-miterlimit:4;stroke-dasharray:none"
       d="m 5.8603229,290.09721 c 0.031592,-0.0527 0.059562,-0.10771 0.094777,-0.15803 0.00302,-0.004 0.01053,0 0.015796,0 0.021061,0 0.042123,0 0.063184,0 0.042123,0 0.084245,0 0.1263682,0 0.00711,0 0.042581,-0.002 0.047388,0 0.018955,0.009 0.028433,0.0379 0.047388,0.0474 0.00942,0.005 0.024146,-0.007 0.031592,0 0.00372,0.004 -0.00235,0.0111 0,0.0158 0.03287,0.0657 -0.00108,-0.0169 0.031592,0.0158 0.00372,0.004 -0.00372,0.0121 0,0.0158 0.00372,0.004 0.012073,-0.004 0.015796,0 0.00745,0.007 -0.00471,0.0222 0,0.0316 0.00333,0.007 0.012467,0.009 0.015796,0.0158 0.00632,0.0126 -0.00632,0.0347 0,0.0474 0.00666,0.0133 0.024932,0.0183 0.031592,0.0316 0.00568,0.0114 -0.00568,0.0992 0,0.11057 0.00333,0.007 0.012467,0.009 0.015796,0.0158 0.00357,0.007 0,0.0812 0,0.0948 0,0.005 0,0.0105 0,0.0158 0,0.005 0.00527,0.0158 0,0.0158 -0.00527,0 0,-0.0211 0,-0.0158 0,0.0105 0.00471,0.0222 0,0.0316 -0.00471,0.009 -0.022172,-0.005 -0.031592,0 -0.013319,0.007 -0.018272,0.0249 -0.031592,0.0316 -0.00471,0.002 -0.011086,-0.002 -0.015796,0 -0.00666,0.003 -0.0096,0.0117 -0.015796,0.0158 -0.0098,0.007 -0.023268,0.007 -0.031592,0.0158 -0.00372,0.004 0.00372,0.0121 0,0.0158 -1.51e-5,2e-5 -0.047316,-2e-5 -0.047388,0 -0.00706,0.002 -0.01053,0.0105 -0.015796,0.0158 -0.00527,0.005 -0.01053,0.0105 -0.015796,0.0158"
       id="path5118"
       inkscape:connector-curvature="0" />
    <path
       style="fill:none;fill-opacity:1;stroke:#000000;stroke-width:0.13229166;stroke-miterlimit:4;stroke-dasharray:none"
       d="m 6.19204,290.53955 c -0.042123,-0.0211 -0.083082,-0.0447 -0.1263685,-0.0633 -0.00684,-0.003 0.0096,0.0117 0.015796,0.0158 0.00979,0.007 0.021796,0.009 0.031592,0.0158 0.0062,0.004 0.00914,0.0125 0.015796,0.0158 0.00471,0.002 0.012073,-0.004 0.015796,0 0.00372,0.004 -0.00499,0.0141 0,0.0158 0.014973,0.005 0.038626,-0.013 0.047388,1.3e-4 0.017743,0.0266 0.00567,0.0643 0.015796,0.0947 0.00167,0.005 0.011086,-0.002 0.015796,0 0.065739,0.0329 -0.016886,-10e-4 0.015796,0.0316 0.00372,0.004 0.012073,-0.004 0.015796,0 0.0079,0.008 -0.0079,0.0395 0,0.0474 0.00372,0.004 0.012073,-0.004 0.015796,0 0.00745,0.007 -0.00471,0.0222 0,0.0316 0.00333,0.007 0.012467,0.009 0.015796,0.0158 0.00286,0.006 0,0.068 0,0.079 0,0.006 6.35e-4,0.0626 0,0.0632 -0.00372,0.004 -0.012073,-0.004 -0.015796,0 -0.0079,0.008 0.0079,0.0395 0,0.0474 -0.00372,0.004 -0.012073,-0.004 -0.015796,0 -0.00372,0.004 0.00372,0.0121 0,0.0158 -0.00372,0.004 -0.012073,-0.004 -0.015796,0 -0.00745,0.007 0.00745,0.0241 0,0.0316 -0.00372,0.004 -0.011086,-0.002 -0.015796,0 -0.018955,0.009 -0.028433,0.0379 -0.047388,0.0474 -0.00471,0.002 -0.010531,0 -0.015796,0 -0.00527,0.005 -0.00914,0.0125 -0.015796,0.0158 -0.00471,0.002 -0.012073,-0.004 -0.015796,0 -0.00372,0.004 0.00372,0.0121 0,0.0158 -0.0079,0.008 -0.03949,-0.008 -0.047388,0 -0.00372,0.004 0.00235,0.0111 0,0.0158 -0.017462,0.0349 -0.0098,0.005 -0.031592,0.0158 -0.00666,0.003 -0.00914,0.0125 -0.015796,0.0158 -0.00471,0.002 -0.013182,0.005 -0.015796,0 -0.019894,-0.0348 -0.031592,-0.0737 -0.047389,-0.11053"
       id="path5120"
       inkscape:connector-curvature="0" />
    <path
       style="fill:#000000;fill-opacity:1;stroke:#000000;stroke-width:0.02985075;stroke-miterlimit:4;stroke-dasharray:none"
       d="m 12.220896,15.374406 c -0.403045,-0.09002 -0.86028,-0.388844 -1.298508,-0.848635 -0.254478,-0.267 -0.462687,-0.503541 -0.462687,-0.525646 0,-0.0221 -0.05615,-0.09996 -0.124768,-0.173001 -0.122594,-0.130495 -0.122791,-0.134788 -0.0113,-0.246279 0.203557,-0.203557 0.315157,-0.398578 0.316073,-0.552338 4.78e-4,-0.08299 0.03961,-0.258358 0.08693,-0.389701 0.04732,-0.131343 0.08721,-0.339552 0.08865,-0.462687 l 0.0026,-0.22388 h -0.271274 c -0.182862,0 -0.267824,0.02432 -0.260689,0.07463 0.01667,0.117548 -0.07503,0.461804 -0.132464,0.497303 -0.02859,0.01767 -0.05199,0.12161 -0.05199,0.230971 0,0.14259 -0.05843,0.264038 -0.2065443,0.429313 -0.1135988,0.12676 -0.2546436,0.324502 -0.3134329,0.439428 -0.058789,0.114925 -0.1276036,0.218099 -0.1529212,0.229274 -0.025318,0.01118 -0.083106,0.09177 -0.1284185,0.179105 -0.047011,0.0906 -0.2220692,0.229281 -0.4076943,0.322964 -0.309314,0.156107 -0.3669558,0.164179 -1.1724669,0.164179 -0.7153048,0 -0.8816351,-0.01768 -1.0686619,-0.113593 -0.2905556,-0.149006 -0.4575117,-0.335738 -0.5833677,-0.65247 -0.1419503,-0.357236 -0.078596,-1.752324 0.09709,-2.13798 0.1543433,-0.338804 0.1459559,-0.419038 -0.048658,-0.465454 -0.090299,-0.02154 -0.211194,-0.05313 -0.2686567,-0.0702 -0.068684,-0.02041 -0.1044776,0.0015 -0.1044776,0.06381 0,0.05216 -0.1425653,0.242033 -0.3168118,0.421933 l -0.3168117,0.32709 H 4.7212676 c -0.2716786,0 -0.4659315,-0.03746 -0.6464217,-0.124666 -0.2898363,-0.140033 -1.3763384,-1.194837 -1.3763384,-1.336184 0,-0.05026 -0.040963,-0.09139 -0.09103,-0.09139 -0.050067,0 -0.1174147,-0.07388 -0.1496627,-0.16418 C 2.4255668,10.085821 2.3590676,9.940631 2.3100388,9.8534751 2.26101,9.7663192 2.2208955,9.547583 2.2208955,9.3673947 c 0,-0.3051947 0.018764,-0.3484855 0.2741892,-0.6325795 0.1508041,-0.1677305 0.3090219,-0.3049645 0.351595,-0.3049645 0.042573,0 0.1336255,-0.047015 0.2023384,-0.1044776 C 3.1501121,8.2408312 3.1778875,8.1385604 3.1945819,7.7893985 3.2147811,7.3669316 3.219857,7.35475 3.4371234,7.207309 3.5591742,7.124483 3.6878762,7.0567164 3.723128,7.0567164 c 0.035252,0 0.1597167,-0.083958 0.2765888,-0.1865729 C 4.3077521,6.5996851 4.5483634,6.519403 5.0509124,6.519403 c 0.6175647,0 0.7106249,0.046946 0.8738884,0.4408485 0.1336451,0.3224428 0.2566606,0.4473761 0.3275569,0.3326635 0.019407,-0.031402 0.103253,-0.057094 0.1863236,-0.057094 0.1417016,0 0.1489951,-0.014602 0.1179959,-0.2362273 C 6.5385043,6.8696686 6.4958176,6.7084746 6.4618178,6.6413847 6.427818,6.5742947 6.3731343,6.4660362 6.3402985,6.4008101 6.3074627,6.335584 6.280597,6.2325285 6.280597,6.1717978 c 0,-0.1375848 0.4481069,-0.5479172 0.5983576,-0.5479172 0.061057,0 0.1257019,-0.023766 0.1436544,-0.052814 0.017952,-0.029048 0.1617434,-0.050866 0.3195355,-0.048486 0.157792,0.00238 0.4094729,-0.029992 0.5592907,-0.071938 0.3923481,-0.1098506 1.5757284,-0.06759 1.8119976,0.06471 0.098508,0.05516 0.2597015,0.1392777 0.3582092,0.186929 0.286353,0.1385184 1.061396,0.9412777 1.208179,1.251385 0.135243,0.2857248 0.200392,0.3190251 0.478388,0.2445249 0.195613,-0.052422 0.171823,-0.2393491 -0.104478,-0.8209133 -0.131343,-0.2764544 -0.238806,-0.5266777 -0.238806,-0.5560519 0,-0.029374 0.136904,-0.1578118 0.304231,-0.2854171 0.267327,-0.2038658 0.318865,-0.2228704 0.424871,-0.1566688 0.06635,0.041437 0.231687,0.084711 0.367411,0.096164 0.420561,0.035488 1.172144,0.4925532 1.172144,0.7128239 0,0.084521 0.65333,0.6894835 0.744608,0.6894835 0.05404,0 0.08166,-0.026866 0.06136,-0.059702 -0.02196,-0.035529 0.04913,-0.059701 0.175581,-0.059701 0.171254,0 0.212479,-0.02271 0.212479,-0.1170492 0,-0.064377 -0.04337,-0.1516905 -0.09638,-0.1940298 C 14.72822,6.4047908 14.590648,6.279004 14.475508,6.1676044 14.294417,5.992396 14.279392,5.9576561 14.364186,5.9102031 c 0.120476,-0.067422 0.299024,-0.1083148 0.573121,-0.1312622 0.114926,-0.00962 0.339749,-0.038541 0.499608,-0.064265 0.316293,-0.050898 0.89533,0.050857 1.054708,0.1853442 0.0504,0.042525 0.220006,0.089312 0.376913,0.10397 0.239383,0.022363 0.318103,0.06357 0.489251,0.2561066 0.245464,0.2761391 0.504894,0.7909337 0.504894,1.0018781 0,0.1413776 0.02024,0.1529508 0.267519,0.1529508 0.23051,0 0.272359,-0.019282 0.302501,-0.139381 0.01929,-0.076845 -0.02019,-0.2963671 -0.08799,-0.4892734 -0.09527,-0.2710539 -0.106257,-0.360511 -0.04877,-0.3970183 0.129251,-0.082082 1.483682,-0.053659 1.835401,0.038515 0.257124,0.067384 0.377262,0.1417024 0.553782,0.342575 0.360036,0.4097069 0.512512,0.7107248 0.52761,1.041607 0.01697,0.3719093 -0.01389,0.4208749 -0.356626,0.5658477 -0.268026,0.113372 -0.426258,0.2514334 -0.426258,0.3719213 0,0.032033 0.01829,0.039954 0.04064,0.017604 0.02235,-0.02235 0.111731,0.027475 0.198622,0.1107235 0.155278,0.1487654 0.162002,0.1497013 0.3922,0.054592 0.128817,-0.053223 0.277008,-0.1347373 0.329315,-0.1811437 0.08424,-0.074738 0.13829,-0.034849 0.473217,0.3492289 0.207963,0.2384825 0.409765,0.4605732 0.448449,0.4935351 0.03868,0.032962 0.08898,0.1186905 0.111778,0.190508 0.02279,0.071818 0.20133,0.2762813 0.396747,0.4543643 0.339754,0.309615 0.42542,0.468697 0.295602,0.548929 -0.03284,0.02029 -0.06028,0.08233 -0.06098,0.137851 -0.0012,0.09424 -0.404035,0.429313 -0.516141,0.429313 -0.02782,0 -0.130986,-0.08749 -0.229266,-0.194424 -0.190139,-0.206879 -0.582501,-0.462293 -0.710165,-0.462293 -0.126158,0 -0.285537,0.219103 -0.264369,0.363435 0.01179,0.08041 0.103738,0.180456 0.228678,0.248837 0.222296,0.121663 0.36538,0.260933 0.58209,0.566574 0.102835,0.145037 0.133883,0.270503 0.13243,0.535155 -0.0022,0.396482 -0.04624,0.471143 -0.416012,0.704955 -0.25453,0.16094 -0.312165,0.171286 -1.096051,0.196752 l -0.827395,0.02688 0.0145,-0.470547 c 0.02252,-0.730885 0.0075,-0.849577 -0.12396,-0.981063 -0.124655,-0.124656 -0.338076,-0.113734 -0.424961,0.02175 -0.02197,0.03427 -0.02623,0.400048 -0.0095,0.812849 0.02645,0.651113 0.01411,0.800512 -0.09318,1.127706 -0.06802,0.207439 -0.173565,0.44923 -0.234552,0.537314 -0.06099,0.08808 -0.126598,0.20391 -0.145801,0.257392 -0.0192,0.05348 -0.218351,0.187809 -0.442551,0.298507 -0.403382,0.199168 -0.415914,0.201215 -1.200831,0.196134 -0.517255,-0.0033 -0.817369,-0.02931 -0.862686,-0.07463 -0.03822,-0.03822 -0.120756,-0.06949 -0.183412,-0.06949 -0.06266,0 -0.309596,-0.130876 -0.548756,-0.290836 l -0.434835,-0.290836 0.277113,-0.276994 0.277114,-0.276995 0.01986,-1.04411 0.01986,-1.04411 h -0.26823 -0.26823 l -0.02028,0.910448 -0.02028,0.910448 -0.298508,0.278798 c -0.29783,0.278166 -0.831074,0.807903 -1.296896,1.288366 l -0.245999,0.253731 -0.541985,-0.0069 c -0.298092,-0.0038 -0.595717,-0.01893 -0.661388,-0.03359 z"
       id="path5182"
       inkscape:connector-curvature="0"
       transform="matrix(0.26458333,0,0,0.26458333,0,288.53333)" />
    <path
       style="fill:#000000;fill-opacity:1;stroke:#000000;stroke-width:0.02985075;stroke-miterlimit:4;stroke-dasharray:none"
       d="M 3.5693727,6.1977325 C 3.5488139,6.0881448 3.4825176,5.9537075 3.4220476,5.8989829 3.3615776,5.8442582 3.2483889,5.6390774 3.1705172,5.4430254 3.0926456,5.2469734 3.0083181,5.0865672 2.9831229,5.0865672 c -0.025195,0 -0.04581,-0.052146 -0.04581,-0.1158796 0,-0.063734 -0.026866,-0.1324835 -0.059702,-0.1527772 -0.032836,-0.020294 -0.059701,-0.1152574 -0.059701,-0.2110308 0,-0.249002 0.3398714,-0.5409951 0.7479872,-0.642617 l 0.3209935,-0.079928 0.1801776,0.1981313 c 0.099098,0.1089722 0.180965,0.2310235 0.1819275,0.271225 0.00242,0.1010522 0.3206173,0.2567751 0.4107979,0.2010404 0.1266895,-0.078298 0.1708079,-0.3732853 0.089733,-0.599979 -0.041596,-0.1163077 -0.076809,-0.428084 -0.07825,-0.6928362 -0.00247,-0.4543333 0.00706,-0.4906431 0.1697643,-0.6465228 0.1591173,-0.152444 0.206215,-0.1643588 0.6119403,-0.154808 0.2417555,0.00569 0.6048016,-0.0091 0.8067691,-0.032874 0.2019674,-0.023772 0.4639077,-0.025081 0.5820895,-0.00291 l 0.214876,0.040311 V 2.9698694 3.4746269 H 7.3253731 7.5940299 V 2.9061288 2.3376307 L 7.8440011,2.0664439 C 8.1546879,1.7293886 8.400236,1.6238806 8.8739767,1.6238806 c 0.2892651,0 0.442563,0.037191 0.7036245,0.1707025 0.1835803,0.093886 0.3893421,0.1852318 0.4572498,0.2029899 0.197943,0.051763 0.279285,0.2990122 0.188684,0.5735331 -0.07671,0.2324297 -0.06937,1.0954986 0.01,1.1748592 0.02231,0.022312 0.142777,0.01616 0.2677,-0.013671 l 0.227131,-0.054239 -0.02029,-0.4152004 c -0.0171,-0.3498809 -6.63e-4,-0.4401542 0.104478,-0.5738172 0.06862,-0.087239 0.124767,-0.1870161 0.124767,-0.2217264 0,-0.03471 0.04816,-0.088884 0.107023,-0.120386 0.05886,-0.031502 0.229954,-0.1802085 0.380204,-0.3304588 0.25377,-0.2537708 0.295046,-0.2731823 0.580886,-0.2731823 0.293225,0 0.321696,0.01467 0.605054,0.311753 0.212669,0.2229706 0.293047,0.3527514 0.282241,0.4557162 -0.0131,0.124857 0.02736,0.1585674 0.304878,0.2540036 0.329902,0.1134496 0.496744,0.0877 0.563787,-0.087013 0.04143,-0.1079701 -0.09911,-0.3777262 -0.288013,-0.5527911 -0.18278,-0.1693946 -0.185352,-0.2418171 -0.01367,-0.3850382 0.204607,-0.1706895 1.342007,-0.1650942 1.80702,0.00889 0.424896,0.1589741 1.103428,0.8170787 1.103428,1.0702092 0,0.053618 0.06366,0.1572927 0.141468,0.2303885 0.186213,0.1749389 0.383966,0.1245495 0.568582,-0.144881 0.154992,-0.2261954 0.407686,-0.2803245 0.543682,-0.1164606 0.04088,0.049254 0.106647,0.089552 0.146157,0.089552 0.03951,0 0.130249,0.062179 0.201645,0.1381762 0.108257,0.1152349 0.12981,0.2089518 0.12981,0.5644589 v 0.4262828 l -0.223881,0.037583 c -0.515668,0.086566 -0.850746,0.24824 -0.850746,0.4104804 0,0.036266 0.05477,0.1001451 0.121719,0.1419534 0.06695,0.041808 0.105659,0.1020021 0.08603,0.133764 -0.05203,0.084191 0.155556,0.069932 0.333452,-0.022904 0.214246,-0.1118051 0.826616,-0.1186735 1.011038,-0.01134 0.08209,0.047776 0.202986,0.1118014 0.268657,0.1422788 0.234192,0.1086855 0.34785,0.3014591 0.375692,0.637206 l 0.02715,0.327433 h -0.627045 c -0.545845,0 -0.670225,-0.019769 -0.960508,-0.1526651 -0.183412,-0.083966 -0.435166,-0.1682909 -0.55946,-0.1873889 -0.124294,-0.019098 -0.252855,-0.055559 -0.285691,-0.081023 -0.03284,-0.025465 -0.257564,-0.094045 -0.499397,-0.1524005 -0.391456,-0.09446 -0.523416,-0.098514 -1.202782,-0.036946 -0.452749,0.04103 -0.847634,0.1094728 -0.970982,0.1682933 L 13.936853,5.4599931 13.425848,5.1837279 C 13.079251,4.9963467 12.841626,4.906782 12.687272,4.9053472 c -0.125163,-0.00116 -0.294735,-0.04051 -0.376824,-0.087437 -0.222031,-0.1269244 -0.557904,-0.1123213 -0.686567,0.029851 -0.05943,0.065672 -0.13925,0.119403 -0.177373,0.119403 -0.03812,0 -0.148346,0.087313 -0.244941,0.1940298 C 10.872236,5.5250334 10.84187,5.5363147 10.624021,5.3757618 10.517227,5.2970555 10.268657,5.1527737 10.071642,5.0551357 9.7282125,4.8849365 9.6752519,4.8768097 8.7880597,4.858167 8.2791045,4.8474724 7.7686567,4.8651914 7.6537313,4.8975427 7.538806,4.929894 7.246774,4.9861269 7.0047715,5.0225045 6.5852603,5.0855652 6.3732992,5.1848967 6.0753098,5.4580789 6.0116555,5.516434 5.9431719,5.5641791 5.923124,5.5641791 c -0.020048,0 -0.069334,0.090936 -0.1095239,0.2020803 L 5.7405269,5.9683398 4.9508604,5.991623 C 4.1768307,6.0144451 4.1557046,6.0186891 3.8839732,6.2059445 L 3.6067523,6.3969829 Z"
       id="path5184"
       inkscape:connector-curvature="0"
       transform="matrix(0.26458333,0,0,0.26458333,0,288.53333)" />
    <path
       style="fill:#000000;fill-opacity:1;stroke:#000000;stroke-width:0.02985075;stroke-miterlimit:4;stroke-dasharray:none"
       d="m 18.638806,3.4669536 c 0,-0.6426054 -0.133985,-0.887675 -0.618067,-1.1304933 C 17.828563,2.2400639 17.59555,2.161194 17.502931,2.161194 c -0.0941,0 -0.256021,-0.071111 -0.367007,-0.1611818 C 17.026688,1.9113622 16.92757,1.8322154 16.91566,1.8241303 16.90375,1.8160403 16.92605,1.6758727 16.96521,1.5126357 17.07567,1.052187 17.156217,1.0082766 17.814398,1.0497 c 0.305665,0.019237 0.797545,0.04395 1.093068,0.054916 0.295522,0.010967 0.651492,0.041795 0.791044,0.068507 0.238676,0.045686 0.253732,0.0605 0.253732,0.2496624 0,0.1985331 0.0034,0.2010944 0.268657,0.2010944 0.248108,0 0.268656,-0.011633 0.268656,-0.1521044 0,-0.1940625 0.266634,-0.445198 0.471405,-0.4440042 0.134131,7.819e-4 0.327443,0.053076 0.797252,0.215668 0.05746,0.019887 0.104478,0.057493 0.104478,0.08357 0,0.026077 0.116552,0.1038347 0.259005,0.1727951 0.151288,0.073237 0.337508,0.2346943 0.447761,0.38822 0.155973,0.2171873 0.188756,0.3186814 0.188756,0.5843678 0,0.3138776 -0.005,0.3233468 -0.211049,0.3978466 -0.257961,0.09328 -0.832143,0.6333365 -0.920535,0.8658244 -0.05426,0.1427228 -0.08585,0.1620963 -0.197838,0.1213296 -0.0733,-0.026682 -0.652144,-0.057668 -1.286331,-0.068857 -0.923982,-0.016302 -1.187892,-0.00297 -1.328358,0.067103 l -0.175292,0.087447 z"
       id="path5186"
       inkscape:connector-curvature="0"
       transform="matrix(0.26458333,0,0,0.26458333,0,288.53333)" />
    <path
       style="fill:#000000;fill-opacity:1;stroke:#000000;stroke-width:0.02985075;stroke-miterlimit:4;stroke-dasharray:none"
       d="M 22.686627,9.1291821 C 22.578236,8.9917967 22.321642,8.7205825 22.116418,8.5264839 L 21.743284,8.1735774 V 7.7313825 c 0,-0.3733011 -0.02325,-0.4764158 -0.149254,-0.6618415 -0.08209,-0.1208057 -0.149254,-0.2439116 -0.149254,-0.2735687 0,-0.029657 -0.06746,-0.1241669 -0.14992,-0.2100218 C 21.2124,6.5000956 21.084788,6.3661367 21.011274,6.2882641 20.752872,6.0145417 20.417917,5.8350697 20.107018,5.8037562 l -0.304033,-0.030622 -0.0053,-0.3288446 C 19.79096,5.0231419 19.654978,4.7410517 19.343207,4.5014333 L 19.094712,4.3104478 h 0.969036 0.969036 l 0.215154,0.2089552 c 0.118335,0.1149254 0.246266,0.2089552 0.284291,0.2089552 0.03802,0 0.127934,0.054778 0.199797,0.1217287 0.112972,0.1052492 0.130661,0.1851547 0.130661,0.5902388 0,0.4644687 0.0014,0.4687533 0.164179,0.4966935 0.0903,0.015501 0.209182,0.047518 0.264185,0.071149 0.07563,0.032492 0.133841,-0.016273 0.238806,-0.2000519 0.135879,-0.2379032 0.145723,-0.2430274 0.467768,-0.2434776 0.270126,-3.761e-4 0.358287,0.026726 0.492877,0.1515253 0.211241,0.1958732 0.318201,0.4575161 0.370205,0.9055823 l 0.04176,0.35981 -0.269834,0.1306242 c -0.252106,0.1220425 -0.281654,0.1245114 -0.449761,0.03758 -0.227246,-0.1175138 -0.332143,-0.1173338 -0.450249,7.725e-4 -0.15664,0.1566399 -0.109148,0.3122392 0.153338,0.5023833 0.135936,0.098471 0.283697,0.2464009 0.328359,0.3287327 0.04466,0.082332 0.121335,0.2235748 0.170387,0.3138733 0.169672,0.3123492 0.09339,0.7175931 -0.171378,0.9104478 -0.264415,0.192596 -0.320636,0.1843996 -0.526702,-0.076788 z"
       id="path5188"
       inkscape:connector-curvature="0"
       transform="matrix(0.26458333,0,0,0.26458333,0,288.53333)" />
    <path
       style="fill:#000000;fill-opacity:1;stroke:#000000;stroke-width:0.02985075;stroke-miterlimit:4;stroke-dasharray:none"
       d="m 24.997015,12.459878 c -0.03284,-0.01114 -0.166055,-0.03815 -0.296043,-0.06003 -0.190121,-0.032 -0.332637,-0.133774 -0.728723,-0.520384 l -0.492381,-0.480601 0.09594,-0.185522 c 0.05277,-0.102036 0.108594,-0.362422 0.124064,-0.578634 l 0.02813,-0.393112 -0.231162,-0.195876 C 23.340989,9.9136587 23.291875,9.8399614 23.34609,9.8195119 c 0.160922,-0.0607 0.475829,-0.3803857 0.569828,-0.5784747 0.172952,-0.3644696 0.0994,-1.2592627 -0.1185,-1.441549 -0.05745,-0.048063 0.002,-0.109571 0.24814,-0.2568063 C 24.223586,7.4361987 24.391752,7.3034449 24.41926,7.2476734 24.51253,7.0585823 24.42706,6.2301829 24.270393,5.8047419 24.145847,5.4665395 24.059625,5.364664 23.738807,5.1766524 23.517398,5.0468977 23.411671,5.0268657 22.948252,5.0268657 H 22.413288 L 22.375452,4.825181 C 22.354642,4.7142543 22.269037,4.5494982 22.185218,4.4590562 21.978392,4.2358869 22.030443,4.0648194 22.425329,3.6699343 l 0.31471,-0.3147104 h 0.534611 0.534611 l 0.310295,0.3038454 c 0.170662,0.167115 0.310295,0.342635 0.310295,0.3900444 0,0.1496734 0.293396,0.6723078 0.413505,0.7365883 0.272847,0.1460234 0.466619,-0.1158338 0.329161,-0.4448179 l -0.09158,-0.2191709 0.435649,0.028548 c 0.239607,0.015701 0.744604,0.1013863 1.122216,0.1904109 0.377612,0.089025 0.753731,0.1656582 0.835821,0.1702969 0.08209,0.00464 0.246634,0.082936 0.365654,0.1739939 0.250115,0.1913532 0.410465,0.647136 0.410465,1.166715 V 6.161194 h -0.41791 -0.417911 v 0.2621846 c 0,0.2293773 0.01854,0.266839 0.148203,0.2993811 0.08151,0.020458 0.257741,0.019681 0.391621,-0.00173 0.20649,-0.033019 0.257013,-0.019514 0.333036,0.089024 0.06984,0.099705 0.145063,0.1258506 0.340797,0.118447 0.33938,-0.012837 0.460038,0.077125 0.684762,0.5105568 0.172823,0.3333301 0.191134,0.4191994 0.191134,0.8963428 v 0.5276965 l -0.656717,-0.027058 c -0.655255,-0.026998 -0.656716,-0.026749 -0.656716,0.1117343 0,0.076336 -0.02687,0.1387921 -0.0597,0.1387921 -0.101213,0 -0.06719,0.093559 0.119403,0.3283582 0.225828,0.2841671 0.229293,0.5027713 0.01471,0.9279756 l -0.164397,0.325756 -0.561194,0.01729 c -0.555034,0.0171 -0.564687,0.01497 -0.87946,-0.19403 -0.335188,-0.222552 -0.488497,-0.257849 -0.606671,-0.139675 -0.115235,0.115236 -0.08391,0.277068 0.107463,0.555224 0.134233,0.195101 0.179105,0.327967 0.179105,0.530335 0,0.262416 -0.02727,0.360046 -0.231011,0.827189 l -0.09735,0.223195 -0.477612,-0.004 c -0.262686,-0.0022 -0.504477,-0.01314 -0.537313,-0.02428 z"
       id="path5190"
       inkscape:connector-curvature="0"
       transform="matrix(0.26458333,0,0,0.26458333,0,288.53333)" />
    <path
       style="fill:none;stroke:#000000;stroke-width:0.26458332px;stroke-linecap:butt;stroke-linejoin:miter;stroke-opacity:1"
       d="m 4.2807209,292.57716 c 0,0.0632 0.00961,0.12707 3e-7,0.1895 -0.0018,0.0116 -0.021796,0.009 -0.031592,0.0158 -0.0062,0.004 -0.00984,0.0113 -0.015796,0.0158 -0.015187,0.0114 -0.032201,0.0202 -0.047388,0.0316 -0.031592,0.0237 0,0.0158 -0.047388,0.0474 -0.00876,0.006 -0.024146,-0.007 -0.031592,0 -0.00372,0.004 0.00372,0.0121 0,0.0158 -0.00372,0.004 -0.011086,-0.002 -0.015796,0 -0.018661,0.009 -0.029963,0.0358 -0.047388,0.0474 -0.00979,0.007 -0.023267,0.007 -0.031592,0.0158 -0.00372,0.004 0.00292,0.0114 0,0.0158 -0.00826,0.0124 -0.021061,0.0211 -0.031592,0.0316 -0.00527,0.005 -0.00984,0.0113 -0.015796,0.0158 -0.015187,0.0114 -0.033964,0.0182 -0.047388,0.0316 -0.00372,0.004 0.00235,0.0111 0,0.0158 -0.00333,0.007 -0.011665,0.01 -0.015796,0.0158 -0.00653,0.01 -0.00747,0.0233 -0.015796,0.0316 -0.00833,0.008 -0.023267,0.007 -0.031592,0.0158 -0.038365,0.0384 0.0047,0.0232 -0.031592,0.0474 -0.00979,0.007 -0.025535,0.006 -0.031592,0.0158 -0.011171,0.0186 -0.00463,0.0446 -0.015796,0.0632 -0.00606,0.0101 -0.021497,0.01 -0.031592,0.0158 -0.01628,0.01 -0.032564,0.0197 -0.047388,0.0316 -0.011628,0.009 -0.021061,0.0211 -0.031592,0.0316 -0.010531,0.0105 -0.024932,0.0183 -0.031592,0.0316 -0.014893,0.0298 -0.022445,0.0627 -0.031592,0.0948 -0.00146,0.005 0.00235,0.0111 0,0.0158 -0.0037,0.007 -0.030727,0.0521 -0.047388,0.0632 -0.00979,0.007 -0.024527,0.006 -0.031592,0.0158 -0.00999,0.0133 -0.00656,0.0335 -0.015796,0.0474 -0.00292,0.004 -0.012073,-0.004 -0.015796,0 -0.013425,0.0134 -0.019733,0.0326 -0.031592,0.0474 -0.00103,0.001 -0.059588,0.062 -0.063184,0.0632 -0.00999,0.003 -0.022831,-0.006 -0.031592,0 -0.0098,0.007 -0.00927,0.0218 -0.015796,0.0316 -0.00413,0.006 -0.012465,0.009 -0.015796,0.0158 -0.00235,0.005 0.00372,0.0121 0,0.0158 -0.00372,0.004 -0.012073,-0.004 -0.015796,0 -0.00372,0.004 0.00372,0.0121 0,0.0158 -0.032682,0.0327 0.00127,-0.05 -0.031592,0.0158 -0.00235,0.005 0.00372,0.0121 0,0.0158 -0.00832,0.008 -0.023267,0.007 -0.031592,0.0158 -0.00372,0.004 0.00235,0.0111 0,0.0158 -0.00283,0.006 -0.056615,0.0588 -0.063184,0.0632 -0.1263679,0.0842 0.057919,-0.0579 -0.047388,0.0474 -0.00372,0.004 -0.012073,-0.004 -0.015796,0 -0.00372,0.004 0.00372,0.0121 0,0.0158 -0.00372,0.004 -0.015796,0.005 -0.015796,0 0,-0.005 0.01053,0 0.015796,0 0.047388,0 0.094971,-0.004 0.142164,0 0.2018509,0.0183 -0.020833,0.0158 0.094776,0.0158 0.1368988,0 0.2737977,0 0.4106965,0 0.057919,0 0.1158375,0 0.1737561,0 0.01053,0 0.021143,-10e-4 0.031592,0 0.140218,0.0175 0.051223,0.0158 0.1263681,0.0158 0.1263682,0 0.2527364,0 0.3791046,0 0.047388,0 0.094776,0 0.142164,0 0.01053,0 0.039039,-0.007 0.031592,0 -0.088586,0.0886 -0.018193,0.0166 -0.063184,0.0316 -0.035464,0.0118 -0.042932,0.0294 -0.07898,0.0474 -0.00471,0.002 -0.0108,-0.002 -0.015796,0 -0.0269,0.009 -0.05208,0.0226 -0.07898,0.0316 -0.036365,0.0121 -0.074982,0.0174 -0.1105723,0.0316 -0.017627,0.007 -0.031592,0.0211 -0.047388,0.0316 -0.026326,0.005 -0.053841,0.006 -0.07898,0.0158 -0.017775,0.007 -0.030408,0.0231 -0.047388,0.0316 -0.02536,0.0127 -0.052653,0.0211 -0.07898,0.0316 -0.026326,0.0105 -0.051301,0.0254 -0.07898,0.0316 -0.020561,0.005 -0.042285,-0.003 -0.063184,0 -0.089478,0.0112 -0.039707,0.006 -0.094776,0.0474 -0.00942,0.007 -0.022172,0.009 -0.031592,0.0158 -0.029486,0.0221 -0.049494,0.0569 -0.07898,0.079 -0.00942,0.007 -0.023268,0.007 -0.031592,0.0158 -0.00372,0.004 0.00292,0.0114 0,0.0158 -0.01239,0.0186 -0.031592,0.0316 -0.047388,0.0474 -0.01053,0.0105 -0.019677,0.0227 -0.031592,0.0316 -0.00942,0.007 -0.024527,0.006 -0.031592,0.0158 -0.00999,0.0133 -0.00723,0.0331 -0.015796,0.0474 -0.011493,0.0191 -0.031592,0.0316 -0.047388,0.0474 -0.025583,0.0256 -0.064851,0.0723 -0.094776,0.0948 -0.015187,0.0114 -0.033964,0.0182 -0.047388,0.0316 -0.00833,0.008 -0.00747,0.0233 -0.015796,0.0316 -0.00832,0.008 -0.022172,0.009 -0.031592,0.0158 -0.013171,0.01 -0.084897,0.0816 -0.094776,0.0948 -0.00706,0.009 -0.01053,0.0211 -0.015796,0.0316 -0.016404,0.0328 -0.021974,0.0472 -0.047388,0.079 -0.0093,0.0116 -0.019963,0.0223 -0.031592,0.0316 -0.014825,0.0119 -0.035529,0.0168 -0.047388,0.0316 -0.010401,0.013 -0.00723,0.0331 -0.015796,0.0474 -0.00766,0.0128 -0.019677,0.0227 -0.031592,0.0316 -0.00942,0.007 -0.025535,0.006 -0.031592,0.0158 -0.011171,0.0186 -0.00222,0.0462 -0.015796,0.0632 -0.010401,0.013 -0.034068,0.006 -0.047388,0.0158 -0.00942,0.007 -0.01053,0.0211 -0.015796,0.0316 -0.015796,0.0316 -0.029864,0.0641 -0.047388,0.0948 -0.00617,0.0108 -0.051712,0.0555 -0.063184,0.0632 -0.0098,0.007 -0.020423,0.0121 -0.031592,0.0158 -0.005,0.002 -0.012073,-0.004 -0.015796,0 -0.00372,0.004 0.00471,0.0134 0,0.0158 -0.00942,0.005 -0.022172,-0.005 -0.031592,0 -0.00471,0.002 0.00372,0.0121 0,0.0158 -0.00372,0.004 -0.012073,-0.004 -0.015796,0 -0.00372,0.004 0.00372,0.0121 0,0.0158 -0.00372,0.004 -0.012073,-0.004 -0.015796,0 -0.00372,0.004 0.00235,0.0111 0,0.0158 -0.00333,0.007 -0.01053,0.0105 -0.015796,0.0158 -0.00527,0.005 -0.0096,0.0117 -0.015796,0.0158 -0.00979,0.007 -0.021796,0.009 -0.031592,0.0158 -0.0062,0.004 -0.0096,0.0117 -0.015796,0.0158 -0.0098,0.007 -0.022173,0.009 -0.031592,0.0158 -0.011914,0.009 -0.021061,0.0211 -0.031592,0.0316 -0.00527,0.005 -0.011665,0.01 -0.015796,0.0158 -0.00653,0.01 -0.00747,0.0233 -0.015796,0.0316 -0.00372,0.004 -0.012073,-0.004 -0.015796,0 -0.00833,0.008 -0.00747,0.0233 -0.015796,0.0316 -0.032682,0.0327 0.00128,-0.05 -0.031592,0.0158 -0.00235,0.005 0.00372,0.0121 0,0.0158 -0.00745,0.007 -0.022173,-0.005 -0.031592,0 -0.029081,0.0145 -0.00251,0.0328 -0.031592,0.0474 -0.021788,0.0109 -0.014129,-0.0191 -0.031592,0.0158 -0.010894,0.0218 0.01913,0.0141 -0.015796,0.0316 -0.00471,0.002 -0.012073,-0.004 -0.015796,0 -0.00372,0.004 0.00372,0.0121 0,0.0158 -0.00372,0.004 -0.012073,-0.004 -0.015796,0 0,0.0421 0.00527,-0.005 -0.015796,0.0158 -0.015582,0.0156 0.032367,0.0316 -0.015796,0.0316"
       id="path7317"
       inkscape:connector-curvature="0" />
    <path
       style="fill:none;stroke:#000000;stroke-width:0.26458332px;stroke-linecap:butt;stroke-linejoin:miter;stroke-opacity:1"
       d="m 6.6137932,291.83001 c -0.1809192,0.22483 -0.1191691,0.13526 -0.2006092,0.25742 -0.01053,0.0158 -0.016404,0.036 -0.031592,0.0474 -0.095064,0.0713 -0.075296,0.0151 -0.1263682,0.079 -0.011859,0.0148 -0.019439,0.0328 -0.031592,0.0474 -0.024953,0.0299 -0.059275,0.0612 -0.094776,0.079 -0.02536,0.0127 -0.055388,0.0159 -0.07898,0.0316 -0.0098,0.007 -0.00747,0.0233 -0.015796,0.0316 -0.1022617,0.10227 0.00873,-0.0504 -0.094776,0.079 -0.00736,0.009 -0.0057,0.0255 -0.015796,0.0316 -0.018616,0.0112 -0.043027,0.008 -0.063184,0.0158 -0.06084,0.0243 0.045591,0.009 -0.031592,0.0474 -0.014129,0.007 -0.032722,-0.006 -0.047388,0 -0.013827,0.006 -0.019677,0.0227 -0.031592,0.0316 -0.00942,0.007 -0.021495,0.01 -0.031592,0.0158 -0.01628,0.01 -0.031109,0.0218 -0.047388,0.0316 -0.010097,0.006 -0.024527,0.006 -0.031592,0.0158 -0.00999,0.0133 -0.00581,0.0341 -0.015796,0.0474 -0.00706,0.009 -0.021796,0.009 -0.031592,0.0158 -0.018587,0.0124 -0.029517,0.034 -0.047388,0.0474 -0.00942,0.007 -0.021796,0.009 -0.031592,0.0158 -0.0239,0.0159 -0.0404,0.0461 -0.063184,0.0632 -0.063839,0.0479 -0.0075,0.003 -0.047388,0.0158 -0.011168,0.004 -0.020423,0.0121 -0.031592,0.0158 -0.005,0.002 -0.011086,-0.002 -0.015796,0 -0.00666,0.003 -0.00914,0.0125 -0.015796,0.0158 -0.00471,0.002 -0.012073,-0.004 -0.015796,0 -0.00372,0.004 0.00235,0.0111 0,0.0158 -0.00666,0.0133 -0.024932,0.0183 -0.031592,0.0316 -0.00477,0.01 0.0073,0.0401 0,0.0474 -0.00372,0.004 -0.012073,-0.004 -0.015796,0 -0.00372,0.004 0,0.0105 0,0.0158 0,0.005 -0.005,0.0141 0,0.0158 0.054322,0.0181 0.2667484,0.0292 0.2843281,0.0316 0.053204,0.007 0.1044985,0.0266 0.1579602,0.0316 0.1154509,0.0108 0.2317554,0.009 0.3475125,0.0158 0.063294,0.004 0.1261896,0.0135 0.1895522,0.0158 0.084192,0.003 0.1684909,0 0.2527364,0 0.07898,0 0.1579602,0 0.2369402,0 0.042123,0 0.084245,0 0.1263681,0 0.01053,0 0.021267,-0.002 0.031592,0 0.016327,0.003 0.031235,0.0118 0.047388,0.0158 0.019571,0.005 0.044152,-0.006 0.063184,0 0.061516,0.0205 0.00148,0.0158 0.063184,0.0158 0.00527,0 0.015796,-0.005 0.015796,0 0,0.005 -0.0108,-0.002 -0.015796,0 -0.042679,0.0142 -0.087792,0.0242 -0.1263682,0.0474 -0.01628,0.01 -0.021061,0.0316 -0.031592,0.0474 -0.036857,0.0158 -0.075519,0.0279 -0.1105722,0.0474 -0.013018,0.007 -0.017843,0.0259 -0.031592,0.0316 -0.050743,0.0212 -0.1067263,0.0275 -0.1579602,0.0474 -0.2576224,0.10019 -0.00994,0.0327 -0.2211443,0.0948 -0.057595,0.0169 -0.1177234,0.0258 -0.1737561,0.0474 -0.013899,0.005 -0.018822,0.0239 -0.031592,0.0316 -0.014277,0.009 -0.032495,0.008 -0.047388,0.0158 -0.1489937,0.0745 0.00346,0.003 -0.063184,0.0474 -0.019592,0.0131 -0.043592,0.0185 -0.063184,0.0316 -0.021905,0.0146 -0.042959,0.0305 -0.063184,0.0474 -0.011441,0.01 -0.018272,0.0249 -0.031592,0.0316 -0.00942,0.005 -0.022172,-0.005 -0.031592,0 -0.013322,0.007 -0.017904,0.0257 -0.031592,0.0316 -0.075631,0.0324 -0.1116123,-0.005 -0.1895522,0.0474 -0.019592,0.0131 -0.016883,0.0448 -0.031592,0.0632 -0.00736,0.009 -0.021497,0.01 -0.031592,0.0158 -0.01628,0.01 -0.031109,0.0218 -0.047388,0.0316 -0.010096,0.006 -0.023268,0.007 -0.031592,0.0158 -0.00833,0.008 -0.00747,0.0233 -0.015796,0.0316 -0.00833,0.008 -0.021796,0.009 -0.031592,0.0158 -0.0062,0.004 -0.01053,0.0105 -0.015796,0.0158 -0.00527,0.005 -0.012465,0.009 -0.015796,0.0158 -0.00235,0.005 0,0.0105 0,0.0158"
       id="path7319"
       inkscape:connector-curvature="0" />
    <path
       style="fill:none;stroke:#000000;stroke-width:0.26458332px;stroke-linecap:butt;stroke-linejoin:miter;stroke-opacity:1"
       d="m 2.3378105,292.41932 c -0.1895397,-0.0208 -0.3336549,0.11736 -0.5054722,0.15779 -0.057303,0.0135 -0.1181929,0.0122 -0.1737562,0.0316 -0.051167,0.0179 -0.092627,0.057 -0.1421642,0.079 -0.06164,0.0274 -0.1838349,0.0583 -0.2527363,0.079 -0.068596,0.0206 -0.1363446,0.044 -0.2053483,0.0632 -0.025869,0.007 -0.054446,0.005 -0.0789801,0.0158 -0.0685256,0.0305 -0.0556807,0.0459 -0.0947761,0.0948 -0.009303,0.0116 -0.0226565,0.0197 -0.0315921,0.0316 -0.007064,0.009 -0.007471,0.0233 -0.0157962,0.0316 -0.008325,0.008 -0.0232669,0.007 -0.031592,0.0158 -0.008325,0.008 -0.009265,0.0218 -0.0157962,0.0316 -0.008261,0.0124 -0.0249319,0.0183 -0.031592,0.0316 -0.002355,0.005 0.001664,0.0108 0,0.0158 -0.003723,0.0112 -0.0120729,0.0204 -0.0157962,0.0316 -0.001664,0.005 0.003723,0.0121 0,0.0158 -0.003723,0.004 -0.0120729,-0.004 -0.0157959,0 -0.007898,0.008 0.007898,0.0395 0,0.0474 -0.003723,0.004 -0.0120729,-0.004 -0.0157962,0 -0.003723,0.004 -0.003723,0.0121 0,0.0158 0.0284374,0.0284 0.0795257,0.0139 0.11057213,0.0158 0.0580443,0.004 0.11572745,0.0119 0.17375621,0.0158 0.0210148,0.001 0.0421227,0 0.0631841,0 0.047388,0 0.094776,0 0.1421642,0 0.1316335,0 0.263267,0 0.3949005,0 0.052653,0 0.1053068,0 0.1579602,0 0.010531,0 0.021061,0 0.031592,0 0.00527,0 0.015796,-0.005 0.015796,0 0,0.007 -0.011328,0.01 -0.015796,0.0158 -0.011391,0.0152 -0.026988,0.029 -0.031592,0.0474 -0.00639,0.0256 0,0.0527 0,0.079 -0.00527,0.0263 -0.00779,0.0534 -0.015796,0.079 -0.018382,0.0588 -0.044626,0.11498 -0.063184,0.17375 -0.013075,0.0414 -0.019664,0.0846 -0.031592,0.12637 -0.037808,0.13233 -0.026259,0.0648 -0.07898,0.20535 -0.017539,0.0468 -0.030318,0.0952 -0.047388,0.14216 -0.00402,0.0111 -0.00873,0.0222 -0.015796,0.0316 -0.024674,0.0329 -0.054792,0.0615 -0.07898,0.0948 -0.037854,0.0272 -0.039637,0.0753 -0.063184,0.11057 -0.014603,0.0219 -0.030942,0.0426 -0.047388,0.0632 -0.031592,0.0395 0,-0.0158 -0.047388,0.0474 -0.00706,0.009 -0.00927,0.0218 -0.015796,0.0316 -0.00413,0.006 -0.010531,0.0105 -0.015796,0.0158 -0.032361,0.0324 -0.039186,0.0298 -0.047388,0.079 -0.00784,0.047 -0.011052,0.0947 -0.015796,0.14217 -0.00281,0.0281 0.00842,0.0211 0,0.0632 -0.00231,0.0115 -0.012073,0.0204 -0.015796,0.0316 -0.00371,0.0111 0.00424,0.059 0,0.0632 -0.00372,0.004 -0.010531,0 -0.015796,0"
       id="path7321"
       inkscape:connector-curvature="0" />
    <path
       style="fill:none;stroke:#000000;stroke-width:0.26458332px;stroke-linecap:butt;stroke-linejoin:miter;stroke-opacity:1"
       d="m 3.3013681,295.0097 c 0.1842868,0 0.3685739,0 0.5528607,0 0.152695,0 0.3053897,0 0.4580845,0 0.06845,0 0.1369843,0.003 0.2053484,0 0.3754908,-0.0188 -0.064726,-0.0158 0.1737561,-0.0158 0.071908,0 8.996e-4,0.007 0.047388,-0.0158 0.00471,-0.002 0.015796,-0.005 0.015796,0 0,0.14645 -0.018002,0.0963 -0.047388,0.22114 -0.013483,0.0573 -0.019087,0.11623 -0.031592,0.17376 -0.013835,0.0636 -0.032743,0.12609 -0.047388,0.18955 -0.016952,0.0735 -0.031592,0.14743 -0.047388,0.22114 -0.015796,0.10005 -0.02508,0.20133 -0.047388,0.30013 -0.014668,0.065 -0.043597,0.12589 -0.063184,0.18955 -0.040083,0.13027 -0.070489,0.26463 -0.110572,0.3949 0.00952,0.0286 -0.025588,0.0294 -0.031592,0.0474 -0.00333,0.01 0,0.0211 0,0.0316"
       id="path7323"
       inkscape:connector-curvature="0" />
    <path
       style="fill:none;stroke:#000000;stroke-width:0.26458332px;stroke-linecap:butt;stroke-linejoin:miter;stroke-opacity:1"
       d="m 6.3657958,292.29278 c 0.5194538,0.13255 1.0411108,0.28515 1.5796022,0.31592 0.078851,0.005 0.1580285,-0.003 0.2369402,0 0.047638,0.002 0.094649,0.0118 0.1421643,0.0158 0.025199,0.002 0.053198,0 0.07898,0"
       id="path7325"
       inkscape:connector-curvature="0" />
    <path
       style="fill:none;stroke:#000000;stroke-width:0.26458332px;stroke-linecap:butt;stroke-linejoin:miter;stroke-opacity:1"
       d="m 1.9271144,292.6245 c 0.1292027,0.15689 0.1635607,0.23612 0.3001244,0.33172 0.151946,0.10636 0.011208,-0.01 0.1421642,0.0948 0.00581,0.005 0.0096,0.0117 0.015796,0.0158 0.0098,0.007 0.023267,0.007 0.031592,0.0158 0.00372,0.004 -0.00235,0.0111 0,0.0158 0.03287,0.0657 -0.00109,-0.0169 0.031592,0.0158 0.00372,0.004 -0.00372,0.0121 0,0.0158 0.00372,0.004 0.010531,0 0.015796,0 0.00527,0 0.010531,0 0.015796,0"
       id="path7327"
       inkscape:connector-curvature="0" />
    <path
       style="fill:none;stroke:#000000;stroke-width:0.26458332px;stroke-linecap:butt;stroke-linejoin:miter;stroke-opacity:1"
       d="m 1.3268657,292.59291 c -0.026327,-0.005 -0.053841,-0.006 -0.07898,-0.0158 -0.017776,-0.007 -0.031109,-0.0218 -0.047388,-0.0316 -0.010531,-0.005 -0.021061,-0.0105 -0.031592,-0.0158 -0.00527,0 -0.010907,0.002 -0.015796,0 -0.17771426,-0.0376 -0.012422,-0.0141 -0.07898,-0.0474 -0.00471,-0.002 -0.011087,0.002 -0.015796,0 -0.00666,-0.003 -0.012466,-0.009 -0.015796,-0.0158 -0.00235,-0.005 0.00471,-0.0134 0,-0.0158 -0.00942,-0.005 -0.022173,0.005 -0.031592,0 -0.00471,-0.002 0.00372,-0.0121 0,-0.0158 -0.00372,-0.004 -0.010531,0 -0.0157959,0 -0.0105307,-0.005 -0.0232669,-0.007 -0.031592,-0.0158 -0.003723,-0.004 0.002355,-0.0111 0,-0.0158 -0.00849,-0.017 -0.0218247,-0.0311 -0.031592,-0.0474 -0.006058,-0.0101 -0.008732,-0.0222 -0.0157962,-0.0316 -0.008936,-0.0119 -0.0210614,-0.0211 -0.031592,-0.0316 -0.005265,-0.0158 -0.00656,-0.0335 -0.0157962,-0.0474 -0.0210614,-0.0316 -0.0157959,0.0368 -0.0157959,-0.0158"
       id="path7329"
       inkscape:connector-curvature="0" />
    <path
       style="fill:none;stroke:#000000;stroke-width:0.26458332px;stroke-linecap:butt;stroke-linejoin:miter;stroke-opacity:1"
       d="m 1.6585821,293.77761 c -0.03539,0.0119 -0.074815,-0.009 -0.1105722,0 -0.00722,0.002 -0.00857,0.014 -0.015796,0.0158 -0.030649,0.008 -0.063798,-0.006 -0.094776,0 -0.011545,0.002 -0.02017,0.0129 -0.031592,0.0158 -0.010216,0.003 -0.021061,0 -0.031592,0 -0.015796,0.005 -0.031235,0.0118 -0.047388,0.0158 -0.00511,10e-4 -0.011087,-0.002 -0.015796,0 -0.01698,0.008 -0.030408,0.0231 -0.047388,0.0316 -0.00704,0.004 -0.057552,-10e-4 -0.063184,0 -0.016327,0.003 -0.030964,0.0131 -0.047388,0.0158 -0.015581,0.003 -0.031592,0 -0.047388,0 -0.00527,0 -0.011087,-0.002 -0.015796,0 -0.00666,0.003 -0.00873,0.0134 -0.015796,0.0158 -0.00999,0.003 -0.021602,-0.003 -0.031592,0 -0.014128,0.005 -0.019201,0.0233 -0.031592,0.0316 -0.0098,0.007 -0.0204226,0.0121 -0.031592,0.0158 -0.004995,0.002 -0.0120729,-0.004 -0.0157962,0 -0.008325,0.008 -0.007471,0.0233 -0.0157959,0.0316 -0.003801,0.004 -0.0593831,-0.004 -0.0631841,0 -0.003723,0.004 0.003723,0.0121 0,0.0158 -0.004181,0.004 -0.0408838,0 -0.0473881,0"
       id="path7331"
       inkscape:connector-curvature="0" />
    <path
       style="fill:none;stroke:#000000;stroke-width:0.26458332px;stroke-linecap:butt;stroke-linejoin:miter;stroke-opacity:1"
       d="m 2.5747512,294.40945 c 0.054092,0.0165 0.048825,-0.0481 0.07898,-0.0632 0.00471,-0.002 0.011086,0.002 0.015796,0 0.042629,-0.0213 -5.556e-4,-0.007 0.015796,-0.0316 0.00826,-0.0124 0.021061,-0.0211 0.031592,-0.0316 0.00527,-0.005 0.0096,-0.0117 0.015796,-0.0158 0.0098,-0.007 0.023268,-0.007 0.031592,-0.0158 0.00372,-0.004 -0.00372,-0.0121 0,-0.0158 0.03916,-0.0392 0.041586,-0.0224 0.07898,-0.0474 0.0062,-0.004 0.0096,-0.0117 0.015796,-0.0158 0.00979,-0.007 0.021796,-0.009 0.031592,-0.0158 0.01239,-0.008 0.018272,-0.0249 0.031592,-0.0316 0.00471,-0.002 0.011086,0.002 0.015796,0 0.065739,-0.0329 -0.016886,0.001 0.015796,-0.0316 0.00372,-0.004 0.012073,0.004 0.015796,0 0.00372,-0.004 -0.00235,-0.0111 0,-0.0158 0.00666,-0.0133 0.024932,-0.0183 0.031592,-0.0316 0.00235,-0.005 -0.00235,-0.0111 0,-0.0158 0.00333,-0.007 0.012465,-0.009 0.015796,-0.0158 0.00235,-0.005 -0.00235,-0.0111 0,-0.0158 0.00594,-0.0119 0.037008,-0.037 0.047388,-0.0474"
       id="path7333"
       inkscape:connector-curvature="0" />
  </g>
</svg>
