<?xml version="1.0" encoding="UTF-8" standalone="no"?>
<!-- Created with Inkscape (http://www.inkscape.org/) -->

<svg
   xmlns:dc="http://purl.org/dc/elements/1.1/"
   xmlns:cc="http://creativecommons.org/ns#"
   xmlns:rdf="http://www.w3.org/1999/02/22-rdf-syntax-ns#"
   xmlns:svg="http://www.w3.org/2000/svg"
   xmlns="http://www.w3.org/2000/svg"
   xmlns:sodipodi="http://sodipodi.sourceforge.net/DTD/sodipodi-0.dtd"
   xmlns:inkscape="http://www.inkscape.org/namespaces/inkscape"
   width="32"
   height="32"
   viewBox="0 0 8.4666667 8.4666667"
   version="1.1"
   id="svg4517"
   inkscape:version="0.92.1 r15371"
   sodipodi:docname="Trees.svg"
   inkscape:export-filename="C:\Unity\Gods Fate\Assets\Graphics\Icons\Trees.png"
   inkscape:export-xdpi="96"
   inkscape:export-ydpi="96">
  <defs
     id="defs4511" />
  <sodipodi:namedview
     id="base"
     pagecolor="#ffffff"
     bordercolor="#666666"
     borderopacity="1.0"
     inkscape:pageopacity="0.0"
     inkscape:pageshadow="2"
     inkscape:zoom="16.75"
     inkscape:cx="4.358209"
     inkscape:cy="20.776119"
     inkscape:document-units="mm"
     inkscape:current-layer="layer1"
     showgrid="false"
     units="px"
     inkscape:window-width="1920"
     inkscape:window-height="1017"
     inkscape:window-x="-8"
     inkscape:window-y="-8"
     inkscape:window-maximized="1" />
  <metadata
     id="metadata4514">
    <rdf:RDF>
      <cc:Work
         rdf:about="">
        <dc:format>image/svg+xml</dc:format>
        <dc:type
           rdf:resource="http://purl.org/dc/dcmitype/StillImage" />
        <dc:title />
      </cc:Work>
    </rdf:RDF>
  </metadata>
  <g
     inkscape:label="Calque 1"
     inkscape:groupmode="layer"
     id="layer1"
     transform="translate(0,-288.53333)">
    <path
       style="fill:none;stroke:#000000;stroke-width:0.26458332px;stroke-linecap:butt;stroke-linejoin:miter;stroke-opacity:1"
       d="m 1.7217662,291.8347 c -0.00363,0.0449 -0.058328,0.048 -0.07898,0.079 -0.00653,0.01 -0.00927,0.0218 -0.015796,0.0316 -0.00413,0.006 -0.012466,0.009 -0.015796,0.0158 -0.00235,0.005 0.00372,0.0121 0,0.0158 -0.00372,0.004 -0.011087,-0.002 -0.015796,0 -0.065739,0.0329 0.016887,-10e-4 -0.015796,0.0316 -0.00372,0.004 -0.013441,-0.005 -0.015796,0 -0.00632,0.0126 0.00632,0.0348 0,0.0474 -0.00333,0.007 -0.012466,0.009 -0.015796,0.0158 -0.00642,0.0128 0.00655,0.0659 0,0.079 -0.00333,0.007 -0.012466,0.009 -0.015796,0.0158 -0.00108,0.002 -0.00108,0.0926 0,0.0948 0.00333,0.007 0.012466,0.009 0.015796,0.0158 0.00645,0.0129 -0.00645,0.0503 0,0.0632 0.00333,0.007 0.012466,0.009 0.015796,0.0158 0.00235,0.005 -0.00235,0.0111 0,0.0158 0.00666,0.0133 0.024932,0.0183 0.031592,0.0316 0.00235,0.005 -0.00292,0.0114 0,0.0158 0.00826,0.0124 0.021061,0.0211 0.031592,0.0316 0.024108,0.0241 0.059286,0.0527 0.07898,0.079 0.00706,0.009 0.006,0.0251 0.015796,0.0316 0.00876,0.006 0.024146,-0.007 0.031592,0 0.00745,0.007 -0.00876,0.0258 0,0.0316 0.013143,0.009 0.032064,-0.004 0.047388,0 0.00722,0.002 0.0096,0.0117 0.015796,0.0158 0.1145304,0.0573 -0.024976,-0.0167 0.047388,0.0316 0.010531,0.005 0.021061,0.0105 0.031592,0.0158 0.00527,0 0.011087,-0.002 0.015796,0 0.00666,0.003 0.00857,0.014 0.015796,0.0158 0.015324,0.004 0.032064,-0.004 0.047388,0 0.00722,0.002 0.00873,0.0134 0.015796,0.0158 0.014175,0.01 0.032403,-0.005 0.047388,0 0.011169,0.004 0.020423,0.0121 0.031592,0.0158 0.012982,0.004 0.048169,0 0.063184,0 0.00527,0 0.010531,0 0.015796,0 0.00527,0 0.012073,0.004 0.015796,0 0.00372,-0.004 -0.00292,-0.0114 0,-0.0158 0.012151,-0.0182 0.035237,-0.0292 0.047388,-0.0474 0.00653,-0.01 0.00747,-0.0233 0.015796,-0.0316 0.00372,-0.004 0.011087,0.002 0.015796,0 0.00666,-0.003 0.0096,-0.0117 0.015796,-0.0158 0.0098,-0.007 0.025061,-0.006 0.031592,-0.0158 0.00584,-0.009 -0.00471,-0.0222 0,-0.0316 0.00235,-0.005 0.012073,0.004 0.015796,0 0.00372,-0.004 -0.00372,-0.0121 0,-0.0158 0.00372,-0.004 0.012073,0.004 0.015796,0 0.00745,-0.007 -0.00745,-0.0242 0,-0.0316 0.00372,-0.004 0.012073,0.004 0.015796,0 0.0073,-0.007 -0.00477,-0.0378 0,-0.0474 0.00666,-0.0133 0.024932,-0.0183 0.031592,-0.0316 0.00286,-0.006 0,-0.068 0,-0.079"
       id="path10293"
       inkscape:connector-curvature="0" />
    <path
       style="fill:none;stroke:#000000;stroke-width:0.26458332px;stroke-linecap:butt;stroke-linejoin:miter;stroke-opacity:1"
       d="m 2.3694022,292.3403 c -0.01053,-0.0211 -0.018533,-0.0437 -0.031591,-0.0633 -0.00292,-0.004 -0.00235,0.0111 0,0.0158 0.00849,0.017 0.029491,0.0286 0.031591,0.0475 0.00353,0.0318 -0.011267,0.063 -0.015795,0.0947 -0.00567,0.0397 0.015796,-0.0123 0.015796,0.0316 0,0.0421 -0.00527,-0.005 0.015796,0.0158 0.010731,0.0107 -0.016151,0.0314 0.015796,0.0474 0.00471,0.002 0.012073,-0.004 0.015796,0 0.00833,0.008 0.00747,0.0233 0.015796,0.0316 0.00372,0.004 0.011415,-0.003 0.015796,0 0.012392,0.008 0.019201,0.0233 0.031592,0.0316 0.00438,0.003 0.010531,0 0.015796,0 0.010531,0.005 0.023267,0.007 0.031592,0.0158 0.00372,0.004 -0.00372,0.0121 0,0.0158 0.00833,0.008 0.021796,0.009 0.031592,0.0158 0.0062,0.004 0.00914,0.0125 0.015796,0.0158 0.00471,0.002 0.010801,-0.002 0.015796,0 0.011169,0.004 0.021796,0.009 0.031592,0.0158 0.012391,0.008 0.017464,0.0269 0.031592,0.0316 0.019981,0.007 0.043204,-0.007 0.063184,0 0.00706,0.002 0.00914,0.0125 0.015796,0.0158 0.00731,0.004 0.05058,0 0.063184,0 0.047388,0 0.094776,0 0.1421643,0 0.042123,0 0.084245,0 0.1263682,0 0.01053,0 0.021061,0 0.031592,0 0.00527,0 0.0108,0.002 0.015796,0 0.011171,-0.004 0.020423,-0.0121 0.031592,-0.0158 0.018396,-0.006 0.062536,0.004 0.07898,0 0.00722,-0.002 0.00914,-0.0125 0.015796,-0.0158 0.021788,-0.0109 0.014129,0.0191 0.031592,-0.0158 0.00235,-0.005 -0.00372,-0.0121 0,-0.0158 0.00372,-0.004 0.012073,0.004 0.015796,0 0.00372,-0.004 -0.00372,-0.0121 0,-0.0158 0.032683,-0.0327 -0.00127,0.05 0.031592,-0.0158 0.00235,-0.005 -0.00372,-0.0121 0,-0.0158 0.00372,-0.004 0.012875,0.004 0.015796,0 0.048163,-0.0112 0.00609,-0.0438 0.015796,-0.0632 0.00333,-0.007 0.012467,-0.009 0.015796,-0.0158 0.00471,-0.009 -0.00471,-0.0222 0,-0.0316 0.00333,-0.007 0.013441,-0.009 0.015796,-0.0158 0.00666,-0.02 -0.00666,-0.0432 0,-0.0632 0.00235,-0.007 0.012467,-0.009 0.015796,-0.0158 0.00389,-0.008 0,-0.0776 0,-0.0948 0,-0.006 6.35e-4,-0.0625 0,-0.0632 -0.00372,-0.004 -0.012073,0.004 -0.015796,0 -0.00372,-0.004 0.00372,-0.0121 0,-0.0158 -0.021061,-0.0211 -0.015796,0.0263 -0.015796,-0.0158"
       id="path10295"
       inkscape:connector-curvature="0" />
    <path
       style="fill:none;stroke:#000000;stroke-width:0.26458332px;stroke-linecap:butt;stroke-linejoin:miter;stroke-opacity:1"
       d="m 3.3645517,292.2138 c 0.1448242,-0.0385 -0.089307,0.0872 -0.063184,0.12637 0.00826,0.0124 0.021061,0.0211 0.031592,0.0316 0.023913,0.0239 0.059509,0.053 0.07898,0.079 0.00527,0.0105 0.01053,0.0211 0.015796,0.0316 0.00527,0 0.012073,-0.004 0.015796,0 0.00833,0.008 0.00747,0.0233 0.015796,0.0316 0.00833,0.008 0.022172,0.009 0.031592,0.0158 0.011914,0.009 0.019677,0.0227 0.031592,0.0316 0.00942,0.007 0.023267,0.007 0.031592,0.0158 0.00833,0.008 0.006,0.0251 0.015796,0.0316 0.00876,0.006 0.021601,-0.003 0.031592,0 0.00706,0.002 0.0096,0.0117 0.015796,0.0158 0.00979,0.007 0.020661,0.0114 0.031592,0.0158 0.1590069,0.0636 -0.033538,-0.0123 0.07898,0.0158 0.011422,0.003 0.020047,0.0135 0.031592,0.0158 0.020931,0.004 0.055258,0 0.07898,0 0.047388,0 0.094776,0 0.142164,0 0.031592,0 0.063184,0 0.094776,0 0.01053,0 0.021267,0.002 0.031592,0 0.016327,-0.003 0.031235,-0.0118 0.047388,-0.0158 0.015796,-0.004 0.031592,0.008 0.047388,0 0.00471,-0.002 -0.00372,-0.0121 0,-0.0158 0.00372,-0.004 0.012073,0.004 0.015796,0 0.00372,-0.004 -0.00235,-0.0111 0,-0.0158 0.00333,-0.007 0.012465,-0.009 0.015796,-0.0158 0.00241,-0.005 0,-0.0403 0,-0.0474 0,-0.0421 0,-0.0842 0,-0.12636 0,-0.007 0.00418,-0.0432 0,-0.0474 -0.00372,-0.004 -0.012073,0.004 -0.015796,0 -0.00432,-0.004 0.00428,-0.0546 0,-0.0632 -0.00333,-0.007 -0.012467,-0.009 -0.015796,-0.0158 -0.00471,-0.009 0.00471,-0.0222 0,-0.0316 -0.00333,-0.007 -0.012465,-0.009 -0.015796,-0.0158 -0.00235,-0.005 0,-0.0105 0,-0.0158 0,-0.0105 0.00471,-0.0222 0,-0.0316 -0.00235,-0.005 -0.012073,0.004 -0.015796,0 -0.00432,-0.004 0.00428,-0.0546 0,-0.0632 -0.00333,-0.007 -0.012465,-0.009 -0.015796,-0.0158 -0.00471,-0.009 0.00745,-0.0241 0,-0.0316 -0.00372,-0.004 -0.011086,0.002 -0.015796,0 -0.00666,-0.003 -0.01053,-0.0105 -0.015796,-0.0158"
       id="path10297"
       inkscape:connector-curvature="0" />
    <path
       style="fill:none;stroke:#000000;stroke-width:0.26458332px;stroke-linecap:butt;stroke-linejoin:miter;stroke-opacity:1"
       d="m 4.2175355,292.38761 c 0.036858,0.0421 0.070997,0.0868 0.1105739,0.12632 0.00373,0.004 0.010573,-6.6e-4 0.015796,0 0.036944,0.005 0.074452,0.007 0.1105723,0.0158 0.00722,0.002 0.00873,0.0134 0.015796,0.0158 0.025472,0.008 0.052934,0.009 0.07898,0.0158 0.016153,0.004 0.031061,0.0125 0.047388,0.0158 0.010327,0.002 0.021815,-0.004 0.031592,0 0.017626,0.007 0.029378,0.0256 0.047388,0.0316 0.010798,0.004 0.092378,0 0.110572,0 0.089511,0 0.1790216,0 0.2685325,0 0.036857,0 0.073715,0 0.110572,0 0.015796,0 0.032403,0.005 0.047388,0 0.00706,-0.002 0.00914,-0.0125 0.015796,-0.0158 0.00942,-0.005 0.024146,0.007 0.031592,0 0.00372,-0.004 -0.00372,-0.0121 0,-0.0158 0.00372,-0.004 0.012073,0.004 0.015796,0 0.00372,-0.004 0,-0.0105 0,-0.0158 0,-0.0211 0,-0.0421 0,-0.0632 0,-0.0316 0,-0.0632 0,-0.0948 0,-0.0105 0.00471,-0.0222 0,-0.0316 -0.00333,-0.007 -0.012467,-0.009 -0.015796,-0.0158 -0.00235,-0.005 0.00372,-0.0121 0,-0.0158 -0.00372,-0.004 -0.012073,0.004 -0.015796,0 -0.00372,-0.004 0.00235,-0.0111 0,-0.0158 -0.00333,-0.007 -0.01053,-0.0105 -0.015796,-0.0158 0,-0.0105 0.00333,-0.0216 0,-0.0316 -0.00235,-0.007 -0.011666,-0.01 -0.015796,-0.0158 -0.00653,-0.01 -0.00927,-0.0218 -0.015796,-0.0316 -0.00413,-0.006 -0.012467,-0.009 -0.015796,-0.0158 -0.00235,-0.005 0.00235,-0.0111 0,-0.0158 -0.00333,-0.007 -0.012467,-0.009 -0.015796,-0.0158 -0.00235,-0.005 0.00372,-0.0121 0,-0.0158 -0.00372,-0.004 -0.012073,0.004 -0.015796,0 -0.00372,-0.004 0.00372,-0.0121 0,-0.0158 -0.00372,-0.004 -0.012073,0.004 -0.015796,0 -0.021061,-0.0211 0.026326,-0.0158 -0.015796,-0.0158"
       id="path10299"
       inkscape:connector-curvature="0" />
    <path
       style="fill:none;stroke:#000000;stroke-width:0.26458332px;stroke-linecap:butt;stroke-linejoin:miter;stroke-opacity:1"
       d="m 5.1179102,292.13473 c 0.1365234,-0.0352 0.1303176,-0.0315 0.2527364,-0.0315 0.021061,0 0.04241,0.003 0.063184,0 0.1196977,-0.0199 0.00643,-0.003 0.063184,-0.0316 0.00942,-0.005 0.024146,0.007 0.031592,0 0.00372,-0.004 -0.00235,-0.0111 0,-0.0158 0.00333,-0.007 0.012467,-0.009 0.015796,-0.0158 0.00471,-0.009 -0.00745,-0.0242 0,-0.0316 0.00372,-0.004 0.011086,0.002 0.015796,0 0.013322,-0.007 0.018272,-0.0249 0.031592,-0.0316 0.021788,-0.0109 0.014129,0.0191 0.031592,-0.0158 0.00235,-0.005 -0.00372,-0.0121 0,-0.0158 0.00372,-0.004 0.012073,0.004 0.015796,0 0.00372,-0.004 -0.00235,-0.0111 0,-0.0158 0.00333,-0.007 0.012467,-0.009 0.015796,-0.0158 0.00235,-0.005 -0.00372,-0.0121 0,-0.0158 0.00372,-0.004 0.012073,0.004 0.015796,0 0.0038,-0.004 -0.0038,-0.0594 0,-0.0632 0.00372,-0.004 0.013441,0.005 0.015796,0 0.00471,-0.009 -0.00471,-0.0222 0,-0.0316 0.00235,-0.005 0.012073,0.004 0.015796,0 0.00372,-0.004 0,-0.0105 0,-0.0158 0,-0.011 0.00285,-0.0733 0,-0.079 -0.00333,-0.007 -0.012467,-0.009 -0.015796,-0.0158 -0.00235,-0.005 0.00235,-0.0111 0,-0.0158 -0.00333,-0.007 -0.012464,-0.009 -0.015796,-0.0158 -0.00471,-0.009 0.00745,-0.0242 0,-0.0316 -0.00372,-0.004 -0.011086,0.002 -0.015796,0 -0.00666,-0.003 -0.01053,-0.0105 -0.015796,-0.0158 -0.00527,-0.005 -0.012467,-0.009 -0.015796,-0.0158 -0.00235,-0.005 0.00372,-0.0121 0,-0.0158 -0.00372,-0.004 -0.012073,0.004 -0.015796,0 -0.00372,-0.004 0.00372,-0.0121 0,-0.0158 -0.00833,-0.008 -0.023268,-0.007 -0.031592,-0.0158 -0.00372,-0.004 0.00372,-0.0121 0,-0.0158 -0.021061,-0.0211 -0.015796,0.0263 -0.015796,-0.0158"
       id="path10301"
       inkscape:connector-curvature="0" />
    <path
       style="fill:none;stroke:#000000;stroke-width:0.26458332px;stroke-linecap:butt;stroke-linejoin:miter;stroke-opacity:1"
       d="m 1.7217662,291.8347 c -0.00527,-0.0263 -0.00582,-0.0541 -0.015796,-0.079 -0.00196,-0.005 -0.011087,0.002 -0.015796,0 -0.019808,-0.01 -0.043376,-0.0533 -0.063184,-0.0632 -0.00471,-0.002 -0.012073,0.004 -0.015796,0 -0.00833,-0.008 -0.00927,-0.0218 -0.015796,-0.0316 -0.00826,-0.0124 -0.023331,-0.0192 -0.031592,-0.0316 -0.00653,-0.01 -0.00747,-0.0233 -0.015796,-0.0316 -0.00372,-0.004 -0.013441,0.005 -0.015796,0 -0.00471,-0.009 0.00471,-0.0222 0,-0.0316 -0.00235,-0.005 -0.012073,0.004 -0.015796,0 -0.00372,-0.004 0.00235,-0.0111 0,-0.0158 -0.052389,-0.0524 0.00745,0.0149 -0.015796,-0.0316 -0.00333,-0.007 -0.012466,-0.009 -0.015796,-0.0158 -0.00235,-0.005 0.00235,-0.0111 0,-0.0158 -0.036146,-0.0723 0.00655,0.067 -0.031592,-0.0474 -0.00432,-0.0129 0,-0.0625 0,-0.079 0,-0.009 -0.00241,-0.0718 0,-0.079 0.00235,-0.007 0.013441,-0.009 0.015796,-0.0158 0.00333,-0.01 0,-0.0211 0,-0.0316 0,-0.005 -0.00292,-0.0114 0,-0.0158 0.011876,-0.0178 0.070559,-0.0621 0.07898,-0.079 0.00235,-0.005 0,-0.0105 0,-0.0158 0.010531,-0.005 0.023267,-0.007 0.031592,-0.0158 0.032682,-0.0327 -0.049943,0.001 0.015796,-0.0316 0.00471,-0.002 0.012073,0.004 0.015796,0 0.00833,-0.008 0.00747,-0.0233 0.015796,-0.0316 0.016651,-0.0166 0.043592,-0.0185 0.063184,-0.0316 0.0062,-0.004 0.00873,-0.0134 0.015796,-0.0158 0.00999,-0.003 0.021602,0.003 0.031592,0 0.014128,-0.005 0.017464,-0.0269 0.031592,-0.0316 0.00999,-0.003 0.021061,0 0.031592,0 0.00527,0 0.010801,-0.002 0.015796,0 0.011169,0.004 0.02017,0.0129 0.031592,0.0158 0.010216,0.003 0.021602,-0.003 0.031592,0 0.058558,0.0195 -0.019255,0.0158 0.031592,0.0158"
       id="path10303"
       inkscape:connector-curvature="0" />
    <path
       style="fill:none;stroke:#000000;stroke-width:0.26458332px;stroke-linecap:butt;stroke-linejoin:miter;stroke-opacity:1"
       d="m 1.9113182,290.9973 c 0.057919,0.0475 0.1181361,0.0922 0.1737564,0.14237 0.00391,0.004 -0.012073,0.004 -0.015796,0 -0.00372,-0.004 0.00235,-0.0111 0,-0.0158 -0.00333,-0.007 -0.012466,-0.009 -0.015796,-0.0158 -0.00235,-0.005 0.00235,-0.0111 0,-0.0158 -0.00333,-0.007 -0.012466,-0.009 -0.015796,-0.0158 -0.00477,-0.01 0.0073,-0.0401 0,-0.0474 -0.021061,-0.0211 -0.015796,0.0263 -0.015796,-0.0158 0,-0.0109 -0.00381,-0.0556 0,-0.0632 0.00495,-0.01 0.052375,-0.0524 0.063184,-0.0632 0.00527,-0.005 0.011665,-0.01 0.015796,-0.0158 0.00653,-0.01 0.00747,-0.0233 0.015796,-0.0316 0.00833,-0.008 0.021796,-0.009 0.031592,-0.0158 0.0062,-0.004 0.0096,-0.0117 0.015796,-0.0158 0.019593,-0.0131 0.043591,-0.0185 0.063184,-0.0316 0.028903,-0.0193 0.00158,-0.0201 0.047388,-0.0316 0.010216,-0.003 0.021815,0.004 0.031592,0 0.017627,-0.007 0.031109,-0.0218 0.047388,-0.0316 0.010531,-0.005 0.021061,-0.0105 0.031592,-0.0158 0.00527,0 0.011087,0.002 0.015796,0 0.00666,-0.003 0.00873,-0.0134 0.015796,-0.0158 0.00999,-0.003 0.022173,0.005 0.031592,0 0.00471,-0.002 -0.00372,-0.0121 0,-0.0158 0.00372,-0.004 0.010531,0 0.015796,0 0.042123,0 0.084245,0 0.1263682,0 0.00901,0 0.093964,-8.1e-4 0.094776,0 0.00372,0.004 -0.00372,0.0121 0,0.0158 0.00372,0.004 0.01053,0 0.015796,0 0.00527,0.005 0.011665,0.01 0.015796,0.0158 0.00653,0.01 0.00927,0.0218 0.015796,0.0316 0.00826,0.0124 0.023331,0.0192 0.031592,0.0316 0.00653,0.01 0.00747,0.0233 0.015796,0.0316 0.00372,0.004 0.011086,-0.002 0.015796,0 0.039039,0.0195 -0.00545,0.0158 0.031592,0.0158"
       id="path10305"
       inkscape:connector-curvature="0" />
    <path
       style="fill:none;stroke:#000000;stroke-width:0.26458332px;stroke-linecap:butt;stroke-linejoin:miter;stroke-opacity:1"
       d="m 2.9380598,291.10808 c 0.01257,-0.0128 -0.00786,-0.1028 0,-0.12637 0.00372,-0.0112 0.012073,-0.0204 0.015796,-0.0316 0.00167,-0.005 -0.00235,-0.0111 0,-0.0158 0.00333,-0.007 0.011665,-0.01 0.015796,-0.0158 0.00653,-0.01 0.00927,-0.0218 0.015796,-0.0316 0.00826,-0.0124 0.024932,-0.0183 0.031592,-0.0316 0.00235,-0.005 -0.00235,-0.0111 0,-0.0158 0.00333,-0.007 0.01053,-0.0105 0.015796,-0.0158 0.00527,-0.005 0.00914,-0.0125 0.015796,-0.0158 0.00471,-0.002 0.011086,0.002 0.015796,0 0.00666,-0.003 0.0096,-0.0117 0.015796,-0.0158 0.019592,-0.0131 0.044346,-0.0175 0.063184,-0.0316 0.011914,-0.009 0.021061,-0.0211 0.031592,-0.0316 0.00527,-0.005 0.00873,-0.0134 0.015796,-0.0158 0.00999,-0.003 0.021601,0.003 0.031592,0 0.00706,-0.002 0.01053,-0.0105 0.015796,-0.0158 0.01053,-0.005 0.020423,-0.0121 0.031592,-0.0158 0.005,-0.002 0.012073,0.004 0.015796,0 0.00372,-0.004 -0.00372,-0.0121 0,-0.0158 0.0079,-0.008 0.03949,0.008 0.047388,0 0.00372,-0.004 -0.00372,-0.0121 0,-0.0158 0.00372,-0.004 0.01053,0 0.015796,0 0.00527,0 0.01053,0 0.015796,0 0.012928,0 0.090154,0.002 0.094776,0 0.00471,-0.002 -0.00372,-0.0121 0,-0.0158 0.00372,-0.004 0.01053,0 0.015796,0 0.00527,0 0.011086,-0.002 0.015796,0 0.00666,0.003 0.00914,0.0125 0.015796,0.0158 0.00471,0.002 0.012073,-0.004 0.015796,0 0.00833,0.008 0.00927,0.0218 0.015796,0.0316 0.00413,0.006 0.01053,0.0105 0.015796,0.0158 0.00527,0.005 0.0096,0.0117 0.015796,0.0158 0.0098,0.007 0.023267,0.007 0.031592,0.0158 0.00833,0.008 0.00927,0.0218 0.015796,0.0316 0.00413,0.006 0.012465,0.009 0.015796,0.0158 0.00235,0.005 -0.00372,0.0121 0,0.0158 0.00372,0.004 0.012073,-0.004 0.015796,0 0.00745,0.007 -0.00745,0.0241 0,0.0316 0.00372,0.004 0.012073,-0.004 0.015796,0 0.00372,0.004 -0.00372,0.0121 0,0.0158 0.00372,0.004 0.012073,-0.004 0.015796,0 0.00745,0.007 -0.00471,0.0222 0,0.0316 0.00333,0.007 0.012465,0.009 0.015796,0.0158 0.00235,0.005 -0.00235,0.0111 0,0.0158 0.00666,0.0133 0.021061,0.0211 0.031592,0.0316"
       id="path10307"
       inkscape:connector-curvature="0" />
    <path
       style="fill:none;stroke:#000000;stroke-width:0.26458332px;stroke-linecap:butt;stroke-linejoin:miter;stroke-opacity:1"
       d="m 3.7278598,290.93431 c 0.010491,-0.0175 0.034245,0.009 0.047389,2e-5 0.014478,-0.01 0.047158,-0.0552 0.063184,-0.0632 0.00471,-0.002 0.011086,0.002 0.015796,0 0.00666,-0.003 0.0096,-0.0117 0.015796,-0.0158 0.00979,-0.007 0.021796,-0.009 0.031592,-0.0158 0.0062,-0.004 0.00914,-0.0125 0.015796,-0.0158 0.00942,-0.005 0.022172,0.005 0.031592,0 0.013322,-0.007 0.018272,-0.0249 0.031592,-0.0316 0.00471,-0.002 0.01053,0 0.015796,0 0.01053,0 0.021061,0 0.031592,0 0.047388,0 0.094776,0 0.1421641,0 0.042123,0 0.084245,0 0.1263682,0 0.00527,0 0.012073,-0.004 0.015796,0 0.00372,0.004 -0.00372,0.0121 0,0.0158 0.030751,0.0308 0.045322,0.005 0.07898,0.0158 0.00706,0.002 0.00914,0.0125 0.015796,0.0158 0.00471,0.002 0.012073,-0.004 0.015796,0 0.00372,0.004 -0.00372,0.0121 0,0.0158 0.00745,0.007 0.024146,-0.007 0.031592,0 0.00372,0.004 -0.00372,0.0121 0,0.0158 0.00745,0.007 0.024146,-0.007 0.031592,0 0.00832,0.008 0.00747,0.0233 0.015796,0.0316 0.00372,0.004 0.0108,-0.002 0.015796,0 0.016727,0.006 0.054206,0.0294 0.063184,0.0474 0.00235,0.005 -0.00235,0.0111 0,0.0158 0.00333,0.007 0.012467,0.009 0.015796,0.0158 0.00235,0.005 -0.00235,0.0111 0,0.0158 0.00333,0.007 0.012467,0.009 0.015796,0.0158 0.00235,0.005 -0.00167,0.0108 0,0.0158 0.00372,0.0112 0.012073,0.0204 0.015796,0.0316 0.00402,0.0121 0,0.0346 0,0.0474 0,0.0369 0,0.0737 0,0.11057"
       id="path10309"
       inkscape:connector-curvature="0" />
    <path
       style="fill:none;stroke:#000000;stroke-width:0.26458332px;stroke-linecap:butt;stroke-linejoin:miter;stroke-opacity:1"
       d="m 4.6282332,291.2187 c -0.021061,-0.0369 -0.048279,-0.0709 -0.063184,-0.11062 -0.00262,-0.007 0.00857,-0.014 0.015796,-0.0158 0.015325,-0.004 0.031592,0 0.047388,0 0.089217,0 -0.02909,0.005 0.063184,-0.0158 0.2415144,-0.0537 0.039253,-0.006 0.1421644,-0.0158 0.04224,-0.004 0.084151,-0.0114 0.1263681,-0.0158 0.057838,-0.006 0.1157698,-0.0113 0.1737562,-0.0158 0.010499,-8.1e-4 0.021167,10e-4 0.031592,0 0.026578,-0.004 0.052339,-0.0125 0.07898,-0.0158 0.015674,-0.002 0.031899,0.003 0.047388,0 0.011544,-0.002 0.019936,-0.0141 0.031592,-0.0158 0.036865,-0.005 0.1134549,0 0.1579602,0 0.0042,0 0.046084,-0.003 0.047388,0 0.00471,0.009 -0.00471,0.0222 0,0.0316 0.00235,0.005 0.012073,-0.004 0.015796,0 0.00832,0.008 0.00747,0.0233 0.015796,0.0316 0.00833,0.008 0.023268,0.007 0.031592,0.0158 0.00372,0.004 0,0.0105 0,0.0158 0,0.005 0,0.0105 0,0.0158 0,0.0421 -0.00527,-0.005 0.015796,0.0158 7.144e-4,7.1e-4 0,0.0715 0,0.079 0,0.005 0.00372,0.0121 0,0.0158 -0.00372,0.004 -0.012073,-0.004 -0.015796,0 -0.00745,0.007 0.00745,0.0241 0,0.0316 -0.00372,0.004 -0.011086,-0.002 -0.015796,0 -0.065739,0.0329 0.016886,-10e-4 -0.015796,0.0316 -0.00372,0.004 -0.011086,-0.002 -0.015796,0 -0.00666,0.003 -0.00914,0.0125 -0.015796,0.0158 -0.00471,0.002 -0.012073,-0.004 -0.015796,0 -0.00372,0.004 0.00372,0.0121 0,0.0158 -1.5e-5,10e-6 -0.047316,-3e-5 -0.047388,0 -0.014129,0.005 -0.018272,0.0249 -0.031592,0.0316 -0.00471,0.002 -0.012073,-0.004 -0.015796,0 -0.00372,0.004 0.00372,0.0121 0,0.0158 -0.00745,0.007 -0.024146,-0.007 -0.031592,0 -0.00832,0.008 -0.00747,0.0233 -0.015796,0.0316 -0.00372,0.004 -0.012073,-0.004 -0.015796,0 -0.00833,0.008 -0.00927,0.0218 -0.015796,0.0316 -0.00413,0.006 -0.012465,0.009 -0.015796,0.0158 -0.00235,0.005 0.00235,0.0111 0,0.0158 -0.00333,0.007 -0.012464,0.009 -0.015796,0.0158 -0.00235,0.005 0.00372,0.0121 0,0.0158 -0.00372,0.004 -0.012073,-0.004 -0.015796,0 -0.00372,0.004 0.00372,0.0121 0,0.0158 -0.00372,0.004 -0.021053,-3.2e-4 -0.015796,0 0.094758,0.006 0.1895517,0.0104 0.2843278,0.0156"
       id="path10311"
       inkscape:connector-curvature="0" />
    <path
       style="fill:none;stroke:#000000;stroke-width:0.26458332px;stroke-linecap:butt;stroke-linejoin:miter;stroke-opacity:1"
       d="m 1.9902982,292.6879 c 0.048273,0.11783 0.047388,0.20292 0.047388,0.3157 0,0.007 -0.00418,0.0432 0,0.0474 0.00372,0.004 0.012073,-0.004 0.015796,0 0.00372,0.004 0,0.0105 0,0.0158 0,0.005 0,0.0105 0,0.0158 -0.1312977,-0.0493 -0.081379,-0.0474 -0.1421638,-0.0474 -0.00527,0 -0.012073,0.004 -0.015796,0 -0.00372,-0.004 0.00372,-0.0121 0,-0.0158 -0.00372,-0.004 -0.010531,0 -0.015796,0 -0.00527,0 -0.010531,0 -0.015796,0 -0.0065,0 -0.043207,0.004 -0.047388,0 -0.00372,-0.004 0.00372,-0.0121 0,-0.0158 -0.00372,-0.004 -0.010531,0 -0.015796,0 -0.00527,0 -0.010531,0 -0.015796,0 -0.036857,0 -0.073715,0 -0.1105721,0 -0.013533,0 -0.087638,-0.004 -0.094776,0 -0.00721,0.004 -0.059577,0.056 -0.063184,0.0632 -0.00235,0.005 0.00235,0.0111 0,0.0158 -0.00666,0.0133 -0.023331,0.0192 -0.031592,0.0316 -0.00653,0.01 -0.00927,0.0218 -0.015796,0.0316 -0.00826,0.0124 -0.024932,0.0183 -0.031592,0.0316 -0.0063,0.0126 0.00624,0.0665 0,0.079 -0.00235,0.005 -0.012073,-0.004 -0.015796,0 -7.159e-4,7.2e-4 0,0.0715 0,0.079 0,0.0369 0,0.0737 0,0.11057 0,0.0158 -0.00706,0.0333 0,0.0474 0.00235,0.005 0.012073,-0.004 0.015796,0 0.00745,0.007 -0.00471,0.0222 0,0.0316 0.00333,0.007 0.012466,0.009 0.015796,0.0158 0.00235,0.005 -0.00235,0.0111 0,0.0158 0.00333,0.007 0.012466,0.009 0.015796,0.0158 0.00235,0.005 -0.00235,0.0111 0,0.0158 0.00333,0.007 0.012466,0.009 0.015796,0.0158 0.00235,0.005 -0.00372,0.0121 0,0.0158 0.00372,0.004 0.012073,-0.004 0.015796,0 0.0079,0.008 -0.0079,0.0395 0,0.0474 0.00372,0.004 0.011087,-0.002 0.015796,0 0.019808,0.01 0.043376,0.0533 0.063184,0.0632 0.00471,0.002 0.011087,-0.002 0.015796,0 0.030659,0.0153 0.00178,0.0275 0.031592,0.0474 0.026171,0.0174 0.035876,0.0158 0.063184,0.0158 0.010531,0 0.021602,-0.003 0.031592,0 0.00706,0.002 0.00914,0.0125 0.015796,0.0158 0.00571,0.003 0.067993,0 0.07898,0 0.00624,0 0.072234,0.003 0.07898,0 0.00666,-0.003 0.00914,-0.0125 0.015796,-0.0158 0.00942,-0.005 0.021061,0 0.031592,0 0.036857,0 0.073715,0 0.1105722,0 0.010531,0 0.022173,0.005 0.031592,0 0.00471,-0.002 -0.00372,-0.0121 0,-0.0158 0.00554,-0.006 0.068069,0.005 0.07898,0 0.00666,-0.003 0.00914,-0.0125 0.015796,-0.0158 0.00857,-0.004 0.058862,0.004 0.063184,0 0.00372,-0.004 -0.00471,-0.0134 0,-0.0158 0.00942,-0.005 0.022173,0.005 0.031592,0 0.00471,-0.002 -0.00372,-0.0121 0,-0.0158 0.010513,-0.0105 0.021079,0.0105 0.031592,0 0.00372,-0.004 -0.00372,-0.0121 0,-0.0158 0.00745,-0.007 0.022173,0.005 0.031592,0 0.065739,-0.0329 -0.016887,0.001 0.015796,-0.0316 0.00372,-0.004 0.012073,0.004 0.015796,0 0.00372,-0.004 -0.00235,-0.0111 0,-0.0158 0.00333,-0.007 0.012466,-0.009 0.015796,-0.0158 0.00632,-0.0126 -0.00632,-0.0347 0,-0.0474 0.00333,-0.007 0.012466,-0.009 0.015796,-0.0158 0.00477,-0.01 -0.0073,-0.0401 0,-0.0474 0.00372,-0.004 0.012073,0.004 0.015796,0 0.0079,-0.008 -0.0079,-0.0395 0,-0.0474 0.00372,-0.004 0.012073,0.004 0.015796,0 0.00372,-0.004 0,-0.0105 0,-0.0158 0,-0.005 0,-0.0105 0,-0.0158 0,-0.0369 0,-0.0737 0,-0.11057 0,-0.007 -0.0024,-0.0426 0,-0.0474 0.00333,-0.007 0.012466,-0.009 0.015796,-0.0158 0.0024,-0.005 0,-0.0403 0,-0.0474 0,-0.0369 0,-0.0737 0,-0.11057 0,-0.007 0.00418,-0.0432 0,-0.0474 -0.00372,-0.004 -0.012073,0.004 -0.015796,0 -0.00372,-0.004 0,-0.0105 0,-0.0158 -0.00527,0 -0.012073,0.004 -0.015796,0 -0.00745,-0.007 0.00745,-0.0242 0,-0.0316 -0.00372,-0.004 -0.012073,0.004 -0.015796,0 -0.00372,-0.004 0.00372,-0.0121 0,-0.0158 -0.00372,-0.004 -0.012073,0.004 -0.015796,0 -0.00372,-0.004 0.00372,-0.0121 0,-0.0158 -0.00372,-0.004 -0.010531,0 -0.015796,0 -0.00527,0 -0.010531,0 -0.015796,0 -0.036857,0 -0.073715,0 -0.1105722,0 -0.010924,0 -0.055572,-0.004 -0.063184,0 -0.00666,0.003 -0.00914,0.0125 -0.015796,0.0158 -0.01987,0.01 -0.031592,-0.0227 -0.031592,0.0158"
       id="path10313"
       inkscape:connector-curvature="0" />
    <path
       style="fill:none;stroke:#000000;stroke-width:0.26458332px;stroke-linecap:butt;stroke-linejoin:miter;stroke-opacity:1"
       d="m 5.260074,292.59293 c -0.057919,0.0632 -0.1183899,0.1241 -0.1737555,0.18953 -0.0034,0.004 0,0.0105 0,0.0158 0,0.005 0,0.0105 0,0.0158 0,0.0158 0,0.0316 0,0.0474 0,0.0421 0,0.0842 0,0.12637 0,0.005 -0.00372,0.0121 0,0.0158 0.00372,0.004 0.012073,-0.004 0.015796,0 6.35e-4,6.4e-4 0,0.0574 0,0.0632 -0.00649,-0.11382 -0.064987,-0.0167 -0.094776,-0.0316 -0.00666,-0.003 -0.00914,-0.0125 -0.015796,-0.0158 -0.00942,-0.005 -0.024146,0.007 -0.031592,0 -0.00372,-0.004 0.00372,-0.0121 0,-0.0158 -0.00745,-0.007 -0.022173,0.005 -0.031592,0 -0.00666,-0.003 -0.00914,-0.0125 -0.015796,-0.0158 -0.00471,-0.002 -0.011087,0.002 -0.015796,0 -0.00666,-0.003 -0.00914,-0.0125 -0.015796,-0.0158 -0.00481,-0.002 -0.040274,0 -0.047388,0 -0.031592,0 -0.063184,0 -0.094776,0 -0.00527,0 -0.010531,0 -0.015796,0 -0.00527,0 -0.012073,-0.004 -0.015796,0 -0.00372,0.004 0.00235,0.0111 0,0.0158 -0.00333,0.007 -0.012466,0.009 -0.015796,0.0158 -0.00235,0.005 0.00372,0.0121 0,0.0158 -0.032682,0.0327 0.00128,-0.0499 -0.031592,0.0158 -0.0024,0.005 0,0.0403 0,0.0474 0,0.0369 0,0.0737 0,0.11058 0,0.037 0.00372,-0.007 -0.015796,0.0316 -8.816e-4,0.002 -8.816e-4,0.0772 0,0.079 0.00666,0.0133 0.024932,0.0183 0.031592,0.0316 0.00706,0.0141 -0.005,0.0324 0,0.0474 0.00235,0.007 0.012466,0.009 0.015796,0.0158 0.00471,0.009 -0.00471,0.0222 0,0.0316 0.00933,0.0187 0.035771,0.03 0.047388,0.0474 0.029924,-0.002 0.010531,0.0369 0.015796,0.0474 0.00333,0.007 0.012466,0.009 0.015796,0.0158 0.00745,0.0149 0.00835,0.0325 0.015796,0.0474 0.00948,0.019 0.03791,0.0284 0.047388,0.0474 0.00235,0.005 -0.00372,0.0121 0,0.0158 0.00372,0.004 0.011087,-0.002 0.015796,0 0.00666,0.003 0.00914,0.0125 0.015796,0.0158 0.00471,0.002 0.012073,-0.004 0.015796,0 0.00372,0.004 -0.00372,0.0121 0,0.0158 0.00833,0.008 0.021796,0.009 0.031592,0.0158 0.0062,0.004 0.00914,0.0125 0.015796,0.0158 0.00954,0.005 0.040086,-0.007 0.047388,0 0.00833,0.008 0.00747,0.0233 0.015796,0.0316 0.030219,0.0302 0.044161,0.006 0.063184,0.0158 0.01698,0.008 0.030408,0.0231 0.047388,0.0316 0.00471,0.002 0.011087,-0.002 0.015796,0 0.00666,0.003 0.00873,0.0134 0.015796,0.0158 0.00999,0.003 0.021602,-0.003 0.031592,0 0.014128,0.005 0.018272,0.0249 0.031592,0.0316 0.00942,0.005 0.022173,-0.005 0.031592,0 0.00666,0.003 0.00873,0.0134 0.015796,0.0158 0.014985,0.005 0.03326,-0.007 0.047388,0 0.00666,0.003 0.00914,0.0125 0.015796,0.0158 0.00571,0.003 0.067993,0 0.07898,0 0.00527,0 0.010531,0 0.015796,0 0.00527,0 0.012073,0.004 0.015796,0 0.00372,-0.004 -0.00372,-0.0121 0,-0.0158 0.00372,-0.004 0.011087,0.002 0.015796,0 0.011883,-0.006 0.037008,-0.037 0.047388,-0.0474 0.010531,-0.0105 0.021061,-0.0211 0.031592,-0.0316 0.00527,-0.005 0.012466,-0.009 0.015796,-0.0158 0.00235,-0.005 -0.00372,-0.0121 0,-0.0158 0.00833,-0.008 0.025061,-0.006 0.031592,-0.0158 0.00584,-0.009 -0.00584,-0.0228 0,-0.0316 0.00653,-0.01 0.023267,-0.007 0.031592,-0.0158 0.00833,-0.008 0.00927,-0.0218 0.015796,-0.0316 0.00413,-0.006 0.012466,-0.009 0.015796,-0.0158 0.00632,-0.0126 -0.00632,-0.0348 0,-0.0474 0.00666,-0.0133 0.024932,-0.0183 0.031592,-0.0316 0.00235,-0.005 -0.00235,-0.0111 0,-0.0158 0.00333,-0.007 0.012466,-0.009 0.015796,-0.0158 0.00235,-0.005 -0.00235,-0.0111 0,-0.0158 0.00333,-0.007 0.012466,-0.009 0.015796,-0.0158 0.00235,-0.005 -0.00235,-0.0111 0,-0.0158 0.00333,-0.007 0.012466,-0.009 0.015796,-0.0158 0.00235,-0.005 0,-0.0105 0,-0.0158 0,-0.0158 0,-0.0316 0,-0.0474 0,-0.0421 0,-0.0842 0,-0.12636 0,-0.0369 0,-0.0737 0,-0.11058 0,-0.0105 0.00333,-0.0216 0,-0.0316 -0.00235,-0.007 -0.012466,-0.009 -0.015796,-0.0158 -0.00477,-0.01 0.0073,-0.0401 0,-0.0474 -0.00372,-0.004 -0.013441,0.005 -0.015796,0 0,-0.0895 0.010531,-0.005 -0.015796,-0.0316 -0.00745,-0.007 0.00471,-0.0222 0,-0.0316 -0.00333,-0.007 -0.012466,-0.009 -0.015796,-0.0158 -0.00235,-0.005 0.00372,-0.0121 0,-0.0158 -0.00372,-0.004 -0.011087,0.002 -0.015796,0 -0.00666,-0.003 -0.00914,-0.0125 -0.015796,-0.0158 -0.00471,-0.002 -0.012073,0.004 -0.015796,0 -0.00372,-0.004 0.00372,-0.0121 0,-0.0158 -0.00372,-0.004 -0.011086,0.002 -0.015796,0 -0.00666,-0.003 -0.00914,-0.0125 -0.015796,-0.0158 -0.00761,-0.004 -0.05226,0 -0.063184,0 -0.036857,0 -0.073715,0 -0.1105721,0 -0.00527,0 -0.012073,-0.004 -0.015796,0 -0.00372,0.004 0.00471,0.0134 0,0.0158 -0.012907,0.006 -0.050277,-0.006 -0.063184,0 -0.00666,0.003 -0.00914,0.0125 -0.015796,0.0158 -0.00471,0.002 -0.011087,-0.002 -0.015796,0 -0.00666,0.003 -0.00914,0.0125 -0.015796,0.0158 -0.016821,0.008 -0.014771,-0.008 -0.031592,0 -0.00666,0.003 -0.00914,0.0125 -0.015796,0.0158 -0.021788,0.0109 -0.014129,-0.0191 -0.031592,0.0158 -0.00235,0.005 0.00372,0.0121 0,0.0158 -0.00372,0.004 -0.012073,-0.004 -0.015796,0 -0.00745,0.007 0.00942,0.0269 0,0.0316 -0.019415,0.01 -0.057905,0.0369 -0.063184,0.0158 -0.00528,-0.0211 0.042123,-0.0106 0.063184,-0.0158"
       id="path10315"
       inkscape:connector-curvature="0" />
    <path
       style="fill:none;stroke:#000000;stroke-width:0.26458332px;stroke-linecap:butt;stroke-linejoin:miter;stroke-opacity:1"
       d="m 3.3329596,292.6088 c -0.021061,0.079 -0.043359,0.15758 -0.063184,0.23684 -0.00448,0.0179 0,0.0787 0,0.0948 0,0.0421 0,0.0842 0,0.12637 0,0.13163 0,0.26326 0,0.3949 0,0.0685 0,0.1369 0,0.20535 0,0.003 0.00193,0.089 0,0.0948 -0.00235,0.007 -0.013991,0.009 -0.015796,0.0158 -0.00383,0.0153 0.0031,0.0319 0,0.0474 -0.0023,0.0115 -0.013486,0.02 -0.015796,0.0316 -0.00459,0.023 0,0.0993 0,0.12637 0,0.0964 0.00196,0.014 -0.015796,0.17375 -5.821e-4,0.005 7.408e-4,0.0106 0,0.0158 -0.021484,0.15038 -0.00299,0.0406 -0.047388,0.17375 -0.00167,0.005 7.408e-4,0.0106 0,0.0158 -0.00453,0.0317 -0.011266,0.0631 -0.015796,0.0948 -7.409e-4,0.005 0.00127,0.0107 0,0.0158 -0.00404,0.0162 -0.01053,0.0316 -0.015796,0.0474 -0.00527,0.0158 -0.00835,0.0325 -0.015796,0.0474 -0.00333,0.007 -0.013441,0.009 -0.015796,0.0158 -0.00333,0.01 0,0.0211 0,0.0316 0,0.0158 0.00222,0.0317 0,0.0474 -0.00484,0.0339 -0.038131,0.13713 -0.047388,0.15796 -0.00771,0.0174 -0.023103,0.0304 -0.031592,0.0474 -0.00745,0.0149 -0.00697,0.0333 -0.015796,0.0474 -0.029061,0.0465 -0.070375,0.0776 -0.094776,0.12637 -0.00745,0.0149 -0.00835,0.0325 -0.015796,0.0474 -0.00333,0.007 -0.01053,0.0105 -0.015796,0.0158 -0.015796,0.0158 -0.033087,0.0302 -0.047388,0.0474 -0.041587,0.0499 -0.020955,0.0349 -0.047388,0.079 -0.00977,0.0163 -0.023101,0.0304 -0.031592,0.0474 -0.00235,0.005 0.00372,0.0121 0,0.0158 -0.013425,0.0134 -0.033964,0.0182 -0.047388,0.0316 -0.013425,0.0134 -0.020201,0.0322 -0.031592,0.0474 -0.00447,0.006 -0.012467,0.009 -0.015796,0.0158 -0.00235,0.005 0,0.0105 0,0.0158 -0.01053,0.0105 -0.023331,0.0192 -0.031592,0.0316 -0.00292,0.004 0.00372,0.0121 0,0.0158 -0.00833,0.008 -0.023267,0.007 -0.031592,0.0158 -0.00372,0.004 0.00372,0.0121 0,0.0158 -0.00833,0.008 -0.023267,0.007 -0.031592,0.0158 -0.00372,0.004 0.00372,0.0121 0,0.0158 -0.00833,0.008 -0.023267,0.007 -0.031592,0.0158 -0.00372,0.004 0.00372,0.0121 0,0.0158 -0.00833,0.008 -0.025061,0.006 -0.031592,0.0158 -0.00584,0.009 0.00471,0.0222 0,0.0316 -0.00235,0.005 -0.012073,-0.004 -0.015796,0 -0.00833,0.008 -0.00927,0.0218 -0.015796,0.0316 -0.011617,0.0174 -0.038058,0.0287 -0.047388,0.0474 -0.00235,0.005 0.00372,0.0121 0,0.0158 -0.00372,0.004 -0.012073,-0.004 -0.015796,0 -0.00372,0.004 0.00235,0.0111 0,0.0158 -0.00666,0.0133 -0.024932,0.0183 -0.031592,0.0316 -0.00471,0.009 0.00745,0.0241 0,0.0316 -0.00372,0.004 -0.012073,-0.004 -0.015796,0 -0.00745,0.007 0.00745,0.0241 0,0.0316 -0.00745,0.007 -0.024146,-0.007 -0.031592,0 -0.00745,0.007 0.00745,0.0242 0,0.0316 -0.00372,0.004 -0.012073,-0.004 -0.015796,0 -0.00745,0.007 0.00745,0.0242 0,0.0316 -0.00372,0.004 -0.012073,-0.004 -0.015796,0 -0.00745,0.007 0.00745,0.0241 0,0.0316 -0.03175,0.0317 1.58e-4,-0.0317 -0.031592,0 -0.00372,0.004 0.00372,0.0121 0,0.0158 -0.00372,0.004 -0.012073,-0.004 -0.015796,0 -0.00372,0.004 0.00235,0.0111 0,0.0158 -0.00333,0.007 -0.010531,0.0105 -0.015796,0.0158"
       id="path10317"
       inkscape:connector-curvature="0" />
    <path
       style="fill:none;stroke:#000000;stroke-width:0.26458332px;stroke-linecap:butt;stroke-linejoin:miter;stroke-opacity:1"
       d="m 3.7120647,292.73507 c 0,0.20008 0,0.40017 0,0.60025 0,0.0421 0,0.0842 0,0.12637 0,0.0158 -0.0031,0.0319 0,0.0474 0.00326,0.0163 0.013057,0.031 0.015796,0.0474 0.00436,0.0261 0,0.11433 0,0.14217 0,0.005 -0.00127,0.0107 0,0.0158 0.00404,0.0162 0.013957,0.0308 0.015796,0.0474 0.00349,0.0314 -0.00447,0.0635 0,0.0948 0.00106,0.007 0.011666,0.01 0.015796,0.0158 0.00653,0.01 0.013488,0.02 0.015796,0.0316 0.00687,0.0344 -0.00403,0.0901 0,0.12636 0.00354,0.0318 0.011824,0.063 0.015796,0.0948 0.00458,0.0366 0,0.0888 0,0.12637 0,0.0105 -0.00172,0.0212 0,0.0316 0.00357,0.0214 0.011538,0.0419 0.015796,0.0632 0.00419,0.0209 0,0.0621 0,0.079 0,0.005 -0.00167,0.0108 0,0.0158 0.00372,0.0112 0.013486,0.0201 0.015796,0.0316 0.00699,0.035 -0.00539,0.10982 0,0.14217 0.00122,0.007 0.011329,0.01 0.015796,0.0158 0.01139,0.0152 0.024543,0.0298 0.031592,0.0474 0.00391,0.01 -0.00206,0.0213 0,0.0316 0.011083,0.0554 0.047732,0.10388 0.063184,0.15796 0.00289,0.0101 -0.00333,0.0216 0,0.0316 0.00235,0.007 0.011665,0.01 0.015796,0.0158 0.00653,0.01 0.012073,0.0204 0.015796,0.0316 0.00167,0.005 -0.00292,0.0114 0,0.0158 0.045673,0.0685 0.020381,-0.004 0.047388,0.0632 0.012843,0.0321 0.01307,0.0512 0.031592,0.079 0.00413,0.006 0.012467,0.009 0.015796,0.0158 0.00745,0.0149 0.00723,0.0331 0.015796,0.0474 0.00766,0.0128 0.024932,0.0183 0.031592,0.0316 0.00471,0.009 -0.00471,0.0222 0,0.0316 0.00666,0.0133 0.023331,0.0192 0.031592,0.0316 0.00292,0.004 -0.00235,0.0111 0,0.0158 0.00903,0.0181 0.050358,0.0439 0.063184,0.0632 0.00653,0.01 0.00747,0.0233 0.015796,0.0316 0.00833,0.008 0.023268,0.007 0.031592,0.0158 0.00372,0.004 -0.00372,0.0121 0,0.0158 0.00833,0.008 0.022172,0.009 0.031592,0.0158 0.017873,0.0134 0.031592,0.0316 0.047388,0.0474 0.017941,0.0179 0.050511,0.0442 0.063184,0.0632 0.00653,0.01 0.00747,0.0233 0.015796,0.0316 0.00372,0.004 0.011414,-0.003 0.015796,0 0.024302,0.0162 0.038882,0.047 0.063184,0.0632 0.00979,0.007 0.021061,0.0105 0.031592,0.0158 0.01053,0.0105 0.019677,0.0227 0.031592,0.0316 0.031915,0.0239 0.055379,0.0158 0.094776,0.0316 0.013827,0.006 0.017462,0.0269 0.031592,0.0316 0.00999,0.003 0.022172,-0.005 0.031592,0 0.042123,0.0211 -0.047388,0.0158 0.015796,0.0158"
       id="path10319"
       inkscape:connector-curvature="0" />
    <path
       style="fill:none;stroke:#000000;stroke-width:0.26458332px;stroke-linecap:butt;stroke-linejoin:miter;stroke-opacity:1"
       d="m 2.5589552,291.39241 c -0.010531,-0.0211 -0.017464,-0.0444 -0.031592,-0.0632 -0.00632,-0.008 -0.022173,0.005 -0.031592,0 -0.00666,-0.003 -0.00914,-0.0125 -0.015796,-0.0158 -0.00714,-0.004 -0.081243,0 -0.094776,0 -0.0065,0 -0.043207,-0.004 -0.047388,0 -0.00372,0.004 0.00372,0.0121 0,0.0158 -0.00372,0.004 -0.012073,-0.004 -0.015796,0 -0.00372,0.004 0,0.0105 0,0.0158 -0.00527,0 -0.012073,-0.004 -0.015796,0 -0.00372,0.004 0.00372,0.0121 0,0.0158 -0.00372,0.004 -0.012073,-0.004 -0.015796,0 -0.00745,0.007 0.00745,0.0241 0,0.0316 -0.00372,0.004 -0.012073,-0.004 -0.015796,0 -0.0073,0.007 0.00477,0.0378 0,0.0474 -0.036146,0.0723 0.00655,-0.067 -0.031592,0.0474 -0.00431,0.0129 0,0.0625 0,0.079 0,0.016 -0.00425,0.10207 0,0.11057 0.052389,0.0524 -0.00745,-0.0149 0.015796,0.0316 0.00333,0.007 0.012466,0.009 0.015796,0.0158 0.00235,0.005 -0.00235,0.0111 0,0.0158 0.00333,0.007 0.012466,0.009 0.015796,0.0158 0.00471,0.009 -0.00471,0.0222 0,0.0316 0.00666,0.0133 0.024932,0.0183 0.031592,0.0316 0.00235,0.005 -0.00372,0.0121 0,0.0158 0.00372,0.004 0.012073,-0.004 0.015796,0 0.00745,0.007 -0.00745,0.0241 0,0.0316 0.00372,0.004 0.012073,-0.004 0.015796,0 0.00372,0.004 -0.00235,0.0111 0,0.0158 0.00594,0.0119 0.037008,0.037 0.047388,0.0474 0.017324,0.0173 0.043983,0.0504 0.063184,0.0632 0.01443,0.01 0.038334,0.0135 0.047388,0.0316 0.00235,0.005 -0.00372,0.0121 0,0.0158 0.00745,0.007 0.022173,-0.005 0.031592,0 0.00666,0.003 0.00914,0.0125 0.015796,0.0158 0.00722,0.004 0.1166124,0 0.1263681,0 0.016531,0 0.1144328,0.004 0.1263682,0 0.00706,-0.002 0.00914,-0.0125 0.015796,-0.0158 0.00471,-0.002 0.011086,0.002 0.015796,0 0.00666,-0.003 0.010531,-0.0105 0.015796,-0.0158 0.00527,-0.005 0.012465,-0.009 0.015796,-0.0158 0.00235,-0.005 -0.00372,-0.0121 0,-0.0158 0.00372,-0.004 0.011086,0.002 0.015796,0 0.065739,-0.0329 -0.016886,0.001 0.015796,-0.0316 0.00372,-0.004 0.012073,0.004 0.015796,0 0.00372,-0.004 -0.00372,-0.0121 0,-0.0158 0.00372,-0.004 0.012073,0.004 0.015796,0 0.00372,-0.004 -0.00167,-0.0108 0,-0.0158 0.00372,-0.0112 0.012073,-0.0204 0.015796,-0.0316 0.00167,-0.005 -0.00372,-0.0121 0,-0.0158 0.00372,-0.004 0.012073,0.004 0.015796,0 0.00745,-0.007 -0.00745,-0.0242 0,-0.0316 0.00372,-0.004 0.012073,0.004 0.015796,0 0.00745,-0.007 -0.00745,-0.0241 0,-0.0316 0.00372,-0.004 0.012073,0.004 0.015796,0 0.00555,-0.006 -0.00546,-0.0681 0,-0.079 0.00333,-0.007 0.012465,-0.009 0.015796,-0.0158 0.00285,-0.006 0,-0.068 0,-0.079 0,-0.0527 0,-0.10531 0,-0.15796 0,-0.0109 -0.0038,-0.0556 0,-0.0632 0.00333,-0.007 0.012467,-0.009 0.015796,-0.0158 0.00243,-0.005 0.00243,-0.0425 0,-0.0474 -0.00333,-0.007 -0.01053,-0.0105 -0.015796,-0.0158 -0.00527,-0.005 -0.00914,-0.0125 -0.015796,-0.0158 -0.00471,-0.002 -0.011086,0.002 -0.015796,0 -0.00666,-0.003 -0.00914,-0.0125 -0.015796,-0.0158 -0.00471,-0.002 -0.012073,0.004 -0.015796,0 -0.032682,-0.0327 0.049943,10e-4 -0.015796,-0.0316 -0.00714,-0.004 -0.081243,0 -0.094776,0 -0.00527,0 -0.012073,-0.004 -0.015796,0 -0.00372,0.004 0.00372,0.0121 0,0.0158 -0.0079,0.008 -0.03949,-0.008 -0.047388,0 -0.00372,0.004 0.00372,0.0121 0,0.0158 -0.00372,0.004 -0.012073,-0.004 -0.015796,0 -0.00372,0.004 0.00372,0.0121 0,0.0158 -0.00372,0.004 -0.011086,-0.002 -0.015796,0 -0.013322,0.007 -0.018272,0.0249 -0.031592,0.0316 -0.00471,0.002 -0.011086,-0.002 -0.015796,0 -0.065739,0.0329 0.016886,-10e-4 -0.015796,0.0316 -0.00372,0.004 -0.011086,-0.002 -0.015796,0 -0.00666,0.003 -0.01053,0.0105 -0.015796,0.0158"
       id="path10321"
       inkscape:connector-curvature="0" />
    <path
       style="fill:none;stroke:#000000;stroke-width:0.26458332px;stroke-linecap:butt;stroke-linejoin:miter;stroke-opacity:1"
       d="m 4.1859453,291.36082 c -0.054092,0.0165 -0.048825,-0.0481 -0.07898,-0.0632 -0.012475,-0.006 -0.034066,0.004 -0.047388,0 -0.011171,-0.004 -0.020423,-0.0121 -0.031592,-0.0158 -0.012261,-0.004 -0.07733,0 -0.094776,0 -0.00711,0 -0.042581,-0.002 -0.047388,0 -0.00666,0.003 -0.00914,0.0125 -0.015796,0.0158 -0.00471,0.002 -0.011086,-0.002 -0.015796,0 -0.013322,0.007 -0.018272,0.0249 -0.031592,0.0316 -0.00471,0.002 -0.012073,-0.004 -0.015796,0 -0.00833,0.008 -0.012073,0.0204 -0.015796,0.0316 -0.00167,0.005 0.00372,0.0121 0,0.0158 -0.00372,0.004 -0.012073,-0.004 -0.015796,0 -0.00745,0.007 0.00745,0.0241 0,0.0316 -0.00372,0.004 -0.012073,-0.004 -0.015796,0 -0.0073,0.007 0.00477,0.0378 0,0.0474 -0.00333,0.007 -0.012465,0.009 -0.015796,0.0158 -0.00235,0.005 0,0.0105 0,0.0158 0,0.0105 0,0.0211 0,0.0316 0,0.0316 0,0.0632 0,0.0948 0,0.007 -7.144e-4,0.0783 0,0.079 0.00372,0.004 0.013441,-0.005 0.015796,0 0.00511,0.0102 -0.00567,0.0575 0,0.0632 0.00372,0.004 0.012073,-0.004 0.015796,0 0.00833,0.008 0.00927,0.0218 0.015796,0.0316 0.00413,0.006 0.012467,0.009 0.015796,0.0158 0.00471,0.009 -0.00471,0.0222 0,0.0316 0.032869,0.0657 -0.00108,-0.0169 0.031592,0.0158 0.00745,0.007 -0.00745,0.0242 0,0.0316 0.00372,0.004 0.012073,-0.004 0.015796,0 0.00372,0.004 -0.00235,0.0111 0,0.0158 0.00333,0.007 0.012465,0.009 0.015796,0.0158 0.00235,0.005 -0.00372,0.0121 0,0.0158 0.00372,0.004 0.011086,-0.002 0.015796,0 0.018661,0.009 0.029963,0.0358 0.047388,0.0474 0.00979,0.007 0.021796,0.009 0.031592,0.0158 0.0062,0.004 0.00914,0.0125 0.015796,0.0158 0.00942,0.005 0.022172,-0.005 0.031592,0 0.00666,0.003 0.00914,0.0125 0.015796,0.0158 0.00471,0.002 0.011086,-0.002 0.015796,0 0.00666,0.003 0.00914,0.0125 0.015796,0.0158 0.00761,0.004 0.05226,0 0.063184,0 0.00989,0 0.087506,0.004 0.094776,0 0.00666,-0.003 0.00914,-0.0125 0.015796,-0.0158 0.00471,-0.002 0.011086,0.002 0.015796,0 0.00666,-0.003 0.00914,-0.0125 0.015796,-0.0158 0.00471,-0.002 0.012073,0.004 0.015796,0 0.00372,-0.004 -0.00372,-0.0121 0,-0.0158 0.00372,-0.004 0.011086,0.002 0.015796,0 0.00666,-0.003 0.00914,-0.0125 0.015796,-0.0158 0.00942,-0.005 0.022172,0.005 0.031592,0 0.00666,-0.003 0.01053,-0.0105 0.015796,-0.0158 0.00527,-0.005 0.012465,-0.009 0.015796,-0.0158 0.00235,-0.005 -0.00372,-0.0121 0,-0.0158 0.00372,-0.004 0.012073,0.004 0.015796,0 0.00372,-0.004 -0.00372,-0.0121 0,-0.0158 0.00372,-0.004 0.011086,0.002 0.015796,0 0.00666,-0.003 0.01053,-0.0105 0.015796,-0.0158 0.00527,-0.005 0.011665,-0.01 0.015796,-0.0158 0.00653,-0.01 0.00747,-0.0233 0.015796,-0.0316 0.00372,-0.004 0.012073,0.004 0.015796,0 0.00372,-0.004 -0.00235,-0.0111 0,-0.0158 0.00666,-0.0133 0.023331,-0.0192 0.031592,-0.0316 0.03136,-0.0142 0.00609,-0.0438 0.015796,-0.0632 0.00235,-0.005 0.013441,0.005 0.015796,0 0.00632,-0.0126 -0.00632,-0.0347 0,-0.0474 0.00333,-0.007 0.00914,-0.0125 0.015796,-0.0158 0.00471,-0.002 0.013441,0.005 0.015796,0 0.00471,-0.009 0,-0.0211 0,-0.0316 0,-0.0316 0,-0.0632 0,-0.0948 0,-0.007 -0.00241,-0.0426 0,-0.0474 0.00333,-0.007 0.012467,-0.009 0.015796,-0.0158 0.00471,-0.009 0,-0.0211 0,-0.0316 0,-0.0316 0,-0.0632 0,-0.0948 0,-0.007 0.00418,-0.0432 0,-0.0474 -0.00372,-0.004 -0.012073,0.004 -0.015796,0 -0.00745,-0.007 0.00745,-0.0241 0,-0.0316 -0.00372,-0.004 -0.011086,0.002 -0.015796,0 -0.00666,-0.003 -0.00914,-0.0125 -0.015796,-0.0158 -0.00942,-0.005 -0.021061,0 -0.031592,0 -0.036857,0 -0.073715,0 -0.110572,0 -0.00527,0 -0.01053,0 -0.015796,0 -0.00527,0 -0.012073,-0.004 -0.015796,0 -0.00372,0.004 0,0.0105 0,0.0158 0,0.0158 0.005,0.0324 0,0.0474 -0.00333,0.01 -0.024146,-0.007 -0.031592,0 -0.00372,0.004 0.00372,0.0121 0,0.0158 -0.0079,0.008 -0.03949,-0.008 -0.047388,0 -0.00745,0.007 0.00745,0.0242 0,0.0316 -0.021061,0.0211 -0.015796,-0.0263 -0.015796,0.0158"
       id="path10323"
       inkscape:connector-curvature="0" />
    <path
       style="fill:#000000;fill-opacity:1;stroke:#ffffff;stroke-width:0.05970149;stroke-miterlimit:4;stroke-dasharray:none"
       d="M 10.38806,15.271078 C 10.16065,15.208268 9.5581938,14.823611 9.5286828,14.722388 9.5143228,14.673138 9.4858908,14.511941 9.4654998,14.36418 9.4451088,14.216418 9.3824028,14.037604 9.326153,13.966814 9.228158,13.843489 9.2051546,13.840992 8.7761194,13.907114 8.2925076,13.981644 8.2297109,14.048401 8.3464216,14.3639 c 0.053982,0.145928 -0.027154,0.537594 -0.1113661,0.537594 -0.02388,0 -0.1066861,0.0667 -0.1840131,0.148222 -0.1814887,0.191335 -0.3012585,0.187759 -0.7376096,-0.02202 -0.4049917,-0.194705 -0.8903581,-0.666254 -0.9505942,-0.923531 -0.082479,-0.352282 0.022307,-0.682257 0.3212918,-1.011756 0.2922724,-0.3221 0.3972853,-0.549623 0.2796811,-0.60596 -0.05075,-0.02431 -0.050892,-0.04107 -5.535e-4,-0.06524 0.1351209,-0.06489 -0.017415,-0.425587 -0.2962067,-0.700431 -0.3908,-0.385268 -0.6372006,-0.796317 -0.6372006,-1.062988 0,-0.180811 0.050865,-0.274313 0.2835821,-0.521287 0.39648,-0.420771 0.5441897,-0.4449947 0.8981484,-0.1472924 0.3579952,0.3010974 0.4994221,0.3749754 0.7178294,0.3749754 0.1841004,0 0.2471151,-0.103885 0.2488787,-0.4102957 C 8.1789747,9.8347817 8.193353,9.824071 8.2686567,9.8865676 8.3848371,9.9829887 8.3847608,9.8862929 8.2684,9.5595426 8.1906701,9.3412756 8.1930306,9.3123052 8.2975864,9.2013337 8.476507,9.011434 9.2651217,8.6365552 9.6235734,8.5710077 9.838849,8.5316418 9.8674718,8.5433266 10.008415,8.7281132 c 0.08375,0.109799 0.243728,0.2327063 0.35551,0.2731274 0.193945,0.070132 0.203239,0.087017 0.203239,0.3692599 0,0.2819647 0.0051,0.2911896 0.108387,0.1976788 0.101632,-0.091976 0.12006,-0.086042 0.29572,0.095225 l 0.187334,0.1933129 -0.284134,0.01208 c -0.292613,0.012441 -0.799367,0.1947578 -0.873147,0.3141348 -0.029088,0.04707 -0.1061601,0.0294 -0.2551186,-0.05849 -0.302824,-0.1786709 -0.8060158,-0.1964521 -1.1420731,-0.04036 -0.2288642,0.106305 -0.2875942,0.176346 -0.4700878,0.560626 -0.1977389,0.416382 -0.2070886,0.464588 -0.1803838,0.930053 0.03857,0.672277 0.315129,1.233314 0.8688351,1.76255 0.4616045,0.441205 0.6419136,0.50253 1.4100952,0.479586 0.660541,-0.01973 0.667634,-0.02149 0.919757,-0.228838 0.172033,-0.141479 0.33208,-0.364549 0.495621,-0.690788 0.238506,-0.475782 0.242154,-0.492998 0.290472,-1.370928 0.02801,-0.508976 0.02624,-0.948788 -0.0042,-1.028717 -0.0292,-0.07679 -0.136419,-0.215738 -0.238272,-0.308766 -0.157071,-0.143462 -0.175246,-0.187719 -0.119707,-0.2914946 0.03602,-0.067294 0.06608,-0.2248645 0.06681,-0.3501575 0.0017,-0.2956262 0.116898,-0.4362649 0.625538,-0.7638332 0.648153,-0.4174161 0.84956,-0.3651381 1.186308,0.3079222 0.08509,0.1700643 0.184403,0.3275621 0.2207,0.3499951 0.0363,0.022433 0.150988,-0.041324 0.254867,-0.1416832 0.184921,-0.1786545 0.192311,-0.1803747 0.353355,-0.082251 0.203816,0.1241847 0.185257,0.1921056 -0.07854,0.2874198 l -0.205351,0.074198 0.215296,0.00454 c 0.155632,0.00328 0.287988,-0.050204 0.477611,-0.1930141 0.3853,-0.290177 0.587195,-0.3542267 1.018824,-0.3232152 0.447338,0.03214 0.747341,0.1085436 0.951526,0.2423312 0.122356,0.080171 0.144447,0.1347986 0.124301,0.3073724 -0.02256,0.1932984 -0.04026,0.2098735 -0.224113,0.2098735 -0.274389,0 -0.503741,0.1149418 -0.503741,0.2524536 0,0.111068 -0.0041,0.110968 -0.165654,-0.0041 -0.380061,-0.2706278 -1.308439,-0.276149 -1.687203,-0.01003 -0.28389,0.199458 -0.329726,0.269452 -0.479586,0.732344 -0.348325,1.075922 0.19828,2.39391 1.171278,2.824216 l 0.31003,0.13711 0.12706,0.470892 c 0.06988,0.25899 0.127061,0.569807 0.127061,0.690706 v 0.219815 h -0.515462 c -0.600345,0 -0.926437,-0.07897 -1.2123,-0.293579 -0.112956,-0.0848 -0.230144,-0.17106 -0.260419,-0.191689 -0.07851,-0.05349 -0.152391,-0.506807 -0.09717,-0.596163 0.02658,-0.04302 -0.01421,-0.194432 -0.09574,-0.35531 -0.229257,-0.452417 -0.541414,-0.463557 -0.947589,-0.03382 -0.400652,0.423896 -0.472393,0.78819 -0.213179,1.082498 0.12849,0.145886 0.07056,0.344915 -0.132393,0.454828 -0.152353,0.08251 -1.358719,0.130763 -1.600382,0.06401 z"
       id="path10913"
       inkscape:connector-curvature="0"
       transform="matrix(0.26458333,0,0,0.26458333,0,288.53333)" />
    <path
       style="fill:#000000;fill-opacity:1;stroke:#ffffff;stroke-width:0.05970149;stroke-miterlimit:4;stroke-dasharray:none"
       d="m 17.641791,14.810924 c -0.131343,-0.04153 -0.413433,-0.123148 -0.626866,-0.181368 -0.213432,-0.05822 -0.419338,-0.13503 -0.457566,-0.17069 -0.06161,-0.05747 -0.258852,-0.637356 -0.258852,-0.761025 0,-0.02621 0.102902,-0.100149 0.228671,-0.164312 0.224614,-0.114589 1.025061,-0.918663 1.025061,-1.029705 0,-0.03115 0.05357,-0.174231 0.119039,-0.31795 0.09557,-0.209792 0.122053,-0.412172 0.134328,-1.026575 0.0084,-0.420898 -0.0077,-0.812284 -0.03587,-0.869746 -0.04183,-0.08542 -0.02368,-0.104478 0.0995,-0.104478 0.08287,0 0.159621,-0.02155 0.170566,-0.04789 0.01094,-0.02634 0.49005,-0.09781 1.064677,-0.1588129 0.574626,-0.061005 1.145522,-0.1228711 1.268656,-0.1374803 0.315486,-0.037431 0.293054,0.098742 -0.04589,0.2785482 -0.352488,0.186994 -0.442988,0.270969 -0.705285,0.654429 -0.233064,0.340724 -0.258241,0.453749 -0.152683,0.685425 0.09408,0.206471 0.252568,0.268316 0.823035,0.321151 0.446377,0.04134 0.514233,0.06382 0.619632,0.205294 0.158272,0.212439 0.07604,0.450812 -0.265325,0.769131 -0.241429,0.225128 -0.271563,0.236196 -0.643982,0.236513 -0.513804,4.36e-4 -0.778365,0.07966 -0.984482,0.294799 -0.141126,0.147304 -0.163428,0.211334 -0.134881,0.387247 0.01881,0.115919 0.103142,0.301147 0.187402,0.411618 0.08426,0.110471 0.153201,0.242045 0.153201,0.292388 0,0.05034 0.0403,0.124977 0.08955,0.165854 0.04925,0.04088 0.08955,0.138196 0.08955,0.216265 v 0.141944 l -0.761194,-0.0075 c -0.425661,-0.0042 -0.866459,-0.04081 -1,-0.08304 z"
       id="path10915"
       inkscape:connector-curvature="0"
       transform="matrix(0.26458333,0,0,0.26458333,0,288.53333)" />
    <path
       style="fill:none;stroke:#000000;stroke-width:0.26458332px;stroke-linecap:butt;stroke-linejoin:miter;stroke-opacity:1"
       d="m 2.3062196,295.86306 c 0.098628,0.0734 0.024271,0.0283 0.1105714,0.0628 0.010932,0.004 0.020568,0.0117 0.031592,0.0158 0.031181,0.0117 0.065541,0.0156 0.094776,0.0316 0.039764,0.0217 0.066158,0.0701 0.1105722,0.079 0.015489,0.003 0.031899,-0.003 0.047388,0 0.063565,0.0127 0.00726,0.0115 0.047388,0.0316 0.038905,0.0195 -0.014258,-0.0458 0.047388,0.0158 0.00372,0.004 -0.00372,0.0121 0,0.0158 0.00372,0.004 0.011086,-0.002 0.015796,0 0.00666,0.003 0.00914,0.0125 0.015796,0.0158 0.00471,0.002 0.0108,-0.002 0.015796,0 0.011171,0.004 0.020423,0.0121 0.031592,0.0158 0.00999,0.003 0.022172,-0.005 0.031592,0 0.013319,0.007 0.017463,0.0269 0.031592,0.0316 0.071908,0 8.996e-4,-0.007 0.047388,0.0158 0.012637,0.006 0.034751,-0.006 0.047388,0 0.062696,0.0314 -0.069813,0.005 0.063184,0.0316 0.010327,0.002 0.021061,0 0.031592,0 0.026326,0 0.052653,0 0.07898,0 0.073715,0 0.1474295,0 0.2211443,0 0.068449,0 0.1368988,0 0.2053481,0 0.016489,0 0.066035,0.004 0.07898,0 0.011168,-0.004 0.020423,-0.0121 0.031592,-0.0158 0.013142,-0.004 0.046907,0 0.063184,0 0.010985,0 0.073268,0.003 0.07898,0 0.00666,-0.003 0.00857,-0.014 0.015796,-0.0158 0.015325,-0.004 0.031592,0 0.047388,0 0.00527,0 0.0108,0.002 0.015796,0 0.011171,-0.004 0.021061,-0.0105 0.031592,-0.0158 0.01053,-0.005 0.021796,-0.009 0.031592,-0.0158 0.012391,-0.008 0.018272,-0.0249 0.031592,-0.0316 0.021788,-0.0109 0.014129,0.0191 0.031592,-0.0158 0.00235,-0.005 -0.00372,-0.0121 0,-0.0158 0.00372,-0.004 0.012073,0.004 0.015796,0 0.00372,-0.004 -0.00235,-0.0111 0,-0.0158 0.00333,-0.007 0.01053,-0.0105 0.015796,-0.0158 0.00527,-0.005 0.00914,-0.0125 0.015796,-0.0158 0.00471,-0.002 0.012073,0.004 0.015796,0 0.00372,-0.004 -0.00372,-0.0121 0,-0.0158 0.00372,-0.004 0.011086,0.002 0.015796,0 0.072292,-0.0362 -0.067029,0.007 0.047388,-0.0316 0.00999,-0.003 0.024146,0.007 0.031592,0 0.032683,-0.0327 -0.049943,10e-4 0.015796,-0.0316 0.021788,-0.0109 0.014129,0.0191 0.031592,-0.0158 0.00235,-0.005 -0.00235,-0.0111 0,-0.0158 0.00333,-0.007 0.012465,-0.009 0.015796,-0.0158 0.010893,-0.0218 -0.019129,-0.0141 0.015796,-0.0316 0.00471,-0.002 0.011086,0.002 0.015796,0 0.018955,-0.009 0.028433,-0.0379 0.047388,-0.0474 0.00471,-0.002 0.01053,0 0.015796,0 0.00527,-0.005 0.00914,-0.0125 0.015796,-0.0158 0.00471,-0.002 0.012073,0.004 0.015796,0 0.00372,-0.004 -0.00372,-0.0121 0,-0.0158 0.0038,-0.004 0.059383,0.004 0.063184,0 0.00372,-0.004 -0.00372,-0.0121 0,-0.0158 0.00372,-0.004 0.012073,0.004 0.015796,0 0.00372,-0.004 -0.00372,-0.0121 0,-0.0158 0.0038,-0.004 0.059383,0.004 0.063184,0 0.00372,-0.004 -0.00372,-0.0121 0,-0.0158 0.00372,-0.004 0.010562,5.6e-4 0.015796,0 0.042187,-0.005 0.084245,-0.0103 0.1263671,-0.0154"
       id="path10917"
       inkscape:connector-curvature="0" />
    <path
       style="fill:#000000;fill-opacity:1;stroke:#ffffff;stroke-width:0.05970149;stroke-miterlimit:4;stroke-dasharray:none"
       d="m 11.61194,28.478135 c -0.270479,-0.09714 -0.482281,-0.18792 -0.656716,-0.281486 -0.336614,-0.18056 -0.571409,-0.280231 -0.66014,-0.280231 -0.05431,0 -0.180253,-0.06859 -0.279876,-0.152413 -0.099623,-0.08383 -0.257979,-0.167783 -0.3519019,-0.186567 -0.093923,-0.01879 -0.1702799,-0.05095 -0.1696823,-0.07147 0.00132,-0.04536 0.2415017,-0.345365 0.5739312,-0.716879 0.379087,-0.423656 0.755179,-0.898859 0.997788,-1.260733 0.30436,-0.453982 0.490028,-0.720212 0.624538,-0.895523 0.197191,-0.257006 0.422141,-0.750027 0.521861,-1.14376 0.20442,-0.807124 0.299978,-1.211396 0.446928,-1.890791 0.119984,-0.554724 0.196147,-1.733117 0.23218,-3.592314 0.02508,-1.29383 0.06135,-1.994689 0.108859,-2.103546 l 0.07125,-0.163246 0.202703,0.119598 0.202704,0.119598 0.03719,1.834693 c 0.02046,1.009082 0.06549,1.982455 0.10007,2.163052 0.07934,0.414325 0.149175,1.040877 0.242884,2.179104 0.09363,1.137243 0.208492,1.459794 1.207175,3.389896 0.07168,0.138542 0.42345,0.543171 0.781698,0.899174 0.358249,0.356003 0.625133,0.664958 0.593076,0.686567 -0.03206,0.02161 -0.150939,0.09802 -0.264182,0.169806 -0.113243,0.07178 -0.266752,0.212829 -0.341132,0.313433 -0.07438,0.100603 -0.168047,0.182915 -0.20815,0.182915 -0.0401,0 -0.230422,0.147762 -0.422929,0.328359 -0.221696,0.207979 -0.407709,0.332099 -0.507387,0.338561 -0.08656,0.0056 -0.251403,0.01989 -0.366329,0.03174 -0.114925,0.01184 -0.719403,0.03204 -1.343283,0.04488 -0.882324,0.01816 -1.187382,0.0043 -1.373135,-0.06242 z"
       id="path10919"
       inkscape:connector-curvature="0"
       transform="matrix(0.26458333,0,0,0.26458333,0,288.53333)" />
  </g>
</svg>
