<?xml version="1.0" encoding="UTF-8" standalone="no"?>
<!-- Created with Inkscape (http://www.inkscape.org/) -->

<svg
   xmlns:dc="http://purl.org/dc/elements/1.1/"
   xmlns:cc="http://creativecommons.org/ns#"
   xmlns:rdf="http://www.w3.org/1999/02/22-rdf-syntax-ns#"
   xmlns:svg="http://www.w3.org/2000/svg"
   xmlns="http://www.w3.org/2000/svg"
   xmlns:sodipodi="http://sodipodi.sourceforge.net/DTD/sodipodi-0.dtd"
   xmlns:inkscape="http://www.inkscape.org/namespaces/inkscape"
   width="16"
   height="16"
   viewBox="0 0 4.2333333 4.2333333"
   version="1.1"
   id="svg4605"
   inkscape:version="0.92.1 r15371"
   sodipodi:docname="Water.svg"
   inkscape:export-filename="C:\Unity\Gods Fate\Assets\Graphics\Icons\Water.png"
   inkscape:export-xdpi="96"
   inkscape:export-ydpi="96">
  <defs
     id="defs4599" />
  <sodipodi:namedview
     id="base"
     pagecolor="#ffffff"
     bordercolor="#666666"
     borderopacity="1.0"
     inkscape:pageopacity="0.0"
     inkscape:pageshadow="2"
     inkscape:zoom="53"
     inkscape:cx="8"
     inkscape:cy="8"
     inkscape:document-units="mm"
     inkscape:current-layer="layer1"
     showgrid="false"
     units="px"
     inkscape:window-width="1920"
     inkscape:window-height="1017"
     inkscape:window-x="-8"
     inkscape:window-y="-8"
     inkscape:window-maximized="1" />
  <metadata
     id="metadata4602">
    <rdf:RDF>
      <cc:Work
         rdf:about="">
        <dc:format>image/svg+xml</dc:format>
        <dc:type
           rdf:resource="http://purl.org/dc/dcmitype/StillImage" />
        <dc:title></dc:title>
      </cc:Work>
    </rdf:RDF>
  </metadata>
  <g
     inkscape:label="Calque 1"
     inkscape:groupmode="layer"
     id="layer1"
     transform="translate(0,-292.76666)">
    <path
       style="fill:#000000;fill-opacity:1;stroke:#ffffff;stroke-width:0.13229166;stroke-miterlimit:4;stroke-dasharray:none"
       id="path5173"
       ry="1.9968554"
       rx="1.9693986"
       cy="294.83841"
       cx="2.0792255" />
    <path
       style="fill:none;fill-opacity:1;stroke:#ffffff;stroke-width:0.13229166;stroke-miterlimit:4;stroke-dasharray:none"
       d="m 0.5191824,295.46741 c 0.0183044,0 0.0366372,-10e-4 0.0549135,0 0.0117486,6.6e-4 0.0232267,0.004 0.034945,0.005 0.006629,6.1e-4 0.0133123,0 0.0199686,0 0.00832,0 0.0166404,0 0.0249608,0 0.0166404,0 0.0332809,0 0.0499214,0 0.00832,0 0.0168021,-0.002 0.0249608,0 0.003649,7.4e-4 0.006454,0.004 0.009984,0.005 0.00158,5.3e-4 0.003328,0 0.004992,0 0.009984,0 0.0199686,0 0.0299528,0 0.003328,0 0.006756,-8.2e-4 0.009984,0 0.005105,10e-4 0.009871,0.004 0.0149765,0.005 0.003323,8.3e-4 0.0291712,0 0.0299528,0 0.0232966,0 0.0465933,0 0.0698899,0 0.0615697,0 0.1231395,0 0.1847092,0 0.026625,0 0.053249,0 0.079874,0 0.00998,0 0.019969,0 0.029953,0 0.00333,0 0.00666,0 0.00998,0 0.00166,0 0.00341,5.3e-4 0.00499,0 0.00353,-0.001 0.00645,-0.004 0.00998,-0.005 0.00316,-0.001 0.00666,0 0.00998,0 0.00832,0 0.016641,0 0.024961,0 0.00499,0 0.010081,9.8e-4 0.014977,0 0.020089,-0.004 0.00229,-0.004 0.014976,-0.01 0.00471,-0.002 0.00987,-0.004 0.014976,-0.005 0.00161,-3.9e-4 0.0035,7.4e-4 0.00499,0 0.00421,-0.002 0.00577,-0.008 0.00998,-0.01 0.00149,-7.4e-4 0.00382,0.001 0.00499,0 0.00263,-0.003 0.0019,-0.008 0.00499,-0.01 0.00277,-0.002 0.00701,10e-4 0.00998,0 0.00149,-7.4e-4 -0.00118,-0.004 0,-0.005 0.015323,-0.0153 0.00415,0.003 0.019969,-0.005 0.00421,-0.002 0.00558,-0.008 0.00998,-0.01 0.00948,-0.004 0.02022,-0.002 0.029953,-0.005 0.00226,-6.3e-4 0.00303,-0.004 0.00499,-0.005 0.0031,-0.002 0.00666,-0.003 0.00998,-0.005 0.00666,-0.003 0.013312,-0.007 0.019969,-0.01 0.00333,-0.002 0.00641,-0.004 0.00998,-0.005 0.031053,-0.009 0.016333,-5.4e-4 0.039937,-0.01 0.00852,0.002 0.00961,-0.007 0.014976,-0.01 0.00499,-0.002 0.00998,-0.003 0.014976,-0.005 0.00166,-0.002 0.00289,-0.004 0.00499,-0.005 0.00149,-7.5e-4 0.0035,7.4e-4 0.00499,0 0.00537,-0.003 0.00961,-0.007 0.014977,-0.01 0.00149,-7.4e-4 0.00382,10e-4 0.00499,0 0.00263,-0.003 0.00236,-0.007 0.00499,-0.01 0.00118,-10e-4 0.00382,0.001 0.00499,0 0.018169,-0.0182 -0.00531,-0.004 0.00998,-0.015 0.0048,-0.004 0.010177,-0.006 0.014976,-0.01 0.00188,-10e-4 0.00303,-0.004 0.00499,-0.005 0.0031,-0.002 0.00735,-0.002 0.00998,-0.005 0.012125,-0.0121 -0.00148,-0.007 0.00998,-0.015 0.0031,-0.002 0.00689,-0.003 0.00998,-0.005 0.00392,-0.003 0.00607,-0.007 0.00998,-0.01 0.0031,-0.002 0.00735,-0.002 0.00998,-0.005 0.00263,-0.003 0.00293,-0.007 0.00499,-0.01 0.0049,-0.007 0.015071,-0.0126 0.019969,-0.02 9.234e-4,-0.001 -0.00118,-0.004 0,-0.005 0.00263,-0.003 0.00735,-0.002 0.00998,-0.005 0.00118,-0.001 -9.234e-4,-0.004 0,-0.005 0.00261,-0.004 0.00737,-0.006 0.00998,-0.01 9.234e-4,-10e-4 -7.435e-4,-0.004 0,-0.005 0.00105,-0.002 0.00369,-0.003 0.00499,-0.005 0.00206,-0.003 0.00236,-0.007 0.00499,-0.01 0.00118,-10e-4 0.00361,9.2e-4 0.00499,0 0.018032,-0.012 0.00194,-0.0129 0.019969,-0.025 0.00138,-9.3e-4 0.00333,0 0.00499,0 0.00333,-0.003 0.00716,-0.006 0.00998,-0.01 0.00606,-0.008 0.00235,-0.01 0.00998,-0.015 0.0031,-0.002 0.00735,-0.002 0.00998,-0.005 0.00118,-10e-4 -9.234e-4,-0.004 0,-0.005 0.00221,-0.003 0.021733,-0.0224 0.024961,-0.025 0.00468,-0.004 0.010177,-0.006 0.014976,-0.01 0.00188,-0.001 0.00303,-0.004 0.00499,-0.005 0.0031,-0.002 0.00708,-0.003 0.00998,-0.005 0.00551,-0.004 0.00998,-0.01 0.014976,-0.015 0.00333,-0.003 0.00716,-0.006 0.00998,-0.01 0.00223,-0.003 0.0019,-0.008 0.00499,-0.01 0.00277,-0.002 0.00722,0.002 0.00998,0 0.00923,-0.006 7.541e-4,-0.009 0.00998,-0.015 0.039937,-0.0266 -0.018304,0.0183 0.014976,-0.015 0.00263,-0.003 0.00735,-0.002 0.00998,-0.005 0.00118,-10e-4 -7.434e-4,-0.003 0,-0.005 0.00211,-0.004 0.00788,-0.006 0.00998,-0.01 7.434e-4,-10e-4 0,-0.003 0,-0.005 0.00166,-0.003 0.00293,-0.007 0.00499,-0.01 0.00765,-0.0115 0.00285,0.002 0.014976,-0.01 0.00118,-0.001 -0.00118,-0.004 0,-0.005 0.00263,-0.003 0.00735,-0.002 0.00998,-0.005 0.012125,-0.0121 -0.00148,-0.007 0.00998,-0.015 0.0031,-0.002 0.00775,-0.002 0.00998,-0.005 0.00316,-0.004 0.00264,-0.0103 0.00499,-0.015 0.00205,-0.004 0.017507,-0.0163 0.019969,-0.02 9.234e-4,-0.001 -9.234e-4,-0.004 0,-0.005 0.00261,-0.004 0.00716,-0.006 0.00998,-0.01 0.00223,-0.003 0.00293,-0.007 0.00499,-0.01 0.0049,-0.007 0.015071,-0.0126 0.019969,-0.02 0.00206,-0.003 0.00293,-0.007 0.00499,-0.01 0.00458,-0.007 0.0077,-0.005 0.014977,-0.01 0.011469,-0.008 -0.00214,-0.003 0.00998,-0.015 0.00263,-0.003 0.00689,-0.003 0.00998,-0.005 0.00196,-10e-4 0.00333,-0.003 0.00499,-0.005 0.00832,-0.008 0.01664,-0.0166 0.024961,-0.025 0.00333,-0.003 0.00607,-0.007 0.00998,-0.01 0.0031,-0.002 0.00735,-0.002 0.00998,-0.005 0.00263,-0.003 0.0019,-0.008 0.00499,-0.01 0.00277,-0.002 0.00763,0.002 0.00998,0 0.00372,-0.004 0.00229,-0.0105 0.00499,-0.015 0.00242,-0.004 0.00737,-0.006 0.00998,-0.01 9.234e-4,-10e-4 0,-0.003 0,-0.005 0.00333,-0.003 0.00607,-0.007 0.00998,-0.01 0.00138,-9.2e-4 0.00382,10e-4 0.00499,0 0.00263,-0.003 0.00236,-0.007 0.00499,-0.01 0.00263,-0.003 0.00735,-0.002 0.00998,-0.005 0.00263,-0.003 0.0019,-0.008 0.00499,-0.01 0.00277,-0.002 0.00722,0.002 0.00998,0 0.0031,-0.002 0.00236,-0.007 0.00499,-0.01 0.00118,-10e-4 0.00361,9.3e-4 0.00499,0 0.00392,-0.003 0.00666,-0.007 0.00998,-0.01 0.00747,-0.007 0.01716,-0.0187 0.024961,-0.025 0.00468,-0.004 0.00961,-0.007 0.014976,-0.01 0.00149,-7.4e-4 0.00425,10e-4 0.00499,0 0.00149,-0.003 -0.00235,-0.008 0,-0.01 0.00235,-0.002 0.00683,0.001 0.00998,0 0.00223,-7.4e-4 0.00289,-0.004 0.00499,-0.005 0.00149,-7.5e-4 0.00382,0.001 0.00499,0 0.025512,-0.0255 -0.020932,0.007 0.014976,-0.02 0.00808,-0.006 0.00989,-0.002 0.014976,-0.01 0.00206,-0.003 0.00293,-0.007 0.00499,-0.01 0.0013,-0.002 0.00333,-0.003 0.00499,-0.005 0.00166,-0.002 0.00303,-0.004 0.00499,-0.005 0.0031,-0.002 0.00689,-0.003 0.00998,-0.005 0.00196,-10e-4 0.00276,-0.004 0.00499,-0.005 0.00316,-10e-4 0.00722,0.002 0.00998,0 0.018241,-0.0122 -0.00535,-0.007 0.00998,-0.015 0.01775,-0.009 -0.019969,0.0266 0.019969,0 0.00277,-0.002 -0.00235,-0.008 0,-0.01 0.00235,-0.002 0.00683,10e-4 0.00998,0 0.00447,-10e-4 0.00552,-0.008 0.00998,-0.01 0.00316,-0.001 0.00722,0.002 0.00998,0 0.0031,-0.002 0.0019,-0.008 0.00499,-0.01 0.00277,-0.002 0.00763,0.002 0.00998,0 0.00235,-0.002 -0.00235,-0.008 0,-0.01 0.00235,-0.002 0.00701,0.001 0.00998,0 0.00149,-7.5e-4 -7.435e-4,-0.004 0,-0.005 0.00105,-0.002 0.00289,-0.004 0.00499,-0.005 0.00149,-7.4e-4 0.0035,7.5e-4 0.00499,0 0.00211,-10e-4 0.00289,-0.004 0.00499,-0.005 0.00149,-7.4e-4 0.00333,0 0.00499,0 0.00333,-0.002 0.00689,-0.003 0.00998,-0.005 0.00392,-0.003 0.00577,-0.008 0.00998,-0.01 0.00399,-0.002 0.010983,0.002 0.014977,0 0.00211,-10e-4 0.00289,-0.004 0.00499,-0.005 0.00149,-7.4e-4 0.00341,5.3e-4 0.00499,0 0.00706,-0.002 0.012908,-0.008 0.019969,-0.01 0.00474,-0.002 0.010133,10e-4 0.014976,0 0.00904,0.003 0.00928,-0.008 0.014976,-0.01 0.00316,-0.001 0.00666,0 0.00998,0 0.00832,0 0.016802,0.002 0.024961,0 0.00365,-7.3e-4 0.00637,-0.004 0.00998,-0.005 0.03853,-0.01 -0.033431,0.0192 0.024961,-0.01 0.00149,-7.5e-4 0.00333,0 0.00499,0 0.00333,0 0.00666,0 0.00998,0 0.00998,0 0.019969,0 0.029953,0 0.041601,0 0.083202,0 0.1248034,0 0.029953,0 0.059906,0 0.089859,0 0.00999,0 0.019968,0 0.029953,0 0.00499,0 0.010239,-0.002 0.014975,0 0.022826,0.008 -0.021148,0.004 0.014975,0.01 0.00657,0.001 0.013512,-0.002 0.019968,0 0.00161,4.1e-4 -0.00138,0.004 0,0.005 0.00603,0.0121 0.017373,10e-4 0.024961,0.005 0.00148,7.4e-4 -0.00116,0.004 0,0.005 0.00235,0.002 0.00722,-0.002 0.00999,0 0.00392,0.003 0.00578,0.008 0.00999,0.01 0.00447,0.002 0.010512,-0.002 0.014975,0 0.00537,0.003 0.00941,0.008 0.014976,0.01 0.00309,10e-4 0.00722,-0.002 0.00999,0 0.0031,0.002 0.00167,0.008 0.00499,0.01 0.00447,0.002 0.010081,-9.8e-4 0.014975,0 0.02009,0.004 0.0023,0.004 0.014976,0.01 0.00148,7.4e-4 0.0035,-7.5e-4 0.00499,0 0.00212,0.001 0.00289,0.004 0.00499,0.005 0.00148,7.4e-4 0.00338,-4.1e-4 0.00499,0 0.00511,0.001 0.010271,0.003 0.014975,0.005 0.00421,0.002 0.00577,0.008 0.00998,0.01 0.00471,0.002 0.010271,0.003 0.014975,0.005 0.00212,10e-4 0.00276,0.004 0.00499,0.005 0.00316,10e-4 0.00683,-0.001 0.00999,0 0.00222,7.4e-4 0.00303,0.004 0.00499,0.005 0.0031,0.002 0.00666,0.003 0.00999,0.005 0.00333,0.002 0.00653,0.004 0.00999,0.005 0.00489,0.002 0.010269,0.003 0.014975,0.005 0.00212,0.001 0.00303,0.004 0.00499,0.005 0.0031,0.002 0.00689,0.003 0.00999,0.005 0.00196,0.001 0.00289,0.004 0.00499,0.005 0.00148,7.5e-4 0.00333,0 0.00499,0 0.00333,0.002 0.00689,0.003 0.00999,0.005 0.014285,0.01 -0.00765,9.3e-4 0.014975,0.01 0.00489,0.002 0.010597,0.002 0.014975,0.005 0.00138,9.3e-4 -0.00116,0.004 0,0.005 0.00262,0.003 0.00689,0.003 0.00999,0.005 0.00924,0.006 7.408e-4,0.004 0.00999,0.01 -5.556e-4,0.009 0.01165,0.003 0.014975,0.005 0.020775,0.0104 -0.00534,-3.4e-4 0.00499,0.01 0.00666,0.007 0.00479,-0.0106 0.00999,0.005 0.00106,0.003 -0.00148,0.007 0,0.01 7.408e-4,10e-4 0.00382,-0.001 0.00499,0 0.00116,10e-4 -0.00116,0.004 0,0.005 0.010329,0.0103 -3.969e-4,-0.0158 0.00998,0.005 7.408e-4,10e-4 -7.408e-4,0.004 0,0.005 0.00106,0.002 0.00394,0.003 0.00499,0.005 7.408e-4,10e-4 -7.409e-4,0.004 0,0.005 0.00106,0.002 0.00369,0.003 0.00499,0.005 0.00206,0.003 0.00293,0.007 0.00499,0.01 0.00262,0.004 0.00788,0.006 0.00999,0.01 7.409e-4,0.001 -7.408e-4,0.004 0,0.005 0.00106,0.002 0.00369,0.003 0.00499,0.005 0.00206,0.003 0.00333,0.007 0.00499,0.01 0.00167,0.003 0.00382,0.006 0.00499,0.01 5.292e-4,0.002 -5.292e-4,0.003 0,0.005 0.00116,0.004 0.00382,0.006 0.00499,0.01 5.291e-4,0.002 -7.409e-4,0.004 0,0.005 0.00212,0.004 0.00737,0.006 0.00999,0.01 0.00167,0.003 0.00333,0.007 0.00499,0.01 0,0.002 -7.408e-4,0.004 0,0.005 0.00106,0.002 0.00394,0.003 0.00499,0.005 7.409e-4,10e-4 0,0.003 0,0.005 0.00167,0.003 0.00293,0.007 0.00499,0.01 0.0013,0.002 0.00394,0.003 0.00499,0.005 0.00198,0.004 -0.00198,0.011 0,0.015 0.00106,0.002 0.00394,0.003 0.00499,0.005 8.996e-4,0.002 0,0.0215 0,0.025 0,0.0183 0,0.0366 0,0.0549 0,0.0133 0,0.0266 0,0.0399 0,0.002 0,0.003 0,0.005 0,0.002 0.00116,0.004 0,0.005 -0.00116,0.001 -0.00382,-10e-4 -0.00499,0 -0.00249,0.002 0.00249,0.0125 0,0.015 -0.00666,0.007 -0.00479,-0.0106 -0.00999,0.005 -0.00212,0.006 0.00212,0.0137 0,0.02 -0.00148,0.004 -0.00788,0.006 -0.00998,0.01 -7.408e-4,0.001 7.408e-4,0.004 0,0.005 -0.00106,0.002 -0.00394,0.003 -0.00499,0.005 -0.00148,0.003 0.00148,0.007 0,0.01 -0.011425,0.0229 0.00206,-0.0212 -0.00999,0.015 -0.00106,0.003 0.00148,0.007 0,0.01 -0.010388,0.0208 3.44e-4,-0.005 -0.00999,0.005 -0.00116,10e-4 0.00116,0.004 0,0.005 -0.00116,0.001 -0.00425,-10e-4 -0.00499,0 -0.00148,0.003 0.00106,0.007 0,0.01 -7.409e-4,0.002 -0.00333,0.003 -0.00499,0.005 -0.00167,0.002 -0.00289,0.004 -0.00499,0.005 -0.00148,7.4e-4 -0.00382,-10e-4 -0.00499,0 -0.00116,0.001 0.00116,0.004 0,0.005 -0.00116,10e-4 -0.00382,-0.001 -0.00499,0 -0.00116,10e-4 0.00167,0.005 0,0.005 -0.00167,0 0,-0.003 0,-0.005 0,-0.002 0,-0.003 0,-0.005 0,-0.0116 0,-0.0233 0,-0.0349 0,-0.0133 0,-0.0266 0,-0.0399 0,-0.003 6.615e-4,-0.0187 0,-0.02 -0.00212,-0.004 -0.00788,-0.006 -0.00999,-0.01 -0.00148,-0.003 0.00106,-0.007 0,-0.01 -0.00116,-0.004 -0.00382,-0.006 -0.00499,-0.01 -5.292e-4,-0.002 0.00116,-0.004 0,-0.005 -0.00116,-10e-4 -0.00382,0.001 -0.00499,0 -0.00235,-0.002 0.00235,-0.008 0,-0.01 -0.00262,-0.003 -0.00689,-0.003 -0.00999,-0.005 -0.00212,-10e-4 -0.013943,-0.0129 -0.014975,-0.015 0,-0.0133 0.00167,0.002 -0.00499,-0.005 -0.010329,-0.0103 0.015785,4e-4 -0.00499,-0.01 -0.013311,0 0.00167,0.002 -0.00499,-0.005 -0.00116,-10e-4 -0.00382,0.001 -0.00499,0 -0.00116,-10e-4 0.00116,-0.004 0,-0.005 -0.00116,-10e-4 -0.00425,0.001 -0.00499,0 -0.00148,-0.003 0.00148,-0.007 0,-0.01 -0.00516,0 -0.0069,0.001 -0.00998,-0.005 -7.408e-4,-10e-4 7.408e-4,-0.004 0,-0.005 -0.00106,-0.002 -0.00333,-0.003 -0.00499,-0.005 -0.00167,-0.002 -0.00289,-0.004 -0.00499,-0.005 -0.00148,-7.4e-4 -0.00382,10e-4 -0.00499,0 -0.00116,-0.001 0.00116,-0.004 0,-0.005 -0.00116,-0.001 -0.00382,10e-4 -0.00499,0 -0.00116,-0.001 0.00116,-0.004 0,-0.005 -0.00116,-0.001 -0.00382,10e-4 -0.00499,0 -0.00116,-0.001 0.00148,-0.004 0,-0.005 -0.00298,-0.001 -0.00683,10e-4 -0.00999,0 -0.00447,-0.001 -0.00552,-0.008 -0.00999,-0.01 -0.00316,-10e-4 -0.00701,0.001 -0.00999,0 -0.00148,-7.4e-4 7.409e-4,-0.004 0,-0.005 -0.00106,-0.002 -0.00289,-0.004 -0.00499,-0.005 -0.00251,-10e-4 -0.03176,0.001 -0.034945,0 -0.00159,-5.3e-4 0.00148,-0.004 0,-0.005 -0.00447,-0.002 -0.010512,0.002 -0.014975,0 -0.00212,-10e-4 -0.00289,-0.004 -0.00499,-0.005 -0.00148,-7.5e-4 -0.00333,0 -0.00499,0 -0.00167,0 -0.00333,0 -0.00499,0 -0.00998,0 -0.019968,0 -0.029953,0 -0.034945,0 -0.06989,0 -0.1048351,0 -0.018304,0 -0.036609,0 -0.054913,0 -0.00999,0 -0.020029,-10e-4 -0.029953,0 -0.054401,0.006 0.013224,0.005 -0.024961,0.005 -0.01664,0 -0.033281,0 -0.049921,0 -0.00499,0 -0.00999,0 -0.014975,0 -0.00167,0 -0.00361,-9.3e-4 -0.00499,0 -0.00392,0.003 -0.00561,0.008 -0.00999,0.01 -0.00342,0.001 -0.027052,-10e-4 -0.029953,0 -0.00212,0.001 -0.00289,0.004 -0.00499,0.005 -0.00148,7.5e-4 -0.0035,-7.4e-4 -0.00499,0 -0.00212,0.001 -0.00276,0.004 -0.00499,0.005 -0.00448,0.003 -0.010239,-0.002 -0.014975,0 -0.00353,10e-4 -0.00645,0.004 -0.00999,0.005 -0.00159,5.2e-4 -0.0035,-7.5e-4 -0.00499,0 -0.00212,10e-4 -0.00303,0.004 -0.00499,0.005 -0.0031,0.002 -0.00666,0.003 -0.00999,0.005 -0.00333,0.002 -0.00646,0.004 -0.00999,0.005 -0.00316,10e-4 -0.00701,-0.001 -0.00999,0 -0.00211,10e-4 -0.00276,0.004 -0.00499,0.005 -0.00316,10e-4 -0.00683,-10e-4 -0.00998,0 -0.00223,7.4e-4 -0.00303,0.004 -0.00499,0.005 -0.0031,0.002 -0.00689,0.003 -0.00998,0.005 -0.00392,0.003 -0.00577,0.008 -0.00998,0.01 -0.00149,7.4e-4 -0.00361,-9.3e-4 -0.00499,0 -0.00392,0.003 -0.00607,0.007 -0.00998,0.01 -0.00138,9.2e-4 -0.0035,-7.4e-4 -0.00499,0 -0.00211,0.001 -0.00303,0.004 -0.00499,0.005 -0.0031,0.002 -0.00735,0.002 -0.00998,0.005 -0.010329,0.0103 0.015784,-4e-4 -0.00499,0.01 -0.00149,7.4e-4 -0.00382,-0.001 -0.00499,0 -0.00235,0.002 0.00235,0.008 0,0.01 -0.00118,10e-4 -0.0035,-7.4e-4 -0.00499,0 -0.00133,6.6e-4 -0.014314,0.0136 -0.014976,0.015 -7.435e-4,0.001 7.435e-4,0.004 0,0.005 -0.00211,0.004 -0.0085,0.006 -0.00998,0.01 0,0.0227 0.00235,2.8e-4 -0.00499,0.015 -0.00146,0.003 9.208e-4,0.0213 0,0.025 -9.022e-4,0.004 -0.00382,0.006 -0.00499,0.01 -5.266e-4,0.002 7.434e-4,0.003 0,0.005 -0.00105,0.002 -0.00442,0.003 -0.00499,0.005 -8.969e-4,0.004 0,0.0245 0,0.0299 0,0.002 0,0.003 0,0.005 0,0.002 7.435e-4,0.004 0,0.005 -0.00105,0.002 -0.00394,0.003 -0.00499,0.005 -7.434e-4,10e-4 0,0.003 0,0.005 0,0.002 -7.434e-4,0.0285 0,0.03 0.00105,0.002 0.00394,0.003 0.00499,0.005 0.00149,0.003 -0.00149,0.007 0,0.01 0.011787,0.0236 -0.00262,-0.0305 0.00998,0.02 8.07e-4,0.003 -0.00149,0.007 0,0.01 0.00105,0.002 0.00425,0.003 0.00499,0.005 0.00105,0.003 -0.00149,0.007 0,0.01 7.434e-4,0.001 0.00382,-10e-4 0.00499,0 0.00118,0.001 -5.265e-4,0.003 0,0.005 0.00118,0.004 0.00382,0.006 0.00499,0.01 5.265e-4,0.002 -7.435e-4,0.003 0,0.005 0.00211,0.004 0.00788,0.006 0.00998,0.01 7.435e-4,10e-4 -7.435e-4,0.004 0,0.005 0.00529,0.0106 0.00469,-6e-4 0.00998,0.01 0.00149,0.003 -0.00149,0.007 0,0.01 0.00221,0.004 0.011947,0.0104 0.014976,0.015 0.00206,0.003 0.00293,0.007 0.00499,0.01 0.0013,0.002 0.00394,0.003 0.00499,0.005 7.435e-4,10e-4 -0.00118,0.004 0,0.005 0.00118,10e-4 0.0035,-7.4e-4 0.00499,0 0.011038,0.006 0.00155,0.003 0.00499,0.01 8.07e-4,0.002 0.017696,0.0185 0.019969,0.02 0.0031,0.002 0.00689,0.003 0.00998,0.005 0.0045,0.003 0.017056,0.019 0.019969,0.02 0.00316,0.001 0.00683,-10e-4 0.00999,0 0.00305,0.001 0.015761,0.0172 0.019968,0.02 0.0031,0.002 0.00689,0.003 0.00998,0.005 0.00196,10e-4 0.00271,0.004 0.00499,0.005 0.00947,0.002 0.01515,-0.005 0.019968,0.005 7.408e-4,10e-4 -0.00138,0.004 0,0.005 0.00876,0.006 0.021196,0.004 0.029953,0.01 0.00138,9.2e-4 -0.00116,0.004 0,0.005 0.00262,0.003 0.00689,0.003 0.00998,0.005 0.00455,0.003 0.010552,0.0128 0.014975,0.015 0.00148,7.4e-4 0.0035,-7.5e-4 0.00499,0 0.00421,0.002 0.00577,0.008 0.00999,0.01 0.00148,7.4e-4 0.00333,0 0.00499,0 0.00333,0 0.00683,-0.001 0.00999,0 0.00447,10e-4 0.00577,0.008 0.00999,0.01 0.00148,7.4e-4 0.0035,-7.5e-4 0.00499,0 0.00421,0.002 0.00577,0.008 0.00998,0.01 0.00148,7.4e-4 0.0035,-7.4e-4 0.00499,0 0.00212,0.001 0.00289,0.004 0.00499,0.005 0.00271,0.001 0.018603,-10e-4 0.019968,0 0.00116,0.001 -0.00116,0.004 0,0.005 0.00773,0.008 0.025382,0.005 0.034945,0.005 0.00333,0 0.00675,-8.2e-4 0.00999,0 0.00361,9e-4 0.00666,0.003 0.00999,0.005 0.00666,0.003 0.012909,0.008 0.019968,0.01 0.00159,5.2e-4 0.00333,0 0.00499,0 0.00499,0 0.00999,0 0.014975,0 0.014975,0 0.029953,0 0.044929,0 0.028289,0 0.056577,0 0.084866,0 0.00483,0 0.028472,7.4e-4 0.029953,0 0.00212,-0.001 0.00289,-0.004 0.00499,-0.005 0.00315,-0.002 0.021812,0.002 0.024961,0 0.00212,-0.001 0.00276,-0.004 0.00499,-0.005 0.0053,-0.002 0.014663,0.002 0.019968,0 0.00353,-10e-4 0.00637,-0.004 0.00999,-0.005 0.00323,-8.2e-4 0.00666,0 0.00999,0 0.00333,0 0.00666,0 0.00999,0 0.054175,0 -0.00795,0.001 0.059906,-0.005 0.00663,-6e-4 0.013311,0 0.019968,0 0.014975,0 0.029953,0 0.044929,0 0.00347,0 0.023156,9e-4 0.024961,0 0.00212,-10e-4 0.00289,-0.004 0.00499,-0.005 0.00265,-10e-4 0.021564,0.001 0.024961,0 0.00222,-7.4e-4 0.00289,-0.004 0.00499,-0.005 0.00148,-7.4e-4 0.00333,0 0.00499,0 0.00499,0 0.010081,9.8e-4 0.014975,0 0.02009,-0.004 0.0023,-0.004 0.014975,-0.01 0.0014,-7.1e-4 0.031129,0 0.034945,0 0.00167,0 0.00333,0 0.00499,0 0.00167,0 0.0035,7.4e-4 0.00499,0 0.00212,-10e-4 0.00276,-0.004 0.00499,-0.005 0.00402,-10e-4 0.027086,10e-4 0.029953,0 0.00212,-10e-4 0.00276,-0.004 0.00499,-0.005 0.00474,-0.002 0.00999,0 0.014975,0 0.011647,0 0.023297,0 0.034945,0 0.00499,0 0.010512,0.002 0.014975,0 0.00148,-7.4e-4 -0.00116,-0.004 0,-0.005 0.00116,-0.001 0.00333,0 0.00499,0 0.00333,0 0.00666,0 0.00999,0 0.026625,0 0.053249,0 0.079874,0 0.018304,0 0.036609,0 0.054913,0 0.0014,0 0.031,0 0.014975,0"
       id="path6311"
       inkscape:connector-curvature="0" />
  </g>
  <g
     inkscape:groupmode="layer"
     id="layer2"
     inkscape:label="Calque 2" />
</svg>
