<?xml version="1.0" encoding="UTF-8" standalone="no"?>
<!-- Created with Inkscape (http://www.inkscape.org/) -->

<svg
   xmlns:dc="http://purl.org/dc/elements/1.1/"
   xmlns:cc="http://creativecommons.org/ns#"
   xmlns:rdf="http://www.w3.org/1999/02/22-rdf-syntax-ns#"
   xmlns:svg="http://www.w3.org/2000/svg"
   xmlns="http://www.w3.org/2000/svg"
   xmlns:sodipodi="http://sodipodi.sourceforge.net/DTD/sodipodi-0.dtd"
   xmlns:inkscape="http://www.inkscape.org/namespaces/inkscape"
   width="32"
   height="32"
   viewBox="0 0 8.4666667 8.4666667"
   version="1.1"
   id="svg4517"
   inkscape:version="0.92.1 r15371"
   sodipodi:docname="Wind.svg"
   inkscape:export-filename="C:\Unity\Gods Fate\Assets\Graphics\Icons\Wind.png"
   inkscape:export-xdpi="96"
   inkscape:export-ydpi="96">
  <defs
     id="defs4511" />
  <sodipodi:namedview
     id="base"
     pagecolor="#ffffff"
     bordercolor="#666666"
     borderopacity="1.0"
     inkscape:pageopacity="0.0"
     inkscape:pageshadow="2"
     inkscape:zoom="16.75"
     inkscape:cx="4.358209"
     inkscape:cy="20.776119"
     inkscape:document-units="mm"
     inkscape:current-layer="layer1"
     showgrid="false"
     units="px"
     inkscape:window-width="1920"
     inkscape:window-height="1017"
     inkscape:window-x="-8"
     inkscape:window-y="-8"
     inkscape:window-maximized="1" />
  <metadata
     id="metadata4514">
    <rdf:RDF>
      <cc:Work
         rdf:about="">
        <dc:format>image/svg+xml</dc:format>
        <dc:type
           rdf:resource="http://purl.org/dc/dcmitype/StillImage" />
        <dc:title></dc:title>
      </cc:Work>
    </rdf:RDF>
  </metadata>
  <g
     inkscape:label="Calque 1"
     inkscape:groupmode="layer"
     id="layer1"
     transform="translate(0,-288.53333)">
    <path
       style="fill:none;stroke:#000000;stroke-width:0.26458332px;stroke-linecap:butt;stroke-linejoin:miter;stroke-opacity:1"
       d="m 0.90037313,292.68768 c 0.0789801,0 0.15796017,0 0.23694027,0 0.00538,0 0.054635,-0.003 0.063184,0 0.011169,0.004 0.019909,0.0143 0.031592,0.0158 0.031348,0.004 0.063184,0 0.094776,0 0.047388,0 0.094776,0 0.1421641,0 0.047388,0 0.094776,0 0.1421642,0 0.010531,0 0.021061,0 0.031592,0 0.010531,0 0.021602,-0.003 0.031592,0 0.00706,0.002 0.00914,0.0125 0.015796,0.0158 0.00471,0.002 0.010531,0 0.015796,0 0.015796,0 0.031689,-0.002 0.047388,0 0.031832,0.004 0.062996,0.0118 0.094776,0.0158 0.010449,0.001 0.021376,-0.003 0.031592,0 0.011422,0.003 0.020047,0.0135 0.031592,0.0158 0.016424,0.003 0.1517273,0 0.1579602,0 0.089511,0 0.1790216,0 0.2685324,0 0.2895937,0 0.5791875,0 0.8687811,0 0.1316333,0 0.263267,0 0.3949004,0 0.052653,0 0.1053068,0 0.1579602,0 0.022474,0 0.059697,-0.005 0.07898,0 0.016153,0.004 0.031235,0.0118 0.047388,0.0158 0.00511,10e-4 0.01053,0 0.015796,0 0.015796,0 0.031592,0 0.047388,0 0.047388,0 0.094776,0 0.1421644,0 0.1263681,0 0.252736,0 0.3791042,0 0.4264927,0 0.8529852,0 1.2794776,0 0.152695,0 0.3053898,0 0.4580848,0 0.052653,0 0.1053068,0 0.1579599,0 0.016121,0 0.081145,0.005 0.094776,0 0.00706,-0.002 0.00914,-0.0125 0.015796,-0.0158 0.012637,-0.006 0.034751,0.006 0.047388,0 0.00666,-0.003 0.00914,-0.0125 0.015796,-0.0158 0.00471,-0.002 0.01053,0 0.015796,0 0.015796,0 0.031899,0.003 0.047388,0 0.011544,-0.002 0.020423,-0.0121 0.031592,-0.0158 0.005,-0.002 0.010689,10e-4 0.015796,0 0.016153,-0.004 0.031061,-0.0125 0.047388,-0.0158 0.035239,-0.007 0.075746,0.009 0.1105721,0 0.014449,-0.004 0.017465,-0.0269 0.031592,-0.0316 0.019981,-0.007 0.042752,0.005 0.063184,0 0.076278,-0.0191 -7.938e-4,-0.008 0.047388,-0.0316 0.018156,-0.009 0.020939,0.0124 0.063184,-0.0158 0.0062,-0.004 0.00849,-0.0143 0.015796,-0.0158 0.045565,-0.009 0.096599,0.009 0.1421643,0 0.011544,-0.002 0.020169,-0.0129 0.031592,-0.0158 0.010216,-0.003 0.021601,0.003 0.031592,0 0.00706,-0.002 0.01053,-0.0105 0.015796,-0.0158 0.01053,-0.005 0.020423,-0.0121 0.031592,-0.0158 0.00999,-0.003 0.024146,0.007 0.031592,0 0.00372,-0.004 -0.00235,-0.0111 0,-0.0158 0.035954,-0.036 0.00418,0.003 0.015796,-0.0316 0.00527,-0.0105 0.01053,-0.0211 0.015796,-0.0316 0.00527,0 0.012073,0.004 0.015796,0 0.00372,-0.004 -0.00167,-0.0108 0,-0.0158 0.00372,-0.0112 0.012073,-0.0204 0.015796,-0.0316 0.00167,-0.005 -0.00235,-0.0111 0,-0.0158 0.00933,-0.0187 0.035771,-0.03 0.047388,-0.0474 0.00653,-0.01 0.012073,-0.0204 0.015796,-0.0316 0.00167,-0.005 -0.00372,-0.0121 0,-0.0158 0.00372,-0.004 0.012073,0.004 0.015796,0 0.00372,-0.004 -0.00372,-0.0121 0,-0.0158 0.00372,-0.004 0.012073,0.004 0.015796,0 0.00372,-0.004 0,-0.0105 0,-0.0158 0,-0.0211 0,-0.0421 0,-0.0632 0,-0.0527 0,-0.1053 0,-0.15796 0,-0.006 0.00337,-0.0722 0,-0.079 -0.00333,-0.007 -0.012467,-0.009 -0.015796,-0.0158 -0.00235,-0.005 0.00235,-0.0111 0,-0.0158 -0.00333,-0.007 -0.012465,-0.009 -0.015796,-0.0158 -0.00471,-0.009 0.00471,-0.0222 0,-0.0316 -0.00948,-0.019 -0.037911,-0.0284 -0.047388,-0.0474 -0.00235,-0.005 0.00372,-0.0121 0,-0.0158 -0.00372,-0.004 -0.012073,0.004 -0.015796,0 -0.00372,-0.004 0.00235,-0.0111 0,-0.0158 -0.00333,-0.007 -0.012467,-0.009 -0.015796,-0.0158 -0.00235,-0.005 0.00235,-0.0111 0,-0.0158 -0.00333,-0.007 -0.012467,-0.009 -0.015796,-0.0158 -0.00235,-0.005 0.00235,-0.0111 0,-0.0158 -0.03287,-0.0657 0.00108,0.0169 -0.031592,-0.0158 -0.00372,-0.004 0.00235,-0.0111 0,-0.0158 -0.00333,-0.007 -0.01053,-0.0105 -0.015796,-0.0158 -0.00527,-0.005 -0.00914,-0.0125 -0.015796,-0.0158 -0.00471,-0.002 -0.012073,0.004 -0.015796,0 -0.00372,-0.004 0.00235,-0.0111 0,-0.0158 -0.00333,-0.007 -0.012467,-0.009 -0.015796,-0.0158 -0.00235,-0.005 0.00372,-0.0121 0,-0.0158 -0.032682,-0.0327 0.00127,0.0499 -0.031592,-0.0158 -0.00235,-0.005 0.00235,-0.0111 0,-0.0158 -0.00333,-0.007 -0.013441,-0.009 -0.015796,-0.0158 -0.00333,-0.01 0.00745,-0.0241 0,-0.0316 -0.00745,-0.007 -0.022172,0.005 -0.031592,0 -0.00471,-0.002 0.00235,-0.0111 0,-0.0158 -0.00333,-0.007 -0.01053,-0.0105 -0.015796,-0.0158 -0.00527,-0.005 -0.00914,-0.0125 -0.015796,-0.0158 -0.00471,-0.002 -0.012073,0.004 -0.015796,0 -0.00372,-0.004 0.00372,-0.0121 0,-0.0158 -0.00372,-0.004 -0.012073,0.004 -0.015796,0 -0.00372,-0.004 0.00372,-0.0121 0,-0.0158 -0.00372,-0.004 -0.012073,0.004 -0.015796,0 -0.032682,-0.0327 0.049943,10e-4 -0.015796,-0.0316 -0.00471,-0.002 -0.012073,0.004 -0.015796,0 -0.00372,-0.004 0.00372,-0.0121 0,-0.0158 -0.00745,-0.007 -0.024146,0.007 -0.031592,0 -0.032682,-0.0327 0.049943,0.001 -0.015796,-0.0316 -0.00471,-0.002 -0.011086,0.002 -0.015796,0 -0.00666,-0.003 -0.00914,-0.0125 -0.015796,-0.0158 -0.00942,-0.005 -0.024146,0.007 -0.031592,0 -0.021061,-0.0211 0.026326,-0.0158 -0.015796,-0.0158"
       id="path13500"
       inkscape:connector-curvature="0" />
    <path
       style="fill:none;stroke:#000000;stroke-width:0.26458332px;stroke-linecap:butt;stroke-linejoin:miter;stroke-opacity:1"
       d="m 0.82139302,292.00845 c 0.38963518,0 0.77927028,0 1.16890548,0 0.063184,0 0.1263681,0 0.1895522,0 0.031592,0 0.063184,0 0.094776,0 0.010531,0 0.021167,-10e-4 0.031592,0 0.026578,0.004 0.052184,0.0141 0.07898,0.0158 0.057806,0.004 0.1158374,0 0.1737562,0 0.063184,0 0.1263682,0 0.1895523,0 0.1684909,0 0.3369818,0 0.5054724,0 0.5107382,0 1.0214761,0 1.532214,0 0.1000416,0 0.2000829,0 0.3001246,0 0.015796,0 0.031592,0 0.047388,0 0.00527,0 0.01053,0 0.015796,0 0.00527,0 0.012073,0.004 0.015796,0 0.00372,-0.004 -0.00471,-0.0134 0,-0.0158 0.018838,-0.009 0.042532,0.004 0.063184,0 0.042756,0.0269 0.040845,-0.0241 0.063184,-0.0316 0.00999,-0.003 0.021061,0 0.031592,0 0.015796,0 0.031899,0.003 0.047388,0 0.011544,-0.002 0.021061,-0.0105 0.031592,-0.0158 0.01053,-0.005 0.021796,-0.009 0.031592,-0.0158 0.0062,-0.004 0.00914,-0.0125 0.015796,-0.0158 0.00471,-0.002 0.011086,0.002 0.015796,0 0.00666,-0.003 0.00914,-0.0125 0.015796,-0.0158 0.00471,-0.002 0.011086,0.002 0.015796,0 0.065739,-0.0329 -0.016886,10e-4 0.015796,-0.0316 0.00833,-0.008 0.021796,-0.009 0.031592,-0.0158 0.0062,-0.004 0.0096,-0.0117 0.015796,-0.0158 0.0098,-0.007 0.021796,-0.009 0.031592,-0.0158 0.01239,-0.008 0.019201,-0.0233 0.031592,-0.0316 0.0098,-0.007 0.023268,-0.007 0.031592,-0.0158 0.00372,-0.004 -0.00235,-0.0111 0,-0.0158 0.03287,-0.0657 -0.00108,0.0169 0.031592,-0.0158 0.032683,-0.0327 -0.049943,10e-4 0.015796,-0.0316 0.00471,-0.002 0.01053,0 0.015796,0 0.00527,-0.005 0.00914,-0.0125 0.015796,-0.0158 0.016878,-0.008 0.014716,0.008 0.031592,0 0.065739,-0.0329 -0.016886,10e-4 0.015796,-0.0316 0.00745,-0.007 0.022172,0.005 0.031592,0 0.00666,-0.003 0.0096,-0.0117 0.015796,-0.0158 0.00979,-0.007 0.023268,-0.007 0.031592,-0.0158 0.00372,-0.004 -0.00372,-0.0121 0,-0.0158 0.00833,-0.008 0.020423,-0.0121 0.031592,-0.0158 0.005,-0.002 0.012073,0.004 0.015796,0 0.013425,-0.0134 0.013817,-0.0407 0.031592,-0.0474 0.1517761,-0.0569 0.049665,0.0353 0.1263682,-0.0158 0.010798,-0.007 0.060103,-0.0586 0.063184,-0.0632 0.00292,-0.004 -0.00372,-0.0121 0,-0.0158 0.00372,-0.004 0.012073,0.004 0.015796,0 0.00833,-0.008 0.00747,-0.0233 0.015796,-0.0316 0.00372,-0.004 0.012073,0.004 0.015796,0 0.00372,-0.004 -0.00235,-0.0111 0,-0.0158 0.00861,-0.0172 0.050895,-0.0448 0.063184,-0.0632 0.00653,-0.01 0.00747,-0.0233 0.015796,-0.0316 0.00372,-0.004 0.012073,0.004 0.015796,0 0.00745,-0.007 -0.00471,-0.0222 0,-0.0316 0.052389,-0.0524 -0.00745,0.0149 0.015796,-0.0316 0.00333,-0.007 0.012467,-0.009 0.015796,-0.0158 0.00315,-0.006 0,-0.10908 0,-0.12637 0,-0.0632 0,-0.12636 0,-0.18955 0,-0.0146 0.00396,-0.0671 0,-0.079 -0.038139,-0.11441 0.00455,0.0249 -0.031592,-0.0474 -0.00235,-0.005 0,-0.0105 0,-0.0158 -0.00527,-0.005 -0.011666,-0.01 -0.015796,-0.0158 -0.03136,-0.0142 -0.00609,-0.0438 -0.015796,-0.0632 -0.00235,-0.005 -0.012073,0.004 -0.015796,0 -0.00372,-0.004 0.00235,-0.0111 0,-0.0158 -0.00841,-0.0168 -0.02318,-0.0148 -0.031592,-0.0316 -0.00235,-0.005 0.00235,-0.0111 0,-0.0158 -0.00283,-0.006 -0.056615,-0.0588 -0.063184,-0.0632 -0.00979,-0.007 -0.023268,-0.007 -0.031592,-0.0158 -0.00832,-0.008 -0.00747,-0.0233 -0.015796,-0.0316 -0.00833,-0.008 -0.021796,-0.009 -0.031592,-0.0158 -0.0062,-0.004 -0.01053,-0.0105 -0.015796,-0.0158 -0.00527,-0.005 -0.012464,-0.009 -0.015796,-0.0158 -0.00235,-0.005 0.00372,-0.0121 0,-0.0158 -0.00372,-0.004 -0.011086,0.002 -0.015796,0 -0.013322,-0.007 -0.019201,-0.0233 -0.031592,-0.0316 -0.00979,-0.007 -0.021796,-0.009 -0.031592,-0.0158 -0.017425,-0.0116 -0.028727,-0.0381 -0.047388,-0.0474 -0.051376,-0.0257 -0.037574,-0.004 -0.07898,-0.0316 -0.036146,-0.0241 0.00988,-0.0125 -0.047388,-0.0316 -0.005,-0.002 -0.011086,0.002 -0.015796,0 -0.00666,-0.003 -0.00914,-0.0125 -0.015796,-0.0158 -0.00471,-0.002 -0.011086,0.002 -0.015796,0 -0.00666,-0.003 -0.00914,-0.0125 -0.015796,-0.0158 -0.00778,-0.004 -0.077552,0 -0.094776,0 -0.06845,0 -0.1368989,0 -0.2053484,0 -0.010094,0 -0.087155,0.004 -0.094776,0 -0.00666,-0.003 -0.00914,-0.0125 -0.015796,-0.0158 -0.00675,-0.003 -0.072736,0 -0.07898,0 -0.00527,0 -0.011086,-0.002 -0.015796,0 -0.00666,0.003 -0.00914,0.0125 -0.015796,0.0158 -0.00954,0.005 -0.040086,-0.007 -0.047388,0 -0.032682,0.0327 0.049943,-0.001 -0.015796,0.0316 -0.00942,0.005 -0.024146,-0.007 -0.031592,0 -0.00372,0.004 0.00372,0.0121 0,0.0158 -0.00372,0.004 -0.012073,-0.004 -0.015796,0 -0.00372,0.004 0.00372,0.0121 0,0.0158 -0.00833,0.008 -0.023268,0.007 -0.031592,0.0158 -0.010549,0.0105 0.010549,0.021 0,0.0316 -0.00832,0.008 -0.021796,0.009 -0.031592,0.0158 -0.0062,0.004 -0.01053,0.0105 -0.015796,0.0158 -0.00527,0.005 -0.013441,0.009 -0.015796,0.0158 -0.00333,0.01 0.00471,0.0222 0,0.0316 -0.00235,0.005 -0.012073,-0.004 -0.015796,0 -0.00372,0.004 0.00372,0.0121 0,0.0158 -0.00372,0.004 -0.012073,-0.004 -0.015796,0 -0.00372,0.004 0.00235,0.0111 0,0.0158 -0.00948,0.019 -0.03791,0.0284 -0.047388,0.0474 -0.00235,0.005 0.00372,0.0121 0,0.0158 -0.00372,0.004 -0.012073,-0.004 -0.015796,0 -0.00745,0.007 0.00471,0.0222 0,0.0316 -0.00333,0.007 -0.012467,0.009 -0.015796,0.0158 -0.00639,0.0128 0.00639,0.0662 0,0.079 -0.00333,0.007 -0.012467,0.009 -0.015796,0.0158 -0.00235,0.005 0.00372,0.0121 0,0.0158 -0.00372,0.004 -0.012073,-0.004 -0.015796,0 -0.0073,0.007 0.00477,0.0379 0,0.0474 -0.00333,0.007 -0.012467,0.009 -0.015796,0.0158 -0.00477,0.01 0.0073,0.0401 0,0.0474 -0.00372,0.004 -0.01053,0 -0.015796,0"
       id="path13502"
       inkscape:connector-curvature="0" />
    <path
       style="fill:none;stroke:#000000;stroke-width:0.26458332px;stroke-linecap:butt;stroke-linejoin:miter;stroke-opacity:1"
       d="m 1.1057214,293.4301 c 0.021061,-0.005 0.041896,-0.0115 0.063184,-0.0158 0.015489,-0.003 0.031592,0 0.047388,0 0.042123,0 0.084245,0 0.1263682,0 0.1421642,0 0.2843283,0 0.4264925,0 0.3159204,0 0.6318408,0 0.9477613,0 1.0583333,0 2.1166666,0 3.1749999,0 0.1948175,0 0.3896352,0 0.5844527,0 0.059035,0 0.1326367,-0.005 0.1895523,0 0.037103,0.003 0.073568,0.0117 0.110572,0.0158 0.010467,0.001 0.021376,-0.003 0.031592,0 0.076278,0.0191 -7.937e-4,0.007 0.047388,0.0316 0.00942,0.005 0.024146,-0.007 0.031592,0 0.00833,0.008 0.006,0.0251 0.015796,0.0316 0.00876,0.006 0.021376,-0.003 0.031592,0 0.032307,0.008 0.062328,0.0241 0.094776,0.0316 0.036278,0.008 0.074652,0.006 0.1105722,0.0158 0.022717,0.006 0.04063,0.0248 0.063184,0.0316 0.03096,0.009 0.1799461,0.0259 0.2053482,0.0316 0.011494,0.003 0.020169,0.0129 0.031592,0.0158 0.010216,0.003 0.021601,-0.003 0.031592,0 0.014129,0.005 0.018272,0.0249 0.031592,0.0316 0.00471,0.002 0.012073,-0.004 0.015796,0 0.00372,0.004 -0.00372,0.0121 0,0.0158 0.00372,0.004 0.012073,-0.004 0.015796,0 0.00745,0.007 -0.00745,0.0241 0,0.0316 0.00372,0.004 0.012073,-0.004 0.015796,0 0.00372,0.004 -0.00372,0.0121 0,0.0158 0.019241,0.0192 0.035292,0.007 0.047388,0.0316 0.00745,0.0149 0.0058,0.0341 0.015796,0.0474 0.00706,0.009 0.021497,0.01 0.031592,0.0158 0.010755,0.006 0.069047,0.0433 0.07898,0.0632 0.019452,0.0389 -0.045852,-0.0143 0.015796,0.0474 0.021061,0.0211 0.015158,-0.0335 0.031592,0.0158 0.00333,0.01 -0.00584,0.0228 0,0.0316 0.038479,0.0577 0.023124,-0.0169 0.047388,0.0316 0.00471,0.009 -0.00745,0.0242 0,0.0316 0.00372,0.004 0.012073,-0.004 0.015796,0 0.00745,0.007 -0.00471,0.0222 0,0.0316 0.00333,0.007 0.012467,0.009 0.015796,0.0158 0.00428,0.009 -0.00432,0.0589 0,0.0632 0.00372,0.004 0.012073,-0.004 0.015796,0 0.00432,0.004 -0.00428,0.0546 0,0.0632 0.00333,0.007 0.012467,0.009 0.015796,0.0158 0.00285,0.006 0,0.068 0,0.079 0,0.0316 0,0.0632 0,0.0948 0,0.0105 0.00471,0.0222 0,0.0316 -0.00333,0.007 -0.012467,0.009 -0.015796,0.0158 -0.00706,0.0141 0.00706,0.0333 0,0.0474 -0.00235,0.005 -0.013441,-0.005 -0.015796,0 -0.00471,0.009 0.00333,0.0216 0,0.0316 -0.00235,0.007 -0.012467,0.009 -0.015796,0.0158 -0.00235,0.005 0.00235,0.0111 0,0.0158 -0.00333,0.007 -0.012467,0.009 -0.015796,0.0158 -0.00471,0.009 0.00333,0.0216 0,0.0316 0.028604,0.0661 -0.024932,0.0183 -0.031592,0.0316 -0.00471,0.009 0.00333,0.0216 0,0.0316 -0.00235,0.007 -0.012467,0.009 -0.015796,0.0158 -0.00235,0.005 0.00235,0.0111 0,0.0158 -0.00333,0.007 -0.012467,0.009 -0.015796,0.0158 -0.00235,0.005 0.00235,0.0111 0,0.0158 -0.00333,0.007 -0.012467,0.009 -0.015796,0.0158 -0.00235,0.005 0,0.0105 0,0.0158 0,0.005 0.00235,0.0111 0,0.0158 -0.00333,0.007 -0.011665,0.01 -0.015796,0.0158 -0.00653,0.01 -0.00927,0.0218 -0.015796,0.0316 -0.00413,0.006 -0.012467,0.009 -0.015796,0.0158 -0.00235,0.005 0.00292,0.0114 0,0.0158 -0.00826,0.0124 -0.023331,0.0192 -0.031592,0.0316 -0.00292,0.004 0.00167,0.0108 0,0.0158 -0.00372,0.0112 -0.00927,0.0218 -0.015796,0.0316 -0.011618,0.0174 -0.038057,0.0287 -0.047388,0.0474 -0.00235,0.005 0.00372,0.0121 0,0.0158 -0.01924,0.0192 -0.035292,0.007 -0.047388,0.0316 -0.00235,0.005 0.00372,0.0121 0,0.0158 -0.032682,0.0327 0.00127,-0.0499 -0.031592,0.0158 -0.00235,0.005 0.00235,0.0111 0,0.0158 -0.00333,0.007 -0.01053,0.0105 -0.015796,0.0158 -0.00527,0.005 -0.00914,0.0125 -0.015796,0.0158 -0.00471,0.002 -0.012073,-0.004 -0.015796,0 -0.00372,0.004 0.00235,0.0111 0,0.0158 -0.017462,0.0349 -0.0098,0.005 -0.031592,0.0158 -0.00666,0.003 -0.00914,0.0125 -0.015796,0.0158 -0.00471,0.002 -0.012073,-0.004 -0.015796,0 -0.021061,0.0211 0.026326,0.0158 -0.015796,0.0158"
       id="path13504"
       inkscape:connector-curvature="0" />
    <path
       style="fill:none;stroke:#000000;stroke-width:0.26458332px;stroke-linecap:butt;stroke-linejoin:miter;stroke-opacity:1"
       d="m 1.0109453,294.04614 c 0.2843283,0 0.5686567,0 0.852985,0 0.068449,0 0.1368989,0 0.2053483,0 0.057919,0 0.1159657,0.004 0.1737562,0 0.021661,-10e-4 0.042123,-0.0105 0.063184,-0.0158 0.031592,0 0.063184,0 0.094776,0 0.3580432,0 0.7160863,0 1.0741292,0 0.094776,0 0.1895523,0 0.2843284,0 0.00259,0 0.1283296,-0.005 0.1421644,0 0.011171,0.004 0.020047,0.0135 0.031592,0.0158 0.025815,0.005 0.052653,0 0.07898,0 0.07898,0 0.1579602,0 0.2369402,0 0.063184,0 0.1263681,0 0.1895522,0 0.01053,0 0.021167,-10e-4 0.031592,0 0.1322572,0.0189 0.0299,0.0158 0.1263681,0.0158 0.00538,0 0.054635,-0.003 0.063184,0 0.011171,0.004 0.020423,0.0121 0.031592,0.0158 0.005,0.002 0.01053,0 0.015796,0 0.020333,0 0.090152,-0.004 0.110572,0 0.016328,0.003 0.031061,0.0125 0.047388,0.0158 0.01569,0.003 0.083209,0 0.094776,0 0.00527,0 0.0108,-0.002 0.015796,0 0.011171,0.004 0.020423,0.0121 0.031592,0.0158 0.005,0.002 0.011086,-0.002 0.015796,0 0.019645,0.01 0.059514,0.0692 0.07898,0.079 0.00942,0.005 0.021913,-0.004 0.031592,0 0.02822,0.0121 0.052323,0.0322 0.07898,0.0474 0.01053,0.005 0.021061,0.0105 0.031592,0.0158 0.00527,0 0.011086,-0.002 0.015796,0 0.00666,0.003 0.0096,0.0117 0.015796,0.0158 0.00979,0.007 0.021796,0.009 0.031592,0.0158 0.01239,0.008 0.019201,0.0233 0.031592,0.0316 0.01053,0.005 0.021061,0.0105 0.031592,0.0158 0.00527,0 0.011086,-0.002 0.015796,0 0.013322,0.007 0.018272,0.0249 0.031592,0.0316 0.00471,0.002 0.01053,0 0.015796,0 0.015796,0.005 0.032495,0.008 0.047388,0.0158 0.00666,0.003 0.00914,0.0125 0.015796,0.0158 0.00471,0.002 0.011086,-0.002 0.015796,0 0.00666,0.003 0.00914,0.0125 0.015796,0.0158 0.00471,0.002 0.011086,-0.002 0.015796,0 0.00666,0.003 0.0096,0.0117 0.015796,0.0158 0.0098,0.007 0.023267,0.007 0.031592,0.0158 0.00372,0.004 -0.00471,0.0134 0,0.0158 0.00942,0.005 0.021603,-0.003 0.031592,0 0.00706,0.002 0.00914,0.0125 0.015796,0.0158 0.00942,0.005 0.022172,-0.005 0.031592,0 0.00666,0.003 0.01053,0.0105 0.015796,0.0158 0.00527,0.005 0.012467,0.009 0.015796,0.0158 0.00235,0.005 -0.00372,0.0121 0,0.0158 0.032682,0.0327 -0.00127,-0.0499 0.031592,0.0158 0.00235,0.005 -0.00372,0.0121 0,0.0158 0.032682,0.0327 -0.00127,-0.0499 0.031592,0.0158 0.00235,0.005 -0.00372,0.0121 0,0.0158 0.00372,0.004 0.011086,-0.002 0.015796,0 0.00666,0.003 0.00914,0.0125 0.015796,0.0158 0.00471,0.002 0.012073,-0.004 0.015796,0 0.00372,0.004 -0.00235,0.0111 0,0.0158 0.00333,0.007 0.01053,0.0105 0.015796,0.0158 0.00527,0.005 0.00914,0.0125 0.015796,0.0158 0.00471,0.002 0.011086,-0.002 0.015796,0 0.00794,0.004 0.072939,0.0699 0.07898,0.079 0.00653,0.01 0.00747,0.0233 0.015796,0.0316 0.00372,0.004 0.012073,-0.004 0.015796,0 0.00745,0.007 -0.00471,0.0222 0,0.0316 0.012097,0.0242 0.028149,0.0124 0.047388,0.0316 0.00832,0.008 0.00747,0.0233 0.015796,0.0316 0.00372,0.004 0.012073,-0.004 0.015796,0 0.00833,0.008 0.00747,0.0233 0.015796,0.0316 0.00372,0.004 0.012073,-0.004 0.015796,0 0.00833,0.008 0.00927,0.0218 0.015796,0.0316 0.00413,0.006 0.011665,0.01 0.015796,0.0158 0.00653,0.01 0.00747,0.0233 0.015796,0.0316 0.00372,0.004 0.012073,-0.004 0.015796,0 0.00372,0.004 -0.00372,0.0121 0,0.0158 0.00833,0.008 0.023268,0.007 0.031592,0.0158 0.00372,0.004 -0.00235,0.0111 0,0.0158 0.00333,0.007 0.012465,0.009 0.015796,0.0158 0.00235,0.005 -0.00372,0.0121 0,0.0158 0.00372,0.004 0.013441,-0.005 0.015796,0 0.014129,0.0125 -0.00706,0.0333 0,0.0474 0.00333,0.007 0.01053,0.0105 0.015796,0.0158 0,0.0105 -0.00333,0.0216 0,0.0316 0.00235,0.007 0.013441,0.009 0.015796,0.0158 0.00333,0.01 0,0.0211 0,0.0316 0,0.0369 0,0.0737 0,0.11057 0,0.0105 0,0.0211 0,0.0316 0,0.005 0.00372,0.0121 0,0.0158 -0.00372,0.004 -0.014131,-0.005 -0.015796,0 -0.005,0.015 0,0.0316 0,0.0474 0,0.005 0.00235,0.0111 0,0.0158 -0.052389,0.0524 0.00745,-0.0149 -0.015796,0.0316 -0.00333,0.007 -0.012467,0.009 -0.015796,0.0158 -0.00471,0.009 0.00745,0.0241 0,0.0316 -0.00372,0.004 -0.012073,-0.004 -0.015796,0 -0.00372,0.004 0.00235,0.0111 0,0.0158 -0.00333,0.007 -0.012467,0.009 -0.015796,0.0158 -0.00235,0.005 0.00235,0.0111 0,0.0158 -0.012097,0.0242 -0.028149,0.0123 -0.047388,0.0316 -0.0387,0.0774 0.00517,0.0132 -0.031592,0.0316 -0.00794,0.004 -0.072939,0.0699 -0.07898,0.079 -0.00653,0.01 -0.00747,0.0233 -0.015796,0.0316 -0.00372,0.004 -0.012073,-0.004 -0.015796,0 -0.00832,0.008 -0.00747,0.0233 -0.015796,0.0316 -0.00372,0.004 -0.012073,-0.004 -0.015796,0 -0.00833,0.008 -0.00747,0.0233 -0.015796,0.0316 -0.00372,0.004 -0.012073,-0.004 -0.015796,0 -0.00833,0.008 -0.00747,0.0233 -0.015796,0.0316 -0.038365,0.0384 -0.023196,-0.005 -0.047388,0.0316 -0.00653,0.01 -0.00527,0.0263 -0.015796,0.0316 -0.014129,0.007 -0.031899,-0.003 -0.047388,0 -0.063565,0.0127 -0.00726,0.0115 -0.047388,0.0316 -0.00471,0.002 -0.011086,-0.002 -0.015796,0 -0.013319,0.007 -0.017463,0.0269 -0.031592,0.0316 -0.00999,0.003 -0.021376,-0.003 -0.031592,0 -0.011422,0.003 -0.020423,0.0121 -0.031592,0.0158 -0.005,0.002 -0.011086,-0.002 -0.015796,0 -0.00666,0.003 -0.00873,0.0134 -0.015796,0.0158 -0.014986,0.005 -0.033259,-0.007 -0.047388,0 -0.074592,0.0373 0.096413,-0.008 -0.063184,0.0316 -0.020667,0.005 -0.059974,-0.006 -0.07898,0 -0.011168,0.004 -0.020423,0.0121 -0.031592,0.0158 -0.00469,0.002 -0.075738,0.002 -0.07898,0 -0.00666,-0.003 -0.00914,-0.0125 -0.015796,-0.0158 -0.00471,-0.002 -0.013441,0.005 -0.015796,0 -0.00471,-0.009 0.00471,-0.0222 0,-0.0316 -0.00471,-0.009 -0.022172,0.005 -0.031592,0 -0.024193,-0.0121 -0.012353,-0.0282 -0.031592,-0.0474 -0.00372,-0.004 -0.011086,0.002 -0.015796,0 -0.00666,-0.003 -0.01053,-0.0105 -0.015796,-0.0158 -0.031592,-0.0316 -0.063184,-0.0632 -0.094776,-0.0948 -0.00527,-0.005 -0.01053,-0.0105 -0.015796,-0.0158 -0.01053,-0.005 -0.023267,-0.007 -0.031592,-0.0158 -0.00372,-0.004 0.00235,-0.0111 0,-0.0158 -0.00666,-0.0133 -0.024932,-0.0183 -0.031592,-0.0316 -0.00235,-0.005 0,-0.0105 0,-0.0158 -0.00527,-0.005 -0.012467,-0.009 -0.015796,-0.0158 -0.00235,-0.005 0.00372,-0.0121 0,-0.0158 -0.00372,-0.004 -0.012073,0.004 -0.015796,0 -0.032683,-0.0327 0.049943,10e-4 -0.015796,-0.0316 -0.00471,-0.002 -0.011086,0.002 -0.015796,0 -0.034926,-0.0175 -0.0049,-0.01 -0.015796,-0.0316 -0.00948,-0.019 -0.03791,-0.0284 -0.047388,-0.0474 -0.00471,-0.009 0.00471,-0.0222 0,-0.0316 -0.00333,-0.007 -0.012467,-0.009 -0.015796,-0.0158 -0.00235,-0.005 0.00235,-0.0111 0,-0.0158 -0.00666,-0.0133 -0.024932,-0.0183 -0.031592,-0.0316 -0.00471,-0.009 0.00471,-0.0222 0,-0.0316 -0.00333,-0.007 -0.012465,-0.009 -0.015796,-0.0158 -0.00285,-0.006 0,-0.068 0,-0.079 0,-0.0154 -0.00399,-0.0986 0,-0.11057 0.00372,-0.0112 0.012073,-0.0204 0.015796,-0.0316 0.00167,-0.005 -0.00372,-0.0121 0,-0.0158 0.00372,-0.004 0.012073,0.004 0.015796,0 0.00372,-0.004 -0.00235,-0.0111 0,-0.0158 0.00333,-0.007 0.01053,-0.0105 0.015796,-0.0158 0.00527,-0.005 0.012467,-0.009 0.015796,-0.0158 0.00235,-0.005 -0.00372,-0.0121 0,-0.0158 0.00372,-0.004 0.011086,0.002 0.015796,0 0.065739,-0.0329 -0.016886,10e-4 0.015796,-0.0316 0.00372,-0.004 0.012073,0.004 0.015796,0 0.00372,-0.004 0,-0.0105 0,-0.0158 0,-0.005 0,-0.0105 0,-0.0158"
       id="path13506"
       inkscape:connector-curvature="0" />
  </g>
</svg>
