<?xml version="1.0" encoding="UTF-8" standalone="no"?>
<!-- Created with Inkscape (http://www.inkscape.org/) -->

<svg
   xmlns:dc="http://purl.org/dc/elements/1.1/"
   xmlns:cc="http://creativecommons.org/ns#"
   xmlns:rdf="http://www.w3.org/1999/02/22-rdf-syntax-ns#"
   xmlns:svg="http://www.w3.org/2000/svg"
   xmlns="http://www.w3.org/2000/svg"
   xmlns:sodipodi="http://sodipodi.sourceforge.net/DTD/sodipodi-0.dtd"
   xmlns:inkscape="http://www.inkscape.org/namespaces/inkscape"
   width="32"
   height="32"
   viewBox="0 0 8.4666667 8.4666667"
   version="1.1"
   id="svg8"
   inkscape:export-filename="C:\Unity\Gods Fate\Assets\Graphics\Ground\Forest.png"
   inkscape:export-xdpi="96"
   inkscape:export-ydpi="96"
   inkscape:version="0.92.1 r15371"
   sodipodi:docname="Forest.svg">
  <defs
     id="defs2" />
  <sodipodi:namedview
     id="base"
     pagecolor="#ffffff"
     bordercolor="#666666"
     borderopacity="1.0"
     inkscape:pageopacity="0.0"
     inkscape:pageshadow="2"
     inkscape:zoom="14.62069"
     inkscape:cx="-1.6698108"
     inkscape:cy="14.549528"
     inkscape:document-units="px"
     inkscape:current-layer="layer1"
     showgrid="false"
     units="px"
     inkscape:window-width="1920"
     inkscape:window-height="1017"
     inkscape:window-x="-8"
     inkscape:window-y="-8"
     inkscape:window-maximized="1" />
  <metadata
     id="metadata5">
    <rdf:RDF>
      <cc:Work
         rdf:about="">
        <dc:format>image/svg+xml</dc:format>
        <dc:type
           rdf:resource="http://purl.org/dc/dcmitype/StillImage" />
        <dc:title />
      </cc:Work>
    </rdf:RDF>
  </metadata>
  <g
     inkscape:label="Calque 1"
     inkscape:groupmode="layer"
     id="layer1"
     transform="translate(0,-288.53333)">
    <path
       style="fill:none;stroke:#000000;stroke-width:0.26458332px;stroke-linecap:butt;stroke-linejoin:miter;stroke-opacity:1"
       d="m 1.5020096,291.13673 c -0.2029469,-0.0311 -0.079664,0.17015 -0.144772,0.23525 -0.00427,0.004 -0.013831,-0.004 -0.018096,0 -0.00954,0.01 -0.012064,0.0241 -0.018096,0.0362 -0.00603,0.0121 -0.013831,0.0234 -0.018096,0.0362 -0.00191,0.006 0.0027,0.0127 0,0.0181 -0.00381,0.008 -0.014281,0.0105 -0.018096,0.0181 -0.00359,0.007 0.0037,0.0506 0,0.0543 -0.00427,0.004 -0.013831,-0.004 -0.018096,0 -0.00427,0.004 0,0.0121 0,0.0181 0,0.0302 0,0.0603 0,0.0905 0,0.0482 0,0.0965 0,0.14477 0,0.006 0,0.0121 0,0.0181 0,0.006 -0.0054,0.0154 0,0.0181 0.010791,0.005 0.025402,-0.005 0.036193,0 0.010791,0.005 -0.0054,0.0254 0,0.0362 0.00173,0.003 0.068922,0.0707 0.072386,0.0724 0.010791,0.005 0.030798,-0.0108 0.036193,0 0.0054,0.0108 -0.00853,0.0277 0,0.0362 0.00853,0.009 0.024748,-0.004 0.036193,0 0.00809,0.003 0.010466,0.0143 0.018097,0.0181 0.0054,0.003 0.012701,-0.003 0.018096,0 0.00763,0.004 0.010466,0.0143 0.018096,0.0181 0.00718,0.004 0.05059,-0.004 0.05429,0 0.00427,0.004 -0.00427,0.0138 0,0.0181 5.82e-4,5.8e-4 0.049901,0 0.054289,0 0.1025468,0 0.2050936,0 0.3076405,0 0.014244,0 0.089029,10e-4 0.090483,0 0.00427,-0.004 -0.00427,-0.0138 0,-0.0181 0.00954,-0.01 0.026655,-0.009 0.036193,-0.0181 0.00427,-0.004 0,-0.0121 0,-0.0181 0.012064,-0.006 0.026655,-0.009 0.036193,-0.0181 0.00853,-0.009 -0.0054,-0.0254 0,-0.0362 0.00381,-0.008 0.014281,-0.0105 0.018096,-0.0181 0.0027,-0.005 -0.0027,-0.0127 0,-0.0181 0.00381,-0.008 0.013364,-0.011 0.018096,-0.0181 0.014964,-0.0224 0.021229,-0.0499 0.036193,-0.0724 0.00946,-0.0142 0.028563,-0.0209 0.036193,-0.0362 0.00275,-0.006 0,-0.0461 0,-0.0543 0.01462,0.002 -0.00815,0.16643 -1.4e-6,0.19903 0.013234,0.0529 0.077807,0.0857 0.108579,0.12668 0.021976,0.0293 0.00852,0.0358 0.036193,0.0543 0.011223,0.007 0.026655,0.009 0.036193,0.0181 0.00427,0.004 -0.00427,0.0138 0,0.0181 0.00427,0.004 0.013831,-0.004 0.018096,0 0.00427,0.004 -0.0027,0.0127 0,0.0181 0.00382,0.008 0.012064,0.0121 0.018096,0.0181 0.00603,0.006 0.010466,0.0143 0.018096,0.0181 0.010791,0.005 0.027662,-0.009 0.036193,0 0.00427,0.004 -0.00427,0.0138 0,0.0181 0.00853,0.009 0.024748,-0.004 0.036193,0 0.1310805,0.0437 -0.028531,-0.005 0.054289,0.0362 0.0054,0.003 0.012064,0 0.018097,0 0.00603,0 0.012064,0 0.018096,0 0.036193,0 0.072386,0 0.108579,0 0.00603,0 0.012701,0.003 0.018096,0 0.00763,-0.004 0.010004,-0.0154 0.018096,-0.0181 0.010762,-0.004 0.086447,0.004 0.090483,0 0.00427,-0.004 -0.00427,-0.0138 0,-0.0181 0.00427,-0.004 0.012701,0.003 0.018096,0 0.01526,-0.008 0.020933,-0.0286 0.036193,-0.0362 0.010791,-0.005 0.027662,0.009 0.036193,0 0.00427,-0.004 0,-0.0121 0,-0.0181 0.012064,0 0.024748,0.004 0.036193,0 0.00404,-0.001 0.069737,-0.0671 0.072386,-0.0724 0.0027,-0.005 -0.0027,-0.0127 0,-0.0181 0.00382,-0.008 0.012064,-0.0121 0.018096,-0.0181 0.00603,-0.006 0.010466,-0.0143 0.018096,-0.0181 0.010791,-0.005 0.027662,0.009 0.036193,0 0.00427,-0.004 -0.00427,-0.0138 0,-0.0181 0.00427,-0.004 0.013831,0.004 0.018096,0 0.00853,-0.009 -0.0054,-0.0254 0,-0.0362 0.00382,-0.008 0.014281,-0.0105 0.018096,-0.0181 0.00327,-0.007 0,-0.0779 0,-0.0905 0,-0.006 -0.00427,-0.0138 0,-0.0181 0.00427,-0.004 0.013831,0.004 0.018096,0 0.00853,-0.009 -0.00853,-0.0277 0,-0.0362 0.00427,-0.004 0.013831,0.004 0.018096,0 0.00427,-0.004 -0.00427,-0.0138 0,-0.0181 0.00427,-0.004 0.013831,0.004 0.018096,0 0.00427,-0.004 -0.0027,-0.0127 0,-0.0181 0.022362,-0.0447 0.018096,0.006 0.018096,-0.0362"
       id="path4489"
       inkscape:connector-curvature="0" />
    <path
       style="fill:none;stroke:#000000;stroke-width:0.26458332px;stroke-linecap:butt;stroke-linejoin:miter;stroke-opacity:1"
       d="m 3.2030736,291.71576 c 0.012068,-0.0301 0.021669,-0.0614 0.0362,-0.0904 0.0027,-0.005 -0.0027,0.0127 0,0.0181 0.00382,0.008 0.010999,0.0134 0.018097,0.0181 0.016531,0.011 0.043916,0.0154 0.054289,0.0362 0.00603,0.0181 0.012065,0.0362 0.018098,0.0543 0.00603,0 0.01383,-0.004 0.018098,0 0.00427,0.004 -0.00427,0.0138 0,0.0181 0.00427,0.004 0.01383,-0.004 0.018097,0 0.00954,0.01 0.010615,0.025 0.018098,0.0362 0.00473,0.007 0.014282,0.0105 0.018098,0.0181 0.0027,0.005 -0.00427,0.0138 0,0.0181 0.00954,0.01 0.024969,0.0106 0.036193,0.0181 0.011271,0.008 0.024921,0.0287 0.036193,0.0362 0.011224,0.007 0.026655,0.009 0.036193,0.0181 0.00427,0.004 -0.00427,0.0138 0,0.0181 0.00645,0.0445 0.038418,0.008 0.05429,0.0181 0.014195,0.009 0.024127,0.0241 0.036193,0.0362 0.00603,0.006 0.010467,0.0143 0.018098,0.0181 0.00539,0.003 0.012374,-0.002 0.018098,0 0.072386,0.0241 -0.00366,0.0174 0.090482,0.0362 0.023659,0.005 0.049495,-0.008 0.072386,0 0.00809,0.003 0.010004,0.0154 0.018098,0.0181 0.076845,0.0256 0.1558845,0.0181 0.2352545,0.0181 0.08445,0 0.1689005,0 0.253351,0 0.060321,0 0.1206434,0 0.1809649,0 0.012065,0 0.024127,0 0.036193,0 0.012065,0 0.024747,0.004 0.036193,0 0.00809,-0.003 0.010004,-0.0154 0.018097,-0.0181 0.011446,-0.004 0.025403,0.005 0.036193,0 0.00539,-0.003 0,-0.0121 0,-0.0181 0,-0.006 0,-0.0121 0,-0.0181 0,-0.0302 0,-0.0603 0,-0.0905 0,-0.006 0,-0.0121 0,-0.0181 0,-0.006 0.0027,-0.0127 0,-0.0181 -0.041738,-0.0835 0.011835,0.074 -0.05429,-0.0362 -0.012795,-0.0213 -0.00886,-0.0493 -0.018098,-0.0724 -0.00317,-0.008 -0.012065,-0.0121 -0.018097,-0.0181 -0.00603,-0.006 -0.010467,-0.0143 -0.018098,-0.0181 -0.00539,-0.003 -0.013832,0.004 -0.018097,0 -0.00427,-0.004 0.00427,-0.0138 0,-0.0181 -0.00427,-0.004 -0.0127,0.003 -0.018097,0 -0.00763,-0.004 -0.010467,-0.0143 -0.018098,-0.0181 -0.00539,-0.003 -0.013832,0.004 -0.018097,0 -0.00427,-0.004 0.0027,-0.0127 0,-0.0181 -0.00382,-0.008 -0.014282,-0.0105 -0.018098,-0.0181 -0.0027,-0.005 0.00427,-0.0138 0,-0.0181 -0.00427,-0.004 -0.013832,0.004 -0.018097,0 -0.00954,-0.01 -0.010615,-0.025 -0.018097,-0.0362 -0.010983,-0.0165 -0.04627,-0.0383 -0.05429,-0.0543 -0.00539,-0.0108 0.00853,-0.0277 0,-0.0362 -0.00427,-0.004 -0.013832,0.004 -0.018097,0 -0.00427,-0.004 0,-0.0121 0,-0.0181 0,-0.006 0,-0.0121 0,-0.0181"
       id="path4491"
       inkscape:connector-curvature="0" />
    <path
       style="fill:none;stroke:#000000;stroke-width:0.26458332px;stroke-linecap:butt;stroke-linejoin:miter;stroke-opacity:1"
       d="m 4.3069679,291.49866 c 0.066354,0.0483 0.1340292,0.0948 0.1990608,0.14477 0.012065,0.0121 0.024127,0.0241 0.036193,0.0362 0,0.006 -0.00362,0.0133 0,0.0181 0.015356,0.0205 0.038934,0.0338 0.05429,0.0543 0.00362,0.005 -0.00427,0.0138 0,0.0181 0.00954,0.01 0.024969,0.0106 0.036193,0.0181 0.0071,0.005 0.010467,0.0143 0.018098,0.0181 0.00539,0.003 0.013078,-0.003 0.018097,0 0.020881,0.0139 0.033409,0.0404 0.05429,0.0543 0.1263095,0.0842 -0.088971,-0.0803 0.090482,0.0543 0.00682,0.005 0.010999,0.0134 0.018098,0.0181 0.011224,0.007 0.02367,0.0131 0.036193,0.0181 0.017711,0.007 0.039029,0.007 0.05429,0.0181 0.01079,0.008 0.00687,0.0287 0.018097,0.0362 0.010038,0.007 0.02449,-0.003 0.036193,0 0.1218936,0.0305 2.911e-4,2.9e-4 0.036193,0.0362 0.00427,0.004 0.012065,0 0.018098,0 0.00603,0 0.012065,0 0.018097,0 0.014793,0 0.1175036,0.003 0.1266756,0 0.012253,-0.004 0.040466,-0.0474 0.054289,-0.0543 0.00539,-0.003 0.013832,0.004 0.018097,0 0.00427,-0.004 -0.0027,-0.0127 0,-0.0181 0.00382,-0.008 0.014282,-0.0105 0.018098,-0.0181 0.0027,-0.005 -0.00427,-0.0138 0,-0.0181 0.00427,-0.004 0.013832,0.004 0.018097,0 0.00427,-0.004 -0.0027,-0.0127 0,-0.0181 0.00382,-0.008 0.014282,-0.0105 0.018097,-0.0181 0.0027,-0.005 -0.00427,-0.0138 0,-0.0181 0.00427,-0.004 0.013832,0.004 0.018098,0 0.00495,-0.005 -0.00491,-0.0626 0,-0.0724 0.00382,-0.008 0.014282,-0.0105 0.018097,-0.0181 0.00534,-0.0107 -0.00415,-0.0418 0,-0.0543 0.00427,-0.0128 0.01383,-0.0234 0.018097,-0.0362 0.0038,-0.0114 0,-0.0742 0,-0.0905 0,-0.006 0,-0.0121 0,-0.0181 0,-0.006 0.00427,-0.0138 0,-0.0181 -0.00427,-0.004 -0.013832,0.004 -0.018097,0 -0.00853,-0.009 0.00853,-0.0277 0,-0.0362 -0.00427,-0.004 -0.013832,0.004 -0.018097,0 -0.00427,-0.004 0.00539,-0.0154 0,-0.0181 -0.01079,-0.005 -0.025403,0.005 -0.036193,0 -0.00539,-0.003 0,-0.0121 0,-0.0181 0,-0.0241 0,-0.0483 0,-0.0724"
       id="path4493"
       inkscape:connector-curvature="0" />
    <path
       style="fill:none;stroke:#000000;stroke-width:0.26458332px;stroke-linecap:butt;stroke-linejoin:miter;stroke-opacity:1"
       d="m 5.2841892,291.42623 c -0.012068,-0.0181 -0.054286,-0.0422 -0.036204,-0.0542 0.018082,-0.0121 0.016759,0.0445 0.036204,0.0542 0.054304,0.0272 0.1855751,0.0181 0.2533401,0.0181 0.102547,0 0.2050939,0 0.3076406,0 0.012065,0 0.024127,0 0.036193,0 0.00603,0 0.01383,0.004 0.018097,0 0.00954,-0.01 0.00856,-0.0267 0.018097,-0.0362 0.00427,-0.004 0.01383,0.004 0.018098,0 0.00427,-0.004 -0.0027,-0.0127 0,-0.0181 0.00382,-0.008 0.014282,-0.0105 0.018097,-0.0181 0.0027,-0.005 -0.0027,-0.0127 0,-0.0181 0.00382,-0.008 0.013364,-0.011 0.018098,-0.0181 0.00748,-0.0112 0.00856,-0.0267 0.018097,-0.0362 0.00427,-0.004 0.013833,0.004 0.018097,0 0.00427,-0.004 -0.0019,-0.0124 0,-0.0181 0.00427,-0.0128 0.00856,-0.0267 0.018098,-0.0362 0.00427,-0.004 0.01383,0.004 0.018097,0 0.00853,-0.009 -0.00539,-0.0254 0,-0.0362 0.00382,-0.008 0.014282,-0.0105 0.018097,-0.0181 0.00386,-0.008 0,-0.0833 0,-0.0905 0,-0.0362 0,-0.0724 0,-0.10858 0,-0.006 0.00427,-0.0138 0,-0.0181 -0.00426,-0.004 -0.01383,0.004 -0.018097,0 -0.00905,-0.009 0.00905,-0.0453 0,-0.0543 -0.00427,-0.004 -0.01383,0.004 -0.018097,0 -0.00853,-0.009 0.00539,-0.0254 0,-0.0362 -0.037657,-0.0753 0.00124,0.0193 -0.036193,-0.0181 -0.00954,-0.01 -0.00856,-0.0267 -0.018097,-0.0362 -0.00427,-0.004 -0.01383,0.004 -0.018098,0 -0.00954,-0.01 -0.010615,-0.025 -0.018097,-0.0362 -0.00473,-0.007 -0.012065,-0.0121 -0.018098,-0.0181 -0.00603,-0.006 -0.010467,-0.0143 -0.018097,-0.0181 -0.00539,-0.003 -0.013833,0.004 -0.018097,0 -0.00427,-0.004 0.00539,-0.0154 0,-0.0181 -0.00769,-0.004 -0.075318,0 -0.090483,0"
       id="path4495"
       inkscape:connector-curvature="0" />
    <path
       style="fill:none;stroke:#000000;stroke-width:0.26458332px;stroke-linecap:butt;stroke-linejoin:miter;stroke-opacity:1"
       d="m 5.7908819,290.73845 c -5e-7,-0.0542 -0.020159,-0.11236 -1.6e-6,-0.16271 0.00924,-0.0231 0.048791,-0.0102 0.072386,-0.0181 0.012795,-0.004 0.023516,-0.0135 0.036193,-0.0181 0.053781,-0.0196 0.1085789,-0.0362 0.1628685,-0.0543 0.010602,-0.004 0.077169,-0.0229 0.090483,-0.0362 0.00427,-0.004 -0.00427,-0.0138 0,-0.0181 0.00427,-0.004 0.013832,0.004 0.018097,0 0.04571,-0.0457 0.00695,-0.0209 0.018098,-0.0543 0.00809,-0.0243 0.028104,-0.0481 0.036193,-0.0724 7.408e-4,-0.002 0.00114,-0.10517 0,-0.10858 -0.0027,-0.008 -0.014282,-0.0105 -0.018097,-0.0181 -0.00724,-0.0145 0.00724,-0.0398 0,-0.0543 -0.012301,-0.0246 -0.072404,-0.0634 -0.090483,-0.0905 -0.01102,-0.0165 -0.015446,-0.0439 -0.036193,-0.0543 -0.00539,-0.003 -0.0127,0.003 -0.018097,0 -0.00763,-0.004 -0.010467,-0.0143 -0.018097,-0.0181 -0.00539,-0.003 -0.0127,0.003 -0.018098,0 -0.00763,-0.004 -0.010467,-0.0143 -0.018097,-0.0181 -0.01079,-0.005 -0.025403,0.005 -0.036193,0 -0.015261,-0.008 -0.020934,-0.0286 -0.036193,-0.0362 -0.014478,-0.007 -0.039812,0.007 -0.054289,0 -0.00539,-0.003 0.00427,-0.0138 0,-0.0181 -4.498e-4,-4.5e-4 -0.083684,0 -0.090483,0 -0.012827,0 -0.1039,-0.002 -0.1085789,0 -0.00763,0.004 -0.010467,0.0143 -0.018097,0.0181 -0.01079,0.005 -0.027662,-0.009 -0.036193,0 -0.00427,0.004 0.0027,0.0127 0,0.0181 -0.037656,0.0753 0.00124,-0.0193 -0.036193,0.0181 -0.00427,0.004 0.00426,0.0138 0,0.0181 -0.00905,0.009 -0.045241,-0.009 -0.05429,0 -0.00427,0.004 0.00427,0.0138 0,0.0181 -0.00853,0.009 -0.027662,-0.009 -0.036193,0 -0.024127,0.0241 0.030161,0.0181 -0.018098,0.0181 -0.024127,-0.0422 -0.048255,-0.0844 -0.072382,-0.12658 0,-0.006 0.00427,-0.0138 0,-0.0181 -0.00954,-0.01 -0.026655,-0.009 -0.036193,-0.0181 -0.00954,-0.01 -0.00856,-0.0267 -0.018096,-0.0362 -0.00954,-0.01 -0.026655,-0.009 -0.036193,-0.0181 -0.024129,-0.0241 0.038388,-0.0174 -0.018097,-0.0362 -0.011445,-0.004 -0.025402,0.005 -0.036193,0 -0.0054,-0.003 0.00427,-0.0138 0,-0.0181 -0.00427,-0.004 -0.013831,0.004 -0.018096,0 -0.00427,-0.004 0.00427,-0.0138 0,-0.0181 -0.00427,-0.004 -0.012701,0.003 -0.018097,0 -0.021716,-0.0109 -0.032574,-0.0434 -0.05429,-0.0543 -0.00406,-0.002 -0.068086,0 -0.072386,0 -0.042225,0 -0.08445,0 -0.1266755,0 -0.00603,0 -0.012064,0 -0.018096,0 -0.00603,0 -0.013831,-0.004 -0.018097,0 -0.00427,0.004 0.00427,0.0138 0,0.0181 -0.00427,0.004 -0.012701,-0.003 -0.018097,0 -0.00763,0.004 -0.010466,0.0143 -0.018097,0.0181 -0.019242,0.01 -0.01695,-0.01 -0.036193,0 -0.00763,0.004 -0.010003,0.0154 -0.018096,0.0181 -0.016287,0.005 -0.038003,-0.005 -0.05429,0 -0.012064,0.006 -0.024129,0.0121 -0.036193,0.0181 0,0.006 0.00427,0.0138 0,0.0181 -0.00853,0.009 -0.027662,-0.009 -0.036193,0 -0.00427,0.004 0,0.0121 0,0.0181 -0.012064,0 -0.025402,-0.005 -0.036193,0 -0.0054,0.003 0.0027,0.0127 0,0.0181 -0.00382,0.008 -0.010466,0.0143 -0.018097,0.0181 -0.0054,0.003 -0.012064,0 -0.018096,0 -0.00603,0.006 -0.010466,0.0143 -0.018097,0.0181 -0.0054,0.003 -0.013831,-0.004 -0.018096,0 -0.00853,0.009 0.00853,0.0277 0,0.0362 -0.00427,0.004 -0.013831,-0.004 -0.018097,0 -7.282e-4,7.3e-4 0,0.0657 0,0.0724 0,0.0501 -0.018096,-0.0139 -0.018096,0.0362 -0.058676,-0.0978 -0.029412,-0.0656 -0.072385,-0.1086 -0.012064,-0.0121 -0.020602,-0.0293 -0.036193,-0.0362 -0.04013,-0.0178 -0.089019,-0.0136 -0.1266755,-0.0362 -0.025863,-0.0155 -0.032963,-0.0511 -0.05429,-0.0724 -0.00427,-0.004 -0.012701,0.003 -0.018097,0 -0.00763,-0.004 -0.010466,-0.0143 -0.018096,-0.0181 -0.0054,-0.003 -0.013831,0.004 -0.018097,0 -0.00954,-0.01 -0.00856,-0.0267 -0.018096,-0.0362 -0.00853,-0.009 -0.027662,0.009 -0.036193,0 -0.00427,-0.004 0.00427,-0.0138 0,-0.0181 -0.00427,-0.004 -0.012701,0.003 -0.018097,0 -0.082821,-0.0414 0.076791,0.007 -0.054289,-0.0362 -0.011358,-0.004 -0.057818,0 -0.072386,0 -0.054289,0 -0.108579,0 -0.1628685,0 -0.00665,0 -0.071658,-7.3e-4 -0.072386,0 -0.00427,0.004 0.0027,0.0127 0,0.0181 -0.00381,0.008 -0.012064,0.0121 -0.018096,0.0181 -0.00603,0.006 -0.010466,0.0143 -0.018096,0.0181 -0.024961,0.0125 -0.016187,-0.0219 -0.036193,0.0181 -0.00275,0.006 0,0.0461 0,0.0543 0,0.0483 0,0.0965 0,0.14478 -0.030161,1e-5 -0.061481,0.008 -0.090483,2e-5 -0.016406,-0.005 -0.021997,-0.0267 -0.036193,-0.0362 -0.00502,-0.003 -0.012374,0.002 -0.018096,0 -0.030817,-0.0103 -0.059665,-0.0259 -0.090482,-0.0362 -0.023595,-0.008 -0.049098,-0.009 -0.072386,-0.0181 -0.025259,-0.009 -0.046794,-0.0277 -0.072386,-0.0362 -0.02289,-0.008 -0.049495,0.008 -0.072386,0 -0.00809,-0.003 -0.010466,-0.0143 -0.018096,-0.0181 -0.0054,-0.003 -0.012374,0.002 -0.018096,0 -0.012796,-0.004 -0.023397,-0.0138 -0.036193,-0.0181 -0.00572,-0.002 -0.013831,0.004 -0.018096,0 -0.00427,-0.004 0.00427,-0.0138 0,-0.0181 -0.00427,-0.004 -0.012701,0.003 -0.018096,0 -0.00763,-0.004 -0.010466,-0.0143 -0.018096,-0.0181 -0.014477,-0.007 -0.039812,0.007 -0.054289,0 -0.00763,-0.004 -0.010466,-0.0143 -0.018097,-0.0181 -0.0054,-0.003 -0.012374,0.002 -0.018096,0 -0.012796,-0.004 -0.023397,-0.0138 -0.036193,-0.0181 -0.01021,-0.003 -0.042398,0 -0.054289,0 -0.048257,0 -0.096515,0 -0.144772,0 -0.048257,0 -0.096515,0 -0.1447721,0 -0.00946,0 -0.067628,-0.002 -0.072386,0 -0.040012,0.02 -0.00562,0.0112 -0.018096,0.0362 -0.00382,0.008 -0.012064,0.0121 -0.018096,0.0181 -0.00603,0.006 -0.010466,0.0143 -0.018097,0.0181 -0.0054,0.003 -0.013831,-0.004 -0.018096,0 -0.00905,0.009 0.00905,0.0452 0,0.0543 -0.00427,0.004 -0.015399,-0.005 -0.018096,0 -0.00265,0.005 0,0.0938 0,0.10858 0,0.004 -5.82e-4,0.0537 0,0.0543 0.037442,0.0374 -0.00146,-0.0572 0.036193,0.0181 0.0054,0.0108 -0.00853,0.0277 0,0.0362 0.00853,0.009 0.027662,-0.009 0.036193,0 0.00427,0.004 -0.00427,0.0138 0,0.0181 7.283e-4,7.3e-4 0.06574,0 0.072386,0 -0.1340877,-0.0766 -0.09229,-0.038 -0.1447776,-0.0905 -0.012064,-0.0121 -0.021997,-0.0267 -0.036193,-0.0362 -0.00502,-0.003 -0.012064,0 -0.018096,0 -0.00603,-0.006 -0.012064,-0.0121 -0.018096,-0.0181 -0.00953,-0.01 -0.044624,-0.0495 -0.054289,-0.0543 -0.010791,-0.005 -0.027662,0.009 -0.036193,0 -0.00427,-0.004 0.0027,-0.0127 0,-0.0181 -0.00483,-0.01 -0.044762,-0.0448 -0.054289,-0.0543 -0.00603,-0.006 -0.012064,-0.0121 -0.018096,-0.0181 -0.00603,-0.006 -0.010003,-0.0154 -0.018096,-0.0181 -0.011445,-0.004 -0.024748,0.004 -0.036193,0 -0.016186,-0.005 -0.020933,-0.0286 -0.036193,-0.0362 -0.0054,-0.003 -0.012701,0.003 -0.018096,0 -0.00763,-0.004 -0.010466,-0.0143 -0.018097,-0.0181 -0.014477,-0.007 -0.039812,0.007 -0.054289,0 -0.0054,-0.003 0.0027,-0.0127 0,-0.0181 -0.00382,-0.008 -0.010466,-0.0143 -0.018096,-0.0181 -0.00551,-0.003 -0.04614,0 -0.054289,0 -0.036193,0 -0.072386,0 -0.108579,0 -0.00603,0 -0.012701,-0.003 -0.018097,0 -0.00763,0.004 -0.010466,0.0143 -0.018096,0.0181 -0.00718,0.004 -0.05059,-0.004 -0.054289,0 -0.00427,0.004 0.00427,0.0138 0,0.0181 -0.00905,0.009 -0.045241,-0.009 -0.05429,0 -0.00427,0.004 0.00427,0.0138 0,0.0181 -0.00853,0.009 -0.027662,-0.009 -0.036193,0 -0.037442,0.0374 0.057217,-0.001 -0.018096,0.0362 -0.0054,0.003 -0.013831,-0.004 -0.018097,0 -8.202e-4,8.2e-4 0,0.082 0,0.0905 0,0.0422 0,0.0845 0,0.12668 0,0.008 -0.00275,0.0488 0,0.0543 0.04141,0.0828 -0.0075,-0.0768 0.036193,0.0543 0.00381,0.0114 -0.00853,0.0277 0,0.0362 0.00427,0.004 0.013831,-0.004 0.018096,0 0.00853,0.009 -0.00853,0.0277 0,0.0362 0.037442,0.0374 -0.00146,-0.0572 0.036193,0.0181 0.0054,0.0108 -0.00853,0.0277 0,0.0362 0.017852,0.0179 0.036193,-0.0371 0.036193,0.0181"
       id="path4497"
       inkscape:connector-curvature="0" />
    <path
       style="fill:none;stroke:#000000;stroke-width:0.26458332px;stroke-linecap:butt;stroke-linejoin:miter;stroke-opacity:1"
       d="m 1.8277517,289.61656 c -0.072388,0.0724 -0.1419393,0.14777 -0.2171631,0.21722 -0.00443,0.004 -0.012064,0 -0.018096,0 -0.018096,0 -0.036733,0.004 -0.054289,0 -0.026171,-0.007 -0.046215,-0.0297 -0.072386,-0.0362 -0.012679,-0.003 -0.1020266,0 -0.108579,0 -0.05429,0 -0.108579,0 -0.1628685,0 -0.00603,0 -0.012064,0 -0.018096,0 -0.00603,0 -0.013831,-0.004 -0.018096,0 -0.00427,0.004 0.0054,0.0154 0,0.0181 -0.010791,0.005 -0.024129,0 -0.036193,0 -0.00603,0 -0.013831,-0.004 -0.018096,0 -0.00427,0.004 0.00427,0.0138 0,0.0181 -0.00427,0.004 -0.013831,-0.004 -0.018096,0 -0.00427,0.004 0.0027,0.0127 0,0.0181 -0.00382,0.008 -0.014281,0.0105 -0.018096,0.0181 -0.0027,0.005 0.00427,0.0138 0,0.0181 -0.00427,0.004 -0.013831,-0.004 -0.018096,0 -0.00427,0.004 0,0.0121 0,0.0181 0,0.0126 0.00327,0.0839 0,0.0905 -0.00381,0.008 -0.014281,0.0105 -0.018096,0.0181 -0.00275,0.005 0,0.0461 0,0.0543 0,0.006 -0.00427,0.0138 0,0.0181 0.00427,0.004 0.013831,-0.004 0.018096,0 0.00954,0.01 0.010614,0.025 0.018096,0.0362 0.00473,0.007 0.014281,0.0105 0.018096,0.0181 0.0054,0.0108 -0.00853,0.0277 0,0.0362 0.00427,0.004 0.013831,-0.004 0.018096,0 0.00427,0.004 -0.00427,0.0138 0,0.0181 0.00427,0.004 0.013831,-0.004 0.018096,0 0.00427,0.004 -0.00427,0.0138 0,0.0181 0.037442,0.0374 -0.00146,-0.0572 0.036193,0.0181 0.0027,0.005 -0.00427,0.0138 0,0.0181 0.00427,0.004 0.012701,-0.003 0.018096,0 0.00763,0.004 0.010466,0.0143 0.018096,0.0181 0.0054,0.003 0.015399,-0.005 0.018096,0 0.0054,0.0108 -0.0054,0.0254 0,0.0362 0.0027,0.005 0.012701,-0.003 0.018096,0 0.00763,0.004 0.010466,0.0143 0.018096,0.0181 0.0054,0.003 0.013831,-0.004 0.018096,0 0.00427,0.004 0,0.0121 0,0.0181 0.00603,0 0.013831,-0.004 0.018096,0 0.00427,0.004 -0.00427,0.0138 0,0.0181 0.00427,0.004 0.012701,-0.003 0.018096,0 0.00763,0.004 0.010466,0.0143 0.018096,0.0181 0.022764,0.0114 0.036193,-0.026 0.036193,0.0181"
       id="path4499"
       inkscape:connector-curvature="0" />
    <path
       style="fill:none;stroke:#000000;stroke-width:0.26458332px;stroke-linecap:butt;stroke-linejoin:miter;stroke-opacity:1"
       d="m 1.2667541,290.34058 c -0.096514,-0.0181 -0.1920171,-0.0429 -0.28954303,-0.0544 -0.008472,-10e-4 -0.0120642,0.0121 -0.0180964,0.0181 -0.006032,0.006 -0.0104664,0.0143 -0.0180964,0.0181 -0.005395,0.003 -0.0138311,-0.004 -0.0180964,0 0,0.0266 0.004265,0.0138 -0.0180964,0.0362 -0.006032,0.006 -0.0120642,0.0121 -0.0180964,0.0181 -0.006032,0.006 -0.0100036,0.0154 -0.0180964,0.0181 -0.0114453,0.004 -0.0254024,-0.005 -0.036193,0 -0.0107908,0.005 0.008531,0.0277 0,0.0362 -0.004265,0.004 -0.0138311,-0.004 -0.0180964,0 -0.004265,0.004 0.002698,0.0127 0,0.0181 -0.003815,0.008 -0.0142814,0.0105 -0.0180964,0.0181 -0.005395,0.0108 0.005395,0.0254 0,0.0362 -0.003815,0.008 -0.0142814,0.0105 -0.0180964,0.0181 -0.002379,0.005 0,0.0629 0,0.0724 0,0.0483 0,0.0965 0,0.14478 0,0.0241 0,0.0482 0,0.0724 0,0.0121 -0.003815,0.0247 0,0.0362 0.004265,0.0128 0.0138311,0.0234 0.0180964,0.0362 0.003815,0.0114 -0.005395,0.0254 0,0.0362 0.00763,0.0153 0.0285628,0.0209 0.036193,0.0362 0.002698,0.005 -0.002698,0.0127 0,0.0181 0.003815,0.008 0.0142814,0.0105 0.0180964,0.0181 0.0124807,0.025 -0.021916,0.0162 0.0180964,0.0362 0.005395,0.003 0.0138311,-0.004 0.0180964,0 0.004265,0.004 -0.002698,0.0127 0,0.0181 0.003815,0.008 0.0142814,0.0105 0.0180964,0.0181 0.002698,0.005 -0.004265,0.0138 0,0.0181 0.004265,0.004 0.0138311,-0.004 0.0180964,0 0.004265,0.004 -0.004265,0.0138 0,0.0181 0.009538,0.01 0.0266553,0.009 0.036193,0.0181 0.004265,0.004 -0.004265,0.0138 0,0.0181 0.009538,0.01 0.0233968,0.0138 0.036193,0.0181 0.005723,0.002 0.013831,-0.004 0.0180965,0 0.00427,0.004 -0.00427,0.0138 0,0.0181 0.00427,0.004 0.013831,-0.004 0.018096,0 0.00427,0.004 -0.00427,0.0138 0,0.0181 0.00427,0.004 0.012064,0 0.018096,0 0.00603,0 0.012064,0 0.018096,0 0.042225,0 0.08445,0 0.1266755,0 0.00603,0 0.013831,0.004 0.018096,0 0.00427,-0.004 -0.00427,-0.0138 0,-0.0181 0.00905,-0.009 0.045241,0.009 0.05429,0 0.00427,-0.004 -0.00596,-0.0172 0,-0.0181 0.077735,-0.012 0.1568364,-0.0121 0.2352545,-0.0181"
       id="path4501"
       inkscape:connector-curvature="0" />
    <path
       style="fill:none;stroke:#000000;stroke-width:0.26458332px;stroke-linecap:butt;stroke-linejoin:miter;stroke-opacity:1"
       d="m 2.9497266,292.13206 c 0.2548244,0.0275 0.014872,0.13507 0.036196,0.19904 0.00427,0.0128 0.010615,0.025 0.018098,0.0362 0.00473,0.007 0.014282,0.0105 0.018098,0.0181 0.0027,0.005 0,0.0121 0,0.0181 0,0.0121 0,0.0241 0,0.0362 0,0.0603 0,0.12064 0,0.18097 0,0.18096 0,0.36193 0,0.54289 0,0.0498 -0.00191,-0.0276 0.018098,0.0724 0.00235,0.0118 -0.00169,0.0242 0,0.0362 0.00435,0.0305 0.015542,0.0598 0.018097,0.0905 0.00351,0.0421 0,0.0845 0,0.12668 0,0.0482 0,0.0965 0,0.14477 0,0.0121 -0.00151,0.0242 0,0.0362 0.00455,0.0364 0.014044,0.0721 0.018098,0.10858 0.00201,0.018 0,0.0362 0,0.0543 0,0.0483 0,0.0965 0,0.14477 0,0.13874 0,0.27748 0,0.41622 0,0.0905 0,0.18097 0,0.27145 0,0.0139 0.00419,0.0918 0,0.10858 -0.00462,0.0185 -0.014356,0.0356 -0.018098,0.0543 -0.00473,0.0237 0.00763,0.0495 0,0.0724 -0.0027,0.008 -0.013708,0.0108 -0.018097,0.0181 -0.01388,0.0231 -0.027662,0.0468 -0.036193,0.0724 -2.75e-5,8e-5 1.72e-5,0.0543 0,0.0543 -0.00954,0.01 -0.028711,0.007 -0.036193,0.0181 -0.00669,0.01 0.00382,0.0247 0,0.0362 -0.0027,0.008 -0.014282,0.0105 -0.018098,0.0181 -0.0027,0.005 0.00427,0.0138 0,0.0181 -0.02413,0.0241 -0.017365,-0.0384 -0.036193,0.0181 -0.00382,0.0115 0.00853,0.0277 0,0.0362 -0.00853,0.009 -0.025403,-0.005 -0.036193,0 -0.00539,0.003 0.0027,0.0127 0,0.0181 -0.00382,0.008 -0.013364,0.011 -0.018098,0.0181 -0.00748,0.0112 -0.00856,0.0267 -0.018097,0.0362 -0.00954,0.01 -0.026656,0.009 -0.036193,0.0181 -0.00427,0.004 0.00335,0.0131 0,0.0181 -0.00946,0.0142 -0.024127,0.0241 -0.036193,0.0362 -0.00603,0.006 -0.010467,0.0143 -0.018098,0.0181 -0.00539,0.003 -0.012065,0 -0.018098,0 -0.00603,0.0121 -0.00856,0.0267 -0.018097,0.0362 -0.00427,0.004 -0.01383,-0.004 -0.018098,0 -0.00427,0.004 0.00427,0.0138 0,0.0181 -0.00853,0.009 -0.025403,-0.005 -0.036193,0 -0.00763,0.004 -0.012065,0.0121 -0.018096,0.0181 -0.00603,0.006 -0.014281,0.0105 -0.018096,0.0181 -0.0027,0.005 0.00427,0.0138 0,0.0181 -0.00853,0.009 -0.027662,-0.009 -0.036193,0 -0.00427,0.004 0.00427,0.0138 0,0.0181 -0.00427,0.004 -0.013831,-0.004 -0.018096,0 -0.00427,0.004 0.00427,0.0138 0,0.0181 -0.037442,0.0375 0.00146,-0.0572 -0.036193,0.0181 -0.0027,0.005 0.00603,0.0181 0,0.0181 -0.00603,0 0.00603,-0.0181 0,-0.0181 -0.022362,0 -0.018096,0.0254 -0.018096,0.0362"
       id="path4503"
       inkscape:connector-curvature="0" />
    <path
       style="fill:none;stroke:#000000;stroke-width:0.26458332px;stroke-linecap:butt;stroke-linejoin:miter;stroke-opacity:1"
       d="m 4.0717128,292.15013 c -0.02249,0.0116 0.00831,0.16733 0,0.21716 -0.00409,0.0245 -0.014007,0.0479 -0.018098,0.0724 -0.00198,0.0119 0,0.0241 0,0.0362 0,0.0362 0,0.0724 0,0.10858 0,0.10255 0,0.20509 0,0.30764 0,0.11461 0,0.22922 0,0.34383 0,0.11453 -0.00524,0.15478 0.018098,0.27145 0.00265,0.0132 0.013086,0.0237 0.018097,0.0362 0.00709,0.0177 0.01347,0.0358 0.018098,0.0543 0.00746,0.0298 0.00837,0.0613 0.018097,0.0905 0.0027,0.008 0.015753,0.01 0.018097,0.0181 0.042792,0.0506 0.00738,0.10931 0.018098,0.16287 0.00265,0.0132 0.014825,0.0231 0.018097,0.0362 0.0089,0.0356 0.0092,0.073 0.018097,0.10857 0.00327,0.0131 0.014825,0.0231 0.018098,0.0362 0.00293,0.0117 0,0.0241 0,0.0362 0,0.0362 -0.0071,0.0731 0,0.10858 0.00167,0.008 0.014737,0.0103 0.018097,0.0181 0.015028,0.0351 0.02694,0.0716 0.036193,0.10858 0.00293,0.0117 -0.00151,0.0242 0,0.0362 0.00455,0.0364 0.00985,0.0728 0.018097,0.10858 0.00987,0.0428 0.022307,0.085 0.036193,0.12667 0.00427,0.0128 0.01619,0.0228 0.018098,0.0362 0.00427,0.0298 -0.00732,0.0612 0,0.0905 0.00528,0.0211 0.028116,0.0341 0.036193,0.0543 0.00448,0.0112 -0.00293,0.0245 0,0.0362 0.00925,0.037 0.024127,0.0724 0.036193,0.10858 0.00603,0.0181 0.014356,0.0356 0.018097,0.0543 0.00235,0.0118 -0.00382,0.0248 0,0.0362 0.0027,0.008 0.012065,0.0121 0.018098,0.0181 0.00603,0.0181 0.014356,0.0356 0.018097,0.0543 0.00235,0.0118 -0.00669,0.0261 0,0.0362 0.00748,0.0112 0.026655,0.009 0.036193,0.0181 0.070626,0.0706 -0.00419,0.01 0.018097,0.0543 0.00382,0.008 0.014282,0.0105 0.018097,0.0181 0.0027,0.005 -0.0027,0.0127 0,0.0181 0.00382,0.008 0.012065,0.0121 0.018098,0.0181 0.012065,0.0121 0.024127,0.0241 0.036193,0.0362 0.018098,0.0181 0.038934,0.0338 0.054289,0.0543 0.013049,0.0174 0.023143,0.0369 0.036193,0.0543 0.00512,0.007 0.010999,0.0134 0.018098,0.0181 0.011224,0.007 0.028711,0.007 0.036193,0.0181 0.00669,0.01 -0.00669,0.0261 0,0.0362 0.00748,0.0112 0.026655,0.009 0.036193,0.0181 0.00427,0.004 -0.00427,0.0138 0,0.0181 0.00954,0.01 0.026655,0.009 0.036193,0.0181 0.00427,0.004 -0.00427,0.0138 0,0.0181 0.00853,0.009 0.025403,-0.005 0.036193,0 0.04119,0.0412 -0.00375,0.005 0.036193,0.0181 0.012795,0.004 0.023397,0.0138 0.036193,0.0181 0.00572,0.002 0.012375,-0.002 0.018097,0 0.025593,0.009 0.046794,0.0277 0.072386,0.0362 0.00572,0.002 0.012065,0 0.018098,0 0.012065,0 0.02413,0 0.036193,0 0.060322,0 0.1206434,0 0.1809652,0"
       id="path4505"
       inkscape:connector-curvature="0" />
    <path
       style="fill:#ffffff;fill-opacity:1;stroke:#000000;stroke-width:0.06839623;stroke-miterlimit:4;stroke-dasharray:none"
       d="M 9.6497644,13.337544 C 9.5745285,13.318666 9.3518479,13.129872 9.1549186,12.918002 8.8298079,12.568226 8.7967708,12.503373 8.7958384,12.213125 l -0.00103,-0.319659 -0.4958727,-0.275532 -0.4958726,-0.275532 -0.034766,0.321606 c -0.032284,0.298649 -0.2738854,0.802825 -0.4403972,0.919025 -0.039604,0.02764 -0.3797896,0.05061 -0.7559688,0.05104 -0.5771637,6.86e-4 -0.7213375,-0.02187 -0.9233459,-0.14435 C 5.5169225,12.409893 5.386586,12.309979 5.3589486,12.267691 5.2577931,12.112911 5.306037,11.508254 5.438755,11.267453 5.683081,10.824152 5.6988729,10.756479 5.7311588,10.014418 L 5.7633578,9.2743551 5.244297,9.3209102 C 4.9588135,9.3465156 4.6959968,9.3948447 4.6602598,9.4283084 4.543139,9.5379787 4.1077673,9.4954476 3.9686755,9.3607481 3.5413827,8.9469485 3.437974,8.6698404 3.4704984,8.0257639 3.4941183,7.5580225 3.5126268,7.5034803 3.6969265,7.3585101 3.888013,7.2082015 4.2002259,7.1758515 4.2806607,7.2980264 c 0.031913,0.048473 0.2016499,0.09124 0.727181,0.1832221 0.1306456,0.022866 0.2340429,0.0054 0.2650511,-0.044772 0.035108,-0.056806 0.01115,-0.070312 -0.077417,-0.043642 -0.1158821,0.034894 -0.4360416,-0.153965 -0.4360416,-0.2572172 0,-0.022184 0.200059,-0.040334 0.4445755,-0.040334 0.3381858,0 0.4445754,-0.023213 0.4445754,-0.097001 0,-0.198507 -0.091464,-0.3186497 -0.4333532,-0.5692313 C 4.69365,6.0467675 4.4901868,5.7978763 4.4878543,5.5392695 l -0.002,-0.2222878 H 4.931502 c 0.245109,0 0.5637724,0.036865 0.708141,0.081922 0.2255567,0.070396 0.2849932,0.1340554 0.4224389,0.4524529 0.2730791,0.6325968 0.6864121,0.914163 1.022824,0.696757 0.081397,-0.052603 0.067265,-0.066734 -0.068396,-0.068396 -0.3208849,-0.00393 -0.3640927,-0.1085151 -0.079997,-0.1936322 0.1467719,-0.043974 0.3209965,-0.079953 0.3871657,-0.079953 0.097704,0 0.1124484,-0.039296 0.078476,-0.2091581 C 7.3791471,5.8819376 7.3094677,5.7369613 7.2473114,5.674805 7.1851551,5.6126487 7.092408,5.4615319 7.0412067,5.3389901 6.748365,4.6381213 7.2623256,4.3551832 8.0667034,4.7744483 8.3681123,4.9315514 8.4042619,4.9609851 9.0214956,5.5518574 9.2402166,5.7612371 9.4556647,5.934715 9.5002692,5.937364 c 0.044604,0.00265 0.388882,0.016463 0.7650608,0.030698 0.37618,0.014235 0.9148,0.045587 1.196934,0.069671 0.375021,0.032013 0.493281,0.023379 0.43975,-0.032104 C 11.861744,5.963888 11.430847,5.7042262 10.944467,5.4286024 10.458088,5.1529787 10.060142,4.8843011 10.060142,4.831541 c 0,-0.073162 0.137968,-0.1008281 0.581368,-0.1165783 0.610844,-0.021698 1.059131,0.065412 1.402122,0.2724575 0.112854,0.068124 0.264696,0.1239765 0.337428,0.1241171 0.170007,3.29e-4 0.921247,0.2646056 1.097013,0.3859156 0.08355,0.057665 0.324405,0.093114 0.632665,0.093114 h 0.497753 V 5.0775949 4.5646232 h 0.395158 c 0.417306,0 0.535167,0.053944 0.982178,0.4495367 0.13684,0.121099 0.341717,0.2405882 0.455284,0.2655317 0.175817,0.038616 0.280159,0.1691933 0.702533,0.8791747 0.748028,1.2573835 0.692151,1.2293491 0.639503,0.3208512 -0.03695,-0.6375302 -0.02518,-0.8351521 0.0621,-1.0430424 0.09102,-0.2168112 0.13996,-0.2564858 0.316359,-0.2564858 0.132657,0 0.208679,-0.03467 0.208679,-0.095168 0,-0.1201739 0.478491,-0.3152095 0.77332,-0.3152095 0.289864,0 0.738797,0.3875123 1.0353,0.8936572 0.190269,0.3247978 0.247803,0.3742473 0.45619,0.3920843 0.160009,0.013696 0.376713,-0.048183 0.658696,-0.1880896 0.489331,-0.2427823 0.65123,-0.2550527 1.054903,-0.079952 0.388588,0.1685569 0.611273,0.4161575 0.619009,0.6882705 0.0084,0.2957292 -0.09248,0.3726108 -0.764253,0.5823773 -0.318115,0.099335 -0.618062,0.213532 -0.666548,0.2537721 -0.140742,0.1168054 -0.247331,0.5693124 -0.197131,0.8368957 0.03769,0.2008931 0.07611,0.2459843 0.209611,0.2459843 0.12473,0 0.183975,0.056724 0.250027,0.2393868 0.04761,0.1316628 0.118854,0.2405085 0.158319,0.2418794 0.03946,0.00137 0.156395,0.1140512 0.259845,0.2504006 0.245256,0.3232557 0.245256,0.6308189 0,1.0181656 l -0.18809,0.29706 -0.854953,3.21e-4 c -0.646236,2.47e-4 -0.887364,-0.02419 -0.987719,-0.100097 -0.370284,-0.280068 -0.897808,0.0021 -0.835268,0.446751 0.05832,0.414655 0.131052,0.644297 0.259953,0.820755 0.114752,0.157087 0.11706,0.2005 0.02839,0.533928 -0.102643,0.385967 -0.209133,0.560411 -0.342108,0.560411 -0.276827,0 -1.405438,-0.736076 -1.661678,-1.083741 -0.225409,-0.305835 -0.974016,-0.806673 -1.198007,-0.801499 -0.194776,0.0045 -0.252124,0.07399 -0.102595,0.124314 0.169382,0.05701 -0.09213,0.25621 -0.336356,0.25621 -0.233463,0 -0.233978,7.1e-4 -0.186117,0.256486 0.04971,0.265682 0.308981,0.638625 0.693464,0.997514 0.386714,0.360972 0.334247,0.387509 -0.766121,0.387509 -0.642276,0 -1.121598,-0.03469 -1.368744,-0.09907 -0.39444,-0.102738 -1.1044,-0.542375 -1.165441,-0.721689 -0.05895,-0.173166 -0.674987,-0.805268 -0.828632,-0.850237 -0.306971,-0.08985 -0.496108,0.06951 -0.780503,0.657601 -0.149365,0.308868 -0.272475,0.609375 -0.273578,0.667791 -0.0038,0.202172 -0.391555,0.550788 -0.612597,0.550788 -0.1563,0 -0.206153,0.03115 -0.206153,0.128816 0,0.186476 -0.432624,0.268944 -0.8549526,0.162973 z"
       id="path11478"
       inkscape:connector-curvature="0"
       transform="matrix(0.26458333,0,0,0.26458333,0,288.53333)" />
  </g>
</svg>
