<?xml version="1.0" encoding="UTF-8" standalone="no"?>
<!-- Created with Inkscape (http://www.inkscape.org/) -->

<svg
   xmlns:dc="http://purl.org/dc/elements/1.1/"
   xmlns:cc="http://creativecommons.org/ns#"
   xmlns:rdf="http://www.w3.org/1999/02/22-rdf-syntax-ns#"
   xmlns:svg="http://www.w3.org/2000/svg"
   xmlns="http://www.w3.org/2000/svg"
   xmlns:sodipodi="http://sodipodi.sourceforge.net/DTD/sodipodi-0.dtd"
   xmlns:inkscape="http://www.inkscape.org/namespaces/inkscape"
   width="32"
   height="32"
   viewBox="0 0 8.4666667 8.4666667"
   version="1.1"
   id="svg8"
   inkscape:export-filename="C:\Unity\Gods Fate\Assets\Graphics\Ground\House.png"
   inkscape:export-xdpi="96"
   inkscape:export-ydpi="96"
   inkscape:version="0.92.1 r15371"
   sodipodi:docname="House.svg">
  <defs
     id="defs2" />
  <sodipodi:namedview
     id="base"
     pagecolor="#ffffff"
     bordercolor="#666666"
     borderopacity="1.0"
     inkscape:pageopacity="0.0"
     inkscape:pageshadow="2"
     inkscape:zoom="14.62069"
     inkscape:cx="10.573113"
     inkscape:cy="15.575471"
     inkscape:document-units="px"
     inkscape:current-layer="layer1"
     showgrid="false"
     units="px"
     inkscape:window-width="1920"
     inkscape:window-height="1017"
     inkscape:window-x="-8"
     inkscape:window-y="-8"
     inkscape:window-maximized="1" />
  <metadata
     id="metadata5">
    <rdf:RDF>
      <cc:Work
         rdf:about="">
        <dc:format>image/svg+xml</dc:format>
        <dc:type
           rdf:resource="http://purl.org/dc/dcmitype/StillImage" />
        <dc:title></dc:title>
      </cc:Work>
    </rdf:RDF>
  </metadata>
  <g
     inkscape:label="Calque 1"
     inkscape:groupmode="layer"
     id="layer1"
     transform="translate(0,-288.53333)">
    <path
       style="fill:none;stroke:#000000;stroke-width:0.26458332px;stroke-linecap:butt;stroke-linejoin:miter;stroke-opacity:1"
       d="m 1.1762726,295.78753 c 0.059663,-0.0214 0.00837,-0.0613 0.018096,-0.0905 0.00427,-0.0128 0.014825,-0.0231 0.018096,-0.0362 0.00713,-0.0285 -0.00577,-0.0616 0,-0.0905 0.00488,-0.0244 0.013219,-0.048 0.018097,-0.0724 0.00355,-0.0178 0,-0.0362 0,-0.0543 0,-0.0302 0,-0.0603 0,-0.0905 0,-0.10255 0,-0.2051 0,-0.30765 0,-0.0482 0,-0.0965 0,-0.14477 0,-0.0603 0.00463,-0.12082 0,-0.18096 -0.00146,-0.019 -0.015731,-0.0354 -0.018097,-0.0543 -0.00374,-0.0299 0,-0.0603 0,-0.0905 0,-0.0603 0,-0.12065 0,-0.18097 0,-0.0296 0.00326,-0.0612 0,-0.0905 -0.00471,-0.0424 -0.013386,-0.0843 -0.018096,-0.12668 -0.00492,-0.0442 0,-0.14911 0,-0.18096 0,-0.13874 0,-0.27748 0,-0.41622 0,-0.24732 0,-0.49464 0,-0.74196 0,-0.0724 0,-0.14477 0,-0.21716 0,-0.0124 -0.00423,-0.082 0,-0.0905 0.00381,-0.008 0.014281,-0.0105 0.018096,-0.0181 0.00327,-0.007 0,-0.0779 0,-0.0905 0,-0.0724 0,-0.14477 0,-0.21716 0,-0.0362 0,-0.0724 0,-0.10858 0,-0.008 -0.00275,-0.0488 0,-0.0543 0.00382,-0.008 0.014282,-0.0105 0.018097,-0.0181 0.00203,-0.004 0,-0.0681 0,-0.0724 0,-0.0422 0,-0.0845 0,-0.12667 0.08445,-0.012 0.1683018,-0.0295 0.2533515,-0.036 0.072175,-0.006 0.144772,0 0.217158,0 0.054289,0 0.108579,0 0.1628685,0 0.090483,0 0.180965,0 0.2714475,0 0.048257,0 0.096515,0 0.1447721,0 0.030161,0 0.060426,-0.002 0.090483,0 0.042507,0.004 0.084197,0.0142 0.1266755,0.0181 0.051906,0.005 0.1104041,0 0.1628685,0 0.1025468,0 0.2050937,0 0.3076405,0 0.3016084,0 0.6032167,0 0.9048251,0 0.1930293,0 0.3860587,0 0.579088,0 0.1146112,0 0.2292223,0 0.3438335,0 0.030161,0 0.060322,0 0.090482,0 0.012064,0 0.024293,-0.002 0.036193,0 0.024533,0.004 0.047998,0.0132 0.072386,0.0181 0.01183,0.002 0.024129,0 0.036193,0 0.030161,0 0.060322,0 0.090482,0 0.012064,0 0.025402,-0.005 0.036193,0 0.0054,0.003 -0.00427,0.0138 0,0.0181 1.73e-5,2e-5 0.054208,-2e-5 0.05429,0 0.00809,0.003 0.00973,0.0164 0.018096,0.0181 0.053563,0.0107 0.1084335,0.0136 0.1628685,0.0181 0.018034,0.002 0.036544,-0.004 0.05429,0 0.013226,0.003 0.022967,0.0154 0.036193,0.0181 0.020656,0.004 0.1906442,0 0.1990615,0 0.1930293,0 0.3860587,0 0.579088,0 0.036193,0 0.072386,0 0.108579,0 0.018096,0 0.036193,0 0.054289,0 0.00603,0 0.012701,0.003 0.018097,0 0.03919,-0.0196 -0.00636,-0.0181 0.054289,-0.0181 1.1e-6,0.24732 6e-7,0.49464 6e-7,0.74195 0,0.0603 0,0.12065 0,0.18097 0,0.0121 -0.00171,0.0242 0,0.0362 0.036737,0.25716 -5.026e-4,-0.1131 0.036193,0.21716 0.00133,0.012 -0.00293,0.0245 0,0.0362 0.00327,0.0131 0.015451,0.023 0.018096,0.0362 0.00355,0.0177 0,0.0362 0,0.0543 0,0.0543 0,0.10858 0,0.16287 0,0.0181 -0.00256,0.0364 0,0.0543 0.00352,0.0246 0.01535,0.0477 0.018097,0.0724 0.00333,0.03 -0.00496,0.0607 0,0.0905 0.00722,0.0433 0.026667,0.0838 0.036193,0.12668 0.00262,0.0118 0,0.0241 0,0.0362 0,0.0181 0,0.0362 0,0.0543 0,0.0483 0,0.0965 0,0.14477 0,0.0965 0,0.19303 0,0.28955 0,0.0302 0,0.0603 0,0.0905 0,0.0121 0.00382,0.0247 0,0.0362 -0.0027,0.008 -0.016694,0.01 -0.018097,0.0181 -0.00584,0.0351 0,0.13534 0,0.18096 0,0.12065 0,0.24129 0,0.36193 0,0.0362 0,0.0724 0,0.10858 0,0.0121 0,0.0241 0,0.0362 0,0.006 0.00191,0.0124 0,0.0181 -0.00427,0.0128 -0.013831,0.0234 -0.018096,0.0362 -0.00496,0.0149 0,0.0552 0,0.0724 0,0.0483 0,0.0965 0,0.14477 0,0.16287 0,0.32574 0,0.48861"
       id="path7287"
       inkscape:connector-curvature="0" />
    <path
       style="fill:none;stroke:#000000;stroke-width:0.26458332px;stroke-linecap:butt;stroke-linejoin:miter;stroke-opacity:1"
       d="m 3.2392736,295.71514 c 0.014139,-0.0154 -0.0089,-0.11806 0,-0.14477 0.0027,-0.008 0.015399,-0.01 0.018097,-0.0181 0.00476,-0.0143 0,-0.12456 0,-0.14478 0,-0.10254 0,-0.20509 0,-0.30764 0,-0.0181 0,-0.0362 0,-0.0543 0,-0.006 -0.0019,-0.0124 0,-0.0181 0.00427,-0.0128 0.014825,-0.0231 0.018098,-0.0362 0.0053,-0.0212 0,-0.0686 0,-0.0905 0,-0.0543 0,-0.10858 0,-0.16287 0,-0.0549 -7.673e-4,-0.0158 0.018098,-0.0724 0.00496,-0.0149 0,-0.0552 0,-0.0724 0,-0.0483 0,-0.0965 0,-0.14477"
       id="path7289"
       inkscape:connector-curvature="0" />
    <path
       style="fill:none;stroke:#000000;stroke-width:0.26458332px;stroke-linecap:butt;stroke-linejoin:miter;stroke-opacity:1"
       d="m 3.2935666,294.44831 c 0.018095,-0.0482 0.024334,-0.10278 0.054286,-0.14469 0.011504,-0.0161 0.047096,0.0326 0.054289,0.0362 0.00986,0.005 0.084318,0 0.1085792,0 0.1206431,0 0.2412865,0 0.3619299,0 0.036193,0 0.072386,0 0.1085789,0 0.012065,0 0.025403,-0.005 0.036193,0 0.00763,0.004 0.010467,0.0143 0.018098,0.0181 0.00982,0.005 0.067434,-0.005 0.072386,0 0.00426,0.004 -0.00427,0.0138 0,0.0181 9.26e-4,9.2e-4 0.098254,0 0.1085789,0 0.024128,0.0362 0.054719,0.0688 0.072385,0.10856 0.00284,0.006 0,0.13497 0,0.14478 0,0.0845 0,0.1689 0,0.25335 0,0.0603 0,0.12064 0,0.18096 0,0.0203 -0.00508,0.0752 0,0.0905 0.0027,0.008 0.014281,0.0105 0.018097,0.0181 0.00338,0.007 0,0.12472 0,0.14477 0,0.11461 0,0.22922 0,0.34384 0.060322,-0.006 0.1205206,-0.0135 0.1809648,-0.0181 0.058043,-0.004 0.1235377,0 0.180965,0 0.1206434,0 0.2412867,0 0.36193,0 0.066354,0 0.1327077,0 0.1990616,0 0.02394,0 0.092533,-0.005 0.108579,0 0.012796,0.004 0.023107,0.0148 0.036193,0.0181 0.035597,0.009 0.07217,0.0135 0.108579,0.0181 0.011971,0.002 0.024489,-0.003 0.036193,0 0.013086,0.003 0.023107,0.0148 0.036193,0.0181 0.035597,0.009 0.072599,0.0109 0.108579,0.0181 0.024388,0.005 0.047638,0.0156 0.072386,0.0181 0.063561,0.006 0.1342714,0 0.1990615,0 0.1266755,0 0.253351,0 0.3800265,0 0.030161,0 0.060322,0 0.090483,0 0.012064,0 0.024129,0 0.036193,0 0.00603,0 0.018096,-0.006 0.018096,0 0,0.006 -0.012064,0 -0.018096,0 0.042225,0.0242 0.08445,0.0484 0.1266755,0.0725"
       id="path7291"
       inkscape:connector-curvature="0" />
    <path
       style="fill:none;stroke:#000000;stroke-width:0.26458332px;stroke-linecap:butt;stroke-linejoin:miter;stroke-opacity:1"
       d="m 1.1762731,295.78754 c 0.048257,-0.0242 0.095469,-0.0505 0.144772,-0.0724 0.011025,-0.005 0.025402,0.005 0.036193,0 0.00763,-0.004 0.010466,-0.0141 0.018096,-0.0181 0.00992,-0.005 0.121924,0 0.144772,0 0.108579,0 0.217158,0 0.325737,0 0.289544,0 0.579088,0 0.8686321,0 0.1146112,0 0.2292223,0 0.3438335,0 0.036193,0 0.07275,-0.005 0.1085789,0 0.024621,0.003 0.048256,0.0121 0.072386,0.0181 0.042225,0.0121 0.083469,0.0283 0.1266756,0.0362 0.023739,0.004 0.048257,0 0.072386,0 0.072386,0 0.144772,0 0.217158,0 0.018096,0 0.036193,0 0.054289,0 0.012064,0 0.024748,-0.004 0.036193,0 0.012796,0.004 0.023397,0.0138 0.036193,0.0181 0.013371,0.004 0.09859,0 0.108579,0 0.054289,0 0.108579,0 0.1628685,0 0.01498,0 0.1010291,0.005 0.108579,0 0.05019,-0.0335 0.096515,-0.0724 0.1447722,-0.10855"
       id="path7293"
       inkscape:connector-curvature="0" />
    <path
       style="fill:none;stroke:#000000;stroke-width:0.26458332px;stroke-linecap:butt;stroke-linejoin:miter;stroke-opacity:1"
       d="m 3.9450372,294.99128 0.05429,0.0905"
       id="path7295"
       inkscape:connector-curvature="0" />
    <path
       style="fill:none;stroke:#000000;stroke-width:0.26458332px;stroke-linecap:butt;stroke-linejoin:miter;stroke-opacity:1"
       d="m 1.2305616,291.82419 c 0.045549,-0.10156 0.093092,-0.14717 0.162869,-0.21695 0.012064,-0.0121 0.022544,-0.026 0.036193,-0.0362 0.010791,-0.008 0.026655,-0.009 0.036193,-0.0181 0.00427,-0.004 -0.0027,-0.0127 0,-0.0181 0.011445,-0.0229 0.041122,-0.0323 0.05429,-0.0543 0.00981,-0.0164 0.00461,-0.0408 0.018096,-0.0543 0.013489,-0.0135 0.039029,-0.007 0.05429,-0.0181 0.010791,-0.008 0.00856,-0.0266 0.018096,-0.0362 0.00954,-0.01 0.025402,-0.01 0.036193,-0.0181 0.013649,-0.0102 0.024129,-0.0241 0.036193,-0.0362 0.00603,-0.006 0.012978,-0.0113 0.018096,-0.0181 0.01305,-0.0174 0.028115,-0.0341 0.036193,-0.0543 0.00448,-0.0112 -0.00965,-0.029 0,-0.0362 0.019897,-0.0149 0.052489,-0.003 0.072386,-0.0181 0.00965,-0.007 -0.00669,-0.0262 0,-0.0362 0.00748,-0.0112 0.026655,-0.009 0.036193,-0.0181 0.00954,-0.01 0.00856,-0.0267 0.018096,-0.0362 0.00954,-0.01 0.026655,-0.009 0.036193,-0.0181 0.00954,-0.01 0.010614,-0.025 0.018096,-0.0362 0.00473,-0.007 0.012978,-0.0113 0.018096,-0.0181 0.01305,-0.0174 0.022607,-0.0373 0.036193,-0.0543 0.010658,-0.0133 0.024129,-0.0241 0.036193,-0.0362 0.036193,-0.0362 0.072386,-0.0724 0.108579,-0.10858 0.036193,-0.0362 0.072386,-0.0724 0.108579,-0.10858 0.018097,-0.0181 0.032995,-0.0401 0.05429,-0.0543 0.011223,-0.007 0.02497,-0.0106 0.036193,-0.0181 0.041574,-0.0277 -0.00776,-0.0103 0.036193,-0.0543 0.00954,-0.01 0.026655,-0.009 0.036193,-0.0181 0.00954,-0.01 0.00856,-0.0267 0.018096,-0.0362 0.00954,-0.01 0.026655,-0.009 0.036193,-0.0181 0.00954,-0.01 0.00731,-0.0281 0.018096,-0.0362 0.01526,-0.0114 0.037933,-0.008 0.05429,-0.0181 0.090482,-0.0543 0,-0.0181 0.054289,-0.0543 0.011223,-0.007 0.026655,-0.009 0.036193,-0.0181 0.035881,-0.0359 -0.00429,-0.0464 0.054289,-0.0724 0.04013,-0.0178 0.088287,-0.0149 0.1266756,-0.0362 0.019013,-0.0106 0.022606,-0.0373 0.036193,-0.0543 0.010657,-0.0133 0.022545,-0.026 0.036193,-0.0362 0.01079,-0.008 0.029253,-0.007 0.036193,-0.0181 0.012795,-0.0213 0.00697,-0.0501 0.018098,-0.0724 0.042023,-0.084 0.028569,0.008 0.090482,-0.0543 0.019076,-0.0191 0.017119,-0.0533 0.036193,-0.0724 0.00853,-0.009 0.026154,0.007 0.036193,0 0.011224,-0.007 0.00856,-0.0266 0.018097,-0.0362 0.00427,-0.004 0.013832,0.004 0.018098,0 0.037442,-0.0374 -0.057217,0.001 0.018098,-0.0362 0.048257,0 -0.00603,0.006 0.018098,-0.0181 0.037442,-0.0374 -0.00146,0.0572 0.036193,-0.0181 0.00539,-0.0108 -0.00539,-0.0254 0,-0.0362 0.00986,-0.0197 0.058308,-0.0513 0.072386,-0.0724 0.00748,-0.0112 0.010615,-0.025 0.018098,-0.0362 0.013893,-0.0208 0.039245,-0.0342 0.054289,-0.0543 0.1345901,-0.17945 -0.029917,0.0358 0.05429,-0.0905 -0.0018,-0.0358 0.026655,-0.009 0.036193,-0.0181 0.00427,-0.004 -0.00427,-0.0138 0,-0.0181 0.00427,-0.004 0.013832,0.004 0.018098,0 0.00427,-0.004 -0.0027,-0.0127 0,-0.0181 0.00382,-0.008 0.014282,-0.0105 0.018097,-0.0181 0.0027,-0.005 -0.0027,-0.0127 0,-0.0181 0.00382,-0.008 0.013364,-0.011 0.018098,-0.0181 0.00748,-0.0112 0.00856,-0.0267 0.018098,-0.0362 0.037443,-0.0374 -0.00146,0.0572 0.036193,-0.0181 0.0027,-0.005 -0.0027,-0.0127 0,-0.0181 0.00374,-0.007 0.046619,-0.0492 0.05429,-0.0543 0.016531,-0.011 0.043916,-0.0155 0.054289,-0.0362 0.00539,-0.0108 -0.00853,-0.0277 0,-0.0362 0.037442,-0.0374 -0.00146,0.0572 0.036193,-0.0181 0,-0.0483 -0.00603,0.006 0.018098,-0.0181 0.00427,-0.004 -0.0027,-0.0127 0,-0.0181 0.011181,-0.0224 0.01747,-0.0181 0.036193,-0.0181"
       id="path7299"
       inkscape:connector-curvature="0" />
    <path
       style="fill:none;stroke:#000000;stroke-width:0.26458332px;stroke-linecap:butt;stroke-linejoin:miter;stroke-opacity:1"
       d="m 3.673599,289.25428 c 0.03619,0.0303 0.07238,0.0606 0.1085697,0.0909 0.012065,0.006 0.025403,0.01 0.036193,0.0181 0.01365,0.0102 0.021997,0.0267 0.036193,0.0362 0.00502,0.003 0.012065,0 0.018098,0 0.018098,0.0121 0.03891,0.0208 0.05429,0.0362 0.015378,0.0154 0.020815,0.0389 0.036193,0.0543 0.00954,0.01 0.026655,0.009 0.036193,0.0181 0.00427,0.004 -0.00427,0.0138 0,0.0181 0.00427,0.004 0.01383,-0.004 0.018098,0 0.00954,0.01 0.00856,0.0267 0.018097,0.0362 0.00954,0.01 0.026656,0.009 0.036193,0.0181 0.00427,0.004 -0.00335,0.0131 0,0.0181 0.00353,0.005 0.060016,0.0641 0.072386,0.0724 0.011224,0.007 0.026655,0.009 0.036193,0.0181 0.00954,0.01 0.00856,0.0267 0.018098,0.0362 0.00427,0.004 0.0127,-0.003 0.018097,0 0.00763,0.004 0.012065,0.0121 0.018097,0.0181 0.00603,0.006 0.014282,0.0105 0.018098,0.0181 0.0027,0.005 -0.00427,0.0138 0,0.0181 0.00427,0.004 0.013832,-0.004 0.018097,0 0.00954,0.01 0.00856,0.0267 0.018098,0.0362 0.00427,0.004 0.013832,-0.004 0.018097,0 0.00954,0.01 0.00731,0.0281 0.018097,0.0362 0.015261,0.0114 0.036578,0.011 0.054289,0.0181 0.012523,0.005 0.02367,0.0131 0.036193,0.0181 0.047853,0.0191 0.096919,0.0351 0.144772,0.0543 0.012523,0.005 0.025403,0.01 0.036193,0.0181 0.01365,0.0102 0.022543,0.0259 0.036193,0.0362 0.01079,0.008 0.026655,0.009 0.036193,0.0181 0.037442,0.0374 -0.057217,-0.001 0.018097,0.0362 0.00539,0.003 0.013833,-0.004 0.018098,0 0.00427,0.004 -0.0027,0.0127 0,0.0181 0.010858,0.0217 0.043432,0.0326 0.05429,0.0543 0.0027,0.005 -0.00539,0.0154 0,0.0181 0.01079,0.005 0.024993,-0.004 0.036193,0 0.044818,-0.01 0.045409,0.0408 0.072386,0.0543 0.017063,0.009 0.037228,0.01 0.05429,0.0181 0.00763,0.004 0.010467,0.0143 0.018097,0.0181 0.00539,0.003 0.013078,-0.003 0.018098,0 0.014195,0.009 0.022543,0.026 0.036193,0.0362 0.01079,0.008 0.026656,0.009 0.036193,0.0181 0.00427,0.004 -0.00427,0.0138 0,0.0181 0.00427,0.004 0.0127,-0.003 0.018097,0 0.00763,0.004 0.012065,0.0121 0.018097,0.0181 0.00603,0.006 0.014282,0.0105 0.018098,0.0181 0.016018,0.032 -0.026917,0.006 0.018097,0.0362 0.011224,0.007 0.024969,0.0106 0.036193,0.0181 0.033301,0.0222 0.057229,0.0683 0.090482,0.0905 0.00502,0.003 0.013832,-0.004 0.018097,0 0.00954,0.01 0.00856,0.0267 0.018097,0.0362 0.00954,0.01 0.028711,0.007 0.036193,0.0181 0.00669,0.01 -0.00669,0.0262 0,0.0362 0.00748,0.0112 0.026655,0.009 0.036193,0.0181 0.00427,0.004 -0.00427,0.0138 0,0.0181 0.00954,0.01 0.024969,0.0106 0.036193,0.0181 0.020881,0.0139 0.033409,0.0404 0.054289,0.0543 0.011224,0.007 0.026656,0.009 0.036193,0.0181 0.037442,0.0374 -0.057217,-10e-4 0.018097,0.0362 0.024961,0.0125 0.016187,-0.0219 0.036193,0.0181 0.016018,0.032 -0.026918,0.006 0.018097,0.0362 0.011224,0.007 0.026655,0.009 0.036193,0.0181 0.00427,0.004 -0.00539,0.0154 0,0.0181 0.01079,0.005 0.026154,-0.007 0.036193,0 0.011224,0.007 0.00856,0.0267 0.018097,0.0362 0.00427,0.004 0.0127,-0.003 0.018097,0 0.00827,0.004 0.068254,0.0641 0.072386,0.0724 0,0.0482 -0.00603,-0.006 0.018098,0.0181 0.00427,0.004 -0.00427,0.0138 0,0.0181 0.00954,0.01 0.026655,0.009 0.036193,0.0181 0.00427,0.004 -0.00427,0.0138 0,0.0181 0.00427,0.004 0.015399,-0.005 0.018098,0 0.00539,0.0108 -0.00853,0.0277 0,0.0362 0.00853,0.009 0.027662,-0.009 0.036193,0 0.00853,0.009 -0.00382,0.0247 0,0.0362 0.018828,0.0565 0.012065,-0.006 0.036193,0.0181 0.00426,0.004 -0.00191,0.0124 0,0.0181 0.00426,0.0128 0.00856,0.0267 0.018097,0.0362 0.00427,0.004 0.0127,-0.003 0.018097,0 0.00763,0.004 0.012065,0.0121 0.018098,0.0181 0.00603,0.006 0.014282,0.0105 0.018097,0.0181 0.022286,0.0446 -0.052529,-0.0163 0.018097,0.0543 0.00427,0.004 0.01383,-0.004 0.018098,0 0.00427,0.004 -0.0027,0.0127 0,0.0181 0.00382,0.008 0.012065,0.0121 0.018097,0.0181 0.018098,0.0181 0.036193,0.0362 0.05429,0.0543 0.012065,0.0121 0.026729,0.022 0.036193,0.0362 0.00748,0.0112 0.00856,0.0267 0.018098,0.0362 0.037442,0.0374 -0.00146,-0.0572 0.036193,0.0181 0.0027,0.005 -0.00427,0.0138 0,0.0181 0.00427,0.004 0.013832,-0.004 0.018098,0 0.00427,0.004 -0.00427,0.0138 0,0.0181 0.00427,0.004 0.013832,-0.004 0.018097,0 0.00427,0.004 -0.0027,0.0127 0,0.0181 0.00382,0.008 0.012065,0.0121 0.018097,0.0181 0.00603,0.006 0.010467,0.0143 0.018098,0.0181 0.00539,0.003 0.013832,-0.004 0.018097,0 0.037443,0.0374 -0.057217,-10e-4 0.018097,0.0362 0.00539,0.003 0.0127,-0.003 0.018098,0 0.00763,0.004 0.010467,0.0143 0.018097,0.0181 0.00539,0.003 0.013832,-0.004 0.018098,0 0.00427,0.004 -0.00427,0.0138 0,0.0181 0.00954,0.01 0.023397,0.0138 0.036193,0.0181 0.00572,0.002 0.014994,-0.005 0.018098,0 0.05276,0.0879 0.096514,0.18097 0.1447713,0.27145"
       id="path7301"
       inkscape:connector-curvature="0" />
    <path
       style="fill:none;stroke:#000000;stroke-width:0.26458332px;stroke-linecap:butt;stroke-linejoin:miter;stroke-opacity:1"
       d="m 1.9182291,292.67493 c 0,0.24129 0,0.48258 0,0.72386 0.3197049,0 0.6394097,0 0.9591146,0 -0.00603,-0.0362 -0.012907,-0.0722 -0.018096,-0.10858 -0.00328,-0.023 0,-0.0491 0,-0.0724 0,-0.0483 0,-0.0965 0,-0.14477 0,-0.14478 0,-0.28955 0,-0.43432 -0.2231903,3e-5 -0.4463807,2e-5 -0.6695711,2e-5 -0.048257,0 -0.096515,0 -0.144772,0 -0.012516,0 -0.063664,-0.004 -0.072386,0 -0.019453,0.01 -0.036193,0.0241 -0.054289,0.0362 z"
       id="path7303"
       inkscape:connector-curvature="0" />
    <path
       style="fill:#ffffff;stroke:#000000;stroke-width:0.26458332px;stroke-linecap:butt;stroke-linejoin:miter;stroke-opacity:1"
       d="m 4.5603183,292.78351 c 0.00603,0.0241 0.013219,0.048 0.018098,0.0724 0.00326,0.0163 0,0.0376 0,0.0543 0,0.0422 0,0.0845 0,0.12667 0,0.12668 0,0.25335 0,0.38003 0.235254,-3e-5 0.470508,-2e-5 0.7057621,-2e-5 0.036193,0 0.072386,0 0.108579,0 0.012064,0 0.024129,0 0.036193,0 0.00603,0 0.012701,0.003 0.018097,0 0.053254,-0.0266 -0.028091,-0.0181 0.054289,-0.0181 0,-0.22319 0,-0.44638 0,-0.66957 0,-0.006 0,-0.0121 0,-0.0181 0,-0.006 0.00427,-0.0138 0,-0.0181 -0.00427,-0.004 -0.013831,0.004 -0.018096,0 -0.017852,-0.0179 0.037081,-0.0362 -0.018097,-0.0362 -0.030161,-0.006 -0.060643,-0.0106 -0.090482,-0.0181 -0.018506,-0.005 -0.035585,-0.0144 -0.05429,-0.0181 -0.025008,-0.005 -0.063803,0 -0.090483,0 -0.066354,0 -0.1327077,0 -0.1990616,0 -0.036193,0 -0.072386,0 -0.108579,0 -0.012064,0 -0.025402,0.005 -0.036193,0 -0.00763,-0.004 -0.010466,-0.0143 -0.018096,-0.0181 -0.00872,-0.004 -0.059871,0 -0.072386,0 -0.048257,0 -0.096515,0 -0.144772,0 -0.00745,0 -0.049499,-0.005 -0.054289,0 -0.024129,0.0241 0.030161,0.0181 -0.018097,0.0181"
       id="path7305"
       inkscape:connector-curvature="0" />
    <path
       style="fill:#ffffff;fill-opacity:1;stroke:#000000;stroke-width:0.03419811;stroke-miterlimit:4;stroke-dasharray:none"
       d="m 21.311321,26.586714 c -0.131663,-0.02979 -0.424057,-0.09484 -0.649764,-0.14457 -0.278627,-0.06138 -0.961597,-0.09088 -2.127316,-0.09187 l -1.716938,-0.0015 -0.04426,-1.122362 c -0.02435,-0.6173 -0.04426,-1.528666 -0.04426,-2.02526 v -0.902897 l -0.25137,-0.381701 C 16.271811,21.604351 16.20458,21.54634 16.10816,21.597942 c -0.08026,0.04295 -0.243576,0.01984 -0.511695,-0.0724 -0.327551,-0.112694 -0.575397,-0.135491 -1.472994,-0.135491 -0.593548,0 -1.164233,-0.03234 -1.268188,-0.07186 -0.348558,-0.132521 -0.704114,0.163694 -0.873562,0.727768 -0.0318,0.105858 -0.0027,0.162318 0.112086,0.217658 0.150798,0.07269 0.151105,0.07485 0.01127,0.07935 -0.130319,0.0042 -0.147928,0.05737 -0.188413,0.568898 -0.02456,0.310347 -0.06186,1.179834 -0.08289,1.932193 -0.02103,0.752358 -0.05225,1.437176 -0.06938,1.521816 l -0.03114,0.153891 H 8.4626224 5.1920018 L 5.1296096,24.00625 c -0.074275,-2.992251 -0.074567,-9.816802 -4.527e-4,-10.567382 0.045996,-0.465815 0.070343,-0.534415 0.2003973,-0.56463 0.110585,-0.02569 13.2777098,0.07175 14.0293218,0.103819 0.0735,0.0031 0.165837,0.03153 0.205189,0.06309 0.156358,0.125417 1.302303,0.209795 2.849232,0.209795 h 1.627396 l 0.02362,1.761203 c 0.01299,0.968661 0.05998,2.007429 0.104414,2.308372 0.256916,1.739866 0.291689,3.074138 0.188502,7.232901 l -0.05218,2.103184 -1.377168,-0.0079 c -0.757441,-0.0043 -1.484891,-0.03224 -1.616553,-0.06202 z m -0.523292,-7.634722 0.523292,-0.04423 -4.11e-4,-1.545978 c -3.42e-4,-1.520538 -0.04878,-1.961546 -0.23582,-2.148588 -0.184673,-0.184673 -1.011118,-0.308941 -2.331819,-0.350623 -1.36921,-0.04321 -1.682414,-0.0021 -1.810781,0.237771 -0.126512,0.23639 -0.07448,0.496 0.144758,0.722191 l 0.211711,0.21843 -0.287214,0.04853 c -0.275964,0.04662 -0.285596,0.05661 -0.245909,0.25505 0.02275,0.113589 0.04133,0.756688 0.04133,1.429108 v 1.222583 h 1.733784 c 0.953582,0 1.969265,-0.01991 2.257075,-0.04424 z m -9.356367,-0.314845 c -0.02473,-0.159877 -0.06152,-1.054118 -0.08175,-1.987203 l -0.03678,-1.696519 -2.0286204,0.02081 -2.0286201,0.02081 -0.2556392,0.17099 -0.2556392,0.170991 -8.466e-4,1.795401 -8.467e-4,1.7954 h 2.3668538 2.3668534 z"
       id="path7307"
       inkscape:connector-curvature="0"
       transform="matrix(0.26458333,0,0,0.26458333,0,288.53333)" />
    <path
       style="fill:#ffffff;fill-opacity:1;stroke:#000000;stroke-width:0.03419811;stroke-miterlimit:4;stroke-dasharray:none"
       d="m 13.520512,26.742262 -0.711799,-0.02228 0.04488,-1.485107 c 0.02469,-0.816809 0.06485,-1.769806 0.08926,-2.117772 l 0.04437,-0.632665 1.032919,0.0051 c 0.568105,0.0028 1.17142,0.02587 1.340701,0.0513 l 0.307783,0.04623 0.0527,2.008991 c 0.03869,1.475086 0.03192,2.034022 -0.02547,2.103184 -0.0796,0.09591 -0.329308,0.100854 -2.175346,0.04306 z m 1.630246,-1.974548 c 0.228404,-0.13606 0.41528,-0.271152 0.41528,-0.300206 0,-0.02905 -0.0548,-0.120502 -0.12178,-0.203217 l -0.121781,-0.150393 -0.425389,0.253404 c -0.233964,0.139371 -0.42539,0.263746 -0.42539,0.276389 0,0.07664 0.167672,0.371403 0.211265,0.371403 0.02888,0 0.239392,-0.111321 0.467795,-0.24738 z"
       id="path7309"
       inkscape:connector-curvature="0"
       transform="matrix(0.26458333,0,0,0.26458333,0,288.53333)" />
    <path
       style="fill:#ffffff;fill-opacity:1;stroke:#000000;stroke-width:0.03419811;stroke-miterlimit:4;stroke-dasharray:none"
       d="m 17.823113,17.01833 c 0,-0.485956 -0.0176,-0.929422 -0.03911,-0.985479 -0.03397,-0.08852 0.107699,-0.09772 1.077241,-0.06994 0.613993,0.01759 1.185602,0.04613 1.270243,0.06343 0.150425,0.03074 0.153891,0.05222 0.153891,0.953496 v 0.922046 h -1.231132 -1.231132 z"
       id="path7311"
       inkscape:connector-curvature="0"
       transform="matrix(0.26458333,0,0,0.26458333,0,288.53333)" />
    <path
       style="fill:#ffffff;fill-opacity:1;stroke:#000000;stroke-width:0.03419811;stroke-miterlimit:4;stroke-dasharray:none"
       d="m 7.7688682,16.94434 v -0.889151 h 1.2653301 1.2653307 v 0.889151 0.889151 H 9.0341983 7.7688682 Z"
       id="path7313"
       inkscape:connector-curvature="0"
       transform="matrix(0.26458333,0,0,0.26458333,0,288.53333)" />
    <path
       style="fill:#ffffff;fill-opacity:1;stroke:#000000;stroke-width:0.03419811;stroke-miterlimit:4;stroke-dasharray:none"
       d="m 20.251179,12.090642 c -0.225707,-0.02599 -0.487323,-0.08965 -0.581368,-0.141466 -0.140203,-0.07725 -1.388325,-0.103201 -6.932043,-0.14411 C 9.0191893,11.777626 5.9662322,11.744686 5.9534191,11.731876 5.9406061,11.719066 6.2438108,11.38544 6.6272076,10.99049 7.0106045,10.59554 7.5089625,10.044846 7.7346701,9.7667254 8.3667724,8.9878376 10.166488,7.3592144 10.598551,7.1751039 10.716223,7.1249619 10.960514,6.9249025 11.141421,6.7305285 11.745809,6.081146 11.922483,5.9000644 12.206279,5.639105 12.36134,5.4965216 12.488208,5.3520038 12.488208,5.3179544 c 0,-0.03405 0.216524,-0.3328974 0.481165,-0.6641064 0.602389,-0.753915 0.724683,-0.9100704 0.846493,-1.080868 0.09696,-0.1359498 0.09861,-0.1358574 0.305492,0.017099 0.114405,0.084583 0.219595,0.1537874 0.233757,0.1537874 0.01416,0 0.404518,0.3815852 0.867459,0.8479671 0.762476,0.7681437 0.887472,0.8658471 1.327846,1.0379085 0.342013,0.13363 0.587523,0.2893027 0.828118,0.5250912 0.188089,0.1843323 0.537622,0.4450449 0.776739,0.5793613 0.288575,0.1620983 0.733146,0.5407735 1.322188,1.1262094 0.488087,0.4850987 1.046244,1.0075319 1.240347,1.1609624 0.194105,0.1534306 0.555621,0.5336851 0.80337,0.8450099 0.731319,0.9189888 1.644492,1.9023898 1.923861,2.0718148 0.14308,0.08677 0.260146,0.171413 0.260146,0.18809 0,0.04782 -2.997763,0.01688 -3.45401,-0.03564 z"
       id="path7315"
       inkscape:connector-curvature="0"
       transform="matrix(0.26458333,0,0,0.26458333,0,288.53333)" />
  </g>
</svg>
