<?xml version="1.0" encoding="UTF-8" standalone="no"?>
<!-- Created with Inkscape (http://www.inkscape.org/) -->

<svg
   xmlns:dc="http://purl.org/dc/elements/1.1/"
   xmlns:cc="http://creativecommons.org/ns#"
   xmlns:rdf="http://www.w3.org/1999/02/22-rdf-syntax-ns#"
   xmlns:svg="http://www.w3.org/2000/svg"
   xmlns="http://www.w3.org/2000/svg"
   xmlns:sodipodi="http://sodipodi.sourceforge.net/DTD/sodipodi-0.dtd"
   xmlns:inkscape="http://www.inkscape.org/namespaces/inkscape"
   width="32"
   height="32"
   viewBox="0 0 8.4666667 8.4666667"
   version="1.1"
   id="svg8"
   inkscape:export-filename="C:\Unity\Gods Fate\Assets\Graphics\Ground\Mountain.png"
   inkscape:export-xdpi="96"
   inkscape:export-ydpi="96"
   inkscape:version="0.92.1 r15371"
   sodipodi:docname="Mountain.svg">
  <defs
     id="defs2" />
  <sodipodi:namedview
     id="base"
     pagecolor="#ffffff"
     bordercolor="#666666"
     borderopacity="1.0"
     inkscape:pageopacity="0.0"
     inkscape:pageshadow="2"
     inkscape:zoom="14.62069"
     inkscape:cx="11.667453"
     inkscape:cy="14.549528"
     inkscape:document-units="px"
     inkscape:current-layer="layer1"
     showgrid="false"
     units="px"
     inkscape:window-width="1920"
     inkscape:window-height="1017"
     inkscape:window-x="-8"
     inkscape:window-y="-8"
     inkscape:window-maximized="1" />
  <metadata
     id="metadata5">
    <rdf:RDF>
      <cc:Work
         rdf:about="">
        <dc:format>image/svg+xml</dc:format>
        <dc:type
           rdf:resource="http://purl.org/dc/dcmitype/StillImage" />
        <dc:title></dc:title>
      </cc:Work>
    </rdf:RDF>
  </metadata>
  <g
     inkscape:label="Calque 1"
     inkscape:groupmode="layer"
     id="layer1"
     transform="translate(0,-288.53333)">
    <path
       style="fill:none;stroke:#000000;stroke-width:0.26458332px;stroke-linecap:butt;stroke-linejoin:miter;stroke-opacity:1"
       d="m 7.3833759,294.24984 c 0,-0.006 0.0054,-0.0151 0,-0.0181 -0.010791,-0.005 -0.024748,0.004 -0.036193,0 -0.00809,-0.003 -0.010996,-0.0131 -0.018096,-0.0181 -0.011223,-0.007 -0.02497,-0.0111 -0.036193,-0.0181 -0.0071,-0.005 -0.010007,-0.0151 -0.018097,-0.0181 -0.011445,-0.004 -0.027663,0.009 -0.036193,0 -0.00853,-0.008 0,-0.0241 0,-0.0362 -0.012064,-0.006 -0.024129,-0.0121 -0.036193,-0.0181 -0.023038,-0.0154 -0.050088,-0.0557 -0.072386,-0.0724 -0.010791,-0.008 -0.026653,-0.008 -0.036193,-0.0181 -0.00427,-0.004 0.00191,-0.0121 0,-0.0181 -0.00427,-0.0128 -0.00856,-0.0262 -0.018097,-0.0362 -0.037443,-0.0374 0.00146,0.0572 -0.036193,-0.0181 -0.0027,-0.005 0.0027,-0.0131 0,-0.0181 -0.00381,-0.008 -0.013366,-0.0111 -0.018096,-0.0181 -0.00748,-0.0112 -0.00856,-0.0262 -0.018097,-0.0362 -0.037443,-0.0374 0.00146,0.0572 -0.036193,-0.0181 -0.0054,-0.0108 0.0054,-0.0254 0,-0.0362 -0.037653,-0.0753 0.00125,0.0193 -0.036193,-0.0181 -0.00954,-0.01 -0.010617,-0.025 -0.018097,-0.0362 -0.00473,-0.007 -0.012066,-0.0121 -0.018096,-0.0181 -0.012064,-0.0121 -0.02287,-0.0255 -0.036193,-0.0362 -0.037404,-0.0299 -0.211726,-0.15346 -0.253351,-0.19906 -0.0953,-0.10438 -0.1817345,-0.21652 -0.2714475,-0.32574 -0.049033,-0.0597 -0.097046,-0.12026 -0.144772,-0.18096 -0.018635,-0.0237 -0.041809,-0.0449 -0.05429,-0.0724 -0.164384,-0.36164 0.065467,0.027 -0.090483,-0.18096 -0.00362,-0.005 0,-0.0121 0,-0.0181 0,-0.0121 0.00669,-0.0262 0,-0.0362 -0.00748,-0.0111 -0.026653,-0.008 -0.036193,-0.0181 -0.00427,-0.004 0.00191,-0.0121 0,-0.0181 -0.00426,-0.0128 -0.010006,-0.0254 -0.018096,-0.0362 -0.010237,-0.0137 -0.026733,-0.022 -0.036193,-0.0362 -0.00335,-0.005 0.00191,-0.0121 0,-0.0181 -0.00427,-0.0128 -0.010617,-0.025 -0.018097,-0.0362 -0.027603,-0.0414 -0.014325,0.0113 -0.036193,-0.0543 -0.030173,-0.0906 -0.00751,-0.0625 -0.036193,-0.16287 -0.00371,-0.013 -0.013086,-0.0237 -0.018096,-0.0362 -0.00709,-0.0177 -0.011017,-0.0366 -0.018097,-0.0543 -0.00501,-0.0125 -0.014827,-0.0231 -0.018097,-0.0362 -0.00293,-0.0117 0.00237,-0.0244 0,-0.0362 -0.00374,-0.0187 -0.012066,-0.0362 -0.018096,-0.0543 -0.00603,-0.0181 -0.010587,-0.0368 -0.018097,-0.0543 -0.010627,-0.0248 -0.028443,-0.0466 -0.036193,-0.0724 -0.098041,-0.32681 0.019865,0.0269 -0.018096,-0.16287 -0.014565,-0.0728 -0.013206,-0.008 -0.036193,-0.0543 -0.0027,-0.005 0.00191,-0.0121 0,-0.0181 -0.00427,-0.0128 -0.013827,-0.0234 -0.018097,-0.0362 -0.00424,-0.0128 0.00496,-0.0855 0,-0.0905 -0.00427,-0.004 -0.013826,0.004 -0.018096,0 -0.00954,-0.01 -0.012067,-0.0241 -0.018097,-0.0362 -0.00603,-0.0121 -0.012617,-0.0239 -0.018097,-0.0362 -0.018657,-0.042 -0.037798,-0.0838 -0.054289,-0.12668 -0.013695,-0.0356 -0.015973,-0.0762 -0.036193,-0.10857 -0.011528,-0.0185 -0.038911,-0.0208 -0.05429,-0.0362 -0.015379,-0.0154 -0.024129,-0.0362 -0.036193,-0.0543 -0.00603,-0.0121 -0.00856,-0.0262 -0.018097,-0.0362 -0.00954,-0.009 -0.026653,-0.008 -0.036193,-0.0181 -0.00954,-0.01 -0.010616,-0.025 -0.018096,-0.0362 -0.00946,-0.0142 -0.030793,-0.02 -0.036193,-0.0362 -0.00382,-0.0115 0.00669,-0.0262 0,-0.0362 -0.00748,-0.0111 -0.025402,-0.0101 -0.036193,-0.0181 -0.013649,-0.0102 -0.024129,-0.0241 -0.036193,-0.0362 -0.00603,-0.006 -0.010777,-0.0141 -0.018097,-0.0181 -0.023132,-0.0139 -0.053311,-0.0171 -0.072386,-0.0362 -0.013487,-0.0135 -0.00957,-0.0372 -0.018097,-0.0543 -0.00973,-0.0195 -0.023143,-0.0369 -0.036193,-0.0543 -0.010237,-0.0136 -0.028563,-0.0209 -0.036193,-0.0362 -0.0027,-0.005 0.0027,-0.0131 0,-0.0181 -0.00381,-0.008 -0.012066,-0.0121 -0.018096,-0.0181 -0.00603,-0.006 -0.010467,-0.0141 -0.018097,-0.0181 -0.0054,-0.003 -0.013827,0.004 -0.018097,0 -0.00954,-0.01 -0.010616,-0.025 -0.018096,-0.0362 -0.00473,-0.007 -0.012067,-0.0121 -0.018097,-0.0181 -0.00603,-0.006 -0.011276,-0.0131 -0.018096,-0.0181 -0.0049,-0.004 -0.061067,-0.0354 -0.072386,-0.0543 -0.013879,-0.0231 -0.024129,-0.0483 -0.036193,-0.0724 -0.00603,-0.0121 -0.010007,-0.0254 -0.018097,-0.0362 -0.015355,-0.0205 -0.039414,-0.0335 -0.054289,-0.0543 -0.025283,-0.0354 -0.04568,-0.0743 -0.072386,-0.10858 -0.015712,-0.0202 -0.040093,-0.033 -0.054289,-0.0543 -0.010577,-0.0159 -0.00618,-0.0394 -0.018097,-0.0543 -0.130548,-0.16317 0.032897,0.15628 -0.108579,-0.12667 -0.00853,-0.0171 -0.011017,-0.0366 -0.018097,-0.0543 -0.00501,-0.0125 -0.012786,-0.0238 -0.018096,-0.0362 -0.00996,-0.0232 -0.04548,-0.10957 -0.05429,-0.14477 -0.00746,-0.0299 -0.010636,-0.0607 -0.018096,-0.0905 -0.00463,-0.0185 -0.012067,-0.0362 -0.018097,-0.0543 -0.012064,-0.0362 -0.022797,-0.0729 -0.036193,-0.10858 -0.00474,-0.0126 -0.012066,-0.0241 -0.018096,-0.0362 -0.012064,-0.006 -0.030163,-0.006 -0.036193,-0.0181 -0.019639,-0.0393 -0.024129,-0.0845 -0.036193,-0.12667 0,-0.0121 0.00331,-0.0246 0,-0.0362 -0.024265,-0.0849 -0.087707,-0.18361 -0.1266434,-0.25401 0,0.0422 0.00427,-0.008 -0.018098,0.0362 -0.0027,0.005 0.0027,0.0131 0,0.0181 -0.00381,0.008 -0.014277,0.0101 -0.018097,0.0181 -0.00539,0.0108 0.00853,0.0272 0,0.0362 -0.00427,0.004 -0.013828,-0.004 -0.018098,0 -1.72e-5,0 2.75e-5,0.0542 0,0.0543 -0.0027,0.008 -0.014277,0.0101 -0.018097,0.0181 -0.00359,0.007 0.0037,0.0503 0,0.0543 -0.00427,0.004 -0.012067,0 -0.018097,0 0,0.006 0.00427,0.0141 0,0.0181 -0.00853,0.009 -0.030803,-0.0108 -0.036193,0 -0.00384,0.008 0,0.0753 0,0.0905 0,0.006 0.00427,0.0141 0,0.0181 -0.024128,0.0241 -0.017365,-0.0384 -0.036193,0.0181 -0.00382,0.0115 0.00539,0.0254 0,0.0362 -0.0027,0.005 -0.013828,-0.004 -0.018098,0 -0.00954,0.01 -0.00856,0.0262 -0.018097,0.0362 -0.00427,0.004 -0.013838,-0.004 -0.018098,0 -0.00427,0.004 0.00426,0.0141 0,0.0181 -0.00427,0.004 -0.013828,-0.004 -0.018098,0 -0.00427,0.004 0.0027,0.0131 0,0.0181 -0.00382,0.008 -0.014278,0.0101 -0.018098,0.0181 -0.0027,0.005 0.00427,0.0141 0,0.0181 -0.00427,0.004 -0.015398,-0.005 -0.018098,0 -0.00539,0.0108 0.00382,0.0248 0,0.0362 -0.0054,0.0162 -0.030803,0.02 -0.036193,0.0362 -0.00382,0.0114 0.00382,0.0247 0,0.0362 -0.00408,0.0123 -0.04738,0.0405 -0.05429,0.0543 -0.00809,0.0162 0.00809,0.0381 0,0.0543 -0.0027,0.005 -0.012708,-0.003 -0.018098,0 -0.040013,0.02 -0.00562,0.0112 -0.018098,0.0362 -0.00832,0.0166 -0.067806,0.0587 -0.072386,0.0724 -0.00382,0.0114 0.00539,0.0254 0,0.0362 -0.00763,0.0153 -0.026733,0.022 -0.036193,0.0362 -0.00335,0.005 0.0027,0.0131 0,0.0181 -0.00382,0.008 -0.012068,0.0121 -0.018098,0.0181 -0.00603,0.006 -0.012067,0.0121 -0.018097,0.0181 -0.041493,0.0415 0.00763,-0.0114 -0.036193,0.0543 -0.00473,0.007 -0.014278,0.0101 -0.018098,0.0181 -0.0027,0.005 0,0.0121 0,0.0181 -0.012063,0.0121 -0.024128,0.0241 -0.036193,0.0362 -0.00982,0.0164 -0.00752,0.0384 -0.018097,0.0543 -0.00335,0.005 -0.013828,-0.004 -0.018098,0 -0.00954,0.01 -0.010618,0.025 -0.018098,0.0362 -0.010168,0.0153 -0.068696,0.0613 -0.072386,0.0724 -0.00382,0.0115 0.00853,0.0272 0,0.0362 -0.00853,0.009 -0.027663,-0.009 -0.036193,0 -0.00853,0.009 0.00382,0.0247 0,0.0362 -0.0027,0.008 -0.013368,0.0111 -0.018098,0.0181 -0.00748,0.0112 -0.013828,0.0234 -0.018098,0.0362 -0.0019,0.006 0.00427,0.0141 0,0.0181 -0.00954,0.009 -0.026653,0.008 -0.036193,0.0181 -0.00427,0.004 0,0.0121 0,0.0181 0,0.0181 0,0.0362 0,0.0543 0,0.006 0.00191,0.0121 0,0.0181 -0.00427,0.0128 -0.012067,0.0241 -0.018097,0.0362 -0.00603,0 -0.013828,-0.004 -0.018098,0 -0.00427,0.004 0.0019,0.0121 0,0.0181 -0.00427,0.0128 -0.010618,0.025 -0.018098,0.0362 -0.00473,0.007 -0.014278,0.0101 -0.018098,0.0181 -0.0027,0.005 0,0.0121 0,0.0181 -0.00603,0.0121 -0.012067,0.0241 -0.018097,0.0362 -0.00946,0.0142 -0.026733,0.022 -0.036193,0.0362 -0.00748,0.0112 -0.00856,0.0262 -0.018098,0.0362 -0.00954,0.009 -0.026653,0.008 -0.036193,0.0181 -0.00954,0.01 -0.010007,0.0254 -0.018097,0.0362 -0.010237,0.0137 -0.024128,0.0241 -0.036193,0.0362 -0.00603,0.006 -0.011438,0.0131 -0.018098,0.0181 -0.023552,0.0188 -0.051058,0.033 -0.072386,0.0543 -0.00954,0.01 -0.010618,0.025 -0.018098,0.0362 -0.016731,0.0251 -0.032962,0.0511 -0.05429,0.0724 -0.01538,0.0154 -0.037306,0.0226 -0.05429,0.0362 -0.013322,0.0107 -0.024128,0.0241 -0.036193,0.0362 -0.036193,0.0362 -0.069258,0.0758 -0.1085789,0.10858 -0.016709,0.0139 -0.040703,0.0192 -0.05429,0.0362 -0.011916,0.0149 -0.00829,0.0379 -0.018096,0.0543 -0.017556,0.0293 -0.05107,0.0457 -0.072386,0.0724 -0.013587,0.017 -0.022269,0.0376 -0.036193,0.0543 -0.016383,0.0197 -0.038302,0.0343 -0.054289,0.0543 -0.00843,0.0105 -0.00856,0.0262 -0.018096,0.0362 -0.00954,0.009 -0.028103,0.007 -0.036193,0.0181 -0.011446,0.0153 -0.00829,0.0379 -0.018096,0.0543 -0.00878,0.0146 -0.027413,0.0216 -0.036193,0.0362 -0.00982,0.0164 -0.00588,0.0396 -0.018096,0.0543 -0.019308,0.0232 -0.053545,0.0307 -0.072386,0.0543 -0.00754,0.009 0.00237,0.0244 0,0.0362 -0.00374,0.0187 -0.00799,0.0381 -0.018096,0.0543 -0.020471,0.0328 -0.049936,0.0591 -0.072386,0.0905 -0.00784,0.011 -0.00967,0.0257 -0.018096,0.0362 -0.015987,0.02 -0.040725,0.0326 -0.054289,0.0543 -0.066679,0.10667 -0.012178,0.0606 -0.054289,0.14477 -0.00973,0.0195 -0.025003,0.0356 -0.036193,0.0543 -0.017544,0.0293 -0.049399,0.11038 -0.054289,0.12668 -0.026908,0.0897 -0.043845,0.18224 -0.072386,0.27144 -0.019801,0.0619 -0.054998,0.11837 -0.072386,0.18097 -0.013016,0.0469 -0.012066,0.0965 -0.018096,0.14477 -0.018097,0.0422 -0.041327,0.0826 -0.05429,0.12668 -0.017358,0.059 -0.00724,0.12666 -0.036193,0.18096 -0.022171,0.0416 -0.075265,0.0572 -0.108579,0.0905 -0.159762,0.15978 0.1714028,-0.089 -0.144772,0.10858 -0.101746,0.0633 -0.014525,0.011 -0.036193,0.0543 -0.00973,0.0195 -0.022606,0.0373 -0.036193,0.0543 -0.010658,0.0133 -0.024128,0.0241 -0.036193,0.0362 -0.012064,0.006 -0.026653,0.008 -0.036193,0.0181 -0.00954,0.01 -0.010006,0.0254 -0.018096,0.0362 -0.015356,0.0205 -0.040094,0.033 -0.05429,0.0543 -0.00748,0.0112 -0.00856,0.0262 -0.018096,0.0362 -0.00954,0.009 -0.026653,0.008 -0.036193,0.0181 -0.027312,0.0273 0.1587642,0.1548 -0.072386,0.0905 0.036193,0.0483 0.072386,0.0965 0.108579,0.14477 0.00603,0 0.013831,-0.004 0.018096,0 0.00954,0.01 0.00856,0.0266 0.018096,0.0362 0.00954,0.01 0.02497,0.0106 0.036193,0.0181 0.0071,0.005 0.012064,0.0121 0.018097,0.0181 0.00603,0.006 0.013365,0.011 0.018096,0.0181 0.00748,0.0112 0.00856,0.0267 0.018096,0.0362 0.00427,0.004 0.013831,-0.004 0.018096,0 0.00427,0.004 -0.00427,0.0138 0,0.0181 0.00427,0.004 0.013831,-0.004 0.018096,0 0.00954,0.01 0.00856,0.0267 0.018096,0.0362 0.00427,0.004 0.012701,-0.003 0.018097,0 0.00763,0.004 0.012064,0.0121 0.018096,0.0181 0.012064,0.0121 0.022544,0.026 0.036193,0.0362 0.021581,0.0162 0.053311,0.0171 0.072386,0.0362 0.00954,0.01 0.00856,0.0267 0.018096,0.0362 0.00427,0.004 0.012374,-0.002 0.018096,0 0.012796,0.004 0.025402,0.01 0.036193,0.0181 0.022298,0.0167 0.049348,0.057 0.072386,0.0724 0.011223,0.007 0.023397,0.0138 0.036193,0.0181 0.00572,0.002 0.013077,-0.003 0.018097,0 0.026628,0.0178 0.045757,0.0546 0.072386,0.0724 0.031191,0.0208 0.027354,0.0181 0.05429,0.0181 0.00603,0 0.012374,-0.002 0.018096,0 0.025592,0.009 0.046794,0.0277 0.072386,0.0362 0.016287,0.005 0.038003,-0.005 0.054289,0 0.00809,0.003 0.010466,0.0143 0.018097,0.0181 0.0054,0.003 0.012374,-0.002 0.018096,0 0.012796,0.004 0.023397,0.0138 0.036193,0.0181 0.00572,0.002 0.012701,-0.003 0.018096,0 0.00763,0.004 0.010004,0.0154 0.018096,0.0181 0.011445,0.004 0.024363,-0.002 0.036193,0 0.03741,0.007 0.071567,0.0269 0.108579,0.0362 0.020942,0.005 0.070869,-0.004 0.090482,0 0.013226,0.003 0.023397,0.0138 0.036193,0.0181 0.00998,0.003 0.068517,-0.004 0.072386,0 0.00427,0.004 -0.0054,0.0154 0,0.0181 0.011107,0.006 0.079264,-0.006 0.090482,0 0.00763,0.004 0.010466,0.0143 0.018096,0.0181 0.0054,0.003 0.012064,0 0.018097,0 0.012064,0.006 0.02497,0.0106 0.036193,0.0181 0.0071,0.005 0.010003,0.0154 0.018096,0.0181 0.011445,0.004 0.024748,-0.004 0.036193,0 0.016186,0.005 0.020007,0.0308 0.036193,0.0362 0.011445,0.004 0.024489,-0.003 0.036193,0 0.013086,0.003 0.024129,0.0121 0.036193,0.0181 0.018096,0 0.036544,-0.004 0.054289,0 0.026453,0.005 0.046215,0.0297 0.072386,0.0362 0.015404,0.004 0.080094,-0.005 0.090482,0 0.00763,0.004 0.010003,0.0154 0.018096,0.0181 0.011445,0.004 0.024129,0 0.036193,0 0.012064,0 0.024129,0 0.036193,0 0.018097,0 0.036733,-0.004 0.05429,0 0.00828,0.002 0.010466,0.0143 0.018096,0.0181 0.0055,0.003 0.05989,0 0.072386,0 0.048257,0 0.096515,0 0.144772,0 0.00439,0 0.053707,-5.9e-4 0.054289,0 0.00427,0.004 -0.0054,0.0154 0,0.0181 0.010791,0.005 0.024129,0 0.036193,0 0.024129,0 0.048257,0 0.072386,0 0.08445,0 0.1689007,0 0.253351,0 0.1380517,0 -0.014276,-0.008 0.090483,0.0181 0.017556,0.004 0.036193,0 0.054289,0 0.042225,0 0.08445,0 0.1266755,0 0.1206433,0 0.2412867,0 0.36193,0 0.253351,0 0.506702,0 0.7600531,0 0.072386,0 0.144772,0 0.217158,0 0.042225,0 0.08445,0 0.1266755,0 0.018096,0 0.037122,0.006 0.054289,0 0.00809,-0.003 0.010004,-0.0154 0.018097,-0.0181 0.011445,-0.004 0.024489,0.003 0.036193,0 0.013086,-0.003 0.023397,-0.0138 0.036193,-0.0181 0.017168,-0.006 0.036733,0.004 0.05429,0 0.029215,-0.007 0.035894,-0.0178 0.054289,-0.0362 0.00603,-0.006 0.010004,-0.0154 0.018097,-0.0181 0.011445,-0.004 0.024129,0 0.036193,0 0.00603,0 0.012701,0.003 0.018097,0 0.00763,-0.004 0.010466,-0.0143 0.018096,-0.0181 0.017078,-0.0449 0.048791,-0.0102 0.072386,-0.0181 0.025592,-0.009 0.046794,-0.0277 0.072386,-0.0362 0.017168,-0.006 0.036733,0.004 0.05429,0 0.013086,-0.003 0.024129,-0.0121 0.036193,-0.0181 0.012064,-0.006 0.026655,-0.009 0.036193,-0.0181 0.00954,-0.01 0.00856,-0.0267 0.018096,-0.0362 0.00427,-0.004 0.012701,0.003 0.018097,0 0.00346,-0.002 0.070654,-0.0689 0.072386,-0.0724 0.0027,-0.005 -0.0054,-0.0154 0,-0.0181 0.010791,-0.005 0.024748,0.004 0.036193,0 0.014259,-0.005 0.054987,-0.0637 0.072386,-0.0724 0.0054,-0.003 0.012374,0.002 0.018097,0 0.012064,-0.006 0.024129,-0.0121 0.036193,-0.0181 0.00603,0 0.012374,0.002 0.018097,0 0.012796,-0.004 0.02497,-0.0106 0.036193,-0.0181 0.0071,-0.005 0.010003,-0.0154 0.018096,-0.0181 0.02289,-0.008 0.048978,0.006 0.072386,0 0.013086,-0.003 0.023397,-0.0138 0.036193,-0.0181 0.011445,-0.004 0.024748,0.004 0.036193,0 0.012796,-0.004 0.023397,-0.0138 0.036193,-0.0181 0.00704,-0.002 0.051481,0.003 0.054289,0 0.00427,-0.004 -0.00427,-0.0138 0,-0.0181 0.00427,-0.004 0.012064,0 0.018097,0 0.030161,0 0.060322,0 0.090483,0 0.012064,0 0.024129,0 0.036193,0 0.00603,0 0.012701,0.003 0.018096,0 0.00763,-0.004 0.010466,-0.0143 0.018097,-0.0181 0.0054,-0.003 0.013831,0.004 0.018096,0 0.037442,-0.0374 -0.057217,0.001 0.018097,-0.0362 0.011209,-0.006 0.067032,0.005 0.072386,0 0.00427,-0.004 -0.00427,-0.0138 0,-0.0181 0.00853,-0.009 0.027662,0.009 0.036193,0 0.00427,-0.004 -0.0027,-0.0127 0,-0.0181 0.020006,-0.04 0.011232,-0.006 0.036193,-0.0181 0.00763,-0.004 0.010466,-0.0143 0.018097,-0.0181 0.011543,-0.006 0.085644,0.005 0.090483,0 0.00427,-0.004 -0.00427,-0.0138 0,-0.0181 0.00427,-0.004 0.013831,0.004 0.018097,0 0.00427,-0.004 -0.00427,-0.0138 0,-0.0181 0.00427,-0.004 0.013831,0.004 0.018096,0 0.00427,-0.004 -0.00427,-0.0138 0,-0.0181 0.042253,-0.0423 -0.00606,0.0423 0.036193,0 0.00427,-0.004 -0.00427,-0.0138 0,-0.0181 0.00853,-0.009 0.027662,0.009 0.036193,0 0.00427,-0.004 -0.00427,-0.0138 0,-0.0181 0.00427,-0.004 0.013831,0.004 0.018096,0 0.017852,-0.0179 -0.037081,-0.0362 0.018097,-0.0362"
       id="path4485"
       inkscape:connector-curvature="0" />
    <path
       style="fill:none;stroke:#000000;stroke-width:0.26458332px;stroke-linecap:butt;stroke-linejoin:miter;stroke-opacity:1"
       d="m 3.2573759,290.72015 c 0.036191,-0.018 0.0702,-0.0413 0.1085733,-0.0539 0.016624,-0.005 -0.013679,0.0269 0,0.0543 0.0027,0.005 0.015399,-0.005 0.018097,0 0.00539,0.0108 -0.00382,0.0247 0,0.0362 0.0027,0.008 0.014282,0.0105 0.018098,0.0181 0.0027,0.005 -0.0027,0.0127 0,0.0181 0.00382,0.008 0.014282,0.0105 0.018098,0.0181 0.00724,0.0145 -0.00724,0.0398 0,0.0543 0.026627,0.0533 0.018098,-0.0281 0.018098,0.0543 0,0.0424 -0.00427,-0.009 0.018097,0.0362 0.00268,0.005 0,0.0911 0,0.10858 0,0.006 -0.00427,0.0138 0,0.0181 0.00427,0.004 0.01383,-0.004 0.018098,0 0.00536,0.005 -0.0056,0.0612 0,0.0724 0.00382,0.008 0.014282,0.0105 0.018098,0.0181 0.00534,0.0107 -0.00415,0.0419 0,0.0543 0.00427,0.0128 0.01383,0.0234 0.018098,0.0362 0.0019,0.006 -0.0027,0.0127 0,0.0181 0.00382,0.008 0.014282,0.0105 0.018098,0.0181 0.0027,0.005 -0.00427,0.0138 0,0.0181 0.02413,0.0241 0.018097,-0.0302 0.018097,0.0181 0.030157,-0.0302 0.058081,-0.0628 0.090471,-0.0906 0.010235,-0.009 0.02497,-0.0106 0.036193,-0.0181 0.026629,-0.0178 0.045758,-0.0546 0.072386,-0.0724 0.011223,-0.007 0.026655,-0.009 0.036193,-0.0181 0.00427,-0.004 -0.00427,-0.0138 0,-0.0181 0.00427,-0.004 0.013831,0.004 0.018096,0 0.00853,-0.009 -0.0054,-0.0254 0,-0.0362 0.00382,-0.008 0.014282,-0.0105 0.018096,-0.0181 0.0054,-0.0108 -0.00853,-0.0277 0,-0.0362 0.00427,-0.004 0.013831,0.004 0.018096,0 0.00427,-0.004 -0.00427,-0.0138 0,-0.0181 0.00427,-0.004 0.013831,0.004 0.018097,0 0.00427,-0.004 0,-0.0121 0,-0.0181 0,-0.0121 -0.0054,-0.0254 0,-0.0362 0.0027,-0.005 0.013831,0.004 0.018096,0 0.00427,-0.004 -0.00427,-0.0138 0,-0.0181 0.037442,-0.0374 -0.00146,0.0572 0.036193,-0.0181 0.0054,-0.0108 -0.00853,-0.0277 0,-0.0362 0.00427,-0.004 0.013831,0.004 0.018096,0 0.00427,-0.004 -0.00427,-0.0138 0,-0.0181 0.00427,-0.004 0.012701,0.003 0.018096,0 0.075313,-0.0376 -0.019346,10e-4 0.018096,-0.0362 0.00427,-0.004 0.013831,0.004 0.018096,0 0.00427,-0.004 -0.00427,-0.0138 0,-0.0181 0.00427,-0.004 0.012064,0 0.018096,0 0.00603,0 0.012064,0 0.018097,0 0.151743,-0.0205 -0.00786,0.0827 0.0181,0.10864 0.00427,0.004 0.013831,-0.004 0.018097,0 0.00427,0.004 -0.00146,0.0122 0,0.0181 0.00463,0.0185 0.01347,0.0358 0.018096,0.0543 0.00146,0.006 -0.00191,0.0124 0,0.0181 0.00427,0.0128 0.012064,0.0241 0.018097,0.0362 0.00603,0.0121 0.010614,0.025 0.018097,0.0362 0.00946,0.0142 0.030798,0.02 0.036193,0.0362 0.00382,0.0115 -0.00382,0.0247 0,0.0362 0.0027,0.008 0.013364,0.011 0.018096,0.0181 0.00748,0.0112 0.00856,0.0267 0.018097,0.0362 0.00954,0.01 0.026655,0.009 0.036193,0.0181 0.00427,0.004 -0.0027,0.0127 0,0.0181 0.00382,0.008 0.014281,0.0105 0.018096,0.0181 0.0027,0.005 -0.00427,0.0138 0,0.0181 0.00427,0.004 0.013831,-0.004 0.018097,0 0.00427,0.004 -0.00427,0.0138 0,0.0181 0.00427,0.004 0.013831,-0.004 0.018096,0 0.00427,0.004 -0.00427,0.0138 0,0.0181 0.00427,0.004 0.013831,-0.004 0.018097,0 0.00427,0.004 -0.0054,0.0154 0,0.0181 0.010791,0.005 0.025402,-0.005 0.036193,0 0.048257,0.0241 -0.05429,0.0181 0.018097,0.0181 0.042225,-0.0423 0.077748,-0.0925 0.1266737,-0.12676 0.014822,-0.0104 0.038104,0.008 0.05429,0 0.012064,-0.006 0.010614,-0.025 0.018097,-0.0362 0.00473,-0.007 0.010998,-0.0134 0.018096,-0.0181 0.026372,-0.0176 0.037693,-0.0113 0.05429,-0.0362 0.00748,-0.0112 0.00856,-0.0267 0.018096,-0.0362 0.00427,-0.004 0.013831,0.004 0.018097,0 0.00427,-0.004 -0.0027,-0.0127 0,-0.0181 0.00382,-0.008 0.014281,-0.0105 0.018096,-0.0181 0.0027,-0.005 -0.0027,-0.0127 0,-0.0181 0.013858,-0.0277 0.032248,-0.0141 0.05429,-0.0362 0.00427,-0.004 -0.00427,-0.0138 0,-0.0181 0.00427,-0.004 0.013831,0.004 0.018097,0 0.00853,-0.009 -0.0054,-0.0254 0,-0.0362 0.00382,-0.008 0.014282,-0.0105 0.018096,-0.0181 0.00403,-0.008 -0.00276,-0.0641 0,-0.0724 0.0027,-0.008 0.014282,-0.0105 0.018097,-0.0181 0.00498,-0.01 -0.00472,-0.0944 0,-0.10858 0.0027,-0.008 0.014282,-0.0105 0.018096,-0.0181 0.00359,-0.007 -0.0037,-0.0506 0,-0.0543 0.00427,-0.004 0.012064,0 0.018097,0"
       id="path4487"
       inkscape:connector-curvature="0" />
  </g>
</svg>
