<?xml version="1.0" encoding="UTF-8" standalone="no"?>
<!-- Created with Inkscape (http://www.inkscape.org/) -->

<svg
   xmlns:dc="http://purl.org/dc/elements/1.1/"
   xmlns:cc="http://creativecommons.org/ns#"
   xmlns:rdf="http://www.w3.org/1999/02/22-rdf-syntax-ns#"
   xmlns:svg="http://www.w3.org/2000/svg"
   xmlns="http://www.w3.org/2000/svg"
   xmlns:sodipodi="http://sodipodi.sourceforge.net/DTD/sodipodi-0.dtd"
   xmlns:inkscape="http://www.inkscape.org/namespaces/inkscape"
   width="32"
   height="32"
   viewBox="0 0 8.4666667 8.4666667"
   version="1.1"
   id="svg8"
   inkscape:export-filename="C:\Unity\Gods Fate\Assets\Graphics\Ground\Plain.png"
   inkscape:export-xdpi="96"
   inkscape:export-ydpi="96"
   inkscape:version="0.92.1 r15371"
   sodipodi:docname="Plain.svg">
  <defs
     id="defs2" />
  <sodipodi:namedview
     id="base"
     pagecolor="#ffffff"
     bordercolor="#666666"
     borderopacity="1.0"
     inkscape:pageopacity="0.0"
     inkscape:pageshadow="2"
     inkscape:zoom="14.62069"
     inkscape:cx="3.4599061"
     inkscape:cy="13.865566"
     inkscape:document-units="px"
     inkscape:current-layer="layer1"
     showgrid="false"
     units="px"
     inkscape:window-width="1920"
     inkscape:window-height="1017"
     inkscape:window-x="-8"
     inkscape:window-y="-8"
     inkscape:window-maximized="1" />
  <metadata
     id="metadata5">
    <rdf:RDF>
      <cc:Work
         rdf:about="">
        <dc:format>image/svg+xml</dc:format>
        <dc:type
           rdf:resource="http://purl.org/dc/dcmitype/StillImage" />
        <dc:title />
      </cc:Work>
    </rdf:RDF>
  </metadata>
  <g
     inkscape:label="Calque 1"
     inkscape:groupmode="layer"
     id="layer1"
     transform="translate(0,-288.53333)">
    <path
       style="fill:none;fill-opacity:1;stroke:#1a1a1a;stroke-width:0.13229166;stroke-miterlimit:4;stroke-dasharray:none"
       d="m 1.1581761,296.25804 c 0,-0.0603 0,-0.12064 0,-0.18096 0,-0.006 0,-0.0121 0,-0.0181 0,-0.006 0.00427,-0.0138 0,-0.0181 -0.00427,-0.004 -0.013831,0.004 -0.018096,0 -0.00484,-0.005 0.00577,-0.0789 0,-0.0905 -0.00381,-0.008 -0.014281,-0.0105 -0.018096,-0.0181 -0.0054,-0.0108 0.0054,-0.0254 0,-0.0362 -0.00382,-0.008 -0.014281,-0.0105 -0.018096,-0.0181 -0.0027,-0.005 0.00427,-0.0138 0,-0.0181 -0.00427,-0.004 -0.013831,0.004 -0.018096,0 -0.00427,-0.004 0.00427,-0.0138 0,-0.0181 -0.00427,-0.004 -0.013831,0.004 -0.018096,0 -0.037442,-0.0374 0.057217,10e-4 -0.018097,-0.0362 -0.0054,-0.003 -0.013831,0.004 -0.018096,0 -0.00427,-0.004 0.00427,-0.0138 0,-0.0181 -0.00427,-0.004 -0.013831,0.004 -0.018096,0 -0.00427,-0.004 0.00427,-0.0138 0,-0.0181 -0.00427,-0.004 -0.0138311,0.004 -0.0180964,0 -0.0374423,-0.0374 0.0572168,10e-4 -0.0180964,-0.0362 -0.0227637,-0.0114 -0.036193,0.026 -0.036193,-0.0181"
       id="path10252"
       inkscape:connector-curvature="0" />
    <path
       style="fill:none;fill-opacity:1;stroke:#1a1a1a;stroke-width:0.13229166;stroke-miterlimit:4;stroke-dasharray:none"
       d="m 0.94102128,295.71508 c 0.0663527,0.0423 0.13001222,0.0891 0.19905832,0.12674 0.00529,0.003 0,-0.0121 0,-0.0181 0,-0.007 -7.276e-4,-0.0716 0,-0.0724 0.00427,-0.004 0.013831,0.004 0.018096,0 0.0037,-0.004 -0.00359,-0.0471 0,-0.0543 0.00381,-0.008 0.014281,-0.0105 0.018096,-0.0181 0.0027,-0.005 -0.0027,-0.0127 0,-0.0181 0.00381,-0.008 0.014281,-0.0105 0.018096,-0.0181 0.0027,-0.005 0,-0.0121 0,-0.0181 0.00603,-0.006 0.014281,-0.0105 0.018096,-0.0181 0.0054,-0.0108 -0.0054,-0.0254 0,-0.0362 0.037657,-0.0753 -0.00125,0.0193 0.036193,-0.0181 0.00853,-0.009 -0.0054,-0.0254 0,-0.0362 0.00381,-0.008 0.014281,-0.0105 0.018096,-0.0181 0.0027,-0.005 -0.00427,-0.0138 0,-0.0181 0.00427,-0.004 0.013831,0.004 0.018096,0 0.00853,-0.009 -0.00853,-0.0277 0,-0.0362 0.00427,-0.004 0.013831,0.004 0.018096,0 0.024129,-0.0241 -0.030161,-0.0181 0.018096,-0.0181"
       id="path10254"
       inkscape:connector-curvature="0" />
    <path
       style="fill:none;fill-opacity:1;stroke:#1a1a1a;stroke-width:0.13229166;stroke-miterlimit:4;stroke-dasharray:none"
       d="m 1.1581756,295.75132 c 0.030161,0.0664 0.048685,0.13936 0.090483,0.19908 0.00773,0.0111 0.026655,-0.009 0.036193,-0.0181 0.00427,-0.004 -0.0054,-0.0154 0,-0.0181 0.016186,-0.008 0.038103,0.008 0.054289,0 0.08282,-0.0414 -0.076791,0.008 0.05429,-0.0362 0.00572,-0.002 0.013831,0.004 0.018096,0 0.00427,-0.004 -0.00427,-0.0138 0,-0.0181 0.00495,-0.005 0.062569,0.005 0.072386,0 0.00763,-0.004 0.010466,-0.0143 0.018096,-0.0181 0.0125,-0.006 0.08413,0.006 0.090483,0 0.00427,-0.004 -0.00427,-0.0138 0,-0.0181 0.00427,-0.004 0.012701,0.003 0.018096,0 0.00763,-0.004 0.012064,-0.0121 0.018096,-0.0181"
       id="path10256"
       inkscape:connector-curvature="0" />
    <path
       style="fill:none;fill-opacity:1;stroke:#1a1a1a;stroke-width:0.13229166;stroke-miterlimit:4;stroke-dasharray:none"
       d="m 1.9906151,295.71514 c 0,-0.0663 0,-0.1327 0,-0.19906 0,-0.006 0,-0.0121 0,-0.0181 0,-0.006 0.00427,-0.0138 0,-0.0181 -0.00427,-0.004 -0.013831,0.004 -0.018096,0 -0.00587,-0.006 0.00574,-0.079 0,-0.0905 -0.010583,-0.0212 -0.02561,-0.015 -0.036193,-0.0362 -0.0027,-0.005 0.0027,-0.0127 0,-0.0181 -0.00763,-0.0153 -0.030798,-0.02 -0.036193,-0.0362 -0.00382,-0.0114 0.00382,-0.0247 0,-0.0362 -0.0054,-0.0162 -0.028563,-0.0209 -0.036193,-0.0362 -0.0054,-0.0108 0.0054,-0.0254 0,-0.0362 -0.00382,-0.008 -0.014282,-0.0105 -0.018096,-0.0181 -0.0054,-0.0108 0.00853,-0.0277 0,-0.0362 -0.00427,-0.004 -0.013831,0.004 -0.018096,0 -0.00427,-0.004 0.00427,-0.0138 0,-0.0181 -0.00954,-0.01 -0.026655,-0.009 -0.036193,-0.0181 -0.037442,-0.0374 0.057217,10e-4 -0.018096,-0.0362 -0.0054,-0.003 -0.013831,0.004 -0.018096,0 -0.00853,-0.009 0.0054,-0.0254 0,-0.0362 -0.022362,-0.0447 -0.018096,0.006 -0.018096,-0.0362"
       id="path10258"
       inkscape:connector-curvature="0" />
    <path
       style="fill:none;fill-opacity:1;stroke:#1a1a1a;stroke-width:0.13229166;stroke-miterlimit:4;stroke-dasharray:none"
       d="m 1.7372671,294.99118 c 0.084449,0.0543 0.1647624,0.11569 0.253348,0.16297 0.00753,0.004 0.012064,-0.0121 0.018096,-0.0181 0.00603,-0.006 0.015399,-0.01 0.018096,-0.0181 0.00381,-0.0114 -0.00853,-0.0277 0,-0.0362 0.00853,-0.009 0.025402,0.005 0.036193,0 0.0054,-0.003 0,-0.0121 0,-0.0181 0,-0.0424 -0.00427,0.009 0.018096,-0.0362 0.0054,-0.0108 -0.00853,-0.0277 0,-0.0362 0.00427,-0.004 0.012701,0.003 0.018096,0 0.075313,-0.0377 -0.019346,0.001 0.018096,-0.0362 0.00427,-0.004 0.015399,0.005 0.018096,0 0.0054,-0.0108 -0.00669,-0.0262 0,-0.0362 0.00748,-0.0112 0.026655,-0.009 0.036193,-0.0181 0.00427,-0.004 -0.0027,-0.0127 0,-0.0181 0.00382,-0.008 0.014282,-0.0105 0.018096,-0.0181 0.0027,-0.005 -0.00427,-0.0138 0,-0.0181 0.00427,-0.004 0.013831,0.004 0.018096,0 0.017852,-0.0179 -0.037081,-0.0362 0.018096,-0.0362"
       id="path10260"
       inkscape:connector-curvature="0" />
    <path
       style="fill:none;fill-opacity:1;stroke:#1a1a1a;stroke-width:0.13229166;stroke-miterlimit:4;stroke-dasharray:none"
       d="m 1.9906151,295.71514 c 0.024129,-0.0905 0.041219,-0.18314 0.072386,-0.27144 0.015785,-0.0447 0.039594,-0.0362 0.072386,-0.0362 0.00603,0 0.012701,0.003 0.018096,0 0.00763,-0.004 0.010466,-0.0143 0.018096,-0.0181 0.0054,-0.003 0.013831,0.004 0.018096,0 0.00427,-0.004 -0.0054,-0.0154 0,-0.0181 0.010909,-0.005 0.085069,0.005 0.090482,0 0.00427,-0.004 -0.00427,-0.0138 0,-0.0181 0.00427,-0.004 0.012064,0 0.018096,0 0.030161,0 0.060322,0 0.090483,0"
       id="path10262"
       inkscape:connector-curvature="0" />
    <path
       style="fill:none;fill-opacity:1;stroke:#1a1a1a;stroke-width:0.13229166;stroke-miterlimit:4;stroke-dasharray:none"
       d="m 1.7372671,294.99118 c -0.0077,-0.0401 -0.051076,-0.0329 -0.072389,-0.0542 -0.00427,-0.004 0.00427,-0.0138 0,-0.0181 -0.00427,-0.004 -0.013831,0.004 -0.018096,0 -0.00853,-0.009 0.0054,-0.0254 0,-0.0362 -0.010858,-0.0217 -0.043432,-0.0326 -0.054289,-0.0543 -0.0027,-0.005 0.0027,-0.0127 0,-0.0181 -0.013858,-0.0277 -0.032248,-0.0141 -0.05429,-0.0362 -0.00427,-0.004 0.00427,-0.0138 0,-0.0181 -0.00853,-0.009 -0.025402,0.005 -0.036193,0 -0.00763,-0.004 -0.02413,-0.0241 -0.018096,-0.0181 0.084453,0.0844 0.1689027,0.16883 0.253354,0.25325"
       id="path10264"
       inkscape:connector-curvature="0" />
    <path
       style="fill:none;fill-opacity:1;stroke:#1a1a1a;stroke-width:0.13229166;stroke-miterlimit:4;stroke-dasharray:none"
       d="m 2.7687645,296.25804 c -0.00603,-0.0241 -0.013219,-0.048 -0.018098,-0.0724 -0.00235,-0.0118 0,-0.0241 0,-0.0362 0,-0.0241 0,-0.0483 0,-0.0724 0,-0.0724 0,-0.14478 0,-0.21716"
       id="path10266"
       inkscape:connector-curvature="0" />
    <path
       style="fill:none;fill-opacity:1;stroke:#1a1a1a;stroke-width:0.13229166;stroke-miterlimit:4;stroke-dasharray:none"
       d="m 2.7506665,295.85988 c -0.042225,-0.012 -0.087395,-0.0165 -0.1266739,-0.0362 -0.012065,-0.006 -0.00687,-0.0287 -0.018096,-0.0362 -0.1025468,0 -0.00603,0.0121 -0.036193,-0.0181 -0.00853,-0.009 -0.027662,0.009 -0.036193,0 -0.037442,-0.0374 0.057217,10e-4 -0.018096,-0.0362 -0.010791,-0.005 -0.027662,0.009 -0.036193,0 -0.024129,-0.0241 0.030161,-0.0181 -0.018096,-0.0181 -0.012064,0 -0.047109,-0.005 -0.036193,0 0.1075104,0.0506 0.2171569,0.0965 0.3257355,0.14474"
       id="path10268"
       inkscape:connector-curvature="0" />
    <path
       style="fill:none;fill-opacity:1;stroke:#1a1a1a;stroke-width:0.13229166;stroke-miterlimit:4;stroke-dasharray:none"
       d="m 2.7506665,295.85988 c 0.02413,-0.006 0.052488,-0.003 0.072388,-0.0181 0.00965,-0.007 -0.00293,-0.0245 0,-0.0362 0.00327,-0.0131 0.00856,-0.0267 0.018098,-0.0362 0.00954,-0.01 0.026655,-0.009 0.036193,-0.0181 0.00853,-0.009 -0.00853,-0.0277 0,-0.0362 0.00954,-0.01 0.026655,-0.009 0.036193,-0.0181 0.00427,-0.004 -0.00427,-0.0138 0,-0.0181 0.00427,-0.004 0.01383,0.004 0.018098,0 0.00426,-0.004 -0.00539,-0.0154 0,-0.0181 0.01079,-0.005 0.025403,0.005 0.036193,0 0.00539,-0.003 -0.00427,-0.0138 0,-0.0181 0.00427,-0.004 0.0127,0.003 0.018098,0 0.015261,-0.008 0.020934,-0.0286 0.036193,-0.0362 0.00539,-0.003 0.0127,0.003 0.018097,0 0.015261,-0.008 0.020931,-0.0286 0.036193,-0.0362 0.00539,-0.003 0.013832,0.004 0.018098,0 0.00427,-0.004 0,-0.0121 0,-0.0181"
       id="path10270"
       inkscape:connector-curvature="0" />
    <path
       style="fill:none;fill-opacity:1;stroke:#1a1a1a;stroke-width:0.13229166;stroke-miterlimit:4;stroke-dasharray:none"
       d="m 3.6735898,295.69705 c 0,-0.0543 0,-0.10858 0,-0.16287 0,-0.0121 0.00382,-0.0247 0,-0.0362 -0.0027,-0.008 -0.015399,-0.01 -0.018097,-0.0181 -0.00572,-0.0172 0,-0.0362 0,-0.0543 0,-0.0302 0,-0.0603 0,-0.0905 0,-0.0302 0,-0.0603 0,-0.0905 0,-0.006 0,-0.0121 0,-0.0181 0,-0.006 0.0027,-0.0127 0,-0.0181 -0.00382,-0.008 -0.014282,-0.0105 -0.018098,-0.0181 -0.0027,-0.005 0,-0.0121 0,-0.0181 0,-0.006 0,-0.0121 0,-0.0181 -0.041843,-0.0788 -0.1361811,-0.0666 -0.1990596,-0.10851 -0.0071,-0.005 -0.014281,-0.0105 -0.018096,-0.0181 -0.012481,-0.025 0.021916,-0.0162 -0.018096,-0.0362 -0.0054,-0.003 -0.013831,0.004 -0.018096,0 -0.00427,-0.004 0.00427,-0.0138 0,-0.0181 -0.00427,-0.004 -0.012701,0.003 -0.018096,0 -0.00763,-0.004 -0.010466,-0.0143 -0.018097,-0.0181 -0.0054,-0.003 -0.013831,0.004 -0.018096,0 -0.00427,-0.004 0.0027,-0.0127 0,-0.0181 -0.011181,-0.0224 -0.017472,-0.0181 -0.036193,-0.0181 -0.042439,0 0.00853,0.004 -0.036193,-0.0181 -0.022764,-0.0114 -0.036193,0.026 -0.036193,-0.0181"
       id="path10272"
       inkscape:connector-curvature="0" />
    <path
       style="fill:none;fill-opacity:1;stroke:#1a1a1a;stroke-width:0.13229166;stroke-miterlimit:4;stroke-dasharray:none"
       d="m 3.6373948,295.15408 c 0.012065,-0.0603 0.02413,-0.12059 0.036195,-0.18089 0.00603,-0.006 0.014282,-0.0105 0.018098,-0.0181 0.0027,-0.005 -0.00335,-0.0131 0,-0.0181 0.00946,-0.0142 0.024127,-0.0241 0.036193,-0.0362 0.00603,-0.006 0.010467,-0.0143 0.018098,-0.0181 0.00539,-0.003 0.0127,0.003 0.018098,0 0.00763,-0.004 0.012065,-0.0121 0.018097,-0.0181 0.00603,-0.006 0.014282,-0.0105 0.018098,-0.0181 0.0027,-0.005 -0.0027,-0.0127 0,-0.0181 0.013859,-0.0277 0.032248,-0.0142 0.05429,-0.0362 0.00426,-0.004 -0.00427,-0.0138 0,-0.0181 0.00426,-0.004 0.0127,0.003 0.018098,0 0.00763,-0.004 0.010467,-0.0143 0.018097,-0.0181 0.00539,-0.003 0.01383,0.004 0.018098,0 0.00427,-0.004 -0.00427,-0.0138 0,-0.0181 0.00427,-0.004 0.012065,0 0.018098,0 0,-0.006 -0.0027,-0.0127 0,-0.0181 0.01256,-0.0251 0.032199,-0.0181 0.054289,-0.0181 0.00603,0 0.013832,0.004 0.018098,0 0.00427,-0.004 0,-0.0121 0,-0.0181"
       id="path10274"
       inkscape:connector-curvature="0" />
    <path
       style="fill:none;fill-opacity:1;stroke:#1a1a1a;stroke-width:0.13229166;stroke-miterlimit:4;stroke-dasharray:none"
       d="m 2.7687645,294.57507 c 0,-0.15684 0,-0.31368 0,-0.47051 0,-0.009 8.202e-4,-0.0897 0,-0.0905 -0.00427,-0.004 -0.012065,0 -0.018098,0 -0.024128,-0.0362 -0.048256,-0.0724 -0.072384,-0.10857 0,-0.006 0.0027,-0.0127 0,-0.0181 -0.00382,-0.008 -0.010466,-0.0143 -0.018096,-0.0181 -0.0054,-0.003 -0.012701,0.003 -0.018096,0 -0.00763,-0.004 -0.012064,-0.0121 -0.018096,-0.0181 -0.012064,-0.0121 -0.021997,-0.0267 -0.036193,-0.0362 -0.00502,-0.003 -0.013831,0.004 -0.018096,0 -0.00853,-0.009 0.0054,-0.0254 0,-0.0362 -0.0183,-0.0366 -0.041996,-0.006 -0.05429,-0.0181 -0.00427,-0.004 0.00427,-0.0138 0,-0.0181 -0.00427,-0.004 -0.013831,0.004 -0.018096,0 -0.00427,-0.004 0.00427,-0.0138 0,-0.0181 -0.00954,-0.01 -0.02497,-0.0106 -0.036193,-0.0181 -0.0071,-0.005 -0.010466,-0.0143 -0.018096,-0.0181 -0.0054,-0.003 -0.012064,0 -0.018096,0 -0.00603,0 -0.012064,0 -0.018096,0"
       id="path10276"
       inkscape:connector-curvature="0" />
    <path
       style="fill:none;fill-opacity:1;stroke:#1a1a1a;stroke-width:0.13229166;stroke-miterlimit:4;stroke-dasharray:none"
       d="m 2.7506665,294.01406 c 0.018098,-0.0543 0.036194,-0.10857 0.054291,-0.16285 0.00603,-0.006 0.013364,-0.011 0.018098,-0.0181 0.00748,-0.0112 0.010615,-0.025 0.018097,-0.0362 0.00473,-0.007 0.014282,-0.0105 0.018098,-0.0181 0.0027,-0.005 -0.00427,-0.0138 0,-0.0181 0.024127,-0.0241 0.017365,0.0384 0.036193,-0.0181 0.00382,-0.0114 -0.00539,-0.0254 0,-0.0362 0.0027,-0.005 0.0127,0.003 0.018098,0 0.00763,-0.004 0.010467,-0.0143 0.018097,-0.0181 0.00539,-0.003 0.01383,0.004 0.018098,0 0.00427,-0.004 -0.0027,-0.0127 0,-0.0181 0.00382,-0.008 0.014282,-0.0105 0.018098,-0.0181 0.0027,-0.005 -0.00427,-0.0138 0,-0.0181 0.00427,-0.004 0.0127,0.003 0.018098,0 0.00763,-0.004 0.010467,-0.0143 0.018098,-0.0181 0.00539,-0.003 0.01383,0.004 0.018097,0 0.00427,-0.004 -0.00427,-0.0138 0,-0.0181 0.00427,-0.004 0.0127,0.003 0.018098,0 0.00763,-0.004 0.012065,-0.0121 0.018098,-0.0181"
       id="path10278"
       inkscape:connector-curvature="0" />
    <path
       style="fill:none;fill-opacity:1;stroke:#1a1a1a;stroke-width:0.13229166;stroke-miterlimit:4;stroke-dasharray:none"
       d="m 0.97721104,294.19504 c 0,-0.0422 0,-0.0845 0,-0.12668 0,-0.006 0.002698,-0.0127 0,-0.0181 -0.003815,-0.008 -0.0142814,-0.0105 -0.0180964,-0.0181 -0.002027,-0.004 0,-0.0681 0,-0.0724 0,-0.0362 0,-0.0724 0,-0.10858 -0.0120644,-0.0362 -0.0241287,-0.0724 -0.0361931,-0.10855 0,-0.0121 0.003815,-0.0248 0,-0.0362 -0.002698,-0.008 -0.0142814,-0.0105 -0.0180965,-0.0181 -0.002698,-0.005 0.004265,-0.0138 0,-0.0181 -0.004265,-0.004 -0.0138311,0.004 -0.0180965,0 -0.004265,-0.004 0.002698,-0.0127 0,-0.0181 -0.0376566,-0.0753 0.001249,0.0194 -0.036193,-0.0181 -0.004265,-0.004 0.004265,-0.0138 0,-0.0181 -0.0374423,-0.0374 0.001464,0.0572 -0.036193,-0.0181 -0.005395,-0.0108 0.008531,-0.0277 0,-0.0362 -0.008531,-0.009 -0.0276622,0.009 -0.036193,0 -0.004265,-0.004 0.004265,-0.0138 0,-0.0181 -0.004265,-0.004 -0.0138311,0.004 -0.0180965,0 -0.004265,-0.004 0.002698,-0.0127 0,-0.0181 -0.004833,-0.01 -0.0447623,-0.0448 -0.0542895,-0.0543"
       id="path10280"
       inkscape:connector-curvature="0" />
    <path
       style="fill:none;fill-opacity:1;stroke:#1a1a1a;stroke-width:0.13229166;stroke-miterlimit:4;stroke-dasharray:none"
       d="m 0.92292153,293.74263 c 0.0777151,-0.0971 0.0450736,-0.0632 0.0904826,-0.10858 0.00603,-0.006 0.014281,-0.0105 0.018096,-0.0181 0.0027,-0.005 -0.00427,-0.0138 0,-0.0181 0.00427,-0.004 0.015399,0.005 0.018096,0 0.0054,-0.0108 -0.00382,-0.0247 0,-0.0362 0.0027,-0.008 0.014281,-0.0105 0.018096,-0.0181 0.0027,-0.005 -0.00427,-0.0138 0,-0.0181 0.00427,-0.004 0.013831,0.004 0.018096,0 0.00427,-0.004 -0.0027,-0.0127 0,-0.0181 0.00382,-0.008 0.014281,-0.0105 0.018097,-0.0181 0.0027,-0.005 -0.00427,-0.0138 0,-0.0181 0.00427,-0.004 0.013831,0.004 0.018096,0 0.012212,-0.0122 -0.012212,-0.024 0,-0.0362 0.00427,-0.004 0.013831,0.004 0.018096,0 0.00427,-0.004 -0.00427,-0.0138 0,-0.0181 0.00427,-0.004 0.012701,0.003 0.018097,0 0.00763,-0.004 0.012064,-0.0121 0.018096,-0.0181"
       id="path10282"
       inkscape:connector-curvature="0" />
    <path
       style="fill:none;fill-opacity:1;stroke:#1a1a1a;stroke-width:0.13229166;stroke-miterlimit:4;stroke-dasharray:none"
       d="m 1.7915536,294.15885 c 0,-0.0543 0,-0.10858 0,-0.16287 0,-0.006 0.00427,-0.0138 0,-0.0181 -0.00427,-0.004 -0.013831,0.004 -0.018096,0 -0.00635,-0.006 0.00625,-0.078 0,-0.0905 -0.00382,-0.008 -0.014282,-0.0105 -0.018096,-0.0181 -0.00809,-0.0162 0.00809,-0.0381 0,-0.0543 -0.0027,-0.005 -0.015399,0.005 -0.018096,0 -0.0054,-0.0108 0.0054,-0.0254 0,-0.0362 -0.0027,-0.005 -0.013831,0.004 -0.018097,0 -0.00427,-0.004 0.0027,-0.0127 0,-0.0181 -0.00381,-0.008 -0.014281,-0.0105 -0.018096,-0.0181 -0.0054,-0.0108 0.0054,-0.0254 0,-0.0362 -0.00381,-0.008 -0.014281,-0.0105 -0.018096,-0.0181 -0.0054,-0.0108 0.0054,-0.0254 0,-0.0362 -0.015085,-0.0302 -0.036193,-0.008 -0.036193,-0.0543"
       id="path10284"
       inkscape:connector-curvature="0" />
    <path
       style="fill:none;fill-opacity:1;stroke:#1a1a1a;stroke-width:0.13229166;stroke-miterlimit:4;stroke-dasharray:none"
       d="m 1.7915536,294.15885 c 0.012064,-0.10255 0.024129,-0.2051 0.036193,-0.30764 0.00603,-0.006 0.014281,-0.0105 0.018096,-0.0181 0.0054,-0.0108 -0.0054,-0.0254 0,-0.0362 0.00763,-0.0153 0.028563,-0.0209 0.036193,-0.0362 0.0027,-0.005 -0.00427,-0.0138 0,-0.0181 0.00427,-0.004 0.013831,0.004 0.018096,0 0.00427,-0.004 -0.00427,-0.0138 0,-0.0181 0.00427,-0.004 0.013831,0.004 0.018096,0 0.00954,-0.01 0.00856,-0.0267 0.018097,-0.0362 0.00427,-0.004 0.013831,0.004 0.018096,0 0.00905,-0.009 -0.00905,-0.0452 0,-0.0543 0.00427,-0.004 0.013831,0.004 0.018096,0 0.00427,-0.004 -0.00427,-0.0138 0,-0.0181 0.00427,-0.004 0.013831,0.004 0.018096,0 0.00427,-0.004 -0.0027,-0.0127 0,-0.0181 0.010858,-0.0217 0.043432,-0.0326 0.054289,-0.0543 0.0027,-0.005 -0.0027,-0.0127 0,-0.0181 0.00381,-0.008 0.014281,-0.0105 0.018096,-0.0181 0.0027,-0.005 -0.0027,-0.0127 0,-0.0181 0.022362,-0.0447 0.018096,0.006 0.018096,-0.0362"
       id="path10286"
       inkscape:connector-curvature="0" />
    <path
       style="fill:none;fill-opacity:1;stroke:#1a1a1a;stroke-width:0.13229166;stroke-miterlimit:4;stroke-dasharray:none"
       d="m 4.4879323,296.22185 c 0,-0.14477 0,-0.28955 0,-0.43432 -0.030161,-0.0362 -0.059822,-0.0728 -0.090482,-0.10858 -0.045015,-0.0525 0.00645,0.003 -0.036193,-0.0181 -0.075313,-0.0377 0.019346,0.001 -0.018096,-0.0362 -0.00427,-0.004 -0.012701,0.003 -0.018097,0 -0.00763,-0.004 -0.012064,-0.0121 -0.018096,-0.0181 -0.00603,-0.006 -0.014281,-0.0105 -0.018097,-0.0181 -0.0054,-0.0108 0.0054,-0.0254 0,-0.0362 -0.037657,-0.0753 0.00125,0.0193 -0.036193,-0.0181 -0.00853,-0.009 0.00853,-0.0277 0,-0.0362 -0.037442,-0.0375 0.00146,0.0572 -0.036193,-0.0181 -0.026627,-0.0532 0.041922,0.0238 -0.018096,-0.0362"
       id="path10288"
       inkscape:connector-curvature="0" />
    <path
       style="fill:none;fill-opacity:1;stroke:#1a1a1a;stroke-width:0.13229166;stroke-miterlimit:4;stroke-dasharray:none"
       d="m 4.4879323,295.78753 c 0.00603,-0.0663 0.012065,-0.13271 0.018098,-0.19906 0.00603,-0.006 0.014282,-0.0105 0.018097,-0.0181 0.0027,-0.005 0,-0.0121 0,-0.0181 0.00603,-0.0121 0.010615,-0.025 0.018097,-0.0362 0.00946,-0.0142 0.028563,-0.0209 0.036193,-0.0362 0.00359,-0.007 -0.0037,-0.0506 0,-0.0543 0.00427,-0.004 0.01383,0.004 0.018098,0 0.00427,-0.004 -0.0027,-0.0127 0,-0.0181 0.00382,-0.008 0.012065,-0.0121 0.018097,-0.0181 0.014219,-0.0142 0.084719,-0.079 0.090483,-0.0905 0.0027,-0.005 -0.0027,-0.0127 0,-0.0181 0.00382,-0.008 0.012065,-0.0121 0.018097,-0.0181 0.00603,-0.006 0.010467,-0.0143 0.018097,-0.0181 0.048257,0 -0.00603,0.006 0.018098,-0.0181 0.037442,-0.0374 -0.00146,0.0572 0.036193,-0.0181 0.01248,-0.025 -0.021915,-0.0162 0.018098,-0.0362 0.048257,0 -0.00603,0.006 0.018097,-0.0181 0.024127,-0.0241 0.018097,0.0302 0.018097,-0.0181"
       id="path10290"
       inkscape:connector-curvature="0" />
    <path
       style="fill:none;fill-opacity:1;stroke:#1a1a1a;stroke-width:0.13229166;stroke-miterlimit:4;stroke-dasharray:none"
       d="m 5.1575027,296.11327 c 0,-0.0241 -0.00473,-0.0487 0,-0.0724 0.00167,-0.008 0.015399,-0.01 0.018097,-0.0181 0.00343,-0.0103 0,-0.0734 0,-0.0905 0,-0.0724 0,-0.14477 0,-0.21716 0.05362,-0.10318 -0.067281,-0.0802 -0.090483,-0.12664 -0.0027,-0.005 0.00427,-0.0138 0,-0.0181 -0.00427,-0.004 -0.012701,0.003 -0.018096,0 -0.00763,-0.004 -0.010466,-0.0143 -0.018097,-0.0181 -0.0054,-0.003 -0.013831,0.004 -0.018096,0 -0.00427,-0.004 0.00427,-0.0138 0,-0.0181 -0.00427,-0.004 -0.013831,0.004 -0.018097,0 -0.00427,-0.004 0.0027,-0.0127 0,-0.0181 -0.020006,-0.04 -0.011231,-0.006 -0.036193,-0.0181 -0.0048,-0.002 -0.051887,-0.0495 -0.05429,-0.0543 -0.0027,-0.005 0.00427,-0.0138 0,-0.0181 -0.00427,-0.004 -0.012064,0 -0.018096,0 -0.054288,-0.0603 -0.108575,-0.12069 -0.1628625,-0.18103"
       id="path10292"
       inkscape:connector-curvature="0" />
    <path
       style="fill:none;fill-opacity:1;stroke:#1a1a1a;stroke-width:0.13229166;stroke-miterlimit:4;stroke-dasharray:none"
       d="m 5.1755997,295.71511 c 0.1882032,0.0186 0.031849,-0.0749 0.054289,-0.10854 0.00946,-0.0142 0.028563,-0.0209 0.036193,-0.0362 0.00539,-0.0108 -0.00382,-0.0247 0,-0.0362 0.0027,-0.008 0.014282,-0.0105 0.018097,-0.0181 0.0027,-0.005 -0.0019,-0.0124 0,-0.0181 0.00427,-0.0128 0.013832,-0.0234 0.018098,-0.0362 0.0019,-0.006 -0.0027,-0.0127 0,-0.0181 0.00382,-0.008 0.014282,-0.0105 0.018097,-0.0181 0.00539,-0.0108 -0.00382,-0.0247 0,-0.0362 0.043693,-0.13108 -0.00522,0.0285 0.036193,-0.0543 0.0027,-0.005 -0.0027,-0.0127 0,-0.0181 0.00763,-0.0153 0.028563,-0.0209 0.036193,-0.0362 0.0027,-0.005 -0.0027,-0.0127 0,-0.0181 0.00763,-0.0153 0.030798,-0.02 0.036193,-0.0362 0.00382,-0.0114 -0.00539,-0.0254 0,-0.0362 0.024127,-0.0483 0.018097,0.0543 0.018097,-0.0181"
       id="path10294"
       inkscape:connector-curvature="0" />
    <path
       style="fill:none;fill-opacity:1;stroke:#1a1a1a;stroke-width:0.13229166;stroke-miterlimit:4;stroke-dasharray:none"
       d="m 5.9537488,296.09517 c 0,-0.12667 0,-0.25335 0,-0.38003 -0.038891,-0.11667 -0.00922,-0.0816 -0.054289,-0.12667 -0.00603,-0.006 -0.014281,-0.0105 -0.018096,-0.0181 -0.0027,-0.005 0.00427,-0.0138 0,-0.0181 -0.037442,-0.0374 0.00146,0.0572 -0.036193,-0.0181 -0.0054,-0.0108 0.00853,-0.0277 0,-0.0362 -0.00427,-0.004 -0.012701,0.003 -0.018097,0 -0.027716,-0.0139 -0.014152,-0.0323 -0.036193,-0.0543 -0.00427,-0.004 -0.013831,0.004 -0.018096,0 -0.00427,-0.004 0.00427,-0.0138 0,-0.0181 -0.00427,-0.004 -0.013831,0.004 -0.018097,0 -0.00853,-0.009 0.00853,-0.0277 0,-0.0362 -0.00427,-0.004 -0.013831,0.004 -0.018096,0 -0.00427,-0.004 0.00427,-0.0138 0,-0.0181 -0.00427,-0.004 -0.013126,0.003 -0.018097,0 -0.092462,-0.0636 -0.1809631,-0.13276 -0.2714447,-0.19914"
       id="path10296"
       inkscape:connector-curvature="0" />
    <path
       style="fill:none;fill-opacity:1;stroke:#1a1a1a;stroke-width:0.13229166;stroke-miterlimit:4;stroke-dasharray:none"
       d="m 5.9537488,295.71514 c 0.012065,-0.0422 0.024127,-0.0845 0.036193,-0.12667 0.00603,-0.006 0.015399,-0.01 0.018097,-0.0181 0.00382,-0.0114 -0.00293,-0.0245 0,-0.0362 0.021847,-0.0874 0.0086,9e-4 0.036193,-0.0543 0.00539,-0.0108 -0.00539,-0.0254 0,-0.0362 0.00382,-0.008 0.013364,-0.011 0.018097,-0.0181 0.034283,0.002 0.012065,-0.0422 0.018097,-0.0543 0.04141,-0.0828 -0.0075,0.0768 0.036193,-0.0543 0.0019,-0.006 -0.0027,-0.0127 0,-0.0181 0.00763,-0.0153 0.028563,-0.0209 0.036193,-0.0362 0.0027,-0.005 -0.00427,-0.0138 0,-0.0181 0.02413,-0.0241 0.018097,0.0302 0.018097,-0.0181"
       id="path10298"
       inkscape:connector-curvature="0" />
    <path
       style="fill:none;fill-opacity:1;stroke:#1a1a1a;stroke-width:0.13229166;stroke-miterlimit:4;stroke-dasharray:none"
       d="m 6.5871264,296.38472 c 0,-0.11462 0,-0.22923 0,-0.34384 0.054238,-0.11368 -0.1160956,-0.0693 -0.144772,-0.12667 -0.0027,-0.005 0.00427,-0.0138 0,-0.0181 -0.00427,-0.004 -0.013831,0.004 -0.018097,0 -0.00427,-0.004 0.00427,-0.0138 0,-0.0181 -0.00427,-0.004 -0.012064,0 -0.018096,0"
       id="path10300"
       inkscape:connector-curvature="0" />
    <path
       style="fill:none;fill-opacity:1;stroke:#1a1a1a;stroke-width:0.13229166;stroke-miterlimit:4;stroke-dasharray:none"
       d="m 6.5871264,296.04088 c -0.031432,-0.0867 0.1018045,-0.0588 0.1266753,-0.10858 0.0027,-0.005 -0.00427,-0.0138 0,-0.0181 0.00427,-0.004 0.013832,0.004 0.018097,0 0.00427,-0.004 -0.00427,-0.0138 0,-0.0181 0.00427,-0.004 0.013833,0.004 0.018097,0 0.00427,-0.004 -0.00426,-0.0138 0,-0.0181 0.00427,-0.004 0.022363,-0.004 0.018098,0 -0.057385,0.0574 -0.1206434,0.10858 -0.1809649,0.16287"
       id="path10302"
       inkscape:connector-curvature="0" />
    <path
       style="fill:none;fill-opacity:1;stroke:#1a1a1a;stroke-width:0.13229166;stroke-miterlimit:4;stroke-dasharray:none"
       d="m 7.2566968,296.16756 c -0.021759,-0.0734 -0.018098,-0.14268 -0.018098,-0.21716 0,-0.006 0.0027,-0.0127 0,-0.0181 -0.00382,-0.008 -0.015399,-0.01 -0.018097,-0.0181 -0.00572,-0.0172 0,-0.0362 0,-0.0543 0,-0.0362 0,-0.0724 0,-0.10857 0,-0.009 8.202e-4,-0.0897 0,-0.0905 -0.00427,-0.004 -0.013832,0.004 -0.018097,0 -0.00427,-0.004 0,-0.0121 0,-0.0181 0,-0.006 0,-0.0121 0,-0.0181 -0.060333,-0.0603 -0.1206465,-0.12062 -0.1809623,-0.18093 -0.00603,-0.006 -0.012064,-0.0121 -0.018097,-0.0181 -0.00603,-0.006 -0.010466,-0.0143 -0.018096,-0.0181 -0.010791,-0.005 -0.027662,0.009 -0.036193,0 -0.00427,-0.004 0.0027,-0.0127 0,-0.0181 -0.00382,-0.008 -0.012064,-0.0121 -0.018097,-0.0181"
       id="path10304"
       inkscape:connector-curvature="0" />
    <path
       style="fill:none;fill-opacity:1;stroke:#1a1a1a;stroke-width:0.13229166;stroke-miterlimit:4;stroke-dasharray:none"
       d="m 7.2024046,295.62463 c 0.1583341,-0.36933 -0.015782,-0.0385 0.090485,-0.14474 0.00853,-0.009 -0.00853,-0.0277 0,-0.0362 0.00954,-0.01 0.026655,-0.009 0.036193,-0.0181 0.00853,-0.009 -0.00539,-0.0254 0,-0.0362 0.00382,-0.008 0.014282,-0.0105 0.018097,-0.0181 0.0027,-0.005 -0.00427,-0.0138 0,-0.0181 0.00427,-0.004 0.01383,0.004 0.018097,0 0.037443,-0.0374 -0.057217,0.001 0.018098,-0.0362 0.00539,-0.003 0.0127,0.003 0.018097,0 0.015261,-0.008 0.020934,-0.0286 0.036193,-0.0362 0.00539,-0.003 0.0127,0.003 0.018097,0 0.075313,-0.0377 -0.019346,10e-4 0.018098,-0.0362 0.024127,-0.0241 0.018097,0.0302 0.018097,-0.0181"
       id="path10306"
       inkscape:connector-curvature="0" />
    <path
       style="fill:none;fill-opacity:1;stroke:#1a1a1a;stroke-width:0.13229166;stroke-miterlimit:4;stroke-dasharray:none"
       d="m 4.3793531,294.33981 c 0,-0.0483 0,-0.0965 0,-0.14477 0,-0.006 0,-0.0121 0,-0.0181 0,-0.006 0.0027,-0.0127 0,-0.0181 -0.00382,-0.008 -0.014282,-0.0105 -0.018098,-0.0181 -0.00238,-0.005 0,-0.0629 0,-0.0724 0,-0.0483 0,-0.0965 0,-0.14477 -0.012064,-0.0362 -0.024128,-0.0724 -0.036191,-0.10856 -0.00603,-0.006 -0.014281,-0.0105 -0.018096,-0.0181 -0.0027,-0.005 0.00335,-0.0131 0,-0.0181 -0.00946,-0.0142 -0.024129,-0.0241 -0.036193,-0.0362 -0.00603,-0.006 -0.010466,-0.0143 -0.018097,-0.0181 -0.0054,-0.003 -0.013831,0.004 -0.018096,0 -0.037442,-0.0374 0.057217,0.001 -0.018097,-0.0362 -0.0054,-0.003 -0.013831,0.004 -0.018096,0 -0.00427,-0.004 0.00427,-0.0138 0,-0.0181 -0.00427,-0.004 -0.013831,0.004 -0.018097,0 -0.00427,-0.004 0.00427,-0.0138 0,-0.0181 -0.00427,-0.004 -0.013831,0.004 -0.018097,0 -0.00853,-0.009 0.010791,-0.0308 0,-0.0362 -0.010791,-0.005 -0.025402,0.005 -0.036193,0 -0.0054,-0.003 0.0027,-0.0127 0,-0.0181 -0.00382,-0.008 -0.014281,-0.0105 -0.018096,-0.0181 -0.0027,-0.005 0,-0.0121 0,-0.0181 0,-0.006 0,-0.0121 0,-0.0181"
       id="path10308"
       inkscape:connector-curvature="0" />
    <path
       style="fill:none;fill-opacity:1;stroke:#1a1a1a;stroke-width:0.13229166;stroke-miterlimit:4;stroke-dasharray:none"
       d="m 4.3250641,293.81501 c 0.056082,-0.038 0.062442,-0.11673 0.1085786,-0.16287 0.037442,-0.0374 -0.00146,0.0572 0.036193,-0.0181 0.0027,-0.005 -0.0027,-0.0127 0,-0.0181 0.00382,-0.008 0.012065,-0.0121 0.018098,-0.0181 0.00603,-0.006 0.010467,-0.0143 0.018097,-0.0181 0.00539,-0.003 0.01383,0.004 0.018098,0 0.00853,-0.009 -0.00853,-0.0277 0,-0.0362 0.00426,-0.004 0.012065,0 0.018097,0 0.00603,0 0.021865,-0.005 0.018097,0 -0.074798,0.0935 -0.1568363,0.18096 -0.2352543,0.27145"
       id="path10310"
       inkscape:connector-curvature="0" />
    <path
       style="fill:none;fill-opacity:1;stroke:#1a1a1a;stroke-width:0.13229166;stroke-miterlimit:4;stroke-dasharray:none"
       d="m 3.5650106,293.23592 c -0.019558,-0.0782 -0.018098,-0.0475 -0.018098,-0.0905 0,-0.006 0.0027,-0.0127 0,-0.0181 -0.00382,-0.008 -0.014282,-0.0105 -0.018097,-0.0181 -0.00309,-0.006 0,-0.10627 0,-0.12668 0,-0.0905 0,-0.18096 0,-0.27145 -0.00603,-0.0422 -0.00638,-0.0856 -0.018094,-0.12664 -0.00166,-0.006 -0.012701,0.003 -0.018096,0 -0.00763,-0.004 -0.012064,-0.0121 -0.018096,-0.0181 -0.00603,-0.006 -0.014281,-0.0105 -0.018096,-0.0181 -0.0027,-0.005 0.0027,-0.0127 0,-0.0181 -0.020006,-0.04 -0.011231,-0.006 -0.036193,-0.0181 -0.075313,-0.0377 0.019346,0.001 -0.018096,-0.0362 -0.048257,0 0.00603,0.006 -0.018096,-0.0181 -0.00427,-0.004 -0.013831,0.004 -0.018096,0 -0.00427,-0.004 0.00427,-0.0138 0,-0.0181 -0.00427,-0.004 -0.012701,0.003 -0.018097,0 -0.075313,-0.0377 0.019346,0.001 -0.018096,-0.0362 -0.00427,-0.004 -0.013831,0.004 -0.018096,0 -0.00427,-0.004 0.00427,-0.0138 0,-0.0181 -0.00427,-0.004 -0.012701,0.003 -0.018096,0 -0.075313,-0.0377 0.019346,0.001 -0.018096,-0.0362 -0.00427,-0.004 -0.013831,0.004 -0.018096,0 -0.00427,-0.004 0.00427,-0.0138 0,-0.0181 -0.00427,-0.004 -0.013831,0.004 -0.018096,0 -0.00427,-0.004 0.0027,-0.0127 0,-0.0181 -0.00763,-0.0153 -0.028563,-0.0209 -0.036193,-0.0362 -0.0027,-0.005 0.00427,-0.0138 0,-0.0181 -0.00427,-0.004 -0.012064,0 -0.018096,0"
       id="path10312"
       inkscape:connector-curvature="0" />
    <path
       style="fill:none;fill-opacity:1;stroke:#1a1a1a;stroke-width:0.13229166;stroke-miterlimit:4;stroke-dasharray:none"
       d="m 3.5288156,292.71109 c 0.1159383,-0.0301 0.016544,-0.16128 0.072388,-0.21712 0.00427,-0.004 0.01383,0.004 0.018098,0 0.00853,-0.009 -0.00539,-0.0254 0,-0.0362 0.00382,-0.008 0.014282,-0.0105 0.018098,-0.0181 0.00569,-0.0114 -0.00569,-0.061 0,-0.0724 0.0027,-0.005 0.0127,0.003 0.018097,0 0.075313,-0.0377 -0.019346,10e-4 0.018098,-0.0362 0.00427,-0.004 0.01383,0.004 0.018098,0 0.00427,-0.004 -0.0027,-0.0127 0,-0.0181 0.00382,-0.008 0.014282,-0.0105 0.018098,-0.0181 0.0027,-0.005 -0.0027,-0.0127 0,-0.0181 0.00382,-0.008 0.014282,-0.0105 0.018098,-0.0181 0.00539,-0.0108 -0.00853,-0.0277 0,-0.0362 0.024127,-0.0241 0.018097,0.0302 0.018097,-0.0181"
       id="path10314"
       inkscape:connector-curvature="0" />
    <path
       style="fill:none;fill-opacity:1;stroke:#1a1a1a;stroke-width:0.13229166;stroke-miterlimit:4;stroke-dasharray:none"
       d="m 5.6099154,294.57507 c 0,-0.16891 0,-0.33781 0,-0.50671 0,-0.0362 0,-0.0724 0,-0.10858 0,-0.004 0.00204,-0.0683 0,-0.0724 -0.060019,-0.06 0.00853,0.0171 -0.018098,-0.0362 -0.00382,-0.008 -0.014282,-0.0105 -0.018097,-0.0181 -0.0027,-0.005 0.00427,-0.0138 0,-0.0181 -0.00427,-0.004 -0.013832,0.004 -0.018097,0 -0.00436,-0.004 0.00435,-0.068 0,-0.0724 -0.00427,-0.004 -0.013832,0.004 -0.018098,0 -0.00853,-0.009 0.00539,-0.0254 0,-0.0362 -0.00382,-0.008 -0.014282,-0.0105 -0.018097,-0.0181 -0.0027,-0.005 0.0027,-0.0127 0,-0.0181 -0.00382,-0.008 -0.014282,-0.0105 -0.018098,-0.0181 -0.0027,-0.005 0.0027,-0.0127 0,-0.0181 -0.00382,-0.008 -0.014282,-0.0105 -0.018097,-0.0181 -0.026627,-0.0533 0.041922,0.0238 -0.018097,-0.0362"
       id="path10316"
       inkscape:connector-curvature="0" />
    <path
       style="fill:none;fill-opacity:1;stroke:#1a1a1a;stroke-width:0.13229166;stroke-miterlimit:4;stroke-dasharray:none"
       d="m 5.6099154,294.57507 c 0.030161,-0.13874 0.060321,-0.27748 0.090482,-0.41622 0.00603,-0.006 0.015399,-0.01 0.018097,-0.0181 0.00382,-0.0115 -0.00539,-0.0254 0,-0.0362 0.0027,-0.005 0.013833,0.004 0.018098,0 0.00427,-0.004 -0.00427,-0.0138 0,-0.0181 0.00427,-0.004 0.013832,0.004 0.018097,0 0.00427,-0.004 -0.0027,-0.0127 0,-0.0181 0.00763,-0.0153 0.028563,-0.0209 0.036193,-0.0362 0,-0.0483 -0.00603,0.006 0.018098,-0.0181 0.00427,-0.004 -0.00603,-0.0181 0,-0.0181 0.00603,0 0.00529,0.021 0,0.0181 -0.069046,-0.0377 -0.1327076,-0.0845 -0.1990614,-0.12669"
       id="path10318"
       inkscape:connector-curvature="0" />
    <path
       style="fill:none;fill-opacity:1;stroke:#1a1a1a;stroke-width:0.13229166;stroke-miterlimit:4;stroke-dasharray:none"
       d="m 6.4785472,294.64745 c 0,-0.0965 0,-0.19303 0,-0.28954 0,-0.007 -0.00386,-0.0828 0,-0.0905 0.00382,-0.008 0.014282,-0.0105 0.018097,-0.0181 0.00491,-0.01 -0.00495,-0.0674 0,-0.0724 0.00427,-0.004 0.01383,0.004 0.018097,0 0.00853,-0.009 -0.00539,-0.0254 0,-0.0362 0.010859,-0.0217 0.043432,-0.0326 0.05429,-0.0543 0.0027,-0.005 -0.00427,-0.0138 0,-0.0181 0.00427,-0.004 0.013832,0.004 0.018097,0 0.00427,-0.004 -0.0027,-0.0127 0,-0.0181 0.00382,-0.008 0.012065,-0.0121 0.018097,-0.0181"
       id="path10320"
       inkscape:connector-curvature="0" />
    <path
       style="fill:none;fill-opacity:1;stroke:#1a1a1a;stroke-width:0.13229166;stroke-miterlimit:4;stroke-dasharray:none"
       d="m 6.6052252,294.03211 c -0.048258,0.0483 -0.090176,0.10386 -0.1447744,0.14483 -0.00965,0.007 0.00293,-0.0245 0,-0.0362 -0.016087,-0.0643 -0.014076,-0.0141 -0.054289,-0.0543 -0.00436,-0.004 0.00436,-0.068 0,-0.0724 -0.00427,-0.004 -0.013832,0.004 -0.018098,0 -0.00853,-0.009 0.00539,-0.0254 0,-0.0362 -0.037656,-0.0753 0.00124,0.0193 -0.036193,-0.0181 -0.00597,-0.006 0.00437,-0.0593 0,-0.0724 -0.0027,-0.008 -0.015399,-0.01 -0.018098,-0.0181 -0.00382,-0.0115 0.00539,-0.0254 0,-0.0362 -0.0027,-0.005 -0.012065,0 -0.018097,0 -0.00603,-0.006 -0.015399,-0.01 -0.018098,-0.0181 -0.00763,-0.0229 0.01079,-0.0508 0,-0.0724 -0.0027,-0.005 -0.01383,0.004 -0.018097,0 -0.00853,-0.009 0.00539,-0.0254 0,-0.0362 -0.022363,-0.0447 -0.018097,0.006 -0.018097,-0.0362"
       id="path10322"
       inkscape:connector-curvature="0" />
    <path
       style="fill:none;fill-opacity:1;stroke:#1a1a1a;stroke-width:0.13229166;stroke-miterlimit:4;stroke-dasharray:none"
       d="m 7.1300215,294.70174 c 0,-0.0302 -0.00496,-0.0607 0,-0.0905 0.0028,-0.0168 0.030798,-0.02 0.036193,-0.0362 0.00382,-0.0114 -0.00669,-0.0262 0,-0.0362 0.00748,-0.0112 0.026655,-0.009 0.036193,-0.0181 0.00427,-0.004 -0.0027,-0.0127 0,-0.0181 0.00382,-0.008 0.012065,-0.0121 0.018098,-0.0181 0.00603,-0.006 0.012065,-0.0121 0.018097,-0.0181 0.024127,-0.0241 0.048257,-0.0483 0.072386,-0.0724 0.00603,-0.006 0.013364,-0.011 0.018097,-0.0181 0.00748,-0.0112 0.00856,-0.0267 0.018098,-0.0362 0.00427,-0.004 0.012374,0.002 0.018097,0 0.012795,-0.004 0.024969,-0.0106 0.036193,-0.0181 0.0071,-0.005 0.010467,-0.0143 0.018097,-0.0181 0.00539,-0.003 0.01383,0.004 0.018098,0 0.00427,-0.004 -0.00427,-0.0138 0,-0.0181 0.00427,-0.004 0.01383,0.004 0.018097,0 0.00427,-0.004 -0.0027,-0.0127 0,-0.0181 0.00382,-0.008 0.012065,-0.0121 0.018097,-0.0181 0.00603,-0.006 0.010467,-0.0143 0.018098,-0.0181 0.022765,-0.0114 0.036193,0.026 0.036193,-0.0181"
       id="path10324"
       inkscape:connector-curvature="0" />
    <path
       style="fill:none;fill-opacity:1;stroke:#1a1a1a;stroke-width:0.13229166;stroke-miterlimit:4;stroke-dasharray:none"
       d="m 7.1300215,294.70174 c 0.1288616,-0.33136 0.1266753,-0.20924 0.1266753,-0.34383 0,-0.006 0.0027,-0.0127 0,-0.0181 -0.00382,-0.008 -0.014282,-0.0105 -0.018098,-0.0181 -0.0027,-0.005 0.00427,-0.0138 0,-0.0181 -0.00427,-0.004 -0.015399,0.005 -0.018097,0 -0.00539,-0.0108 0.00382,-0.0247 0,-0.0362 -0.0027,-0.008 -0.014282,-0.0105 -0.018097,-0.0181 -0.00539,-0.0108 0.00853,-0.0277 0,-0.0362 -0.00427,-0.004 -0.01383,0.004 -0.018098,0 -0.00427,-0.004 0.0027,-0.0127 0,-0.0181 -0.00382,-0.008 -0.014282,-0.0105 -0.018097,-0.0181 -0.0027,-0.005 0.00427,-0.0138 0,-0.0181 -0.00427,-0.004 -0.01383,0.004 -0.018098,0 -0.0037,-0.004 0.00359,-0.0471 0,-0.0543 -0.00382,-0.008 -0.014282,-0.0105 -0.018097,-0.0181 -0.00539,-0.0108 0.00382,-0.0247 0,-0.0362 -0.00427,-0.0128 -0.013832,-0.0234 -0.018097,-0.0362 -0.00415,-0.0125 0.00534,-0.0436 0,-0.0543 -0.00382,-0.008 -0.014282,-0.0105 -0.018098,-0.0181 -0.00539,-0.0108 0.00539,-0.0254 0,-0.0362 -0.00382,-0.008 -0.014282,-0.0105 -0.018097,-0.0181 -0.0027,-0.005 0,-0.0121 0,-0.0181 0,-0.006 0,-0.0121 0,-0.0181 0,-0.0302 0,-0.0603 0,-0.0905"
       id="path10326"
       inkscape:connector-curvature="0" />
    <path
       style="fill:none;fill-opacity:1;stroke:#1a1a1a;stroke-width:0.13229166;stroke-miterlimit:4;stroke-dasharray:none"
       d="m 6.7680913,293.3445 c 0,-0.0663 0,-0.1327 0,-0.19906 0,-0.006 0,-0.0121 0,-0.0181 0,-0.006 -0.0027,-0.0127 0,-0.0181 0.00382,-0.008 0.014282,-0.0105 0.018097,-0.0181 0.0027,-0.005 -0.0019,-0.0124 0,-0.0181 0.00427,-0.0128 0.013832,-0.0234 0.018098,-0.0362 0.0019,-0.006 -0.0019,-0.0124 0,-0.0181 0.00427,-0.0128 0.00856,-0.0266 0.018097,-0.0362 0.024127,-0.0241 0.017365,0.0384 0.036193,-0.0181 0.00382,-0.0115 -0.00382,-0.0247 0,-0.0362 0.0027,-0.008 0.015399,-0.01 0.018097,-0.0181 0.00382,-0.0115 -0.00539,-0.0254 0,-0.0362 0.0027,-0.005 0.013832,0.004 0.018097,0 0.00853,-0.009 -0.00539,-0.0254 0,-0.0362 0.00802,-0.016 0.043307,-0.0378 0.054289,-0.0543 0.00748,-0.0112 0.010615,-0.025 0.018097,-0.0362 0.00473,-0.007 0.014282,-0.0105 0.018097,-0.0181 0.0027,-0.005 -0.0027,-0.0127 0,-0.0181 0.00382,-0.008 0.014282,-0.0105 0.018098,-0.0181 0.0027,-0.005 -0.00427,-0.0138 0,-0.0181 0.024127,-0.0241 0.018097,0.0302 0.018097,-0.0181"
       id="path10328"
       inkscape:connector-curvature="0" />
    <path
       style="fill:none;fill-opacity:1;stroke:#1a1a1a;stroke-width:0.13229166;stroke-miterlimit:4;stroke-dasharray:none"
       d="m 7.0214481,292.65674 c -0.096516,0.0302 -0.189965,0.073 -0.2895497,0.0906 -0.013282,0.002 -0.010615,-0.025 -0.018098,-0.0362 -0.00473,-0.007 -0.012065,-0.0121 -0.018097,-0.0181 -0.012065,-0.0121 -0.024127,-0.0241 -0.036193,-0.0362 -0.041493,-0.0415 0.011446,0.008 -0.05429,-0.0362 -0.0071,-0.005 -0.012065,-0.0121 -0.018098,-0.0181 -0.018097,-0.0181 -0.034305,-0.0383 -0.05429,-0.0543 -0.010533,-0.008 -0.026655,-0.009 -0.036193,-0.0181 -0.00853,-0.009 0.00539,-0.0254 0,-0.0362 -0.010859,-0.0217 -0.043432,-0.0326 -0.05429,-0.0543 -0.0027,-0.005 0.00427,-0.0138 0,-0.0181 -0.00427,-0.004 -0.013832,0.004 -0.018097,0 -0.00427,-0.004 0.00427,-0.0138 0,-0.0181 -0.00427,-0.004 -0.013832,0.004 -0.018097,0 -0.00427,-0.004 0.00427,-0.0138 0,-0.0181 -0.02413,-0.0241 -0.018098,0.0302 -0.018098,-0.0181"
       id="path10330"
       inkscape:connector-curvature="0" />
    <path
       style="fill:none;fill-opacity:1;stroke:#1a1a1a;stroke-width:0.13229166;stroke-miterlimit:4;stroke-dasharray:none"
       d="m 6.369962,292.78347 c 0.042443,0 -0.00853,-0.004 0.036193,0.0181 0.0054,0.003 0.013828,-0.004 0.018098,0 0.00954,0.009 0.00856,0.0262 0.018097,0.0362 0.00427,0.004 0.013827,-0.004 0.018097,0 0.00954,0.01 0.00856,0.0262 0.018098,0.0362 0.00426,0.004 0.012707,-0.003 0.018097,0 0.00647,0.003 0.067366,0.0644 0.072386,0.0724 0.00748,0.0112 0.010618,0.025 0.018098,0.0362 0.00473,0.007 0.014277,0.0101 0.018097,0.0181 0.0027,0.005 -0.00427,0.0141 0,0.0181 0.00853,0.009 0.031293,-0.011 0.036193,0 0.047315,0.10645 0.08445,0.21715 0.1266751,0.32573 -0.049759,-0.079 0.1102668,-0.0412 0.1266759,-0.0905 0.00382,-0.0114 -0.00669,-0.0262 0,-0.0362 0.00748,-0.0112 0.02497,-0.0106 0.036193,-0.0181 0.0071,-0.005 0.010466,-0.0143 0.018097,-0.0181 0.0054,-0.003 0.013831,0.004 0.018096,0 0.00954,-0.01 0.00856,-0.0266 0.018097,-0.0362 0.00427,-0.004 0.012701,0.003 0.018096,0 0.075313,-0.0376 -0.019346,0.001 0.018097,-0.0362 0.00427,-0.004 0.012701,0.003 0.018097,0 0.00763,-0.004 0.010466,-0.0143 0.018096,-0.0181 0.0054,-0.003 0.012701,0.003 0.018097,0 0.00763,-0.004 0.010466,-0.0143 0.018096,-0.0181 0.048473,-0.0242 -0.01228,0.0242 0.036193,0 0.00763,-0.004 0.010466,-0.0143 0.018097,-0.0181 0.024129,-0.0121 0.018096,0.0181 0.018096,-0.0181"
       id="path10332"
       inkscape:connector-curvature="0" />
    <path
       style="fill:none;fill-opacity:1;stroke:#1a1a1a;stroke-width:0.13229166;stroke-miterlimit:4;stroke-dasharray:none"
       d="m 5.6642047,293.12735 c -0.00603,-0.0241 -0.00257,-0.053 -0.018097,-0.0724 -0.011917,-0.0149 -0.039635,-0.006 -0.05429,-0.0181 -0.02317,-0.0193 -0.032962,-0.0511 -0.054289,-0.0724 -0.00427,-0.004 -0.013832,0.004 -0.018097,0 -0.074543,-0.0745 0.048024,0.0118 -0.05429,-0.0905 -0.00954,-0.01 -0.026655,-0.009 -0.036193,-0.0181 -0.00954,-0.01 -0.00856,-0.0267 -0.018098,-0.0362 -0.00426,-0.004 -0.013078,0.003 -0.018097,0 -0.014195,-0.009 -0.021997,-0.0267 -0.036193,-0.0362 -0.00502,-0.003 -0.013832,0.004 -0.018097,0 -0.00427,-0.004 0.0027,-0.0127 0,-0.0181 -0.011181,-0.0224 -0.01747,-0.0181 -0.036193,-0.0181"
       id="path10334"
       inkscape:connector-curvature="0" />
    <path
       style="fill:none;fill-opacity:1;stroke:#1a1a1a;stroke-width:0.13229166;stroke-miterlimit:4;stroke-dasharray:none"
       d="m 5.6642047,293.12735 c -0.033102,-0.10005 -0.036193,-0.15207 -0.036193,-0.23526 0,-0.0121 -0.00382,-0.0247 0,-0.0362 0.00427,-0.0128 0.012065,-0.0241 0.018097,-0.0362 0.00603,-0.0121 0.010615,-0.025 0.018097,-0.0362 0.00473,-0.007 0.015399,-0.01 0.018098,-0.0181 0.00382,-0.0114 -0.00669,-0.0261 0,-0.0362 0.00748,-0.0112 0.026655,-0.009 0.036193,-0.0181 1.72e-5,-1e-5 -2.73e-5,-0.0542 0,-0.0543 0.0027,-0.008 0.014282,-0.0105 0.018098,-0.0181 0.00539,-0.0108 -0.00853,-0.0277 0,-0.0362 0.00954,-0.01 0.026655,-0.009 0.036193,-0.0181 0.00427,-0.004 -0.0027,-0.0127 0,-0.0181 0.00382,-0.008 0.014282,-0.0105 0.018098,-0.0181 0.00539,-0.0108 -0.00853,-0.0277 0,-0.0362 0.00427,-0.004 0.013832,0.004 0.018097,0 0.00427,-0.004 -0.0027,-0.0127 0,-0.0181 0.00382,-0.008 0.014282,-0.0105 0.018098,-0.0181 0.012065,-0.0241 -0.018098,-0.0181 0.018097,-0.0181"
       id="path10336"
       inkscape:connector-curvature="0" />
    <path
       style="fill:none;fill-opacity:1;stroke:#1a1a1a;stroke-width:0.13229166;stroke-miterlimit:4;stroke-dasharray:none"
       d="m 4.6508008,292.65684 c 0,-0.10255 0,-0.2051 0,-0.30764 0,-0.0125 0.00275,-0.0669 0,-0.0724 -0.00382,-0.008 -0.012065,-0.0121 -0.018097,-0.0181 0,-0.0121 0.00382,-0.0247 0,-0.0362 -0.0027,-0.008 -0.013364,-0.011 -0.018098,-0.0181 -0.00748,-0.0112 -0.013832,-0.0234 -0.018097,-0.0362 -0.00382,-0.0114 0.00539,-0.0254 0,-0.0362 -0.00382,-0.008 -0.015399,-0.01 -0.018097,-0.0181 -0.00382,-0.0115 0.00382,-0.0248 0,-0.0362 -0.0027,-0.008 -0.014282,-0.0105 -0.018098,-0.0181 -0.00238,-0.005 0,-0.0629 0,-0.0724 0,-0.0121 0.00539,-0.0254 0,-0.0362 -0.02413,-0.0483 -0.018097,0.0543 -0.018097,-0.0181 0,-0.007 7.408e-4,-0.0717 0,-0.0724 -0.00427,-0.004 -0.012065,0 -0.018098,0"
       id="path10338"
       inkscape:connector-curvature="0" />
    <path
       style="fill:none;fill-opacity:1;stroke:#1a1a1a;stroke-width:0.13229166;stroke-miterlimit:4;stroke-dasharray:none"
       d="m 4.6327038,292.2587 c 0.042225,-0.0181 0.086789,-0.0315 0.1266759,-0.0543 0.00524,-0.003 -0.0027,-0.0127 0,-0.0181 0.019539,-0.0391 0.016655,0.003 0.036193,-0.0362 0.00539,-0.0108 -0.00853,-0.0277 0,-0.0362 0.00427,-0.004 0.0127,0.003 0.018098,0 0.00763,-0.004 0.010467,-0.0143 0.018097,-0.0181 0.00539,-0.003 0.013832,0.004 0.018097,0 0.00954,-0.01 0.00856,-0.0267 0.018098,-0.0362 0.00427,-0.004 0.013832,0.004 0.018097,0 0.00954,-0.01 0.00856,-0.0267 0.018098,-0.0362 0.00426,-0.004 0.01383,0.004 0.018097,0 0.00427,-0.004 -0.00427,-0.0138 0,-0.0181 0.00954,-0.01 0.024969,-0.0106 0.036193,-0.0181 0.0071,-0.005 0.010999,-0.0134 0.018097,-0.0181 0.011224,-0.007 0.026655,-0.009 0.036193,-0.0181 0.00427,-0.004 -0.00427,-0.0138 0,-0.0181 0.00427,-0.004 0.01383,0.004 0.018097,0 0.00427,-0.004 -0.00427,-0.0138 0,-0.0181 0.00427,-0.004 0.013832,0.004 0.018097,0 0.00427,-0.004 0,-0.0121 0,-0.0181 0.00603,0 0.01383,0.004 0.018098,0 0.00427,-0.004 -0.00427,-0.0138 0,-0.0181 0.00427,-0.004 0.01383,0.004 0.018097,0 0.00427,-0.004 -0.00603,-0.0181 0,-0.0181 0.00603,0 0,0.0121 0,0.0181"
       id="path10340"
       inkscape:connector-curvature="0" />
    <path
       style="fill:none;fill-opacity:1;stroke:#1a1a1a;stroke-width:0.13229166;stroke-miterlimit:4;stroke-dasharray:none"
       d="m 2.6601856,293.03686 c 0,-0.21112 0,-0.42225 0,-0.63337 0,-0.0422 0,-0.0845 0,-0.12668 0,-0.008 0.00275,-0.0488 0,-0.0543 -0.00382,-0.008 -0.012065,-0.0121 -0.018096,-0.0181"
       id="path10348"
       inkscape:connector-curvature="0" />
    <path
       style="fill:none;fill-opacity:1;stroke:#1a1a1a;stroke-width:0.13229166;stroke-miterlimit:4;stroke-dasharray:none"
       d="m 2.6420896,292.20441 c -0.024129,0.0784 -0.04083,0.15953 -0.072386,0.23527 -0.00328,0.008 -0.010466,-0.0143 -0.018096,-0.0181 -0.0054,-0.003 -0.013831,0.004 -0.018096,0 -0.00427,-0.004 0.0027,-0.0127 0,-0.0181 -0.013858,-0.0277 -0.032248,-0.0142 -0.054289,-0.0362 -0.00427,-0.004 0.0027,-0.0127 0,-0.0181 -0.037657,-0.0753 0.00125,0.0193 -0.036193,-0.0181 -0.00954,-0.01 -0.00856,-0.0267 -0.018096,-0.0362 -0.00954,-0.01 -0.023397,-0.0138 -0.036193,-0.0181 -0.00572,-0.002 -0.013831,0.004 -0.018096,0 -0.00954,-0.01 -0.010614,-0.025 -0.018096,-0.0362 -0.00473,-0.007 -0.012064,-0.0121 -0.018096,-0.0181 -0.00603,-0.006 -0.010466,-0.0143 -0.018097,-0.0181 -0.0054,-0.003 -0.012701,0.003 -0.018096,0 -0.075313,-0.0377 0.019346,10e-4 -0.018096,-0.0362 -0.00954,-0.01 -0.026655,-0.009 -0.036193,-0.0181 -0.00427,-0.004 0.00427,-0.0138 0,-0.0181 -0.00427,-0.004 -0.013831,0.004 -0.018096,0 -0.00427,-0.004 0.00427,-0.0138 0,-0.0181 -0.00427,-0.004 -0.012701,0.003 -0.018096,0 -0.00763,-0.004 -0.012065,-0.0121 -0.018096,-0.0181"
       id="path10350"
       inkscape:connector-curvature="0" />
    <path
       style="fill:none;fill-opacity:1;stroke:#1a1a1a;stroke-width:0.13229166;stroke-miterlimit:4;stroke-dasharray:none"
       d="m 2.6420896,292.20441 c 0.018096,0.0483 0.021295,0.10519 0.054289,0.14479 0.010922,0.0131 0.021564,-0.0274 0.036193,-0.0362 0.016357,-0.01 0.040801,-0.005 0.05429,-0.0181 0.019076,-0.0191 0.022315,-0.0493 0.036193,-0.0724 0.020788,-0.0346 0.021294,-0.003 0.05429,-0.0362 0.00427,-0.004 -0.0019,-0.0124 0,-0.0181 0.00441,-0.0132 0.01963,-0.046 0.036193,-0.0543 0.00539,-0.003 0.01383,0.004 0.018098,0 0.00954,-0.01 0.00856,-0.0267 0.018097,-0.0362 0.00954,-0.01 0.028711,-0.007 0.036193,-0.0181 0.00669,-0.01 -0.00669,-0.0262 0,-0.0362 0.00748,-0.0112 0.024969,-0.0106 0.036193,-0.0181 0.0071,-0.005 0.010999,-0.0134 0.018098,-0.0181 0.011224,-0.007 0.024971,-0.0106 0.036193,-0.0181 0.015616,-0.0104 0.040155,-0.0401 0.05429,-0.0543 0.00603,-0.006 0.012065,-0.0121 0.018098,-0.0181 0.00603,-0.006 0.014282,-0.0105 0.018098,-0.0181 0.0027,-0.005 -0.00427,-0.0138 0,-0.0181 0.00853,-0.009 0.027662,0.009 0.036193,0 0.00427,-0.004 -0.00426,-0.0138 0,-0.0181 0.024127,-0.0241 0.018098,0.0302 0.018098,-0.0181"
       id="path10352"
       inkscape:connector-curvature="0" />
    <path
       style="fill:none;fill-opacity:1;stroke:#1a1a1a;stroke-width:0.13229166;stroke-miterlimit:4;stroke-dasharray:none"
       d="m 1.5562991,292.96448 c 0,-0.24732 0,-0.49464 0,-0.74196"
       id="path10354"
       inkscape:connector-curvature="0" />
    <path
       style="fill:none;fill-opacity:1;stroke:#1a1a1a;stroke-width:0.13229166;stroke-miterlimit:4;stroke-dasharray:none"
       d="m 1.5562991,292.96448 c -0.042225,-0.13874 -0.08445,-0.27748 -0.1266755,-0.41622 0,-0.006 0.0027,-0.0127 0,-0.0181 -0.017166,-0.0343 -0.041294,-0.005 -0.072386,-0.0362 -0.00954,-0.01 -0.00856,-0.0267 -0.018096,-0.0362 -0.037442,-0.0374 0.00146,0.0572 -0.036193,-0.0181 -0.0054,-0.0108 0.0054,-0.0254 0,-0.0362 -0.037657,-0.0753 0.00125,0.0193 -0.036193,-0.0181 -0.00427,-0.004 0.0027,-0.0127 0,-0.0181 -0.037657,-0.0753 0.00125,0.0193 -0.036193,-0.0181 -0.00427,-0.004 0.00427,-0.0138 0,-0.0181 -0.00427,-0.004 -0.012701,0.003 -0.018096,0 -0.00763,-0.004 -0.012065,-0.0121 -0.018096,-0.0181"
       id="path10356"
       inkscape:connector-curvature="0" />
    <path
       style="fill:none;fill-opacity:1;stroke:#1a1a1a;stroke-width:0.13229166;stroke-miterlimit:4;stroke-dasharray:none"
       d="m 1.5562991,292.96448 c 0.030161,-0.0664 0.060322,-0.13271 0.090483,-0.19906 0,-0.006 -0.00427,-0.0138 0,-0.0181 0.00954,-0.01 0.026655,-0.009 0.036193,-0.0181 0.00427,-0.004 -0.00191,-0.0124 0,-0.0181 0.00427,-0.0128 0.010614,-0.025 0.018096,-0.0362 0.00473,-0.007 0.012064,-0.0121 0.018096,-0.0181 0.00603,-0.0121 0.010614,-0.025 0.018096,-0.0362 0.00473,-0.007 0.014281,-0.0105 0.018096,-0.0181 0.0027,-0.005 -0.0027,-0.0127 0,-0.0181 0.00382,-0.008 0.012064,-0.0121 0.018096,-0.0181 0.00603,-0.006 0.010466,-0.0143 0.018096,-0.0181 0.0054,-0.003 0.013831,0.004 0.018096,0 0.00427,-0.004 -0.00427,-0.0138 0,-0.0181 0.00427,-0.004 0.013831,0.004 0.018096,0 0.00427,-0.004 -0.00427,-0.0138 0,-0.0181 0.00427,-0.004 0.013831,0.004 0.018096,0 0.024129,-0.0241 -0.030161,-0.0181 0.018096,-0.0181"
       id="path10358"
       inkscape:connector-curvature="0" />
  </g>
</svg>
