<?xml version="1.0" encoding="UTF-8" standalone="no"?>
<!-- Created with Inkscape (http://www.inkscape.org/) -->

<svg
   xmlns:dc="http://purl.org/dc/elements/1.1/"
   xmlns:cc="http://creativecommons.org/ns#"
   xmlns:rdf="http://www.w3.org/1999/02/22-rdf-syntax-ns#"
   xmlns:svg="http://www.w3.org/2000/svg"
   xmlns="http://www.w3.org/2000/svg"
   xmlns:sodipodi="http://sodipodi.sourceforge.net/DTD/sodipodi-0.dtd"
   xmlns:inkscape="http://www.inkscape.org/namespaces/inkscape"
   width="32"
   height="32"
   viewBox="0 0 8.4666667 8.4666667"
   version="1.1"
   id="svg8"
   inkscape:export-filename="C:\Unity\Gods Fate\Assets\Graphics\Ground\Sand.png"
   inkscape:export-xdpi="96"
   inkscape:export-ydpi="96"
   inkscape:version="0.92.1 r15371"
   sodipodi:docname="Sand.svg">
  <defs
     id="defs2" />
  <sodipodi:namedview
     id="base"
     pagecolor="#ffffff"
     bordercolor="#666666"
     borderopacity="1.0"
     inkscape:pageopacity="0.0"
     inkscape:pageshadow="2"
     inkscape:zoom="14.62069"
     inkscape:cx="12.283019"
     inkscape:cy="14.549528"
     inkscape:document-units="px"
     inkscape:current-layer="layer1"
     showgrid="false"
     units="px"
     inkscape:window-width="1920"
     inkscape:window-height="1017"
     inkscape:window-x="-8"
     inkscape:window-y="-8"
     inkscape:window-maximized="1" />
  <metadata
     id="metadata5">
    <rdf:RDF>
      <cc:Work
         rdf:about="">
        <dc:format>image/svg+xml</dc:format>
        <dc:type
           rdf:resource="http://purl.org/dc/dcmitype/StillImage" />
        <dc:title />
      </cc:Work>
    </rdf:RDF>
  </metadata>
  <g
     inkscape:label="Calque 1"
     inkscape:groupmode="layer"
     id="layer1"
     transform="translate(0,-288.53333)">
    <path
       style="fill:none;fill-opacity:1;stroke:#1a1a1a;stroke-width:0.13229166;stroke-miterlimit:4;stroke-dasharray:none"
       d="m 0.50670203,296.43901 c 0.0241287,0 0.0482573,0 0.072386,0"
       id="path11054"
       inkscape:connector-curvature="0" />
    <path
       style="fill:none;fill-opacity:1;stroke:#1a1a1a;stroke-width:0.13229166;stroke-miterlimit:4;stroke-dasharray:none"
       d="m 1.0857901,296.42091 c 0.024129,0 0.048257,0 0.072386,0"
       id="path11054-2"
       inkscape:connector-curvature="0" />
    <path
       style="fill:none;fill-opacity:1;stroke:#1a1a1a;stroke-width:0.13229166;stroke-miterlimit:4;stroke-dasharray:none"
       d="m 1.5020096,296.4752 c 0.024129,0 0.048257,0 0.072386,0"
       id="path11054-8"
       inkscape:connector-curvature="0" />
    <path
       style="fill:none;fill-opacity:1;stroke:#1a1a1a;stroke-width:0.13229166;stroke-miterlimit:4;stroke-dasharray:none"
       d="m 1.8639396,296.4752 c 0.024129,0 0.048257,0 0.072386,0"
       id="path11054-3"
       inkscape:connector-curvature="0" />
    <path
       style="fill:none;fill-opacity:1;stroke:#1a1a1a;stroke-width:0.13229166;stroke-miterlimit:4;stroke-dasharray:none"
       d="m 2.2077732,296.4571 c 0.024129,0 0.048257,0 0.072386,0"
       id="path11054-34"
       inkscape:connector-curvature="0" />
    <path
       style="fill:none;fill-opacity:1;stroke:#1a1a1a;stroke-width:0.13229166;stroke-miterlimit:4;stroke-dasharray:none"
       d="m 2.8230542,296.33043 c 0.024129,0 0.048257,0 0.072386,0"
       id="path11054-27"
       inkscape:connector-curvature="0" />
    <path
       style="fill:none;fill-opacity:1;stroke:#1a1a1a;stroke-width:0.13229166;stroke-miterlimit:4;stroke-dasharray:none"
       d="m 3.1487912,296.58378 c 0.024129,0 0.048257,0 0.072386,0"
       id="path11054-7"
       inkscape:connector-curvature="0" />
    <path
       style="fill:none;fill-opacity:1;stroke:#1a1a1a;stroke-width:0.13229166;stroke-miterlimit:4;stroke-dasharray:none"
       d="m 3.5469142,296.38472 c 0.024129,0 0.048257,0 0.072386,0"
       id="path11054-1"
       inkscape:connector-curvature="0" />
    <path
       style="fill:none;fill-opacity:1;stroke:#1a1a1a;stroke-width:0.13229166;stroke-miterlimit:4;stroke-dasharray:none"
       d="m 4.1079058,296.56568 c 0.024129,0 0.048257,0 0.072386,0"
       id="path11054-6"
       inkscape:connector-curvature="0" />
    <path
       style="fill:none;fill-opacity:1;stroke:#1a1a1a;stroke-width:0.13229166;stroke-miterlimit:4;stroke-dasharray:none"
       d="m 4.3974498,296.33043 c 0.024129,0 0.048257,0 0.072386,0"
       id="path11054-5"
       inkscape:connector-curvature="0" />
    <path
       style="fill:none;fill-opacity:1;stroke:#1a1a1a;stroke-width:0.13229166;stroke-miterlimit:4;stroke-dasharray:none"
       d="m 4.8136693,296.52949 c 0.024129,0 0.048257,0 0.072386,0"
       id="path11054-72"
       inkscape:connector-curvature="0" />
    <path
       style="fill:none;fill-opacity:1;stroke:#1a1a1a;stroke-width:0.13229166;stroke-miterlimit:4;stroke-dasharray:none"
       d="m 5.4108539,296.38472 c 0.024129,0 0.048257,0 0.072386,0"
       id="path11054-0"
       inkscape:connector-curvature="0" />
    <path
       style="fill:none;fill-opacity:1;stroke:#1a1a1a;stroke-width:0.13229166;stroke-miterlimit:4;stroke-dasharray:none"
       d="m 5.5194329,296.51139 c 0.024129,0 0.048257,0 0.072386,0"
       id="path11054-9"
       inkscape:connector-curvature="0" />
    <path
       style="fill:none;fill-opacity:1;stroke:#1a1a1a;stroke-width:0.13229166;stroke-miterlimit:4;stroke-dasharray:none"
       d="m 6.0442314,296.34852 c 0.024129,0 0.048257,0 0.072386,0"
       id="path11054-62"
       inkscape:connector-curvature="0" />
    <path
       style="fill:none;fill-opacity:1;stroke:#1a1a1a;stroke-width:0.13229166;stroke-miterlimit:4;stroke-dasharray:none"
       d="m 6.2613894,296.52949 c 0.024129,0 0.048257,0 0.072386,0"
       id="path11054-58"
       inkscape:connector-curvature="0" />
    <path
       style="fill:none;fill-opacity:1;stroke:#1a1a1a;stroke-width:0.13229166;stroke-miterlimit:4;stroke-dasharray:none"
       d="m 6.713802,296.29423 c 0.024129,0 0.048257,0 0.072386,0"
       id="path11054-52"
       inkscape:connector-curvature="0" />
    <path
       style="fill:none;fill-opacity:1;stroke:#1a1a1a;stroke-width:0.13229166;stroke-miterlimit:4;stroke-dasharray:none"
       d="m 6.8766705,296.51139 c 0.024129,0 0.048257,0 0.072386,0"
       id="path11054-86"
       inkscape:connector-curvature="0" />
    <path
       style="fill:none;fill-opacity:1;stroke:#1a1a1a;stroke-width:0.13229166;stroke-miterlimit:4;stroke-dasharray:none"
       d="m 7.184311,296.05898 c 0.024129,0 0.048257,0 0.072386,0"
       id="path11054-01"
       inkscape:connector-curvature="0" />
    <path
       style="fill:none;fill-opacity:1;stroke:#1a1a1a;stroke-width:0.13229166;stroke-miterlimit:4;stroke-dasharray:none"
       d="m 6.6957055,295.98659 c 0.024129,0 0.048257,0 0.072386,0"
       id="path11054-84"
       inkscape:connector-curvature="0" />
    <path
       style="fill:none;fill-opacity:1;stroke:#1a1a1a;stroke-width:0.13229166;stroke-miterlimit:4;stroke-dasharray:none"
       d="m 5.8270734,295.85992 c 0.024129,0 0.048257,0 0.072386,0"
       id="path11054-522"
       inkscape:connector-curvature="0" />
    <path
       style="fill:none;fill-opacity:1;stroke:#1a1a1a;stroke-width:0.13229166;stroke-miterlimit:4;stroke-dasharray:none"
       d="m 5.3746609,296.11327 c 0.024129,0 0.048257,0 0.072386,0"
       id="path11054-38"
       inkscape:connector-curvature="0" />
    <path
       style="fill:none;fill-opacity:1;stroke:#1a1a1a;stroke-width:0.13229166;stroke-miterlimit:4;stroke-dasharray:none"
       d="m 4.5603183,295.9685 c 0.024129,0 0.048257,0 0.072386,0"
       id="path11054-4"
       inkscape:connector-curvature="0" />
    <path
       style="fill:none;fill-opacity:1;stroke:#1a1a1a;stroke-width:0.13229166;stroke-miterlimit:4;stroke-dasharray:none"
       d="m 3.8002653,295.89611 c 0.024129,0 0.048257,0 0.072386,0"
       id="path11054-40"
       inkscape:connector-curvature="0" />
    <path
       style="fill:none;fill-opacity:1;stroke:#1a1a1a;stroke-width:0.13229166;stroke-miterlimit:4;stroke-dasharray:none"
       d="m 3.2030807,295.89611 c 0.024129,0 0.048257,0 0.072386,0"
       id="path11054-23"
       inkscape:connector-curvature="0" />
    <path
       style="fill:none;fill-opacity:1;stroke:#1a1a1a;stroke-width:0.13229166;stroke-miterlimit:4;stroke-dasharray:none"
       d="m 2.9135367,296.11327 c 0.024129,0 0.048257,0 0.072386,0"
       id="path11054-21"
       inkscape:connector-curvature="0" />
    <path
       style="fill:none;fill-opacity:1;stroke:#1a1a1a;stroke-width:0.13229166;stroke-miterlimit:4;stroke-dasharray:none"
       d="m 2.1715801,295.87801 c 0.024129,0 0.048257,0 0.072386,0"
       id="path11054-35"
       inkscape:connector-curvature="0" />
    <path
       style="fill:none;fill-opacity:1;stroke:#1a1a1a;stroke-width:0.13229166;stroke-miterlimit:4;stroke-dasharray:none"
       d="m 1.5924921,296.04088 c 0.024129,0 0.048257,0 0.072386,0"
       id="path11054-02"
       inkscape:connector-curvature="0" />
    <path
       style="fill:none;fill-opacity:1;stroke:#1a1a1a;stroke-width:0.13229166;stroke-miterlimit:4;stroke-dasharray:none"
       d="m 0.94101807,295.9504 c 0.0241287,0 0.0482573,0 0.072386,0"
       id="path11054-56"
       inkscape:connector-curvature="0" />
    <path
       style="fill:none;fill-opacity:1;stroke:#1a1a1a;stroke-width:0.13229166;stroke-miterlimit:4;stroke-dasharray:none"
       d="m 0.81434256,296.02279 c 0.0241287,0 0.0482573,0 0.072386,0"
       id="path11054-94"
       inkscape:connector-curvature="0" />
    <path
       style="fill:none;fill-opacity:1;stroke:#1a1a1a;stroke-width:0.13229166;stroke-miterlimit:4;stroke-dasharray:none"
       d="m 0.81434256,295.64276 c 0.0241287,0 0.0482573,0 0.072386,0"
       id="path11054-77"
       inkscape:connector-curvature="0" />
    <path
       style="fill:none;fill-opacity:1;stroke:#1a1a1a;stroke-width:0.13229166;stroke-miterlimit:4;stroke-dasharray:none"
       d="m 1.6105886,295.66086 c 0.024129,0 0.048257,0 0.072386,0"
       id="path11054-51"
       inkscape:connector-curvature="0" />
    <path
       style="fill:none;fill-opacity:1;stroke:#1a1a1a;stroke-width:0.13229166;stroke-miterlimit:4;stroke-dasharray:none"
       d="m 2.2258697,295.55228 c 0.024129,0 0.048257,0 0.072386,0"
       id="path11054-30"
       inkscape:connector-curvature="0" />
    <path
       style="fill:none;fill-opacity:1;stroke:#1a1a1a;stroke-width:0.13229166;stroke-miterlimit:4;stroke-dasharray:none"
       d="m 2.6782822,295.53418 c 0.024129,0 0.048257,0 0.072386,0"
       id="path11054-349"
       inkscape:connector-curvature="0" />
    <path
       style="fill:none;fill-opacity:1;stroke:#1a1a1a;stroke-width:0.13229166;stroke-miterlimit:4;stroke-dasharray:none"
       d="m 3.4926247,295.60657 c 0.024129,0 0.048257,0 0.072386,0"
       id="path11054-09"
       inkscape:connector-curvature="0" />
    <path
       style="fill:none;fill-opacity:1;stroke:#1a1a1a;stroke-width:0.13229166;stroke-miterlimit:4;stroke-dasharray:none"
       d="m 4.0355198,295.53418 c 0.024129,0 0.048257,0 0.072386,0"
       id="path11054-88"
       inkscape:connector-curvature="0" />
    <path
       style="fill:none;fill-opacity:1;stroke:#1a1a1a;stroke-width:0.13229166;stroke-miterlimit:4;stroke-dasharray:none"
       d="m 5.1394063,295.73324 c 0.024129,0 0.048257,0 0.072386,0"
       id="path11054-32"
       inkscape:connector-curvature="0" />
    <path
       style="fill:none;fill-opacity:1;stroke:#1a1a1a;stroke-width:0.13229166;stroke-miterlimit:4;stroke-dasharray:none"
       d="m 5.7003979,295.49799 c 0.024129,0 0.048257,0 0.072386,0"
       id="path11054-323"
       inkscape:connector-curvature="0" />
    <path
       style="fill:none;fill-opacity:1;stroke:#1a1a1a;stroke-width:0.13229166;stroke-miterlimit:4;stroke-dasharray:none"
       d="m 6.1890034,295.58847 c 0.024129,0 0.048257,0 0.072386,0"
       id="path11054-17"
       inkscape:connector-curvature="0" />
    <path
       style="fill:none;fill-opacity:1;stroke:#1a1a1a;stroke-width:0.13229166;stroke-miterlimit:4;stroke-dasharray:none"
       d="m 6.8404775,295.53418 c 0.024129,0 0.048257,0 0.072386,0"
       id="path11054-98"
       inkscape:connector-curvature="0" />
    <path
       style="fill:none;fill-opacity:1;stroke:#1a1a1a;stroke-width:0.13229166;stroke-miterlimit:4;stroke-dasharray:none"
       d="m 7.2747935,295.78753 c 0.024129,0 0.048257,0 0.072386,0"
       id="path11054-24"
       inkscape:connector-curvature="0" />
    <path
       style="fill:none;fill-opacity:1;stroke:#1a1a1a;stroke-width:0.13229166;stroke-miterlimit:4;stroke-dasharray:none"
       d="m 7.546241,295.53418 c 0.024129,0 0.048257,0 0.072386,0"
       id="path11054-515"
       inkscape:connector-curvature="0" />
    <path
       style="fill:none;fill-opacity:1;stroke:#1a1a1a;stroke-width:0.13229166;stroke-miterlimit:4;stroke-dasharray:none"
       d="m 7.6729165,296.23994 c 0.024129,0 0.048257,0 0.072386,0"
       id="path11054-79"
       inkscape:connector-curvature="0" />
    <path
       style="fill:none;fill-opacity:1;stroke:#1a1a1a;stroke-width:0.13229166;stroke-miterlimit:4;stroke-dasharray:none"
       d="m 6.8404775,295.13606 c 0.024129,0 0.048257,0 0.072386,0"
       id="path11054-408"
       inkscape:connector-curvature="0" />
    <path
       style="fill:none;fill-opacity:1;stroke:#1a1a1a;stroke-width:0.13229166;stroke-miterlimit:4;stroke-dasharray:none"
       d="m 6.2251964,295.08177 c 0.024129,0 0.048257,0 0.072386,0"
       id="path11054-389"
       inkscape:connector-curvature="0" />
    <path
       style="fill:none;fill-opacity:1;stroke:#1a1a1a;stroke-width:0.13229166;stroke-miterlimit:4;stroke-dasharray:none"
       d="m 5.3927574,295.00938 c 0.024129,0 0.048257,0 0.072386,0"
       id="path11054-235"
       inkscape:connector-curvature="0" />
    <path
       style="fill:none;fill-opacity:1;stroke:#1a1a1a;stroke-width:0.13229166;stroke-miterlimit:4;stroke-dasharray:none"
       d="m 4.8860553,295.17225 c 0.024129,0 0.048257,0 0.072386,0"
       id="path11054-76"
       inkscape:connector-curvature="0" />
    <path
       style="fill:none;fill-opacity:1;stroke:#1a1a1a;stroke-width:0.13229166;stroke-miterlimit:4;stroke-dasharray:none"
       d="m 4.0898093,294.99129 c 0.024129,0 0.048257,0 0.072386,0"
       id="path11054-65"
       inkscape:connector-curvature="0" />
    <path
       style="fill:none;fill-opacity:1;stroke:#1a1a1a;stroke-width:0.13229166;stroke-miterlimit:4;stroke-dasharray:none"
       d="m 3.8364583,294.97319 c 0.024129,0 0.048257,0 0.072386,0"
       id="path11054-80"
       inkscape:connector-curvature="0" />
    <path
       style="fill:none;fill-opacity:1;stroke:#1a1a1a;stroke-width:0.13229166;stroke-miterlimit:4;stroke-dasharray:none"
       d="m 3.1849842,295.26273 c 0.024129,0 0.048257,0 0.072386,0"
       id="path11054-57"
       inkscape:connector-curvature="0" />
    <path
       style="fill:none;fill-opacity:1;stroke:#1a1a1a;stroke-width:0.13229166;stroke-miterlimit:4;stroke-dasharray:none"
       d="m 2.5697032,294.99129 c 0.024129,0 0.048257,0 0.072386,0"
       id="path11054-87"
       inkscape:connector-curvature="0" />
    <path
       style="fill:none;fill-opacity:1;stroke:#1a1a1a;stroke-width:0.13229166;stroke-miterlimit:4;stroke-dasharray:none"
       d="m 2.1896766,295.04557 c 0.024129,0 0.048257,0 0.072386,0"
       id="path11054-66"
       inkscape:connector-curvature="0" />
    <path
       style="fill:none;fill-opacity:1;stroke:#1a1a1a;stroke-width:0.13229166;stroke-miterlimit:4;stroke-dasharray:none"
       d="m 1.7010711,294.97319 c 0.024129,0 0.048257,0 0.072386,0"
       id="path11054-85"
       inkscape:connector-curvature="0" />
    <path
       style="fill:none;fill-opacity:1;stroke:#1a1a1a;stroke-width:0.13229166;stroke-miterlimit:4;stroke-dasharray:none"
       d="m 1.5020096,295.06367 c 0.024129,0 0.048257,0 0.072386,0"
       id="path11054-46"
       inkscape:connector-curvature="0" />
    <path
       style="fill:none;fill-opacity:1;stroke:#1a1a1a;stroke-width:0.13229166;stroke-miterlimit:4;stroke-dasharray:none"
       d="m 0.99530757,294.99129 c 0.0241287,0 0.0482573,0 0.072386,0"
       id="path11054-95"
       inkscape:connector-curvature="0" />
    <path
       style="fill:none;fill-opacity:1;stroke:#1a1a1a;stroke-width:0.13229166;stroke-miterlimit:4;stroke-dasharray:none"
       d="m 0.68766705,295.13606 c 0.0241287,0 0.0482573,0 0.072386,0"
       id="path11054-10"
       inkscape:connector-curvature="0" />
  </g>
</svg>
