<?xml version="1.0" encoding="UTF-8" standalone="no"?>
<!-- Created with Inkscape (http://www.inkscape.org/) -->

<svg
   xmlns:dc="http://purl.org/dc/elements/1.1/"
   xmlns:cc="http://creativecommons.org/ns#"
   xmlns:rdf="http://www.w3.org/1999/02/22-rdf-syntax-ns#"
   xmlns:svg="http://www.w3.org/2000/svg"
   xmlns="http://www.w3.org/2000/svg"
   xmlns:sodipodi="http://sodipodi.sourceforge.net/DTD/sodipodi-0.dtd"
   xmlns:inkscape="http://www.inkscape.org/namespaces/inkscape"
   width="32"
   height="32"
   viewBox="0 0 8.4666667 8.4666667"
   version="1.1"
   id="svg8"
   inkscape:export-filename="C:\Unity\Gods Fate\Assets\Graphics\Ground\Sand.png"
   inkscape:export-xdpi="96"
   inkscape:export-ydpi="96"
   inkscape:version="0.92.1 r15371"
   sodipodi:docname="Water.svg">
  <defs
     id="defs2" />
  <sodipodi:namedview
     id="base"
     pagecolor="#ffffff"
     bordercolor="#666666"
     borderopacity="1.0"
     inkscape:pageopacity="0.0"
     inkscape:pageshadow="2"
     inkscape:zoom="14.62069"
     inkscape:cx="-1.6698108"
     inkscape:cy="14.549528"
     inkscape:document-units="px"
     inkscape:current-layer="layer1"
     showgrid="false"
     units="px"
     inkscape:window-width="1920"
     inkscape:window-height="1017"
     inkscape:window-x="-8"
     inkscape:window-y="-8"
     inkscape:window-maximized="1" />
  <metadata
     id="metadata5">
    <rdf:RDF>
      <cc:Work
         rdf:about="">
        <dc:format>image/svg+xml</dc:format>
        <dc:type
           rdf:resource="http://purl.org/dc/dcmitype/StillImage" />
        <dc:title></dc:title>
      </cc:Work>
    </rdf:RDF>
  </metadata>
  <g
     inkscape:label="Calque 1"
     inkscape:groupmode="layer"
     id="layer1"
     transform="translate(0,-288.53333)">
    <path
       style="fill:none;stroke:#000000;stroke-width:0.26458332px;stroke-linecap:butt;stroke-linejoin:miter;stroke-opacity:1"
       d="m 0.56099154,295.31702 c 0.006032,-0.0302 0.0120642,-0.0603 0.0180964,-0.0905 0.006032,0 0.0138311,0.004 0.0180964,0 0.008531,-0.009 -0.005395,-0.0254 0,-0.0362 0.0376567,-0.0753 -0.001249,0.0193 0.036193,-0.0181 0.008531,-0.009 -0.005395,-0.0254 0,-0.0362 0.003815,-0.008 0.0120642,-0.0121 0.0180964,-0.0181 0.006032,-0.006 0.0104664,-0.0143 0.0180964,-0.0181 0.005395,-0.003 0.0138311,0.004 0.0180964,0 0.004265,-0.004 0,-0.0121 0,-0.0181 0.006032,-0.006 0.0109985,-0.0134 0.0180964,-0.0181 0.0112228,-0.007 0.02497,-0.0106 0.036193,-0.0181 0.0141959,-0.009 0.0209328,-0.0286 0.036193,-0.0362 0.005395,-0.003 0.0138311,0.004 0.0180965,0 0.004265,-0.004 -0.004265,-0.0138 0,-0.0181 0.004265,-0.004 0.0123738,0.002 0.0180964,0 0.0127963,-0.004 0.0266553,-0.009 0.036193,-0.0181 0.004265,-0.004 -0.005395,-0.0154 0,-0.0181 0.0107908,-0.005 0.0254024,0.005 0.036193,0 0.005395,-0.003 -0.004265,-0.0138 0,-0.0181 0.004265,-0.004 0.0127011,0.003 0.0180964,0 0.0152604,-0.008 0.0209328,-0.0286 0.036193,-0.0362 0.0144772,-0.007 0.0398123,0.007 0.0542895,0 0.00763,-0.004 0.0104663,-0.0143 0.0180964,-0.0181 0.0054,-0.003 0.012701,0.003 0.018096,0 0.00763,-0.004 0.010466,-0.0143 0.018096,-0.0181 0.010791,-0.005 0.025402,0.005 0.036193,0 0.00763,-0.004 0.010466,-0.0143 0.018096,-0.0181 0.014477,-0.007 0.039812,0.007 0.054289,0 0.0054,-0.003 -0.00427,-0.0138 0,-0.0181 0.00427,-0.004 0.012064,0 0.018097,0 0.00603,0 0.012064,0 0.018096,0 0.072386,0 0.144772,0 0.217158,0 0.060322,0 0.1206434,0 0.1809651,0 0.012064,0 0.024129,0 0.036193,0 0.012064,0 0.025402,-0.005 0.036193,0 0.0054,0.003 -0.00427,0.0138 0,0.0181 0.00427,0.004 0.012374,-0.002 0.018096,0 0.012796,0.004 0.023397,0.0138 0.036193,0.0181 0.011445,0.004 0.024748,-0.004 0.036193,0 0.012064,0.006 0.024129,0.0121 0.036193,0.0181 0,0.006 -0.00502,0.0147 0,0.0181 0.015872,0.0106 0.036193,0.0121 0.05429,0.0181 0.018096,0.006 0.036193,0.0121 0.054289,0.0181 0.018096,0.006 0.037228,0.01 0.05429,0.0181 0.00763,0.004 0.010466,0.0143 0.018096,0.0181 0.0054,0.003 0.012701,-0.003 0.018096,0 0.00763,0.004 0.012064,0.0121 0.018097,0.0181 0.00603,0.006 0.014281,0.0105 0.018096,0.0181 0.0027,0.005 -0.0027,0.0127 0,0.0181 0.037657,0.0753 -0.00125,-0.0194 0.036193,0.0181 0.00954,0.01 0.00856,0.0267 0.018096,0.0362 0.00427,0.004 0.012701,-0.003 0.018096,0 0.00346,0.002 0.070654,0.0689 0.072386,0.0724 0.0027,0.005 -0.0027,0.0127 0,0.0181 0.00173,0.003 0.068922,0.0707 0.072386,0.0724 0.0054,0.003 0.013831,-0.004 0.018096,0 0.00954,0.01 0.00856,0.0267 0.018096,0.0362 0.00427,0.004 0.013831,-0.004 0.018096,0 0.037442,0.0374 -0.057217,-0.001 0.018096,0.0362 0.0054,0.003 0.012701,-0.003 0.018097,0 0.00763,0.004 0.010998,0.0134 0.018096,0.0181 0.011223,0.007 0.026655,0.009 0.036193,0.0181 0.00427,0.004 -0.00427,0.0138 0,0.0181 0.00427,0.004 0.012701,-0.003 0.018096,0 0.01604,0.008 0.037816,0.0433 0.05429,0.0543 0.022446,0.015 0.04994,0.0212 0.072386,0.0362 0.0071,0.005 0.010466,0.0143 0.018096,0.0181 0.0054,0.003 0.012701,-0.003 0.018096,0 0.00763,0.004 0.010466,0.0143 0.018096,0.0181 0.010791,0.005 0.025402,-0.005 0.036193,0 0.01526,0.008 0.020933,0.0286 0.036193,0.0362 0.01079,0.005 0.024746,-0.004 0.036193,0 0.012795,0.004 0.024971,0.0106 0.036193,0.0181 0.0071,0.005 0.010004,0.0154 0.018098,0.0181 0.010411,0.003 0.1340459,0 0.1447721,0 0.08238,0 0.00103,-0.009 0.05429,0.0181 0.00539,0.003 0.012065,0 0.018098,0 0.030161,0 0.060321,0 0.090482,0 0.012065,0 0.024749,-0.004 0.036193,0 0.012795,0.004 0.023397,0.0138 0.036193,0.0181 0.011446,0.004 0.02413,0 0.036193,0 0.02413,0 0.048257,0 0.072386,0 0.042225,0 0.08445,0 0.1266756,0 0.01189,0 0.044079,0.003 0.054289,0 0.012795,-0.004 0.023397,-0.0138 0.036193,-0.0181 0.00572,-0.002 0.012065,0 0.018098,0 0.012065,0 0.024127,0 0.036193,0 0.030161,0 0.060322,0 0.090483,0 0.00603,0 0.012065,0 0.018098,0 0.00603,0 0.01383,0.004 0.018097,0 0.00427,-0.004 -0.00427,-0.0138 0,-0.0181 0.00427,-0.004 0.0127,0.003 0.018098,0 0.00763,-0.004 0.010467,-0.0143 0.018098,-0.0181 0.00539,-0.003 0.01383,0.004 0.018098,0 0.00427,-0.004 -0.0027,-0.0127 0,-0.0181 0.00382,-0.008 0.012065,-0.0121 0.018098,-0.0181 0.00603,-0.006 0.010004,-0.0154 0.018097,-0.0181 0.011446,-0.004 0.02449,0.003 0.036193,0 0.013086,-0.003 0.02367,-0.0131 0.036193,-0.0181 0.017711,-0.007 0.036578,-0.011 0.05429,-0.0181 0.012523,-0.005 0.02413,-0.0121 0.036193,-0.0181 0.012065,-0.006 0.024969,-0.0106 0.036193,-0.0181 0.0071,-0.005 0.010004,-0.0154 0.018097,-0.0181 0.011446,-0.004 0.025403,0.005 0.036193,0 0.00539,-0.003 -0.00427,-0.0138 0,-0.0181 0.00427,-0.004 0.013832,0.004 0.018098,0 0.00427,-0.004 -0.00427,-0.0138 0,-0.0181 0.00427,-0.004 0.01383,0.004 0.018097,0 0.00427,-0.004 -0.00539,-0.0154 0,-0.0181 0.01079,-0.005 0.025403,0.005 0.036193,0 0.00539,-0.003 -0.00427,-0.0138 0,-0.0181 0.00427,-0.004 0.0127,0.003 0.018097,0 0.015261,-0.008 0.020931,-0.0286 0.036193,-0.0362 0.00539,-0.003 0.0127,0.003 0.018097,0 0.021717,-0.0109 0.032574,-0.0434 0.05429,-0.0543 0.00539,-0.003 0.0127,0.003 0.018098,0 0.04119,-0.0412 -0.00375,-0.005 0.036193,-0.0181 0.1310804,-0.0437 -0.028531,0.005 0.054289,-0.0362 0.00539,-0.003 0.012065,0 0.018097,0 0.012065,-0.006 0.024969,-0.0106 0.036193,-0.0181 0.0071,-0.005 0.010467,-0.0143 0.018097,-0.0181 0.00539,-0.003 0.0127,0.003 0.018097,0 0.015261,-0.008 0.020934,-0.0286 0.036193,-0.0362 0.00718,-0.004 0.05059,0.004 0.054289,0 0.00427,-0.004 -0.00426,-0.0138 0,-0.0181 1.72e-5,-1e-5 0.054207,3e-5 0.054289,0 0.00809,-0.003 0.010467,-0.0143 0.018098,-0.0181 0.01079,-0.005 0.024747,0.004 0.036193,0 0.012795,-0.004 0.023106,-0.0148 0.036193,-0.0181 0.013335,-0.003 0.07988,0.005 0.090483,0 0.00763,-0.004 0.010467,-0.0143 0.018097,-0.0181 0.00539,-0.003 0.0127,0.003 0.018097,0 0.00763,-0.004 0.010467,-0.0143 0.018098,-0.0181 0.01079,-0.005 0.025403,0.005 0.036193,0 0.00763,-0.004 0.010467,-0.0143 0.018097,-0.0181 0.01079,-0.005 0.025403,0.005 0.036193,0 0.00763,-0.004 0.010467,-0.0143 0.018098,-0.0181 0.0096,-0.005 0.078172,0.004 0.090483,0 0.00809,-0.003 0.010467,-0.0143 0.018097,-0.0181 0.00518,-0.003 0.080815,0 0.090483,0 0.048257,0 0.096515,0 0.1447721,0 0.00946,0 0.067628,-0.002 0.072386,0 0.00763,0.004 0.010004,0.0154 0.018098,0.0181 0.01923,0.006 0.053156,-0.006 0.072386,0 0.012795,0.004 0.023397,0.0138 0.036193,0.0181 0.00572,0.002 0.0127,-0.003 0.018098,0 0.00763,0.004 0.010467,0.0143 0.018097,0.0181 0.00539,0.003 0.012375,-0.002 0.018097,0 0.012795,0.004 0.023397,0.0138 0.036193,0.0181 0.00572,0.002 0.0127,-0.003 0.018097,0 0.00763,0.004 0.010467,0.0143 0.018098,0.0181 0.01079,0.005 0.025403,-0.005 0.036193,0 0.00763,0.004 0.010467,0.0143 0.018097,0.0181 0.01079,0.005 0.025403,-0.005 0.036193,0 0.00763,0.004 0.010467,0.0143 0.018097,0.0181 0.00539,0.003 0.0127,-0.003 0.018098,0 0.00763,0.004 0.014282,0.0105 0.018097,0.0181 0.0027,0.005 -0.00539,0.0154 0,0.0181 0.01079,0.005 0.025403,-0.005 0.036193,0 0.00539,0.003 -0.00427,0.0138 0,0.0181 0.00427,0.004 0.0127,-0.003 0.018097,0 0.021717,0.0109 0.032574,0.0434 0.05429,0.0543 0.00539,0.003 0.013832,-0.004 0.018098,0 0.00954,0.01 0.010615,0.025 0.018097,0.0362 0.00473,0.007 0.012065,0.0121 0.018098,0.0181 0.00603,0.006 0.010999,0.0134 0.018097,0.0181 0.011224,0.007 0.026655,0.009 0.036193,0.0181 0.00427,0.004 -0.00427,0.0138 0,0.0181 0.00954,0.01 0.024969,0.0106 0.036193,0.0181 0.015616,0.0104 0.040154,0.0401 0.054289,0.0543 0.00603,0.006 0.013364,0.011 0.018097,0.0181 0.00748,0.0112 0.00856,0.0267 0.018098,0.0362 0.00427,0.004 0.0127,-0.003 0.018097,0 0.00763,0.004 0.010467,0.0143 0.018098,0.0181 0.01079,0.005 0.025403,-0.005 0.036193,0 0.00763,0.004 0.010467,0.0143 0.018098,0.0181 0.00539,0.003 0.013832,-0.004 0.018097,0 0.00427,0.004 0,0.0121 0,0.0181 0.018098,0.006 0.035784,0.0135 0.05429,0.0181 0.014478,0.004 0.043432,-0.007 0.05429,0 0.011224,0.007 0.00856,0.0266 0.018097,0.0362 0.023492,0.0235 0.043716,0.0181 0.072386,0.0181 0.00603,0 0.0127,-0.003 0.018098,0 0.00763,0.004 0.010004,0.0154 0.018097,0.0181 0.011446,0.004 0.025403,-0.005 0.036193,0 0.00539,0.003 -0.00427,0.0138 0,0.0181 0.00853,0.009 0.025403,-0.005 0.036193,0 0.00763,0.004 0.010004,0.0154 0.018098,0.0181 0.011446,0.004 0.024127,0 0.036193,0 0.00603,0 0.0127,-0.003 0.018098,0 0.00763,0.004 0.012065,0.0121 0.018097,0.0181 0.012065,0 0.024747,-0.004 0.036193,0 0.00809,0.003 0.00982,0.016 0.018097,0.0181 0.023408,0.006 0.048257,0 0.072386,0 0.054289,0 0.1085789,0 0.1628685,0 0.066354,0 0.1327076,0 0.1990613,0 0.00439,0 0.053708,5.9e-4 0.05429,0 0.00427,-0.004 -0.00427,-0.0138 0,-0.0181 0.0056,-0.006 0.084879,0.006 0.090483,0 0.00954,-0.01 0.00856,-0.0267 0.018097,-0.0362 0.00427,-0.004 0.0127,0.003 0.018097,0 0.00763,-0.004 0.010467,-0.0143 0.018098,-0.0181 0.00539,-0.003 0.0127,0.003 0.018097,0 0.00763,-0.004 0.012065,-0.0121 0.018098,-0.0181 0.012065,-0.0121 0.021997,-0.0267 0.036193,-0.0362 0.00502,-0.003 0.01383,0.004 0.018097,0 0.00954,-0.01 0.00856,-0.0267 0.018098,-0.0362 0.00427,-0.004 0.0127,0.003 0.018097,0 0.075313,-0.0377 -0.019346,10e-4 0.018098,-0.0362 0.00426,-0.004 0.013832,0.004 0.018097,0 0.00954,-0.01 0.00856,-0.0267 0.018097,-0.0362 0.00427,-0.004 0.01383,0.004 0.018098,0 0.00426,-0.004 -0.0027,-0.0127 0,-0.0181 0.00172,-0.003 0.068922,-0.0707 0.072386,-0.0724 0.00539,-0.003 0.01383,0.004 0.018097,0 0.00427,-0.004 -0.00427,-0.0138 0,-0.0181 0.00427,-0.004 0.012374,0.002 0.018098,0 0.012795,-0.004 0.026655,-0.009 0.036193,-0.0181 0.00427,-0.004 -0.00539,-0.0154 0,-0.0181 0.01079,-0.005 0.025403,0.005 0.036193,0 0.00539,-0.003 -0.00427,-0.0138 0,-0.0181 0.00427,-0.004 0.013832,0.004 0.018097,0 0.00427,-0.004 -0.00427,-0.0138 0,-0.0181 0.00427,-0.004 0.013833,0.004 0.018098,0 0.037442,-0.0374 -0.057217,10e-4 0.018097,-0.0362 0.048257,0 -0.00603,0.006 0.018097,-0.0181 0.00427,-0.004 0.013833,0.004 0.018098,0 0.00427,-0.004 -0.00427,-0.0138 0,-0.0181 0.00853,-0.009 0.027662,0.009 0.036193,0 0.00427,-0.004 -0.00427,-0.0138 0,-0.0181 0.00427,-0.004 0.013832,0.004 0.018097,0 0.00427,-0.004 -0.00427,-0.0138 0,-0.0181 0.00853,-0.009 0.025403,0.005 0.036193,0 0.00763,-0.004 0.010467,-0.0143 0.018097,-0.0181 0.00269,-0.001 0.068412,-0.001 0.072386,0 0.012795,0.004 0.022839,0.0162 0.036193,0.0181 0.029858,0.004 0.060907,-0.006 0.090483,0 0.00592,0.001 -0.0027,0.0127 0,0.0181 0.037657,0.0753 -0.00124,-0.0194 0.036193,0.0181 0.00427,0.004 -0.00427,0.0138 0,0.0181 0.00853,0.009 0.027662,-0.009 0.036193,0 0.00427,0.004 -0.00335,0.0131 0,0.0181 0.00946,0.0142 0.026729,0.022 0.036193,0.0362 0.00335,0.005 -0.00427,0.0138 0,0.0181 0.00427,0.004 0.013833,-0.004 0.018097,0 0.00427,0.004 -0.0027,0.0127 0,0.0181 0.00382,0.008 0.012065,0.0121 0.018098,0.0181 0.00603,0.006 0.010999,0.0134 0.018097,0.0181 0.011224,0.007 0.026656,0.009 0.036193,0.0181 0.00427,0.004 -0.0027,0.0127 0,0.0181 0.010858,0.0217 0.043432,0.0326 0.05429,0.0543 0.0027,0.005 -0.00427,0.0138 0,0.0181 0.00427,0.004 0.01383,-0.004 0.018097,0 0.00427,0.004 -0.00427,0.0138 0,0.0181 0.00427,0.004 0.0127,-0.003 0.018097,0 0.00763,0.004 0.010467,0.0143 0.018097,0.0181 0.00539,0.003 0.01383,-0.004 0.018098,0 0.00427,0.004 -0.0027,0.0127 0,0.0181 0.00382,0.008 0.014282,0.0105 0.018097,0.0181 0.0027,0.005 -0.00427,0.0138 0,0.0181 0.00427,0.004 0.01383,-0.004 0.018097,0 0.00427,0.004 -0.00427,0.0138 0,0.0181 0.00427,0.004 0.0127,-0.003 0.018097,0 0.075313,0.0377 -0.019346,-0.001 0.018097,0.0362 0.00427,0.004 0.01383,-0.004 0.018098,0 0.024127,0.0241 -0.030161,0.0181 0.018097,0.0181"
       id="path5301"
       inkscape:connector-curvature="0" />
    <path
       style="fill:none;stroke:#000000;stroke-width:0.26458332px;stroke-linecap:butt;stroke-linejoin:miter;stroke-opacity:1"
       d="m 0.94101805,294.24933 c 0.0241287,-0.0121 0.0482573,-0.0241 0.072386,-0.0362 0.012064,0 0.024748,0.004 0.036193,0 0.016186,-0.005 0.020007,-0.0308 0.036193,-0.0362 0.011445,-0.004 0.024489,0.003 0.036193,0 0.013086,-0.003 0.023397,-0.0138 0.036193,-0.0181 0.00572,-0.002 0.013078,0.003 0.018096,0 0.1200371,-0.12003 -0.034123,0.0171 0.072386,-0.0362 0.0054,-0.003 -0.0054,-0.0154 0,-0.0181 0.088744,-0.0444 0.00252,0.0259 0.05429,0 0.00763,-0.004 0.010466,-0.0143 0.018096,-0.0181 0.010791,-0.005 0.025402,0.005 0.036193,0 0.00763,-0.004 0.010466,-0.0143 0.018096,-0.0181 0.010791,-0.005 0.025402,0.005 0.036193,0 0.00763,-0.004 0.010466,-0.0143 0.018096,-0.0181 0.00805,-0.004 0.064109,0.003 0.072386,0 0.00809,-0.003 0.010466,-0.0143 0.018096,-0.0181 0.0054,-0.003 0.012064,0 0.018096,0 0.00603,0 0.012065,0 0.018096,0 0.042225,0 0.08445,0 0.1266755,0 0.1146112,0 0.2292223,0 0.3438335,0 0.036193,0 0.072386,0 0.108579,0 0.012064,0 0.024489,-0.003 0.036193,0 0.013085,0.003 0.023397,0.0138 0.036193,0.0181 0.00572,0.002 0.012701,-0.003 0.018096,0 0.01526,0.008 0.020933,0.0286 0.036193,0.0362 0.016186,0.008 0.038104,-0.008 0.054289,0 0.0054,0.003 -0.00427,0.0138 0,0.0181 0.00954,0.01 0.02497,0.0106 0.036193,0.0181 0.0071,0.005 0.010466,0.0143 0.018096,0.0181 0.0054,0.003 0.012701,-0.003 0.018096,0 0.0048,0.002 0.051887,0.0495 0.054289,0.0543 0.0027,0.005 -0.00427,0.0138 0,0.0181 0.00427,0.004 0.012701,-0.003 0.018096,0 0.020746,0.0104 0.025173,0.0378 0.036193,0.0543 0.00603,0.006 0.012064,0.0121 0.018096,0.0181 0.00603,0 0.013831,-0.004 0.018096,0 0.00427,0.004 -0.00427,0.0138 0,0.0181 0.00427,0.004 0.015399,-0.005 0.018096,0 0.0054,0.0108 -0.00382,0.0247 0,0.0362 0.012004,0.036 0.01689,0.008 0.036193,0.0181 0.00967,0.005 0.044762,0.0448 0.05429,0.0543 0.00603,0.006 0.012064,0.0121 0.018096,0.0181 0.00603,0.006 0.014282,0.0105 0.018098,0.0181 0.0027,0.005 -0.0027,0.0127 0,0.0181 0.00324,0.006 0.06486,0.0674 0.072386,0.0724 0.011224,0.007 0.024969,0.0106 0.036193,0.0181 0.026628,0.0178 0.045757,0.0546 0.072386,0.0724 0.00911,0.0399 0.037228,0.01 0.054289,0.0181 0.00763,0.004 0.010004,0.0154 0.018098,0.0181 0.011446,0.004 0.025403,-0.005 0.036193,0 0.00539,0.003 -0.00539,0.0154 0,0.0181 0.016185,0.008 0.038103,-0.008 0.05429,0 0.00763,0.004 0.010467,0.0143 0.018097,0.0181 0.00539,0.003 0.0127,-0.003 0.018098,0 0.00763,0.004 0.010467,0.0143 0.018098,0.0181 0.00551,0.003 0.04614,0 0.05429,0 0.048257,0 0.096515,0 0.144772,0 0.048257,0 0.096515,0 0.1447718,0 0.00815,0 0.048782,0.003 0.05429,0 0.00763,-0.004 0.014282,-0.0105 0.018098,-0.0181 0.0027,-0.005 -0.00539,-0.0154 0,-0.0181 0.01079,-0.005 0.024127,0 0.036193,0 0.00603,0 0.01383,0.004 0.018098,0 0.00427,-0.004 -0.00539,-0.0154 0,-0.0181 0.01079,-0.005 0.024749,0.004 0.036193,0 0.016187,-0.005 0.020008,-0.0308 0.036193,-0.0362 0.011446,-0.004 0.02413,0 0.036193,0 0.00603,0 0.0127,0.003 0.018097,0 0.00763,-0.004 0.010999,-0.0134 0.018098,-0.0181 0.012065,-0.006 0.024127,-0.0121 0.036193,-0.0181 0.00603,0 0.0127,0.003 0.018097,0 0.00763,-0.004 0.010004,-0.0154 0.018098,-0.0181 0.011446,-0.004 0.02413,0 0.036193,0 0.027683,0 0.04238,0.002 0.072386,-0.0181 0.00502,-0.003 -0.00539,-0.0154 0,-0.0181 0.036193,-0.0181 0.027145,0.009 0.054289,0 0.012065,-0.006 0.024127,-0.0121 0.036193,-0.0181 0,-0.006 -0.00427,-0.0138 0,-0.0181 0.00853,-0.009 0.025403,0.005 0.036193,0 0.00763,-0.004 0.010467,-0.0143 0.018098,-0.0181 0.01079,-0.005 0.025403,0.005 0.036193,0 0.055187,-0.0276 -0.033098,-0.0143 0.05429,-0.0362 0.011705,-0.003 0.024749,0.004 0.036193,0 0.016187,-0.005 0.020934,-0.0286 0.036193,-0.0362 0.00539,-0.003 0.0127,0.003 0.018097,0 0.00763,-0.004 0.010467,-0.0143 0.018097,-0.0181 0.00539,-0.003 0.01383,0.004 0.018098,0 0.00427,-0.004 -0.00427,-0.0138 0,-0.0181 0.00427,-0.004 0.0127,0.003 0.018097,0 0.00763,-0.004 0.010467,-0.0143 0.018098,-0.0181 0.00551,-0.003 0.04614,0 0.05429,0 0.074064,0 -0.053255,0.004 0.036193,-0.0181 0.00394,-9.8e-4 0.082249,0.004 0.090482,0 0.00763,-0.004 0.010004,-0.0154 0.018098,-0.0181 0.020092,-0.007 0.066432,0.004 0.090482,0 0.03034,-0.005 0.059962,-0.0143 0.090483,-0.0181 0.017957,-0.002 0.036193,0 0.054289,0 0.066354,0 0.1327078,0 0.1990616,0 0.096515,0 0.1930294,0 0.2895442,0 0.030161,0 0.060322,0 0.090482,0 0.018098,0 0.036733,-0.004 0.054289,0 0.00828,0.002 0.010467,0.0143 0.018098,0.0181 0.00539,0.003 0.0127,-0.003 0.018097,0 0.00763,0.004 0.010004,0.0154 0.018097,0.0181 0.011446,0.004 0.024746,-0.004 0.036193,0 0.016187,0.005 0.020934,0.0286 0.036193,0.0362 0.00539,0.003 0.0127,-0.003 0.018097,0 0.00763,0.004 0.010467,0.0143 0.018097,0.0181 0.00539,0.003 0.01383,-0.004 0.018098,0 0.00954,0.01 0.00856,0.0267 0.018097,0.0362 0.00427,0.004 0.012374,-0.002 0.018097,0 0.012795,0.004 0.025403,0.01 0.036193,0.0181 0.01365,0.0102 0.021564,0.0274 0.036193,0.0362 0.016357,0.01 0.037933,0.008 0.05429,0.0181 0.012065,0.0121 0.024127,0.0241 0.036193,0.0362 0.00603,0 0.0127,-0.003 0.018098,0 0.015261,0.008 0.021997,0.0267 0.036193,0.0362 0.00645,0.0445 0.038418,0.008 0.054289,0.0181 0.020233,0.0135 0.052689,0.0527 0.072386,0.0724 0.00603,0.006 0.010467,0.0143 0.018097,0.0181 0.00539,0.003 0.0127,-0.003 0.018097,0 0.015261,0.008 0.020931,0.0286 0.036193,0.0362 0.00539,0.003 0.0127,-0.003 0.018097,0 0.00763,0.004 0.00982,0.016 0.018098,0.0181 0.017555,0.004 0.036193,0 0.054289,0 0.024127,0 0.0485,-0.003 0.072386,0 0.018883,0.003 0.035474,0.015 0.05429,0.0181 0.022101,0.004 0.082233,0 0.1085789,0 0.078418,0 0.1568366,0 0.2352546,0 0.042225,0 0.08445,0 0.1266756,0 0.00603,0 0.012065,0 0.018098,0 0.00603,0 0.0127,0.003 0.018097,0 0.00763,-0.004 0.010004,-0.0154 0.018097,-0.0181 0.00828,-0.003 0.080382,0 0.090483,0 0.00603,0 0.01383,0.004 0.018097,0 0.00954,-0.01 0.00856,-0.0267 0.018097,-0.0362 0.00427,-0.004 0.0127,0.003 0.018098,0 0.021717,-0.0109 0.032574,-0.0434 0.05429,-0.0543 0.010676,-0.005 0.041842,0.004 0.05429,0 0.012795,-0.004 0.023397,-0.0138 0.036193,-0.0181 0.00572,-0.002 0.0127,0.003 0.018097,0 0.00763,-0.004 0.010999,-0.0134 0.018098,-0.0181 0.011224,-0.007 0.024969,-0.0106 0.036193,-0.0181 0.00603,-0.006 0.012065,-0.0121 0.018098,-0.0181 0,-0.006 -0.00427,-0.0138 0,-0.0181 0.00954,-0.01 0.026655,-0.009 0.036193,-0.0181 0.00427,-0.004 -0.00427,-0.0138 0,-0.0181 0.00427,-0.004 0.0127,0.003 0.018098,0 0.00763,-0.004 0.010467,-0.0143 0.018097,-0.0181 0.00539,-0.003 0.0127,0.003 0.018097,0 0.015261,-0.008 0.020934,-0.0286 0.036193,-0.0362 0.00539,-0.003 0.0127,0.003 0.018097,0 0.015261,-0.008 0.020934,-0.0286 0.036193,-0.0362 0.00539,-0.003 0.013832,0.004 0.018097,0 0.00427,-0.004 -0.00427,-0.0138 0,-0.0181 0.00427,-0.004 0.0127,0.003 0.018098,0 0.00763,-0.004 0.010467,-0.0143 0.018097,-0.0181 0.01079,-0.005 0.025403,0.005 0.036193,0 0.015261,-0.008 0.020008,-0.0308 0.036193,-0.0362 0.02471,-0.008 0.08387,0.008 0.1085789,0 0.00809,-0.003 0.010467,-0.0143 0.018097,-0.0181 0.014478,-0.007 0.039812,0.007 0.054289,0 0.00763,-0.004 0.010467,-0.0143 0.018098,-0.0181 0.010988,-0.005 0.09759,0.005 0.1085791,0 0.00763,-0.004 0.010467,-0.0143 0.018098,-0.0181 0.00539,-0.003 0.012065,0 0.018097,0 0.012065,0 0.024127,0 0.036193,0 0.048257,0 0.096515,0 0.1447718,0 0.012451,0 0.098042,0.004 0.1085792,0 0.012795,-0.004 0.02413,-0.0121 0.036193,-0.0181"
       id="path5303"
       inkscape:connector-curvature="0" />
    <path
       style="fill:none;stroke:#000000;stroke-width:0.26458332px;stroke-linecap:butt;stroke-linejoin:miter;stroke-opacity:1"
       d="m 7.908172,293.79692 c -0.060019,-0.06 0.00853,0.0171 -0.018097,-0.0362 -0.00381,-0.008 -0.014276,-0.0101 -0.018096,-0.0181 -0.00809,-0.0162 0.016186,-0.04 0,-0.0543 -0.0027,-0.005 -0.013827,0.004 -0.018097,0 -0.00427,-0.004 0.00427,-0.0141 0,-0.0181 -0.00427,-0.004 -0.013827,0.004 -0.018097,0 -0.00427,-0.004 0.00427,-0.0141 0,-0.0181 -0.00426,-0.004 -0.013826,0.004 -0.018096,0 -0.00954,-0.01 -0.00856,-0.0262 -0.018097,-0.0362 -0.00426,-0.004 -0.013826,0.004 -0.018096,0 -0.00427,-0.004 0.00427,-0.0141 0,-0.0181 -0.00427,-0.004 -0.012697,0.003 -0.018097,0 -0.00763,-0.004 -0.010466,-0.0141 -0.018096,-0.0181 -0.0054,-0.003 -0.013827,0.004 -0.018097,0 -0.00427,-0.004 0.0054,-0.0151 0,-0.0181 -0.046079,-0.023 -0.127838,0.0827 -0.144723,-0.0542 0.00603,0 0.018098,0.006 0.018098,0 0,-0.006 -0.013828,-0.004 -0.018098,0 -0.00427,0.004 0.00539,0.0151 0,0.0181 -0.016186,0.008 -0.036192,0 -0.054289,0 -0.036193,0 -0.072386,0 -0.1085792,0 -0.018097,0 -0.037121,-0.006 -0.05429,0 -0.00572,0.002 0.00427,0.0141 0,0.0181 -0.00853,0.009 -0.027663,-0.009 -0.036193,0 -0.00427,0.004 0.00427,0.0141 0,0.0181 -0.00427,0.004 -0.012708,-0.003 -0.018098,0 -0.00763,0.004 -0.010467,0.0141 -0.018097,0.0181 -0.01079,0.005 -0.027663,-0.009 -0.036193,0 -0.037443,0.0372 0.057216,-0.001 -0.018097,0.0362 -0.01079,0.005 -0.025403,-0.005 -0.036193,0 -0.00763,0.004 -0.010997,0.0131 -0.018097,0.0181 -0.011224,0.007 -0.024969,0.0111 -0.036193,0.0181 -0.0071,0.005 -0.010467,0.0141 -0.018097,0.0181 -0.0054,0.003 -0.015397,-0.005 -0.018097,0 -0.00539,0.0108 0.00853,0.0272 0,0.0362 -0.018096,0.0181 -0.036191,-0.009 -0.054289,0 -0.00763,0.004 -0.010467,0.0141 -0.018097,0.0181 -0.0054,0.003 -0.013827,-0.004 -0.018097,0 -0.00427,0.004 0.00427,0.0141 0,0.0181 -0.024866,0.0251 -0.059783,0.0181 -0.090483,0.0181 -0.042225,0 -0.08445,0 -0.1266753,0 -0.00815,0 -0.04878,-0.003 -0.05429,0 -0.00763,0.004 -0.010467,0.0141 -0.018097,0.0181 -0.0054,0.003 -0.012068,0 -0.018098,0 -0.012063,0 -0.024128,0 -0.036193,0 -0.042226,0 -0.084451,0 -0.1266756,0 -0.00439,0 -0.053707,5.9e-4 -0.054289,0 -0.00427,-0.004 0.00427,-0.0141 0,-0.0181 -0.00281,-0.003 -0.04725,0.002 -0.05429,0 -0.012796,-0.004 -0.022966,-0.0151 -0.036193,-0.0181 -0.017746,-0.004 -0.036192,0 -0.05429,0 -0.00603,0 -0.013077,0.003 -0.018097,0 -0.014196,-0.01 -0.024128,-0.0241 -0.036193,-0.0362 -0.00603,0 -0.012707,0.003 -0.018097,0 -0.00763,-0.004 -0.010468,-0.0141 -0.018098,-0.0181 -0.01079,-0.005 -0.025403,0.005 -0.036193,0 -0.00763,-0.004 -0.010008,-0.0151 -0.018098,-0.0181 -0.011446,-0.004 -0.024488,0.003 -0.036193,0 -0.013084,-0.003 -0.023398,-0.0141 -0.036193,-0.0181 -0.00572,-0.002 -0.013077,0.003 -0.018097,0 -0.014195,-0.01 -0.021998,-0.0272 -0.036193,-0.0362 -0.010039,-0.007 -0.024747,0.004 -0.036193,0 -0.131081,-0.0432 0.028531,0.005 -0.05429,-0.0362 -0.0054,-0.003 -0.012707,0.003 -0.018097,0 -0.015262,-0.008 -0.020932,-0.0282 -0.036193,-0.0362 -0.01079,-0.005 -0.025403,0.005 -0.036193,0 -0.00763,-0.004 -0.010467,-0.0141 -0.018097,-0.0181 -0.0054,-0.003 -0.012708,0.003 -0.018098,0 -0.00763,-0.004 -0.010467,-0.0141 -0.018097,-0.0181 -0.0054,-0.003 -0.012708,0.003 -0.018098,0 -0.00763,-0.004 -0.010007,-0.0151 -0.018097,-0.0181 -0.011446,-0.004 -0.024128,0 -0.036193,0 -0.018097,0 -0.036333,0.002 -0.05429,0 -0.1609385,-0.0201 -0.023385,-0.0129 -0.1628685,-0.0362 -0.011902,-0.002 -0.024747,0.004 -0.036193,0 -0.00809,-0.003 -0.010468,-0.0141 -0.018098,-0.0181 -0.014477,-0.007 -0.039811,0.007 -0.054289,0 -0.01079,-0.005 0.00853,-0.0272 0,-0.0362 -0.00275,-0.003 -0.081192,0.005 -0.090482,0 -0.00763,-0.004 -0.010007,-0.0151 -0.018097,-0.0181 -0.011446,-0.004 -0.024128,0 -0.036193,0 -0.012063,0 -0.024128,0 -0.036193,0 -0.00617,0 -0.062596,-0.003 -0.072386,0 -0.012796,0.004 -0.023107,0.0151 -0.036193,0.0181 -0.013335,0.003 -0.07988,-0.005 -0.090482,0 -0.00763,0.004 -0.010467,0.0141 -0.018097,0.0181 -0.01079,0.005 -0.025403,-0.005 -0.036193,0 -0.00763,0.004 -0.010468,0.0141 -0.018098,0.0181 -0.0054,0.003 -0.013827,-0.004 -0.018097,0 -0.00427,0.004 0.00427,0.0141 0,0.0181 -0.00427,0.004 -0.013828,-0.004 -0.018098,0 -0.00427,0.004 0.00427,0.0141 0,0.0181 -0.00427,0.004 -0.012707,-0.003 -0.018097,0 -0.00763,0.004 -0.010467,0.0141 -0.018097,0.0181 -0.0054,0.003 -0.012708,-0.003 -0.018098,0 -0.015259,0.008 -0.020932,0.0282 -0.036193,0.0362 -0.0054,0.003 -0.012378,-0.002 -0.018098,0 -0.13108,0.0432 0.028531,-0.005 -0.054289,0.0362 -0.0054,0.003 -0.013827,-0.004 -0.018097,0 -0.00954,0.01 -0.00856,0.0262 -0.018098,0.0362 -0.00426,0.004 -0.012377,-0.002 -0.018097,0 -0.012796,0.004 -0.024969,0.0111 -0.036193,0.0181 -0.014196,0.01 -0.020932,0.0282 -0.036193,0.0362 -0.0054,0.003 -0.012708,-0.003 -0.018098,0 -0.0048,0.002 -0.05188,0.0493 -0.05429,0.0543 -0.0027,0.005 0.00539,0.0151 0,0.0181 -0.01079,0.005 -0.024747,-0.004 -0.036193,0 -0.00809,0.003 -0.010468,0.0141 -0.018098,0.0181 -0.0054,0.003 -0.012707,-0.003 -0.018097,0 -0.075314,0.0372 0.019345,-0.001 -0.018097,0.0362 -0.00427,0.004 -0.013828,-0.004 -0.018098,0 -0.00427,0.004 0.00427,0.0141 0,0.0181 -0.00853,0.009 -0.025403,-0.005 -0.036193,0 -0.00763,0.004 -0.010467,0.0141 -0.018097,0.0181 -0.0054,0.003 -0.012067,0 -0.018097,0 -0.030161,0 -0.060322,0 -0.090483,0 -0.072386,0 -0.1447721,0 -0.2171581,0 -0.05429,0 -0.1085785,0 -0.1628685,0 -0.018097,0 -0.036192,0 -0.05429,0 -0.00603,0 -0.012378,0.002 -0.018098,0 -0.012796,-0.004 -0.023398,-0.0141 -0.036193,-0.0181 -0.017168,-0.006 -0.037121,0.006 -0.05429,0 -0.00809,-0.003 -0.010468,-0.0141 -0.018098,-0.0181 -0.00805,-0.004 -0.094392,0.003 -0.1085792,0 -0.018704,-0.004 -0.036191,-0.0121 -0.054289,-0.0181 -0.012063,-0.006 -0.023107,-0.0151 -0.036193,-0.0181 -0.011703,-0.003 -0.02499,0.004 -0.036193,0 -0.020194,-0.008 -0.034838,-0.0262 -0.05429,-0.0362 -0.044569,-0.0221 0.016337,0.0525 -0.054289,-0.0181 -0.00427,-0.004 0.00426,-0.0141 0,-0.0181 -0.019075,-0.0191 -0.053309,-0.0171 -0.072386,-0.0362 -0.00853,-0.008 0.00853,-0.0272 0,-0.0362 -0.00853,-0.009 -0.027663,0.009 -0.036193,0 -0.00426,-0.004 0.00427,-0.0141 0,-0.0181 -0.00954,-0.009 -0.024969,-0.0111 -0.036193,-0.0181 -0.0071,-0.005 -0.010998,-0.0131 -0.018098,-0.0181 -0.011224,-0.007 -0.024969,-0.0111 -0.036193,-0.0181 -0.0071,-0.005 -0.012068,-0.0121 -0.018098,-0.0181 0,-0.006 0.00427,-0.0141 0,-0.0181 -0.00954,-0.009 -0.026653,-0.008 -0.036193,-0.0181 -0.00954,-0.01 -0.00856,-0.0262 -0.018098,-0.0362 -0.00954,-0.009 -0.026653,-0.008 -0.036193,-0.0181 -0.00427,-0.004 0.00539,-0.0151 0,-0.0181 -0.01079,-0.005 -0.027663,0.009 -0.036193,0 -0.00853,-0.009 0.00853,-0.0272 0,-0.0362 -0.00853,-0.009 -0.026155,0.007 -0.036193,0 -0.011228,-0.007 -0.00856,-0.0262 -0.018098,-0.0362 -0.00427,-0.004 -0.012708,0.003 -0.018098,0 -0.021715,-0.0109 -0.032575,-0.0434 -0.054289,-0.0543 -0.0054,-0.003 -0.013827,0.004 -0.018097,0 -0.00427,-0.004 0.00427,-0.0141 0,-0.0181 -0.00427,-0.004 -0.012068,0 -0.018098,0 -0.024129,0 -0.048256,0 -0.072386,0 -0.054289,0 -0.1085785,0 -0.1628685,0 -0.2774796,0 -0.5549593,0 -0.832439,0 -0.063581,0.0186 -0.1188759,0.0181 -0.180965,0.0181 -0.00603,0 -0.012064,0 -0.018096,0 -0.00603,0 -0.012701,-0.003 -0.018096,0 -0.021716,0.0109 -0.032574,0.0434 -0.05429,0.0543 -0.053254,0.0266 0.023826,-0.0419 -0.036193,0.0181 -0.00603,0.006 -0.012064,0.0121 -0.018096,0.0181 -0.00603,0.006 -0.010466,0.0143 -0.018096,0.0181 -0.010791,0.005 -0.027662,-0.009 -0.036193,0 -0.00427,0.004 0.00427,0.0138 0,0.0181 -0.00632,0.006 -0.050534,-0.008 -0.054289,0 -0.0054,0.0108 0.0054,0.0254 0,0.0362 -0.0027,0.005 -0.013831,-0.004 -0.018096,0 -0.00427,0.004 0.00427,0.0138 0,0.0181 -0.048257,0 0.00603,-0.006 -0.018097,0.0181 -0.00427,0.004 -0.013831,-0.004 -0.018096,0 -0.00853,0.009 0.00853,0.0277 0,0.0362 -0.00853,0.009 -0.025402,-0.005 -0.036193,0 -0.00763,0.004 -0.010466,0.0143 -0.018096,0.0181 -0.0054,0.003 -0.013831,-0.004 -0.018096,0 -0.00427,0.004 0.00427,0.0138 0,0.0181 -0.00853,0.009 -0.025402,-0.005 -0.036193,0 -0.01526,0.008 -0.020933,0.0286 -0.036193,0.0362 -0.0054,0.003 -0.012701,-0.003 -0.018096,0 -0.00763,0.004 -0.012064,0.0121 -0.018097,0.0181 -0.00603,0.006 -0.014281,0.0105 -0.018096,0.0181 -0.0027,0.005 0.00427,0.0138 0,0.0181 -0.00427,0.004 -0.013831,-0.004 -0.018096,0 -0.00427,0.004 0.00427,0.0138 0,0.0181 -0.00427,0.004 -0.012701,-0.003 -0.018096,0 -0.00763,0.004 -0.010466,0.0143 -0.018096,0.0181 -0.010791,0.005 -0.027662,-0.009 -0.036193,0 -0.00427,0.004 0.00427,0.0138 0,0.0181 -0.00427,0.004 -0.013831,-0.004 -0.018096,0 -0.00427,0.004 0.00427,0.0138 0,0.0181 -0.00427,0.004 -0.013831,-0.004 -0.018096,0 -0.00427,0.004 0.00427,0.0138 0,0.0181 -0.00427,0.004 -0.013831,-0.004 -0.018096,0 -0.0426912,0.0427 0.0107,0.0543 -0.036193,0.0543"
       id="path5305"
       inkscape:connector-curvature="0" />
  </g>
</svg>
